%TF.GenerationSoftware,KiCad,Pcbnew,9.0.0*%
%TF.CreationDate,2025-03-30T14:17:43+09:00*%
%TF.ProjectId,v1000,76313030-302e-46b6-9963-61645f706362,rev?*%
%TF.SameCoordinates,Original*%
%TF.FileFunction,Legend,Bot*%
%TF.FilePolarity,Positive*%
%FSLAX46Y46*%
G04 Gerber Fmt 4.6, Leading zero omitted, Abs format (unit mm)*
G04 Created by KiCad (PCBNEW 9.0.0) date 2025-03-30 14:17:43*
%MOMM*%
%LPD*%
G01*
G04 APERTURE LIST*
%ADD10C,0.150000*%
%ADD11C,0.254000*%
%ADD12C,0.120000*%
%ADD13C,0.200000*%
G04 APERTURE END LIST*
D10*
X121724819Y-96631905D02*
X120724819Y-96631905D01*
X120724819Y-96631905D02*
X120724819Y-96870000D01*
X120724819Y-96870000D02*
X120772438Y-97012857D01*
X120772438Y-97012857D02*
X120867676Y-97108095D01*
X120867676Y-97108095D02*
X120962914Y-97155714D01*
X120962914Y-97155714D02*
X121153390Y-97203333D01*
X121153390Y-97203333D02*
X121296247Y-97203333D01*
X121296247Y-97203333D02*
X121486723Y-97155714D01*
X121486723Y-97155714D02*
X121581961Y-97108095D01*
X121581961Y-97108095D02*
X121677200Y-97012857D01*
X121677200Y-97012857D02*
X121724819Y-96870000D01*
X121724819Y-96870000D02*
X121724819Y-96631905D01*
X120724819Y-98060476D02*
X120724819Y-97870000D01*
X120724819Y-97870000D02*
X120772438Y-97774762D01*
X120772438Y-97774762D02*
X120820057Y-97727143D01*
X120820057Y-97727143D02*
X120962914Y-97631905D01*
X120962914Y-97631905D02*
X121153390Y-97584286D01*
X121153390Y-97584286D02*
X121534342Y-97584286D01*
X121534342Y-97584286D02*
X121629580Y-97631905D01*
X121629580Y-97631905D02*
X121677200Y-97679524D01*
X121677200Y-97679524D02*
X121724819Y-97774762D01*
X121724819Y-97774762D02*
X121724819Y-97965238D01*
X121724819Y-97965238D02*
X121677200Y-98060476D01*
X121677200Y-98060476D02*
X121629580Y-98108095D01*
X121629580Y-98108095D02*
X121534342Y-98155714D01*
X121534342Y-98155714D02*
X121296247Y-98155714D01*
X121296247Y-98155714D02*
X121201009Y-98108095D01*
X121201009Y-98108095D02*
X121153390Y-98060476D01*
X121153390Y-98060476D02*
X121105771Y-97965238D01*
X121105771Y-97965238D02*
X121105771Y-97774762D01*
X121105771Y-97774762D02*
X121153390Y-97679524D01*
X121153390Y-97679524D02*
X121201009Y-97631905D01*
X121201009Y-97631905D02*
X121296247Y-97584286D01*
X121834819Y-88101905D02*
X120834819Y-88101905D01*
X120834819Y-88101905D02*
X120834819Y-88340000D01*
X120834819Y-88340000D02*
X120882438Y-88482857D01*
X120882438Y-88482857D02*
X120977676Y-88578095D01*
X120977676Y-88578095D02*
X121072914Y-88625714D01*
X121072914Y-88625714D02*
X121263390Y-88673333D01*
X121263390Y-88673333D02*
X121406247Y-88673333D01*
X121406247Y-88673333D02*
X121596723Y-88625714D01*
X121596723Y-88625714D02*
X121691961Y-88578095D01*
X121691961Y-88578095D02*
X121787200Y-88482857D01*
X121787200Y-88482857D02*
X121834819Y-88340000D01*
X121834819Y-88340000D02*
X121834819Y-88101905D01*
X120834819Y-89578095D02*
X120834819Y-89101905D01*
X120834819Y-89101905D02*
X121311009Y-89054286D01*
X121311009Y-89054286D02*
X121263390Y-89101905D01*
X121263390Y-89101905D02*
X121215771Y-89197143D01*
X121215771Y-89197143D02*
X121215771Y-89435238D01*
X121215771Y-89435238D02*
X121263390Y-89530476D01*
X121263390Y-89530476D02*
X121311009Y-89578095D01*
X121311009Y-89578095D02*
X121406247Y-89625714D01*
X121406247Y-89625714D02*
X121644342Y-89625714D01*
X121644342Y-89625714D02*
X121739580Y-89578095D01*
X121739580Y-89578095D02*
X121787200Y-89530476D01*
X121787200Y-89530476D02*
X121834819Y-89435238D01*
X121834819Y-89435238D02*
X121834819Y-89197143D01*
X121834819Y-89197143D02*
X121787200Y-89101905D01*
X121787200Y-89101905D02*
X121739580Y-89054286D01*
X91042857Y-91119580D02*
X91090476Y-91167200D01*
X91090476Y-91167200D02*
X91233333Y-91214819D01*
X91233333Y-91214819D02*
X91328571Y-91214819D01*
X91328571Y-91214819D02*
X91471428Y-91167200D01*
X91471428Y-91167200D02*
X91566666Y-91071961D01*
X91566666Y-91071961D02*
X91614285Y-90976723D01*
X91614285Y-90976723D02*
X91661904Y-90786247D01*
X91661904Y-90786247D02*
X91661904Y-90643390D01*
X91661904Y-90643390D02*
X91614285Y-90452914D01*
X91614285Y-90452914D02*
X91566666Y-90357676D01*
X91566666Y-90357676D02*
X91471428Y-90262438D01*
X91471428Y-90262438D02*
X91328571Y-90214819D01*
X91328571Y-90214819D02*
X91233333Y-90214819D01*
X91233333Y-90214819D02*
X91090476Y-90262438D01*
X91090476Y-90262438D02*
X91042857Y-90310057D01*
X90661904Y-90310057D02*
X90614285Y-90262438D01*
X90614285Y-90262438D02*
X90519047Y-90214819D01*
X90519047Y-90214819D02*
X90280952Y-90214819D01*
X90280952Y-90214819D02*
X90185714Y-90262438D01*
X90185714Y-90262438D02*
X90138095Y-90310057D01*
X90138095Y-90310057D02*
X90090476Y-90405295D01*
X90090476Y-90405295D02*
X90090476Y-90500533D01*
X90090476Y-90500533D02*
X90138095Y-90643390D01*
X90138095Y-90643390D02*
X90709523Y-91214819D01*
X90709523Y-91214819D02*
X90090476Y-91214819D01*
X89471428Y-90214819D02*
X89376190Y-90214819D01*
X89376190Y-90214819D02*
X89280952Y-90262438D01*
X89280952Y-90262438D02*
X89233333Y-90310057D01*
X89233333Y-90310057D02*
X89185714Y-90405295D01*
X89185714Y-90405295D02*
X89138095Y-90595771D01*
X89138095Y-90595771D02*
X89138095Y-90833866D01*
X89138095Y-90833866D02*
X89185714Y-91024342D01*
X89185714Y-91024342D02*
X89233333Y-91119580D01*
X89233333Y-91119580D02*
X89280952Y-91167200D01*
X89280952Y-91167200D02*
X89376190Y-91214819D01*
X89376190Y-91214819D02*
X89471428Y-91214819D01*
X89471428Y-91214819D02*
X89566666Y-91167200D01*
X89566666Y-91167200D02*
X89614285Y-91119580D01*
X89614285Y-91119580D02*
X89661904Y-91024342D01*
X89661904Y-91024342D02*
X89709523Y-90833866D01*
X89709523Y-90833866D02*
X89709523Y-90595771D01*
X89709523Y-90595771D02*
X89661904Y-90405295D01*
X89661904Y-90405295D02*
X89614285Y-90310057D01*
X89614285Y-90310057D02*
X89566666Y-90262438D01*
X89566666Y-90262438D02*
X89471428Y-90214819D01*
X67534404Y-109034819D02*
X67534404Y-109844342D01*
X67534404Y-109844342D02*
X67486785Y-109939580D01*
X67486785Y-109939580D02*
X67439166Y-109987200D01*
X67439166Y-109987200D02*
X67343928Y-110034819D01*
X67343928Y-110034819D02*
X67153452Y-110034819D01*
X67153452Y-110034819D02*
X67058214Y-109987200D01*
X67058214Y-109987200D02*
X67010595Y-109939580D01*
X67010595Y-109939580D02*
X66962976Y-109844342D01*
X66962976Y-109844342D02*
X66962976Y-109034819D01*
X66010595Y-109034819D02*
X66486785Y-109034819D01*
X66486785Y-109034819D02*
X66534404Y-109511009D01*
X66534404Y-109511009D02*
X66486785Y-109463390D01*
X66486785Y-109463390D02*
X66391547Y-109415771D01*
X66391547Y-109415771D02*
X66153452Y-109415771D01*
X66153452Y-109415771D02*
X66058214Y-109463390D01*
X66058214Y-109463390D02*
X66010595Y-109511009D01*
X66010595Y-109511009D02*
X65962976Y-109606247D01*
X65962976Y-109606247D02*
X65962976Y-109844342D01*
X65962976Y-109844342D02*
X66010595Y-109939580D01*
X66010595Y-109939580D02*
X66058214Y-109987200D01*
X66058214Y-109987200D02*
X66153452Y-110034819D01*
X66153452Y-110034819D02*
X66391547Y-110034819D01*
X66391547Y-110034819D02*
X66486785Y-109987200D01*
X66486785Y-109987200D02*
X66534404Y-109939580D01*
X71074819Y-123697142D02*
X70598628Y-123363809D01*
X71074819Y-123125714D02*
X70074819Y-123125714D01*
X70074819Y-123125714D02*
X70074819Y-123506666D01*
X70074819Y-123506666D02*
X70122438Y-123601904D01*
X70122438Y-123601904D02*
X70170057Y-123649523D01*
X70170057Y-123649523D02*
X70265295Y-123697142D01*
X70265295Y-123697142D02*
X70408152Y-123697142D01*
X70408152Y-123697142D02*
X70503390Y-123649523D01*
X70503390Y-123649523D02*
X70551009Y-123601904D01*
X70551009Y-123601904D02*
X70598628Y-123506666D01*
X70598628Y-123506666D02*
X70598628Y-123125714D01*
X70170057Y-124078095D02*
X70122438Y-124125714D01*
X70122438Y-124125714D02*
X70074819Y-124220952D01*
X70074819Y-124220952D02*
X70074819Y-124459047D01*
X70074819Y-124459047D02*
X70122438Y-124554285D01*
X70122438Y-124554285D02*
X70170057Y-124601904D01*
X70170057Y-124601904D02*
X70265295Y-124649523D01*
X70265295Y-124649523D02*
X70360533Y-124649523D01*
X70360533Y-124649523D02*
X70503390Y-124601904D01*
X70503390Y-124601904D02*
X71074819Y-124030476D01*
X71074819Y-124030476D02*
X71074819Y-124649523D01*
X70170057Y-125030476D02*
X70122438Y-125078095D01*
X70122438Y-125078095D02*
X70074819Y-125173333D01*
X70074819Y-125173333D02*
X70074819Y-125411428D01*
X70074819Y-125411428D02*
X70122438Y-125506666D01*
X70122438Y-125506666D02*
X70170057Y-125554285D01*
X70170057Y-125554285D02*
X70265295Y-125601904D01*
X70265295Y-125601904D02*
X70360533Y-125601904D01*
X70360533Y-125601904D02*
X70503390Y-125554285D01*
X70503390Y-125554285D02*
X71074819Y-124982857D01*
X71074819Y-124982857D02*
X71074819Y-125601904D01*
X72376666Y-105799580D02*
X72424285Y-105847200D01*
X72424285Y-105847200D02*
X72567142Y-105894819D01*
X72567142Y-105894819D02*
X72662380Y-105894819D01*
X72662380Y-105894819D02*
X72805237Y-105847200D01*
X72805237Y-105847200D02*
X72900475Y-105751961D01*
X72900475Y-105751961D02*
X72948094Y-105656723D01*
X72948094Y-105656723D02*
X72995713Y-105466247D01*
X72995713Y-105466247D02*
X72995713Y-105323390D01*
X72995713Y-105323390D02*
X72948094Y-105132914D01*
X72948094Y-105132914D02*
X72900475Y-105037676D01*
X72900475Y-105037676D02*
X72805237Y-104942438D01*
X72805237Y-104942438D02*
X72662380Y-104894819D01*
X72662380Y-104894819D02*
X72567142Y-104894819D01*
X72567142Y-104894819D02*
X72424285Y-104942438D01*
X72424285Y-104942438D02*
X72376666Y-104990057D01*
X71995713Y-104990057D02*
X71948094Y-104942438D01*
X71948094Y-104942438D02*
X71852856Y-104894819D01*
X71852856Y-104894819D02*
X71614761Y-104894819D01*
X71614761Y-104894819D02*
X71519523Y-104942438D01*
X71519523Y-104942438D02*
X71471904Y-104990057D01*
X71471904Y-104990057D02*
X71424285Y-105085295D01*
X71424285Y-105085295D02*
X71424285Y-105180533D01*
X71424285Y-105180533D02*
X71471904Y-105323390D01*
X71471904Y-105323390D02*
X72043332Y-105894819D01*
X72043332Y-105894819D02*
X71424285Y-105894819D01*
X76759580Y-116647142D02*
X76807200Y-116599523D01*
X76807200Y-116599523D02*
X76854819Y-116456666D01*
X76854819Y-116456666D02*
X76854819Y-116361428D01*
X76854819Y-116361428D02*
X76807200Y-116218571D01*
X76807200Y-116218571D02*
X76711961Y-116123333D01*
X76711961Y-116123333D02*
X76616723Y-116075714D01*
X76616723Y-116075714D02*
X76426247Y-116028095D01*
X76426247Y-116028095D02*
X76283390Y-116028095D01*
X76283390Y-116028095D02*
X76092914Y-116075714D01*
X76092914Y-116075714D02*
X75997676Y-116123333D01*
X75997676Y-116123333D02*
X75902438Y-116218571D01*
X75902438Y-116218571D02*
X75854819Y-116361428D01*
X75854819Y-116361428D02*
X75854819Y-116456666D01*
X75854819Y-116456666D02*
X75902438Y-116599523D01*
X75902438Y-116599523D02*
X75950057Y-116647142D01*
X75950057Y-117028095D02*
X75902438Y-117075714D01*
X75902438Y-117075714D02*
X75854819Y-117170952D01*
X75854819Y-117170952D02*
X75854819Y-117409047D01*
X75854819Y-117409047D02*
X75902438Y-117504285D01*
X75902438Y-117504285D02*
X75950057Y-117551904D01*
X75950057Y-117551904D02*
X76045295Y-117599523D01*
X76045295Y-117599523D02*
X76140533Y-117599523D01*
X76140533Y-117599523D02*
X76283390Y-117551904D01*
X76283390Y-117551904D02*
X76854819Y-116980476D01*
X76854819Y-116980476D02*
X76854819Y-117599523D01*
X75854819Y-118504285D02*
X75854819Y-118028095D01*
X75854819Y-118028095D02*
X76331009Y-117980476D01*
X76331009Y-117980476D02*
X76283390Y-118028095D01*
X76283390Y-118028095D02*
X76235771Y-118123333D01*
X76235771Y-118123333D02*
X76235771Y-118361428D01*
X76235771Y-118361428D02*
X76283390Y-118456666D01*
X76283390Y-118456666D02*
X76331009Y-118504285D01*
X76331009Y-118504285D02*
X76426247Y-118551904D01*
X76426247Y-118551904D02*
X76664342Y-118551904D01*
X76664342Y-118551904D02*
X76759580Y-118504285D01*
X76759580Y-118504285D02*
X76807200Y-118456666D01*
X76807200Y-118456666D02*
X76854819Y-118361428D01*
X76854819Y-118361428D02*
X76854819Y-118123333D01*
X76854819Y-118123333D02*
X76807200Y-118028095D01*
X76807200Y-118028095D02*
X76759580Y-117980476D01*
X87252857Y-90009580D02*
X87300476Y-90057200D01*
X87300476Y-90057200D02*
X87443333Y-90104819D01*
X87443333Y-90104819D02*
X87538571Y-90104819D01*
X87538571Y-90104819D02*
X87681428Y-90057200D01*
X87681428Y-90057200D02*
X87776666Y-89961961D01*
X87776666Y-89961961D02*
X87824285Y-89866723D01*
X87824285Y-89866723D02*
X87871904Y-89676247D01*
X87871904Y-89676247D02*
X87871904Y-89533390D01*
X87871904Y-89533390D02*
X87824285Y-89342914D01*
X87824285Y-89342914D02*
X87776666Y-89247676D01*
X87776666Y-89247676D02*
X87681428Y-89152438D01*
X87681428Y-89152438D02*
X87538571Y-89104819D01*
X87538571Y-89104819D02*
X87443333Y-89104819D01*
X87443333Y-89104819D02*
X87300476Y-89152438D01*
X87300476Y-89152438D02*
X87252857Y-89200057D01*
X86300476Y-90104819D02*
X86871904Y-90104819D01*
X86586190Y-90104819D02*
X86586190Y-89104819D01*
X86586190Y-89104819D02*
X86681428Y-89247676D01*
X86681428Y-89247676D02*
X86776666Y-89342914D01*
X86776666Y-89342914D02*
X86871904Y-89390533D01*
X85967142Y-89104819D02*
X85300476Y-89104819D01*
X85300476Y-89104819D02*
X85729047Y-90104819D01*
X75774166Y-105189580D02*
X75821785Y-105237200D01*
X75821785Y-105237200D02*
X75964642Y-105284819D01*
X75964642Y-105284819D02*
X76059880Y-105284819D01*
X76059880Y-105284819D02*
X76202737Y-105237200D01*
X76202737Y-105237200D02*
X76297975Y-105141961D01*
X76297975Y-105141961D02*
X76345594Y-105046723D01*
X76345594Y-105046723D02*
X76393213Y-104856247D01*
X76393213Y-104856247D02*
X76393213Y-104713390D01*
X76393213Y-104713390D02*
X76345594Y-104522914D01*
X76345594Y-104522914D02*
X76297975Y-104427676D01*
X76297975Y-104427676D02*
X76202737Y-104332438D01*
X76202737Y-104332438D02*
X76059880Y-104284819D01*
X76059880Y-104284819D02*
X75964642Y-104284819D01*
X75964642Y-104284819D02*
X75821785Y-104332438D01*
X75821785Y-104332438D02*
X75774166Y-104380057D01*
X74821785Y-105284819D02*
X75393213Y-105284819D01*
X75107499Y-105284819D02*
X75107499Y-104284819D01*
X75107499Y-104284819D02*
X75202737Y-104427676D01*
X75202737Y-104427676D02*
X75297975Y-104522914D01*
X75297975Y-104522914D02*
X75393213Y-104570533D01*
X121904819Y-82457142D02*
X121428628Y-82123809D01*
X121904819Y-81885714D02*
X120904819Y-81885714D01*
X120904819Y-81885714D02*
X120904819Y-82266666D01*
X120904819Y-82266666D02*
X120952438Y-82361904D01*
X120952438Y-82361904D02*
X121000057Y-82409523D01*
X121000057Y-82409523D02*
X121095295Y-82457142D01*
X121095295Y-82457142D02*
X121238152Y-82457142D01*
X121238152Y-82457142D02*
X121333390Y-82409523D01*
X121333390Y-82409523D02*
X121381009Y-82361904D01*
X121381009Y-82361904D02*
X121428628Y-82266666D01*
X121428628Y-82266666D02*
X121428628Y-81885714D01*
X121904819Y-83409523D02*
X121904819Y-82838095D01*
X121904819Y-83123809D02*
X120904819Y-83123809D01*
X120904819Y-83123809D02*
X121047676Y-83028571D01*
X121047676Y-83028571D02*
X121142914Y-82933333D01*
X121142914Y-82933333D02*
X121190533Y-82838095D01*
X121904819Y-83885714D02*
X121904819Y-84076190D01*
X121904819Y-84076190D02*
X121857200Y-84171428D01*
X121857200Y-84171428D02*
X121809580Y-84219047D01*
X121809580Y-84219047D02*
X121666723Y-84314285D01*
X121666723Y-84314285D02*
X121476247Y-84361904D01*
X121476247Y-84361904D02*
X121095295Y-84361904D01*
X121095295Y-84361904D02*
X121000057Y-84314285D01*
X121000057Y-84314285D02*
X120952438Y-84266666D01*
X120952438Y-84266666D02*
X120904819Y-84171428D01*
X120904819Y-84171428D02*
X120904819Y-83980952D01*
X120904819Y-83980952D02*
X120952438Y-83885714D01*
X120952438Y-83885714D02*
X121000057Y-83838095D01*
X121000057Y-83838095D02*
X121095295Y-83790476D01*
X121095295Y-83790476D02*
X121333390Y-83790476D01*
X121333390Y-83790476D02*
X121428628Y-83838095D01*
X121428628Y-83838095D02*
X121476247Y-83885714D01*
X121476247Y-83885714D02*
X121523866Y-83980952D01*
X121523866Y-83980952D02*
X121523866Y-84171428D01*
X121523866Y-84171428D02*
X121476247Y-84266666D01*
X121476247Y-84266666D02*
X121428628Y-84314285D01*
X121428628Y-84314285D02*
X121333390Y-84361904D01*
X72824819Y-123667142D02*
X72348628Y-123333809D01*
X72824819Y-123095714D02*
X71824819Y-123095714D01*
X71824819Y-123095714D02*
X71824819Y-123476666D01*
X71824819Y-123476666D02*
X71872438Y-123571904D01*
X71872438Y-123571904D02*
X71920057Y-123619523D01*
X71920057Y-123619523D02*
X72015295Y-123667142D01*
X72015295Y-123667142D02*
X72158152Y-123667142D01*
X72158152Y-123667142D02*
X72253390Y-123619523D01*
X72253390Y-123619523D02*
X72301009Y-123571904D01*
X72301009Y-123571904D02*
X72348628Y-123476666D01*
X72348628Y-123476666D02*
X72348628Y-123095714D01*
X71920057Y-124048095D02*
X71872438Y-124095714D01*
X71872438Y-124095714D02*
X71824819Y-124190952D01*
X71824819Y-124190952D02*
X71824819Y-124429047D01*
X71824819Y-124429047D02*
X71872438Y-124524285D01*
X71872438Y-124524285D02*
X71920057Y-124571904D01*
X71920057Y-124571904D02*
X72015295Y-124619523D01*
X72015295Y-124619523D02*
X72110533Y-124619523D01*
X72110533Y-124619523D02*
X72253390Y-124571904D01*
X72253390Y-124571904D02*
X72824819Y-124000476D01*
X72824819Y-124000476D02*
X72824819Y-124619523D01*
X71824819Y-124952857D02*
X71824819Y-125571904D01*
X71824819Y-125571904D02*
X72205771Y-125238571D01*
X72205771Y-125238571D02*
X72205771Y-125381428D01*
X72205771Y-125381428D02*
X72253390Y-125476666D01*
X72253390Y-125476666D02*
X72301009Y-125524285D01*
X72301009Y-125524285D02*
X72396247Y-125571904D01*
X72396247Y-125571904D02*
X72634342Y-125571904D01*
X72634342Y-125571904D02*
X72729580Y-125524285D01*
X72729580Y-125524285D02*
X72777200Y-125476666D01*
X72777200Y-125476666D02*
X72824819Y-125381428D01*
X72824819Y-125381428D02*
X72824819Y-125095714D01*
X72824819Y-125095714D02*
X72777200Y-125000476D01*
X72777200Y-125000476D02*
X72729580Y-124952857D01*
D11*
X69374318Y-116370237D02*
X68104318Y-116370237D01*
X69253365Y-117700714D02*
X69313842Y-117640238D01*
X69313842Y-117640238D02*
X69374318Y-117458809D01*
X69374318Y-117458809D02*
X69374318Y-117337857D01*
X69374318Y-117337857D02*
X69313842Y-117156428D01*
X69313842Y-117156428D02*
X69192889Y-117035476D01*
X69192889Y-117035476D02*
X69071937Y-116974999D01*
X69071937Y-116974999D02*
X68830032Y-116914523D01*
X68830032Y-116914523D02*
X68648603Y-116914523D01*
X68648603Y-116914523D02*
X68406699Y-116974999D01*
X68406699Y-116974999D02*
X68285746Y-117035476D01*
X68285746Y-117035476D02*
X68164794Y-117156428D01*
X68164794Y-117156428D02*
X68104318Y-117337857D01*
X68104318Y-117337857D02*
X68104318Y-117458809D01*
X68104318Y-117458809D02*
X68164794Y-117640238D01*
X68164794Y-117640238D02*
X68225270Y-117700714D01*
X68225270Y-118184523D02*
X68164794Y-118244999D01*
X68164794Y-118244999D02*
X68104318Y-118365952D01*
X68104318Y-118365952D02*
X68104318Y-118668333D01*
X68104318Y-118668333D02*
X68164794Y-118789285D01*
X68164794Y-118789285D02*
X68225270Y-118849761D01*
X68225270Y-118849761D02*
X68346222Y-118910238D01*
X68346222Y-118910238D02*
X68467175Y-118910238D01*
X68467175Y-118910238D02*
X68648603Y-118849761D01*
X68648603Y-118849761D02*
X69374318Y-118124047D01*
X69374318Y-118124047D02*
X69374318Y-118910238D01*
D10*
X123574819Y-100637142D02*
X123098628Y-100303809D01*
X123574819Y-100065714D02*
X122574819Y-100065714D01*
X122574819Y-100065714D02*
X122574819Y-100446666D01*
X122574819Y-100446666D02*
X122622438Y-100541904D01*
X122622438Y-100541904D02*
X122670057Y-100589523D01*
X122670057Y-100589523D02*
X122765295Y-100637142D01*
X122765295Y-100637142D02*
X122908152Y-100637142D01*
X122908152Y-100637142D02*
X123003390Y-100589523D01*
X123003390Y-100589523D02*
X123051009Y-100541904D01*
X123051009Y-100541904D02*
X123098628Y-100446666D01*
X123098628Y-100446666D02*
X123098628Y-100065714D01*
X123574819Y-101589523D02*
X123574819Y-101018095D01*
X123574819Y-101303809D02*
X122574819Y-101303809D01*
X122574819Y-101303809D02*
X122717676Y-101208571D01*
X122717676Y-101208571D02*
X122812914Y-101113333D01*
X122812914Y-101113333D02*
X122860533Y-101018095D01*
X123003390Y-102160952D02*
X122955771Y-102065714D01*
X122955771Y-102065714D02*
X122908152Y-102018095D01*
X122908152Y-102018095D02*
X122812914Y-101970476D01*
X122812914Y-101970476D02*
X122765295Y-101970476D01*
X122765295Y-101970476D02*
X122670057Y-102018095D01*
X122670057Y-102018095D02*
X122622438Y-102065714D01*
X122622438Y-102065714D02*
X122574819Y-102160952D01*
X122574819Y-102160952D02*
X122574819Y-102351428D01*
X122574819Y-102351428D02*
X122622438Y-102446666D01*
X122622438Y-102446666D02*
X122670057Y-102494285D01*
X122670057Y-102494285D02*
X122765295Y-102541904D01*
X122765295Y-102541904D02*
X122812914Y-102541904D01*
X122812914Y-102541904D02*
X122908152Y-102494285D01*
X122908152Y-102494285D02*
X122955771Y-102446666D01*
X122955771Y-102446666D02*
X123003390Y-102351428D01*
X123003390Y-102351428D02*
X123003390Y-102160952D01*
X123003390Y-102160952D02*
X123051009Y-102065714D01*
X123051009Y-102065714D02*
X123098628Y-102018095D01*
X123098628Y-102018095D02*
X123193866Y-101970476D01*
X123193866Y-101970476D02*
X123384342Y-101970476D01*
X123384342Y-101970476D02*
X123479580Y-102018095D01*
X123479580Y-102018095D02*
X123527200Y-102065714D01*
X123527200Y-102065714D02*
X123574819Y-102160952D01*
X123574819Y-102160952D02*
X123574819Y-102351428D01*
X123574819Y-102351428D02*
X123527200Y-102446666D01*
X123527200Y-102446666D02*
X123479580Y-102494285D01*
X123479580Y-102494285D02*
X123384342Y-102541904D01*
X123384342Y-102541904D02*
X123193866Y-102541904D01*
X123193866Y-102541904D02*
X123098628Y-102494285D01*
X123098628Y-102494285D02*
X123051009Y-102446666D01*
X123051009Y-102446666D02*
X123003390Y-102351428D01*
X71202857Y-114044819D02*
X71536190Y-113568628D01*
X71774285Y-114044819D02*
X71774285Y-113044819D01*
X71774285Y-113044819D02*
X71393333Y-113044819D01*
X71393333Y-113044819D02*
X71298095Y-113092438D01*
X71298095Y-113092438D02*
X71250476Y-113140057D01*
X71250476Y-113140057D02*
X71202857Y-113235295D01*
X71202857Y-113235295D02*
X71202857Y-113378152D01*
X71202857Y-113378152D02*
X71250476Y-113473390D01*
X71250476Y-113473390D02*
X71298095Y-113521009D01*
X71298095Y-113521009D02*
X71393333Y-113568628D01*
X71393333Y-113568628D02*
X71774285Y-113568628D01*
X70821904Y-113140057D02*
X70774285Y-113092438D01*
X70774285Y-113092438D02*
X70679047Y-113044819D01*
X70679047Y-113044819D02*
X70440952Y-113044819D01*
X70440952Y-113044819D02*
X70345714Y-113092438D01*
X70345714Y-113092438D02*
X70298095Y-113140057D01*
X70298095Y-113140057D02*
X70250476Y-113235295D01*
X70250476Y-113235295D02*
X70250476Y-113330533D01*
X70250476Y-113330533D02*
X70298095Y-113473390D01*
X70298095Y-113473390D02*
X70869523Y-114044819D01*
X70869523Y-114044819D02*
X70250476Y-114044819D01*
X69393333Y-113378152D02*
X69393333Y-114044819D01*
X69631428Y-112997200D02*
X69869523Y-113711485D01*
X69869523Y-113711485D02*
X69250476Y-113711485D01*
X93884819Y-89407142D02*
X93408628Y-89073809D01*
X93884819Y-88835714D02*
X92884819Y-88835714D01*
X92884819Y-88835714D02*
X92884819Y-89216666D01*
X92884819Y-89216666D02*
X92932438Y-89311904D01*
X92932438Y-89311904D02*
X92980057Y-89359523D01*
X92980057Y-89359523D02*
X93075295Y-89407142D01*
X93075295Y-89407142D02*
X93218152Y-89407142D01*
X93218152Y-89407142D02*
X93313390Y-89359523D01*
X93313390Y-89359523D02*
X93361009Y-89311904D01*
X93361009Y-89311904D02*
X93408628Y-89216666D01*
X93408628Y-89216666D02*
X93408628Y-88835714D01*
X93884819Y-90359523D02*
X93884819Y-89788095D01*
X93884819Y-90073809D02*
X92884819Y-90073809D01*
X92884819Y-90073809D02*
X93027676Y-89978571D01*
X93027676Y-89978571D02*
X93122914Y-89883333D01*
X93122914Y-89883333D02*
X93170533Y-89788095D01*
X92884819Y-91264285D02*
X92884819Y-90788095D01*
X92884819Y-90788095D02*
X93361009Y-90740476D01*
X93361009Y-90740476D02*
X93313390Y-90788095D01*
X93313390Y-90788095D02*
X93265771Y-90883333D01*
X93265771Y-90883333D02*
X93265771Y-91121428D01*
X93265771Y-91121428D02*
X93313390Y-91216666D01*
X93313390Y-91216666D02*
X93361009Y-91264285D01*
X93361009Y-91264285D02*
X93456247Y-91311904D01*
X93456247Y-91311904D02*
X93694342Y-91311904D01*
X93694342Y-91311904D02*
X93789580Y-91264285D01*
X93789580Y-91264285D02*
X93837200Y-91216666D01*
X93837200Y-91216666D02*
X93884819Y-91121428D01*
X93884819Y-91121428D02*
X93884819Y-90883333D01*
X93884819Y-90883333D02*
X93837200Y-90788095D01*
X93837200Y-90788095D02*
X93789580Y-90740476D01*
X75104819Y-113387142D02*
X74628628Y-113053809D01*
X75104819Y-112815714D02*
X74104819Y-112815714D01*
X74104819Y-112815714D02*
X74104819Y-113196666D01*
X74104819Y-113196666D02*
X74152438Y-113291904D01*
X74152438Y-113291904D02*
X74200057Y-113339523D01*
X74200057Y-113339523D02*
X74295295Y-113387142D01*
X74295295Y-113387142D02*
X74438152Y-113387142D01*
X74438152Y-113387142D02*
X74533390Y-113339523D01*
X74533390Y-113339523D02*
X74581009Y-113291904D01*
X74581009Y-113291904D02*
X74628628Y-113196666D01*
X74628628Y-113196666D02*
X74628628Y-112815714D01*
X74200057Y-113768095D02*
X74152438Y-113815714D01*
X74152438Y-113815714D02*
X74104819Y-113910952D01*
X74104819Y-113910952D02*
X74104819Y-114149047D01*
X74104819Y-114149047D02*
X74152438Y-114244285D01*
X74152438Y-114244285D02*
X74200057Y-114291904D01*
X74200057Y-114291904D02*
X74295295Y-114339523D01*
X74295295Y-114339523D02*
X74390533Y-114339523D01*
X74390533Y-114339523D02*
X74533390Y-114291904D01*
X74533390Y-114291904D02*
X75104819Y-113720476D01*
X75104819Y-113720476D02*
X75104819Y-114339523D01*
X74104819Y-114958571D02*
X74104819Y-115053809D01*
X74104819Y-115053809D02*
X74152438Y-115149047D01*
X74152438Y-115149047D02*
X74200057Y-115196666D01*
X74200057Y-115196666D02*
X74295295Y-115244285D01*
X74295295Y-115244285D02*
X74485771Y-115291904D01*
X74485771Y-115291904D02*
X74723866Y-115291904D01*
X74723866Y-115291904D02*
X74914342Y-115244285D01*
X74914342Y-115244285D02*
X75009580Y-115196666D01*
X75009580Y-115196666D02*
X75057200Y-115149047D01*
X75057200Y-115149047D02*
X75104819Y-115053809D01*
X75104819Y-115053809D02*
X75104819Y-114958571D01*
X75104819Y-114958571D02*
X75057200Y-114863333D01*
X75057200Y-114863333D02*
X75009580Y-114815714D01*
X75009580Y-114815714D02*
X74914342Y-114768095D01*
X74914342Y-114768095D02*
X74723866Y-114720476D01*
X74723866Y-114720476D02*
X74485771Y-114720476D01*
X74485771Y-114720476D02*
X74295295Y-114768095D01*
X74295295Y-114768095D02*
X74200057Y-114815714D01*
X74200057Y-114815714D02*
X74152438Y-114863333D01*
X74152438Y-114863333D02*
X74104819Y-114958571D01*
X72782857Y-97794819D02*
X73116190Y-97318628D01*
X73354285Y-97794819D02*
X73354285Y-96794819D01*
X73354285Y-96794819D02*
X72973333Y-96794819D01*
X72973333Y-96794819D02*
X72878095Y-96842438D01*
X72878095Y-96842438D02*
X72830476Y-96890057D01*
X72830476Y-96890057D02*
X72782857Y-96985295D01*
X72782857Y-96985295D02*
X72782857Y-97128152D01*
X72782857Y-97128152D02*
X72830476Y-97223390D01*
X72830476Y-97223390D02*
X72878095Y-97271009D01*
X72878095Y-97271009D02*
X72973333Y-97318628D01*
X72973333Y-97318628D02*
X73354285Y-97318628D01*
X71830476Y-97794819D02*
X72401904Y-97794819D01*
X72116190Y-97794819D02*
X72116190Y-96794819D01*
X72116190Y-96794819D02*
X72211428Y-96937676D01*
X72211428Y-96937676D02*
X72306666Y-97032914D01*
X72306666Y-97032914D02*
X72401904Y-97080533D01*
X70973333Y-96794819D02*
X71163809Y-96794819D01*
X71163809Y-96794819D02*
X71259047Y-96842438D01*
X71259047Y-96842438D02*
X71306666Y-96890057D01*
X71306666Y-96890057D02*
X71401904Y-97032914D01*
X71401904Y-97032914D02*
X71449523Y-97223390D01*
X71449523Y-97223390D02*
X71449523Y-97604342D01*
X71449523Y-97604342D02*
X71401904Y-97699580D01*
X71401904Y-97699580D02*
X71354285Y-97747200D01*
X71354285Y-97747200D02*
X71259047Y-97794819D01*
X71259047Y-97794819D02*
X71068571Y-97794819D01*
X71068571Y-97794819D02*
X70973333Y-97747200D01*
X70973333Y-97747200D02*
X70925714Y-97699580D01*
X70925714Y-97699580D02*
X70878095Y-97604342D01*
X70878095Y-97604342D02*
X70878095Y-97366247D01*
X70878095Y-97366247D02*
X70925714Y-97271009D01*
X70925714Y-97271009D02*
X70973333Y-97223390D01*
X70973333Y-97223390D02*
X71068571Y-97175771D01*
X71068571Y-97175771D02*
X71259047Y-97175771D01*
X71259047Y-97175771D02*
X71354285Y-97223390D01*
X71354285Y-97223390D02*
X71401904Y-97271009D01*
X71401904Y-97271009D02*
X71449523Y-97366247D01*
X89419580Y-97900833D02*
X89467200Y-97853214D01*
X89467200Y-97853214D02*
X89514819Y-97710357D01*
X89514819Y-97710357D02*
X89514819Y-97615119D01*
X89514819Y-97615119D02*
X89467200Y-97472262D01*
X89467200Y-97472262D02*
X89371961Y-97377024D01*
X89371961Y-97377024D02*
X89276723Y-97329405D01*
X89276723Y-97329405D02*
X89086247Y-97281786D01*
X89086247Y-97281786D02*
X88943390Y-97281786D01*
X88943390Y-97281786D02*
X88752914Y-97329405D01*
X88752914Y-97329405D02*
X88657676Y-97377024D01*
X88657676Y-97377024D02*
X88562438Y-97472262D01*
X88562438Y-97472262D02*
X88514819Y-97615119D01*
X88514819Y-97615119D02*
X88514819Y-97710357D01*
X88514819Y-97710357D02*
X88562438Y-97853214D01*
X88562438Y-97853214D02*
X88610057Y-97900833D01*
X88514819Y-98234167D02*
X88514819Y-98853214D01*
X88514819Y-98853214D02*
X88895771Y-98519881D01*
X88895771Y-98519881D02*
X88895771Y-98662738D01*
X88895771Y-98662738D02*
X88943390Y-98757976D01*
X88943390Y-98757976D02*
X88991009Y-98805595D01*
X88991009Y-98805595D02*
X89086247Y-98853214D01*
X89086247Y-98853214D02*
X89324342Y-98853214D01*
X89324342Y-98853214D02*
X89419580Y-98805595D01*
X89419580Y-98805595D02*
X89467200Y-98757976D01*
X89467200Y-98757976D02*
X89514819Y-98662738D01*
X89514819Y-98662738D02*
X89514819Y-98377024D01*
X89514819Y-98377024D02*
X89467200Y-98281786D01*
X89467200Y-98281786D02*
X89419580Y-98234167D01*
X67854819Y-121307142D02*
X67378628Y-120973809D01*
X67854819Y-120735714D02*
X66854819Y-120735714D01*
X66854819Y-120735714D02*
X66854819Y-121116666D01*
X66854819Y-121116666D02*
X66902438Y-121211904D01*
X66902438Y-121211904D02*
X66950057Y-121259523D01*
X66950057Y-121259523D02*
X67045295Y-121307142D01*
X67045295Y-121307142D02*
X67188152Y-121307142D01*
X67188152Y-121307142D02*
X67283390Y-121259523D01*
X67283390Y-121259523D02*
X67331009Y-121211904D01*
X67331009Y-121211904D02*
X67378628Y-121116666D01*
X67378628Y-121116666D02*
X67378628Y-120735714D01*
X66950057Y-121688095D02*
X66902438Y-121735714D01*
X66902438Y-121735714D02*
X66854819Y-121830952D01*
X66854819Y-121830952D02*
X66854819Y-122069047D01*
X66854819Y-122069047D02*
X66902438Y-122164285D01*
X66902438Y-122164285D02*
X66950057Y-122211904D01*
X66950057Y-122211904D02*
X67045295Y-122259523D01*
X67045295Y-122259523D02*
X67140533Y-122259523D01*
X67140533Y-122259523D02*
X67283390Y-122211904D01*
X67283390Y-122211904D02*
X67854819Y-121640476D01*
X67854819Y-121640476D02*
X67854819Y-122259523D01*
X67854819Y-123211904D02*
X67854819Y-122640476D01*
X67854819Y-122926190D02*
X66854819Y-122926190D01*
X66854819Y-122926190D02*
X66997676Y-122830952D01*
X66997676Y-122830952D02*
X67092914Y-122735714D01*
X67092914Y-122735714D02*
X67140533Y-122640476D01*
X76081904Y-97574819D02*
X76081904Y-98384342D01*
X76081904Y-98384342D02*
X76034285Y-98479580D01*
X76034285Y-98479580D02*
X75986666Y-98527200D01*
X75986666Y-98527200D02*
X75891428Y-98574819D01*
X75891428Y-98574819D02*
X75700952Y-98574819D01*
X75700952Y-98574819D02*
X75605714Y-98527200D01*
X75605714Y-98527200D02*
X75558095Y-98479580D01*
X75558095Y-98479580D02*
X75510476Y-98384342D01*
X75510476Y-98384342D02*
X75510476Y-97574819D01*
X74605714Y-97574819D02*
X74796190Y-97574819D01*
X74796190Y-97574819D02*
X74891428Y-97622438D01*
X74891428Y-97622438D02*
X74939047Y-97670057D01*
X74939047Y-97670057D02*
X75034285Y-97812914D01*
X75034285Y-97812914D02*
X75081904Y-98003390D01*
X75081904Y-98003390D02*
X75081904Y-98384342D01*
X75081904Y-98384342D02*
X75034285Y-98479580D01*
X75034285Y-98479580D02*
X74986666Y-98527200D01*
X74986666Y-98527200D02*
X74891428Y-98574819D01*
X74891428Y-98574819D02*
X74700952Y-98574819D01*
X74700952Y-98574819D02*
X74605714Y-98527200D01*
X74605714Y-98527200D02*
X74558095Y-98479580D01*
X74558095Y-98479580D02*
X74510476Y-98384342D01*
X74510476Y-98384342D02*
X74510476Y-98146247D01*
X74510476Y-98146247D02*
X74558095Y-98051009D01*
X74558095Y-98051009D02*
X74605714Y-98003390D01*
X74605714Y-98003390D02*
X74700952Y-97955771D01*
X74700952Y-97955771D02*
X74891428Y-97955771D01*
X74891428Y-97955771D02*
X74986666Y-98003390D01*
X74986666Y-98003390D02*
X75034285Y-98051009D01*
X75034285Y-98051009D02*
X75081904Y-98146247D01*
D12*
%TO.C,D6*%
X120270000Y-99730000D02*
X118270000Y-99730000D01*
X120270000Y-99730000D02*
X120270000Y-95720000D01*
X118270000Y-99730000D02*
X118270000Y-95720000D01*
%TO.C,D5*%
X118240000Y-86630000D02*
X120240000Y-86630000D01*
X118240000Y-86630000D02*
X118240000Y-90640000D01*
X120240000Y-86630000D02*
X120240000Y-90640000D01*
%TO.C,C20*%
X89880000Y-93233767D02*
X89880000Y-92941233D01*
X90900000Y-93233767D02*
X90900000Y-92941233D01*
%TO.C,U5*%
X63040000Y-99040000D02*
X63040000Y-105460000D01*
X63040000Y-105460000D02*
X63310000Y-105460000D01*
X69940000Y-99040000D02*
X69940000Y-105460000D01*
X69940000Y-105460000D02*
X69670000Y-105460000D01*
X70100000Y-107530000D02*
X69630000Y-107190000D01*
X70100000Y-106850000D01*
X70100000Y-107530000D01*
G36*
X70100000Y-107530000D02*
G01*
X69630000Y-107190000D01*
X70100000Y-106850000D01*
X70100000Y-107530000D01*
G37*
%TO.C,R22*%
X70017500Y-120905276D02*
X70017500Y-121414724D01*
X71062500Y-120905276D02*
X71062500Y-121414724D01*
%TO.C,C2*%
X71610000Y-103158767D02*
X71610000Y-102866233D01*
X72630000Y-103158767D02*
X72630000Y-102866233D01*
%TO.C,C25*%
X74400000Y-117104420D02*
X74400000Y-117385580D01*
X75420000Y-117104420D02*
X75420000Y-117385580D01*
%TO.C,C17*%
X86470000Y-92153767D02*
X86470000Y-91861233D01*
X87490000Y-92153767D02*
X87490000Y-91861233D01*
%TO.C,C1*%
X75461233Y-103770000D02*
X75753767Y-103770000D01*
X75461233Y-102750000D02*
X75753767Y-102750000D01*
%TO.C,R19*%
X120404724Y-84877500D02*
X119895276Y-84877500D01*
X120404724Y-85922500D02*
X119895276Y-85922500D01*
%TO.C,R23*%
X71757500Y-120917776D02*
X71757500Y-121427224D01*
X72802500Y-120917776D02*
X72802500Y-121427224D01*
D13*
%TO.C,IC2*%
X71440000Y-116240000D02*
X71440000Y-119140000D01*
X71440000Y-119140000D02*
X72240000Y-119140000D01*
X72240000Y-116240000D02*
X71440000Y-116240000D01*
X72240000Y-119140000D02*
X72240000Y-116240000D01*
X73690000Y-116090000D02*
X72590000Y-116090000D01*
D12*
%TO.C,R18*%
X122634724Y-98497500D02*
X122125276Y-98497500D01*
X122634724Y-99542500D02*
X122125276Y-99542500D01*
%TO.C,R24*%
X70492776Y-114427500D02*
X71002224Y-114427500D01*
X70492776Y-115472500D02*
X71002224Y-115472500D01*
%TO.C,R15*%
X94337500Y-89795276D02*
X94337500Y-90304724D01*
X95382500Y-89795276D02*
X95382500Y-90304724D01*
%TO.C,R20*%
X72697500Y-114284724D02*
X72697500Y-113775276D01*
X73742500Y-114284724D02*
X73742500Y-113775276D01*
%TO.C,R16*%
X71597500Y-99442776D02*
X71597500Y-99952224D01*
X72642500Y-99442776D02*
X72642500Y-99952224D01*
%TO.C,C3*%
X89980000Y-97921233D02*
X89980000Y-98213767D01*
X91000000Y-97921233D02*
X91000000Y-98213767D01*
%TO.C,R21*%
X68307500Y-121695276D02*
X68307500Y-122204724D01*
X69352500Y-121695276D02*
X69352500Y-122204724D01*
%TO.C,U6*%
X75320000Y-99050000D02*
X74520000Y-99050000D01*
X75320000Y-99050000D02*
X76120000Y-99050000D01*
X75320000Y-102170000D02*
X74520000Y-102170000D01*
X75320000Y-102170000D02*
X76120000Y-102170000D01*
X74260000Y-102450000D02*
X73780000Y-102450000D01*
X74020000Y-102120000D01*
X74260000Y-102450000D01*
G36*
X74260000Y-102450000D02*
G01*
X73780000Y-102450000D01*
X74020000Y-102120000D01*
X74260000Y-102450000D01*
G37*
%TD*%
M02*
