%TF.GenerationSoftware,KiCad,Pcbnew,9.0.0*%
%TF.CreationDate,2025-03-30T14:17:43+09:00*%
%TF.ProjectId,v1000,76313030-302e-46b6-9963-61645f706362,rev?*%
%TF.SameCoordinates,Original*%
%TF.FileFunction,Copper,L2,Bot*%
%TF.FilePolarity,Positive*%
%FSLAX46Y46*%
G04 Gerber Fmt 4.6, Leading zero omitted, Abs format (unit mm)*
G04 Created by KiCad (PCBNEW 9.0.0) date 2025-03-30 14:17:43*
%MOMM*%
%LPD*%
G01*
G04 APERTURE LIST*
G04 Aperture macros list*
%AMRoundRect*
0 Rectangle with rounded corners*
0 $1 Rounding radius*
0 $2 $3 $4 $5 $6 $7 $8 $9 X,Y pos of 4 corners*
0 Add a 4 corners polygon primitive as box body*
4,1,4,$2,$3,$4,$5,$6,$7,$8,$9,$2,$3,0*
0 Add four circle primitives for the rounded corners*
1,1,$1+$1,$2,$3*
1,1,$1+$1,$4,$5*
1,1,$1+$1,$6,$7*
1,1,$1+$1,$8,$9*
0 Add four rect primitives between the rounded corners*
20,1,$1+$1,$2,$3,$4,$5,0*
20,1,$1+$1,$4,$5,$6,$7,0*
20,1,$1+$1,$6,$7,$8,$9,0*
20,1,$1+$1,$8,$9,$2,$3,0*%
G04 Aperture macros list end*
%TA.AperFunction,HeatsinkPad*%
%ADD10O,1.700000X1.100000*%
%TD*%
%TA.AperFunction,SMDPad,CuDef*%
%ADD11RoundRect,0.225000X0.375000X-0.225000X0.375000X0.225000X-0.375000X0.225000X-0.375000X-0.225000X0*%
%TD*%
%TA.AperFunction,SMDPad,CuDef*%
%ADD12RoundRect,0.225000X-0.375000X0.225000X-0.375000X-0.225000X0.375000X-0.225000X0.375000X0.225000X0*%
%TD*%
%TA.AperFunction,ComponentPad*%
%ADD13R,1.450000X1.450000*%
%TD*%
%TA.AperFunction,ComponentPad*%
%ADD14C,1.450000*%
%TD*%
%TA.AperFunction,ComponentPad*%
%ADD15R,1.600000X1.600000*%
%TD*%
%TA.AperFunction,ComponentPad*%
%ADD16C,1.600000*%
%TD*%
%TA.AperFunction,ComponentPad*%
%ADD17RoundRect,0.250001X0.799999X-0.799999X0.799999X0.799999X-0.799999X0.799999X-0.799999X-0.799999X0*%
%TD*%
%TA.AperFunction,ComponentPad*%
%ADD18C,2.100000*%
%TD*%
%TA.AperFunction,ComponentPad*%
%ADD19R,1.700000X1.700000*%
%TD*%
%TA.AperFunction,ComponentPad*%
%ADD20O,1.700000X1.700000*%
%TD*%
%TA.AperFunction,ComponentPad*%
%ADD21C,5.700000*%
%TD*%
%TA.AperFunction,ComponentPad*%
%ADD22RoundRect,0.450000X-0.450000X0.450000X-0.450000X-0.450000X0.450000X-0.450000X0.450000X0.450000X0*%
%TD*%
%TA.AperFunction,ComponentPad*%
%ADD23C,1.800000*%
%TD*%
%TA.AperFunction,ComponentPad*%
%ADD24R,2.000000X2.000000*%
%TD*%
%TA.AperFunction,ComponentPad*%
%ADD25C,2.000000*%
%TD*%
%TA.AperFunction,SMDPad,CuDef*%
%ADD26RoundRect,0.237500X0.237500X-0.300000X0.237500X0.300000X-0.237500X0.300000X-0.237500X-0.300000X0*%
%TD*%
%TA.AperFunction,SMDPad,CuDef*%
%ADD27RoundRect,0.250000X0.350000X-0.850000X0.350000X0.850000X-0.350000X0.850000X-0.350000X-0.850000X0*%
%TD*%
%TA.AperFunction,SMDPad,CuDef*%
%ADD28RoundRect,0.250000X1.125000X-1.275000X1.125000X1.275000X-1.125000X1.275000X-1.125000X-1.275000X0*%
%TD*%
%TA.AperFunction,SMDPad,CuDef*%
%ADD29RoundRect,0.249997X2.650003X-2.950003X2.650003X2.950003X-2.650003X2.950003X-2.650003X-2.950003X0*%
%TD*%
%TA.AperFunction,SMDPad,CuDef*%
%ADD30RoundRect,0.237500X-0.237500X0.250000X-0.237500X-0.250000X0.237500X-0.250000X0.237500X0.250000X0*%
%TD*%
%TA.AperFunction,SMDPad,CuDef*%
%ADD31RoundRect,0.225000X-0.250000X0.225000X-0.250000X-0.225000X0.250000X-0.225000X0.250000X0.225000X0*%
%TD*%
%TA.AperFunction,SMDPad,CuDef*%
%ADD32RoundRect,0.237500X-0.300000X-0.237500X0.300000X-0.237500X0.300000X0.237500X-0.300000X0.237500X0*%
%TD*%
%TA.AperFunction,SMDPad,CuDef*%
%ADD33RoundRect,0.237500X0.250000X0.237500X-0.250000X0.237500X-0.250000X-0.237500X0.250000X-0.237500X0*%
%TD*%
%TA.AperFunction,SMDPad,CuDef*%
%ADD34R,1.100000X0.600000*%
%TD*%
%TA.AperFunction,SMDPad,CuDef*%
%ADD35RoundRect,0.237500X-0.250000X-0.237500X0.250000X-0.237500X0.250000X0.237500X-0.250000X0.237500X0*%
%TD*%
%TA.AperFunction,SMDPad,CuDef*%
%ADD36RoundRect,0.237500X0.237500X-0.250000X0.237500X0.250000X-0.237500X0.250000X-0.237500X-0.250000X0*%
%TD*%
%TA.AperFunction,SMDPad,CuDef*%
%ADD37RoundRect,0.237500X-0.237500X0.300000X-0.237500X-0.300000X0.237500X-0.300000X0.237500X0.300000X0*%
%TD*%
%TA.AperFunction,SMDPad,CuDef*%
%ADD38RoundRect,0.150000X-0.512500X-0.150000X0.512500X-0.150000X0.512500X0.150000X-0.512500X0.150000X0*%
%TD*%
%TA.AperFunction,ViaPad*%
%ADD39C,0.600000*%
%TD*%
%TA.AperFunction,Conductor*%
%ADD40C,0.400000*%
%TD*%
%TA.AperFunction,Conductor*%
%ADD41C,0.600000*%
%TD*%
%TA.AperFunction,Conductor*%
%ADD42C,0.200000*%
%TD*%
%TA.AperFunction,Conductor*%
%ADD43C,0.800000*%
%TD*%
G04 APERTURE END LIST*
D10*
%TO.P,J3,S1,SHIELD*%
%TO.N,-15V*%
X65670000Y-111320000D03*
X61870000Y-111320000D03*
X65670000Y-119960000D03*
X61870000Y-119960000D03*
%TD*%
D11*
%TO.P,D6,1,K*%
%TO.N,Net-(D6-K)*%
X119270000Y-99020000D03*
%TO.P,D6,2,A*%
%TO.N,Net-(D6-A)*%
X119270000Y-95720000D03*
%TD*%
D12*
%TO.P,D5,1,K*%
%TO.N,Net-(D5-K)*%
X119240000Y-87340000D03*
%TO.P,D5,2,A*%
%TO.N,Net-(D5-A)*%
X119240000Y-90640000D03*
%TD*%
D13*
%TO.P,U3,1*%
%TO.N,Net-(C16-Pad2)*%
X106140000Y-121990000D03*
D14*
%TO.P,U3,2,-*%
%TO.N,Net-(U3A--)*%
X106140000Y-119450000D03*
%TO.P,U3,3,+*%
%TO.N,GND*%
X106140000Y-116910000D03*
%TO.P,U3,4,V-*%
%TO.N,-15V*%
X106140000Y-114370000D03*
%TO.P,U3,5,+*%
%TO.N,GND*%
X106140000Y-111830000D03*
%TO.P,U3,6,-*%
%TO.N,Net-(U3B--)*%
X106140000Y-109290000D03*
%TO.P,U3,7*%
%TO.N,Net-(C12-Pad2)*%
X106140000Y-106750000D03*
%TO.P,U3,8,V+*%
%TO.N,+15V*%
X106140000Y-104210000D03*
%TD*%
D15*
%TO.P,C5,1*%
%TO.N,Net-(C5-Pad1)*%
X101080000Y-88090000D03*
D16*
%TO.P,C5,2*%
%TO.N,Net-(U1-RIN+)*%
X99080000Y-88090000D03*
%TD*%
D17*
%TO.P,J1,1,Pin_1*%
%TO.N,Net-(J1-Pin_1)*%
X123920000Y-119420000D03*
D18*
%TO.P,J1,2,Pin_2*%
%TO.N,GND*%
X123920000Y-116880000D03*
%TO.P,J1,3,Pin_3*%
%TO.N,Net-(J1-Pin_3)*%
X123920000Y-114340000D03*
%TO.P,J1,4,Pin_4*%
%TO.N,GND*%
X123920000Y-111800000D03*
%TD*%
D19*
%TO.P,J4,1,Pin_1*%
%TO.N,+5V*%
X68080000Y-83010000D03*
D20*
%TO.P,J4,2,Pin_2*%
%TO.N,Net-(IC1-PROG0{slash}SDATA)*%
X70620000Y-83010000D03*
%TO.P,J4,3,Pin_3*%
%TO.N,Net-(IC1-PROG1{slash}SCLK)*%
X73160000Y-83010000D03*
%TO.P,J4,4,Pin_4*%
%TO.N,Net-(IC1-PROG2)*%
X75700000Y-83010000D03*
%TO.P,J4,5,Pin_5*%
%TO.N,Net-(IC1-PROG3)*%
X78240000Y-83010000D03*
%TO.P,J4,6,Pin_6*%
%TO.N,Net-(IC1-INT{slash}EXT_)*%
X80780000Y-83010000D03*
%TO.P,J4,7,Pin_7*%
%TO.N,GND*%
X83320000Y-83010000D03*
%TD*%
D19*
%TO.P,Y1,1,1*%
%TO.N,Net-(IC1-XTALLN)*%
X65440000Y-89750000D03*
D20*
%TO.P,Y1,2,2*%
%TO.N,GND*%
X65440000Y-92290000D03*
%TO.P,Y1,3,3*%
%TO.N,Net-(IC1-XTALOUT)*%
X65440000Y-94830000D03*
%TD*%
D21*
%TO.P,REF\u002A\u002A,1*%
%TO.N,-15V*%
X63040000Y-124460000D03*
%TD*%
D13*
%TO.P,U2,1*%
%TO.N,Net-(U2A--)*%
X111220000Y-100790000D03*
D14*
%TO.P,U2,2,-*%
X111220000Y-98250000D03*
%TO.P,U2,3,+*%
%TO.N,Net-(U2A-+)*%
X111220000Y-95710000D03*
%TO.P,U2,4,V-*%
%TO.N,-15V*%
X111220000Y-93170000D03*
%TO.P,U2,5,+*%
%TO.N,Net-(U2B-+)*%
X111220000Y-90630000D03*
%TO.P,U2,6,-*%
%TO.N,Net-(U2B--)*%
X111220000Y-88090000D03*
%TO.P,U2,7*%
X111220000Y-85550000D03*
%TO.P,U2,8,V+*%
%TO.N,+15V*%
X111220000Y-83010000D03*
%TD*%
D22*
%TO.P,RV1,1,1*%
%TO.N,Net-(C16-Pad2)*%
X111310000Y-119380000D03*
D23*
%TO.P,RV1,2,2*%
%TO.N,Net-(J1-Pin_1)*%
X113810000Y-119380000D03*
%TO.P,RV1,3,3*%
%TO.N,Net-(U2A-+)*%
X116310000Y-119380000D03*
%TO.P,RV1,4,4*%
%TO.N,Net-(C12-Pad2)*%
X111310000Y-116880000D03*
%TO.P,RV1,5,5*%
%TO.N,Net-(J1-Pin_3)*%
X113810000Y-116880000D03*
%TO.P,RV1,6,6*%
%TO.N,Net-(U2B-+)*%
X116310000Y-116880000D03*
%TD*%
D21*
%TO.P,,1*%
%TO.N,GND*%
X129000000Y-83010000D03*
%TD*%
D15*
%TO.P,C19,1*%
%TO.N,Net-(U1-VA)*%
X94650000Y-85500000D03*
D16*
%TO.P,C19,2*%
%TO.N,GND*%
X94650000Y-83000000D03*
%TD*%
D15*
%TO.P,C13,1*%
%TO.N,Net-(U1-LOUT+)*%
X89240000Y-114900000D03*
D16*
%TO.P,C13,2*%
%TO.N,Net-(C13-Pad2)*%
X89240000Y-116900000D03*
%TD*%
D21*
%TO.P,,1*%
%TO.N,GND*%
X62980000Y-83010000D03*
%TD*%
D24*
%TO.P,C21,1*%
%TO.N,+15V*%
X73270000Y-110920000D03*
D25*
%TO.P,C21,2*%
%TO.N,GND*%
X78270000Y-110920000D03*
%TD*%
D24*
%TO.P,C22,1*%
%TO.N,GND*%
X78230000Y-119540000D03*
D25*
%TO.P,C22,2*%
%TO.N,-15V*%
X78230000Y-124540000D03*
%TD*%
D13*
%TO.P,U4,1*%
%TO.N,Net-(U2A-+)*%
X116290000Y-100800000D03*
D14*
%TO.P,U4,2,-*%
X116290000Y-98260000D03*
%TO.P,U4,3,+*%
%TO.N,Net-(D6-A)*%
X116290000Y-95720000D03*
%TO.P,U4,4,V-*%
%TO.N,-15V*%
X116290000Y-93180000D03*
%TO.P,U4,5,+*%
%TO.N,Net-(D5-A)*%
X116290000Y-90640000D03*
%TO.P,U4,6,-*%
%TO.N,Net-(U2B-+)*%
X116290000Y-88100000D03*
%TO.P,U4,7*%
X116290000Y-85560000D03*
%TO.P,U4,8,V+*%
%TO.N,+15V*%
X116290000Y-83020000D03*
%TD*%
D15*
%TO.P,C18,1*%
%TO.N,Net-(U1-DEM0)*%
X82290000Y-102020000D03*
D16*
%TO.P,C18,2*%
%TO.N,GND*%
X82290000Y-104520000D03*
%TD*%
D15*
%TO.P,C4,1*%
%TO.N,Net-(U1-LIN-)*%
X95120000Y-101870000D03*
D16*
%TO.P,C4,2*%
%TO.N,GND*%
X95120000Y-103870000D03*
%TD*%
D15*
%TO.P,C8,1*%
%TO.N,Net-(C8-Pad1)*%
X101060000Y-98250000D03*
D16*
%TO.P,C8,2*%
%TO.N,Net-(U1-LIN+)*%
X99060000Y-98250000D03*
%TD*%
D17*
%TO.P,J2,1,Pin_1*%
%TO.N,Net-(D6-A)*%
X123930000Y-95710000D03*
D18*
%TO.P,J2,2,Pin_2*%
%TO.N,GND*%
X123930000Y-93170000D03*
%TO.P,J2,3,Pin_3*%
%TO.N,Net-(D5-A)*%
X123930000Y-90630000D03*
%TO.P,J2,4,Pin_4*%
%TO.N,GND*%
X123930000Y-88090000D03*
%TD*%
D21*
%TO.P,,1*%
%TO.N,GND*%
X129000000Y-124490000D03*
%TD*%
D15*
%TO.P,C11,1*%
%TO.N,Net-(U1-ROUT+)*%
X89360000Y-101964888D03*
D16*
%TO.P,C11,2*%
%TO.N,Net-(C11-Pad2)*%
X89360000Y-103964888D03*
%TD*%
D26*
%TO.P,C20,1*%
%TO.N,Net-(U1-VA)*%
X90390000Y-93950000D03*
%TO.P,C20,2*%
%TO.N,GND*%
X90390000Y-92225000D03*
%TD*%
D27*
%TO.P,U5,1,IN*%
%TO.N,+15V*%
X68770000Y-107190000D03*
%TO.P,U5,2,GND*%
%TO.N,GND*%
X66490000Y-107190000D03*
D28*
X64965000Y-102565000D03*
X68015000Y-102565000D03*
D29*
X66490000Y-100890000D03*
D28*
X64965000Y-99215000D03*
X68015000Y-99215000D03*
D27*
%TO.P,U5,3,OUT*%
%TO.N,+5V*%
X64210000Y-107190000D03*
%TD*%
D30*
%TO.P,R22,1*%
%TO.N,Net-(IC2-CC1)*%
X70540000Y-120247500D03*
%TO.P,R22,2*%
%TO.N,-15V*%
X70540000Y-122072500D03*
%TD*%
D26*
%TO.P,C2,1*%
%TO.N,GND*%
X72120000Y-103875000D03*
%TO.P,C2,2*%
%TO.N,+5V*%
X72120000Y-102150000D03*
%TD*%
D31*
%TO.P,C25,1*%
%TO.N,Net-(IC2-VDD)*%
X74910000Y-116470000D03*
%TO.P,C25,2*%
%TO.N,-15V*%
X74910000Y-118020000D03*
%TD*%
D26*
%TO.P,C17,1*%
%TO.N,Net-(U1-DEM0)*%
X86980000Y-92870000D03*
%TO.P,C17,2*%
%TO.N,GND*%
X86980000Y-91145000D03*
%TD*%
D32*
%TO.P,C1,1*%
%TO.N,GND*%
X74745000Y-103260000D03*
%TO.P,C1,2*%
%TO.N,+3.3V*%
X76470000Y-103260000D03*
%TD*%
D33*
%TO.P,R19,1*%
%TO.N,GND*%
X121062500Y-85400000D03*
%TO.P,R19,2*%
%TO.N,Net-(D5-K)*%
X119237500Y-85400000D03*
%TD*%
D30*
%TO.P,R23,1*%
%TO.N,Net-(IC2-CC2)*%
X72280000Y-120260000D03*
%TO.P,R23,2*%
%TO.N,-15V*%
X72280000Y-122085000D03*
%TD*%
D34*
%TO.P,IC2,1,VDD*%
%TO.N,Net-(IC2-VDD)*%
X73140000Y-116740000D03*
%TO.P,IC2,2,GND*%
%TO.N,-15V*%
X73140000Y-117690000D03*
%TO.P,IC2,3,PG*%
%TO.N,Net-(D2-K)*%
X73140000Y-118640000D03*
%TO.P,IC2,4,CC1*%
%TO.N,Net-(IC2-CC1)*%
X70540000Y-118640000D03*
%TO.P,IC2,5,CC2*%
%TO.N,Net-(IC2-CC2)*%
X70540000Y-117690000D03*
%TO.P,IC2,6,CFG*%
%TO.N,Net-(IC2-CFG)*%
X70540000Y-116740000D03*
%TD*%
D33*
%TO.P,R18,1*%
%TO.N,GND*%
X123292500Y-99020000D03*
%TO.P,R18,2*%
%TO.N,Net-(D6-K)*%
X121467500Y-99020000D03*
%TD*%
D35*
%TO.P,R24,1*%
%TO.N,Net-(IC2-CFG)*%
X69835000Y-114950000D03*
%TO.P,R24,2*%
%TO.N,Net-(IC2-VDD)*%
X71660000Y-114950000D03*
%TD*%
D30*
%TO.P,R15,1*%
%TO.N,Net-(U1-VA)*%
X94860000Y-89137500D03*
%TO.P,R15,2*%
%TO.N,Net-(U1-DEM0)*%
X94860000Y-90962500D03*
%TD*%
D36*
%TO.P,R20,1*%
%TO.N,Net-(IC2-VDD)*%
X73220000Y-114942500D03*
%TO.P,R20,2*%
%TO.N,+15V*%
X73220000Y-113117500D03*
%TD*%
D30*
%TO.P,R16,1*%
%TO.N,Net-(U6-~{Inhibit})*%
X72120000Y-98785000D03*
%TO.P,R16,2*%
%TO.N,+5V*%
X72120000Y-100610000D03*
%TD*%
D37*
%TO.P,C3,1*%
%TO.N,Net-(U1-LIN-)*%
X90490000Y-97205000D03*
%TO.P,C3,2*%
%TO.N,GND*%
X90490000Y-98930000D03*
%TD*%
D30*
%TO.P,R21,1*%
%TO.N,+15V*%
X68830000Y-121037500D03*
%TO.P,R21,2*%
%TO.N,Net-(D2-A)*%
X68830000Y-122862500D03*
%TD*%
D38*
%TO.P,U6,1,GND*%
%TO.N,GND*%
X74182500Y-101560000D03*
%TO.P,U6,2,VI*%
%TO.N,+5V*%
X74182500Y-100610000D03*
%TO.P,U6,3,~{Inhibit}*%
%TO.N,Net-(U6-~{Inhibit})*%
X74182500Y-99660000D03*
%TO.P,U6,4,Vo_Adj*%
%TO.N,unconnected-(U6-Vo_Adj-Pad4)*%
X76457500Y-99660000D03*
%TO.P,U6,5,VO*%
%TO.N,+3.3V*%
X76457500Y-101560000D03*
%TD*%
D39*
%TO.N,GND*%
X74745000Y-103260000D03*
%TO.N,+5V*%
X72120000Y-100610000D03*
%TO.N,GND*%
X120360000Y-93170000D03*
%TO.N,-15V*%
X65750000Y-118390000D03*
X65750000Y-112890000D03*
%TO.N,+15V*%
X68830000Y-121037500D03*
%TO.N,Net-(IC2-CC1)*%
X65750000Y-115140000D03*
%TO.N,GND*%
X66490000Y-107190000D03*
X86700000Y-97830000D03*
X72120000Y-103875000D03*
X74182500Y-101560000D03*
X83300000Y-93300000D03*
X64965000Y-102565000D03*
X83320000Y-96110000D03*
X94050000Y-92990000D03*
X118130000Y-119360000D03*
X67050000Y-92350000D03*
X86980000Y-91145000D03*
X68015000Y-102565000D03*
X79740000Y-92955000D03*
X93960000Y-98620000D03*
%TO.N,Net-(U1-LIN-)*%
X95000000Y-95750000D03*
X90490000Y-97205000D03*
%TO.N,Net-(U1-LIN+)*%
X96394000Y-94629000D03*
%TO.N,Net-(U1-DEM0)*%
X90280000Y-95910000D03*
X86960000Y-92870000D03*
X87150000Y-95240000D03*
%TO.N,Net-(U1-VA)*%
X90390000Y-93950000D03*
%TO.N,+15V*%
X83830000Y-113060000D03*
X68770000Y-107190000D03*
%TO.N,Net-(IC1-DIGIN)*%
X86450000Y-93960000D03*
X88470000Y-92590000D03*
%TO.N,Net-(IC1-WORDCLK)*%
X79740000Y-98035000D03*
X84150000Y-99270000D03*
%TO.N,Net-(IC1-DIGOUT)*%
X82970000Y-94605000D03*
X70240000Y-89145000D03*
%TO.N,Net-(IC1-RESET_)*%
X90890000Y-90060000D03*
X81368000Y-93840000D03*
%TO.N,+5V*%
X87655000Y-85500000D03*
X68030000Y-85880000D03*
X64210000Y-107190000D03*
%TO.N,-15V*%
X83880000Y-118585000D03*
X73140000Y-117690000D03*
X74910000Y-118020000D03*
%TO.N,Net-(IC1-INT{slash}EXT_)*%
X78260000Y-86540000D03*
X70240000Y-90415000D03*
%TO.N,+3.3V*%
X78110000Y-96460000D03*
%TO.N,Net-(D2-K)*%
X73890000Y-121420000D03*
%TO.N,Net-(D2-A)*%
X68830000Y-122862500D03*
%TO.N,Net-(IC2-CC2)*%
X70540000Y-117690000D03*
%TD*%
D40*
%TO.N,+3.3V*%
X76457500Y-101560000D02*
X76457500Y-103247500D01*
X76457500Y-103247500D02*
X76470000Y-103260000D01*
D41*
%TO.N,+5V*%
X72120000Y-100610000D02*
X74182500Y-100610000D01*
D40*
%TO.N,+3.3V*%
X76457500Y-101560000D02*
X77210000Y-101560000D01*
X76477500Y-101580000D02*
X76457500Y-101560000D01*
X77210000Y-101560000D02*
X78110000Y-100660000D01*
D42*
%TO.N,Net-(IC2-CC1)*%
X70540000Y-118640000D02*
X69480000Y-118640000D01*
X69480000Y-118640000D02*
X68930000Y-118090000D01*
X68930000Y-115580000D02*
X68490000Y-115140000D01*
X68930000Y-118090000D02*
X68930000Y-115580000D01*
X68490000Y-115140000D02*
X65750000Y-115140000D01*
D41*
%TO.N,Net-(D6-K)*%
X121467500Y-99020000D02*
X119270000Y-99020000D01*
%TO.N,Net-(D6-A)*%
X119270000Y-95720000D02*
X123920000Y-95720000D01*
X123920000Y-95720000D02*
X123930000Y-95710000D01*
X116290000Y-95720000D02*
X119270000Y-95720000D01*
%TO.N,Net-(D5-K)*%
X119240000Y-87340000D02*
X119240000Y-85402500D01*
X119240000Y-85402500D02*
X119237500Y-85400000D01*
%TO.N,Net-(D5-A)*%
X123930000Y-90630000D02*
X119250000Y-90630000D01*
X119250000Y-90630000D02*
X119240000Y-90640000D01*
X116290000Y-90640000D02*
X119240000Y-90640000D01*
D42*
%TO.N,Net-(U1-LIN-)*%
X95120000Y-95870000D02*
X95120000Y-101870000D01*
X95000000Y-95750000D02*
X95120000Y-95870000D01*
D40*
%TO.N,Net-(U1-LIN+)*%
X96394000Y-94629000D02*
X96420000Y-94655000D01*
X99060000Y-96020000D02*
X99060000Y-98220000D01*
X96420000Y-94655000D02*
X97695000Y-94655000D01*
X97695000Y-94655000D02*
X99060000Y-96020000D01*
%TO.N,Net-(U1-DEM0)*%
X89610000Y-95240000D02*
X90280000Y-95910000D01*
X91770000Y-95240000D02*
X92420000Y-94590000D01*
X92420000Y-91670000D02*
X93127500Y-90962500D01*
X93127500Y-90962500D02*
X94860000Y-90962500D01*
X92420000Y-94590000D02*
X92420000Y-91670000D01*
X89610000Y-95240000D02*
X91770000Y-95240000D01*
X87150000Y-95240000D02*
X89610000Y-95240000D01*
%TO.N,Net-(U1-VA)*%
X94800000Y-85650000D02*
X94650000Y-85500000D01*
X94800000Y-89077500D02*
X94800000Y-85650000D01*
X94860000Y-89137500D02*
X94800000Y-89077500D01*
D43*
%TO.N,+15V*%
X103350000Y-107020000D02*
X106140000Y-104230000D01*
X106140000Y-104230000D02*
X106140000Y-104210000D01*
D41*
X73220000Y-110970000D02*
X73270000Y-110920000D01*
D43*
X106140000Y-104210000D02*
X106140000Y-88090000D01*
X69420000Y-108840000D02*
X72230000Y-108840000D01*
X68770000Y-108190000D02*
X69420000Y-108840000D01*
X72230000Y-108840000D02*
X73270000Y-109880000D01*
X101580000Y-111930000D02*
X103350000Y-110160000D01*
X68770000Y-107190000D02*
X68770000Y-108190000D01*
X103350000Y-110160000D02*
X103350000Y-107020000D01*
D41*
X73220000Y-113117500D02*
X73220000Y-110970000D01*
D43*
X106140000Y-88090000D02*
X111220000Y-83010000D01*
X73270000Y-109880000D02*
X73270000Y-110920000D01*
X84960000Y-111930000D02*
X101580000Y-111930000D01*
X83830000Y-113060000D02*
X84960000Y-111930000D01*
D42*
%TO.N,Net-(IC1-DIGIN)*%
X88470000Y-92590000D02*
X88470000Y-93190000D01*
X87700000Y-93960000D02*
X86450000Y-93960000D01*
X88470000Y-93190000D02*
X87700000Y-93960000D01*
%TO.N,Net-(IC1-WORDCLK)*%
X84150000Y-99270000D02*
X82915000Y-98035000D01*
X82915000Y-98035000D02*
X79740000Y-98035000D01*
D40*
%TO.N,Net-(IC1-DIGOUT)*%
X76670000Y-94610000D02*
X71205000Y-89145000D01*
X71205000Y-89145000D02*
X70240000Y-89145000D01*
X81745000Y-94605000D02*
X81740000Y-94610000D01*
X81740000Y-94610000D02*
X76670000Y-94610000D01*
X82970000Y-94605000D02*
X81745000Y-94605000D01*
D42*
%TO.N,Net-(IC1-RESET_)*%
X90450000Y-90060000D02*
X90890000Y-90060000D01*
X83224500Y-91983500D02*
X88526500Y-91983500D01*
X89810000Y-90700000D02*
X90450000Y-90060000D01*
X88526500Y-91983500D02*
X89810000Y-90700000D01*
X81368000Y-93840000D02*
X83224500Y-91983500D01*
D41*
%TO.N,+5V*%
X70670000Y-104640000D02*
X70160000Y-105150000D01*
X68410000Y-85500000D02*
X87655000Y-85500000D01*
X72120000Y-102150000D02*
X70670000Y-103600000D01*
X70160000Y-105150000D02*
X65010000Y-105150000D01*
X64210000Y-105950000D02*
X64210000Y-107190000D01*
X72120000Y-102150000D02*
X72120000Y-100610000D01*
X68030000Y-85880000D02*
X68410000Y-85500000D01*
X65010000Y-105150000D02*
X64210000Y-105950000D01*
X70670000Y-103600000D02*
X70670000Y-104640000D01*
%TO.N,Net-(U2A-+)*%
X118360000Y-117360000D02*
X118360000Y-102870000D01*
X118360000Y-102870000D02*
X116290000Y-100800000D01*
X116300000Y-119420000D02*
X118360000Y-117360000D01*
%TO.N,Net-(U2B-+)*%
X114470000Y-89920000D02*
X114470000Y-102910000D01*
X114470000Y-102910000D02*
X116300000Y-104740000D01*
X116300000Y-104740000D02*
X116300000Y-116920000D01*
X116290000Y-88100000D02*
X114470000Y-89920000D01*
D43*
%TO.N,-15V*%
X96091000Y-112931000D02*
X97530000Y-114370000D01*
X108540000Y-111970000D02*
X108540000Y-95850000D01*
X106140000Y-114370000D02*
X108540000Y-111970000D01*
X86099000Y-112931000D02*
X96091000Y-112931000D01*
X97530000Y-114370000D02*
X106140000Y-114370000D01*
X83880000Y-118585000D02*
X83880000Y-115150000D01*
D40*
X74580000Y-117690000D02*
X73140000Y-117690000D01*
D43*
X83880000Y-115150000D02*
X86099000Y-112931000D01*
X108540000Y-95850000D02*
X111220000Y-93170000D01*
D40*
X74910000Y-118020000D02*
X74580000Y-117690000D01*
%TO.N,Net-(IC1-INT{slash}EXT_)*%
X68660000Y-87390000D02*
X69500000Y-86550000D01*
X69185000Y-90415000D02*
X68660000Y-89890000D01*
X78250000Y-86550000D02*
X78260000Y-86540000D01*
X70240000Y-90415000D02*
X69185000Y-90415000D01*
X69500000Y-86550000D02*
X78250000Y-86550000D01*
X68660000Y-89890000D02*
X68660000Y-87390000D01*
%TO.N,+3.3V*%
X78110000Y-100660000D02*
X78110000Y-96460000D01*
D42*
%TO.N,Net-(U6-~{Inhibit})*%
X72995000Y-99660000D02*
X72120000Y-98785000D01*
X74182500Y-99660000D02*
X72995000Y-99660000D01*
D41*
%TO.N,Net-(IC2-VDD)*%
X73202500Y-114960000D02*
X73220000Y-114942500D01*
D40*
X74910000Y-116470000D02*
X73410000Y-116470000D01*
X73212500Y-114950000D02*
X73220000Y-114942500D01*
X73410000Y-116470000D02*
X73140000Y-116740000D01*
D41*
X73220000Y-116660000D02*
X73140000Y-116740000D01*
X73220000Y-114942500D02*
X73220000Y-116660000D01*
D40*
X71660000Y-114950000D02*
X73212500Y-114950000D01*
D42*
%TO.N,Net-(D2-K)*%
X73890000Y-119040000D02*
X73490000Y-118640000D01*
X73890000Y-121420000D02*
X73890000Y-119040000D01*
X73490000Y-118640000D02*
X73140000Y-118640000D01*
%TO.N,Net-(IC2-CC1)*%
X70540000Y-120247500D02*
X70540000Y-118640000D01*
D40*
%TO.N,Net-(IC2-CFG)*%
X69835000Y-116035000D02*
X70540000Y-116740000D01*
X69835000Y-114950000D02*
X69835000Y-116035000D01*
D42*
%TO.N,Net-(IC2-CC2)*%
X71400000Y-117690000D02*
X70540000Y-117690000D01*
X71840000Y-119060000D02*
X71840000Y-118130000D01*
X72280000Y-120260000D02*
X72280000Y-119500000D01*
X71840000Y-118130000D02*
X71400000Y-117690000D01*
X72280000Y-119500000D02*
X71840000Y-119060000D01*
%TD*%
%TA.AperFunction,Conductor*%
%TO.N,-15V*%
G36*
X68582177Y-109279685D02*
G01*
X68602819Y-109296319D01*
X68845958Y-109539459D01*
X68845959Y-109539460D01*
X68845962Y-109539462D01*
X68845964Y-109539464D01*
X68919707Y-109588737D01*
X68919709Y-109588739D01*
X68993454Y-109638014D01*
X69041452Y-109657895D01*
X69157334Y-109705895D01*
X69331303Y-109740499D01*
X69331307Y-109740500D01*
X69331308Y-109740500D01*
X69331309Y-109740500D01*
X71645731Y-109740500D01*
X71712770Y-109760185D01*
X71758525Y-109812989D01*
X71769110Y-109868806D01*
X71769500Y-109868806D01*
X71769500Y-109870863D01*
X71769553Y-109871143D01*
X71769500Y-109872130D01*
X71769500Y-111967870D01*
X71769501Y-111967876D01*
X71775908Y-112027483D01*
X71826202Y-112162328D01*
X71826206Y-112162335D01*
X71912452Y-112277544D01*
X71912455Y-112277547D01*
X72027664Y-112363793D01*
X72027671Y-112363797D01*
X72072618Y-112380561D01*
X72162517Y-112414091D01*
X72195866Y-112417676D01*
X72260414Y-112444413D01*
X72300263Y-112501805D01*
X72302758Y-112571630D01*
X72300315Y-112579968D01*
X72254826Y-112717244D01*
X72254825Y-112717248D01*
X72244500Y-112818315D01*
X72244500Y-113416669D01*
X72244501Y-113416687D01*
X72254825Y-113517752D01*
X72309092Y-113681515D01*
X72309093Y-113681518D01*
X72399661Y-113828351D01*
X72482193Y-113910883D01*
X72515678Y-113972206D01*
X72510694Y-114041898D01*
X72468822Y-114097831D01*
X72403358Y-114122248D01*
X72335085Y-114107396D01*
X72329424Y-114104108D01*
X72252009Y-114056358D01*
X72224018Y-114039093D01*
X72224013Y-114039091D01*
X72196578Y-114030000D01*
X72060253Y-113984826D01*
X72060251Y-113984825D01*
X71959178Y-113974500D01*
X71360830Y-113974500D01*
X71360812Y-113974501D01*
X71259747Y-113984825D01*
X71095984Y-114039092D01*
X71095981Y-114039093D01*
X70949148Y-114129661D01*
X70835181Y-114243629D01*
X70773858Y-114277114D01*
X70704166Y-114272130D01*
X70659819Y-114243629D01*
X70545851Y-114129661D01*
X70545850Y-114129660D01*
X70427009Y-114056358D01*
X70399018Y-114039093D01*
X70399013Y-114039091D01*
X70371578Y-114030000D01*
X70235253Y-113984826D01*
X70235251Y-113984825D01*
X70134178Y-113974500D01*
X69535830Y-113974500D01*
X69535812Y-113974501D01*
X69434747Y-113984825D01*
X69270984Y-114039092D01*
X69270981Y-114039093D01*
X69124148Y-114129661D01*
X69002161Y-114251648D01*
X68911593Y-114398481D01*
X68911592Y-114398484D01*
X68877539Y-114501248D01*
X68837766Y-114558693D01*
X68773249Y-114585515D01*
X68727740Y-114582018D01*
X68614729Y-114551736D01*
X68569057Y-114539499D01*
X68410943Y-114539499D01*
X68403347Y-114539499D01*
X68403331Y-114539500D01*
X66329766Y-114539500D01*
X66262727Y-114519815D01*
X66260875Y-114518602D01*
X66129185Y-114430609D01*
X66129172Y-114430602D01*
X65983501Y-114370264D01*
X65983489Y-114370261D01*
X65828845Y-114339500D01*
X65828842Y-114339500D01*
X65671158Y-114339500D01*
X65671155Y-114339500D01*
X65516510Y-114370261D01*
X65516498Y-114370264D01*
X65370827Y-114430602D01*
X65370814Y-114430609D01*
X65239711Y-114518210D01*
X65239707Y-114518213D01*
X65128213Y-114629707D01*
X65128210Y-114629711D01*
X65040609Y-114760814D01*
X65040602Y-114760827D01*
X64980264Y-114906498D01*
X64980261Y-114906510D01*
X64949500Y-115061153D01*
X64949500Y-115218846D01*
X64980261Y-115373489D01*
X64980264Y-115373501D01*
X65040602Y-115519172D01*
X65040609Y-115519185D01*
X65128210Y-115650288D01*
X65128213Y-115650292D01*
X65239707Y-115761786D01*
X65239711Y-115761789D01*
X65370814Y-115849390D01*
X65370827Y-115849397D01*
X65513234Y-115908383D01*
X65516503Y-115909737D01*
X65660636Y-115938407D01*
X65671153Y-115940499D01*
X65671156Y-115940500D01*
X65671158Y-115940500D01*
X65828844Y-115940500D01*
X65828845Y-115940499D01*
X65983497Y-115909737D01*
X66129179Y-115849394D01*
X66129185Y-115849390D01*
X66260875Y-115761398D01*
X66327553Y-115740520D01*
X66329766Y-115740500D01*
X68189903Y-115740500D01*
X68219343Y-115749144D01*
X68249330Y-115755668D01*
X68254345Y-115759422D01*
X68256942Y-115760185D01*
X68277584Y-115776819D01*
X68293181Y-115792416D01*
X68326666Y-115853739D01*
X68329500Y-115880097D01*
X68329500Y-118003330D01*
X68329499Y-118003348D01*
X68329499Y-118169054D01*
X68329498Y-118169054D01*
X68329499Y-118169057D01*
X68370423Y-118321785D01*
X68393517Y-118361785D01*
X68449477Y-118458712D01*
X68449481Y-118458717D01*
X68568349Y-118577585D01*
X68568355Y-118577590D01*
X68995139Y-119004374D01*
X68995149Y-119004385D01*
X68999479Y-119008715D01*
X68999480Y-119008716D01*
X69111284Y-119120520D01*
X69111286Y-119120521D01*
X69111290Y-119120524D01*
X69152668Y-119144413D01*
X69248216Y-119199577D01*
X69360019Y-119229534D01*
X69400942Y-119240500D01*
X69400943Y-119240500D01*
X69532389Y-119240500D01*
X69537083Y-119240857D01*
X69565536Y-119251616D01*
X69594719Y-119260185D01*
X69599178Y-119264336D01*
X69602437Y-119265569D01*
X69606752Y-119271388D01*
X69626948Y-119290191D01*
X69632454Y-119297546D01*
X69704508Y-119351486D01*
X69746378Y-119407418D01*
X69751362Y-119477110D01*
X69722608Y-119529777D01*
X69724138Y-119530987D01*
X69719661Y-119536647D01*
X69629093Y-119683481D01*
X69629091Y-119683486D01*
X69601719Y-119766088D01*
X69574826Y-119847247D01*
X69574826Y-119847248D01*
X69574825Y-119847248D01*
X69564500Y-119948315D01*
X69564500Y-120004782D01*
X69544815Y-120071821D01*
X69492011Y-120117576D01*
X69422853Y-120127520D01*
X69388795Y-120115577D01*
X69388064Y-120117146D01*
X69381518Y-120114093D01*
X69381516Y-120114092D01*
X69217753Y-120059826D01*
X69217751Y-120059825D01*
X69116678Y-120049500D01*
X68543330Y-120049500D01*
X68543312Y-120049501D01*
X68442247Y-120059825D01*
X68278484Y-120114092D01*
X68278481Y-120114093D01*
X68131648Y-120204661D01*
X68009661Y-120326648D01*
X67919093Y-120473481D01*
X67919092Y-120473484D01*
X67864826Y-120637247D01*
X67864826Y-120637248D01*
X67864825Y-120637248D01*
X67854500Y-120738315D01*
X67854500Y-121336669D01*
X67854501Y-121336687D01*
X67864825Y-121437752D01*
X67885070Y-121498846D01*
X67913005Y-121583148D01*
X67919092Y-121601515D01*
X67919093Y-121601518D01*
X68009661Y-121748351D01*
X68123629Y-121862319D01*
X68157114Y-121923642D01*
X68152130Y-121993334D01*
X68123629Y-122037681D01*
X68009661Y-122151648D01*
X67919093Y-122298481D01*
X67919091Y-122298486D01*
X67911134Y-122322500D01*
X67864826Y-122462247D01*
X67864826Y-122462248D01*
X67864825Y-122462248D01*
X67854500Y-122563315D01*
X67854500Y-123161669D01*
X67854501Y-123161687D01*
X67864825Y-123262752D01*
X67882914Y-123317340D01*
X67919092Y-123426516D01*
X68009660Y-123573350D01*
X68131650Y-123695340D01*
X68278484Y-123785908D01*
X68442247Y-123840174D01*
X68543323Y-123850500D01*
X69116676Y-123850499D01*
X69116684Y-123850498D01*
X69116687Y-123850498D01*
X69172030Y-123844844D01*
X69217753Y-123840174D01*
X69381516Y-123785908D01*
X69528350Y-123695340D01*
X69650340Y-123573350D01*
X69740908Y-123426516D01*
X69795174Y-123262753D01*
X69805500Y-123161677D01*
X69805499Y-123104628D01*
X69825182Y-123037592D01*
X69877986Y-122991836D01*
X69947144Y-122981892D01*
X69981278Y-122994265D01*
X69982149Y-122992399D01*
X69988699Y-122995453D01*
X70152347Y-123049680D01*
X70253352Y-123059999D01*
X70290000Y-123059999D01*
X70790000Y-123059999D01*
X70826640Y-123059999D01*
X70826654Y-123059998D01*
X70927652Y-123049680D01*
X71091300Y-122995453D01*
X71091311Y-122995448D01*
X71238033Y-122904948D01*
X71316067Y-122826914D01*
X71377390Y-122793429D01*
X71447082Y-122798413D01*
X71491430Y-122826913D01*
X71581965Y-122917447D01*
X71728688Y-123007948D01*
X71728699Y-123007953D01*
X71892347Y-123062180D01*
X71993352Y-123072499D01*
X72030000Y-123072499D01*
X72530000Y-123072499D01*
X72566640Y-123072499D01*
X72566654Y-123072498D01*
X72667652Y-123062180D01*
X72831300Y-123007953D01*
X72831311Y-123007948D01*
X72978034Y-122917447D01*
X72978038Y-122917444D01*
X73099944Y-122795538D01*
X73099947Y-122795534D01*
X73190448Y-122648811D01*
X73190453Y-122648800D01*
X73244680Y-122485152D01*
X73254999Y-122384154D01*
X73255000Y-122384141D01*
X73255000Y-122335000D01*
X72530000Y-122335000D01*
X72530000Y-123072499D01*
X72030000Y-123072499D01*
X72030000Y-122335000D01*
X71238862Y-122335000D01*
X71196292Y-122322500D01*
X70790000Y-122322500D01*
X70790000Y-123059999D01*
X70290000Y-123059999D01*
X70290000Y-122196500D01*
X70309685Y-122129461D01*
X70362489Y-122083706D01*
X70414000Y-122072500D01*
X70540000Y-122072500D01*
X70540000Y-121946500D01*
X70559685Y-121879461D01*
X70612489Y-121833706D01*
X70664000Y-121822500D01*
X71581138Y-121822500D01*
X71623708Y-121835000D01*
X73138261Y-121835000D01*
X73205300Y-121854685D01*
X73241363Y-121890109D01*
X73268210Y-121930288D01*
X73268213Y-121930292D01*
X73379707Y-122041786D01*
X73379711Y-122041789D01*
X73510814Y-122129390D01*
X73510827Y-122129397D01*
X73656498Y-122189735D01*
X73656503Y-122189737D01*
X73811153Y-122220499D01*
X73811156Y-122220500D01*
X73811158Y-122220500D01*
X73968844Y-122220500D01*
X73968845Y-122220499D01*
X74123497Y-122189737D01*
X74269179Y-122129394D01*
X74400289Y-122041789D01*
X74511789Y-121930289D01*
X74599394Y-121799179D01*
X74659737Y-121653497D01*
X74690500Y-121498842D01*
X74690500Y-121341158D01*
X74690500Y-121341155D01*
X74690499Y-121341153D01*
X74682715Y-121302022D01*
X74659737Y-121186503D01*
X74658455Y-121183408D01*
X74599397Y-121040827D01*
X74599390Y-121040814D01*
X74511398Y-120909125D01*
X74490520Y-120842447D01*
X74490500Y-120840234D01*
X74490500Y-119093999D01*
X74510185Y-119026960D01*
X74562989Y-118981205D01*
X74614499Y-118969999D01*
X74659999Y-118969998D01*
X74660000Y-118969998D01*
X74660000Y-118144000D01*
X74679685Y-118076961D01*
X74732489Y-118031206D01*
X74784000Y-118020000D01*
X75036000Y-118020000D01*
X75103039Y-118039685D01*
X75148794Y-118092489D01*
X75160000Y-118144000D01*
X75160000Y-118969999D01*
X75208308Y-118969999D01*
X75208322Y-118969998D01*
X75307607Y-118959855D01*
X75468481Y-118906547D01*
X75468487Y-118906544D01*
X75498565Y-118887992D01*
X75565957Y-118869551D01*
X75632621Y-118890472D01*
X75677391Y-118944114D01*
X75687663Y-118993432D01*
X75690000Y-121960000D01*
X80656000Y-121960000D01*
X80723039Y-121979685D01*
X80768794Y-122032489D01*
X80780000Y-122084000D01*
X80780000Y-126875500D01*
X80760315Y-126942539D01*
X80707511Y-126988294D01*
X80656000Y-126999500D01*
X65277309Y-126999500D01*
X65210270Y-126979815D01*
X65189628Y-126963181D01*
X63980698Y-125754251D01*
X64082330Y-125680412D01*
X64260412Y-125502330D01*
X64334251Y-125400699D01*
X65579634Y-126646082D01*
X65579635Y-126646081D01*
X65733986Y-126458004D01*
X65916851Y-126184327D01*
X65916862Y-126184309D01*
X66072012Y-125894044D01*
X66072014Y-125894039D01*
X66165666Y-125667946D01*
X66165666Y-125667944D01*
X66197972Y-125589950D01*
X66293524Y-125274961D01*
X66293525Y-125274956D01*
X66357738Y-124952139D01*
X66390000Y-124624571D01*
X66390000Y-124421947D01*
X76730000Y-124421947D01*
X76730000Y-124658052D01*
X76766934Y-124891247D01*
X76839897Y-125115802D01*
X76947087Y-125326174D01*
X77007338Y-125409104D01*
X77007340Y-125409105D01*
X77747037Y-124669408D01*
X77764075Y-124732993D01*
X77829901Y-124847007D01*
X77922993Y-124940099D01*
X78037007Y-125005925D01*
X78100590Y-125022962D01*
X77360893Y-125762658D01*
X77443828Y-125822914D01*
X77654197Y-125930102D01*
X77878752Y-126003065D01*
X77878751Y-126003065D01*
X78111948Y-126040000D01*
X78348052Y-126040000D01*
X78581247Y-126003065D01*
X78805802Y-125930102D01*
X79016163Y-125822918D01*
X79016169Y-125822914D01*
X79099104Y-125762658D01*
X79099105Y-125762658D01*
X78359408Y-125022962D01*
X78422993Y-125005925D01*
X78537007Y-124940099D01*
X78630099Y-124847007D01*
X78695925Y-124732993D01*
X78712962Y-124669409D01*
X79452658Y-125409105D01*
X79452658Y-125409104D01*
X79512914Y-125326169D01*
X79512918Y-125326163D01*
X79620102Y-125115802D01*
X79693065Y-124891247D01*
X79730000Y-124658052D01*
X79730000Y-124421947D01*
X79693065Y-124188752D01*
X79620102Y-123964197D01*
X79512914Y-123753828D01*
X79452658Y-123670894D01*
X79452658Y-123670893D01*
X78712962Y-124410590D01*
X78695925Y-124347007D01*
X78630099Y-124232993D01*
X78537007Y-124139901D01*
X78422993Y-124074075D01*
X78359409Y-124057037D01*
X79099105Y-123317340D01*
X79099104Y-123317338D01*
X79016174Y-123257087D01*
X78805802Y-123149897D01*
X78581247Y-123076934D01*
X78581248Y-123076934D01*
X78348052Y-123040000D01*
X78111948Y-123040000D01*
X77878752Y-123076934D01*
X77654197Y-123149897D01*
X77443830Y-123257084D01*
X77360894Y-123317340D01*
X78100591Y-124057037D01*
X78037007Y-124074075D01*
X77922993Y-124139901D01*
X77829901Y-124232993D01*
X77764075Y-124347007D01*
X77747037Y-124410591D01*
X77007340Y-123670894D01*
X76947084Y-123753830D01*
X76839897Y-123964197D01*
X76766934Y-124188752D01*
X76730000Y-124421947D01*
X66390000Y-124421947D01*
X66390000Y-124295428D01*
X66357738Y-123967860D01*
X66293525Y-123645043D01*
X66293524Y-123645038D01*
X66197974Y-123330053D01*
X66072014Y-123025960D01*
X66072012Y-123025955D01*
X65916862Y-122735690D01*
X65916851Y-122735672D01*
X65733992Y-122462004D01*
X65733989Y-122462000D01*
X65579634Y-122273917D01*
X65579633Y-122273917D01*
X64334250Y-123519300D01*
X64260412Y-123417670D01*
X64082330Y-123239588D01*
X63980697Y-123165747D01*
X65226081Y-121920365D01*
X65226081Y-121920364D01*
X65037999Y-121766010D01*
X65037995Y-121766007D01*
X64764327Y-121583148D01*
X64764309Y-121583137D01*
X64474044Y-121427987D01*
X64474039Y-121427985D01*
X64169946Y-121302025D01*
X63854961Y-121206475D01*
X63854956Y-121206474D01*
X63532139Y-121142261D01*
X63204572Y-121110000D01*
X62875428Y-121110000D01*
X62737330Y-121123601D01*
X62668684Y-121110582D01*
X62617974Y-121062517D01*
X62601299Y-120994666D01*
X62623955Y-120928571D01*
X62662660Y-120894426D01*
X62662297Y-120893883D01*
X62666332Y-120891186D01*
X62666730Y-120890836D01*
X62667365Y-120890496D01*
X62839335Y-120775589D01*
X62839339Y-120775586D01*
X62985586Y-120629339D01*
X62985589Y-120629335D01*
X63100494Y-120457368D01*
X63100499Y-120457358D01*
X63179648Y-120266276D01*
X63179649Y-120266274D01*
X63190843Y-120210000D01*
X62336988Y-120210000D01*
X62354205Y-120200060D01*
X62410060Y-120144205D01*
X62449556Y-120075796D01*
X62470000Y-119999496D01*
X62470000Y-119920504D01*
X62449556Y-119844204D01*
X62410060Y-119775795D01*
X62354205Y-119719940D01*
X62336988Y-119710000D01*
X63190843Y-119710000D01*
X64349157Y-119710000D01*
X65203012Y-119710000D01*
X65185795Y-119719940D01*
X65129940Y-119775795D01*
X65090444Y-119844204D01*
X65070000Y-119920504D01*
X65070000Y-119999496D01*
X65090444Y-120075796D01*
X65129940Y-120144205D01*
X65185795Y-120200060D01*
X65203012Y-120210000D01*
X64349157Y-120210000D01*
X64360350Y-120266274D01*
X64360351Y-120266276D01*
X64439500Y-120457358D01*
X64439505Y-120457368D01*
X64554410Y-120629335D01*
X64554413Y-120629339D01*
X64700660Y-120775586D01*
X64700664Y-120775589D01*
X64872631Y-120890494D01*
X64872641Y-120890499D01*
X65063725Y-120969649D01*
X65063733Y-120969651D01*
X65266579Y-121009999D01*
X65266583Y-121010000D01*
X65420000Y-121010000D01*
X65420000Y-120260000D01*
X65920000Y-120260000D01*
X65920000Y-121010000D01*
X66073417Y-121010000D01*
X66073420Y-121009999D01*
X66276266Y-120969651D01*
X66276274Y-120969649D01*
X66467358Y-120890499D01*
X66467368Y-120890494D01*
X66639335Y-120775589D01*
X66639339Y-120775586D01*
X66785586Y-120629339D01*
X66785589Y-120629335D01*
X66900494Y-120457368D01*
X66900499Y-120457358D01*
X66979648Y-120266276D01*
X66979649Y-120266274D01*
X66990843Y-120210000D01*
X66136988Y-120210000D01*
X66154205Y-120200060D01*
X66210060Y-120144205D01*
X66249556Y-120075796D01*
X66270000Y-119999496D01*
X66270000Y-119920504D01*
X66249556Y-119844204D01*
X66210060Y-119775795D01*
X66154205Y-119719940D01*
X66136988Y-119710000D01*
X66990843Y-119710000D01*
X66979649Y-119653725D01*
X66979648Y-119653723D01*
X66900499Y-119462641D01*
X66900494Y-119462631D01*
X66785589Y-119290664D01*
X66785586Y-119290660D01*
X66639339Y-119144413D01*
X66639335Y-119144410D01*
X66467368Y-119029505D01*
X66467358Y-119029500D01*
X66276274Y-118950350D01*
X66276266Y-118950348D01*
X66073420Y-118910000D01*
X65920000Y-118910000D01*
X65920000Y-119660000D01*
X65420000Y-119660000D01*
X65420000Y-118910000D01*
X65266579Y-118910000D01*
X65063733Y-118950348D01*
X65063725Y-118950350D01*
X64872641Y-119029500D01*
X64872631Y-119029505D01*
X64700664Y-119144410D01*
X64700660Y-119144413D01*
X64554413Y-119290660D01*
X64554410Y-119290664D01*
X64439505Y-119462631D01*
X64439500Y-119462641D01*
X64360351Y-119653723D01*
X64360350Y-119653725D01*
X64349157Y-119710000D01*
X63190843Y-119710000D01*
X63179649Y-119653725D01*
X63179648Y-119653723D01*
X63100499Y-119462641D01*
X63100494Y-119462631D01*
X62985589Y-119290664D01*
X62985586Y-119290660D01*
X62839339Y-119144413D01*
X62839335Y-119144410D01*
X62667368Y-119029505D01*
X62667358Y-119029500D01*
X62476274Y-118950350D01*
X62476266Y-118950348D01*
X62273420Y-118910000D01*
X62120000Y-118910000D01*
X62120000Y-119660000D01*
X61620000Y-119660000D01*
X61620000Y-118910000D01*
X61466579Y-118910000D01*
X61263733Y-118950348D01*
X61263725Y-118950350D01*
X61072641Y-119029500D01*
X61072631Y-119029505D01*
X60900664Y-119144410D01*
X60900660Y-119144413D01*
X60754413Y-119290660D01*
X60754410Y-119290664D01*
X60727602Y-119330786D01*
X60673990Y-119375591D01*
X60604665Y-119384298D01*
X60541638Y-119354144D01*
X60504918Y-119294701D01*
X60500500Y-119261895D01*
X60500500Y-112018104D01*
X60520185Y-111951065D01*
X60572989Y-111905310D01*
X60642147Y-111895366D01*
X60705703Y-111924391D01*
X60727603Y-111949214D01*
X60754412Y-111989338D01*
X60900660Y-112135586D01*
X60900664Y-112135589D01*
X61072631Y-112250494D01*
X61072641Y-112250499D01*
X61263725Y-112329649D01*
X61263733Y-112329651D01*
X61466579Y-112369999D01*
X61466583Y-112370000D01*
X61620000Y-112370000D01*
X61620000Y-111620000D01*
X62120000Y-111620000D01*
X62120000Y-112370000D01*
X62273417Y-112370000D01*
X62273420Y-112369999D01*
X62476266Y-112329651D01*
X62476274Y-112329649D01*
X62667358Y-112250499D01*
X62667368Y-112250494D01*
X62839335Y-112135589D01*
X62839339Y-112135586D01*
X62985586Y-111989339D01*
X62985589Y-111989335D01*
X63100494Y-111817368D01*
X63100499Y-111817358D01*
X63179648Y-111626276D01*
X63179649Y-111626274D01*
X63190843Y-111570000D01*
X62336988Y-111570000D01*
X62354205Y-111560060D01*
X62410060Y-111504205D01*
X62449556Y-111435796D01*
X62470000Y-111359496D01*
X62470000Y-111280504D01*
X62449556Y-111204204D01*
X62410060Y-111135795D01*
X62354205Y-111079940D01*
X62336988Y-111070000D01*
X63190843Y-111070000D01*
X64349157Y-111070000D01*
X65203012Y-111070000D01*
X65185795Y-111079940D01*
X65129940Y-111135795D01*
X65090444Y-111204204D01*
X65070000Y-111280504D01*
X65070000Y-111359496D01*
X65090444Y-111435796D01*
X65129940Y-111504205D01*
X65185795Y-111560060D01*
X65203012Y-111570000D01*
X64349157Y-111570000D01*
X64360350Y-111626274D01*
X64360351Y-111626276D01*
X64439500Y-111817358D01*
X64439505Y-111817368D01*
X64554410Y-111989335D01*
X64554413Y-111989339D01*
X64700660Y-112135586D01*
X64700664Y-112135589D01*
X64872631Y-112250494D01*
X64872641Y-112250499D01*
X65063725Y-112329649D01*
X65063733Y-112329651D01*
X65266579Y-112369999D01*
X65266583Y-112370000D01*
X65420000Y-112370000D01*
X65420000Y-111620000D01*
X65920000Y-111620000D01*
X65920000Y-112370000D01*
X66073417Y-112370000D01*
X66073420Y-112369999D01*
X66276266Y-112329651D01*
X66276274Y-112329649D01*
X66467358Y-112250499D01*
X66467368Y-112250494D01*
X66639335Y-112135589D01*
X66639339Y-112135586D01*
X66785586Y-111989339D01*
X66785589Y-111989335D01*
X66900494Y-111817368D01*
X66900499Y-111817358D01*
X66979648Y-111626276D01*
X66979649Y-111626274D01*
X66990843Y-111570000D01*
X66136988Y-111570000D01*
X66154205Y-111560060D01*
X66210060Y-111504205D01*
X66249556Y-111435796D01*
X66270000Y-111359496D01*
X66270000Y-111280504D01*
X66249556Y-111204204D01*
X66210060Y-111135795D01*
X66154205Y-111079940D01*
X66136988Y-111070000D01*
X66990843Y-111070000D01*
X66979649Y-111013725D01*
X66979648Y-111013723D01*
X66900499Y-110822641D01*
X66900494Y-110822631D01*
X66785589Y-110650664D01*
X66785586Y-110650660D01*
X66639339Y-110504413D01*
X66639335Y-110504410D01*
X66467368Y-110389505D01*
X66467358Y-110389500D01*
X66276274Y-110310350D01*
X66276266Y-110310348D01*
X66073420Y-110270000D01*
X65920000Y-110270000D01*
X65920000Y-111020000D01*
X65420000Y-111020000D01*
X65420000Y-110270000D01*
X65266579Y-110270000D01*
X65063733Y-110310348D01*
X65063725Y-110310350D01*
X64872641Y-110389500D01*
X64872631Y-110389505D01*
X64700664Y-110504410D01*
X64700660Y-110504413D01*
X64554413Y-110650660D01*
X64554410Y-110650664D01*
X64439505Y-110822631D01*
X64439500Y-110822641D01*
X64360351Y-111013723D01*
X64360350Y-111013725D01*
X64349157Y-111070000D01*
X63190843Y-111070000D01*
X63179649Y-111013725D01*
X63179648Y-111013723D01*
X63100499Y-110822641D01*
X63100494Y-110822631D01*
X62985589Y-110650664D01*
X62985586Y-110650660D01*
X62839339Y-110504413D01*
X62839335Y-110504410D01*
X62667368Y-110389505D01*
X62667358Y-110389500D01*
X62476274Y-110310350D01*
X62476266Y-110310348D01*
X62273420Y-110270000D01*
X62120000Y-110270000D01*
X62120000Y-111020000D01*
X61620000Y-111020000D01*
X61620000Y-110270000D01*
X61466579Y-110270000D01*
X61263733Y-110310348D01*
X61263725Y-110310350D01*
X61072641Y-110389500D01*
X61072631Y-110389505D01*
X60900664Y-110504410D01*
X60900660Y-110504413D01*
X60754413Y-110650660D01*
X60754410Y-110650664D01*
X60727602Y-110690786D01*
X60673990Y-110735591D01*
X60604665Y-110744298D01*
X60541638Y-110714144D01*
X60504918Y-110654701D01*
X60500500Y-110621895D01*
X60500500Y-109384000D01*
X60520185Y-109316961D01*
X60572989Y-109271206D01*
X60624500Y-109260000D01*
X68515138Y-109260000D01*
X68582177Y-109279685D01*
G37*
%TD.AperFunction*%
%TA.AperFunction,Conductor*%
G36*
X62120000Y-121010000D02*
G01*
X62148906Y-121038906D01*
X62182391Y-121100229D01*
X62177407Y-121169921D01*
X62135535Y-121225854D01*
X62097221Y-121245247D01*
X61910062Y-121302022D01*
X61605960Y-121427985D01*
X61605955Y-121427987D01*
X61315690Y-121583137D01*
X61315672Y-121583148D01*
X61042004Y-121766007D01*
X61041999Y-121766010D01*
X60853917Y-121920364D01*
X60853917Y-121920365D01*
X62099301Y-123165748D01*
X61997670Y-123239588D01*
X61819588Y-123417670D01*
X61745748Y-123519301D01*
X60536819Y-122310372D01*
X60503334Y-122249049D01*
X60500500Y-122222691D01*
X60500500Y-120658104D01*
X60520185Y-120591065D01*
X60572989Y-120545310D01*
X60642147Y-120535366D01*
X60705703Y-120564391D01*
X60727603Y-120589214D01*
X60754412Y-120629338D01*
X60900660Y-120775586D01*
X60900664Y-120775589D01*
X61072631Y-120890494D01*
X61072641Y-120890499D01*
X61263725Y-120969649D01*
X61263733Y-120969651D01*
X61466579Y-121009999D01*
X61466583Y-121010000D01*
X61620000Y-121010000D01*
X61620000Y-120260000D01*
X62120000Y-120260000D01*
X62120000Y-121010000D01*
G37*
%TD.AperFunction*%
%TD*%
%TA.AperFunction,Conductor*%
%TO.N,GND*%
G36*
X104857371Y-106888641D02*
G01*
X104913305Y-106930512D01*
X104936511Y-106985424D01*
X104944675Y-107036969D01*
X104944676Y-107036972D01*
X105004285Y-107220429D01*
X105091859Y-107392302D01*
X105205241Y-107548359D01*
X105341641Y-107684759D01*
X105497698Y-107798141D01*
X105669571Y-107885715D01*
X105719904Y-107902069D01*
X105777580Y-107941507D01*
X105804778Y-108005865D01*
X105792863Y-108074712D01*
X105745619Y-108126187D01*
X105719905Y-108137930D01*
X105711883Y-108140537D01*
X105669568Y-108154286D01*
X105497697Y-108241859D01*
X105415634Y-108301482D01*
X105341641Y-108355241D01*
X105341639Y-108355243D01*
X105341638Y-108355243D01*
X105205243Y-108491638D01*
X105205243Y-108491639D01*
X105205241Y-108491641D01*
X105156547Y-108558661D01*
X105091859Y-108647697D01*
X105004286Y-108819568D01*
X104944675Y-109003030D01*
X104914500Y-109193551D01*
X104914500Y-109386448D01*
X104944675Y-109576969D01*
X104944676Y-109576972D01*
X104999173Y-109744697D01*
X105004286Y-109760431D01*
X105036329Y-109823319D01*
X105091859Y-109932302D01*
X105205241Y-110088359D01*
X105341641Y-110224759D01*
X105497698Y-110338141D01*
X105669571Y-110425715D01*
X105720712Y-110442331D01*
X105778386Y-110481768D01*
X105805585Y-110546127D01*
X105793670Y-110614973D01*
X105746426Y-110666449D01*
X105720712Y-110678193D01*
X105669762Y-110694748D01*
X105497955Y-110782288D01*
X105497950Y-110782292D01*
X105467771Y-110804216D01*
X105467771Y-110804219D01*
X106071828Y-111408274D01*
X105975956Y-111433963D01*
X105879044Y-111489916D01*
X105799916Y-111569044D01*
X105743963Y-111665956D01*
X105718274Y-111761827D01*
X105114219Y-111157771D01*
X105114216Y-111157771D01*
X105092292Y-111187950D01*
X105092288Y-111187955D01*
X105004747Y-111359762D01*
X105004746Y-111359765D01*
X104945164Y-111543143D01*
X104915000Y-111733590D01*
X104915000Y-111926409D01*
X104945164Y-112116856D01*
X105004746Y-112300234D01*
X105004747Y-112300237D01*
X105092288Y-112472043D01*
X105114217Y-112502227D01*
X105114218Y-112502227D01*
X105718274Y-111898171D01*
X105743963Y-111994044D01*
X105799916Y-112090956D01*
X105879044Y-112170084D01*
X105975956Y-112226037D01*
X106071827Y-112251725D01*
X105467771Y-112855780D01*
X105467771Y-112855781D01*
X105497957Y-112877712D01*
X105669762Y-112965252D01*
X105669768Y-112965254D01*
X105720710Y-112981806D01*
X105778386Y-113021243D01*
X105805585Y-113085601D01*
X105793671Y-113154448D01*
X105746427Y-113205924D01*
X105720713Y-113217667D01*
X105669570Y-113234284D01*
X105497697Y-113321859D01*
X105408661Y-113386547D01*
X105341641Y-113435241D01*
X105341639Y-113435243D01*
X105337937Y-113438405D01*
X105336727Y-113436988D01*
X105282378Y-113466666D01*
X105256020Y-113469500D01*
X97954361Y-113469500D01*
X97887322Y-113449815D01*
X97866680Y-113433181D01*
X97475681Y-113042181D01*
X97442196Y-112980858D01*
X97447180Y-112911166D01*
X97489052Y-112855233D01*
X97554516Y-112830816D01*
X97563362Y-112830500D01*
X101668693Y-112830500D01*
X101668694Y-112830499D01*
X101842666Y-112795895D01*
X101948943Y-112751873D01*
X102006547Y-112728013D01*
X102130289Y-112645331D01*
X102154036Y-112629464D01*
X102645792Y-112137708D01*
X103142464Y-111641037D01*
X104049459Y-110734041D01*
X104049462Y-110734038D01*
X104049464Y-110734036D01*
X104105384Y-110650345D01*
X104148013Y-110586547D01*
X104182195Y-110504023D01*
X104215895Y-110422666D01*
X104250500Y-110248692D01*
X104250500Y-110071308D01*
X104250500Y-107444362D01*
X104270185Y-107377323D01*
X104286819Y-107356681D01*
X104423071Y-107220429D01*
X104726359Y-106917140D01*
X104787680Y-106883657D01*
X104857371Y-106888641D01*
G37*
%TD.AperFunction*%
%TA.AperFunction,Conductor*%
G36*
X109934638Y-85671375D02*
G01*
X109990571Y-85713247D01*
X110013777Y-85768159D01*
X110024675Y-85836969D01*
X110024676Y-85836972D01*
X110084285Y-86020429D01*
X110171859Y-86192302D01*
X110285241Y-86348359D01*
X110421641Y-86484759D01*
X110577698Y-86598141D01*
X110749571Y-86685715D01*
X110799904Y-86702069D01*
X110857580Y-86741507D01*
X110884778Y-86805865D01*
X110872863Y-86874712D01*
X110825619Y-86926187D01*
X110799905Y-86937930D01*
X110769127Y-86947931D01*
X110749568Y-86954286D01*
X110577697Y-87041859D01*
X110500388Y-87098028D01*
X110421641Y-87155241D01*
X110421639Y-87155243D01*
X110421638Y-87155243D01*
X110285243Y-87291638D01*
X110285243Y-87291639D01*
X110285241Y-87291641D01*
X110249744Y-87340499D01*
X110171859Y-87447697D01*
X110084286Y-87619568D01*
X110024675Y-87803030D01*
X110009627Y-87898041D01*
X109994500Y-87993551D01*
X109994500Y-88186449D01*
X109996084Y-88196448D01*
X110024675Y-88376969D01*
X110024676Y-88376972D01*
X110084285Y-88560429D01*
X110171859Y-88732302D01*
X110285241Y-88888359D01*
X110421641Y-89024759D01*
X110577698Y-89138141D01*
X110749571Y-89225715D01*
X110799904Y-89242069D01*
X110857580Y-89281507D01*
X110884778Y-89345865D01*
X110872863Y-89414712D01*
X110825619Y-89466187D01*
X110799905Y-89477930D01*
X110769127Y-89487931D01*
X110749568Y-89494286D01*
X110577697Y-89581859D01*
X110525314Y-89619918D01*
X110421641Y-89695241D01*
X110421639Y-89695243D01*
X110421638Y-89695243D01*
X110285243Y-89831638D01*
X110285243Y-89831639D01*
X110285241Y-89831641D01*
X110236547Y-89898661D01*
X110171859Y-89987697D01*
X110084286Y-90159568D01*
X110024675Y-90343030D01*
X109994500Y-90533551D01*
X109994500Y-90726448D01*
X110024675Y-90916969D01*
X110024676Y-90916972D01*
X110080435Y-91088581D01*
X110084286Y-91100431D01*
X110101835Y-91134873D01*
X110171859Y-91272302D01*
X110285241Y-91428359D01*
X110421641Y-91564759D01*
X110577698Y-91678141D01*
X110749571Y-91765715D01*
X110799904Y-91782069D01*
X110857580Y-91821507D01*
X110884778Y-91885865D01*
X110872863Y-91954712D01*
X110825619Y-92006187D01*
X110799905Y-92017930D01*
X110769127Y-92027931D01*
X110749568Y-92034286D01*
X110577697Y-92121859D01*
X110488661Y-92186547D01*
X110421641Y-92235241D01*
X110421639Y-92235243D01*
X110421638Y-92235243D01*
X110285243Y-92371638D01*
X110285243Y-92371639D01*
X110285241Y-92371641D01*
X110277978Y-92381638D01*
X110171859Y-92527697D01*
X110084286Y-92699568D01*
X110024675Y-92883030D01*
X109994499Y-93073553D01*
X109994117Y-93078414D01*
X109992259Y-93078267D01*
X109974815Y-93137676D01*
X109958181Y-93158318D01*
X107840538Y-95275960D01*
X107840537Y-95275961D01*
X107811886Y-95318842D01*
X107803882Y-95330821D01*
X107741987Y-95423453D01*
X107709749Y-95501284D01*
X107707133Y-95507598D01*
X107707127Y-95507610D01*
X107674105Y-95587333D01*
X107674103Y-95587341D01*
X107647665Y-95720257D01*
X107639500Y-95761304D01*
X107639500Y-111545638D01*
X107619815Y-111612677D01*
X107603180Y-111633320D01*
X107555938Y-111680561D01*
X107494615Y-111714045D01*
X107424923Y-111709060D01*
X107368990Y-111667188D01*
X107345784Y-111612276D01*
X107334834Y-111543138D01*
X107275253Y-111359765D01*
X107275252Y-111359762D01*
X107187712Y-111187957D01*
X107165781Y-111157771D01*
X107165780Y-111157771D01*
X106561725Y-111761827D01*
X106536037Y-111665956D01*
X106480084Y-111569044D01*
X106400956Y-111489916D01*
X106304044Y-111433963D01*
X106208172Y-111408274D01*
X106812227Y-110804218D01*
X106812227Y-110804217D01*
X106782043Y-110782288D01*
X106610237Y-110694748D01*
X106559287Y-110678193D01*
X106501612Y-110638755D01*
X106474414Y-110574396D01*
X106486329Y-110505550D01*
X106533573Y-110454074D01*
X106559285Y-110442332D01*
X106610429Y-110425715D01*
X106782302Y-110338141D01*
X106938359Y-110224759D01*
X107074759Y-110088359D01*
X107188141Y-109932302D01*
X107275715Y-109760429D01*
X107335324Y-109576972D01*
X107365500Y-109386449D01*
X107365500Y-109193551D01*
X107335324Y-109003028D01*
X107275715Y-108819571D01*
X107188141Y-108647698D01*
X107074759Y-108491641D01*
X106938359Y-108355241D01*
X106782302Y-108241859D01*
X106610429Y-108154285D01*
X106560093Y-108137929D01*
X106502420Y-108098494D01*
X106475221Y-108034135D01*
X106487135Y-107965289D01*
X106534379Y-107913813D01*
X106560090Y-107902070D01*
X106610429Y-107885715D01*
X106782302Y-107798141D01*
X106938359Y-107684759D01*
X107074759Y-107548359D01*
X107188141Y-107392302D01*
X107275715Y-107220429D01*
X107335324Y-107036972D01*
X107365500Y-106846449D01*
X107365500Y-106653551D01*
X107335324Y-106463028D01*
X107275715Y-106279571D01*
X107188141Y-106107698D01*
X107074759Y-105951641D01*
X106938359Y-105815241D01*
X106782302Y-105701859D01*
X106610429Y-105614285D01*
X106560093Y-105597929D01*
X106502420Y-105558494D01*
X106475221Y-105494135D01*
X106487135Y-105425289D01*
X106534379Y-105373813D01*
X106560090Y-105362070D01*
X106610429Y-105345715D01*
X106782302Y-105258141D01*
X106938359Y-105144759D01*
X107074759Y-105008359D01*
X107188141Y-104852302D01*
X107275715Y-104680429D01*
X107335324Y-104496972D01*
X107365500Y-104306449D01*
X107365500Y-104113551D01*
X107335324Y-103923028D01*
X107275715Y-103739571D01*
X107188141Y-103567698D01*
X107074759Y-103411641D01*
X107074750Y-103411632D01*
X107071595Y-103407937D01*
X107073011Y-103406727D01*
X107043334Y-103352378D01*
X107040500Y-103326020D01*
X107040500Y-88514362D01*
X107060185Y-88447323D01*
X107076819Y-88426681D01*
X108436856Y-87066644D01*
X109803625Y-85699874D01*
X109864946Y-85666391D01*
X109934638Y-85671375D01*
G37*
%TD.AperFunction*%
%TA.AperFunction,Conductor*%
G36*
X122598932Y-91450185D02*
G01*
X122632211Y-91481615D01*
X122747339Y-91640076D01*
X122747343Y-91640081D01*
X122747345Y-91640083D01*
X122919917Y-91812655D01*
X122970588Y-91849470D01*
X122996081Y-91882529D01*
X123759765Y-92646212D01*
X123717708Y-92657482D01*
X123592292Y-92729890D01*
X123489890Y-92832292D01*
X123417482Y-92957708D01*
X123406212Y-92999765D01*
X122671544Y-92265097D01*
X122604319Y-92357626D01*
X122493560Y-92575001D01*
X122418165Y-92807040D01*
X122380000Y-93048006D01*
X122380000Y-93291993D01*
X122418165Y-93532959D01*
X122493560Y-93764998D01*
X122604321Y-93982377D01*
X122711378Y-94129727D01*
X122734858Y-94195533D01*
X122719033Y-94263587D01*
X122676162Y-94308149D01*
X122661344Y-94317289D01*
X122537286Y-94441348D01*
X122445187Y-94590662D01*
X122445186Y-94590664D01*
X122390001Y-94757203D01*
X122390000Y-94757205D01*
X122384801Y-94808102D01*
X122358405Y-94872794D01*
X122301224Y-94912946D01*
X122261443Y-94919500D01*
X120129105Y-94919500D01*
X120064008Y-94901038D01*
X120001524Y-94862497D01*
X119953701Y-94832999D01*
X119953698Y-94832997D01*
X119953697Y-94832997D01*
X119939178Y-94828186D01*
X119792709Y-94779651D01*
X119693346Y-94769500D01*
X118846662Y-94769500D01*
X118846644Y-94769501D01*
X118747292Y-94779650D01*
X118747289Y-94779651D01*
X118586305Y-94832996D01*
X118586298Y-94832999D01*
X118507203Y-94881786D01*
X118475991Y-94901038D01*
X118410895Y-94919500D01*
X117273980Y-94919500D01*
X117206941Y-94899815D01*
X117186299Y-94883181D01*
X117088361Y-94785243D01*
X117088359Y-94785241D01*
X116932302Y-94671859D01*
X116760429Y-94584285D01*
X116710093Y-94567929D01*
X116652420Y-94528494D01*
X116625221Y-94464135D01*
X116637135Y-94395289D01*
X116684379Y-94343813D01*
X116710090Y-94332070D01*
X116760429Y-94315715D01*
X116932302Y-94228141D01*
X117088359Y-94114759D01*
X117224759Y-93978359D01*
X117338141Y-93822302D01*
X117425715Y-93650429D01*
X117485324Y-93466972D01*
X117515500Y-93276449D01*
X117515500Y-93083551D01*
X117485324Y-92893028D01*
X117425715Y-92709571D01*
X117338141Y-92537698D01*
X117224759Y-92381641D01*
X117088359Y-92245241D01*
X116932302Y-92131859D01*
X116760429Y-92044285D01*
X116710093Y-92027929D01*
X116652420Y-91988494D01*
X116625221Y-91924135D01*
X116637135Y-91855289D01*
X116684379Y-91803813D01*
X116710090Y-91792070D01*
X116760429Y-91775715D01*
X116932302Y-91688141D01*
X117088359Y-91574759D01*
X117186299Y-91476819D01*
X117247622Y-91443334D01*
X117273980Y-91440500D01*
X118380895Y-91440500D01*
X118445991Y-91458961D01*
X118517348Y-91502975D01*
X118555508Y-91526513D01*
X118556303Y-91527003D01*
X118717292Y-91580349D01*
X118816655Y-91590500D01*
X119663344Y-91590499D01*
X119663352Y-91590498D01*
X119663355Y-91590498D01*
X119742218Y-91582442D01*
X119762708Y-91580349D01*
X119923697Y-91527003D01*
X119937060Y-91518760D01*
X120050221Y-91448962D01*
X120115318Y-91430500D01*
X122531893Y-91430500D01*
X122598932Y-91450185D01*
G37*
%TD.AperFunction*%
%TA.AperFunction,Conductor*%
G36*
X126859730Y-80520185D02*
G01*
X126880372Y-80536819D01*
X128059301Y-81715748D01*
X127957670Y-81789588D01*
X127779588Y-81967670D01*
X127705748Y-82069301D01*
X126460365Y-80823917D01*
X126460364Y-80823917D01*
X126306010Y-81011999D01*
X126306007Y-81012004D01*
X126123148Y-81285672D01*
X126123137Y-81285690D01*
X125967987Y-81575955D01*
X125967985Y-81575960D01*
X125842025Y-81880053D01*
X125746475Y-82195038D01*
X125746474Y-82195043D01*
X125682261Y-82517860D01*
X125650000Y-82845428D01*
X125650000Y-83174571D01*
X125682261Y-83502139D01*
X125746474Y-83824956D01*
X125746475Y-83824961D01*
X125842025Y-84139946D01*
X125967985Y-84444039D01*
X125967987Y-84444044D01*
X126123137Y-84734309D01*
X126123148Y-84734327D01*
X126306007Y-85007995D01*
X126306010Y-85007999D01*
X126460364Y-85196081D01*
X126460365Y-85196081D01*
X127705748Y-83950698D01*
X127779588Y-84052330D01*
X127957670Y-84230412D01*
X128059300Y-84304251D01*
X126813917Y-85549633D01*
X126813917Y-85549634D01*
X127002000Y-85703989D01*
X127002004Y-85703992D01*
X127275672Y-85886851D01*
X127275690Y-85886862D01*
X127565955Y-86042012D01*
X127565960Y-86042014D01*
X127870053Y-86167974D01*
X128185038Y-86263524D01*
X128185043Y-86263525D01*
X128507860Y-86327738D01*
X128835428Y-86360000D01*
X129164572Y-86360000D01*
X129492139Y-86327738D01*
X129814956Y-86263525D01*
X129814961Y-86263524D01*
X130129946Y-86167974D01*
X130434039Y-86042014D01*
X130434044Y-86042012D01*
X130724309Y-85886862D01*
X130724327Y-85886851D01*
X130998004Y-85703986D01*
X131186081Y-85549635D01*
X131186082Y-85549634D01*
X129940698Y-84304251D01*
X130042330Y-84230412D01*
X130220412Y-84052330D01*
X130294252Y-83950698D01*
X131463181Y-85119627D01*
X131496666Y-85180950D01*
X131499500Y-85207308D01*
X131499500Y-122292691D01*
X131479815Y-122359730D01*
X131463181Y-122380372D01*
X130294251Y-123549301D01*
X130220412Y-123447670D01*
X130042330Y-123269588D01*
X129940697Y-123195747D01*
X131186081Y-121950365D01*
X131186081Y-121950364D01*
X130997999Y-121796010D01*
X130997995Y-121796007D01*
X130724327Y-121613148D01*
X130724309Y-121613137D01*
X130434044Y-121457987D01*
X130434039Y-121457985D01*
X130129946Y-121332025D01*
X129814961Y-121236475D01*
X129814956Y-121236474D01*
X129492139Y-121172261D01*
X129164572Y-121140000D01*
X128835428Y-121140000D01*
X128507860Y-121172261D01*
X128185043Y-121236474D01*
X128185038Y-121236475D01*
X127870053Y-121332025D01*
X127565960Y-121457985D01*
X127565955Y-121457987D01*
X127275690Y-121613137D01*
X127275672Y-121613148D01*
X127002004Y-121796007D01*
X127001999Y-121796010D01*
X126813917Y-121950364D01*
X126813917Y-121950365D01*
X128059301Y-123195748D01*
X127957670Y-123269588D01*
X127779588Y-123447670D01*
X127705748Y-123549301D01*
X126460365Y-122303917D01*
X126460364Y-122303917D01*
X126306010Y-122491999D01*
X126306007Y-122492004D01*
X126123148Y-122765672D01*
X126123137Y-122765690D01*
X125967987Y-123055955D01*
X125967985Y-123055960D01*
X125842025Y-123360053D01*
X125746475Y-123675038D01*
X125746474Y-123675043D01*
X125682261Y-123997860D01*
X125650000Y-124325428D01*
X125650000Y-124654571D01*
X125682261Y-124982139D01*
X125746474Y-125304956D01*
X125746475Y-125304961D01*
X125842025Y-125619946D01*
X125967985Y-125924039D01*
X125967987Y-125924044D01*
X126123137Y-126214309D01*
X126123148Y-126214327D01*
X126306007Y-126487995D01*
X126306010Y-126487999D01*
X126460364Y-126676081D01*
X126460365Y-126676081D01*
X127705748Y-125430698D01*
X127779588Y-125532330D01*
X127957670Y-125710412D01*
X128059301Y-125784251D01*
X126880372Y-126963181D01*
X126819049Y-126996666D01*
X126792691Y-126999500D01*
X81409500Y-126999500D01*
X81342461Y-126979815D01*
X81296706Y-126927011D01*
X81285500Y-126875500D01*
X81285500Y-122084010D01*
X81285500Y-122084000D01*
X81273947Y-121976544D01*
X81262741Y-121925033D01*
X81262637Y-121924722D01*
X81228616Y-121822502D01*
X81228613Y-121822496D01*
X81150828Y-121701462D01*
X81150825Y-121701457D01*
X81150820Y-121701451D01*
X81105076Y-121648659D01*
X81105072Y-121648656D01*
X81105070Y-121648653D01*
X80996336Y-121554433D01*
X80996333Y-121554431D01*
X80996331Y-121554430D01*
X80865465Y-121494664D01*
X80865460Y-121494662D01*
X80865459Y-121494662D01*
X80798420Y-121474977D01*
X80798422Y-121474977D01*
X80798417Y-121474976D01*
X80750944Y-121468150D01*
X80656000Y-121454500D01*
X80655998Y-121454500D01*
X76319004Y-121454500D01*
X76251965Y-121434815D01*
X76206210Y-121382011D01*
X76195004Y-121330598D01*
X76193163Y-118993034D01*
X76182543Y-118890358D01*
X76172271Y-118841040D01*
X76141018Y-118742668D01*
X76141015Y-118742662D01*
X76065486Y-118620212D01*
X76065481Y-118620206D01*
X76027446Y-118574632D01*
X76027442Y-118574628D01*
X76020714Y-118566567D01*
X76020709Y-118566562D01*
X75937982Y-118492155D01*
X76730000Y-118492155D01*
X76730000Y-119290000D01*
X77796988Y-119290000D01*
X77764075Y-119347007D01*
X77730000Y-119474174D01*
X77730000Y-119605826D01*
X77764075Y-119732993D01*
X77796988Y-119790000D01*
X76730000Y-119790000D01*
X76730000Y-120587844D01*
X76736401Y-120647372D01*
X76736403Y-120647379D01*
X76786645Y-120782086D01*
X76786649Y-120782093D01*
X76872809Y-120897187D01*
X76872812Y-120897190D01*
X76987906Y-120983350D01*
X76987913Y-120983354D01*
X77122620Y-121033596D01*
X77122627Y-121033598D01*
X77182155Y-121039999D01*
X77182172Y-121040000D01*
X77980000Y-121040000D01*
X77980000Y-119973012D01*
X78037007Y-120005925D01*
X78164174Y-120040000D01*
X78295826Y-120040000D01*
X78422993Y-120005925D01*
X78480000Y-119973012D01*
X78480000Y-121040000D01*
X79277828Y-121040000D01*
X79277844Y-121039999D01*
X79337372Y-121033598D01*
X79337379Y-121033596D01*
X79472086Y-120983354D01*
X79472093Y-120983350D01*
X79587187Y-120897190D01*
X79587190Y-120897187D01*
X79673350Y-120782093D01*
X79673354Y-120782086D01*
X79723596Y-120647379D01*
X79723598Y-120647372D01*
X79729999Y-120587844D01*
X79730000Y-120587827D01*
X79730000Y-119790000D01*
X78663012Y-119790000D01*
X78695925Y-119732993D01*
X78730000Y-119605826D01*
X78730000Y-119474174D01*
X78695925Y-119347007D01*
X78663012Y-119290000D01*
X79730000Y-119290000D01*
X79730000Y-118492172D01*
X79729999Y-118492155D01*
X79723598Y-118432627D01*
X79723596Y-118432620D01*
X79673354Y-118297913D01*
X79673350Y-118297906D01*
X79587190Y-118182812D01*
X79587187Y-118182809D01*
X79472093Y-118096649D01*
X79472086Y-118096645D01*
X79337379Y-118046403D01*
X79337372Y-118046401D01*
X79277844Y-118040000D01*
X78480000Y-118040000D01*
X78480000Y-119106988D01*
X78422993Y-119074075D01*
X78295826Y-119040000D01*
X78164174Y-119040000D01*
X78037007Y-119074075D01*
X77980000Y-119106988D01*
X77980000Y-118040000D01*
X77182155Y-118040000D01*
X77122627Y-118046401D01*
X77122620Y-118046403D01*
X76987913Y-118096645D01*
X76987906Y-118096649D01*
X76872812Y-118182809D01*
X76872809Y-118182812D01*
X76786649Y-118297906D01*
X76786645Y-118297913D01*
X76736403Y-118432620D01*
X76736401Y-118432627D01*
X76730000Y-118492155D01*
X75937982Y-118492155D01*
X75917732Y-118473942D01*
X75917231Y-118473482D01*
X75899495Y-118444072D01*
X75881472Y-118414853D01*
X75881407Y-118414079D01*
X75881149Y-118413650D01*
X75881206Y-118411644D01*
X75877717Y-118369525D01*
X75885500Y-118293345D01*
X75885499Y-117746656D01*
X75879954Y-117692377D01*
X75875349Y-117647292D01*
X75875348Y-117647289D01*
X75870158Y-117631627D01*
X75822003Y-117486303D01*
X75821999Y-117486297D01*
X75821998Y-117486294D01*
X75732970Y-117341959D01*
X75732967Y-117341955D01*
X75723692Y-117332680D01*
X75690207Y-117271357D01*
X75695191Y-117201665D01*
X75723694Y-117157317D01*
X75732968Y-117148044D01*
X75822003Y-117003697D01*
X75875349Y-116842708D01*
X75885500Y-116743345D01*
X75885499Y-116196656D01*
X75876898Y-116112460D01*
X75889667Y-116043770D01*
X75933137Y-115995596D01*
X75943843Y-115988705D01*
X75996611Y-115942908D01*
X75996612Y-115942905D01*
X75996615Y-115942904D01*
X76090742Y-115834101D01*
X76090744Y-115834099D01*
X76150411Y-115703174D01*
X76166920Y-115646783D01*
X76169433Y-115640387D01*
X76170043Y-115636118D01*
X76170044Y-115636118D01*
X76190408Y-115493686D01*
X76188698Y-113321859D01*
X76188423Y-112971303D01*
X82929500Y-112971303D01*
X82929500Y-113148696D01*
X82964103Y-113322658D01*
X82964105Y-113322666D01*
X83031988Y-113486548D01*
X83130534Y-113634034D01*
X83130540Y-113634041D01*
X83255958Y-113759459D01*
X83255965Y-113759465D01*
X83403451Y-113858011D01*
X83403452Y-113858011D01*
X83403453Y-113858012D01*
X83567334Y-113925895D01*
X83567337Y-113925895D01*
X83567338Y-113925896D01*
X83571361Y-113927117D01*
X83629798Y-113965417D01*
X83658252Y-114029230D01*
X83647689Y-114098297D01*
X83623042Y-114133457D01*
X83180540Y-114575958D01*
X83180537Y-114575961D01*
X83149451Y-114622485D01*
X83149445Y-114622494D01*
X83146796Y-114626460D01*
X83081987Y-114723453D01*
X83054837Y-114788999D01*
X83052001Y-114795844D01*
X83051999Y-114795849D01*
X83014106Y-114887331D01*
X83014103Y-114887341D01*
X82987449Y-115021343D01*
X82979500Y-115061304D01*
X82979500Y-118673695D01*
X83014103Y-118847658D01*
X83014106Y-118847667D01*
X83081983Y-119011540D01*
X83081990Y-119011553D01*
X83180535Y-119159034D01*
X83180538Y-119159038D01*
X83305961Y-119284461D01*
X83305965Y-119284464D01*
X83453446Y-119383009D01*
X83453459Y-119383016D01*
X83563791Y-119428716D01*
X83617334Y-119450894D01*
X83617336Y-119450894D01*
X83617341Y-119450896D01*
X83791304Y-119485499D01*
X83791307Y-119485500D01*
X83791309Y-119485500D01*
X83968693Y-119485500D01*
X83968694Y-119485499D01*
X84026682Y-119473964D01*
X84142658Y-119450896D01*
X84142661Y-119450894D01*
X84142666Y-119450894D01*
X84306547Y-119383013D01*
X84454035Y-119284464D01*
X84454038Y-119284461D01*
X84477502Y-119260998D01*
X84579461Y-119159038D01*
X84579464Y-119159035D01*
X84678013Y-119011547D01*
X84685683Y-118993031D01*
X84728204Y-118890374D01*
X84745894Y-118847666D01*
X84753845Y-118807697D01*
X84780499Y-118673695D01*
X84780500Y-118673693D01*
X84780500Y-115574362D01*
X84800185Y-115507323D01*
X84816819Y-115486681D01*
X86435681Y-113867819D01*
X86497004Y-113834334D01*
X86523362Y-113831500D01*
X87827371Y-113831500D01*
X87894410Y-113851185D01*
X87940165Y-113903989D01*
X87950109Y-113973147D01*
X87947127Y-113984831D01*
X87947693Y-113984965D01*
X87945908Y-113992516D01*
X87939501Y-114052116D01*
X87939501Y-114052123D01*
X87939500Y-114052135D01*
X87939500Y-115747870D01*
X87939501Y-115747876D01*
X87945908Y-115807483D01*
X87996202Y-115942328D01*
X87996203Y-115942329D01*
X87996204Y-115942331D01*
X88082454Y-116057546D01*
X88090980Y-116063928D01*
X88132850Y-116119861D01*
X88137834Y-116189552D01*
X88127153Y-116219489D01*
X88034781Y-116400776D01*
X87971522Y-116595465D01*
X87939500Y-116797648D01*
X87939500Y-117002351D01*
X87971522Y-117204534D01*
X88034781Y-117399223D01*
X88092043Y-117511604D01*
X88112646Y-117552040D01*
X88127715Y-117581613D01*
X88248028Y-117747213D01*
X88392786Y-117891971D01*
X88526737Y-117989290D01*
X88558390Y-118012287D01*
X88674607Y-118071503D01*
X88740776Y-118105218D01*
X88740778Y-118105218D01*
X88740781Y-118105220D01*
X88803363Y-118125554D01*
X88935465Y-118168477D01*
X89025953Y-118182809D01*
X89137648Y-118200500D01*
X89137649Y-118200500D01*
X89342351Y-118200500D01*
X89342352Y-118200500D01*
X89544534Y-118168477D01*
X89739219Y-118105220D01*
X89921610Y-118012287D01*
X90027731Y-117935186D01*
X90087213Y-117891971D01*
X90087215Y-117891968D01*
X90087219Y-117891966D01*
X90231966Y-117747219D01*
X90231968Y-117747215D01*
X90231971Y-117747213D01*
X90292259Y-117664232D01*
X90352287Y-117581610D01*
X90445220Y-117399219D01*
X90508477Y-117204534D01*
X90540500Y-117002352D01*
X90540500Y-116797648D01*
X90508477Y-116595466D01*
X90500175Y-116569916D01*
X90457927Y-116439890D01*
X90445220Y-116400781D01*
X90445218Y-116400778D01*
X90445218Y-116400776D01*
X90352847Y-116219489D01*
X90339951Y-116150820D01*
X90366227Y-116086079D01*
X90389026Y-116063924D01*
X90397545Y-116057547D01*
X90407583Y-116044138D01*
X90483796Y-115942331D01*
X90534091Y-115807483D01*
X90540500Y-115747873D01*
X90540499Y-114052128D01*
X90534091Y-113992517D01*
X90534090Y-113992515D01*
X90534090Y-113992512D01*
X90532308Y-113984969D01*
X90535401Y-113984237D01*
X90531465Y-113929133D01*
X90564954Y-113867812D01*
X90626280Y-113834332D01*
X90652629Y-113831500D01*
X95666638Y-113831500D01*
X95733677Y-113851185D01*
X95754319Y-113867819D01*
X96304500Y-114417999D01*
X96830536Y-114944035D01*
X96898803Y-115012302D01*
X96955966Y-115069465D01*
X97103449Y-115168011D01*
X97103451Y-115168011D01*
X97103453Y-115168013D01*
X97243571Y-115226051D01*
X97243572Y-115226052D01*
X97267329Y-115235892D01*
X97267334Y-115235894D01*
X97267338Y-115235894D01*
X97267339Y-115235895D01*
X97441305Y-115270500D01*
X97441308Y-115270500D01*
X97441309Y-115270500D01*
X105256020Y-115270500D01*
X105323059Y-115290185D01*
X105337643Y-115301938D01*
X105337937Y-115301595D01*
X105341632Y-115304750D01*
X105341641Y-115304759D01*
X105497698Y-115418141D01*
X105669571Y-115505715D01*
X105720712Y-115522331D01*
X105778386Y-115561768D01*
X105805585Y-115626127D01*
X105793670Y-115694973D01*
X105746426Y-115746449D01*
X105720712Y-115758193D01*
X105669762Y-115774748D01*
X105497955Y-115862288D01*
X105497950Y-115862292D01*
X105467771Y-115884216D01*
X105467771Y-115884219D01*
X106071828Y-116488274D01*
X105975956Y-116513963D01*
X105879044Y-116569916D01*
X105799916Y-116649044D01*
X105743963Y-116745956D01*
X105718274Y-116841827D01*
X105114219Y-116237771D01*
X105114216Y-116237771D01*
X105092292Y-116267950D01*
X105092288Y-116267955D01*
X105004747Y-116439762D01*
X105004746Y-116439765D01*
X104945164Y-116623143D01*
X104915000Y-116813590D01*
X104915000Y-117006409D01*
X104945164Y-117196856D01*
X105004746Y-117380234D01*
X105004747Y-117380237D01*
X105092288Y-117552043D01*
X105114217Y-117582227D01*
X105114218Y-117582227D01*
X105718274Y-116978171D01*
X105743963Y-117074044D01*
X105799916Y-117170956D01*
X105879044Y-117250084D01*
X105975956Y-117306037D01*
X106071827Y-117331725D01*
X105467771Y-117935780D01*
X105467771Y-117935781D01*
X105497957Y-117957712D01*
X105669762Y-118045252D01*
X105669768Y-118045254D01*
X105720710Y-118061806D01*
X105778386Y-118101243D01*
X105805585Y-118165601D01*
X105793671Y-118234448D01*
X105746427Y-118285924D01*
X105720713Y-118297667D01*
X105669570Y-118314284D01*
X105497697Y-118401859D01*
X105435070Y-118447361D01*
X105341641Y-118515241D01*
X105341639Y-118515243D01*
X105341638Y-118515243D01*
X105205243Y-118651638D01*
X105205243Y-118651639D01*
X105205241Y-118651641D01*
X105189218Y-118673695D01*
X105091859Y-118807697D01*
X105004286Y-118979568D01*
X104944675Y-119163030D01*
X104914500Y-119353551D01*
X104914500Y-119546448D01*
X104944675Y-119736969D01*
X104944676Y-119736972D01*
X105004285Y-119920429D01*
X105091859Y-120092302D01*
X105205241Y-120248359D01*
X105341641Y-120384759D01*
X105497698Y-120498141D01*
X105560256Y-120530016D01*
X105611051Y-120577989D01*
X105627846Y-120645810D01*
X105605309Y-120711945D01*
X105550594Y-120755397D01*
X105503961Y-120764500D01*
X105367130Y-120764500D01*
X105367123Y-120764501D01*
X105307516Y-120770908D01*
X105172671Y-120821202D01*
X105172664Y-120821206D01*
X105057455Y-120907452D01*
X105057452Y-120907455D01*
X104971206Y-121022664D01*
X104971202Y-121022671D01*
X104920908Y-121157517D01*
X104914501Y-121217116D01*
X104914501Y-121217123D01*
X104914500Y-121217135D01*
X104914500Y-122762870D01*
X104914501Y-122762876D01*
X104920908Y-122822483D01*
X104971202Y-122957328D01*
X104971206Y-122957335D01*
X105057452Y-123072544D01*
X105057455Y-123072547D01*
X105172664Y-123158793D01*
X105172671Y-123158797D01*
X105307517Y-123209091D01*
X105307516Y-123209091D01*
X105314444Y-123209835D01*
X105367127Y-123215500D01*
X106912872Y-123215499D01*
X106972483Y-123209091D01*
X107107331Y-123158796D01*
X107222546Y-123072546D01*
X107308796Y-122957331D01*
X107359091Y-122822483D01*
X107365500Y-122762873D01*
X107365499Y-121976549D01*
X107365499Y-121217129D01*
X107365498Y-121217123D01*
X107365497Y-121217116D01*
X107359091Y-121157517D01*
X107316822Y-121044189D01*
X107308797Y-121022671D01*
X107308793Y-121022664D01*
X107222547Y-120907455D01*
X107222544Y-120907452D01*
X107107335Y-120821206D01*
X107107328Y-120821202D01*
X106972482Y-120770908D01*
X106972483Y-120770908D01*
X106912883Y-120764501D01*
X106912881Y-120764500D01*
X106912873Y-120764500D01*
X106912865Y-120764500D01*
X106776040Y-120764500D01*
X106709001Y-120744815D01*
X106663246Y-120692011D01*
X106653302Y-120622853D01*
X106682327Y-120559297D01*
X106719743Y-120530016D01*
X106782302Y-120498141D01*
X106938359Y-120384759D01*
X107074759Y-120248359D01*
X107188141Y-120092302D01*
X107275715Y-119920429D01*
X107335324Y-119736972D01*
X107365500Y-119546449D01*
X107365500Y-119353551D01*
X107335324Y-119163028D01*
X107275715Y-118979571D01*
X107188141Y-118807698D01*
X107074759Y-118651641D01*
X106938359Y-118515241D01*
X106782302Y-118401859D01*
X106764342Y-118392708D01*
X106610432Y-118314286D01*
X106602652Y-118311758D01*
X106559286Y-118297667D01*
X106501612Y-118258230D01*
X106474414Y-118193871D01*
X106486329Y-118125024D01*
X106533574Y-118073549D01*
X106559289Y-118061806D01*
X106610231Y-118045254D01*
X106610237Y-118045252D01*
X106782040Y-117957713D01*
X106812227Y-117935780D01*
X106812228Y-117935780D01*
X106208173Y-117331725D01*
X106304044Y-117306037D01*
X106400956Y-117250084D01*
X106480084Y-117170956D01*
X106536037Y-117074044D01*
X106561725Y-116978172D01*
X107165780Y-117582228D01*
X107165780Y-117582227D01*
X107187713Y-117552040D01*
X107275252Y-117380237D01*
X107275253Y-117380234D01*
X107334835Y-117196856D01*
X107365000Y-117006409D01*
X107365000Y-116813592D01*
X107360361Y-116784305D01*
X107360361Y-116784304D01*
X107358060Y-116769778D01*
X109909500Y-116769778D01*
X109909500Y-116990221D01*
X109943985Y-117207952D01*
X110012103Y-117417603D01*
X110012104Y-117417606D01*
X110047108Y-117486303D01*
X110095984Y-117582227D01*
X110112187Y-117614025D01*
X110241752Y-117792358D01*
X110241756Y-117792363D01*
X110377360Y-117927967D01*
X110410845Y-117989290D01*
X110405861Y-118058982D01*
X110363989Y-118114915D01*
X110347097Y-118125554D01*
X110334249Y-118132265D01*
X110184428Y-118254428D01*
X110062265Y-118404250D01*
X109972762Y-118575594D01*
X109919582Y-118761451D01*
X109909500Y-118874863D01*
X109909500Y-119885136D01*
X109919582Y-119998548D01*
X109972762Y-120184405D01*
X110029152Y-120292358D01*
X110062266Y-120355751D01*
X110085917Y-120384756D01*
X110184428Y-120505571D01*
X110225837Y-120539335D01*
X110334249Y-120627734D01*
X110505594Y-120717237D01*
X110691448Y-120770417D01*
X110804862Y-120780500D01*
X110804870Y-120780500D01*
X111815130Y-120780500D01*
X111815138Y-120780500D01*
X111928552Y-120770417D01*
X112114406Y-120717237D01*
X112285751Y-120627734D01*
X112435571Y-120505571D01*
X112557734Y-120355751D01*
X112564442Y-120342910D01*
X112612928Y-120292602D01*
X112680915Y-120276494D01*
X112746819Y-120299700D01*
X112762032Y-120312639D01*
X112897636Y-120448243D01*
X112897641Y-120448247D01*
X113023017Y-120539337D01*
X113075978Y-120577815D01*
X113173949Y-120627734D01*
X113272393Y-120677895D01*
X113272396Y-120677896D01*
X113305510Y-120688655D01*
X113482049Y-120746015D01*
X113699778Y-120780500D01*
X113699779Y-120780500D01*
X113920221Y-120780500D01*
X113920222Y-120780500D01*
X114137951Y-120746015D01*
X114347606Y-120677895D01*
X114544022Y-120577815D01*
X114722365Y-120448242D01*
X114878242Y-120292365D01*
X114959682Y-120180270D01*
X115015011Y-120137606D01*
X115084624Y-120131627D01*
X115146420Y-120164232D01*
X115160313Y-120180265D01*
X115225515Y-120270008D01*
X115241758Y-120292365D01*
X115397636Y-120448243D01*
X115397641Y-120448247D01*
X115523017Y-120539337D01*
X115575978Y-120577815D01*
X115673949Y-120627734D01*
X115772393Y-120677895D01*
X115772396Y-120677896D01*
X115805510Y-120688655D01*
X115982049Y-120746015D01*
X116199778Y-120780500D01*
X116199779Y-120780500D01*
X116420221Y-120780500D01*
X116420222Y-120780500D01*
X116637951Y-120746015D01*
X116847606Y-120677895D01*
X117044022Y-120577815D01*
X117222365Y-120448242D01*
X117378242Y-120292365D01*
X117507815Y-120114022D01*
X117607895Y-119917606D01*
X117676015Y-119707951D01*
X117710500Y-119490222D01*
X117710500Y-119269778D01*
X117702854Y-119221507D01*
X117711808Y-119152217D01*
X117737643Y-119114433D01*
X118206099Y-118645978D01*
X118372924Y-118479154D01*
X118981786Y-117870292D01*
X118981786Y-117870291D01*
X118981789Y-117870289D01*
X119069394Y-117739179D01*
X119129737Y-117593497D01*
X119160500Y-117438842D01*
X119160500Y-117281158D01*
X119160500Y-114217973D01*
X122369500Y-114217973D01*
X122369500Y-114462027D01*
X122381021Y-114534769D01*
X122400376Y-114656972D01*
X122407679Y-114703076D01*
X122483096Y-114935185D01*
X122551514Y-115069464D01*
X122593896Y-115152642D01*
X122737339Y-115350076D01*
X122737343Y-115350081D01*
X122737345Y-115350083D01*
X122909917Y-115522655D01*
X122960588Y-115559470D01*
X122986081Y-115592529D01*
X123749765Y-116356212D01*
X123707708Y-116367482D01*
X123582292Y-116439890D01*
X123479890Y-116542292D01*
X123407482Y-116667708D01*
X123396212Y-116709765D01*
X122661544Y-115975097D01*
X122594319Y-116067626D01*
X122483560Y-116285001D01*
X122408165Y-116517040D01*
X122370000Y-116758006D01*
X122370000Y-117001993D01*
X122408165Y-117242959D01*
X122483560Y-117474998D01*
X122594321Y-117692377D01*
X122701378Y-117839727D01*
X122724858Y-117905533D01*
X122709033Y-117973587D01*
X122666162Y-118018149D01*
X122651344Y-118027289D01*
X122527286Y-118151348D01*
X122435187Y-118300662D01*
X122435186Y-118300664D01*
X122380001Y-118467203D01*
X122380000Y-118467204D01*
X122369500Y-118569984D01*
X122369500Y-120270015D01*
X122380000Y-120372795D01*
X122380001Y-120372796D01*
X122435186Y-120539335D01*
X122435187Y-120539337D01*
X122527286Y-120688651D01*
X122527289Y-120688655D01*
X122651344Y-120812710D01*
X122651348Y-120812713D01*
X122800662Y-120904812D01*
X122800664Y-120904813D01*
X122800666Y-120904814D01*
X122967203Y-120959999D01*
X123069992Y-120970500D01*
X123069997Y-120970500D01*
X124770003Y-120970500D01*
X124770008Y-120970500D01*
X124872797Y-120959999D01*
X125039334Y-120904814D01*
X125188655Y-120812711D01*
X125312711Y-120688655D01*
X125404814Y-120539334D01*
X125459999Y-120372797D01*
X125470500Y-120270008D01*
X125470500Y-118569992D01*
X125459999Y-118467203D01*
X125404814Y-118300666D01*
X125402964Y-118297667D01*
X125312713Y-118151348D01*
X125312710Y-118151344D01*
X125188654Y-118027288D01*
X125173843Y-118018153D01*
X125127118Y-117966206D01*
X125115895Y-117897243D01*
X125138621Y-117839728D01*
X125245678Y-117692377D01*
X125356439Y-117474998D01*
X125431834Y-117242959D01*
X125470000Y-117001993D01*
X125470000Y-116758006D01*
X125431834Y-116517040D01*
X125356439Y-116285001D01*
X125245676Y-116067619D01*
X125178456Y-115975097D01*
X125178454Y-115975096D01*
X124443787Y-116709764D01*
X124432518Y-116667708D01*
X124360110Y-116542292D01*
X124257708Y-116439890D01*
X124132292Y-116367482D01*
X124090232Y-116356212D01*
X124842437Y-115604009D01*
X124843039Y-115601145D01*
X124879408Y-115559472D01*
X124930083Y-115522655D01*
X125102655Y-115350083D01*
X125246106Y-115152639D01*
X125356904Y-114935185D01*
X125432321Y-114703076D01*
X125470500Y-114462027D01*
X125470500Y-114217973D01*
X125432321Y-113976924D01*
X125356904Y-113744815D01*
X125246106Y-113527361D01*
X125181476Y-113438405D01*
X125102660Y-113329923D01*
X125102656Y-113329918D01*
X124930081Y-113157343D01*
X124930076Y-113157339D01*
X124879410Y-113120528D01*
X124853919Y-113087471D01*
X124090234Y-112323787D01*
X124132292Y-112312518D01*
X124257708Y-112240110D01*
X124360110Y-112137708D01*
X124432518Y-112012292D01*
X124443787Y-111970235D01*
X125178454Y-112704902D01*
X125178454Y-112704901D01*
X125245678Y-112612377D01*
X125356439Y-112394998D01*
X125431834Y-112162959D01*
X125470000Y-111921993D01*
X125470000Y-111678006D01*
X125431834Y-111437040D01*
X125356439Y-111205001D01*
X125245676Y-110987619D01*
X125178456Y-110895097D01*
X125178454Y-110895096D01*
X124443787Y-111629764D01*
X124432518Y-111587708D01*
X124360110Y-111462292D01*
X124257708Y-111359890D01*
X124132292Y-111287482D01*
X124090233Y-111276212D01*
X124824902Y-110541544D01*
X124824901Y-110541543D01*
X124732380Y-110474323D01*
X124514998Y-110363560D01*
X124282959Y-110288165D01*
X124041993Y-110250000D01*
X123798007Y-110250000D01*
X123557040Y-110288165D01*
X123325001Y-110363560D01*
X123107626Y-110474319D01*
X123015097Y-110541544D01*
X123749766Y-111276212D01*
X123707708Y-111287482D01*
X123582292Y-111359890D01*
X123479890Y-111462292D01*
X123407482Y-111587708D01*
X123396212Y-111629765D01*
X122661544Y-110895097D01*
X122594319Y-110987626D01*
X122483560Y-111205001D01*
X122408165Y-111437040D01*
X122370000Y-111678006D01*
X122370000Y-111921993D01*
X122408165Y-112162959D01*
X122483560Y-112394998D01*
X122594323Y-112612380D01*
X122661543Y-112704901D01*
X122661544Y-112704902D01*
X123396212Y-111970234D01*
X123407482Y-112012292D01*
X123479890Y-112137708D01*
X123582292Y-112240110D01*
X123707708Y-112312518D01*
X123749765Y-112323787D01*
X122997556Y-113075994D01*
X122996953Y-113078866D01*
X122960590Y-113120528D01*
X122909917Y-113157344D01*
X122737343Y-113329918D01*
X122737339Y-113329923D01*
X122593896Y-113527357D01*
X122483097Y-113744812D01*
X122407678Y-113976927D01*
X122388455Y-114098297D01*
X122369500Y-114217973D01*
X119160500Y-114217973D01*
X119160500Y-102791158D01*
X119160500Y-102791155D01*
X119160499Y-102791153D01*
X119155100Y-102764013D01*
X119129737Y-102636503D01*
X119098732Y-102561650D01*
X119069397Y-102490827D01*
X119069390Y-102490814D01*
X118981790Y-102359712D01*
X118933360Y-102311282D01*
X118870289Y-102248211D01*
X117551818Y-100929740D01*
X117518333Y-100868417D01*
X117515499Y-100842059D01*
X117515499Y-100027129D01*
X117515498Y-100027123D01*
X117514424Y-100017135D01*
X117509412Y-99970499D01*
X117509091Y-99967516D01*
X117458797Y-99832671D01*
X117458793Y-99832664D01*
X117372547Y-99717455D01*
X117372544Y-99717452D01*
X117257335Y-99631206D01*
X117257328Y-99631202D01*
X117122482Y-99580908D01*
X117122483Y-99580908D01*
X117062883Y-99574501D01*
X117062881Y-99574500D01*
X117062873Y-99574500D01*
X117062865Y-99574500D01*
X116926040Y-99574500D01*
X116859001Y-99554815D01*
X116813246Y-99502011D01*
X116803302Y-99432853D01*
X116832327Y-99369297D01*
X116869743Y-99340016D01*
X116932302Y-99308141D01*
X117088359Y-99194759D01*
X117224759Y-99058359D01*
X117338141Y-98902302D01*
X117417451Y-98746647D01*
X118169500Y-98746647D01*
X118169500Y-99293337D01*
X118169501Y-99293355D01*
X118179650Y-99392707D01*
X118179651Y-99392710D01*
X118232996Y-99553694D01*
X118233001Y-99553705D01*
X118322029Y-99698040D01*
X118322032Y-99698044D01*
X118441955Y-99817967D01*
X118441959Y-99817970D01*
X118586294Y-99906998D01*
X118586297Y-99906999D01*
X118586303Y-99907003D01*
X118747292Y-99960349D01*
X118846655Y-99970500D01*
X119693344Y-99970499D01*
X119693352Y-99970498D01*
X119693355Y-99970498D01*
X119747760Y-99964940D01*
X119792708Y-99960349D01*
X119953697Y-99907003D01*
X120064008Y-99838961D01*
X120129105Y-99820500D01*
X120689318Y-99820500D01*
X120754415Y-99838961D01*
X120756648Y-99840338D01*
X120756650Y-99840340D01*
X120903484Y-99930908D01*
X121067247Y-99985174D01*
X121168323Y-99995500D01*
X121766676Y-99995499D01*
X121766684Y-99995498D01*
X121766687Y-99995498D01*
X121822030Y-99989844D01*
X121867753Y-99985174D01*
X122031516Y-99930908D01*
X122178350Y-99840340D01*
X122292675Y-99726014D01*
X122353994Y-99692532D01*
X122423686Y-99697516D01*
X122468034Y-99726017D01*
X122581961Y-99839944D01*
X122581965Y-99839947D01*
X122728688Y-99930448D01*
X122728699Y-99930453D01*
X122892347Y-99984680D01*
X122993351Y-99994999D01*
X123542500Y-99994999D01*
X123591640Y-99994999D01*
X123591654Y-99994998D01*
X123692652Y-99984680D01*
X123856300Y-99930453D01*
X123856311Y-99930448D01*
X124003034Y-99839947D01*
X124003038Y-99839944D01*
X124124944Y-99718038D01*
X124124947Y-99718034D01*
X124215448Y-99571311D01*
X124215453Y-99571300D01*
X124269680Y-99407652D01*
X124279999Y-99306654D01*
X124280000Y-99306641D01*
X124280000Y-99270000D01*
X123542500Y-99270000D01*
X123542500Y-99994999D01*
X122993351Y-99994999D01*
X123042499Y-99994998D01*
X123042500Y-99994998D01*
X123042500Y-98770000D01*
X123542500Y-98770000D01*
X124279999Y-98770000D01*
X124279999Y-98733360D01*
X124279998Y-98733345D01*
X124269680Y-98632347D01*
X124215453Y-98468699D01*
X124215448Y-98468688D01*
X124124947Y-98321965D01*
X124124944Y-98321961D01*
X124003038Y-98200055D01*
X124003034Y-98200052D01*
X123856311Y-98109551D01*
X123856300Y-98109546D01*
X123692652Y-98055319D01*
X123591654Y-98045000D01*
X123542500Y-98045000D01*
X123542500Y-98770000D01*
X123042500Y-98770000D01*
X123042500Y-98045000D01*
X123042499Y-98044999D01*
X122993361Y-98045000D01*
X122993343Y-98045001D01*
X122892347Y-98055319D01*
X122728699Y-98109546D01*
X122728688Y-98109551D01*
X122581965Y-98200052D01*
X122468034Y-98313983D01*
X122406711Y-98347467D01*
X122337019Y-98342483D01*
X122292672Y-98313982D01*
X122178351Y-98199661D01*
X122178350Y-98199660D01*
X122070279Y-98133001D01*
X122031518Y-98109093D01*
X122031513Y-98109091D01*
X121986608Y-98094211D01*
X121867753Y-98054826D01*
X121867751Y-98054825D01*
X121766678Y-98044500D01*
X121168330Y-98044500D01*
X121168312Y-98044501D01*
X121067247Y-98054825D01*
X120903484Y-98109092D01*
X120903481Y-98109093D01*
X120815192Y-98163551D01*
X120756650Y-98199660D01*
X120756648Y-98199661D01*
X120754415Y-98201039D01*
X120689318Y-98219500D01*
X120129105Y-98219500D01*
X120064008Y-98201038D01*
X119977450Y-98147648D01*
X119953701Y-98132999D01*
X119953698Y-98132997D01*
X119953697Y-98132997D01*
X119895891Y-98113842D01*
X119792709Y-98079651D01*
X119693346Y-98069500D01*
X118846662Y-98069500D01*
X118846644Y-98069501D01*
X118747292Y-98079650D01*
X118747289Y-98079651D01*
X118586305Y-98132996D01*
X118586294Y-98133001D01*
X118441959Y-98222029D01*
X118441955Y-98222032D01*
X118322032Y-98341955D01*
X118322029Y-98341959D01*
X118233001Y-98486294D01*
X118232996Y-98486305D01*
X118179651Y-98647290D01*
X118169500Y-98746647D01*
X117417451Y-98746647D01*
X117425715Y-98730429D01*
X117485324Y-98546972D01*
X117515500Y-98356449D01*
X117515500Y-98163551D01*
X117485324Y-97973028D01*
X117425715Y-97789571D01*
X117338141Y-97617698D01*
X117224759Y-97461641D01*
X117088359Y-97325241D01*
X116932302Y-97211859D01*
X116760429Y-97124285D01*
X116710093Y-97107929D01*
X116652420Y-97068494D01*
X116625221Y-97004135D01*
X116637135Y-96935289D01*
X116684379Y-96883813D01*
X116710090Y-96872070D01*
X116760429Y-96855715D01*
X116932302Y-96768141D01*
X117088359Y-96654759D01*
X117186299Y-96556819D01*
X117247622Y-96523334D01*
X117273980Y-96520500D01*
X118410895Y-96520500D01*
X118475991Y-96538961D01*
X118586303Y-96607003D01*
X118747292Y-96660349D01*
X118846655Y-96670500D01*
X119693344Y-96670499D01*
X119693352Y-96670498D01*
X119693355Y-96670498D01*
X119768743Y-96662797D01*
X119792708Y-96660349D01*
X119953697Y-96607003D01*
X120064008Y-96538961D01*
X120129105Y-96520500D01*
X122263486Y-96520500D01*
X122330525Y-96540185D01*
X122376280Y-96592989D01*
X122386844Y-96631897D01*
X122390000Y-96662794D01*
X122390000Y-96662795D01*
X122390001Y-96662797D01*
X122413257Y-96732980D01*
X122445186Y-96829335D01*
X122445187Y-96829337D01*
X122537286Y-96978651D01*
X122537289Y-96978655D01*
X122661344Y-97102710D01*
X122661348Y-97102713D01*
X122810662Y-97194812D01*
X122810664Y-97194813D01*
X122810666Y-97194814D01*
X122977203Y-97249999D01*
X123079992Y-97260500D01*
X123079997Y-97260500D01*
X124780003Y-97260500D01*
X124780008Y-97260500D01*
X124882797Y-97249999D01*
X125049334Y-97194814D01*
X125198655Y-97102711D01*
X125322711Y-96978655D01*
X125414814Y-96829334D01*
X125469999Y-96662797D01*
X125480500Y-96560008D01*
X125480500Y-94859992D01*
X125469999Y-94757203D01*
X125414814Y-94590666D01*
X125410878Y-94584285D01*
X125322713Y-94441348D01*
X125322710Y-94441344D01*
X125198654Y-94317288D01*
X125183843Y-94308153D01*
X125137118Y-94256206D01*
X125125895Y-94187243D01*
X125148621Y-94129728D01*
X125255678Y-93982377D01*
X125366439Y-93764998D01*
X125441834Y-93532959D01*
X125480000Y-93291993D01*
X125480000Y-93048006D01*
X125441834Y-92807040D01*
X125366439Y-92575001D01*
X125255676Y-92357619D01*
X125188456Y-92265097D01*
X125188454Y-92265096D01*
X124453787Y-92999764D01*
X124442518Y-92957708D01*
X124370110Y-92832292D01*
X124267708Y-92729890D01*
X124142292Y-92657482D01*
X124100232Y-92646212D01*
X124852437Y-91894009D01*
X124853039Y-91891145D01*
X124889408Y-91849472D01*
X124940083Y-91812655D01*
X125112655Y-91640083D01*
X125256106Y-91442639D01*
X125366904Y-91225185D01*
X125442321Y-90993076D01*
X125480500Y-90752027D01*
X125480500Y-90507973D01*
X125442321Y-90266924D01*
X125366904Y-90034815D01*
X125256106Y-89817361D01*
X125209346Y-89753001D01*
X125112660Y-89619923D01*
X125112656Y-89619918D01*
X124940081Y-89447343D01*
X124940076Y-89447339D01*
X124889410Y-89410528D01*
X124863919Y-89377471D01*
X124100234Y-88613787D01*
X124142292Y-88602518D01*
X124267708Y-88530110D01*
X124370110Y-88427708D01*
X124442518Y-88302292D01*
X124453787Y-88260235D01*
X125188454Y-88994902D01*
X125188454Y-88994901D01*
X125255678Y-88902377D01*
X125366439Y-88684998D01*
X125441834Y-88452959D01*
X125480000Y-88211993D01*
X125480000Y-87968006D01*
X125441834Y-87727040D01*
X125366439Y-87495001D01*
X125255676Y-87277619D01*
X125188456Y-87185097D01*
X125188454Y-87185096D01*
X124453787Y-87919764D01*
X124442518Y-87877708D01*
X124370110Y-87752292D01*
X124267708Y-87649890D01*
X124142292Y-87577482D01*
X124100233Y-87566212D01*
X124834902Y-86831544D01*
X124834901Y-86831543D01*
X124742380Y-86764323D01*
X124524998Y-86653560D01*
X124292959Y-86578165D01*
X124051993Y-86540000D01*
X123808007Y-86540000D01*
X123567040Y-86578165D01*
X123335001Y-86653560D01*
X123117626Y-86764319D01*
X123025097Y-86831544D01*
X123759766Y-87566212D01*
X123717708Y-87577482D01*
X123592292Y-87649890D01*
X123489890Y-87752292D01*
X123417482Y-87877708D01*
X123406212Y-87919765D01*
X122671544Y-87185097D01*
X122604319Y-87277626D01*
X122493560Y-87495001D01*
X122418165Y-87727040D01*
X122380000Y-87968006D01*
X122380000Y-88211993D01*
X122418165Y-88452959D01*
X122493560Y-88684998D01*
X122604323Y-88902380D01*
X122671543Y-88994901D01*
X122671544Y-88994902D01*
X123406212Y-88260234D01*
X123417482Y-88302292D01*
X123489890Y-88427708D01*
X123592292Y-88530110D01*
X123717708Y-88602518D01*
X123759765Y-88613787D01*
X123007556Y-89365994D01*
X123006953Y-89368866D01*
X122970590Y-89410528D01*
X122919917Y-89447344D01*
X122747343Y-89619918D01*
X122747339Y-89619923D01*
X122632211Y-89778385D01*
X122576882Y-89821051D01*
X122531893Y-89829500D01*
X120082893Y-89829500D01*
X120017796Y-89811038D01*
X119923705Y-89753001D01*
X119923699Y-89752998D01*
X119923697Y-89752997D01*
X119807520Y-89714500D01*
X119762709Y-89699651D01*
X119663346Y-89689500D01*
X118816662Y-89689500D01*
X118816644Y-89689501D01*
X118717292Y-89699650D01*
X118717289Y-89699651D01*
X118556305Y-89752996D01*
X118556298Y-89752999D01*
X118477203Y-89801786D01*
X118445991Y-89821038D01*
X118380895Y-89839500D01*
X117273980Y-89839500D01*
X117206941Y-89819815D01*
X117186299Y-89803181D01*
X117088361Y-89705243D01*
X117088359Y-89705241D01*
X116932302Y-89591859D01*
X116760429Y-89504285D01*
X116710093Y-89487929D01*
X116652420Y-89448494D01*
X116625221Y-89384135D01*
X116637135Y-89315289D01*
X116684379Y-89263813D01*
X116710090Y-89252070D01*
X116760429Y-89235715D01*
X116932302Y-89148141D01*
X117088359Y-89034759D01*
X117224759Y-88898359D01*
X117338141Y-88742302D01*
X117425715Y-88570429D01*
X117485324Y-88386972D01*
X117515500Y-88196449D01*
X117515500Y-88003551D01*
X117485324Y-87813028D01*
X117425715Y-87629571D01*
X117338141Y-87457698D01*
X117224759Y-87301641D01*
X117088359Y-87165241D01*
X116952656Y-87066647D01*
X118139500Y-87066647D01*
X118139500Y-87613337D01*
X118139501Y-87613355D01*
X118149650Y-87712707D01*
X118149651Y-87712710D01*
X118202996Y-87873694D01*
X118203001Y-87873705D01*
X118292029Y-88018040D01*
X118292032Y-88018044D01*
X118411955Y-88137967D01*
X118411959Y-88137970D01*
X118556294Y-88226998D01*
X118556297Y-88226999D01*
X118556303Y-88227003D01*
X118717292Y-88280349D01*
X118816655Y-88290500D01*
X119663344Y-88290499D01*
X119663352Y-88290498D01*
X119663355Y-88290498D01*
X119717760Y-88284940D01*
X119762708Y-88280349D01*
X119923697Y-88227003D01*
X120068044Y-88137968D01*
X120187968Y-88018044D01*
X120277003Y-87873697D01*
X120330349Y-87712708D01*
X120340500Y-87613345D01*
X120340499Y-87066656D01*
X120338987Y-87051859D01*
X120330349Y-86967292D01*
X120322451Y-86943457D01*
X120277003Y-86806303D01*
X120276999Y-86806297D01*
X120276998Y-86806294D01*
X120187970Y-86661959D01*
X120187969Y-86661958D01*
X120187968Y-86661956D01*
X120076818Y-86550806D01*
X120043334Y-86489483D01*
X120040500Y-86463125D01*
X120040500Y-86207845D01*
X120060185Y-86140806D01*
X120112989Y-86095051D01*
X120182147Y-86085107D01*
X120245703Y-86114132D01*
X120252181Y-86120164D01*
X120351961Y-86219944D01*
X120351965Y-86219947D01*
X120498688Y-86310448D01*
X120498699Y-86310453D01*
X120662347Y-86364680D01*
X120763351Y-86374999D01*
X121312500Y-86374999D01*
X121361640Y-86374999D01*
X121361654Y-86374998D01*
X121462652Y-86364680D01*
X121626300Y-86310453D01*
X121626311Y-86310448D01*
X121773034Y-86219947D01*
X121773038Y-86219944D01*
X121894944Y-86098038D01*
X121894947Y-86098034D01*
X121985448Y-85951311D01*
X121985453Y-85951300D01*
X122039680Y-85787652D01*
X122049999Y-85686654D01*
X122050000Y-85686641D01*
X122050000Y-85650000D01*
X121312500Y-85650000D01*
X121312500Y-86374999D01*
X120763351Y-86374999D01*
X120812499Y-86374998D01*
X120812500Y-86374998D01*
X120812500Y-85150000D01*
X121312500Y-85150000D01*
X122049999Y-85150000D01*
X122049999Y-85113360D01*
X122049998Y-85113345D01*
X122039680Y-85012347D01*
X121985453Y-84848699D01*
X121985448Y-84848688D01*
X121894947Y-84701965D01*
X121894944Y-84701961D01*
X121773038Y-84580055D01*
X121773034Y-84580052D01*
X121626311Y-84489551D01*
X121626300Y-84489546D01*
X121462652Y-84435319D01*
X121361654Y-84425000D01*
X121312500Y-84425000D01*
X121312500Y-85150000D01*
X120812500Y-85150000D01*
X120812500Y-84425000D01*
X120812499Y-84424999D01*
X120763361Y-84425000D01*
X120763343Y-84425001D01*
X120662347Y-84435319D01*
X120498699Y-84489546D01*
X120498688Y-84489551D01*
X120351965Y-84580052D01*
X120238034Y-84693983D01*
X120176711Y-84727467D01*
X120107019Y-84722483D01*
X120062672Y-84693982D01*
X119948351Y-84579661D01*
X119948350Y-84579660D01*
X119807494Y-84492779D01*
X119801518Y-84489093D01*
X119801513Y-84489091D01*
X119800069Y-84488612D01*
X119637753Y-84434826D01*
X119637751Y-84434825D01*
X119536678Y-84424500D01*
X118938330Y-84424500D01*
X118938312Y-84424501D01*
X118837247Y-84434825D01*
X118673484Y-84489092D01*
X118673481Y-84489093D01*
X118526648Y-84579661D01*
X118404661Y-84701648D01*
X118314093Y-84848481D01*
X118314093Y-84848482D01*
X118314092Y-84848484D01*
X118259826Y-85012247D01*
X118259826Y-85012248D01*
X118259825Y-85012248D01*
X118249500Y-85113315D01*
X118249500Y-85686669D01*
X118249501Y-85686687D01*
X118259825Y-85787752D01*
X118279448Y-85846969D01*
X118314020Y-85951300D01*
X118314092Y-85951515D01*
X118314093Y-85951518D01*
X118404661Y-86098352D01*
X118409138Y-86104013D01*
X118407701Y-86105149D01*
X118436666Y-86158194D01*
X118439500Y-86184552D01*
X118439500Y-86463125D01*
X118419815Y-86530164D01*
X118403182Y-86550806D01*
X118292029Y-86661959D01*
X118203001Y-86806294D01*
X118202996Y-86806305D01*
X118149651Y-86967290D01*
X118139500Y-87066647D01*
X116952656Y-87066647D01*
X116932302Y-87051859D01*
X116760429Y-86964285D01*
X116710093Y-86947929D01*
X116652420Y-86908494D01*
X116625221Y-86844135D01*
X116637135Y-86775289D01*
X116684379Y-86723813D01*
X116710090Y-86712070D01*
X116760429Y-86695715D01*
X116932302Y-86608141D01*
X117088359Y-86494759D01*
X117224759Y-86358359D01*
X117338141Y-86202302D01*
X117425715Y-86030429D01*
X117485324Y-85846972D01*
X117515500Y-85656449D01*
X117515500Y-85463551D01*
X117485324Y-85273028D01*
X117425715Y-85089571D01*
X117338141Y-84917698D01*
X117224759Y-84761641D01*
X117088359Y-84625241D01*
X116932302Y-84511859D01*
X116760429Y-84424285D01*
X116710093Y-84407929D01*
X116652420Y-84368494D01*
X116625221Y-84304135D01*
X116637135Y-84235289D01*
X116684379Y-84183813D01*
X116710090Y-84172070D01*
X116760429Y-84155715D01*
X116932302Y-84068141D01*
X117088359Y-83954759D01*
X117224759Y-83818359D01*
X117338141Y-83662302D01*
X117425715Y-83490429D01*
X117485324Y-83306972D01*
X117515500Y-83116449D01*
X117515500Y-82923551D01*
X117485324Y-82733028D01*
X117425715Y-82549571D01*
X117338141Y-82377698D01*
X117224759Y-82221641D01*
X117088359Y-82085241D01*
X116932302Y-81971859D01*
X116760429Y-81884285D01*
X116576972Y-81824676D01*
X116576970Y-81824675D01*
X116576969Y-81824675D01*
X116391146Y-81795244D01*
X116386449Y-81794500D01*
X116193551Y-81794500D01*
X116188854Y-81795244D01*
X116003030Y-81824675D01*
X115819568Y-81884286D01*
X115647697Y-81971859D01*
X115558661Y-82036547D01*
X115491641Y-82085241D01*
X115491639Y-82085243D01*
X115491638Y-82085243D01*
X115355243Y-82221638D01*
X115355243Y-82221639D01*
X115355241Y-82221641D01*
X115317145Y-82274076D01*
X115241859Y-82377697D01*
X115154286Y-82549568D01*
X115094675Y-82733030D01*
X115064500Y-82923551D01*
X115064500Y-83116448D01*
X115094675Y-83306969D01*
X115094676Y-83306972D01*
X115154285Y-83490429D01*
X115241859Y-83662302D01*
X115355241Y-83818359D01*
X115491641Y-83954759D01*
X115647698Y-84068141D01*
X115819571Y-84155715D01*
X115869904Y-84172069D01*
X115927580Y-84211507D01*
X115954778Y-84275865D01*
X115942863Y-84344712D01*
X115895619Y-84396187D01*
X115869905Y-84407930D01*
X115850348Y-84414285D01*
X115819568Y-84424286D01*
X115647697Y-84511859D01*
X115566844Y-84570603D01*
X115491641Y-84625241D01*
X115491639Y-84625243D01*
X115491638Y-84625243D01*
X115355243Y-84761638D01*
X115355243Y-84761639D01*
X115355241Y-84761641D01*
X115334200Y-84790602D01*
X115241859Y-84917697D01*
X115154286Y-85089568D01*
X115094675Y-85273030D01*
X115064500Y-85463551D01*
X115064500Y-85656448D01*
X115094675Y-85846969D01*
X115094676Y-85846972D01*
X115154285Y-86030429D01*
X115241859Y-86202302D01*
X115355241Y-86358359D01*
X115491641Y-86494759D01*
X115647698Y-86608141D01*
X115819571Y-86695715D01*
X115869904Y-86712069D01*
X115927580Y-86751507D01*
X115954778Y-86815865D01*
X115942863Y-86884712D01*
X115895619Y-86936187D01*
X115869905Y-86947930D01*
X115850348Y-86954285D01*
X115819568Y-86964286D01*
X115647697Y-87051859D01*
X115558661Y-87116547D01*
X115491641Y-87165241D01*
X115491639Y-87165243D01*
X115491638Y-87165243D01*
X115355243Y-87301638D01*
X115355243Y-87301639D01*
X115355241Y-87301641D01*
X115306547Y-87368661D01*
X115241859Y-87457697D01*
X115154286Y-87629568D01*
X115094675Y-87813030D01*
X115064500Y-88003551D01*
X115064500Y-88142060D01*
X115044815Y-88209099D01*
X115028181Y-88229741D01*
X113959711Y-89298211D01*
X113924129Y-89333793D01*
X113848209Y-89409712D01*
X113760609Y-89540814D01*
X113760602Y-89540827D01*
X113700264Y-89686498D01*
X113700261Y-89686510D01*
X113669500Y-89841153D01*
X113669500Y-102988846D01*
X113700261Y-103143489D01*
X113700264Y-103143501D01*
X113760602Y-103289172D01*
X113760609Y-103289185D01*
X113848210Y-103420288D01*
X113848213Y-103420292D01*
X115463181Y-105035259D01*
X115496666Y-105096582D01*
X115499500Y-105122940D01*
X115499500Y-115674567D01*
X115479815Y-115741606D01*
X115448385Y-115774885D01*
X115397641Y-115811752D01*
X115397636Y-115811756D01*
X115241756Y-115967636D01*
X115241752Y-115967641D01*
X115160318Y-116079727D01*
X115104989Y-116122393D01*
X115035375Y-116128372D01*
X114973580Y-116095767D01*
X114959682Y-116079727D01*
X114878247Y-115967641D01*
X114878243Y-115967636D01*
X114722363Y-115811756D01*
X114722358Y-115811752D01*
X114544025Y-115682187D01*
X114544024Y-115682186D01*
X114544022Y-115682185D01*
X114461990Y-115640387D01*
X114347606Y-115582104D01*
X114347603Y-115582103D01*
X114137952Y-115513985D01*
X114029086Y-115496742D01*
X113920222Y-115479500D01*
X113699778Y-115479500D01*
X113654439Y-115486681D01*
X113482047Y-115513985D01*
X113272396Y-115582103D01*
X113272393Y-115582104D01*
X113075974Y-115682187D01*
X112897641Y-115811752D01*
X112897636Y-115811756D01*
X112741756Y-115967636D01*
X112741752Y-115967641D01*
X112660318Y-116079727D01*
X112604989Y-116122393D01*
X112535375Y-116128372D01*
X112473580Y-116095767D01*
X112459682Y-116079727D01*
X112378247Y-115967641D01*
X112378243Y-115967636D01*
X112222363Y-115811756D01*
X112222358Y-115811752D01*
X112044025Y-115682187D01*
X112044024Y-115682186D01*
X112044022Y-115682185D01*
X111961990Y-115640387D01*
X111847606Y-115582104D01*
X111847603Y-115582103D01*
X111637952Y-115513985D01*
X111529086Y-115496742D01*
X111420222Y-115479500D01*
X111199778Y-115479500D01*
X111154439Y-115486681D01*
X110982047Y-115513985D01*
X110772396Y-115582103D01*
X110772393Y-115582104D01*
X110575974Y-115682187D01*
X110397641Y-115811752D01*
X110397636Y-115811756D01*
X110241756Y-115967636D01*
X110241752Y-115967641D01*
X110112187Y-116145974D01*
X110012104Y-116342393D01*
X110012103Y-116342396D01*
X109943985Y-116552047D01*
X109909500Y-116769778D01*
X107358060Y-116769778D01*
X107334835Y-116623143D01*
X107275253Y-116439765D01*
X107275252Y-116439762D01*
X107187712Y-116267957D01*
X107165781Y-116237771D01*
X107165780Y-116237771D01*
X106561725Y-116841826D01*
X106536037Y-116745956D01*
X106480084Y-116649044D01*
X106400956Y-116569916D01*
X106304044Y-116513963D01*
X106208172Y-116488274D01*
X106812227Y-115884218D01*
X106812227Y-115884217D01*
X106782043Y-115862288D01*
X106610237Y-115774748D01*
X106559287Y-115758193D01*
X106501612Y-115718755D01*
X106474414Y-115654396D01*
X106486329Y-115585550D01*
X106533573Y-115534074D01*
X106559285Y-115522332D01*
X106610429Y-115505715D01*
X106782302Y-115418141D01*
X106938359Y-115304759D01*
X107074759Y-115168359D01*
X107188141Y-115012302D01*
X107275715Y-114840429D01*
X107335324Y-114656972D01*
X107365500Y-114466449D01*
X107365500Y-114466446D01*
X107365883Y-114461586D01*
X107367740Y-114461732D01*
X107385185Y-114402322D01*
X107401819Y-114381680D01*
X109239461Y-112544038D01*
X109239464Y-112544035D01*
X109248401Y-112530659D01*
X109265912Y-112504454D01*
X109265912Y-112504453D01*
X109287568Y-112472043D01*
X109338013Y-112396547D01*
X109365524Y-112330130D01*
X109405895Y-112232666D01*
X109440500Y-112058691D01*
X109440500Y-111881308D01*
X109440500Y-96274361D01*
X109460185Y-96207322D01*
X109476819Y-96186680D01*
X109623192Y-96040307D01*
X109803625Y-95859873D01*
X109864946Y-95826390D01*
X109934637Y-95831374D01*
X109990571Y-95873245D01*
X110013777Y-95928158D01*
X110024675Y-95996969D01*
X110024676Y-95996972D01*
X110084285Y-96180429D01*
X110171859Y-96352302D01*
X110285241Y-96508359D01*
X110421641Y-96644759D01*
X110577698Y-96758141D01*
X110749571Y-96845715D01*
X110799904Y-96862069D01*
X110857580Y-96901507D01*
X110884778Y-96965865D01*
X110872863Y-97034712D01*
X110825619Y-97086187D01*
X110799905Y-97097930D01*
X110785186Y-97102713D01*
X110749568Y-97114286D01*
X110577697Y-97201859D01*
X110490433Y-97265261D01*
X110421641Y-97315241D01*
X110421639Y-97315243D01*
X110421638Y-97315243D01*
X110285243Y-97451638D01*
X110285243Y-97451639D01*
X110285241Y-97451641D01*
X110236547Y-97518661D01*
X110171859Y-97607697D01*
X110084286Y-97779568D01*
X110024675Y-97963030D01*
X109994500Y-98153551D01*
X109994500Y-98346448D01*
X110024675Y-98536969D01*
X110024676Y-98536972D01*
X110084285Y-98720429D01*
X110171859Y-98892302D01*
X110285241Y-99048359D01*
X110421641Y-99184759D01*
X110577698Y-99298141D01*
X110640256Y-99330016D01*
X110691051Y-99377989D01*
X110707846Y-99445810D01*
X110685309Y-99511945D01*
X110630594Y-99555397D01*
X110583961Y-99564500D01*
X110447130Y-99564500D01*
X110447123Y-99564501D01*
X110387516Y-99570908D01*
X110252671Y-99621202D01*
X110252664Y-99621206D01*
X110137455Y-99707452D01*
X110137452Y-99707455D01*
X110051206Y-99822664D01*
X110051202Y-99822671D01*
X110000908Y-99957517D01*
X109996879Y-99994998D01*
X109994501Y-100017123D01*
X109994500Y-100017135D01*
X109994500Y-101562870D01*
X109994501Y-101562876D01*
X110000908Y-101622483D01*
X110051202Y-101757328D01*
X110051206Y-101757335D01*
X110137452Y-101872544D01*
X110137455Y-101872547D01*
X110252664Y-101958793D01*
X110252671Y-101958797D01*
X110387517Y-102009091D01*
X110387516Y-102009091D01*
X110394444Y-102009835D01*
X110447127Y-102015500D01*
X111992872Y-102015499D01*
X112052483Y-102009091D01*
X112187331Y-101958796D01*
X112302546Y-101872546D01*
X112388796Y-101757331D01*
X112439091Y-101622483D01*
X112445500Y-101562873D01*
X112445499Y-100017128D01*
X112440164Y-99967498D01*
X112439091Y-99957516D01*
X112388797Y-99822671D01*
X112388793Y-99822664D01*
X112302547Y-99707455D01*
X112302544Y-99707452D01*
X112187335Y-99621206D01*
X112187328Y-99621202D01*
X112052482Y-99570908D01*
X112052483Y-99570908D01*
X111992883Y-99564501D01*
X111992881Y-99564500D01*
X111992873Y-99564500D01*
X111992865Y-99564500D01*
X111856040Y-99564500D01*
X111789001Y-99544815D01*
X111743246Y-99492011D01*
X111733302Y-99422853D01*
X111762327Y-99359297D01*
X111799743Y-99330016D01*
X111862302Y-99298141D01*
X112018359Y-99184759D01*
X112154759Y-99048359D01*
X112268141Y-98892302D01*
X112355715Y-98720429D01*
X112415324Y-98536972D01*
X112445500Y-98346449D01*
X112445500Y-98153551D01*
X112415324Y-97963028D01*
X112355715Y-97779571D01*
X112268141Y-97607698D01*
X112154759Y-97451641D01*
X112018359Y-97315241D01*
X111862302Y-97201859D01*
X111848475Y-97194814D01*
X111690431Y-97114286D01*
X111690430Y-97114285D01*
X111690429Y-97114285D01*
X111640093Y-97097929D01*
X111582420Y-97058494D01*
X111555221Y-96994135D01*
X111567135Y-96925289D01*
X111614379Y-96873813D01*
X111640090Y-96862070D01*
X111690429Y-96845715D01*
X111862302Y-96758141D01*
X112018359Y-96644759D01*
X112154759Y-96508359D01*
X112268141Y-96352302D01*
X112355715Y-96180429D01*
X112415324Y-95996972D01*
X112445500Y-95806449D01*
X112445500Y-95613551D01*
X112415324Y-95423028D01*
X112355715Y-95239571D01*
X112268141Y-95067698D01*
X112154759Y-94911641D01*
X112018359Y-94775241D01*
X111862302Y-94661859D01*
X111722578Y-94590666D01*
X111690431Y-94574286D01*
X111690430Y-94574285D01*
X111690429Y-94574285D01*
X111640093Y-94557929D01*
X111582420Y-94518494D01*
X111555221Y-94454135D01*
X111567135Y-94385289D01*
X111614379Y-94333813D01*
X111640090Y-94322070D01*
X111690429Y-94305715D01*
X111862302Y-94218141D01*
X112018359Y-94104759D01*
X112154759Y-93968359D01*
X112268141Y-93812302D01*
X112355715Y-93640429D01*
X112415324Y-93456972D01*
X112445500Y-93266449D01*
X112445500Y-93073551D01*
X112415324Y-92883028D01*
X112355715Y-92699571D01*
X112268141Y-92527698D01*
X112154759Y-92371641D01*
X112018359Y-92235241D01*
X111862302Y-92121859D01*
X111690429Y-92034285D01*
X111640093Y-92017929D01*
X111582420Y-91978494D01*
X111555221Y-91914135D01*
X111567135Y-91845289D01*
X111614379Y-91793813D01*
X111640090Y-91782070D01*
X111690429Y-91765715D01*
X111862302Y-91678141D01*
X112018359Y-91564759D01*
X112154759Y-91428359D01*
X112268141Y-91272302D01*
X112355715Y-91100429D01*
X112415324Y-90916972D01*
X112445500Y-90726449D01*
X112445500Y-90533551D01*
X112415324Y-90343028D01*
X112355715Y-90159571D01*
X112268141Y-89987698D01*
X112154759Y-89831641D01*
X112018359Y-89695241D01*
X111862302Y-89581859D01*
X111690429Y-89494285D01*
X111640093Y-89477929D01*
X111582420Y-89438494D01*
X111555221Y-89374135D01*
X111567135Y-89305289D01*
X111614379Y-89253813D01*
X111640090Y-89242070D01*
X111690429Y-89225715D01*
X111862302Y-89138141D01*
X112018359Y-89024759D01*
X112154759Y-88888359D01*
X112268141Y-88732302D01*
X112355715Y-88560429D01*
X112415324Y-88376972D01*
X112445500Y-88186449D01*
X112445500Y-87993551D01*
X112415324Y-87803028D01*
X112355715Y-87619571D01*
X112268141Y-87447698D01*
X112154759Y-87291641D01*
X112018359Y-87155241D01*
X111862302Y-87041859D01*
X111690429Y-86954285D01*
X111640093Y-86937929D01*
X111582420Y-86898494D01*
X111555221Y-86834135D01*
X111567135Y-86765289D01*
X111614379Y-86713813D01*
X111640090Y-86702070D01*
X111690429Y-86685715D01*
X111862302Y-86598141D01*
X112018359Y-86484759D01*
X112154759Y-86348359D01*
X112268141Y-86192302D01*
X112355715Y-86020429D01*
X112415324Y-85836972D01*
X112445500Y-85646449D01*
X112445500Y-85453551D01*
X112415324Y-85263028D01*
X112355715Y-85079571D01*
X112268141Y-84907698D01*
X112154759Y-84751641D01*
X112018359Y-84615241D01*
X111862302Y-84501859D01*
X111837243Y-84489091D01*
X111690431Y-84414286D01*
X111690430Y-84414285D01*
X111690429Y-84414285D01*
X111640093Y-84397929D01*
X111582420Y-84358494D01*
X111555221Y-84294135D01*
X111567135Y-84225289D01*
X111614379Y-84173813D01*
X111640090Y-84162070D01*
X111690429Y-84145715D01*
X111862302Y-84058141D01*
X112018359Y-83944759D01*
X112154759Y-83808359D01*
X112268141Y-83652302D01*
X112355715Y-83480429D01*
X112415324Y-83296972D01*
X112445500Y-83106449D01*
X112445500Y-82913551D01*
X112415324Y-82723028D01*
X112355715Y-82539571D01*
X112268141Y-82367698D01*
X112154759Y-82211641D01*
X112018359Y-82075241D01*
X111862302Y-81961859D01*
X111781176Y-81920523D01*
X111690431Y-81874286D01*
X111690430Y-81874285D01*
X111690429Y-81874285D01*
X111506972Y-81814676D01*
X111506970Y-81814675D01*
X111506969Y-81814675D01*
X111348573Y-81789588D01*
X111316449Y-81784500D01*
X111123551Y-81784500D01*
X111091427Y-81789588D01*
X110933030Y-81814675D01*
X110749568Y-81874286D01*
X110577697Y-81961859D01*
X110488661Y-82026547D01*
X110421641Y-82075241D01*
X110421639Y-82075243D01*
X110421638Y-82075243D01*
X110285243Y-82211638D01*
X110285243Y-82211639D01*
X110285241Y-82211641D01*
X110277978Y-82221638D01*
X110171859Y-82367697D01*
X110084286Y-82539568D01*
X110024675Y-82723030D01*
X109994499Y-82913553D01*
X109994117Y-82918414D01*
X109992259Y-82918267D01*
X109974815Y-82977676D01*
X109958181Y-82998318D01*
X105440538Y-87515960D01*
X105440537Y-87515961D01*
X105404635Y-87569694D01*
X105402094Y-87573497D01*
X105341987Y-87663453D01*
X105318905Y-87719179D01*
X105315995Y-87726203D01*
X105315991Y-87726211D01*
X105274105Y-87827333D01*
X105274103Y-87827341D01*
X105247360Y-87961787D01*
X105247361Y-87961788D01*
X105239500Y-88001310D01*
X105239500Y-103326020D01*
X105219815Y-103393059D01*
X105208061Y-103407643D01*
X105208405Y-103407937D01*
X105205243Y-103411639D01*
X105205241Y-103411641D01*
X105198959Y-103420288D01*
X105091859Y-103567697D01*
X105004286Y-103739568D01*
X104944675Y-103923030D01*
X104914500Y-104113551D01*
X104914500Y-104130637D01*
X104894815Y-104197676D01*
X104878181Y-104218318D01*
X102650538Y-106445960D01*
X102650537Y-106445961D01*
X102639134Y-106463028D01*
X102627766Y-106480042D01*
X102551987Y-106593453D01*
X102527094Y-106653551D01*
X102524022Y-106660967D01*
X102524021Y-106660969D01*
X102484105Y-106757333D01*
X102484103Y-106757341D01*
X102449500Y-106931303D01*
X102449500Y-109735638D01*
X102429815Y-109802677D01*
X102413181Y-109823319D01*
X101243319Y-110993181D01*
X101181996Y-111026666D01*
X101155638Y-111029500D01*
X84871306Y-111029500D01*
X84715462Y-111060500D01*
X84701834Y-111063210D01*
X84697333Y-111064106D01*
X84697329Y-111064107D01*
X84533459Y-111131983D01*
X84533446Y-111131990D01*
X84385966Y-111230534D01*
X84385964Y-111230537D01*
X83130540Y-112485958D01*
X83130534Y-112485965D01*
X83031988Y-112633451D01*
X82964105Y-112797333D01*
X82964103Y-112797341D01*
X82929500Y-112971303D01*
X76188423Y-112971303D01*
X76188418Y-112965314D01*
X76187733Y-112095497D01*
X76186881Y-111013325D01*
X76186715Y-110801947D01*
X76770000Y-110801947D01*
X76770000Y-111038052D01*
X76806934Y-111271247D01*
X76879897Y-111495802D01*
X76987087Y-111706174D01*
X77047338Y-111789104D01*
X77047340Y-111789105D01*
X77787037Y-111049408D01*
X77804075Y-111112993D01*
X77869901Y-111227007D01*
X77962993Y-111320099D01*
X78077007Y-111385925D01*
X78140590Y-111402962D01*
X77400893Y-112142658D01*
X77483828Y-112202914D01*
X77694197Y-112310102D01*
X77918752Y-112383065D01*
X77918751Y-112383065D01*
X78151948Y-112420000D01*
X78388052Y-112420000D01*
X78621247Y-112383065D01*
X78845802Y-112310102D01*
X79056163Y-112202918D01*
X79056169Y-112202914D01*
X79139104Y-112142658D01*
X79139105Y-112142658D01*
X78399408Y-111402962D01*
X78462993Y-111385925D01*
X78577007Y-111320099D01*
X78670099Y-111227007D01*
X78735925Y-111112993D01*
X78752962Y-111049409D01*
X79492658Y-111789105D01*
X79492658Y-111789104D01*
X79552914Y-111706169D01*
X79552918Y-111706163D01*
X79660102Y-111495802D01*
X79733065Y-111271247D01*
X79770000Y-111038052D01*
X79770000Y-110801947D01*
X79733065Y-110568752D01*
X79660102Y-110344197D01*
X79552914Y-110133828D01*
X79492658Y-110050894D01*
X79492658Y-110050893D01*
X78752962Y-110790590D01*
X78735925Y-110727007D01*
X78670099Y-110612993D01*
X78577007Y-110519901D01*
X78462993Y-110454075D01*
X78399409Y-110437037D01*
X79139105Y-109697340D01*
X79139104Y-109697338D01*
X79056174Y-109637087D01*
X78845802Y-109529897D01*
X78621247Y-109456934D01*
X78621248Y-109456934D01*
X78388052Y-109420000D01*
X78151948Y-109420000D01*
X77918752Y-109456934D01*
X77694197Y-109529897D01*
X77483830Y-109637084D01*
X77400894Y-109697340D01*
X78140591Y-110437037D01*
X78077007Y-110454075D01*
X77962993Y-110519901D01*
X77869901Y-110612993D01*
X77804075Y-110727007D01*
X77787037Y-110790591D01*
X77047340Y-110050894D01*
X76987084Y-110133830D01*
X76879897Y-110344197D01*
X76806934Y-110568752D01*
X76770000Y-110801947D01*
X76186715Y-110801947D01*
X76186711Y-110797173D01*
X76186310Y-110288165D01*
X76185597Y-109383501D01*
X76174002Y-109276251D01*
X76162797Y-109224841D01*
X76128711Y-109122496D01*
X76122187Y-109112345D01*
X76050927Y-109001462D01*
X76050918Y-109001451D01*
X76005174Y-108948659D01*
X76005170Y-108948656D01*
X76005168Y-108948653D01*
X75896434Y-108854433D01*
X75896431Y-108854431D01*
X75896429Y-108854430D01*
X75765563Y-108794664D01*
X75765558Y-108794662D01*
X75765557Y-108794662D01*
X75698518Y-108774977D01*
X75698520Y-108774977D01*
X75698515Y-108774976D01*
X75636452Y-108766053D01*
X75556098Y-108754500D01*
X74596077Y-108754500D01*
X74596075Y-108754500D01*
X74542051Y-108757396D01*
X74542044Y-108757396D01*
X74542035Y-108757397D01*
X74542029Y-108757397D01*
X74541997Y-108757400D01*
X74515687Y-108760229D01*
X74515669Y-108760231D01*
X74462275Y-108768884D01*
X74462270Y-108768885D01*
X74327474Y-108819160D01*
X74327470Y-108819162D01*
X74266137Y-108852651D01*
X74150961Y-108938869D01*
X74150957Y-108938873D01*
X74064732Y-109054052D01*
X74031255Y-109115359D01*
X74031244Y-109115382D01*
X74031240Y-109115390D01*
X74030111Y-109118418D01*
X73988234Y-109174347D01*
X73922767Y-109198757D01*
X73854495Y-109183898D01*
X73826253Y-109162753D01*
X72804041Y-108140540D01*
X72804038Y-108140537D01*
X72735400Y-108094675D01*
X72656544Y-108041985D01*
X72656542Y-108041984D01*
X72574607Y-108008046D01*
X72574606Y-108008046D01*
X72492666Y-107974105D01*
X72492658Y-107974103D01*
X72318696Y-107939500D01*
X72318692Y-107939500D01*
X72318691Y-107939500D01*
X69994500Y-107939500D01*
X69927461Y-107919815D01*
X69881706Y-107867011D01*
X69870500Y-107815500D01*
X69870499Y-106289998D01*
X69870498Y-106289981D01*
X69859999Y-106187203D01*
X69835576Y-106113502D01*
X69833175Y-106043677D01*
X69868906Y-105983635D01*
X69931426Y-105952441D01*
X69953283Y-105950500D01*
X70238844Y-105950500D01*
X70238845Y-105950499D01*
X70393497Y-105919737D01*
X70539179Y-105859394D01*
X70670289Y-105771789D01*
X70810219Y-105631859D01*
X70977545Y-105464534D01*
X71291786Y-105150292D01*
X71291789Y-105150289D01*
X71379394Y-105019179D01*
X71420484Y-104919976D01*
X71464323Y-104865576D01*
X71530617Y-104843510D01*
X71574048Y-104849725D01*
X71732348Y-104902180D01*
X71833352Y-104912499D01*
X71870000Y-104912499D01*
X72370000Y-104912499D01*
X72406640Y-104912499D01*
X72406654Y-104912498D01*
X72507652Y-104902180D01*
X72671300Y-104847953D01*
X72671311Y-104847948D01*
X72818034Y-104757447D01*
X72818038Y-104757444D01*
X72939944Y-104635538D01*
X72939947Y-104635534D01*
X73030448Y-104488811D01*
X73030453Y-104488800D01*
X73068557Y-104373812D01*
X73068557Y-104373811D01*
X73084680Y-104325154D01*
X73084680Y-104325153D01*
X73094999Y-104224154D01*
X73095000Y-104224141D01*
X73095000Y-104125000D01*
X72370000Y-104125000D01*
X72370000Y-104912499D01*
X71870000Y-104912499D01*
X71870000Y-103999000D01*
X71889685Y-103931961D01*
X71942489Y-103886206D01*
X71994000Y-103875000D01*
X72120000Y-103875000D01*
X72120000Y-103749000D01*
X72139685Y-103681961D01*
X72192489Y-103636206D01*
X72244000Y-103625000D01*
X73094999Y-103625000D01*
X73094999Y-103546654D01*
X73707501Y-103546654D01*
X73717819Y-103647652D01*
X73772046Y-103811300D01*
X73772051Y-103811311D01*
X73862552Y-103958034D01*
X73862555Y-103958038D01*
X73984461Y-104079944D01*
X73984465Y-104079947D01*
X74131188Y-104170448D01*
X74131199Y-104170453D01*
X74294847Y-104224680D01*
X74395851Y-104234999D01*
X74495000Y-104234998D01*
X74495000Y-103510000D01*
X73707501Y-103510000D01*
X73707501Y-103546654D01*
X73094999Y-103546654D01*
X73094999Y-103525860D01*
X73094998Y-103525845D01*
X73089420Y-103471240D01*
X73089420Y-103471239D01*
X73084681Y-103424848D01*
X73030453Y-103261199D01*
X73030448Y-103261188D01*
X72939947Y-103114465D01*
X72939944Y-103114461D01*
X72926017Y-103100534D01*
X72892532Y-103039211D01*
X72897516Y-102969519D01*
X72926017Y-102925172D01*
X72940340Y-102910850D01*
X73030908Y-102764016D01*
X73085174Y-102600253D01*
X73095500Y-102499177D01*
X73095499Y-102342797D01*
X73115183Y-102275760D01*
X73167987Y-102230005D01*
X73237145Y-102220061D01*
X73282620Y-102236067D01*
X73409803Y-102311282D01*
X73409806Y-102311283D01*
X73567504Y-102357099D01*
X73567510Y-102357100D01*
X73604350Y-102359999D01*
X73604366Y-102360000D01*
X73766120Y-102360000D01*
X73833159Y-102379685D01*
X73878914Y-102432489D01*
X73888858Y-102501647D01*
X73865737Y-102555439D01*
X73866346Y-102555815D01*
X73863809Y-102559927D01*
X73863387Y-102560910D01*
X73862551Y-102561966D01*
X73772051Y-102708688D01*
X73772046Y-102708699D01*
X73717819Y-102872347D01*
X73707500Y-102973345D01*
X73707500Y-103010000D01*
X74621000Y-103010000D01*
X74688039Y-103029685D01*
X74733794Y-103082489D01*
X74745000Y-103134000D01*
X74745000Y-103260000D01*
X74871000Y-103260000D01*
X74938039Y-103279685D01*
X74983794Y-103332489D01*
X74995000Y-103384000D01*
X74995000Y-104234999D01*
X75094140Y-104234999D01*
X75094154Y-104234998D01*
X75195152Y-104224680D01*
X75358800Y-104170453D01*
X75358811Y-104170448D01*
X75505535Y-104079947D01*
X75519460Y-104066021D01*
X75580782Y-104032533D01*
X75650473Y-104037514D01*
X75694827Y-104066017D01*
X75709150Y-104080340D01*
X75855984Y-104170908D01*
X76019747Y-104225174D01*
X76120823Y-104235500D01*
X76819176Y-104235499D01*
X76819184Y-104235498D01*
X76819187Y-104235498D01*
X76875838Y-104229711D01*
X76920253Y-104225174D01*
X77084016Y-104170908D01*
X77230850Y-104080340D01*
X77352840Y-103958350D01*
X77443408Y-103811516D01*
X77497674Y-103647753D01*
X77508000Y-103546677D01*
X77507999Y-102973324D01*
X77507610Y-102969519D01*
X77497674Y-102872247D01*
X77477962Y-102812761D01*
X77443408Y-102708484D01*
X77352840Y-102561650D01*
X77263340Y-102472150D01*
X77251661Y-102450762D01*
X77236393Y-102431761D01*
X77235213Y-102420639D01*
X77229855Y-102410827D01*
X77231593Y-102386519D01*
X77229022Y-102362281D01*
X77234041Y-102352288D01*
X77234839Y-102341135D01*
X77249445Y-102321623D01*
X77260385Y-102299846D01*
X77273845Y-102289029D01*
X77276711Y-102285202D01*
X77287891Y-102277742D01*
X77318141Y-102259852D01*
X77357061Y-102244970D01*
X77414328Y-102233580D01*
X77478069Y-102207177D01*
X77541807Y-102180777D01*
X77541808Y-102180776D01*
X77541811Y-102180775D01*
X77656543Y-102104114D01*
X78588522Y-101172135D01*
X80989500Y-101172135D01*
X80989500Y-102867870D01*
X80989501Y-102867876D01*
X80995908Y-102927483D01*
X81046202Y-103062328D01*
X81046206Y-103062335D01*
X81132452Y-103177544D01*
X81132455Y-103177547D01*
X81247664Y-103263793D01*
X81247671Y-103263797D01*
X81290270Y-103279685D01*
X81382517Y-103314091D01*
X81442127Y-103320500D01*
X81442153Y-103320499D01*
X81445453Y-103320678D01*
X81445365Y-103322308D01*
X81506238Y-103340067D01*
X81552084Y-103392791D01*
X81559804Y-103436251D01*
X82243554Y-104120000D01*
X82237339Y-104120000D01*
X82135606Y-104147259D01*
X82044394Y-104199920D01*
X81969920Y-104274394D01*
X81917259Y-104365606D01*
X81890000Y-104467339D01*
X81890000Y-104473553D01*
X81210524Y-103794077D01*
X81210523Y-103794077D01*
X81178143Y-103838644D01*
X81085244Y-104020968D01*
X81022009Y-104215582D01*
X80990000Y-104417682D01*
X80990000Y-104622317D01*
X81022009Y-104824417D01*
X81085244Y-105019031D01*
X81178141Y-105201350D01*
X81178147Y-105201359D01*
X81210523Y-105245921D01*
X81210524Y-105245922D01*
X81890000Y-104566446D01*
X81890000Y-104572661D01*
X81917259Y-104674394D01*
X81969920Y-104765606D01*
X82044394Y-104840080D01*
X82135606Y-104892741D01*
X82237339Y-104920000D01*
X82243553Y-104920000D01*
X81564076Y-105599474D01*
X81608650Y-105631859D01*
X81790968Y-105724755D01*
X81985582Y-105787990D01*
X82187683Y-105820000D01*
X82392317Y-105820000D01*
X82594417Y-105787990D01*
X82789031Y-105724755D01*
X82971349Y-105631859D01*
X83015921Y-105599474D01*
X82336447Y-104920000D01*
X82342661Y-104920000D01*
X82444394Y-104892741D01*
X82535606Y-104840080D01*
X82610080Y-104765606D01*
X82662741Y-104674394D01*
X82690000Y-104572661D01*
X82690000Y-104566447D01*
X83369474Y-105245921D01*
X83401859Y-105201349D01*
X83494755Y-105019031D01*
X83557990Y-104824417D01*
X83590000Y-104622317D01*
X83590000Y-104417682D01*
X83557990Y-104215582D01*
X83494755Y-104020968D01*
X83401859Y-103838650D01*
X83369474Y-103794077D01*
X83369474Y-103794076D01*
X82690000Y-104473551D01*
X82690000Y-104467339D01*
X82662741Y-104365606D01*
X82610080Y-104274394D01*
X82535606Y-104199920D01*
X82444394Y-104147259D01*
X82342661Y-104120000D01*
X82336446Y-104120000D01*
X83020931Y-103435515D01*
X83031364Y-103385852D01*
X83080415Y-103336094D01*
X83134637Y-103322048D01*
X83134576Y-103320900D01*
X83134571Y-103320854D01*
X83134573Y-103320853D01*
X83134564Y-103320676D01*
X83137857Y-103320499D01*
X83137872Y-103320499D01*
X83197483Y-103314091D01*
X83332331Y-103263796D01*
X83447546Y-103177546D01*
X83533796Y-103062331D01*
X83584091Y-102927483D01*
X83590500Y-102867873D01*
X83590499Y-101172128D01*
X83584575Y-101117023D01*
X88059500Y-101117023D01*
X88059500Y-102812758D01*
X88059501Y-102812764D01*
X88065908Y-102872371D01*
X88116202Y-103007216D01*
X88116203Y-103007217D01*
X88116204Y-103007219D01*
X88202454Y-103122434D01*
X88210980Y-103128816D01*
X88252850Y-103184749D01*
X88257834Y-103254440D01*
X88247153Y-103284377D01*
X88154781Y-103465664D01*
X88091522Y-103660353D01*
X88059500Y-103862536D01*
X88059500Y-104067239D01*
X88091522Y-104269422D01*
X88154781Y-104464111D01*
X88247715Y-104646501D01*
X88368028Y-104812101D01*
X88512786Y-104956859D01*
X88620697Y-105035259D01*
X88678390Y-105077175D01*
X88768209Y-105122940D01*
X88860776Y-105170106D01*
X88860778Y-105170106D01*
X88860781Y-105170108D01*
X88956931Y-105201349D01*
X89055465Y-105233365D01*
X89134740Y-105245921D01*
X89257648Y-105265388D01*
X89257649Y-105265388D01*
X89462351Y-105265388D01*
X89462352Y-105265388D01*
X89664534Y-105233365D01*
X89859219Y-105170108D01*
X90041610Y-105077175D01*
X90136325Y-105008361D01*
X90207213Y-104956859D01*
X90207215Y-104956856D01*
X90207219Y-104956854D01*
X90351966Y-104812107D01*
X90351968Y-104812103D01*
X90351971Y-104812101D01*
X90447633Y-104680431D01*
X90472287Y-104646498D01*
X90565220Y-104464107D01*
X90628477Y-104269422D01*
X90660500Y-104067240D01*
X90660500Y-103862536D01*
X90641024Y-103739571D01*
X90628477Y-103660353D01*
X90567030Y-103471240D01*
X90565220Y-103465669D01*
X90565218Y-103465666D01*
X90565218Y-103465664D01*
X90472847Y-103284377D01*
X90459951Y-103215708D01*
X90486227Y-103150967D01*
X90509026Y-103128812D01*
X90517545Y-103122435D01*
X90518527Y-103121123D01*
X90603796Y-103007219D01*
X90654091Y-102872371D01*
X90660500Y-102812761D01*
X90660499Y-101117016D01*
X90654091Y-101057405D01*
X90640936Y-101022135D01*
X93819500Y-101022135D01*
X93819500Y-102717870D01*
X93819501Y-102717876D01*
X93825908Y-102777483D01*
X93876202Y-102912328D01*
X93876206Y-102912335D01*
X93925523Y-102978213D01*
X93962454Y-103027546D01*
X93971385Y-103034231D01*
X94013254Y-103090163D01*
X94018239Y-103159854D01*
X94007558Y-103189791D01*
X93915245Y-103370965D01*
X93852009Y-103565582D01*
X93820000Y-103767682D01*
X93820000Y-103972317D01*
X93852009Y-104174417D01*
X93915244Y-104369031D01*
X94008141Y-104551350D01*
X94008147Y-104551359D01*
X94040523Y-104595921D01*
X94040524Y-104595922D01*
X94720000Y-103916446D01*
X94720000Y-103922661D01*
X94747259Y-104024394D01*
X94799920Y-104115606D01*
X94874394Y-104190080D01*
X94965606Y-104242741D01*
X95067339Y-104270000D01*
X95073553Y-104270000D01*
X94394076Y-104949474D01*
X94438650Y-104981859D01*
X94620968Y-105074755D01*
X94815582Y-105137990D01*
X95017683Y-105170000D01*
X95222317Y-105170000D01*
X95424417Y-105137990D01*
X95619031Y-105074755D01*
X95801349Y-104981859D01*
X95845921Y-104949474D01*
X95166447Y-104270000D01*
X95172661Y-104270000D01*
X95274394Y-104242741D01*
X95365606Y-104190080D01*
X95440080Y-104115606D01*
X95492741Y-104024394D01*
X95520000Y-103922661D01*
X95520000Y-103916447D01*
X96199474Y-104595921D01*
X96231859Y-104551349D01*
X96324755Y-104369031D01*
X96387990Y-104174417D01*
X96420000Y-103972317D01*
X96420000Y-103767682D01*
X96387990Y-103565582D01*
X96324755Y-103370968D01*
X96232441Y-103189792D01*
X96219545Y-103121123D01*
X96245821Y-103056382D01*
X96268611Y-103034234D01*
X96277546Y-103027546D01*
X96363796Y-102912331D01*
X96414091Y-102777483D01*
X96420500Y-102717873D01*
X96420499Y-101022128D01*
X96414091Y-100962517D01*
X96394200Y-100909187D01*
X96363797Y-100827671D01*
X96363793Y-100827664D01*
X96277547Y-100712455D01*
X96277544Y-100712452D01*
X96162335Y-100626206D01*
X96162328Y-100626202D01*
X96027482Y-100575908D01*
X96027483Y-100575908D01*
X95967883Y-100569501D01*
X95967881Y-100569500D01*
X95967873Y-100569500D01*
X95967865Y-100569500D01*
X95844500Y-100569500D01*
X95777461Y-100549815D01*
X95731706Y-100497011D01*
X95720500Y-100445500D01*
X95720500Y-96127031D01*
X95729939Y-96079578D01*
X95769737Y-95983497D01*
X95800500Y-95828842D01*
X95800500Y-95671158D01*
X95800500Y-95671155D01*
X95800499Y-95671153D01*
X95789041Y-95613551D01*
X95769737Y-95516503D01*
X95769735Y-95516498D01*
X95730371Y-95421463D01*
X95722902Y-95351994D01*
X95754178Y-95289515D01*
X95814267Y-95253863D01*
X95884092Y-95256357D01*
X95913821Y-95270908D01*
X96014821Y-95338394D01*
X96014823Y-95338395D01*
X96014827Y-95338397D01*
X96143801Y-95391819D01*
X96160503Y-95398737D01*
X96284758Y-95423453D01*
X96315153Y-95429499D01*
X96315156Y-95429500D01*
X96315158Y-95429500D01*
X96472844Y-95429500D01*
X96472845Y-95429499D01*
X96627497Y-95398737D01*
X96709094Y-95364938D01*
X96756545Y-95355500D01*
X97353481Y-95355500D01*
X97420520Y-95375185D01*
X97441162Y-95391819D01*
X98323181Y-96273838D01*
X98356666Y-96335161D01*
X98359500Y-96361519D01*
X98359500Y-97088255D01*
X98339815Y-97155294D01*
X98308385Y-97188573D01*
X98212787Y-97258028D01*
X98212782Y-97258032D01*
X98068028Y-97402786D01*
X97947715Y-97568386D01*
X97854781Y-97750776D01*
X97791522Y-97945465D01*
X97759500Y-98147648D01*
X97759500Y-98352351D01*
X97791522Y-98554534D01*
X97854781Y-98749223D01*
X97883068Y-98804738D01*
X97926926Y-98890814D01*
X97947715Y-98931613D01*
X98068028Y-99097213D01*
X98212786Y-99241971D01*
X98360124Y-99349016D01*
X98378390Y-99362287D01*
X98467212Y-99407544D01*
X98560776Y-99455218D01*
X98560778Y-99455218D01*
X98560781Y-99455220D01*
X98653973Y-99485500D01*
X98755465Y-99518477D01*
X98845978Y-99532813D01*
X98957648Y-99550500D01*
X98957649Y-99550500D01*
X99162351Y-99550500D01*
X99162352Y-99550500D01*
X99364534Y-99518477D01*
X99559219Y-99455220D01*
X99740512Y-99362846D01*
X99809178Y-99349950D01*
X99873919Y-99376226D01*
X99896071Y-99399019D01*
X99902455Y-99407547D01*
X100017664Y-99493793D01*
X100017671Y-99493797D01*
X100152517Y-99544091D01*
X100152516Y-99544091D01*
X100159251Y-99544815D01*
X100212127Y-99550500D01*
X101907872Y-99550499D01*
X101967483Y-99544091D01*
X102102331Y-99493796D01*
X102217546Y-99407546D01*
X102303796Y-99292331D01*
X102354091Y-99157483D01*
X102360500Y-99097873D01*
X102360499Y-97402128D01*
X102354091Y-97342517D01*
X102347648Y-97325243D01*
X102303797Y-97207671D01*
X102303793Y-97207664D01*
X102217547Y-97092455D01*
X102217544Y-97092452D01*
X102102335Y-97006206D01*
X102102328Y-97006202D01*
X101967482Y-96955908D01*
X101967483Y-96955908D01*
X101907883Y-96949501D01*
X101907881Y-96949500D01*
X101907873Y-96949500D01*
X101907864Y-96949500D01*
X100212129Y-96949500D01*
X100212123Y-96949501D01*
X100152516Y-96955908D01*
X100017671Y-97006202D01*
X100017668Y-97006204D01*
X99958811Y-97050265D01*
X99893347Y-97074682D01*
X99825074Y-97059830D01*
X99775668Y-97010425D01*
X99760500Y-96950998D01*
X99760500Y-95951004D01*
X99733581Y-95815677D01*
X99733580Y-95815676D01*
X99733580Y-95815672D01*
X99720508Y-95784114D01*
X99680778Y-95688195D01*
X99680774Y-95688188D01*
X99669393Y-95671155D01*
X99642668Y-95631158D01*
X99642668Y-95631157D01*
X99604115Y-95573458D01*
X99604109Y-95573451D01*
X98141545Y-94110887D01*
X98026807Y-94034222D01*
X97899332Y-93981421D01*
X97899322Y-93981418D01*
X97763996Y-93954500D01*
X97763994Y-93954500D01*
X97763993Y-93954500D01*
X96863016Y-93954500D01*
X96795977Y-93934815D01*
X96794206Y-93933655D01*
X96773179Y-93919606D01*
X96773175Y-93919604D01*
X96773171Y-93919602D01*
X96627501Y-93859264D01*
X96627489Y-93859261D01*
X96472845Y-93828500D01*
X96472842Y-93828500D01*
X96315158Y-93828500D01*
X96315155Y-93828500D01*
X96160510Y-93859261D01*
X96160498Y-93859264D01*
X96014827Y-93919602D01*
X96014814Y-93919609D01*
X95883711Y-94007210D01*
X95883707Y-94007213D01*
X95772213Y-94118707D01*
X95772210Y-94118711D01*
X95684609Y-94249814D01*
X95684602Y-94249827D01*
X95624264Y-94395498D01*
X95624261Y-94395510D01*
X95593500Y-94550153D01*
X95593500Y-94707846D01*
X95624261Y-94862489D01*
X95624263Y-94862497D01*
X95654827Y-94936286D01*
X95663629Y-94957536D01*
X95671097Y-95027006D01*
X95639821Y-95089485D01*
X95579732Y-95125137D01*
X95509907Y-95122642D01*
X95480176Y-95108090D01*
X95379185Y-95040609D01*
X95379172Y-95040602D01*
X95233501Y-94980264D01*
X95233489Y-94980261D01*
X95078845Y-94949500D01*
X95078842Y-94949500D01*
X94921158Y-94949500D01*
X94921155Y-94949500D01*
X94766510Y-94980261D01*
X94766498Y-94980264D01*
X94620827Y-95040602D01*
X94620814Y-95040609D01*
X94489711Y-95128210D01*
X94489707Y-95128213D01*
X94378213Y-95239707D01*
X94378210Y-95239711D01*
X94290609Y-95370814D01*
X94290602Y-95370827D01*
X94230264Y-95516498D01*
X94230261Y-95516510D01*
X94199500Y-95671153D01*
X94199500Y-95828846D01*
X94230261Y-95983489D01*
X94230264Y-95983501D01*
X94290602Y-96129172D01*
X94290609Y-96129185D01*
X94378210Y-96260288D01*
X94378213Y-96260292D01*
X94483181Y-96365260D01*
X94516666Y-96426583D01*
X94519500Y-96452941D01*
X94519500Y-100445500D01*
X94499815Y-100512539D01*
X94447011Y-100558294D01*
X94395501Y-100569500D01*
X94272130Y-100569500D01*
X94272123Y-100569501D01*
X94212516Y-100575908D01*
X94077671Y-100626202D01*
X94077664Y-100626206D01*
X93962455Y-100712452D01*
X93962452Y-100712455D01*
X93876206Y-100827664D01*
X93876202Y-100827671D01*
X93825908Y-100962517D01*
X93819686Y-101020398D01*
X93819501Y-101022123D01*
X93819500Y-101022135D01*
X90640936Y-101022135D01*
X90640933Y-101022127D01*
X90603797Y-100922559D01*
X90603793Y-100922552D01*
X90517547Y-100807343D01*
X90517544Y-100807340D01*
X90402335Y-100721094D01*
X90402328Y-100721090D01*
X90267482Y-100670796D01*
X90267483Y-100670796D01*
X90207883Y-100664389D01*
X90207881Y-100664388D01*
X90207873Y-100664388D01*
X90207864Y-100664388D01*
X88512129Y-100664388D01*
X88512123Y-100664389D01*
X88452516Y-100670796D01*
X88317671Y-100721090D01*
X88317664Y-100721094D01*
X88202455Y-100807340D01*
X88202452Y-100807343D01*
X88116206Y-100922552D01*
X88116202Y-100922559D01*
X88065908Y-101057405D01*
X88059501Y-101117004D01*
X88059501Y-101117011D01*
X88059500Y-101117023D01*
X83584575Y-101117023D01*
X83584091Y-101112517D01*
X83563535Y-101057404D01*
X83533797Y-100977671D01*
X83533793Y-100977664D01*
X83447547Y-100862455D01*
X83447544Y-100862452D01*
X83332335Y-100776206D01*
X83332328Y-100776202D01*
X83197482Y-100725908D01*
X83197483Y-100725908D01*
X83137883Y-100719501D01*
X83137881Y-100719500D01*
X83137873Y-100719500D01*
X83137864Y-100719500D01*
X81442129Y-100719500D01*
X81442123Y-100719501D01*
X81382516Y-100725908D01*
X81247671Y-100776202D01*
X81247664Y-100776206D01*
X81132455Y-100862452D01*
X81132452Y-100862455D01*
X81046206Y-100977664D01*
X81046202Y-100977671D01*
X80995908Y-101112517D01*
X80990603Y-101161865D01*
X80989501Y-101172125D01*
X80989500Y-101172135D01*
X78588522Y-101172135D01*
X78654114Y-101106543D01*
X78730775Y-100991811D01*
X78783580Y-100864329D01*
X78789221Y-100835964D01*
X78794915Y-100807345D01*
X78794915Y-100807340D01*
X78810500Y-100728993D01*
X78810500Y-98493541D01*
X78830185Y-98426502D01*
X78882989Y-98380747D01*
X78952147Y-98370803D01*
X79015703Y-98399828D01*
X79037602Y-98424650D01*
X79118210Y-98545288D01*
X79118213Y-98545292D01*
X79229707Y-98656786D01*
X79229711Y-98656789D01*
X79360814Y-98744390D01*
X79360827Y-98744397D01*
X79487795Y-98796988D01*
X79506503Y-98804737D01*
X79661153Y-98835499D01*
X79661156Y-98835500D01*
X79661158Y-98835500D01*
X79818844Y-98835500D01*
X79818845Y-98835499D01*
X79973497Y-98804737D01*
X80107530Y-98749219D01*
X80119172Y-98744397D01*
X80119172Y-98744396D01*
X80119179Y-98744394D01*
X80135715Y-98733345D01*
X80250875Y-98656398D01*
X80317553Y-98635520D01*
X80319766Y-98635500D01*
X82614903Y-98635500D01*
X82681942Y-98655185D01*
X82702584Y-98671819D01*
X83315425Y-99284660D01*
X83348910Y-99345983D01*
X83349361Y-99348149D01*
X83380261Y-99503491D01*
X83380264Y-99503501D01*
X83440602Y-99649172D01*
X83440609Y-99649185D01*
X83528210Y-99780288D01*
X83528213Y-99780292D01*
X83639707Y-99891786D01*
X83639711Y-99891789D01*
X83770814Y-99979390D01*
X83770827Y-99979397D01*
X83886062Y-100027128D01*
X83916503Y-100039737D01*
X84070645Y-100070398D01*
X84071153Y-100070499D01*
X84071156Y-100070500D01*
X84071158Y-100070500D01*
X84228844Y-100070500D01*
X84228845Y-100070499D01*
X84383497Y-100039737D01*
X84515227Y-99985173D01*
X84529172Y-99979397D01*
X84529172Y-99979396D01*
X84529179Y-99979394D01*
X84660289Y-99891789D01*
X84771789Y-99780289D01*
X84859394Y-99649179D01*
X84919737Y-99503497D01*
X84950500Y-99348842D01*
X84950500Y-99279154D01*
X89515001Y-99279154D01*
X89525319Y-99380152D01*
X89579546Y-99543800D01*
X89579551Y-99543811D01*
X89670052Y-99690534D01*
X89670055Y-99690538D01*
X89791961Y-99812444D01*
X89791965Y-99812447D01*
X89938688Y-99902948D01*
X89938699Y-99902953D01*
X90102347Y-99957180D01*
X90203352Y-99967499D01*
X90240000Y-99967499D01*
X90740000Y-99967499D01*
X90776640Y-99967499D01*
X90776654Y-99967498D01*
X90877652Y-99957180D01*
X91041300Y-99902953D01*
X91041311Y-99902948D01*
X91188034Y-99812447D01*
X91188038Y-99812444D01*
X91309944Y-99690538D01*
X91309947Y-99690534D01*
X91400448Y-99543811D01*
X91400453Y-99543800D01*
X91454680Y-99380152D01*
X91464999Y-99279154D01*
X91465000Y-99279141D01*
X91465000Y-99180000D01*
X90740000Y-99180000D01*
X90740000Y-99967499D01*
X90240000Y-99967499D01*
X90240000Y-99180000D01*
X89515001Y-99180000D01*
X89515001Y-99279154D01*
X84950500Y-99279154D01*
X84950500Y-99191158D01*
X84949325Y-99185253D01*
X84944339Y-99160186D01*
X84940719Y-99141988D01*
X84931944Y-99097873D01*
X84919737Y-99036503D01*
X84887257Y-98958088D01*
X84859397Y-98890827D01*
X84859390Y-98890814D01*
X84771789Y-98759711D01*
X84771786Y-98759707D01*
X84660292Y-98648213D01*
X84660288Y-98648210D01*
X84529185Y-98560609D01*
X84529172Y-98560602D01*
X84383501Y-98500264D01*
X84383491Y-98500261D01*
X84228151Y-98469362D01*
X84166241Y-98436977D01*
X84164662Y-98435426D01*
X83402590Y-97673355D01*
X83402588Y-97673352D01*
X83283717Y-97554481D01*
X83283716Y-97554480D01*
X83196904Y-97504360D01*
X83196904Y-97504359D01*
X83196900Y-97504358D01*
X83146785Y-97475423D01*
X82994057Y-97434499D01*
X82835943Y-97434499D01*
X82828347Y-97434499D01*
X82828331Y-97434500D01*
X80319766Y-97434500D01*
X80252727Y-97414815D01*
X80250875Y-97413602D01*
X80119185Y-97325609D01*
X80119172Y-97325602D01*
X79973501Y-97265264D01*
X79973489Y-97265261D01*
X79818845Y-97234500D01*
X79818842Y-97234500D01*
X79661158Y-97234500D01*
X79661155Y-97234500D01*
X79506510Y-97265261D01*
X79506498Y-97265264D01*
X79360827Y-97325602D01*
X79360814Y-97325609D01*
X79229711Y-97413210D01*
X79229707Y-97413213D01*
X79118213Y-97524707D01*
X79118210Y-97524711D01*
X79037602Y-97645349D01*
X78983989Y-97690154D01*
X78914664Y-97698861D01*
X78851637Y-97668706D01*
X78814918Y-97609263D01*
X78810500Y-97576458D01*
X78810500Y-96885316D01*
X78819939Y-96837864D01*
X78879735Y-96693501D01*
X78879737Y-96693497D01*
X78910500Y-96538842D01*
X78910500Y-96381158D01*
X78910500Y-96381155D01*
X78910499Y-96381153D01*
X78907338Y-96365260D01*
X78879737Y-96226503D01*
X78860682Y-96180500D01*
X78819397Y-96080827D01*
X78819390Y-96080814D01*
X78731789Y-95949711D01*
X78731786Y-95949707D01*
X78620292Y-95838213D01*
X78620288Y-95838210D01*
X78489185Y-95750609D01*
X78489172Y-95750602D01*
X78343501Y-95690264D01*
X78343489Y-95690261D01*
X78188845Y-95659500D01*
X78188842Y-95659500D01*
X78031158Y-95659500D01*
X78031155Y-95659500D01*
X77876510Y-95690261D01*
X77876498Y-95690264D01*
X77730827Y-95750602D01*
X77730814Y-95750609D01*
X77599711Y-95838210D01*
X77599707Y-95838213D01*
X77488213Y-95949707D01*
X77488210Y-95949711D01*
X77400609Y-96080814D01*
X77400602Y-96080827D01*
X77340264Y-96226498D01*
X77340261Y-96226510D01*
X77309500Y-96381153D01*
X77309500Y-96538846D01*
X77340261Y-96693489D01*
X77340264Y-96693501D01*
X77400061Y-96837864D01*
X77409500Y-96885316D01*
X77409500Y-98796988D01*
X77389815Y-98864027D01*
X77337011Y-98909782D01*
X77267853Y-98919726D01*
X77236254Y-98910790D01*
X77230394Y-98908254D01*
X77072573Y-98862402D01*
X77072567Y-98862401D01*
X77035701Y-98859500D01*
X77035694Y-98859500D01*
X75879306Y-98859500D01*
X75879298Y-98859500D01*
X75842432Y-98862401D01*
X75842426Y-98862402D01*
X75684606Y-98908254D01*
X75684603Y-98908255D01*
X75543137Y-98991917D01*
X75543129Y-98991923D01*
X75426923Y-99108129D01*
X75426914Y-99108140D01*
X75426729Y-99108455D01*
X75426519Y-99108650D01*
X75422139Y-99114298D01*
X75421227Y-99113591D01*
X75375657Y-99156136D01*
X75306915Y-99168637D01*
X75242327Y-99141988D01*
X75218143Y-99114078D01*
X75217861Y-99114298D01*
X75213823Y-99109092D01*
X75213271Y-99108455D01*
X75213085Y-99108140D01*
X75213076Y-99108129D01*
X75096870Y-98991923D01*
X75096862Y-98991917D01*
X74960484Y-98911264D01*
X74955398Y-98908256D01*
X74955397Y-98908255D01*
X74955396Y-98908255D01*
X74955393Y-98908254D01*
X74797573Y-98862402D01*
X74797567Y-98862401D01*
X74760701Y-98859500D01*
X74760694Y-98859500D01*
X73604306Y-98859500D01*
X73604298Y-98859500D01*
X73567432Y-98862401D01*
X73567426Y-98862402D01*
X73409606Y-98908254D01*
X73409605Y-98908254D01*
X73293124Y-98977140D01*
X73265521Y-98984142D01*
X73238850Y-98994091D01*
X73232099Y-98992622D01*
X73225400Y-98994322D01*
X73198396Y-98985290D01*
X73170577Y-98979239D01*
X73162724Y-98973360D01*
X73159138Y-98972161D01*
X73142323Y-98958088D01*
X73131818Y-98947583D01*
X73098333Y-98886260D01*
X73095499Y-98859902D01*
X73095499Y-98485830D01*
X73095498Y-98485813D01*
X73085174Y-98384747D01*
X73030908Y-98220984D01*
X72940340Y-98074150D01*
X72818350Y-97952160D01*
X72671516Y-97861592D01*
X72507753Y-97807326D01*
X72507751Y-97807325D01*
X72406678Y-97797000D01*
X71833330Y-97797000D01*
X71833312Y-97797001D01*
X71732247Y-97807325D01*
X71568484Y-97861592D01*
X71568481Y-97861593D01*
X71421648Y-97952161D01*
X71299661Y-98074148D01*
X71209093Y-98220981D01*
X71209091Y-98220986D01*
X71193348Y-98268497D01*
X71154826Y-98384747D01*
X71154826Y-98384748D01*
X71154825Y-98384748D01*
X71144500Y-98485815D01*
X71144500Y-99084169D01*
X71144501Y-99084187D01*
X71154825Y-99185252D01*
X71185942Y-99279154D01*
X71209034Y-99348842D01*
X71209092Y-99349015D01*
X71209093Y-99349018D01*
X71217623Y-99362847D01*
X71298391Y-99493793D01*
X71299661Y-99495851D01*
X71413629Y-99609819D01*
X71447114Y-99671142D01*
X71442130Y-99740834D01*
X71413629Y-99785181D01*
X71299661Y-99899148D01*
X71209093Y-100045981D01*
X71209092Y-100045984D01*
X71154826Y-100209747D01*
X71154826Y-100209748D01*
X71154825Y-100209748D01*
X71144500Y-100310815D01*
X71144500Y-100909169D01*
X71144501Y-100909187D01*
X71154825Y-101010252D01*
X71188713Y-101112516D01*
X71208466Y-101172128D01*
X71209092Y-101174015D01*
X71209093Y-101174018D01*
X71280572Y-101289903D01*
X71299012Y-101357296D01*
X71280572Y-101420097D01*
X71209093Y-101535981D01*
X71209091Y-101535986D01*
X71181719Y-101618588D01*
X71154826Y-101699747D01*
X71154826Y-101699748D01*
X71154825Y-101699748D01*
X71144500Y-101800815D01*
X71144500Y-101942059D01*
X71124815Y-102009098D01*
X71108181Y-102029740D01*
X70159712Y-102978209D01*
X70159711Y-102978211D01*
X70130706Y-103007216D01*
X70101679Y-103036242D01*
X70040355Y-103069726D01*
X69970663Y-103064740D01*
X69914731Y-103022868D01*
X69890315Y-102957403D01*
X69889999Y-102948558D01*
X69890000Y-102815000D01*
X63090001Y-102815000D01*
X63090001Y-103889988D01*
X63100494Y-103992699D01*
X63155640Y-104159120D01*
X63155642Y-104159125D01*
X63247683Y-104308346D01*
X63371653Y-104432316D01*
X63520874Y-104524357D01*
X63520879Y-104524359D01*
X63687302Y-104579506D01*
X63687300Y-104579506D01*
X63746134Y-104585516D01*
X63746137Y-104585516D01*
X63796305Y-104590642D01*
X63803461Y-104591373D01*
X63811419Y-104590000D01*
X63841375Y-104590000D01*
X63841384Y-104589999D01*
X64138561Y-104589999D01*
X64205600Y-104609684D01*
X64251355Y-104662488D01*
X64261299Y-104731646D01*
X64232274Y-104795202D01*
X64226242Y-104801680D01*
X63699711Y-105328211D01*
X63665853Y-105362069D01*
X63588209Y-105439712D01*
X63500609Y-105570814D01*
X63500604Y-105570824D01*
X63455264Y-105680285D01*
X63411423Y-105734688D01*
X63405803Y-105738368D01*
X63391349Y-105747283D01*
X63391343Y-105747288D01*
X63267289Y-105871342D01*
X63175187Y-106020663D01*
X63175186Y-106020666D01*
X63120001Y-106187203D01*
X63120001Y-106187204D01*
X63120000Y-106187204D01*
X63109500Y-106289983D01*
X63109500Y-108090001D01*
X63109501Y-108090018D01*
X63120000Y-108192796D01*
X63120001Y-108192799D01*
X63175185Y-108359331D01*
X63175187Y-108359336D01*
X63175245Y-108359430D01*
X63267287Y-108508655D01*
X63267289Y-108508657D01*
X63301451Y-108542819D01*
X63334936Y-108604142D01*
X63329952Y-108673834D01*
X63288080Y-108729767D01*
X63222616Y-108754184D01*
X63213770Y-108754500D01*
X60624500Y-108754500D01*
X60557461Y-108734815D01*
X60511706Y-108682011D01*
X60500500Y-108630500D01*
X60500500Y-102314999D01*
X63090000Y-102314999D01*
X63090002Y-102315000D01*
X64715000Y-102315000D01*
X65215000Y-102315000D01*
X67765000Y-102315000D01*
X68265000Y-102315000D01*
X69889999Y-102315000D01*
X69889999Y-101140000D01*
X68265000Y-101140000D01*
X68265000Y-102315000D01*
X67765000Y-102315000D01*
X67765000Y-101140000D01*
X65215000Y-101140000D01*
X65215000Y-102315000D01*
X64715000Y-102315000D01*
X64715000Y-101140000D01*
X63090000Y-101140000D01*
X63090000Y-102314999D01*
X60500500Y-102314999D01*
X60500500Y-100640000D01*
X63090000Y-100640000D01*
X64715000Y-100640000D01*
X65215000Y-100640000D01*
X66240000Y-100640000D01*
X66740000Y-100640000D01*
X67765000Y-100640000D01*
X68265000Y-100640000D01*
X69889999Y-100640000D01*
X69889999Y-100546113D01*
X69890000Y-100546092D01*
X69890000Y-99465000D01*
X68265000Y-99465000D01*
X68265000Y-100640000D01*
X67765000Y-100640000D01*
X67765000Y-99465000D01*
X66740000Y-99465000D01*
X66740000Y-100640000D01*
X66240000Y-100640000D01*
X66240000Y-99465000D01*
X65215000Y-99465000D01*
X65215000Y-100640000D01*
X64715000Y-100640000D01*
X64715000Y-99465000D01*
X63090000Y-99465000D01*
X63090000Y-100640000D01*
X60500500Y-100640000D01*
X60500500Y-97890011D01*
X63090000Y-97890011D01*
X63090000Y-98965000D01*
X64715000Y-98965000D01*
X65215000Y-98965000D01*
X66240000Y-98965000D01*
X66740000Y-98965000D01*
X67765000Y-98965000D01*
X68265000Y-98965000D01*
X69889999Y-98965000D01*
X69889999Y-97890028D01*
X69889998Y-97890013D01*
X69880148Y-97793589D01*
X69879976Y-97790219D01*
X69879505Y-97787300D01*
X69824359Y-97620879D01*
X69824357Y-97620874D01*
X69732316Y-97471653D01*
X69608346Y-97347683D01*
X69459125Y-97255642D01*
X69459120Y-97255640D01*
X69292698Y-97200494D01*
X69189988Y-97190000D01*
X68265000Y-97190000D01*
X68265000Y-98965000D01*
X67765000Y-98965000D01*
X67765000Y-97190000D01*
X66740000Y-97190000D01*
X66740000Y-98965000D01*
X66240000Y-98965000D01*
X66240000Y-97190000D01*
X65215000Y-97190000D01*
X65215000Y-98965000D01*
X64715000Y-98965000D01*
X64715000Y-97190000D01*
X63789197Y-97190000D01*
X63786364Y-97190374D01*
X63687300Y-97200494D01*
X63520879Y-97255640D01*
X63520874Y-97255642D01*
X63371653Y-97347683D01*
X63247683Y-97471653D01*
X63155642Y-97620874D01*
X63155640Y-97620879D01*
X63100494Y-97787301D01*
X63090000Y-97890011D01*
X60500500Y-97890011D01*
X60500500Y-88852135D01*
X64089500Y-88852135D01*
X64089500Y-90647870D01*
X64089501Y-90647876D01*
X64095908Y-90707483D01*
X64146202Y-90842328D01*
X64146206Y-90842335D01*
X64232452Y-90957544D01*
X64232455Y-90957547D01*
X64347664Y-91043793D01*
X64347671Y-91043797D01*
X64347674Y-91043798D01*
X64479598Y-91093002D01*
X64535531Y-91134873D01*
X64559949Y-91200337D01*
X64545098Y-91268610D01*
X64523947Y-91296865D01*
X64410271Y-91410541D01*
X64285379Y-91582442D01*
X64188904Y-91771782D01*
X64123242Y-91973870D01*
X64123242Y-91973873D01*
X64112769Y-92040000D01*
X65006988Y-92040000D01*
X64974075Y-92097007D01*
X64940000Y-92224174D01*
X64940000Y-92355826D01*
X64974075Y-92482993D01*
X65006988Y-92540000D01*
X64112769Y-92540000D01*
X64123242Y-92606126D01*
X64123242Y-92606129D01*
X64188904Y-92808217D01*
X64285379Y-92997557D01*
X64410272Y-93169459D01*
X64410276Y-93169464D01*
X64560535Y-93319723D01*
X64560540Y-93319727D01*
X64732444Y-93444622D01*
X64741495Y-93449234D01*
X64792292Y-93497208D01*
X64809087Y-93565029D01*
X64786550Y-93631164D01*
X64741499Y-93670202D01*
X64732182Y-93674949D01*
X64560213Y-93799890D01*
X64409890Y-93950213D01*
X64284951Y-94122179D01*
X64188444Y-94311585D01*
X64122753Y-94513760D01*
X64089500Y-94723713D01*
X64089500Y-94936286D01*
X64121652Y-95139289D01*
X64122754Y-95146243D01*
X64182727Y-95330821D01*
X64188444Y-95348414D01*
X64284951Y-95537820D01*
X64409890Y-95709786D01*
X64560213Y-95860109D01*
X64732179Y-95985048D01*
X64732181Y-95985049D01*
X64732184Y-95985051D01*
X64921588Y-96081557D01*
X65123757Y-96147246D01*
X65333713Y-96180500D01*
X65333714Y-96180500D01*
X65546286Y-96180500D01*
X65546287Y-96180500D01*
X65756243Y-96147246D01*
X65958412Y-96081557D01*
X66147816Y-95985051D01*
X66246187Y-95913581D01*
X66319786Y-95860109D01*
X66319788Y-95860106D01*
X66319792Y-95860104D01*
X66470104Y-95709792D01*
X66470106Y-95709788D01*
X66470109Y-95709786D01*
X66595048Y-95537820D01*
X66595047Y-95537820D01*
X66595051Y-95537816D01*
X66691557Y-95348412D01*
X66757246Y-95146243D01*
X66790500Y-94936287D01*
X66790500Y-94723713D01*
X66757246Y-94513757D01*
X66691557Y-94311588D01*
X66595051Y-94122184D01*
X66595049Y-94122181D01*
X66595048Y-94122179D01*
X66470109Y-93950213D01*
X66319786Y-93799890D01*
X66147817Y-93674949D01*
X66138504Y-93670204D01*
X66087707Y-93622230D01*
X66070912Y-93554409D01*
X66093449Y-93488274D01*
X66138507Y-93449232D01*
X66147558Y-93444620D01*
X66319459Y-93319727D01*
X66319464Y-93319723D01*
X66469723Y-93169464D01*
X66469727Y-93169459D01*
X66594620Y-92997557D01*
X66691095Y-92808217D01*
X66756757Y-92606129D01*
X66756757Y-92606126D01*
X66767231Y-92540000D01*
X65873012Y-92540000D01*
X65905925Y-92482993D01*
X65940000Y-92355826D01*
X65940000Y-92224174D01*
X65905925Y-92097007D01*
X65873012Y-92040000D01*
X66767231Y-92040000D01*
X66756757Y-91973873D01*
X66756757Y-91973870D01*
X66691095Y-91771782D01*
X66594620Y-91582442D01*
X66469727Y-91410540D01*
X66469723Y-91410535D01*
X66356053Y-91296865D01*
X66322568Y-91235542D01*
X66327552Y-91165850D01*
X66369424Y-91109917D01*
X66400400Y-91093002D01*
X66532331Y-91043796D01*
X66647546Y-90957546D01*
X66733796Y-90842331D01*
X66784091Y-90707483D01*
X66790500Y-90647873D01*
X66790499Y-88852128D01*
X66784091Y-88792517D01*
X66776294Y-88771613D01*
X66733797Y-88657671D01*
X66733793Y-88657664D01*
X66647547Y-88542455D01*
X66647544Y-88542452D01*
X66532335Y-88456206D01*
X66532328Y-88456202D01*
X66397482Y-88405908D01*
X66397483Y-88405908D01*
X66337883Y-88399501D01*
X66337881Y-88399500D01*
X66337873Y-88399500D01*
X66337864Y-88399500D01*
X64542129Y-88399500D01*
X64542123Y-88399501D01*
X64482516Y-88405908D01*
X64347671Y-88456202D01*
X64347664Y-88456206D01*
X64232455Y-88542452D01*
X64232452Y-88542455D01*
X64146206Y-88657664D01*
X64146202Y-88657671D01*
X64095908Y-88792517D01*
X64090985Y-88838312D01*
X64089501Y-88852123D01*
X64089500Y-88852135D01*
X60500500Y-88852135D01*
X60500500Y-85567478D01*
X60520185Y-85500439D01*
X60572989Y-85454684D01*
X60642147Y-85444740D01*
X60705703Y-85473765D01*
X60712184Y-85479799D01*
X60727564Y-85495180D01*
X60981995Y-85703986D01*
X61255672Y-85886851D01*
X61255690Y-85886862D01*
X61545955Y-86042012D01*
X61545960Y-86042014D01*
X61850053Y-86167974D01*
X62165038Y-86263524D01*
X62165043Y-86263525D01*
X62487860Y-86327738D01*
X62815428Y-86360000D01*
X63144572Y-86360000D01*
X63472139Y-86327738D01*
X63794956Y-86263525D01*
X63794961Y-86263524D01*
X64109946Y-86167974D01*
X64414039Y-86042014D01*
X64414044Y-86042012D01*
X64704309Y-85886862D01*
X64704327Y-85886851D01*
X64832583Y-85801153D01*
X67229500Y-85801153D01*
X67229500Y-85958846D01*
X67260261Y-86113489D01*
X67260264Y-86113501D01*
X67320602Y-86259172D01*
X67320609Y-86259185D01*
X67408210Y-86390288D01*
X67408213Y-86390292D01*
X67519707Y-86501786D01*
X67519711Y-86501789D01*
X67650814Y-86589390D01*
X67650827Y-86589397D01*
X67796498Y-86649735D01*
X67796503Y-86649737D01*
X67951153Y-86680499D01*
X67951156Y-86680500D01*
X68079480Y-86680500D01*
X68146519Y-86700185D01*
X68192274Y-86752989D01*
X68202218Y-86822147D01*
X68173193Y-86885703D01*
X68167161Y-86892181D01*
X68115888Y-86943453D01*
X68115885Y-86943456D01*
X68050135Y-87041860D01*
X68039225Y-87058188D01*
X67986420Y-87185671D01*
X67986418Y-87185677D01*
X67959500Y-87321004D01*
X67959500Y-87321007D01*
X67959500Y-89821006D01*
X67959500Y-89958994D01*
X67959500Y-89958996D01*
X67959499Y-89958996D01*
X67986418Y-90094322D01*
X67986421Y-90094332D01*
X68039222Y-90221807D01*
X68115887Y-90336545D01*
X68738454Y-90959112D01*
X68738457Y-90959114D01*
X68846782Y-91031494D01*
X68853189Y-91035775D01*
X68853192Y-91035776D01*
X68853195Y-91035778D01*
X68980667Y-91088578D01*
X68980672Y-91088580D01*
X68980676Y-91088580D01*
X68980677Y-91088581D01*
X69116004Y-91115500D01*
X69116007Y-91115500D01*
X69814684Y-91115500D01*
X69862136Y-91124939D01*
X69960905Y-91165850D01*
X70006503Y-91184737D01*
X70114173Y-91206154D01*
X70161153Y-91215499D01*
X70161156Y-91215500D01*
X70161158Y-91215500D01*
X70318844Y-91215500D01*
X70318845Y-91215499D01*
X70473497Y-91184737D01*
X70619179Y-91124394D01*
X70750289Y-91036789D01*
X70861789Y-90925289D01*
X70949394Y-90794179D01*
X71009737Y-90648497D01*
X71040500Y-90493842D01*
X71040500Y-90336158D01*
X71040500Y-90336155D01*
X71029617Y-90281445D01*
X71035844Y-90211853D01*
X71078707Y-90156676D01*
X71144596Y-90133431D01*
X71212593Y-90149498D01*
X71238915Y-90169572D01*
X76223453Y-95154111D01*
X76223454Y-95154112D01*
X76223457Y-95154114D01*
X76337771Y-95230496D01*
X76337775Y-95230500D01*
X76337776Y-95230499D01*
X76338190Y-95230776D01*
X76447278Y-95275961D01*
X76465672Y-95283580D01*
X76465676Y-95283580D01*
X76465677Y-95283581D01*
X76601004Y-95310500D01*
X76601007Y-95310500D01*
X81808994Y-95310500D01*
X81822151Y-95307882D01*
X81846343Y-95305500D01*
X82544684Y-95305500D01*
X82592136Y-95314939D01*
X82672948Y-95348412D01*
X82736503Y-95374737D01*
X82891153Y-95405499D01*
X82891156Y-95405500D01*
X82891158Y-95405500D01*
X83048844Y-95405500D01*
X83048845Y-95405499D01*
X83203497Y-95374737D01*
X83338431Y-95318846D01*
X83349172Y-95314397D01*
X83349172Y-95314396D01*
X83349179Y-95314394D01*
X83480289Y-95226789D01*
X83591789Y-95115289D01*
X83679394Y-94984179D01*
X83739737Y-94838497D01*
X83770500Y-94683842D01*
X83770500Y-94526158D01*
X83770500Y-94526155D01*
X83770499Y-94526153D01*
X83739738Y-94371507D01*
X83739735Y-94371498D01*
X83679397Y-94225827D01*
X83679390Y-94225814D01*
X83591789Y-94094711D01*
X83591786Y-94094707D01*
X83480292Y-93983213D01*
X83480288Y-93983210D01*
X83349185Y-93895609D01*
X83349172Y-93895602D01*
X83203501Y-93835264D01*
X83203489Y-93835261D01*
X83048845Y-93804500D01*
X83048842Y-93804500D01*
X82891158Y-93804500D01*
X82891155Y-93804500D01*
X82736510Y-93835261D01*
X82736498Y-93835264D01*
X82592136Y-93895061D01*
X82583959Y-93896687D01*
X82579619Y-93899477D01*
X82544684Y-93904500D01*
X82452097Y-93904500D01*
X82385058Y-93884815D01*
X82339303Y-93832011D01*
X82329359Y-93762853D01*
X82358384Y-93699297D01*
X82364416Y-93692819D01*
X83436916Y-92620319D01*
X83498239Y-92586834D01*
X83524597Y-92584000D01*
X85880500Y-92584000D01*
X85947539Y-92603685D01*
X85993294Y-92656489D01*
X86004500Y-92708000D01*
X86004500Y-93219188D01*
X86004651Y-93222141D01*
X85988394Y-93290093D01*
X85949706Y-93331532D01*
X85939712Y-93338210D01*
X85939704Y-93338217D01*
X85828213Y-93449707D01*
X85828210Y-93449711D01*
X85740609Y-93580814D01*
X85740602Y-93580827D01*
X85680264Y-93726498D01*
X85680261Y-93726510D01*
X85649500Y-93881153D01*
X85649500Y-94038846D01*
X85680261Y-94193489D01*
X85680264Y-94193501D01*
X85740602Y-94339172D01*
X85740609Y-94339185D01*
X85828210Y-94470288D01*
X85828213Y-94470292D01*
X85939707Y-94581786D01*
X85939711Y-94581789D01*
X86070814Y-94669390D01*
X86070827Y-94669397D01*
X86216498Y-94729735D01*
X86216503Y-94729737D01*
X86286032Y-94743567D01*
X86325519Y-94751422D01*
X86387430Y-94783807D01*
X86422004Y-94844522D01*
X86418265Y-94914292D01*
X86415890Y-94920491D01*
X86380263Y-95006503D01*
X86380262Y-95006506D01*
X86380262Y-95006507D01*
X86380261Y-95006510D01*
X86349500Y-95161153D01*
X86349500Y-95318846D01*
X86380261Y-95473489D01*
X86380264Y-95473501D01*
X86440602Y-95619172D01*
X86440609Y-95619185D01*
X86528210Y-95750288D01*
X86528213Y-95750292D01*
X86639707Y-95861786D01*
X86639711Y-95861789D01*
X86770814Y-95949390D01*
X86770827Y-95949397D01*
X86885678Y-95996969D01*
X86916503Y-96009737D01*
X87070188Y-96040307D01*
X87071153Y-96040499D01*
X87071156Y-96040500D01*
X87071158Y-96040500D01*
X87228844Y-96040500D01*
X87228845Y-96040499D01*
X87383497Y-96009737D01*
X87462969Y-95976819D01*
X87527864Y-95949939D01*
X87575316Y-95940500D01*
X89268481Y-95940500D01*
X89297921Y-95949144D01*
X89327908Y-95955668D01*
X89332923Y-95959422D01*
X89335520Y-95960185D01*
X89356162Y-95976819D01*
X89483928Y-96104585D01*
X89510808Y-96144814D01*
X89570602Y-96289172D01*
X89570608Y-96289183D01*
X89627576Y-96374442D01*
X89648453Y-96441119D01*
X89630012Y-96508428D01*
X89579095Y-96590977D01*
X89579091Y-96590986D01*
X89561274Y-96644756D01*
X89524826Y-96754747D01*
X89524826Y-96754748D01*
X89524825Y-96754748D01*
X89514500Y-96855815D01*
X89514500Y-97554169D01*
X89514501Y-97554187D01*
X89524825Y-97655252D01*
X89530823Y-97673352D01*
X89579092Y-97819016D01*
X89669659Y-97965849D01*
X89669661Y-97965851D01*
X89683982Y-97980172D01*
X89717467Y-98041495D01*
X89712483Y-98111187D01*
X89683985Y-98155532D01*
X89670052Y-98169465D01*
X89579551Y-98316188D01*
X89579546Y-98316199D01*
X89525319Y-98479847D01*
X89515000Y-98580845D01*
X89515000Y-98680000D01*
X91464999Y-98680000D01*
X91464999Y-98580860D01*
X91464998Y-98580845D01*
X91454680Y-98479847D01*
X91400453Y-98316199D01*
X91400448Y-98316188D01*
X91309947Y-98169465D01*
X91309944Y-98169461D01*
X91296017Y-98155534D01*
X91262532Y-98094211D01*
X91267516Y-98024519D01*
X91296017Y-97980172D01*
X91310340Y-97965850D01*
X91400908Y-97819016D01*
X91455174Y-97655253D01*
X91465500Y-97554177D01*
X91465499Y-96855824D01*
X91465158Y-96852489D01*
X91455174Y-96754747D01*
X91434879Y-96693501D01*
X91400908Y-96590984D01*
X91310340Y-96444150D01*
X91188350Y-96322160D01*
X91106556Y-96271709D01*
X91091721Y-96255215D01*
X91073729Y-96242241D01*
X91068812Y-96229745D01*
X91059834Y-96219763D01*
X91056270Y-96197868D01*
X91048148Y-96177223D01*
X91049328Y-96155209D01*
X91048611Y-96150800D01*
X91050033Y-96142004D01*
X91070263Y-96040307D01*
X91102649Y-95978397D01*
X91163365Y-95943823D01*
X91191880Y-95940500D01*
X91838996Y-95940500D01*
X91930040Y-95922389D01*
X91974328Y-95913580D01*
X92071706Y-95873245D01*
X92101807Y-95860777D01*
X92101808Y-95860776D01*
X92101811Y-95860775D01*
X92216543Y-95784114D01*
X92964114Y-95036543D01*
X93040775Y-94921811D01*
X93040846Y-94921641D01*
X93077563Y-94832996D01*
X93093580Y-94794328D01*
X93120500Y-94658994D01*
X93120500Y-94521006D01*
X93120500Y-92011519D01*
X93140185Y-91944480D01*
X93156819Y-91923838D01*
X93381338Y-91699319D01*
X93442661Y-91665834D01*
X93469019Y-91663000D01*
X93977948Y-91663000D01*
X94044987Y-91682685D01*
X94065629Y-91699319D01*
X94161650Y-91795340D01*
X94308484Y-91885908D01*
X94472247Y-91940174D01*
X94573323Y-91950500D01*
X95146676Y-91950499D01*
X95146684Y-91950498D01*
X95146687Y-91950498D01*
X95205599Y-91944480D01*
X95247753Y-91940174D01*
X95411516Y-91885908D01*
X95558350Y-91795340D01*
X95680340Y-91673350D01*
X95770908Y-91526516D01*
X95825174Y-91362753D01*
X95835500Y-91261677D01*
X95835499Y-90663324D01*
X95833984Y-90648497D01*
X95825174Y-90562247D01*
X95815665Y-90533551D01*
X95770908Y-90398484D01*
X95680340Y-90251650D01*
X95566371Y-90137681D01*
X95532886Y-90076358D01*
X95537870Y-90006666D01*
X95566371Y-89962319D01*
X95569696Y-89958994D01*
X95680340Y-89848350D01*
X95770908Y-89701516D01*
X95825174Y-89537753D01*
X95835500Y-89436677D01*
X95835499Y-88838324D01*
X95828684Y-88771613D01*
X95825174Y-88737247D01*
X95806376Y-88680520D01*
X95770908Y-88573484D01*
X95680340Y-88426650D01*
X95558350Y-88304660D01*
X95558349Y-88304659D01*
X95558346Y-88304656D01*
X95552684Y-88300179D01*
X95553668Y-88298934D01*
X95552577Y-88297721D01*
X95543297Y-88293483D01*
X95529606Y-88272179D01*
X95512676Y-88253355D01*
X95510032Y-88241722D01*
X95505523Y-88234705D01*
X95500500Y-88199770D01*
X95500500Y-87987648D01*
X97779500Y-87987648D01*
X97779500Y-88192352D01*
X97780149Y-88196448D01*
X97811522Y-88394534D01*
X97874781Y-88589223D01*
X97909657Y-88657669D01*
X97964763Y-88765821D01*
X97967715Y-88771613D01*
X98088028Y-88937213D01*
X98232786Y-89081971D01*
X98381409Y-89189950D01*
X98398390Y-89202287D01*
X98510677Y-89259500D01*
X98580776Y-89295218D01*
X98580778Y-89295218D01*
X98580781Y-89295220D01*
X98673973Y-89325500D01*
X98775465Y-89358477D01*
X98874325Y-89374135D01*
X98977648Y-89390500D01*
X98977649Y-89390500D01*
X99182351Y-89390500D01*
X99182352Y-89390500D01*
X99384534Y-89358477D01*
X99579219Y-89295220D01*
X99760512Y-89202846D01*
X99829178Y-89189950D01*
X99893919Y-89216226D01*
X99916071Y-89239019D01*
X99922455Y-89247547D01*
X100037664Y-89333793D01*
X100037671Y-89333797D01*
X100172517Y-89384091D01*
X100172516Y-89384091D01*
X100179444Y-89384835D01*
X100232127Y-89390500D01*
X101927872Y-89390499D01*
X101987483Y-89384091D01*
X102122331Y-89333796D01*
X102237546Y-89247546D01*
X102323796Y-89132331D01*
X102374091Y-88997483D01*
X102380500Y-88937873D01*
X102380499Y-87242128D01*
X102374091Y-87182517D01*
X102367648Y-87165243D01*
X102323797Y-87047671D01*
X102323793Y-87047664D01*
X102237547Y-86932455D01*
X102237544Y-86932452D01*
X102122335Y-86846206D01*
X102122328Y-86846202D01*
X101987482Y-86795908D01*
X101987483Y-86795908D01*
X101927883Y-86789501D01*
X101927881Y-86789500D01*
X101927873Y-86789500D01*
X101927864Y-86789500D01*
X100232129Y-86789500D01*
X100232123Y-86789501D01*
X100172516Y-86795908D01*
X100037671Y-86846202D01*
X100037664Y-86846206D01*
X99922457Y-86932451D01*
X99922450Y-86932457D01*
X99916069Y-86940982D01*
X99860134Y-86982851D01*
X99790442Y-86987832D01*
X99760510Y-86977152D01*
X99579223Y-86884781D01*
X99384534Y-86821522D01*
X99209995Y-86793878D01*
X99182352Y-86789500D01*
X98977648Y-86789500D01*
X98953329Y-86793351D01*
X98775465Y-86821522D01*
X98580776Y-86884781D01*
X98398386Y-86977715D01*
X98232786Y-87098028D01*
X98088028Y-87242786D01*
X97967715Y-87408386D01*
X97874781Y-87590776D01*
X97811522Y-87785465D01*
X97793692Y-87898042D01*
X97779500Y-87987648D01*
X95500500Y-87987648D01*
X95500500Y-86901439D01*
X95520185Y-86834400D01*
X95572989Y-86788645D01*
X95581168Y-86785257D01*
X95692326Y-86743798D01*
X95692326Y-86743797D01*
X95692331Y-86743796D01*
X95807546Y-86657546D01*
X95893796Y-86542331D01*
X95944091Y-86407483D01*
X95950500Y-86347873D01*
X95950499Y-84652128D01*
X95944091Y-84592517D01*
X95905685Y-84489546D01*
X95893797Y-84457671D01*
X95893793Y-84457664D01*
X95807547Y-84342455D01*
X95807544Y-84342452D01*
X95692335Y-84256206D01*
X95692328Y-84256202D01*
X95557482Y-84205908D01*
X95557483Y-84205908D01*
X95497883Y-84199501D01*
X95497881Y-84199500D01*
X95497873Y-84199500D01*
X95497864Y-84199500D01*
X95494548Y-84199322D01*
X95494632Y-84197742D01*
X95433579Y-84179815D01*
X95387824Y-84127011D01*
X95380173Y-84083725D01*
X94696447Y-83400000D01*
X94702661Y-83400000D01*
X94804394Y-83372741D01*
X94895606Y-83320080D01*
X94970080Y-83245606D01*
X95022741Y-83154394D01*
X95050000Y-83052661D01*
X95050000Y-83046447D01*
X95729474Y-83725921D01*
X95761859Y-83681349D01*
X95854755Y-83499031D01*
X95917990Y-83304417D01*
X95950000Y-83102317D01*
X95950000Y-82897682D01*
X95917990Y-82695582D01*
X95854755Y-82500968D01*
X95761859Y-82318650D01*
X95729474Y-82274077D01*
X95729474Y-82274076D01*
X95050000Y-82953551D01*
X95050000Y-82947339D01*
X95022741Y-82845606D01*
X94970080Y-82754394D01*
X94895606Y-82679920D01*
X94804394Y-82627259D01*
X94702661Y-82600000D01*
X94696446Y-82600000D01*
X95375922Y-81920524D01*
X95375921Y-81920523D01*
X95331359Y-81888147D01*
X95331350Y-81888141D01*
X95149031Y-81795244D01*
X94954417Y-81732009D01*
X94752317Y-81700000D01*
X94547683Y-81700000D01*
X94345582Y-81732009D01*
X94150968Y-81795244D01*
X93968644Y-81888143D01*
X93924077Y-81920523D01*
X93924077Y-81920524D01*
X94603554Y-82600000D01*
X94597339Y-82600000D01*
X94495606Y-82627259D01*
X94404394Y-82679920D01*
X94329920Y-82754394D01*
X94277259Y-82845606D01*
X94250000Y-82947339D01*
X94250000Y-82953553D01*
X93570524Y-82274077D01*
X93570523Y-82274077D01*
X93538143Y-82318644D01*
X93445244Y-82500968D01*
X93382009Y-82695582D01*
X93350000Y-82897682D01*
X93350000Y-83102317D01*
X93382009Y-83304417D01*
X93445244Y-83499031D01*
X93538141Y-83681350D01*
X93538147Y-83681359D01*
X93570523Y-83725921D01*
X93570524Y-83725922D01*
X94250000Y-83046446D01*
X94250000Y-83052661D01*
X94277259Y-83154394D01*
X94329920Y-83245606D01*
X94404394Y-83320080D01*
X94495606Y-83372741D01*
X94597339Y-83400000D01*
X94603553Y-83400000D01*
X93919067Y-84084483D01*
X93908633Y-84134150D01*
X93859581Y-84183906D01*
X93805365Y-84198000D01*
X93805423Y-84199099D01*
X93805429Y-84199146D01*
X93805426Y-84199146D01*
X93805436Y-84199324D01*
X93802123Y-84199501D01*
X93742516Y-84205908D01*
X93607671Y-84256202D01*
X93607664Y-84256206D01*
X93492455Y-84342452D01*
X93492452Y-84342455D01*
X93406206Y-84457664D01*
X93406202Y-84457671D01*
X93355908Y-84592517D01*
X93352390Y-84625243D01*
X93349501Y-84652123D01*
X93349500Y-84652135D01*
X93349500Y-86347870D01*
X93349501Y-86347876D01*
X93355908Y-86407483D01*
X93406202Y-86542328D01*
X93406206Y-86542335D01*
X93492452Y-86657544D01*
X93492455Y-86657547D01*
X93607664Y-86743793D01*
X93607671Y-86743797D01*
X93638577Y-86755324D01*
X93742517Y-86794091D01*
X93802127Y-86800500D01*
X93975500Y-86800499D01*
X94042539Y-86820183D01*
X94088294Y-86872987D01*
X94099500Y-86924499D01*
X94099500Y-88315448D01*
X94079815Y-88382487D01*
X94063181Y-88403129D01*
X94039661Y-88426648D01*
X93949093Y-88573481D01*
X93949091Y-88573486D01*
X93940012Y-88600886D01*
X93894826Y-88737247D01*
X93894826Y-88737248D01*
X93894825Y-88737248D01*
X93884500Y-88838315D01*
X93884500Y-89436669D01*
X93884501Y-89436687D01*
X93894825Y-89537752D01*
X93931109Y-89647249D01*
X93947013Y-89695243D01*
X93949092Y-89701515D01*
X93949093Y-89701518D01*
X93980845Y-89752996D01*
X94034201Y-89839500D01*
X94039661Y-89848351D01*
X94153629Y-89962319D01*
X94157967Y-89970264D01*
X94165215Y-89975690D01*
X94174449Y-90000449D01*
X94187114Y-90023642D01*
X94186468Y-90032671D01*
X94189632Y-90041154D01*
X94184015Y-90066974D01*
X94182130Y-90093334D01*
X94176311Y-90102387D01*
X94174780Y-90109427D01*
X94153629Y-90137681D01*
X94065629Y-90225681D01*
X94004306Y-90259166D01*
X93977948Y-90262000D01*
X93058504Y-90262000D01*
X92923177Y-90288918D01*
X92923167Y-90288921D01*
X92795692Y-90341722D01*
X92680954Y-90418387D01*
X91875887Y-91223454D01*
X91856783Y-91252046D01*
X91824407Y-91300501D01*
X91810228Y-91321722D01*
X91799228Y-91338184D01*
X91799223Y-91338192D01*
X91746420Y-91465671D01*
X91746418Y-91465677D01*
X91719500Y-91601004D01*
X91719500Y-94248481D01*
X91699815Y-94315520D01*
X91683185Y-94336157D01*
X91624054Y-94395289D01*
X91571607Y-94447736D01*
X91510284Y-94481220D01*
X91440592Y-94476236D01*
X91384659Y-94434364D01*
X91360242Y-94368900D01*
X91360568Y-94347451D01*
X91361413Y-94339185D01*
X91365500Y-94299177D01*
X91365499Y-93600824D01*
X91355174Y-93499747D01*
X91300908Y-93335984D01*
X91210340Y-93189150D01*
X91196017Y-93174827D01*
X91162532Y-93113504D01*
X91167516Y-93043812D01*
X91196021Y-92999460D01*
X91209947Y-92985535D01*
X91300448Y-92838811D01*
X91300453Y-92838800D01*
X91354680Y-92675152D01*
X91364999Y-92574154D01*
X91365000Y-92574141D01*
X91365000Y-92475000D01*
X90514000Y-92475000D01*
X90446961Y-92455315D01*
X90401206Y-92402511D01*
X90390000Y-92351000D01*
X90390000Y-92225000D01*
X90264000Y-92225000D01*
X90196961Y-92205315D01*
X90151206Y-92152511D01*
X90140000Y-92101000D01*
X90140000Y-91975000D01*
X90640000Y-91975000D01*
X91364999Y-91975000D01*
X91364999Y-91875860D01*
X91364998Y-91875845D01*
X91354680Y-91774847D01*
X91300453Y-91611199D01*
X91300448Y-91611188D01*
X91209947Y-91464465D01*
X91209944Y-91464461D01*
X91088038Y-91342555D01*
X91088034Y-91342552D01*
X90941311Y-91252051D01*
X90941300Y-91252046D01*
X90777652Y-91197819D01*
X90676654Y-91187500D01*
X90640000Y-91187500D01*
X90640000Y-91975000D01*
X90140000Y-91975000D01*
X90140000Y-91270597D01*
X90148644Y-91241156D01*
X90155168Y-91211170D01*
X90158922Y-91206154D01*
X90159685Y-91203558D01*
X90176315Y-91182919D01*
X90290519Y-91068716D01*
X90310779Y-91048456D01*
X90349069Y-91010166D01*
X90349078Y-91010155D01*
X90508113Y-90851120D01*
X90569433Y-90817639D01*
X90639125Y-90822623D01*
X90643219Y-90824234D01*
X90656503Y-90829737D01*
X90811153Y-90860499D01*
X90811156Y-90860500D01*
X90811158Y-90860500D01*
X90968844Y-90860500D01*
X90968845Y-90860499D01*
X91123497Y-90829737D01*
X91269179Y-90769394D01*
X91400289Y-90681789D01*
X91511789Y-90570289D01*
X91599394Y-90439179D01*
X91659737Y-90293497D01*
X91690500Y-90138842D01*
X91690500Y-89981158D01*
X91690500Y-89981155D01*
X91690499Y-89981153D01*
X91686091Y-89958994D01*
X91659737Y-89826503D01*
X91629290Y-89752996D01*
X91599397Y-89680827D01*
X91599390Y-89680814D01*
X91511789Y-89549711D01*
X91511786Y-89549707D01*
X91400292Y-89438213D01*
X91400288Y-89438210D01*
X91269185Y-89350609D01*
X91269172Y-89350602D01*
X91123501Y-89290264D01*
X91123489Y-89290261D01*
X90968845Y-89259500D01*
X90968842Y-89259500D01*
X90811158Y-89259500D01*
X90811155Y-89259500D01*
X90656510Y-89290261D01*
X90656498Y-89290264D01*
X90510827Y-89350602D01*
X90510815Y-89350609D01*
X90379712Y-89438210D01*
X90379709Y-89438212D01*
X90377328Y-89440594D01*
X90375574Y-89441606D01*
X90375002Y-89442076D01*
X90374924Y-89441981D01*
X90321748Y-89472680D01*
X90218222Y-89500420D01*
X90218209Y-89500426D01*
X90081290Y-89579475D01*
X90081282Y-89579481D01*
X89441284Y-90219481D01*
X88314084Y-91346681D01*
X88252761Y-91380166D01*
X88226403Y-91383000D01*
X83145440Y-91383000D01*
X83104519Y-91393964D01*
X83104519Y-91393965D01*
X83067251Y-91403951D01*
X82992714Y-91423923D01*
X82992709Y-91423926D01*
X82855790Y-91502975D01*
X82855782Y-91502981D01*
X81353339Y-93005425D01*
X81292016Y-93038910D01*
X81289850Y-93039361D01*
X81134508Y-93070261D01*
X81134498Y-93070264D01*
X80988827Y-93130602D01*
X80988814Y-93130609D01*
X80857711Y-93218210D01*
X80857707Y-93218213D01*
X80746213Y-93329707D01*
X80746210Y-93329711D01*
X80658609Y-93460814D01*
X80658602Y-93460827D01*
X80598264Y-93606498D01*
X80598261Y-93606510D01*
X80567500Y-93761153D01*
X80567500Y-93785500D01*
X80547815Y-93852539D01*
X80495011Y-93898294D01*
X80443500Y-93909500D01*
X77011519Y-93909500D01*
X76944480Y-93889815D01*
X76923838Y-93873181D01*
X73931035Y-90880377D01*
X73846503Y-90795845D01*
X86005000Y-90795845D01*
X86005000Y-90895000D01*
X86730000Y-90895000D01*
X87230000Y-90895000D01*
X87954999Y-90895000D01*
X87954999Y-90795860D01*
X87954998Y-90795845D01*
X87944680Y-90694847D01*
X87890453Y-90531199D01*
X87890448Y-90531188D01*
X87799947Y-90384465D01*
X87799944Y-90384461D01*
X87678038Y-90262555D01*
X87678034Y-90262552D01*
X87531311Y-90172051D01*
X87531300Y-90172046D01*
X87367652Y-90117819D01*
X87266654Y-90107500D01*
X87230000Y-90107500D01*
X87230000Y-90895000D01*
X86730000Y-90895000D01*
X86730000Y-90107500D01*
X86693361Y-90107500D01*
X86693343Y-90107501D01*
X86592347Y-90117819D01*
X86428699Y-90172046D01*
X86428688Y-90172051D01*
X86281965Y-90262552D01*
X86281961Y-90262555D01*
X86160055Y-90384461D01*
X86160052Y-90384465D01*
X86069551Y-90531188D01*
X86069546Y-90531199D01*
X86015319Y-90694847D01*
X86005000Y-90795845D01*
X73846503Y-90795845D01*
X71651545Y-88600887D01*
X71536807Y-88524222D01*
X71409332Y-88471421D01*
X71409322Y-88471418D01*
X71273996Y-88444500D01*
X71273994Y-88444500D01*
X71273993Y-88444500D01*
X70665316Y-88444500D01*
X70617864Y-88435061D01*
X70473501Y-88375264D01*
X70473489Y-88375261D01*
X70318845Y-88344500D01*
X70318842Y-88344500D01*
X70161158Y-88344500D01*
X70161155Y-88344500D01*
X70006510Y-88375261D01*
X70006498Y-88375264D01*
X69860827Y-88435602D01*
X69860814Y-88435609D01*
X69729711Y-88523210D01*
X69729707Y-88523213D01*
X69618213Y-88634707D01*
X69587602Y-88680520D01*
X69533989Y-88725324D01*
X69464664Y-88734031D01*
X69401637Y-88703876D01*
X69364918Y-88644432D01*
X69360500Y-88611628D01*
X69360500Y-87731518D01*
X69380185Y-87664479D01*
X69396819Y-87643837D01*
X69753837Y-87286819D01*
X69815160Y-87253334D01*
X69841518Y-87250500D01*
X77858827Y-87250500D01*
X77906278Y-87259938D01*
X78026503Y-87309737D01*
X78026506Y-87309737D01*
X78026511Y-87309739D01*
X78181153Y-87340499D01*
X78181156Y-87340500D01*
X78181158Y-87340500D01*
X78338844Y-87340500D01*
X78338845Y-87340499D01*
X78493497Y-87309737D01*
X78639179Y-87249394D01*
X78770289Y-87161789D01*
X78881789Y-87050289D01*
X78969394Y-86919179D01*
X79029737Y-86773497D01*
X79060500Y-86618842D01*
X79060500Y-86461158D01*
X79058020Y-86448690D01*
X79064249Y-86379099D01*
X79107112Y-86323922D01*
X79173002Y-86300678D01*
X79179638Y-86300500D01*
X87733844Y-86300500D01*
X87733845Y-86300499D01*
X87888497Y-86269737D01*
X88034179Y-86209394D01*
X88165289Y-86121789D01*
X88276789Y-86010289D01*
X88364394Y-85879179D01*
X88424737Y-85733497D01*
X88455500Y-85578842D01*
X88455500Y-85421158D01*
X88455500Y-85421155D01*
X88455499Y-85421153D01*
X88424738Y-85266510D01*
X88424737Y-85266503D01*
X88424735Y-85266498D01*
X88364397Y-85120827D01*
X88364390Y-85120814D01*
X88276789Y-84989711D01*
X88276786Y-84989707D01*
X88165292Y-84878213D01*
X88165288Y-84878210D01*
X88034185Y-84790609D01*
X88034172Y-84790602D01*
X87888501Y-84730264D01*
X87888489Y-84730261D01*
X87733845Y-84699500D01*
X87733842Y-84699500D01*
X68488842Y-84699500D01*
X68331157Y-84699500D01*
X68331155Y-84699500D01*
X68178673Y-84729830D01*
X68178674Y-84729831D01*
X68176501Y-84730263D01*
X68030823Y-84790604D01*
X68030815Y-84790609D01*
X67944202Y-84848483D01*
X67899708Y-84878212D01*
X67408213Y-85369707D01*
X67408210Y-85369711D01*
X67320609Y-85500814D01*
X67320602Y-85500827D01*
X67260264Y-85646498D01*
X67260261Y-85646510D01*
X67229500Y-85801153D01*
X64832583Y-85801153D01*
X64978003Y-85703987D01*
X64983822Y-85699212D01*
X64983822Y-85699211D01*
X65166081Y-85549635D01*
X65166082Y-85549634D01*
X63920698Y-84304251D01*
X64022330Y-84230412D01*
X64200412Y-84052330D01*
X64274251Y-83950699D01*
X65519634Y-85196082D01*
X65519635Y-85196081D01*
X65673986Y-85008004D01*
X65856851Y-84734327D01*
X65856862Y-84734309D01*
X66012012Y-84444044D01*
X66012014Y-84444039D01*
X66137974Y-84139946D01*
X66233524Y-83824961D01*
X66233525Y-83824956D01*
X66297738Y-83502139D01*
X66330000Y-83174571D01*
X66330000Y-82845428D01*
X66297738Y-82517860D01*
X66233525Y-82195043D01*
X66233519Y-82195019D01*
X66218288Y-82144810D01*
X66218285Y-82144801D01*
X66208376Y-82112135D01*
X66729500Y-82112135D01*
X66729500Y-83907870D01*
X66729501Y-83907876D01*
X66735908Y-83967483D01*
X66786202Y-84102328D01*
X66786206Y-84102335D01*
X66872452Y-84217544D01*
X66872455Y-84217547D01*
X66987664Y-84303793D01*
X66987671Y-84303797D01*
X67122517Y-84354091D01*
X67122516Y-84354091D01*
X67127958Y-84354676D01*
X67182127Y-84360500D01*
X68977872Y-84360499D01*
X69037483Y-84354091D01*
X69172331Y-84303796D01*
X69287546Y-84217546D01*
X69373796Y-84102331D01*
X69422810Y-83970916D01*
X69464681Y-83914984D01*
X69530145Y-83890566D01*
X69598418Y-83905417D01*
X69626673Y-83926569D01*
X69740213Y-84040109D01*
X69912179Y-84165048D01*
X69912181Y-84165049D01*
X69912184Y-84165051D01*
X70101588Y-84261557D01*
X70303757Y-84327246D01*
X70513713Y-84360500D01*
X70513714Y-84360500D01*
X70726286Y-84360500D01*
X70726287Y-84360500D01*
X70936243Y-84327246D01*
X71138412Y-84261557D01*
X71327816Y-84165051D01*
X71414138Y-84102335D01*
X71499786Y-84040109D01*
X71499788Y-84040106D01*
X71499792Y-84040104D01*
X71650104Y-83889792D01*
X71650106Y-83889788D01*
X71650109Y-83889786D01*
X71775048Y-83717820D01*
X71775047Y-83717820D01*
X71775051Y-83717816D01*
X71779514Y-83709054D01*
X71827488Y-83658259D01*
X71895308Y-83641463D01*
X71961444Y-83663999D01*
X72000486Y-83709056D01*
X72004951Y-83717820D01*
X72129890Y-83889786D01*
X72280213Y-84040109D01*
X72452179Y-84165048D01*
X72452181Y-84165049D01*
X72452184Y-84165051D01*
X72641588Y-84261557D01*
X72843757Y-84327246D01*
X73053713Y-84360500D01*
X73053714Y-84360500D01*
X73266286Y-84360500D01*
X73266287Y-84360500D01*
X73476243Y-84327246D01*
X73678412Y-84261557D01*
X73867816Y-84165051D01*
X73954138Y-84102335D01*
X74039786Y-84040109D01*
X74039788Y-84040106D01*
X74039792Y-84040104D01*
X74190104Y-83889792D01*
X74190106Y-83889788D01*
X74190109Y-83889786D01*
X74315048Y-83717820D01*
X74315047Y-83717820D01*
X74315051Y-83717816D01*
X74319514Y-83709054D01*
X74367488Y-83658259D01*
X74435308Y-83641463D01*
X74501444Y-83663999D01*
X74540486Y-83709056D01*
X74544951Y-83717820D01*
X74669890Y-83889786D01*
X74820213Y-84040109D01*
X74992179Y-84165048D01*
X74992181Y-84165049D01*
X74992184Y-84165051D01*
X75181588Y-84261557D01*
X75383757Y-84327246D01*
X75593713Y-84360500D01*
X75593714Y-84360500D01*
X75806286Y-84360500D01*
X75806287Y-84360500D01*
X76016243Y-84327246D01*
X76218412Y-84261557D01*
X76407816Y-84165051D01*
X76494138Y-84102335D01*
X76579786Y-84040109D01*
X76579788Y-84040106D01*
X76579792Y-84040104D01*
X76730104Y-83889792D01*
X76730106Y-83889788D01*
X76730109Y-83889786D01*
X76855048Y-83717820D01*
X76855047Y-83717820D01*
X76855051Y-83717816D01*
X76859514Y-83709054D01*
X76907488Y-83658259D01*
X76975308Y-83641463D01*
X77041444Y-83663999D01*
X77080486Y-83709056D01*
X77084951Y-83717820D01*
X77209890Y-83889786D01*
X77360213Y-84040109D01*
X77532179Y-84165048D01*
X77532181Y-84165049D01*
X77532184Y-84165051D01*
X77721588Y-84261557D01*
X77923757Y-84327246D01*
X78133713Y-84360500D01*
X78133714Y-84360500D01*
X78346286Y-84360500D01*
X78346287Y-84360500D01*
X78556243Y-84327246D01*
X78758412Y-84261557D01*
X78947816Y-84165051D01*
X79034138Y-84102335D01*
X79119786Y-84040109D01*
X79119788Y-84040106D01*
X79119792Y-84040104D01*
X79270104Y-83889792D01*
X79270106Y-83889788D01*
X79270109Y-83889786D01*
X79395048Y-83717820D01*
X79395047Y-83717820D01*
X79395051Y-83717816D01*
X79399514Y-83709054D01*
X79447488Y-83658259D01*
X79515308Y-83641463D01*
X79581444Y-83663999D01*
X79620486Y-83709056D01*
X79624951Y-83717820D01*
X79749890Y-83889786D01*
X79900213Y-84040109D01*
X80072179Y-84165048D01*
X80072181Y-84165049D01*
X80072184Y-84165051D01*
X80261588Y-84261557D01*
X80463757Y-84327246D01*
X80673713Y-84360500D01*
X80673714Y-84360500D01*
X80886286Y-84360500D01*
X80886287Y-84360500D01*
X81096243Y-84327246D01*
X81298412Y-84261557D01*
X81487816Y-84165051D01*
X81574138Y-84102335D01*
X81659786Y-84040109D01*
X81659788Y-84040106D01*
X81659792Y-84040104D01*
X81810104Y-83889792D01*
X81810106Y-83889788D01*
X81810109Y-83889786D01*
X81877515Y-83797007D01*
X81935051Y-83717816D01*
X81939793Y-83708508D01*
X81987763Y-83657711D01*
X82055583Y-83640911D01*
X82121719Y-83663445D01*
X82160763Y-83708500D01*
X82165377Y-83717555D01*
X82290272Y-83889459D01*
X82290276Y-83889464D01*
X82440535Y-84039723D01*
X82440540Y-84039727D01*
X82612442Y-84164620D01*
X82801782Y-84261095D01*
X83003871Y-84326757D01*
X83070000Y-84337231D01*
X83070000Y-83443012D01*
X83127007Y-83475925D01*
X83254174Y-83510000D01*
X83385826Y-83510000D01*
X83512993Y-83475925D01*
X83570000Y-83443012D01*
X83570000Y-84337230D01*
X83636126Y-84326757D01*
X83636129Y-84326757D01*
X83838217Y-84261095D01*
X84027557Y-84164620D01*
X84199459Y-84039727D01*
X84199464Y-84039723D01*
X84349723Y-83889464D01*
X84349727Y-83889459D01*
X84474620Y-83717557D01*
X84571095Y-83528217D01*
X84636757Y-83326129D01*
X84636757Y-83326126D01*
X84647231Y-83260000D01*
X83753012Y-83260000D01*
X83785925Y-83202993D01*
X83820000Y-83075826D01*
X83820000Y-82944174D01*
X83785925Y-82817007D01*
X83753012Y-82760000D01*
X84647231Y-82760000D01*
X84636757Y-82693873D01*
X84636757Y-82693870D01*
X84571095Y-82491782D01*
X84474620Y-82302442D01*
X84349727Y-82130540D01*
X84349723Y-82130535D01*
X84199464Y-81980276D01*
X84199459Y-81980272D01*
X84027557Y-81855379D01*
X83838215Y-81758903D01*
X83636124Y-81693241D01*
X83570000Y-81682768D01*
X83570000Y-82576988D01*
X83512993Y-82544075D01*
X83385826Y-82510000D01*
X83254174Y-82510000D01*
X83127007Y-82544075D01*
X83070000Y-82576988D01*
X83070000Y-81682768D01*
X83069999Y-81682768D01*
X83003875Y-81693241D01*
X82801784Y-81758903D01*
X82612442Y-81855379D01*
X82440540Y-81980272D01*
X82440535Y-81980276D01*
X82290276Y-82130535D01*
X82290272Y-82130540D01*
X82165378Y-82302443D01*
X82160762Y-82311502D01*
X82112784Y-82362295D01*
X82044963Y-82379087D01*
X81978829Y-82356546D01*
X81939794Y-82311493D01*
X81935051Y-82302184D01*
X81935049Y-82302181D01*
X81935048Y-82302179D01*
X81810109Y-82130213D01*
X81659786Y-81979890D01*
X81487820Y-81854951D01*
X81298414Y-81758444D01*
X81298413Y-81758443D01*
X81298412Y-81758443D01*
X81096243Y-81692754D01*
X81096241Y-81692753D01*
X81096240Y-81692753D01*
X80934957Y-81667208D01*
X80886287Y-81659500D01*
X80673713Y-81659500D01*
X80625042Y-81667208D01*
X80463760Y-81692753D01*
X80261585Y-81758444D01*
X80072179Y-81854951D01*
X79900213Y-81979890D01*
X79749890Y-82130213D01*
X79624949Y-82302182D01*
X79620484Y-82310946D01*
X79572509Y-82361742D01*
X79504688Y-82378536D01*
X79438553Y-82355998D01*
X79399516Y-82310946D01*
X79395050Y-82302182D01*
X79270109Y-82130213D01*
X79119786Y-81979890D01*
X78947820Y-81854951D01*
X78758414Y-81758444D01*
X78758413Y-81758443D01*
X78758412Y-81758443D01*
X78556243Y-81692754D01*
X78556241Y-81692753D01*
X78556240Y-81692753D01*
X78394957Y-81667208D01*
X78346287Y-81659500D01*
X78133713Y-81659500D01*
X78085042Y-81667208D01*
X77923760Y-81692753D01*
X77721585Y-81758444D01*
X77532179Y-81854951D01*
X77360213Y-81979890D01*
X77209890Y-82130213D01*
X77084949Y-82302182D01*
X77080484Y-82310946D01*
X77032509Y-82361742D01*
X76964688Y-82378536D01*
X76898553Y-82355998D01*
X76859516Y-82310946D01*
X76855050Y-82302182D01*
X76730109Y-82130213D01*
X76579786Y-81979890D01*
X76407820Y-81854951D01*
X76218414Y-81758444D01*
X76218413Y-81758443D01*
X76218412Y-81758443D01*
X76016243Y-81692754D01*
X76016241Y-81692753D01*
X76016240Y-81692753D01*
X75854957Y-81667208D01*
X75806287Y-81659500D01*
X75593713Y-81659500D01*
X75545042Y-81667208D01*
X75383760Y-81692753D01*
X75181585Y-81758444D01*
X74992179Y-81854951D01*
X74820213Y-81979890D01*
X74669890Y-82130213D01*
X74544949Y-82302182D01*
X74540484Y-82310946D01*
X74492509Y-82361742D01*
X74424688Y-82378536D01*
X74358553Y-82355998D01*
X74319516Y-82310946D01*
X74315050Y-82302182D01*
X74190109Y-82130213D01*
X74039786Y-81979890D01*
X73867820Y-81854951D01*
X73678414Y-81758444D01*
X73678413Y-81758443D01*
X73678412Y-81758443D01*
X73476243Y-81692754D01*
X73476241Y-81692753D01*
X73476240Y-81692753D01*
X73314957Y-81667208D01*
X73266287Y-81659500D01*
X73053713Y-81659500D01*
X73005042Y-81667208D01*
X72843760Y-81692753D01*
X72641585Y-81758444D01*
X72452179Y-81854951D01*
X72280213Y-81979890D01*
X72129890Y-82130213D01*
X72004949Y-82302182D01*
X72000484Y-82310946D01*
X71952509Y-82361742D01*
X71884688Y-82378536D01*
X71818553Y-82355998D01*
X71779516Y-82310946D01*
X71775050Y-82302182D01*
X71650109Y-82130213D01*
X71499786Y-81979890D01*
X71327820Y-81854951D01*
X71138414Y-81758444D01*
X71138413Y-81758443D01*
X71138412Y-81758443D01*
X70936243Y-81692754D01*
X70936241Y-81692753D01*
X70936240Y-81692753D01*
X70774957Y-81667208D01*
X70726287Y-81659500D01*
X70513713Y-81659500D01*
X70465042Y-81667208D01*
X70303760Y-81692753D01*
X70101585Y-81758444D01*
X69912179Y-81854951D01*
X69740215Y-81979889D01*
X69626673Y-82093431D01*
X69565350Y-82126915D01*
X69495658Y-82121931D01*
X69439725Y-82080059D01*
X69422810Y-82049082D01*
X69373797Y-81917671D01*
X69373793Y-81917664D01*
X69287547Y-81802455D01*
X69287544Y-81802452D01*
X69172335Y-81716206D01*
X69172328Y-81716202D01*
X69037482Y-81665908D01*
X69037483Y-81665908D01*
X68977883Y-81659501D01*
X68977881Y-81659500D01*
X68977873Y-81659500D01*
X68977864Y-81659500D01*
X67182129Y-81659500D01*
X67182123Y-81659501D01*
X67122516Y-81665908D01*
X66987671Y-81716202D01*
X66987664Y-81716206D01*
X66872455Y-81802452D01*
X66872452Y-81802455D01*
X66786206Y-81917664D01*
X66786202Y-81917671D01*
X66735908Y-82052517D01*
X66729501Y-82112116D01*
X66729500Y-82112135D01*
X66208376Y-82112135D01*
X66137975Y-81880056D01*
X66012014Y-81575960D01*
X66012012Y-81575955D01*
X65856862Y-81285690D01*
X65856851Y-81285672D01*
X65673992Y-81012004D01*
X65673989Y-81012000D01*
X65519634Y-80823917D01*
X65519633Y-80823917D01*
X64274250Y-82069300D01*
X64200412Y-81967670D01*
X64022330Y-81789588D01*
X63920698Y-81715748D01*
X65099628Y-80536819D01*
X65160951Y-80503334D01*
X65187309Y-80500500D01*
X126792691Y-80500500D01*
X126859730Y-80520185D01*
G37*
%TD.AperFunction*%
%TD*%
M02*
