M48
; DRILL file {KiCad 9.0.0} date 2025-03-30T14:17:41+0900
; FORMAT={-:-/ absolute / metric / decimal}
; #@! TF.CreationDate,2025-03-30T14:17:41+09:00
; #@! TF.GenerationSoftware,Kicad,Pcbnew,9.0.0
; #@! TF.FileFunction,Plated,1,2,PTH
FMAT,2
METRIC
; #@! TA.AperFunction,Plated,PTH,ViaDrill
T1C0.300
; #@! TA.AperFunction,Plated,PTH,ComponentDrill
T2C0.600
; #@! TA.AperFunction,Plated,PTH,ComponentDrill
T3C0.800
; #@! TA.AperFunction,Plated,PTH,ComponentDrill
T4C0.850
; #@! TA.AperFunction,Plated,PTH,ComponentDrill
T5C1.000
; #@! TA.AperFunction,Plated,PTH,ComponentDrill
T6C1.100
; #@! TA.AperFunction,Plated,PTH,ComponentDrill
T7C3.200
%
G90
G05
T1
X64.21Y-107.19
X64.965Y-102.565
X65.75Y-112.89
X65.75Y-115.14
X65.75Y-118.39
X66.49Y-107.19
X67.05Y-92.35
X68.015Y-102.565
X68.03Y-85.88
X68.77Y-107.19
X68.83Y-121.037
X68.83Y-122.862
X70.24Y-89.145
X70.24Y-90.415
X70.54Y-117.69
X72.12Y-100.61
X72.12Y-103.875
X73.14Y-117.69
X73.89Y-121.42
X74.182Y-101.56
X74.745Y-103.26
X74.91Y-118.02
X78.11Y-96.46
X78.26Y-86.54
X79.74Y-92.955
X79.74Y-98.035
X81.368Y-93.84
X82.97Y-94.605
X83.3Y-93.3
X83.32Y-96.11
X83.83Y-113.06
X83.88Y-118.585
X84.15Y-99.27
X86.45Y-93.96
X86.7Y-97.83
X86.96Y-92.87
X86.98Y-91.145
X87.15Y-95.24
X87.655Y-85.5
X88.47Y-92.59
X90.28Y-95.91
X90.39Y-93.95
X90.49Y-97.205
X90.89Y-90.06
X93.96Y-98.62
X94.05Y-92.99
X95.0Y-95.75
X96.394Y-94.629
X118.13Y-119.36
X120.36Y-93.17
T3
X82.29Y-102.02
X82.29Y-104.52
X89.24Y-114.9
X89.24Y-116.9
X89.36Y-101.965
X89.36Y-103.965
X94.65Y-83.0
X94.65Y-85.5
X95.12Y-101.87
X95.12Y-103.87
X99.06Y-98.25
X99.08Y-88.09
X101.06Y-98.25
X101.08Y-88.09
T4
X106.14Y-104.21
X106.14Y-106.75
X106.14Y-109.29
X106.14Y-111.83
X106.14Y-114.37
X106.14Y-116.91
X106.14Y-119.45
X106.14Y-121.99
X111.22Y-83.01
X111.22Y-85.55
X111.22Y-88.09
X111.22Y-90.63
X111.22Y-93.17
X111.22Y-95.71
X111.22Y-98.25
X111.22Y-100.79
X116.29Y-83.02
X116.29Y-85.56
X116.29Y-88.1
X116.29Y-90.64
X116.29Y-93.18
X116.29Y-95.72
X116.29Y-98.26
X116.29Y-100.8
T5
X65.44Y-89.75
X65.44Y-92.29
X65.44Y-94.83
X68.08Y-83.01
X70.62Y-83.01
X73.16Y-83.01
X73.27Y-110.92
X75.7Y-83.01
X78.23Y-119.54
X78.23Y-124.54
X78.24Y-83.01
X78.27Y-110.92
X80.78Y-83.01
X83.32Y-83.01
X111.31Y-116.88
X111.31Y-119.38
X113.81Y-116.88
X113.81Y-119.38
X116.31Y-116.88
X116.31Y-119.38
T6
X123.92Y-111.8
X123.92Y-114.34
X123.92Y-116.88
X123.92Y-119.42
X123.93Y-88.09
X123.93Y-90.63
X123.93Y-93.17
X123.93Y-95.71
T7
X62.98Y-83.01
X63.04Y-124.46
X129.0Y-83.01
X129.0Y-124.49
T2
G00X62.17Y-111.32
M15
G01X61.57Y-111.32
M16
G05
G00X62.17Y-119.96
M15
G01X61.57Y-119.96
M16
G05
G00X65.97Y-111.32
M15
G01X65.37Y-111.32
M16
G05
G00X65.97Y-119.96
M15
G01X65.37Y-119.96
M16
G05
M30
