%TF.GenerationSoftware,KiCad,Pcbnew,9.0.0*%
%TF.CreationDate,2025-03-30T14:17:43+09:00*%
%TF.ProjectId,v1000,76313030-302e-46b6-9963-61645f706362,rev?*%
%TF.SameCoordinates,Original*%
%TF.FileFunction,Paste,Bot*%
%TF.FilePolarity,Positive*%
%FSLAX46Y46*%
G04 Gerber Fmt 4.6, Leading zero omitted, Abs format (unit mm)*
G04 Created by KiCad (PCBNEW 9.0.0) date 2025-03-30 14:17:43*
%MOMM*%
%LPD*%
G01*
G04 APERTURE LIST*
G04 Aperture macros list*
%AMRoundRect*
0 Rectangle with rounded corners*
0 $1 Rounding radius*
0 $2 $3 $4 $5 $6 $7 $8 $9 X,Y pos of 4 corners*
0 Add a 4 corners polygon primitive as box body*
4,1,4,$2,$3,$4,$5,$6,$7,$8,$9,$2,$3,0*
0 Add four circle primitives for the rounded corners*
1,1,$1+$1,$2,$3*
1,1,$1+$1,$4,$5*
1,1,$1+$1,$6,$7*
1,1,$1+$1,$8,$9*
0 Add four rect primitives between the rounded corners*
20,1,$1+$1,$2,$3,$4,$5,0*
20,1,$1+$1,$4,$5,$6,$7,0*
20,1,$1+$1,$6,$7,$8,$9,0*
20,1,$1+$1,$8,$9,$2,$3,0*%
G04 Aperture macros list end*
%ADD10RoundRect,0.225000X0.375000X-0.225000X0.375000X0.225000X-0.375000X0.225000X-0.375000X-0.225000X0*%
%ADD11RoundRect,0.225000X-0.375000X0.225000X-0.375000X-0.225000X0.375000X-0.225000X0.375000X0.225000X0*%
%ADD12RoundRect,0.237500X0.237500X-0.300000X0.237500X0.300000X-0.237500X0.300000X-0.237500X-0.300000X0*%
%ADD13RoundRect,0.250000X0.350000X-0.850000X0.350000X0.850000X-0.350000X0.850000X-0.350000X-0.850000X0*%
%ADD14RoundRect,0.250000X1.125000X-1.275000X1.125000X1.275000X-1.125000X1.275000X-1.125000X-1.275000X0*%
%ADD15RoundRect,0.237500X-0.237500X0.250000X-0.237500X-0.250000X0.237500X-0.250000X0.237500X0.250000X0*%
%ADD16RoundRect,0.225000X-0.250000X0.225000X-0.250000X-0.225000X0.250000X-0.225000X0.250000X0.225000X0*%
%ADD17RoundRect,0.237500X-0.300000X-0.237500X0.300000X-0.237500X0.300000X0.237500X-0.300000X0.237500X0*%
%ADD18RoundRect,0.237500X0.250000X0.237500X-0.250000X0.237500X-0.250000X-0.237500X0.250000X-0.237500X0*%
%ADD19R,1.100000X0.600000*%
%ADD20RoundRect,0.237500X-0.250000X-0.237500X0.250000X-0.237500X0.250000X0.237500X-0.250000X0.237500X0*%
%ADD21RoundRect,0.237500X0.237500X-0.250000X0.237500X0.250000X-0.237500X0.250000X-0.237500X-0.250000X0*%
%ADD22RoundRect,0.237500X-0.237500X0.300000X-0.237500X-0.300000X0.237500X-0.300000X0.237500X0.300000X0*%
%ADD23RoundRect,0.150000X-0.512500X-0.150000X0.512500X-0.150000X0.512500X0.150000X-0.512500X0.150000X0*%
G04 APERTURE END LIST*
D10*
%TO.C,D6*%
X119270000Y-99020000D03*
X119270000Y-95720000D03*
%TD*%
D11*
%TO.C,D5*%
X119240000Y-87340000D03*
X119240000Y-90640000D03*
%TD*%
D12*
%TO.C,C20*%
X90390000Y-93950000D03*
X90390000Y-92225000D03*
%TD*%
D13*
%TO.C,U5*%
X68770000Y-107190000D03*
X66490000Y-107190000D03*
D14*
X64965000Y-102565000D03*
X68015000Y-102565000D03*
X64965000Y-99215000D03*
X68015000Y-99215000D03*
D13*
X64210000Y-107190000D03*
%TD*%
D15*
%TO.C,R22*%
X70540000Y-120247500D03*
X70540000Y-122072500D03*
%TD*%
D12*
%TO.C,C2*%
X72120000Y-103875000D03*
X72120000Y-102150000D03*
%TD*%
D16*
%TO.C,C25*%
X74910000Y-116470000D03*
X74910000Y-118020000D03*
%TD*%
D12*
%TO.C,C17*%
X86980000Y-92870000D03*
X86980000Y-91145000D03*
%TD*%
D17*
%TO.C,C1*%
X74745000Y-103260000D03*
X76470000Y-103260000D03*
%TD*%
D18*
%TO.C,R19*%
X121062500Y-85400000D03*
X119237500Y-85400000D03*
%TD*%
D15*
%TO.C,R23*%
X72280000Y-120260000D03*
X72280000Y-122085000D03*
%TD*%
D19*
%TO.C,IC2*%
X73140000Y-116740000D03*
X73140000Y-117690000D03*
X73140000Y-118640000D03*
X70540000Y-118640000D03*
X70540000Y-117690000D03*
X70540000Y-116740000D03*
%TD*%
D18*
%TO.C,R18*%
X123292500Y-99020000D03*
X121467500Y-99020000D03*
%TD*%
D20*
%TO.C,R24*%
X69835000Y-114950000D03*
X71660000Y-114950000D03*
%TD*%
D15*
%TO.C,R15*%
X94860000Y-89137500D03*
X94860000Y-90962500D03*
%TD*%
D21*
%TO.C,R20*%
X73220000Y-114942500D03*
X73220000Y-113117500D03*
%TD*%
D15*
%TO.C,R16*%
X72120000Y-98785000D03*
X72120000Y-100610000D03*
%TD*%
D22*
%TO.C,C3*%
X90490000Y-97205000D03*
X90490000Y-98930000D03*
%TD*%
D15*
%TO.C,R21*%
X68830000Y-121037500D03*
X68830000Y-122862500D03*
%TD*%
D23*
%TO.C,U6*%
X74182500Y-101560000D03*
X74182500Y-100610000D03*
X74182500Y-99660000D03*
X76457500Y-99660000D03*
X76457500Y-101560000D03*
%TD*%
M02*
