%TF.GenerationSoftware,KiCad,Pcbnew,9.0.0*%
%TF.CreationDate,2025-03-30T14:17:43+09:00*%
%TF.ProjectId,v1000,76313030-302e-46b6-9963-61645f706362,rev?*%
%TF.SameCoordinates,Original*%
%TF.FileFunction,Soldermask,Bot*%
%TF.FilePolarity,Negative*%
%FSLAX46Y46*%
G04 Gerber Fmt 4.6, Leading zero omitted, Abs format (unit mm)*
G04 Created by KiCad (PCBNEW 9.0.0) date 2025-03-30 14:17:43*
%MOMM*%
%LPD*%
G01*
G04 APERTURE LIST*
G04 Aperture macros list*
%AMRoundRect*
0 Rectangle with rounded corners*
0 $1 Rounding radius*
0 $2 $3 $4 $5 $6 $7 $8 $9 X,Y pos of 4 corners*
0 Add a 4 corners polygon primitive as box body*
4,1,4,$2,$3,$4,$5,$6,$7,$8,$9,$2,$3,0*
0 Add four circle primitives for the rounded corners*
1,1,$1+$1,$2,$3*
1,1,$1+$1,$4,$5*
1,1,$1+$1,$6,$7*
1,1,$1+$1,$8,$9*
0 Add four rect primitives between the rounded corners*
20,1,$1+$1,$2,$3,$4,$5,0*
20,1,$1+$1,$4,$5,$6,$7,0*
20,1,$1+$1,$6,$7,$8,$9,0*
20,1,$1+$1,$8,$9,$2,$3,0*%
G04 Aperture macros list end*
%ADD10O,1.700000X1.100000*%
%ADD11RoundRect,0.225000X0.375000X-0.225000X0.375000X0.225000X-0.375000X0.225000X-0.375000X-0.225000X0*%
%ADD12RoundRect,0.225000X-0.375000X0.225000X-0.375000X-0.225000X0.375000X-0.225000X0.375000X0.225000X0*%
%ADD13R,1.450000X1.450000*%
%ADD14C,1.450000*%
%ADD15R,1.600000X1.600000*%
%ADD16C,1.600000*%
%ADD17RoundRect,0.250001X0.799999X-0.799999X0.799999X0.799999X-0.799999X0.799999X-0.799999X-0.799999X0*%
%ADD18C,2.100000*%
%ADD19R,1.700000X1.700000*%
%ADD20O,1.700000X1.700000*%
%ADD21C,5.700000*%
%ADD22RoundRect,0.450000X-0.450000X0.450000X-0.450000X-0.450000X0.450000X-0.450000X0.450000X0.450000X0*%
%ADD23C,1.800000*%
%ADD24R,2.000000X2.000000*%
%ADD25C,2.000000*%
%ADD26RoundRect,0.237500X0.237500X-0.300000X0.237500X0.300000X-0.237500X0.300000X-0.237500X-0.300000X0*%
%ADD27RoundRect,0.250000X0.350000X-0.850000X0.350000X0.850000X-0.350000X0.850000X-0.350000X-0.850000X0*%
%ADD28RoundRect,0.249997X2.650003X-2.950003X2.650003X2.950003X-2.650003X2.950003X-2.650003X-2.950003X0*%
%ADD29RoundRect,0.237500X-0.237500X0.250000X-0.237500X-0.250000X0.237500X-0.250000X0.237500X0.250000X0*%
%ADD30RoundRect,0.225000X-0.250000X0.225000X-0.250000X-0.225000X0.250000X-0.225000X0.250000X0.225000X0*%
%ADD31RoundRect,0.237500X-0.300000X-0.237500X0.300000X-0.237500X0.300000X0.237500X-0.300000X0.237500X0*%
%ADD32RoundRect,0.237500X0.250000X0.237500X-0.250000X0.237500X-0.250000X-0.237500X0.250000X-0.237500X0*%
%ADD33R,1.100000X0.600000*%
%ADD34RoundRect,0.237500X-0.250000X-0.237500X0.250000X-0.237500X0.250000X0.237500X-0.250000X0.237500X0*%
%ADD35RoundRect,0.237500X0.237500X-0.250000X0.237500X0.250000X-0.237500X0.250000X-0.237500X-0.250000X0*%
%ADD36RoundRect,0.237500X-0.237500X0.300000X-0.237500X-0.300000X0.237500X-0.300000X0.237500X0.300000X0*%
%ADD37RoundRect,0.150000X-0.512500X-0.150000X0.512500X-0.150000X0.512500X0.150000X-0.512500X0.150000X0*%
G04 APERTURE END LIST*
D10*
%TO.C,J3*%
X65670000Y-111320000D03*
X61870000Y-111320000D03*
X65670000Y-119960000D03*
X61870000Y-119960000D03*
%TD*%
D11*
%TO.C,D6*%
X119270000Y-99020000D03*
X119270000Y-95720000D03*
%TD*%
D12*
%TO.C,D5*%
X119240000Y-87340000D03*
X119240000Y-90640000D03*
%TD*%
D13*
%TO.C,U3*%
X106140000Y-121990000D03*
D14*
X106140000Y-119450000D03*
X106140000Y-116910000D03*
X106140000Y-114370000D03*
X106140000Y-111830000D03*
X106140000Y-109290000D03*
X106140000Y-106750000D03*
X106140000Y-104210000D03*
%TD*%
D15*
%TO.C,C5*%
X101080000Y-88090000D03*
D16*
X99080000Y-88090000D03*
%TD*%
D17*
%TO.C,J1*%
X123920000Y-119420000D03*
D18*
X123920000Y-116880000D03*
X123920000Y-114340000D03*
X123920000Y-111800000D03*
%TD*%
D19*
%TO.C,J4*%
X68080000Y-83010000D03*
D20*
X70620000Y-83010000D03*
X73160000Y-83010000D03*
X75700000Y-83010000D03*
X78240000Y-83010000D03*
X80780000Y-83010000D03*
X83320000Y-83010000D03*
%TD*%
D19*
%TO.C,Y1*%
X65440000Y-89750000D03*
D20*
X65440000Y-92290000D03*
X65440000Y-94830000D03*
%TD*%
D21*
%TO.C,REF\u002A\u002A*%
X63040000Y-124460000D03*
%TD*%
D13*
%TO.C,U2*%
X111220000Y-100790000D03*
D14*
X111220000Y-98250000D03*
X111220000Y-95710000D03*
X111220000Y-93170000D03*
X111220000Y-90630000D03*
X111220000Y-88090000D03*
X111220000Y-85550000D03*
X111220000Y-83010000D03*
%TD*%
D22*
%TO.C,RV1*%
X111310000Y-119380000D03*
D23*
X113810000Y-119380000D03*
X116310000Y-119380000D03*
X111310000Y-116880000D03*
X113810000Y-116880000D03*
X116310000Y-116880000D03*
%TD*%
D21*
%TO.C,*%
X129000000Y-83010000D03*
%TD*%
D15*
%TO.C,C19*%
X94650000Y-85500000D03*
D16*
X94650000Y-83000000D03*
%TD*%
D15*
%TO.C,C13*%
X89240000Y-114900000D03*
D16*
X89240000Y-116900000D03*
%TD*%
D21*
%TO.C,*%
X62980000Y-83010000D03*
%TD*%
D24*
%TO.C,C21*%
X73270000Y-110920000D03*
D25*
X78270000Y-110920000D03*
%TD*%
D24*
%TO.C,C22*%
X78230000Y-119540000D03*
D25*
X78230000Y-124540000D03*
%TD*%
D13*
%TO.C,U4*%
X116290000Y-100800000D03*
D14*
X116290000Y-98260000D03*
X116290000Y-95720000D03*
X116290000Y-93180000D03*
X116290000Y-90640000D03*
X116290000Y-88100000D03*
X116290000Y-85560000D03*
X116290000Y-83020000D03*
%TD*%
D15*
%TO.C,C18*%
X82290000Y-102020000D03*
D16*
X82290000Y-104520000D03*
%TD*%
D15*
%TO.C,C4*%
X95120000Y-101870000D03*
D16*
X95120000Y-103870000D03*
%TD*%
D15*
%TO.C,C8*%
X101060000Y-98250000D03*
D16*
X99060000Y-98250000D03*
%TD*%
D17*
%TO.C,J2*%
X123930000Y-95710000D03*
D18*
X123930000Y-93170000D03*
X123930000Y-90630000D03*
X123930000Y-88090000D03*
%TD*%
D21*
%TO.C,*%
X129000000Y-124490000D03*
%TD*%
D15*
%TO.C,C11*%
X89360000Y-101964888D03*
D16*
X89360000Y-103964888D03*
%TD*%
D26*
%TO.C,C20*%
X90390000Y-93950000D03*
X90390000Y-92225000D03*
%TD*%
D27*
%TO.C,U5*%
X68770000Y-107190000D03*
X66490000Y-107190000D03*
D28*
X66490000Y-100890000D03*
D27*
X64210000Y-107190000D03*
%TD*%
D29*
%TO.C,R22*%
X70540000Y-120247500D03*
X70540000Y-122072500D03*
%TD*%
D26*
%TO.C,C2*%
X72120000Y-103875000D03*
X72120000Y-102150000D03*
%TD*%
D30*
%TO.C,C25*%
X74910000Y-116470000D03*
X74910000Y-118020000D03*
%TD*%
D26*
%TO.C,C17*%
X86980000Y-92870000D03*
X86980000Y-91145000D03*
%TD*%
D31*
%TO.C,C1*%
X74745000Y-103260000D03*
X76470000Y-103260000D03*
%TD*%
D32*
%TO.C,R19*%
X121062500Y-85400000D03*
X119237500Y-85400000D03*
%TD*%
D29*
%TO.C,R23*%
X72280000Y-120260000D03*
X72280000Y-122085000D03*
%TD*%
D33*
%TO.C,IC2*%
X73140000Y-116740000D03*
X73140000Y-117690000D03*
X73140000Y-118640000D03*
X70540000Y-118640000D03*
X70540000Y-117690000D03*
X70540000Y-116740000D03*
%TD*%
D32*
%TO.C,R18*%
X123292500Y-99020000D03*
X121467500Y-99020000D03*
%TD*%
D34*
%TO.C,R24*%
X69835000Y-114950000D03*
X71660000Y-114950000D03*
%TD*%
D29*
%TO.C,R15*%
X94860000Y-89137500D03*
X94860000Y-90962500D03*
%TD*%
D35*
%TO.C,R20*%
X73220000Y-114942500D03*
X73220000Y-113117500D03*
%TD*%
D29*
%TO.C,R16*%
X72120000Y-98785000D03*
X72120000Y-100610000D03*
%TD*%
D36*
%TO.C,C3*%
X90490000Y-97205000D03*
X90490000Y-98930000D03*
%TD*%
D29*
%TO.C,R21*%
X68830000Y-121037500D03*
X68830000Y-122862500D03*
%TD*%
D37*
%TO.C,U6*%
X74182500Y-101560000D03*
X74182500Y-100610000D03*
X74182500Y-99660000D03*
X76457500Y-99660000D03*
X76457500Y-101560000D03*
%TD*%
M02*
