%TF.GenerationSoftware,KiCad,Pcbnew,9.0.0*%
%TF.CreationDate,2025-03-30T14:17:43+09:00*%
%TF.ProjectId,v1000,76313030-302e-46b6-9963-61645f706362,rev?*%
%TF.SameCoordinates,Original*%
%TF.FileFunction,Paste,Top*%
%TF.FilePolarity,Positive*%
%FSLAX46Y46*%
G04 Gerber Fmt 4.6, Leading zero omitted, Abs format (unit mm)*
G04 Created by KiCad (PCBNEW 9.0.0) date 2025-03-30 14:17:43*
%MOMM*%
%LPD*%
G01*
G04 APERTURE LIST*
G04 Aperture macros list*
%AMRoundRect*
0 Rectangle with rounded corners*
0 $1 Rounding radius*
0 $2 $3 $4 $5 $6 $7 $8 $9 X,Y pos of 4 corners*
0 Add a 4 corners polygon primitive as box body*
4,1,4,$2,$3,$4,$5,$6,$7,$8,$9,$2,$3,0*
0 Add four circle primitives for the rounded corners*
1,1,$1+$1,$2,$3*
1,1,$1+$1,$4,$5*
1,1,$1+$1,$6,$7*
1,1,$1+$1,$8,$9*
0 Add four rect primitives between the rounded corners*
20,1,$1+$1,$2,$3,$4,$5,0*
20,1,$1+$1,$4,$5,$6,$7,0*
20,1,$1+$1,$6,$7,$8,$9,0*
20,1,$1+$1,$8,$9,$2,$3,0*%
G04 Aperture macros list end*
%ADD10RoundRect,0.237500X-0.250000X-0.237500X0.250000X-0.237500X0.250000X0.237500X-0.250000X0.237500X0*%
%ADD11RoundRect,0.237500X0.287500X0.237500X-0.287500X0.237500X-0.287500X-0.237500X0.287500X-0.237500X0*%
%ADD12RoundRect,0.175000X-0.425000X0.175000X-0.425000X-0.175000X0.425000X-0.175000X0.425000X0.175000X0*%
%ADD13RoundRect,0.190000X0.410000X-0.190000X0.410000X0.190000X-0.410000X0.190000X-0.410000X-0.190000X0*%
%ADD14RoundRect,0.200000X0.400000X-0.200000X0.400000X0.200000X-0.400000X0.200000X-0.400000X-0.200000X0*%
%ADD15RoundRect,0.175000X0.425000X-0.175000X0.425000X0.175000X-0.425000X0.175000X-0.425000X-0.175000X0*%
%ADD16RoundRect,0.190000X-0.410000X0.190000X-0.410000X-0.190000X0.410000X-0.190000X0.410000X0.190000X0*%
%ADD17RoundRect,0.200000X-0.400000X0.200000X-0.400000X-0.200000X0.400000X-0.200000X0.400000X0.200000X0*%
%ADD18O,1.700000X1.100000*%
%ADD19RoundRect,0.225000X-0.375000X0.225000X-0.375000X-0.225000X0.375000X-0.225000X0.375000X0.225000X0*%
%ADD20RoundRect,0.225000X0.375000X-0.225000X0.375000X0.225000X-0.375000X0.225000X-0.375000X-0.225000X0*%
%ADD21RoundRect,0.237500X0.237500X-0.300000X0.237500X0.300000X-0.237500X0.300000X-0.237500X-0.300000X0*%
%ADD22RoundRect,0.237500X-0.237500X0.250000X-0.237500X-0.250000X0.237500X-0.250000X0.237500X0.250000X0*%
%ADD23RoundRect,0.237500X-0.300000X-0.237500X0.300000X-0.237500X0.300000X0.237500X-0.300000X0.237500X0*%
%ADD24R,1.750000X0.450000*%
%ADD25RoundRect,0.237500X-0.237500X0.300000X-0.237500X-0.300000X0.237500X-0.300000X0.237500X0.300000X0*%
%ADD26RoundRect,0.218750X0.218750X0.256250X-0.218750X0.256250X-0.218750X-0.256250X0.218750X-0.256250X0*%
%ADD27R,1.750000X0.700000*%
G04 APERTURE END LIST*
D10*
%TO.C,R17*%
X78225000Y-99930000D03*
X76400000Y-99930000D03*
%TD*%
D11*
%TO.C,D1*%
X73010000Y-99930000D03*
X74760000Y-99930000D03*
%TD*%
D12*
%TO.C,J3*%
X65750000Y-115140000D03*
D13*
X65750000Y-117160000D03*
D14*
X65750000Y-118390000D03*
D15*
X65750000Y-116140000D03*
D16*
X65750000Y-114120000D03*
D17*
X65750000Y-112890000D03*
D18*
X65670000Y-111320000D03*
X61870000Y-111320000D03*
X65670000Y-119960000D03*
X61870000Y-119960000D03*
%TD*%
D19*
%TO.C,D4*%
X83910000Y-115300000D03*
X83910000Y-118600000D03*
%TD*%
D20*
%TO.C,D3*%
X83820000Y-113060000D03*
X83820000Y-109760000D03*
%TD*%
D10*
%TO.C,R6*%
X91615000Y-106720000D03*
X93440000Y-106720000D03*
%TD*%
D21*
%TO.C,C23*%
X68770000Y-107140000D03*
X68770000Y-105415000D03*
%TD*%
D22*
%TO.C,R1*%
X68200000Y-91447500D03*
X68200000Y-93272500D03*
%TD*%
D23*
%TO.C,C7*%
X99920000Y-94440000D03*
X101645000Y-94440000D03*
%TD*%
D24*
%TO.C,U1*%
X85130000Y-89405000D03*
X85130000Y-90055000D03*
X85130000Y-90705000D03*
X85130000Y-91355000D03*
X85130000Y-92005000D03*
X85130000Y-92655000D03*
X85130000Y-93305000D03*
X85130000Y-93955000D03*
X85130000Y-94605000D03*
X85130000Y-95255000D03*
X85130000Y-95905000D03*
X85130000Y-96555000D03*
X85130000Y-97205000D03*
X85130000Y-97855000D03*
X92330000Y-97855000D03*
X92330000Y-97205000D03*
X92330000Y-96555000D03*
X92330000Y-95905000D03*
X92330000Y-95255000D03*
X92330000Y-94605000D03*
X92330000Y-93955000D03*
X92330000Y-93305000D03*
X92330000Y-92655000D03*
X92330000Y-92005000D03*
X92330000Y-91355000D03*
X92330000Y-90705000D03*
X92330000Y-90055000D03*
X92330000Y-89405000D03*
%TD*%
D10*
%TO.C,R13*%
X99255000Y-119450000D03*
X101080000Y-119450000D03*
%TD*%
D22*
%TO.C,R4*%
X103770000Y-100050000D03*
X103770000Y-101875000D03*
%TD*%
D25*
%TO.C,C14*%
X93440000Y-121970000D03*
X93440000Y-123695000D03*
%TD*%
%TO.C,C9*%
X93440000Y-109280000D03*
X93440000Y-111005000D03*
%TD*%
D10*
%TO.C,R11*%
X95077500Y-119430000D03*
X96902500Y-119430000D03*
%TD*%
%TO.C,R7*%
X95057500Y-106720000D03*
X96882500Y-106720000D03*
%TD*%
D26*
%TO.C,D2*%
X71877500Y-123760000D03*
X70302500Y-123760000D03*
%TD*%
D10*
%TO.C,R12*%
X99235000Y-121980000D03*
X101060000Y-121980000D03*
%TD*%
D27*
%TO.C,IC1*%
X70240000Y-89145000D03*
X70240000Y-90415000D03*
X70240000Y-91685000D03*
X70240000Y-92955000D03*
X70240000Y-94225000D03*
X70240000Y-95495000D03*
X70240000Y-96765000D03*
X70240000Y-98035000D03*
X79740000Y-98035000D03*
X79740000Y-96765000D03*
X79740000Y-95495000D03*
X79740000Y-94225000D03*
X79740000Y-92955000D03*
X79740000Y-91685000D03*
X79740000Y-90415000D03*
X79740000Y-89145000D03*
%TD*%
D10*
%TO.C,R2*%
X105227500Y-88080000D03*
X107052500Y-88080000D03*
%TD*%
D25*
%TO.C,C16*%
X103110000Y-119795000D03*
X103110000Y-121520000D03*
%TD*%
D21*
%TO.C,C12*%
X103130000Y-108852500D03*
X103130000Y-107127500D03*
%TD*%
D10*
%TO.C,R8*%
X99245000Y-109260000D03*
X101070000Y-109260000D03*
%TD*%
D25*
%TO.C,C10*%
X96900000Y-109250000D03*
X96900000Y-110975000D03*
%TD*%
D10*
%TO.C,R14*%
X87655000Y-85500000D03*
X89480000Y-85500000D03*
%TD*%
D22*
%TO.C,R3*%
X103780000Y-89840000D03*
X103780000Y-91665000D03*
%TD*%
D10*
%TO.C,R10*%
X91615000Y-119440000D03*
X93440000Y-119440000D03*
%TD*%
%TO.C,R9*%
X99245000Y-106730000D03*
X101070000Y-106730000D03*
%TD*%
D23*
%TO.C,C6*%
X99537500Y-84300000D03*
X101262500Y-84300000D03*
%TD*%
D21*
%TO.C,C24*%
X64200000Y-107210000D03*
X64200000Y-105485000D03*
%TD*%
D10*
%TO.C,R5*%
X105235000Y-98250000D03*
X107060000Y-98250000D03*
%TD*%
D25*
%TO.C,C15*%
X96940000Y-121970000D03*
X96940000Y-123695000D03*
%TD*%
M02*
