%TF.GenerationSoftware,KiCad,Pcbnew,8.0.6*%
%TF.CreationDate,2024-10-21T19:05:51+09:00*%
%TF.ProjectId,pcb_dcdc,7063625f-6463-4646-932e-6b696361645f,rev?*%
%TF.SameCoordinates,Original*%
%TF.FileFunction,Soldermask,Bot*%
%TF.FilePolarity,Negative*%
%FSLAX46Y46*%
G04 Gerber Fmt 4.6, Leading zero omitted, Abs format (unit mm)*
G04 Created by KiCad (PCBNEW 8.0.6) date 2024-10-21 19:05:51*
%MOMM*%
%LPD*%
G01*
G04 APERTURE LIST*
%ADD10R,2.800000X2.800000*%
%ADD11C,2.800000*%
%ADD12R,1.500000X1.500000*%
%ADD13C,1.600000*%
%ADD14R,1.600000X1.600000*%
%ADD15R,2.000000X2.000000*%
%ADD16O,2.000000X2.000000*%
%ADD17R,1.500000X1.050000*%
%ADD18O,1.500000X1.050000*%
%ADD19O,1.600000X1.600000*%
%ADD20R,1.700000X1.700000*%
%ADD21O,1.700000X1.700000*%
G04 APERTURE END LIST*
D10*
%TO.C,IN*%
X133945000Y-64130000D03*
D11*
X128865000Y-64130000D03*
%TD*%
D12*
%TO.C,SW2*%
X119380000Y-66030000D03*
D13*
X121920000Y-66030000D03*
X116840000Y-66030000D03*
%TD*%
D14*
%TO.C,C1*%
X112950000Y-59160000D03*
D13*
X116450000Y-59160000D03*
%TD*%
D10*
%TO.C,OUT*%
X141155000Y-64130000D03*
D11*
X146235000Y-64130000D03*
%TD*%
D15*
%TO.C,D3*%
X136070000Y-51510000D03*
D16*
X136070000Y-56590000D03*
%TD*%
D17*
%TO.C,Q2*%
X130790000Y-54180000D03*
D18*
X130790000Y-52910000D03*
X130790000Y-51640000D03*
%TD*%
D15*
%TO.C,D2*%
X136040000Y-43140000D03*
D16*
X136040000Y-48220000D03*
%TD*%
D14*
%TO.C,U1*%
X115040000Y-50830000D03*
D19*
X117580000Y-50830000D03*
X120120000Y-50830000D03*
X122660000Y-50830000D03*
X122660000Y-43210000D03*
X120120000Y-43210000D03*
X117580000Y-43210000D03*
X115040000Y-43210000D03*
%TD*%
D10*
%TO.C,IN*%
X133925000Y-124130000D03*
D11*
X128845000Y-124130000D03*
%TD*%
D20*
%TO.C,RV1*%
X120190000Y-114360000D03*
D21*
X122730000Y-114360000D03*
X125270000Y-114360000D03*
%TD*%
D17*
%TO.C,Q1*%
X130070000Y-104810000D03*
D18*
X130070000Y-106080000D03*
X130070000Y-107350000D03*
%TD*%
D14*
%TO.C,C2*%
X143250000Y-52997349D03*
D13*
X143250000Y-56497349D03*
%TD*%
D10*
%TO.C,OUT*%
X141135000Y-124130000D03*
D11*
X146215000Y-124130000D03*
%TD*%
D20*
%TO.C,RV1*%
X120210000Y-54360000D03*
D21*
X122750000Y-54360000D03*
X125290000Y-54360000D03*
%TD*%
D17*
%TO.C,Q1*%
X130090000Y-44810000D03*
D18*
X130090000Y-46080000D03*
X130090000Y-47350000D03*
%TD*%
D14*
%TO.C,C3*%
X143280000Y-43910000D03*
D13*
X143280000Y-47410000D03*
%TD*%
D14*
%TO.C,C2*%
X143230000Y-112997349D03*
D13*
X143230000Y-116497349D03*
%TD*%
D14*
%TO.C,C3*%
X143260000Y-103910000D03*
D13*
X143260000Y-107410000D03*
%TD*%
D15*
%TO.C,D3*%
X136050000Y-111510000D03*
D16*
X136050000Y-116590000D03*
%TD*%
D17*
%TO.C,Q2*%
X130770000Y-114180000D03*
D18*
X130770000Y-112910000D03*
X130770000Y-111640000D03*
%TD*%
D15*
%TO.C,D2*%
X136020000Y-103140000D03*
D16*
X136020000Y-108220000D03*
%TD*%
D14*
%TO.C,U1*%
X115020000Y-110830000D03*
D19*
X117560000Y-110830000D03*
X120100000Y-110830000D03*
X122640000Y-110830000D03*
X122640000Y-103210000D03*
X120100000Y-103210000D03*
X117560000Y-103210000D03*
X115020000Y-103210000D03*
%TD*%
D10*
%TO.C,IN*%
X133945000Y-94130000D03*
D11*
X128865000Y-94130000D03*
%TD*%
D20*
%TO.C,RV1*%
X120210000Y-84360000D03*
D21*
X122750000Y-84360000D03*
X125290000Y-84360000D03*
%TD*%
D17*
%TO.C,Q1*%
X130090000Y-74810000D03*
D18*
X130090000Y-76080000D03*
X130090000Y-77350000D03*
%TD*%
D14*
%TO.C,C3*%
X143280000Y-73910000D03*
D13*
X143280000Y-77410000D03*
%TD*%
D15*
%TO.C,D3*%
X136070000Y-81510000D03*
D16*
X136070000Y-86590000D03*
%TD*%
D17*
%TO.C,Q2*%
X130790000Y-84180000D03*
D18*
X130790000Y-82910000D03*
X130790000Y-81640000D03*
%TD*%
D15*
%TO.C,D2*%
X136040000Y-73140000D03*
D16*
X136040000Y-78220000D03*
%TD*%
D14*
%TO.C,U1*%
X115040000Y-80830000D03*
D19*
X117580000Y-80830000D03*
X120120000Y-80830000D03*
X122660000Y-80830000D03*
X122660000Y-73210000D03*
X120120000Y-73210000D03*
X117580000Y-73210000D03*
X115040000Y-73210000D03*
%TD*%
D14*
%TO.C,C2*%
X143250000Y-82997349D03*
D13*
X143250000Y-86497349D03*
%TD*%
D14*
%TO.C,C1*%
X112950000Y-89160000D03*
D13*
X116450000Y-89160000D03*
%TD*%
D12*
%TO.C,SW2*%
X119380000Y-96030000D03*
D13*
X121920000Y-96030000D03*
X116840000Y-96030000D03*
%TD*%
D10*
%TO.C,OUT*%
X141155000Y-94130000D03*
D11*
X146235000Y-94130000D03*
%TD*%
D12*
%TO.C,SW2*%
X119360000Y-126030000D03*
D13*
X121900000Y-126030000D03*
X116820000Y-126030000D03*
%TD*%
D14*
%TO.C,C1*%
X112930000Y-119160000D03*
D13*
X116430000Y-119160000D03*
%TD*%
D10*
%TO.C,IN*%
X173945000Y-64130000D03*
D11*
X168865000Y-64130000D03*
%TD*%
D20*
%TO.C,RV1*%
X160210000Y-54360000D03*
D21*
X162750000Y-54360000D03*
X165290000Y-54360000D03*
%TD*%
D17*
%TO.C,Q1*%
X170090000Y-44810000D03*
D18*
X170090000Y-46080000D03*
X170090000Y-47350000D03*
%TD*%
D14*
%TO.C,C3*%
X183280000Y-43910000D03*
D13*
X183280000Y-47410000D03*
%TD*%
D15*
%TO.C,D3*%
X176070000Y-51510000D03*
D16*
X176070000Y-56590000D03*
%TD*%
D17*
%TO.C,Q2*%
X170790000Y-54180000D03*
D18*
X170790000Y-52910000D03*
X170790000Y-51640000D03*
%TD*%
D15*
%TO.C,D2*%
X176040000Y-43140000D03*
D16*
X176040000Y-48220000D03*
%TD*%
D14*
%TO.C,U1*%
X155040000Y-50830000D03*
D19*
X157580000Y-50830000D03*
X160120000Y-50830000D03*
X162660000Y-50830000D03*
X162660000Y-43210000D03*
X160120000Y-43210000D03*
X157580000Y-43210000D03*
X155040000Y-43210000D03*
%TD*%
D14*
%TO.C,C2*%
X183250000Y-52997349D03*
D13*
X183250000Y-56497349D03*
%TD*%
D14*
%TO.C,C1*%
X152950000Y-59160000D03*
D13*
X156450000Y-59160000D03*
%TD*%
D12*
%TO.C,SW2*%
X159380000Y-66030000D03*
D13*
X161920000Y-66030000D03*
X156840000Y-66030000D03*
%TD*%
D10*
%TO.C,OUT*%
X181155000Y-64130000D03*
D11*
X186235000Y-64130000D03*
%TD*%
D10*
%TO.C,IN*%
X173925000Y-124130000D03*
D11*
X168845000Y-124130000D03*
%TD*%
D20*
%TO.C,RV1*%
X160190000Y-114360000D03*
D21*
X162730000Y-114360000D03*
X165270000Y-114360000D03*
%TD*%
D17*
%TO.C,Q1*%
X170070000Y-104810000D03*
D18*
X170070000Y-106080000D03*
X170070000Y-107350000D03*
%TD*%
D14*
%TO.C,C3*%
X183260000Y-103910000D03*
D13*
X183260000Y-107410000D03*
%TD*%
D15*
%TO.C,D3*%
X176050000Y-111510000D03*
D16*
X176050000Y-116590000D03*
%TD*%
D17*
%TO.C,Q2*%
X170770000Y-114180000D03*
D18*
X170770000Y-112910000D03*
X170770000Y-111640000D03*
%TD*%
D15*
%TO.C,D2*%
X176020000Y-103140000D03*
D16*
X176020000Y-108220000D03*
%TD*%
D14*
%TO.C,U1*%
X155020000Y-110830000D03*
D19*
X157560000Y-110830000D03*
X160100000Y-110830000D03*
X162640000Y-110830000D03*
X162640000Y-103210000D03*
X160100000Y-103210000D03*
X157560000Y-103210000D03*
X155020000Y-103210000D03*
%TD*%
D14*
%TO.C,C2*%
X183230000Y-112997349D03*
D13*
X183230000Y-116497349D03*
%TD*%
D14*
%TO.C,C1*%
X152930000Y-119160000D03*
D13*
X156430000Y-119160000D03*
%TD*%
D12*
%TO.C,SW2*%
X159360000Y-126030000D03*
D13*
X161900000Y-126030000D03*
X156820000Y-126030000D03*
%TD*%
D10*
%TO.C,OUT*%
X181135000Y-124130000D03*
D11*
X186215000Y-124130000D03*
%TD*%
D12*
%TO.C,SW2*%
X159380000Y-96030000D03*
D13*
X161920000Y-96030000D03*
X156840000Y-96030000D03*
%TD*%
D10*
%TO.C,OUT*%
X181155000Y-94130000D03*
D11*
X186235000Y-94130000D03*
%TD*%
D15*
%TO.C,D2*%
X176040000Y-73140000D03*
D16*
X176040000Y-78220000D03*
%TD*%
D14*
%TO.C,U1*%
X155040000Y-80830000D03*
D19*
X157580000Y-80830000D03*
X160120000Y-80830000D03*
X162660000Y-80830000D03*
X162660000Y-73210000D03*
X160120000Y-73210000D03*
X157580000Y-73210000D03*
X155040000Y-73210000D03*
%TD*%
D15*
%TO.C,D3*%
X176070000Y-81510000D03*
D16*
X176070000Y-86590000D03*
%TD*%
D17*
%TO.C,Q2*%
X170790000Y-84180000D03*
D18*
X170790000Y-82910000D03*
X170790000Y-81640000D03*
%TD*%
D10*
%TO.C,IN*%
X173945000Y-94130000D03*
D11*
X168865000Y-94130000D03*
%TD*%
D20*
%TO.C,RV1*%
X160210000Y-84360000D03*
D21*
X162750000Y-84360000D03*
X165290000Y-84360000D03*
%TD*%
D17*
%TO.C,Q1*%
X170090000Y-74810000D03*
D18*
X170090000Y-76080000D03*
X170090000Y-77350000D03*
%TD*%
D14*
%TO.C,C1*%
X152950000Y-89160000D03*
D13*
X156450000Y-89160000D03*
%TD*%
D14*
%TO.C,C3*%
X183280000Y-73910000D03*
D13*
X183280000Y-77410000D03*
%TD*%
D14*
%TO.C,C2*%
X183250000Y-82997349D03*
D13*
X183250000Y-86497349D03*
%TD*%
M02*
