M48
; DRILL file {KiCad 8.0.6} date 2024-10-21T19:05:46+0900
; FORMAT={-:-/ absolute / inch / decimal}
; #@! TF.CreationDate,2024-10-21T19:05:46+09:00
; #@! TF.GenerationSoftware,Kicad,Pcbnew,8.0.6
; #@! TF.FileFunction,Plated,1,2,PTH
FMAT,2
INCH
; #@! TA.AperFunction,Plated,PTH,ViaDrill
T1C0.0118
; #@! TA.AperFunction,Plated,PTH,ComponentDrill
T2C0.0295
; #@! TA.AperFunction,Plated,PTH,ComponentDrill
T3C0.0315
; #@! TA.AperFunction,Plated,PTH,ComponentDrill
T4C0.0394
; #@! TA.AperFunction,Plated,PTH,ComponentDrill
T5C0.0689
%
G90
G05
T1
X4.4055Y-5.0433
X4.4063Y-2.6811
X4.4063Y-3.8622
X4.4094Y-4.0161
X4.4102Y-1.6539
X4.4102Y-2.835
X5.8256Y-5.0413
X5.8264Y-2.6791
X5.8264Y-3.8602
X5.8276Y-4.0142
X5.8283Y-1.652
X5.8283Y-2.8331
X5.9803Y-5.0433
X5.9811Y-2.6811
X5.9811Y-3.8622
X5.9843Y-4.0161
X5.985Y-1.6539
X5.985Y-2.835
X7.4004Y-5.0413
X7.4012Y-2.6791
X7.4012Y-3.8602
X7.4024Y-4.0142
X7.4031Y-1.652
X7.4031Y-2.8331
T2
X5.1209Y-4.1264
X5.1209Y-4.1764
X5.1209Y-4.2264
X5.1217Y-1.7642
X5.1217Y-1.8142
X5.1217Y-1.8642
X5.1217Y-2.9453
X5.1217Y-2.9953
X5.1217Y-3.0453
X5.1484Y-4.3953
X5.1484Y-4.4453
X5.1484Y-4.4953
X5.1492Y-2.0331
X5.1492Y-2.0831
X5.1492Y-2.1331
X5.1492Y-3.2142
X5.1492Y-3.2642
X5.1492Y-3.3142
X6.6957Y-4.1264
X6.6957Y-4.1764
X6.6957Y-4.2264
X6.6965Y-1.7642
X6.6965Y-1.8142
X6.6965Y-1.8642
X6.6965Y-2.9453
X6.6965Y-2.9953
X6.6965Y-3.0453
X6.7232Y-4.3953
X6.7232Y-4.4453
X6.7232Y-4.4953
X6.724Y-2.0331
X6.724Y-2.0831
X6.724Y-2.1331
X6.724Y-3.2142
X6.724Y-3.2642
X6.724Y-3.3142
T3
X4.4461Y-4.6913
X4.4469Y-2.3291
X4.4469Y-3.5102
X4.5283Y-4.0634
X4.5283Y-4.3634
X4.5291Y-1.7012
X4.5291Y-2.0012
X4.5291Y-2.8823
X4.5291Y-3.1823
X4.5839Y-4.6913
X4.5846Y-2.3291
X4.5846Y-3.5102
X4.5992Y-4.9618
X4.6Y-2.5996
X4.6Y-3.7807
X4.6283Y-4.0634
X4.6283Y-4.3634
X4.6291Y-1.7012
X4.6291Y-2.0012
X4.6291Y-2.8823
X4.6291Y-3.1823
X4.6992Y-4.9618
X4.7Y-2.5996
X4.7Y-3.7807
X4.7283Y-4.0634
X4.7283Y-4.3634
X4.7291Y-1.7012
X4.7291Y-2.0012
X4.7291Y-2.8823
X4.7291Y-3.1823
X4.7992Y-4.9618
X4.8Y-2.5996
X4.8Y-3.7807
X4.8283Y-4.0634
X4.8283Y-4.3634
X4.8291Y-1.7012
X4.8291Y-2.0012
X4.8291Y-2.8823
X4.8291Y-3.1823
X5.639Y-4.4487
X5.639Y-4.5865
X5.6398Y-2.0865
X5.6398Y-2.2243
X5.6398Y-3.2676
X5.6398Y-3.4054
X5.6402Y-4.0909
X5.6402Y-4.2287
X5.6409Y-1.7287
X5.6409Y-1.8665
X5.6409Y-2.9098
X5.6409Y-3.0476
X6.0209Y-4.6913
X6.0217Y-2.3291
X6.0217Y-3.5102
X6.1031Y-4.0634
X6.1031Y-4.3634
X6.1039Y-1.7012
X6.1039Y-2.0012
X6.1039Y-2.8823
X6.1039Y-3.1823
X6.1587Y-4.6913
X6.1594Y-2.3291
X6.1594Y-3.5102
X6.174Y-4.9618
X6.1748Y-2.5996
X6.1748Y-3.7807
X6.2031Y-4.0634
X6.2031Y-4.3634
X6.2039Y-1.7012
X6.2039Y-2.0012
X6.2039Y-2.8823
X6.2039Y-3.1823
X6.274Y-4.9618
X6.2748Y-2.5996
X6.2748Y-3.7807
X6.3031Y-4.0634
X6.3031Y-4.3634
X6.3039Y-1.7012
X6.3039Y-2.0012
X6.3039Y-2.8823
X6.3039Y-3.1823
X6.374Y-4.9618
X6.3748Y-2.5996
X6.3748Y-3.7807
X6.4031Y-4.0634
X6.4031Y-4.3634
X6.4039Y-1.7012
X6.4039Y-2.0012
X6.4039Y-2.8823
X6.4039Y-3.1823
X7.2138Y-4.4487
X7.2138Y-4.5865
X7.2146Y-2.0865
X7.2146Y-2.2243
X7.2146Y-3.2676
X7.2146Y-3.4054
X7.215Y-4.0909
X7.215Y-4.2287
X7.2157Y-1.7287
X7.2157Y-1.8665
X7.2157Y-2.9098
X7.2157Y-3.0476
T4
X4.7319Y-4.5024
X4.7327Y-2.1402
X4.7327Y-3.3213
X4.8319Y-4.5024
X4.8327Y-2.1402
X4.8327Y-3.3213
X4.9319Y-4.5024
X4.9327Y-2.1402
X4.9327Y-3.3213
X5.3551Y-4.0606
X5.3551Y-4.2606
X5.3559Y-1.6984
X5.3559Y-1.8984
X5.3559Y-2.8795
X5.3559Y-3.0795
X5.3563Y-4.3902
X5.3563Y-4.5902
X5.3571Y-2.028
X5.3571Y-2.228
X5.3571Y-3.2091
X5.3571Y-3.4091
X6.3067Y-4.5024
X6.3075Y-2.1402
X6.3075Y-3.3213
X6.4067Y-4.5024
X6.4075Y-2.1402
X6.4075Y-3.3213
X6.5067Y-4.5024
X6.5075Y-2.1402
X6.5075Y-3.3213
X6.9299Y-4.0606
X6.9299Y-4.2606
X6.9307Y-1.6984
X6.9307Y-1.8984
X6.9307Y-2.8795
X6.9307Y-3.0795
X6.9311Y-4.3902
X6.9311Y-4.5902
X6.9319Y-2.028
X6.9319Y-2.228
X6.9319Y-3.2091
X6.9319Y-3.4091
T5
X5.0726Y-4.887
X5.0734Y-2.5248
X5.0734Y-3.7059
X5.2726Y-4.887
X5.2734Y-2.5248
X5.2734Y-3.7059
X5.5565Y-4.887
X5.5573Y-2.5248
X5.5573Y-3.7059
X5.7565Y-4.887
X5.7573Y-2.5248
X5.7573Y-3.7059
X6.6474Y-4.887
X6.6482Y-2.5248
X6.6482Y-3.7059
X6.8474Y-4.887
X6.8482Y-2.5248
X6.8482Y-3.7059
X7.1313Y-4.887
X7.1321Y-2.5248
X7.1321Y-3.7059
X7.3313Y-4.887
X7.3321Y-2.5248
X7.3321Y-3.7059
M30
