%TF.GenerationSoftware,KiCad,Pcbnew,8.0.8*%
%TF.CreationDate,2025-02-24T16:27:27+09:00*%
%TF.ProjectId,keyboard,6b657962-6f61-4726-942e-6b696361645f,rev?*%
%TF.SameCoordinates,Original*%
%TF.FileFunction,Legend,Bot*%
%TF.FilePolarity,Positive*%
%FSLAX46Y46*%
G04 Gerber Fmt 4.6, Leading zero omitted, Abs format (unit mm)*
G04 Created by KiCad (PCBNEW 8.0.8) date 2025-02-24 16:27:27*
%MOMM*%
%LPD*%
G01*
G04 APERTURE LIST*
%ADD10C,0.150000*%
%ADD11C,0.120000*%
G04 APERTURE END LIST*
D10*
X127221904Y-72644819D02*
X127221904Y-73454342D01*
X127221904Y-73454342D02*
X127174285Y-73549580D01*
X127174285Y-73549580D02*
X127126666Y-73597200D01*
X127126666Y-73597200D02*
X127031428Y-73644819D01*
X127031428Y-73644819D02*
X126840952Y-73644819D01*
X126840952Y-73644819D02*
X126745714Y-73597200D01*
X126745714Y-73597200D02*
X126698095Y-73549580D01*
X126698095Y-73549580D02*
X126650476Y-73454342D01*
X126650476Y-73454342D02*
X126650476Y-72644819D01*
X126269523Y-72644819D02*
X125650476Y-72644819D01*
X125650476Y-72644819D02*
X125983809Y-73025771D01*
X125983809Y-73025771D02*
X125840952Y-73025771D01*
X125840952Y-73025771D02*
X125745714Y-73073390D01*
X125745714Y-73073390D02*
X125698095Y-73121009D01*
X125698095Y-73121009D02*
X125650476Y-73216247D01*
X125650476Y-73216247D02*
X125650476Y-73454342D01*
X125650476Y-73454342D02*
X125698095Y-73549580D01*
X125698095Y-73549580D02*
X125745714Y-73597200D01*
X125745714Y-73597200D02*
X125840952Y-73644819D01*
X125840952Y-73644819D02*
X126126666Y-73644819D01*
X126126666Y-73644819D02*
X126221904Y-73597200D01*
X126221904Y-73597200D02*
X126269523Y-73549580D01*
X133884819Y-123833333D02*
X133408628Y-123500000D01*
X133884819Y-123261905D02*
X132884819Y-123261905D01*
X132884819Y-123261905D02*
X132884819Y-123642857D01*
X132884819Y-123642857D02*
X132932438Y-123738095D01*
X132932438Y-123738095D02*
X132980057Y-123785714D01*
X132980057Y-123785714D02*
X133075295Y-123833333D01*
X133075295Y-123833333D02*
X133218152Y-123833333D01*
X133218152Y-123833333D02*
X133313390Y-123785714D01*
X133313390Y-123785714D02*
X133361009Y-123738095D01*
X133361009Y-123738095D02*
X133408628Y-123642857D01*
X133408628Y-123642857D02*
X133408628Y-123261905D01*
X132884819Y-124166667D02*
X132884819Y-124833333D01*
X132884819Y-124833333D02*
X133884819Y-124404762D01*
X115401666Y-75929580D02*
X115449285Y-75977200D01*
X115449285Y-75977200D02*
X115592142Y-76024819D01*
X115592142Y-76024819D02*
X115687380Y-76024819D01*
X115687380Y-76024819D02*
X115830237Y-75977200D01*
X115830237Y-75977200D02*
X115925475Y-75881961D01*
X115925475Y-75881961D02*
X115973094Y-75786723D01*
X115973094Y-75786723D02*
X116020713Y-75596247D01*
X116020713Y-75596247D02*
X116020713Y-75453390D01*
X116020713Y-75453390D02*
X115973094Y-75262914D01*
X115973094Y-75262914D02*
X115925475Y-75167676D01*
X115925475Y-75167676D02*
X115830237Y-75072438D01*
X115830237Y-75072438D02*
X115687380Y-75024819D01*
X115687380Y-75024819D02*
X115592142Y-75024819D01*
X115592142Y-75024819D02*
X115449285Y-75072438D01*
X115449285Y-75072438D02*
X115401666Y-75120057D01*
X115068332Y-75024819D02*
X114449285Y-75024819D01*
X114449285Y-75024819D02*
X114782618Y-75405771D01*
X114782618Y-75405771D02*
X114639761Y-75405771D01*
X114639761Y-75405771D02*
X114544523Y-75453390D01*
X114544523Y-75453390D02*
X114496904Y-75501009D01*
X114496904Y-75501009D02*
X114449285Y-75596247D01*
X114449285Y-75596247D02*
X114449285Y-75834342D01*
X114449285Y-75834342D02*
X114496904Y-75929580D01*
X114496904Y-75929580D02*
X114544523Y-75977200D01*
X114544523Y-75977200D02*
X114639761Y-76024819D01*
X114639761Y-76024819D02*
X114925475Y-76024819D01*
X114925475Y-76024819D02*
X115020713Y-75977200D01*
X115020713Y-75977200D02*
X115068332Y-75929580D01*
X166884819Y-140633333D02*
X166408628Y-140300000D01*
X166884819Y-140061905D02*
X165884819Y-140061905D01*
X165884819Y-140061905D02*
X165884819Y-140442857D01*
X165884819Y-140442857D02*
X165932438Y-140538095D01*
X165932438Y-140538095D02*
X165980057Y-140585714D01*
X165980057Y-140585714D02*
X166075295Y-140633333D01*
X166075295Y-140633333D02*
X166218152Y-140633333D01*
X166218152Y-140633333D02*
X166313390Y-140585714D01*
X166313390Y-140585714D02*
X166361009Y-140538095D01*
X166361009Y-140538095D02*
X166408628Y-140442857D01*
X166408628Y-140442857D02*
X166408628Y-140061905D01*
X166884819Y-141585714D02*
X166884819Y-141014286D01*
X166884819Y-141300000D02*
X165884819Y-141300000D01*
X165884819Y-141300000D02*
X166027676Y-141204762D01*
X166027676Y-141204762D02*
X166122914Y-141109524D01*
X166122914Y-141109524D02*
X166170533Y-141014286D01*
X166884819Y-107057142D02*
X166408628Y-106723809D01*
X166884819Y-106485714D02*
X165884819Y-106485714D01*
X165884819Y-106485714D02*
X165884819Y-106866666D01*
X165884819Y-106866666D02*
X165932438Y-106961904D01*
X165932438Y-106961904D02*
X165980057Y-107009523D01*
X165980057Y-107009523D02*
X166075295Y-107057142D01*
X166075295Y-107057142D02*
X166218152Y-107057142D01*
X166218152Y-107057142D02*
X166313390Y-107009523D01*
X166313390Y-107009523D02*
X166361009Y-106961904D01*
X166361009Y-106961904D02*
X166408628Y-106866666D01*
X166408628Y-106866666D02*
X166408628Y-106485714D01*
X166884819Y-108009523D02*
X166884819Y-107438095D01*
X166884819Y-107723809D02*
X165884819Y-107723809D01*
X165884819Y-107723809D02*
X166027676Y-107628571D01*
X166027676Y-107628571D02*
X166122914Y-107533333D01*
X166122914Y-107533333D02*
X166170533Y-107438095D01*
X165884819Y-108628571D02*
X165884819Y-108723809D01*
X165884819Y-108723809D02*
X165932438Y-108819047D01*
X165932438Y-108819047D02*
X165980057Y-108866666D01*
X165980057Y-108866666D02*
X166075295Y-108914285D01*
X166075295Y-108914285D02*
X166265771Y-108961904D01*
X166265771Y-108961904D02*
X166503866Y-108961904D01*
X166503866Y-108961904D02*
X166694342Y-108914285D01*
X166694342Y-108914285D02*
X166789580Y-108866666D01*
X166789580Y-108866666D02*
X166837200Y-108819047D01*
X166837200Y-108819047D02*
X166884819Y-108723809D01*
X166884819Y-108723809D02*
X166884819Y-108628571D01*
X166884819Y-108628571D02*
X166837200Y-108533333D01*
X166837200Y-108533333D02*
X166789580Y-108485714D01*
X166789580Y-108485714D02*
X166694342Y-108438095D01*
X166694342Y-108438095D02*
X166503866Y-108390476D01*
X166503866Y-108390476D02*
X166265771Y-108390476D01*
X166265771Y-108390476D02*
X166075295Y-108438095D01*
X166075295Y-108438095D02*
X165980057Y-108485714D01*
X165980057Y-108485714D02*
X165932438Y-108533333D01*
X165932438Y-108533333D02*
X165884819Y-108628571D01*
X133884819Y-107032142D02*
X133408628Y-106698809D01*
X133884819Y-106460714D02*
X132884819Y-106460714D01*
X132884819Y-106460714D02*
X132884819Y-106841666D01*
X132884819Y-106841666D02*
X132932438Y-106936904D01*
X132932438Y-106936904D02*
X132980057Y-106984523D01*
X132980057Y-106984523D02*
X133075295Y-107032142D01*
X133075295Y-107032142D02*
X133218152Y-107032142D01*
X133218152Y-107032142D02*
X133313390Y-106984523D01*
X133313390Y-106984523D02*
X133361009Y-106936904D01*
X133361009Y-106936904D02*
X133408628Y-106841666D01*
X133408628Y-106841666D02*
X133408628Y-106460714D01*
X133884819Y-107984523D02*
X133884819Y-107413095D01*
X133884819Y-107698809D02*
X132884819Y-107698809D01*
X132884819Y-107698809D02*
X133027676Y-107603571D01*
X133027676Y-107603571D02*
X133122914Y-107508333D01*
X133122914Y-107508333D02*
X133170533Y-107413095D01*
X133218152Y-108841666D02*
X133884819Y-108841666D01*
X132837200Y-108603571D02*
X133551485Y-108365476D01*
X133551485Y-108365476D02*
X133551485Y-108984523D01*
X166884819Y-91108333D02*
X166408628Y-90775000D01*
X166884819Y-90536905D02*
X165884819Y-90536905D01*
X165884819Y-90536905D02*
X165884819Y-90917857D01*
X165884819Y-90917857D02*
X165932438Y-91013095D01*
X165932438Y-91013095D02*
X165980057Y-91060714D01*
X165980057Y-91060714D02*
X166075295Y-91108333D01*
X166075295Y-91108333D02*
X166218152Y-91108333D01*
X166218152Y-91108333D02*
X166313390Y-91060714D01*
X166313390Y-91060714D02*
X166361009Y-91013095D01*
X166361009Y-91013095D02*
X166408628Y-90917857D01*
X166408628Y-90917857D02*
X166408628Y-90536905D01*
X166884819Y-91584524D02*
X166884819Y-91775000D01*
X166884819Y-91775000D02*
X166837200Y-91870238D01*
X166837200Y-91870238D02*
X166789580Y-91917857D01*
X166789580Y-91917857D02*
X166646723Y-92013095D01*
X166646723Y-92013095D02*
X166456247Y-92060714D01*
X166456247Y-92060714D02*
X166075295Y-92060714D01*
X166075295Y-92060714D02*
X165980057Y-92013095D01*
X165980057Y-92013095D02*
X165932438Y-91965476D01*
X165932438Y-91965476D02*
X165884819Y-91870238D01*
X165884819Y-91870238D02*
X165884819Y-91679762D01*
X165884819Y-91679762D02*
X165932438Y-91584524D01*
X165932438Y-91584524D02*
X165980057Y-91536905D01*
X165980057Y-91536905D02*
X166075295Y-91489286D01*
X166075295Y-91489286D02*
X166313390Y-91489286D01*
X166313390Y-91489286D02*
X166408628Y-91536905D01*
X166408628Y-91536905D02*
X166456247Y-91584524D01*
X166456247Y-91584524D02*
X166503866Y-91679762D01*
X166503866Y-91679762D02*
X166503866Y-91870238D01*
X166503866Y-91870238D02*
X166456247Y-91965476D01*
X166456247Y-91965476D02*
X166408628Y-92013095D01*
X166408628Y-92013095D02*
X166313390Y-92060714D01*
X117384819Y-140508333D02*
X116908628Y-140175000D01*
X117384819Y-139936905D02*
X116384819Y-139936905D01*
X116384819Y-139936905D02*
X116384819Y-140317857D01*
X116384819Y-140317857D02*
X116432438Y-140413095D01*
X116432438Y-140413095D02*
X116480057Y-140460714D01*
X116480057Y-140460714D02*
X116575295Y-140508333D01*
X116575295Y-140508333D02*
X116718152Y-140508333D01*
X116718152Y-140508333D02*
X116813390Y-140460714D01*
X116813390Y-140460714D02*
X116861009Y-140413095D01*
X116861009Y-140413095D02*
X116908628Y-140317857D01*
X116908628Y-140317857D02*
X116908628Y-139936905D01*
X116718152Y-141365476D02*
X117384819Y-141365476D01*
X116337200Y-141127381D02*
X117051485Y-140889286D01*
X117051485Y-140889286D02*
X117051485Y-141508333D01*
X150384819Y-90557142D02*
X149908628Y-90223809D01*
X150384819Y-89985714D02*
X149384819Y-89985714D01*
X149384819Y-89985714D02*
X149384819Y-90366666D01*
X149384819Y-90366666D02*
X149432438Y-90461904D01*
X149432438Y-90461904D02*
X149480057Y-90509523D01*
X149480057Y-90509523D02*
X149575295Y-90557142D01*
X149575295Y-90557142D02*
X149718152Y-90557142D01*
X149718152Y-90557142D02*
X149813390Y-90509523D01*
X149813390Y-90509523D02*
X149861009Y-90461904D01*
X149861009Y-90461904D02*
X149908628Y-90366666D01*
X149908628Y-90366666D02*
X149908628Y-89985714D01*
X150384819Y-91509523D02*
X150384819Y-90938095D01*
X150384819Y-91223809D02*
X149384819Y-91223809D01*
X149384819Y-91223809D02*
X149527676Y-91128571D01*
X149527676Y-91128571D02*
X149622914Y-91033333D01*
X149622914Y-91033333D02*
X149670533Y-90938095D01*
X150384819Y-92461904D02*
X150384819Y-91890476D01*
X150384819Y-92176190D02*
X149384819Y-92176190D01*
X149384819Y-92176190D02*
X149527676Y-92080952D01*
X149527676Y-92080952D02*
X149622914Y-91985714D01*
X149622914Y-91985714D02*
X149670533Y-91890476D01*
X133884819Y-90632142D02*
X133408628Y-90298809D01*
X133884819Y-90060714D02*
X132884819Y-90060714D01*
X132884819Y-90060714D02*
X132884819Y-90441666D01*
X132884819Y-90441666D02*
X132932438Y-90536904D01*
X132932438Y-90536904D02*
X132980057Y-90584523D01*
X132980057Y-90584523D02*
X133075295Y-90632142D01*
X133075295Y-90632142D02*
X133218152Y-90632142D01*
X133218152Y-90632142D02*
X133313390Y-90584523D01*
X133313390Y-90584523D02*
X133361009Y-90536904D01*
X133361009Y-90536904D02*
X133408628Y-90441666D01*
X133408628Y-90441666D02*
X133408628Y-90060714D01*
X133884819Y-91584523D02*
X133884819Y-91013095D01*
X133884819Y-91298809D02*
X132884819Y-91298809D01*
X132884819Y-91298809D02*
X133027676Y-91203571D01*
X133027676Y-91203571D02*
X133122914Y-91108333D01*
X133122914Y-91108333D02*
X133170533Y-91013095D01*
X132884819Y-91917857D02*
X132884819Y-92536904D01*
X132884819Y-92536904D02*
X133265771Y-92203571D01*
X133265771Y-92203571D02*
X133265771Y-92346428D01*
X133265771Y-92346428D02*
X133313390Y-92441666D01*
X133313390Y-92441666D02*
X133361009Y-92489285D01*
X133361009Y-92489285D02*
X133456247Y-92536904D01*
X133456247Y-92536904D02*
X133694342Y-92536904D01*
X133694342Y-92536904D02*
X133789580Y-92489285D01*
X133789580Y-92489285D02*
X133837200Y-92441666D01*
X133837200Y-92441666D02*
X133884819Y-92346428D01*
X133884819Y-92346428D02*
X133884819Y-92060714D01*
X133884819Y-92060714D02*
X133837200Y-91965476D01*
X133837200Y-91965476D02*
X133789580Y-91917857D01*
X133884819Y-140458333D02*
X133408628Y-140125000D01*
X133884819Y-139886905D02*
X132884819Y-139886905D01*
X132884819Y-139886905D02*
X132884819Y-140267857D01*
X132884819Y-140267857D02*
X132932438Y-140363095D01*
X132932438Y-140363095D02*
X132980057Y-140410714D01*
X132980057Y-140410714D02*
X133075295Y-140458333D01*
X133075295Y-140458333D02*
X133218152Y-140458333D01*
X133218152Y-140458333D02*
X133313390Y-140410714D01*
X133313390Y-140410714D02*
X133361009Y-140363095D01*
X133361009Y-140363095D02*
X133408628Y-140267857D01*
X133408628Y-140267857D02*
X133408628Y-139886905D01*
X132884819Y-140791667D02*
X132884819Y-141410714D01*
X132884819Y-141410714D02*
X133265771Y-141077381D01*
X133265771Y-141077381D02*
X133265771Y-141220238D01*
X133265771Y-141220238D02*
X133313390Y-141315476D01*
X133313390Y-141315476D02*
X133361009Y-141363095D01*
X133361009Y-141363095D02*
X133456247Y-141410714D01*
X133456247Y-141410714D02*
X133694342Y-141410714D01*
X133694342Y-141410714D02*
X133789580Y-141363095D01*
X133789580Y-141363095D02*
X133837200Y-141315476D01*
X133837200Y-141315476D02*
X133884819Y-141220238D01*
X133884819Y-141220238D02*
X133884819Y-140934524D01*
X133884819Y-140934524D02*
X133837200Y-140839286D01*
X133837200Y-140839286D02*
X133789580Y-140791667D01*
X117384819Y-107182142D02*
X116908628Y-106848809D01*
X117384819Y-106610714D02*
X116384819Y-106610714D01*
X116384819Y-106610714D02*
X116384819Y-106991666D01*
X116384819Y-106991666D02*
X116432438Y-107086904D01*
X116432438Y-107086904D02*
X116480057Y-107134523D01*
X116480057Y-107134523D02*
X116575295Y-107182142D01*
X116575295Y-107182142D02*
X116718152Y-107182142D01*
X116718152Y-107182142D02*
X116813390Y-107134523D01*
X116813390Y-107134523D02*
X116861009Y-107086904D01*
X116861009Y-107086904D02*
X116908628Y-106991666D01*
X116908628Y-106991666D02*
X116908628Y-106610714D01*
X117384819Y-108134523D02*
X117384819Y-107563095D01*
X117384819Y-107848809D02*
X116384819Y-107848809D01*
X116384819Y-107848809D02*
X116527676Y-107753571D01*
X116527676Y-107753571D02*
X116622914Y-107658333D01*
X116622914Y-107658333D02*
X116670533Y-107563095D01*
X116384819Y-108991666D02*
X116384819Y-108801190D01*
X116384819Y-108801190D02*
X116432438Y-108705952D01*
X116432438Y-108705952D02*
X116480057Y-108658333D01*
X116480057Y-108658333D02*
X116622914Y-108563095D01*
X116622914Y-108563095D02*
X116813390Y-108515476D01*
X116813390Y-108515476D02*
X117194342Y-108515476D01*
X117194342Y-108515476D02*
X117289580Y-108563095D01*
X117289580Y-108563095D02*
X117337200Y-108610714D01*
X117337200Y-108610714D02*
X117384819Y-108705952D01*
X117384819Y-108705952D02*
X117384819Y-108896428D01*
X117384819Y-108896428D02*
X117337200Y-108991666D01*
X117337200Y-108991666D02*
X117289580Y-109039285D01*
X117289580Y-109039285D02*
X117194342Y-109086904D01*
X117194342Y-109086904D02*
X116956247Y-109086904D01*
X116956247Y-109086904D02*
X116861009Y-109039285D01*
X116861009Y-109039285D02*
X116813390Y-108991666D01*
X116813390Y-108991666D02*
X116765771Y-108896428D01*
X116765771Y-108896428D02*
X116765771Y-108705952D01*
X116765771Y-108705952D02*
X116813390Y-108610714D01*
X116813390Y-108610714D02*
X116861009Y-108563095D01*
X116861009Y-108563095D02*
X116956247Y-108515476D01*
X150384819Y-123833333D02*
X149908628Y-123500000D01*
X150384819Y-123261905D02*
X149384819Y-123261905D01*
X149384819Y-123261905D02*
X149384819Y-123642857D01*
X149384819Y-123642857D02*
X149432438Y-123738095D01*
X149432438Y-123738095D02*
X149480057Y-123785714D01*
X149480057Y-123785714D02*
X149575295Y-123833333D01*
X149575295Y-123833333D02*
X149718152Y-123833333D01*
X149718152Y-123833333D02*
X149813390Y-123785714D01*
X149813390Y-123785714D02*
X149861009Y-123738095D01*
X149861009Y-123738095D02*
X149908628Y-123642857D01*
X149908628Y-123642857D02*
X149908628Y-123261905D01*
X149384819Y-124690476D02*
X149384819Y-124500000D01*
X149384819Y-124500000D02*
X149432438Y-124404762D01*
X149432438Y-124404762D02*
X149480057Y-124357143D01*
X149480057Y-124357143D02*
X149622914Y-124261905D01*
X149622914Y-124261905D02*
X149813390Y-124214286D01*
X149813390Y-124214286D02*
X150194342Y-124214286D01*
X150194342Y-124214286D02*
X150289580Y-124261905D01*
X150289580Y-124261905D02*
X150337200Y-124309524D01*
X150337200Y-124309524D02*
X150384819Y-124404762D01*
X150384819Y-124404762D02*
X150384819Y-124595238D01*
X150384819Y-124595238D02*
X150337200Y-124690476D01*
X150337200Y-124690476D02*
X150289580Y-124738095D01*
X150289580Y-124738095D02*
X150194342Y-124785714D01*
X150194342Y-124785714D02*
X149956247Y-124785714D01*
X149956247Y-124785714D02*
X149861009Y-124738095D01*
X149861009Y-124738095D02*
X149813390Y-124690476D01*
X149813390Y-124690476D02*
X149765771Y-124595238D01*
X149765771Y-124595238D02*
X149765771Y-124404762D01*
X149765771Y-124404762D02*
X149813390Y-124309524D01*
X149813390Y-124309524D02*
X149861009Y-124261905D01*
X149861009Y-124261905D02*
X149956247Y-124214286D01*
X150384819Y-140508333D02*
X149908628Y-140175000D01*
X150384819Y-139936905D02*
X149384819Y-139936905D01*
X149384819Y-139936905D02*
X149384819Y-140317857D01*
X149384819Y-140317857D02*
X149432438Y-140413095D01*
X149432438Y-140413095D02*
X149480057Y-140460714D01*
X149480057Y-140460714D02*
X149575295Y-140508333D01*
X149575295Y-140508333D02*
X149718152Y-140508333D01*
X149718152Y-140508333D02*
X149813390Y-140460714D01*
X149813390Y-140460714D02*
X149861009Y-140413095D01*
X149861009Y-140413095D02*
X149908628Y-140317857D01*
X149908628Y-140317857D02*
X149908628Y-139936905D01*
X149480057Y-140889286D02*
X149432438Y-140936905D01*
X149432438Y-140936905D02*
X149384819Y-141032143D01*
X149384819Y-141032143D02*
X149384819Y-141270238D01*
X149384819Y-141270238D02*
X149432438Y-141365476D01*
X149432438Y-141365476D02*
X149480057Y-141413095D01*
X149480057Y-141413095D02*
X149575295Y-141460714D01*
X149575295Y-141460714D02*
X149670533Y-141460714D01*
X149670533Y-141460714D02*
X149813390Y-141413095D01*
X149813390Y-141413095D02*
X150384819Y-140841667D01*
X150384819Y-140841667D02*
X150384819Y-141460714D01*
X117384819Y-123833333D02*
X116908628Y-123500000D01*
X117384819Y-123261905D02*
X116384819Y-123261905D01*
X116384819Y-123261905D02*
X116384819Y-123642857D01*
X116384819Y-123642857D02*
X116432438Y-123738095D01*
X116432438Y-123738095D02*
X116480057Y-123785714D01*
X116480057Y-123785714D02*
X116575295Y-123833333D01*
X116575295Y-123833333D02*
X116718152Y-123833333D01*
X116718152Y-123833333D02*
X116813390Y-123785714D01*
X116813390Y-123785714D02*
X116861009Y-123738095D01*
X116861009Y-123738095D02*
X116908628Y-123642857D01*
X116908628Y-123642857D02*
X116908628Y-123261905D01*
X116813390Y-124404762D02*
X116765771Y-124309524D01*
X116765771Y-124309524D02*
X116718152Y-124261905D01*
X116718152Y-124261905D02*
X116622914Y-124214286D01*
X116622914Y-124214286D02*
X116575295Y-124214286D01*
X116575295Y-124214286D02*
X116480057Y-124261905D01*
X116480057Y-124261905D02*
X116432438Y-124309524D01*
X116432438Y-124309524D02*
X116384819Y-124404762D01*
X116384819Y-124404762D02*
X116384819Y-124595238D01*
X116384819Y-124595238D02*
X116432438Y-124690476D01*
X116432438Y-124690476D02*
X116480057Y-124738095D01*
X116480057Y-124738095D02*
X116575295Y-124785714D01*
X116575295Y-124785714D02*
X116622914Y-124785714D01*
X116622914Y-124785714D02*
X116718152Y-124738095D01*
X116718152Y-124738095D02*
X116765771Y-124690476D01*
X116765771Y-124690476D02*
X116813390Y-124595238D01*
X116813390Y-124595238D02*
X116813390Y-124404762D01*
X116813390Y-124404762D02*
X116861009Y-124309524D01*
X116861009Y-124309524D02*
X116908628Y-124261905D01*
X116908628Y-124261905D02*
X117003866Y-124214286D01*
X117003866Y-124214286D02*
X117194342Y-124214286D01*
X117194342Y-124214286D02*
X117289580Y-124261905D01*
X117289580Y-124261905D02*
X117337200Y-124309524D01*
X117337200Y-124309524D02*
X117384819Y-124404762D01*
X117384819Y-124404762D02*
X117384819Y-124595238D01*
X117384819Y-124595238D02*
X117337200Y-124690476D01*
X117337200Y-124690476D02*
X117289580Y-124738095D01*
X117289580Y-124738095D02*
X117194342Y-124785714D01*
X117194342Y-124785714D02*
X117003866Y-124785714D01*
X117003866Y-124785714D02*
X116908628Y-124738095D01*
X116908628Y-124738095D02*
X116861009Y-124690476D01*
X116861009Y-124690476D02*
X116813390Y-124595238D01*
X117384819Y-90557142D02*
X116908628Y-90223809D01*
X117384819Y-89985714D02*
X116384819Y-89985714D01*
X116384819Y-89985714D02*
X116384819Y-90366666D01*
X116384819Y-90366666D02*
X116432438Y-90461904D01*
X116432438Y-90461904D02*
X116480057Y-90509523D01*
X116480057Y-90509523D02*
X116575295Y-90557142D01*
X116575295Y-90557142D02*
X116718152Y-90557142D01*
X116718152Y-90557142D02*
X116813390Y-90509523D01*
X116813390Y-90509523D02*
X116861009Y-90461904D01*
X116861009Y-90461904D02*
X116908628Y-90366666D01*
X116908628Y-90366666D02*
X116908628Y-89985714D01*
X117384819Y-91509523D02*
X117384819Y-90938095D01*
X117384819Y-91223809D02*
X116384819Y-91223809D01*
X116384819Y-91223809D02*
X116527676Y-91128571D01*
X116527676Y-91128571D02*
X116622914Y-91033333D01*
X116622914Y-91033333D02*
X116670533Y-90938095D01*
X116384819Y-92414285D02*
X116384819Y-91938095D01*
X116384819Y-91938095D02*
X116861009Y-91890476D01*
X116861009Y-91890476D02*
X116813390Y-91938095D01*
X116813390Y-91938095D02*
X116765771Y-92033333D01*
X116765771Y-92033333D02*
X116765771Y-92271428D01*
X116765771Y-92271428D02*
X116813390Y-92366666D01*
X116813390Y-92366666D02*
X116861009Y-92414285D01*
X116861009Y-92414285D02*
X116956247Y-92461904D01*
X116956247Y-92461904D02*
X117194342Y-92461904D01*
X117194342Y-92461904D02*
X117289580Y-92414285D01*
X117289580Y-92414285D02*
X117337200Y-92366666D01*
X117337200Y-92366666D02*
X117384819Y-92271428D01*
X117384819Y-92271428D02*
X117384819Y-92033333D01*
X117384819Y-92033333D02*
X117337200Y-91938095D01*
X117337200Y-91938095D02*
X117289580Y-91890476D01*
X150384819Y-107032142D02*
X149908628Y-106698809D01*
X150384819Y-106460714D02*
X149384819Y-106460714D01*
X149384819Y-106460714D02*
X149384819Y-106841666D01*
X149384819Y-106841666D02*
X149432438Y-106936904D01*
X149432438Y-106936904D02*
X149480057Y-106984523D01*
X149480057Y-106984523D02*
X149575295Y-107032142D01*
X149575295Y-107032142D02*
X149718152Y-107032142D01*
X149718152Y-107032142D02*
X149813390Y-106984523D01*
X149813390Y-106984523D02*
X149861009Y-106936904D01*
X149861009Y-106936904D02*
X149908628Y-106841666D01*
X149908628Y-106841666D02*
X149908628Y-106460714D01*
X150384819Y-107984523D02*
X150384819Y-107413095D01*
X150384819Y-107698809D02*
X149384819Y-107698809D01*
X149384819Y-107698809D02*
X149527676Y-107603571D01*
X149527676Y-107603571D02*
X149622914Y-107508333D01*
X149622914Y-107508333D02*
X149670533Y-107413095D01*
X149480057Y-108365476D02*
X149432438Y-108413095D01*
X149432438Y-108413095D02*
X149384819Y-108508333D01*
X149384819Y-108508333D02*
X149384819Y-108746428D01*
X149384819Y-108746428D02*
X149432438Y-108841666D01*
X149432438Y-108841666D02*
X149480057Y-108889285D01*
X149480057Y-108889285D02*
X149575295Y-108936904D01*
X149575295Y-108936904D02*
X149670533Y-108936904D01*
X149670533Y-108936904D02*
X149813390Y-108889285D01*
X149813390Y-108889285D02*
X150384819Y-108317857D01*
X150384819Y-108317857D02*
X150384819Y-108936904D01*
X166884819Y-123833333D02*
X166408628Y-123500000D01*
X166884819Y-123261905D02*
X165884819Y-123261905D01*
X165884819Y-123261905D02*
X165884819Y-123642857D01*
X165884819Y-123642857D02*
X165932438Y-123738095D01*
X165932438Y-123738095D02*
X165980057Y-123785714D01*
X165980057Y-123785714D02*
X166075295Y-123833333D01*
X166075295Y-123833333D02*
X166218152Y-123833333D01*
X166218152Y-123833333D02*
X166313390Y-123785714D01*
X166313390Y-123785714D02*
X166361009Y-123738095D01*
X166361009Y-123738095D02*
X166408628Y-123642857D01*
X166408628Y-123642857D02*
X166408628Y-123261905D01*
X165884819Y-124738095D02*
X165884819Y-124261905D01*
X165884819Y-124261905D02*
X166361009Y-124214286D01*
X166361009Y-124214286D02*
X166313390Y-124261905D01*
X166313390Y-124261905D02*
X166265771Y-124357143D01*
X166265771Y-124357143D02*
X166265771Y-124595238D01*
X166265771Y-124595238D02*
X166313390Y-124690476D01*
X166313390Y-124690476D02*
X166361009Y-124738095D01*
X166361009Y-124738095D02*
X166456247Y-124785714D01*
X166456247Y-124785714D02*
X166694342Y-124785714D01*
X166694342Y-124785714D02*
X166789580Y-124738095D01*
X166789580Y-124738095D02*
X166837200Y-124690476D01*
X166837200Y-124690476D02*
X166884819Y-124595238D01*
X166884819Y-124595238D02*
X166884819Y-124357143D01*
X166884819Y-124357143D02*
X166837200Y-124261905D01*
X166837200Y-124261905D02*
X166789580Y-124214286D01*
D11*
%TO.C,U3*%
X117370000Y-68050000D02*
X117370000Y-78330000D01*
X117370000Y-78330000D02*
X135390000Y-78330000D01*
X117430000Y-70540000D02*
X117430000Y-72190000D01*
X117430000Y-74190000D02*
X117430000Y-75840000D01*
X117430000Y-75840000D02*
X135330000Y-75840000D01*
X135330000Y-70540000D02*
X117430000Y-70540000D01*
X135330000Y-75840000D02*
X135330000Y-70540000D01*
X135390000Y-68050000D02*
X117370000Y-68050000D01*
X135390000Y-78330000D02*
X135390000Y-68050000D01*
X117430000Y-72190000D02*
G75*
G02*
X117430000Y-74190000I0J-1000000D01*
G01*
%TO.C,R7*%
X131477500Y-123762742D02*
X131477500Y-124237258D01*
X132522500Y-123762742D02*
X132522500Y-124237258D01*
%TO.C,C3*%
X115094420Y-76490000D02*
X115375580Y-76490000D01*
X115094420Y-77510000D02*
X115375580Y-77510000D01*
%TO.C,R1*%
X164477500Y-140562742D02*
X164477500Y-141037258D01*
X165522500Y-140562742D02*
X165522500Y-141037258D01*
%TO.C,R10*%
X164477500Y-107462742D02*
X164477500Y-107937258D01*
X165522500Y-107462742D02*
X165522500Y-107937258D01*
%TO.C,R14*%
X131477500Y-107437742D02*
X131477500Y-107912258D01*
X132522500Y-107437742D02*
X132522500Y-107912258D01*
%TO.C,R9*%
X164477500Y-91037742D02*
X164477500Y-91512258D01*
X165522500Y-91037742D02*
X165522500Y-91512258D01*
%TO.C,R4*%
X114977500Y-140437742D02*
X114977500Y-140912258D01*
X116022500Y-140437742D02*
X116022500Y-140912258D01*
%TO.C,R11*%
X147977500Y-90962742D02*
X147977500Y-91437258D01*
X149022500Y-90962742D02*
X149022500Y-91437258D01*
%TO.C,R13*%
X131477500Y-91037742D02*
X131477500Y-91512258D01*
X132522500Y-91037742D02*
X132522500Y-91512258D01*
%TO.C,R3*%
X131477500Y-140387742D02*
X131477500Y-140862258D01*
X132522500Y-140387742D02*
X132522500Y-140862258D01*
%TO.C,R16*%
X114977500Y-107587742D02*
X114977500Y-108062258D01*
X116022500Y-107587742D02*
X116022500Y-108062258D01*
%TO.C,R6*%
X147977500Y-123762742D02*
X147977500Y-124237258D01*
X149022500Y-123762742D02*
X149022500Y-124237258D01*
%TO.C,R2*%
X147977500Y-140437742D02*
X147977500Y-140912258D01*
X149022500Y-140437742D02*
X149022500Y-140912258D01*
%TO.C,R8*%
X114977500Y-123762742D02*
X114977500Y-124237258D01*
X116022500Y-123762742D02*
X116022500Y-124237258D01*
%TO.C,R15*%
X114977500Y-90962742D02*
X114977500Y-91437258D01*
X116022500Y-90962742D02*
X116022500Y-91437258D01*
%TO.C,R12*%
X147977500Y-107437742D02*
X147977500Y-107912258D01*
X149022500Y-107437742D02*
X149022500Y-107912258D01*
%TO.C,R5*%
X164477500Y-123762742D02*
X164477500Y-124237258D01*
X165522500Y-123762742D02*
X165522500Y-124237258D01*
%TD*%
M02*
