M48
; DRILL file {KiCad 8.0.8} date 2025-02-24T16:27:46+0900
; FORMAT={-:-/ absolute / inch / decimal}
; #@! TF.CreationDate,2025-02-24T16:27:46+09:00
; #@! TF.GenerationSoftware,Kicad,Pcbnew,8.0.8
; #@! TF.FileFunction,NonPlated,1,2,NPTH
FMAT,2
INCH
; #@! TA.AperFunction,NonPlated,NPTH,ComponentDrill
T1C0.0394
; #@! TA.AperFunction,NonPlated,NPTH,ComponentDrill
T2C0.0630
%
G90
G05
T1
X4.2126Y-3.4646
X4.2126Y-4.1102
X4.2126Y-4.7559
X4.2126Y-5.4016
X4.6457Y-3.4646
X4.6457Y-4.1102
X4.6457Y-4.7559
X4.6457Y-5.4016
X4.8622Y-3.4646
X4.8622Y-4.1102
X4.8622Y-4.7559
X4.8622Y-5.4016
X5.2953Y-3.4646
X5.2953Y-4.1102
X5.2953Y-4.7559
X5.2953Y-5.4016
X5.5079Y-3.4646
X5.5079Y-4.1102
X5.5079Y-4.7559
X5.5079Y-5.4016
X5.9409Y-3.4646
X5.9409Y-4.1102
X5.9409Y-4.7559
X5.9409Y-5.4016
X6.1575Y-3.4646
X6.1575Y-4.1102
X6.1575Y-4.7559
X6.1575Y-5.4016
X6.5906Y-3.4646
X6.5906Y-4.1102
X6.5906Y-4.7559
X6.5906Y-5.4016
T2
X4.4291Y-3.4646
X4.4291Y-4.1102
X4.4291Y-4.7559
X4.4291Y-5.4016
X5.0787Y-3.4646
X5.0787Y-4.1102
X5.0787Y-4.7559
X5.0787Y-5.4016
X5.7244Y-3.4646
X5.7244Y-4.1102
X5.7244Y-4.7559
X5.7244Y-5.4016
X6.374Y-3.4646
X6.374Y-4.1102
X6.374Y-4.7559
X6.374Y-5.4016
M30
