%TF.GenerationSoftware,KiCad,Pcbnew,8.0.8*%
%TF.CreationDate,2025-02-24T16:27:27+09:00*%
%TF.ProjectId,keyboard,6b657962-6f61-4726-942e-6b696361645f,rev?*%
%TF.SameCoordinates,Original*%
%TF.FileFunction,Paste,Bot*%
%TF.FilePolarity,Positive*%
%FSLAX46Y46*%
G04 Gerber Fmt 4.6, Leading zero omitted, Abs format (unit mm)*
G04 Created by KiCad (PCBNEW 8.0.8) date 2025-02-24 16:27:27*
%MOMM*%
%LPD*%
G01*
G04 APERTURE LIST*
G04 Aperture macros list*
%AMRoundRect*
0 Rectangle with rounded corners*
0 $1 Rounding radius*
0 $2 $3 $4 $5 $6 $7 $8 $9 X,Y pos of 4 corners*
0 Add a 4 corners polygon primitive as box body*
4,1,4,$2,$3,$4,$5,$6,$7,$8,$9,$2,$3,0*
0 Add four circle primitives for the rounded corners*
1,1,$1+$1,$2,$3*
1,1,$1+$1,$4,$5*
1,1,$1+$1,$6,$7*
1,1,$1+$1,$8,$9*
0 Add four rect primitives between the rounded corners*
20,1,$1+$1,$2,$3,$4,$5,0*
20,1,$1+$1,$4,$5,$6,$7,0*
20,1,$1+$1,$6,$7,$8,$9,0*
20,1,$1+$1,$8,$9,$2,$3,0*%
G04 Aperture macros list end*
%ADD10R,1.600000X1.600000*%
%ADD11RoundRect,0.200000X0.275000X-0.200000X0.275000X0.200000X-0.275000X0.200000X-0.275000X-0.200000X0*%
%ADD12RoundRect,0.225000X0.225000X0.250000X-0.225000X0.250000X-0.225000X-0.250000X0.225000X-0.250000X0*%
G04 APERTURE END LIST*
D10*
%TO.C,U3*%
X118760000Y-69380000D03*
X121300000Y-69380000D03*
X123840000Y-69380000D03*
X126380000Y-69380000D03*
X128920000Y-69380000D03*
X131460000Y-69380000D03*
X134000000Y-69380000D03*
X134000000Y-77000000D03*
X131460000Y-77000000D03*
X128920000Y-77000000D03*
X126380000Y-77000000D03*
X123840000Y-77000000D03*
X121300000Y-77000000D03*
X118760000Y-77000000D03*
%TD*%
D11*
%TO.C,R7*%
X132000000Y-124825000D03*
X132000000Y-123175000D03*
%TD*%
D12*
%TO.C,C3*%
X116010000Y-77000000D03*
X114460000Y-77000000D03*
%TD*%
D11*
%TO.C,R1*%
X165000000Y-141625000D03*
X165000000Y-139975000D03*
%TD*%
%TO.C,R10*%
X165000000Y-108525000D03*
X165000000Y-106875000D03*
%TD*%
%TO.C,R14*%
X132000000Y-108500000D03*
X132000000Y-106850000D03*
%TD*%
%TO.C,R9*%
X165000000Y-92100000D03*
X165000000Y-90450000D03*
%TD*%
%TO.C,R4*%
X115500000Y-141500000D03*
X115500000Y-139850000D03*
%TD*%
%TO.C,R11*%
X148500000Y-92025000D03*
X148500000Y-90375000D03*
%TD*%
%TO.C,R13*%
X132000000Y-92100000D03*
X132000000Y-90450000D03*
%TD*%
%TO.C,R3*%
X132000000Y-141450000D03*
X132000000Y-139800000D03*
%TD*%
%TO.C,R16*%
X115500000Y-108650000D03*
X115500000Y-107000000D03*
%TD*%
%TO.C,R6*%
X148500000Y-124825000D03*
X148500000Y-123175000D03*
%TD*%
%TO.C,R2*%
X148500000Y-141500000D03*
X148500000Y-139850000D03*
%TD*%
%TO.C,R8*%
X115500000Y-124825000D03*
X115500000Y-123175000D03*
%TD*%
%TO.C,R15*%
X115500000Y-92025000D03*
X115500000Y-90375000D03*
%TD*%
%TO.C,R12*%
X148500000Y-108500000D03*
X148500000Y-106850000D03*
%TD*%
%TO.C,R5*%
X165000000Y-124825000D03*
X165000000Y-123175000D03*
%TD*%
M02*
