M48
; DRILL file {KiCad 8.0.8} date 2025-02-24T16:27:46+0900
; FORMAT={-:-/ absolute / inch / decimal}
; #@! TF.CreationDate,2025-02-24T16:27:46+09:00
; #@! TF.GenerationSoftware,Kicad,Pcbnew,8.0.8
; #@! TF.FileFunction,Plated,1,2,PTH
FMAT,2
INCH
; #@! TA.AperFunction,Plated,PTH,ViaDrill
T1C0.0118
; #@! TA.AperFunction,Plated,PTH,ComponentDrill
T2C0.0300
; #@! TA.AperFunction,Plated,PTH,ComponentDrill
T3C0.0315
; #@! TA.AperFunction,Plated,PTH,ComponentDrill
T4C0.0354
; #@! TA.AperFunction,Plated,PTH,ComponentDrill
T5C0.0394
; #@! TA.AperFunction,Plated,PTH,ComponentDrill
T6C0.1260
%
G90
G05
T1
X4.4606Y-3.6496
X4.4606Y-4.2953
X4.4606Y-4.9409
X4.4606Y-5.5945
X4.6756Y-2.7315
X4.7756Y-2.7315
X4.7756Y-3.0295
X4.876Y-3.0315
X4.9756Y-2.7315
X5.0748Y-3.0295
X5.0768Y-2.7323
X5.1102Y-3.6496
X5.1102Y-4.2992
X5.1102Y-4.9409
X5.1142Y-5.5906
X5.1752Y-3.0315
X5.4075Y-2.687
X5.4518Y-2.7235
X5.4528Y-2.7559
X5.6693Y-2.3425
X5.6693Y-2.6181
X5.7598Y-3.6496
X5.7598Y-4.2953
X5.7598Y-4.9409
X5.7598Y-5.5906
X5.8307Y-3.0118
X5.8465Y-2.6181
X6.0118Y-3.7913
X6.0528Y-3.7126
X6.4094Y-3.6496
X6.4094Y-4.2953
X6.4094Y-4.9409
X6.4094Y-5.5906
X6.6697Y-5.0547
X6.6929Y-5.0984
X6.7449Y-4.5661
X6.7449Y-4.9957
X6.7764Y-4.3512
X6.7764Y-4.4154
T2
X4.4291Y-3.2323
X4.4291Y-3.878
X4.4291Y-4.5236
X4.4291Y-5.1693
X4.626Y-3.315
X4.626Y-3.9606
X4.626Y-4.6063
X4.626Y-5.252
X5.0787Y-3.2323
X5.0787Y-3.878
X5.0787Y-4.5236
X5.0787Y-5.1693
X5.2756Y-3.315
X5.2756Y-3.9606
X5.2756Y-4.6063
X5.2756Y-5.252
X5.7244Y-3.2323
X5.7244Y-3.878
X5.7244Y-4.5236
X5.7244Y-5.1693
X5.9213Y-3.315
X5.9213Y-3.9606
X5.9213Y-4.6063
X5.9213Y-5.252
X6.374Y-3.2323
X6.374Y-3.878
X6.374Y-4.5236
X6.374Y-5.1693
X6.5709Y-3.315
X6.5709Y-3.9606
X6.5709Y-4.6063
X6.5709Y-5.252
T3
X4.4213Y-2.2087
X4.4213Y-2.3465
X5.7764Y-2.2394
X5.7764Y-2.5394
X5.7764Y-2.7598
X5.7764Y-3.0598
X5.8764Y-2.2394
X5.8764Y-2.5394
X5.8764Y-2.7598
X5.8764Y-3.0598
X5.9764Y-2.2394
X5.9764Y-2.5394
X5.9764Y-2.7598
X5.9764Y-3.0598
X6.0764Y-2.2394
X6.0764Y-2.5394
X6.0764Y-2.7598
X6.0764Y-3.0598
X6.1764Y-2.2394
X6.1764Y-2.5394
X6.1764Y-2.7598
X6.1764Y-3.0598
X6.2764Y-2.2394
X6.2764Y-2.5394
X6.2764Y-2.7598
X6.2764Y-3.0598
X6.3764Y-2.2394
X6.3764Y-2.5394
X6.3764Y-2.7598
X6.3764Y-3.0598
X6.4764Y-2.2394
X6.4764Y-2.5394
X6.4764Y-2.7598
X6.4764Y-3.0598
T4
X4.3606Y-2.5984
X4.4606Y-2.5984
T5
X4.7969Y-2.1575
X4.8969Y-2.1575
X4.9969Y-2.1575
X5.0969Y-2.1575
X5.1969Y-2.1575
X5.2969Y-2.1575
T6
X3.9764Y-2.1063
X3.9764Y-2.1063
X3.9764Y-5.7677
X3.9764Y-5.7677
X6.8504Y-2.1063
X6.8504Y-5.7677
X6.8504Y-5.7677
M30
