%TF.GenerationSoftware,KiCad,Pcbnew,8.0.8*%
%TF.CreationDate,2025-02-24T16:27:27+09:00*%
%TF.ProjectId,keyboard,6b657962-6f61-4726-942e-6b696361645f,rev?*%
%TF.SameCoordinates,Original*%
%TF.FileFunction,Paste,Top*%
%TF.FilePolarity,Positive*%
%FSLAX46Y46*%
G04 Gerber Fmt 4.6, Leading zero omitted, Abs format (unit mm)*
G04 Created by KiCad (PCBNEW 8.0.8) date 2025-02-24 16:27:27*
%MOMM*%
%LPD*%
G01*
G04 APERTURE LIST*
G04 Aperture macros list*
%AMRoundRect*
0 Rectangle with rounded corners*
0 $1 Rounding radius*
0 $2 $3 $4 $5 $6 $7 $8 $9 X,Y pos of 4 corners*
0 Add a 4 corners polygon primitive as box body*
4,1,4,$2,$3,$4,$5,$6,$7,$8,$9,$2,$3,0*
0 Add four circle primitives for the rounded corners*
1,1,$1+$1,$2,$3*
1,1,$1+$1,$4,$5*
1,1,$1+$1,$6,$7*
1,1,$1+$1,$8,$9*
0 Add four rect primitives between the rounded corners*
20,1,$1+$1,$2,$3,$4,$5,0*
20,1,$1+$1,$4,$5,$6,$7,0*
20,1,$1+$1,$6,$7,$8,$9,0*
20,1,$1+$1,$8,$9,$2,$3,0*%
G04 Aperture macros list end*
%ADD10RoundRect,0.218750X-0.218750X-0.256250X0.218750X-0.256250X0.218750X0.256250X-0.218750X0.256250X0*%
%ADD11RoundRect,0.200000X0.275000X-0.200000X0.275000X0.200000X-0.275000X0.200000X-0.275000X-0.200000X0*%
%ADD12RoundRect,0.218750X0.256250X-0.218750X0.256250X0.218750X-0.256250X0.218750X-0.256250X-0.218750X0*%
%ADD13RoundRect,0.225000X0.225000X0.250000X-0.225000X0.250000X-0.225000X-0.250000X0.225000X-0.250000X0*%
G04 APERTURE END LIST*
D10*
%TO.C,D16*%
X111712500Y-109100000D03*
X113287500Y-109100000D03*
%TD*%
%TO.C,D1*%
X111725000Y-142100000D03*
X113300000Y-142100000D03*
%TD*%
%TO.C,D11*%
X144725000Y-92700000D03*
X146300000Y-92700000D03*
%TD*%
%TO.C,D13*%
X128225000Y-92700000D03*
X129800000Y-92700000D03*
%TD*%
D11*
%TO.C,R20*%
X125670000Y-59317500D03*
X125670000Y-57667500D03*
%TD*%
D12*
%TO.C,D17*%
X133310000Y-62332500D03*
X133310000Y-60757500D03*
%TD*%
D10*
%TO.C,D9*%
X161225000Y-92700000D03*
X162800000Y-92700000D03*
%TD*%
%TO.C,D14*%
X128200000Y-109200000D03*
X129775000Y-109200000D03*
%TD*%
%TO.C,D15*%
X111725000Y-92700000D03*
X113300000Y-92700000D03*
%TD*%
D11*
%TO.C,R21*%
X107940000Y-63915000D03*
X107940000Y-62265000D03*
%TD*%
D13*
%TO.C,C1*%
X145560000Y-68020000D03*
X144010000Y-68020000D03*
%TD*%
D10*
%TO.C,D12*%
X144712500Y-109100000D03*
X146287500Y-109100000D03*
%TD*%
%TO.C,D7*%
X128212500Y-125500000D03*
X129787500Y-125500000D03*
%TD*%
D12*
%TO.C,D18*%
X130750000Y-62307500D03*
X130750000Y-60732500D03*
%TD*%
D10*
%TO.C,D3*%
X144725000Y-142000000D03*
X146300000Y-142000000D03*
%TD*%
D11*
%TO.C,R19*%
X128150000Y-59350000D03*
X128150000Y-57700000D03*
%TD*%
D13*
%TO.C,C2*%
X145510000Y-54760000D03*
X143960000Y-54760000D03*
%TD*%
D10*
%TO.C,D10*%
X161225000Y-109100000D03*
X162800000Y-109100000D03*
%TD*%
D11*
%TO.C,R18*%
X130750000Y-59325000D03*
X130750000Y-57675000D03*
%TD*%
%TO.C,R17*%
X133300000Y-59350000D03*
X133300000Y-57700000D03*
%TD*%
D10*
%TO.C,D4*%
X161225000Y-142000000D03*
X162800000Y-142000000D03*
%TD*%
%TO.C,D5*%
X161212500Y-125500000D03*
X162787500Y-125500000D03*
%TD*%
D12*
%TO.C,D20*%
X125650000Y-62300000D03*
X125650000Y-60725000D03*
%TD*%
D10*
%TO.C,D8*%
X111712500Y-125500000D03*
X113287500Y-125500000D03*
%TD*%
D12*
%TO.C,D19*%
X128140000Y-62332500D03*
X128140000Y-60757500D03*
%TD*%
D10*
%TO.C,D2*%
X128300000Y-142000000D03*
X129875000Y-142000000D03*
%TD*%
%TO.C,D6*%
X144712500Y-125500000D03*
X146287500Y-125500000D03*
%TD*%
M02*
