%TF.GenerationSoftware,KiCad,Pcbnew,8.0.8*%
%TF.CreationDate,2025-02-24T16:27:27+09:00*%
%TF.ProjectId,keyboard,6b657962-6f61-4726-942e-6b696361645f,rev?*%
%TF.SameCoordinates,Original*%
%TF.FileFunction,Soldermask,Top*%
%TF.FilePolarity,Negative*%
%FSLAX46Y46*%
G04 Gerber Fmt 4.6, Leading zero omitted, Abs format (unit mm)*
G04 Created by KiCad (PCBNEW 8.0.8) date 2025-02-24 16:27:27*
%MOMM*%
%LPD*%
G01*
G04 APERTURE LIST*
G04 Aperture macros list*
%AMRoundRect*
0 Rectangle with rounded corners*
0 $1 Rounding radius*
0 $2 $3 $4 $5 $6 $7 $8 $9 X,Y pos of 4 corners*
0 Add a 4 corners polygon primitive as box body*
4,1,4,$2,$3,$4,$5,$6,$7,$8,$9,$2,$3,0*
0 Add four circle primitives for the rounded corners*
1,1,$1+$1,$2,$3*
1,1,$1+$1,$4,$5*
1,1,$1+$1,$6,$7*
1,1,$1+$1,$8,$9*
0 Add four rect primitives between the rounded corners*
20,1,$1+$1,$2,$3,$4,$5,0*
20,1,$1+$1,$4,$5,$6,$7,0*
20,1,$1+$1,$6,$7,$8,$9,0*
20,1,$1+$1,$8,$9,$2,$3,0*%
G04 Aperture macros list end*
%ADD10C,5.700000*%
%ADD11C,1.000000*%
%ADD12C,1.600000*%
%ADD13C,1.524000*%
%ADD14RoundRect,0.218750X-0.218750X-0.256250X0.218750X-0.256250X0.218750X0.256250X-0.218750X0.256250X0*%
%ADD15R,1.600000X1.600000*%
%ADD16RoundRect,0.200000X0.275000X-0.200000X0.275000X0.200000X-0.275000X0.200000X-0.275000X-0.200000X0*%
%ADD17RoundRect,0.218750X0.256250X-0.218750X0.256250X0.218750X-0.256250X0.218750X-0.256250X-0.218750X0*%
%ADD18RoundRect,0.225000X0.225000X0.250000X-0.225000X0.250000X-0.225000X-0.250000X0.225000X-0.250000X0*%
%ADD19R,1.700000X1.700000*%
%ADD20O,1.700000X1.700000*%
%ADD21O,1.600000X1.600000*%
%ADD22R,1.800000X1.800000*%
%ADD23C,1.800000*%
G04 APERTURE END LIST*
D10*
%TO.C,REF\u002A\u002A*%
X174000000Y-146500000D03*
%TD*%
%TO.C,*%
X174000000Y-146500000D03*
%TD*%
%TO.C,REF\u002A\u002A*%
X101000000Y-146500000D03*
%TD*%
%TO.C,*%
X101000000Y-146500000D03*
%TD*%
%TO.C,REF\u002A\u002A*%
X101000000Y-53500000D03*
%TD*%
%TO.C,*%
X101000000Y-53500000D03*
%TD*%
%TO.C,REF\u002A\u002A*%
X174000000Y-53500000D03*
%TD*%
D11*
%TO.C,SW15*%
X156400000Y-120800000D03*
D12*
X161900000Y-120800000D03*
D11*
X167400000Y-120800000D03*
D13*
X161900000Y-114900000D03*
X166900000Y-117000000D03*
%TD*%
D11*
%TO.C,SW4*%
X156400000Y-88000000D03*
D12*
X161900000Y-88000000D03*
D11*
X167400000Y-88000000D03*
D13*
X161900000Y-82100000D03*
X166900000Y-84200000D03*
%TD*%
D14*
%TO.C,D16*%
X111712500Y-109100000D03*
X113287500Y-109100000D03*
%TD*%
D11*
%TO.C,SW3*%
X139900000Y-88000000D03*
D12*
X145400000Y-88000000D03*
D11*
X150900000Y-88000000D03*
D13*
X145400000Y-82100000D03*
X150400000Y-84200000D03*
%TD*%
D11*
%TO.C,SW10*%
X107000000Y-137200000D03*
D12*
X112500000Y-137200000D03*
D11*
X118000000Y-137200000D03*
D13*
X112500000Y-131300000D03*
X117500000Y-133400000D03*
%TD*%
D14*
%TO.C,D1*%
X111725000Y-142100000D03*
X113300000Y-142100000D03*
%TD*%
%TO.C,D11*%
X144725000Y-92700000D03*
X146300000Y-92700000D03*
%TD*%
D11*
%TO.C,SW12*%
X123500000Y-137200000D03*
D12*
X129000000Y-137200000D03*
D11*
X134500000Y-137200000D03*
D13*
X129000000Y-131300000D03*
X134000000Y-133400000D03*
%TD*%
D15*
%TO.C,C4*%
X112300000Y-56100000D03*
D12*
X112300000Y-59600000D03*
%TD*%
D11*
%TO.C,SW9*%
X107000000Y-120800000D03*
D12*
X112500000Y-120800000D03*
D11*
X118000000Y-120800000D03*
D13*
X112500000Y-114900000D03*
X117500000Y-117000000D03*
%TD*%
D14*
%TO.C,D13*%
X128225000Y-92700000D03*
X129800000Y-92700000D03*
%TD*%
D16*
%TO.C,R20*%
X125670000Y-59317500D03*
X125670000Y-57667500D03*
%TD*%
D17*
%TO.C,D17*%
X133310000Y-62332500D03*
X133310000Y-60757500D03*
%TD*%
D14*
%TO.C,D9*%
X161225000Y-92700000D03*
X162800000Y-92700000D03*
%TD*%
D11*
%TO.C,SW16*%
X156400000Y-137200000D03*
D12*
X161900000Y-137200000D03*
D11*
X167400000Y-137200000D03*
D13*
X161900000Y-131300000D03*
X166900000Y-133400000D03*
%TD*%
D11*
%TO.C,SW14*%
X139900000Y-137200000D03*
D12*
X145400000Y-137200000D03*
D11*
X150900000Y-137200000D03*
D13*
X145400000Y-131300000D03*
X150400000Y-133400000D03*
%TD*%
D14*
%TO.C,D14*%
X128200000Y-109200000D03*
X129775000Y-109200000D03*
%TD*%
%TO.C,D15*%
X111725000Y-92700000D03*
X113300000Y-92700000D03*
%TD*%
D16*
%TO.C,R21*%
X107940000Y-63915000D03*
X107940000Y-62265000D03*
%TD*%
D18*
%TO.C,C1*%
X145560000Y-68020000D03*
X144010000Y-68020000D03*
%TD*%
D14*
%TO.C,D12*%
X144712500Y-109100000D03*
X146287500Y-109100000D03*
%TD*%
D11*
%TO.C,SW7*%
X139900000Y-104400000D03*
D12*
X145400000Y-104400000D03*
D11*
X150900000Y-104400000D03*
D13*
X145400000Y-98500000D03*
X150400000Y-100600000D03*
%TD*%
D11*
%TO.C,SW8*%
X156400000Y-104400000D03*
D12*
X161900000Y-104400000D03*
D11*
X167400000Y-104400000D03*
D13*
X161900000Y-98500000D03*
X166900000Y-100600000D03*
%TD*%
D14*
%TO.C,D7*%
X128212500Y-125500000D03*
X129787500Y-125500000D03*
%TD*%
D17*
%TO.C,D18*%
X130750000Y-62307500D03*
X130750000Y-60732500D03*
%TD*%
D11*
%TO.C,SW6*%
X123500000Y-104400000D03*
D12*
X129000000Y-104400000D03*
D11*
X134500000Y-104400000D03*
D13*
X129000000Y-98500000D03*
X134000000Y-100600000D03*
%TD*%
D14*
%TO.C,D3*%
X144725000Y-142000000D03*
X146300000Y-142000000D03*
%TD*%
D19*
%TO.C,J1*%
X134540000Y-54800000D03*
D20*
X132000000Y-54800000D03*
X129460000Y-54800000D03*
X126920000Y-54800000D03*
X124380000Y-54800000D03*
X121840000Y-54800000D03*
%TD*%
D16*
%TO.C,R19*%
X128150000Y-59350000D03*
X128150000Y-57700000D03*
%TD*%
D18*
%TO.C,C2*%
X145510000Y-54760000D03*
X143960000Y-54760000D03*
%TD*%
D11*
%TO.C,SW1*%
X107000000Y-88000000D03*
D12*
X112500000Y-88000000D03*
D11*
X118000000Y-88000000D03*
D13*
X112500000Y-82100000D03*
X117500000Y-84200000D03*
%TD*%
D14*
%TO.C,D10*%
X161225000Y-109100000D03*
X162800000Y-109100000D03*
%TD*%
D16*
%TO.C,R18*%
X130750000Y-59325000D03*
X130750000Y-57675000D03*
%TD*%
D11*
%TO.C,SW2*%
X123500000Y-88000000D03*
D12*
X129000000Y-88000000D03*
D11*
X134500000Y-88000000D03*
D13*
X129000000Y-82100000D03*
X134000000Y-84200000D03*
%TD*%
%TO.C,SW11*%
X134000000Y-117000000D03*
X129000000Y-114900000D03*
D11*
X134500000Y-120800000D03*
D12*
X129000000Y-120800000D03*
D11*
X123500000Y-120800000D03*
%TD*%
%TO.C,SW13*%
X139900000Y-120800000D03*
D12*
X145400000Y-120800000D03*
D11*
X150900000Y-120800000D03*
D13*
X145400000Y-114900000D03*
X150400000Y-117000000D03*
%TD*%
D15*
%TO.C,U2*%
X146720000Y-64500000D03*
D21*
X149260000Y-64500000D03*
X151800000Y-64500000D03*
X154340000Y-64500000D03*
X156880000Y-64500000D03*
X159420000Y-64500000D03*
X161960000Y-64500000D03*
X164500000Y-64500000D03*
X164500000Y-56880000D03*
X161960000Y-56880000D03*
X159420000Y-56880000D03*
X156880000Y-56880000D03*
X154340000Y-56880000D03*
X151800000Y-56880000D03*
X149260000Y-56880000D03*
X146720000Y-56880000D03*
%TD*%
D16*
%TO.C,R17*%
X133300000Y-59350000D03*
X133300000Y-57700000D03*
%TD*%
D14*
%TO.C,D4*%
X161225000Y-142000000D03*
X162800000Y-142000000D03*
%TD*%
%TO.C,D5*%
X161212500Y-125500000D03*
X162787500Y-125500000D03*
%TD*%
D17*
%TO.C,D20*%
X125650000Y-62300000D03*
X125650000Y-60725000D03*
%TD*%
D14*
%TO.C,D8*%
X111712500Y-125500000D03*
X113287500Y-125500000D03*
%TD*%
D22*
%TO.C,D21*%
X113300000Y-66000000D03*
D23*
X110760000Y-66000000D03*
%TD*%
D11*
%TO.C,SW5*%
X107000000Y-104400000D03*
D12*
X112500000Y-104400000D03*
D11*
X118000000Y-104400000D03*
D13*
X112500000Y-98500000D03*
X117500000Y-100600000D03*
%TD*%
D17*
%TO.C,D19*%
X128140000Y-62332500D03*
X128140000Y-60757500D03*
%TD*%
D14*
%TO.C,D2*%
X128300000Y-142000000D03*
X129875000Y-142000000D03*
%TD*%
%TO.C,D6*%
X144712500Y-125500000D03*
X146287500Y-125500000D03*
%TD*%
D15*
%TO.C,U1*%
X146720000Y-77720000D03*
D21*
X149260000Y-77720000D03*
X151800000Y-77720000D03*
X154340000Y-77720000D03*
X156880000Y-77720000D03*
X159420000Y-77720000D03*
X161960000Y-77720000D03*
X164500000Y-77720000D03*
X164500000Y-70100000D03*
X161960000Y-70100000D03*
X159420000Y-70100000D03*
X156880000Y-70100000D03*
X154340000Y-70100000D03*
X151800000Y-70100000D03*
X149260000Y-70100000D03*
X146720000Y-70100000D03*
%TD*%
M02*
