%TF.GenerationSoftware,KiCad,Pcbnew,8.0.8*%
%TF.CreationDate,2025-02-24T16:27:27+09:00*%
%TF.ProjectId,keyboard,6b657962-6f61-4726-942e-6b696361645f,rev?*%
%TF.SameCoordinates,Original*%
%TF.FileFunction,Soldermask,Bot*%
%TF.FilePolarity,Negative*%
%FSLAX46Y46*%
G04 Gerber Fmt 4.6, Leading zero omitted, Abs format (unit mm)*
G04 Created by KiCad (PCBNEW 8.0.8) date 2025-02-24 16:27:27*
%MOMM*%
%LPD*%
G01*
G04 APERTURE LIST*
G04 Aperture macros list*
%AMRoundRect*
0 Rectangle with rounded corners*
0 $1 Rounding radius*
0 $2 $3 $4 $5 $6 $7 $8 $9 X,Y pos of 4 corners*
0 Add a 4 corners polygon primitive as box body*
4,1,4,$2,$3,$4,$5,$6,$7,$8,$9,$2,$3,0*
0 Add four circle primitives for the rounded corners*
1,1,$1+$1,$2,$3*
1,1,$1+$1,$4,$5*
1,1,$1+$1,$6,$7*
1,1,$1+$1,$8,$9*
0 Add four rect primitives between the rounded corners*
20,1,$1+$1,$2,$3,$4,$5,0*
20,1,$1+$1,$4,$5,$6,$7,0*
20,1,$1+$1,$6,$7,$8,$9,0*
20,1,$1+$1,$8,$9,$2,$3,0*%
G04 Aperture macros list end*
%ADD10C,5.700000*%
%ADD11C,1.000000*%
%ADD12C,1.600000*%
%ADD13C,1.524000*%
%ADD14R,1.600000X1.600000*%
%ADD15R,1.700000X1.700000*%
%ADD16O,1.700000X1.700000*%
%ADD17O,1.600000X1.600000*%
%ADD18R,1.800000X1.800000*%
%ADD19C,1.800000*%
%ADD20RoundRect,0.200000X0.275000X-0.200000X0.275000X0.200000X-0.275000X0.200000X-0.275000X-0.200000X0*%
%ADD21RoundRect,0.225000X0.225000X0.250000X-0.225000X0.250000X-0.225000X-0.250000X0.225000X-0.250000X0*%
G04 APERTURE END LIST*
D10*
%TO.C,REF\u002A\u002A*%
X174000000Y-146500000D03*
%TD*%
%TO.C,*%
X174000000Y-146500000D03*
%TD*%
%TO.C,REF\u002A\u002A*%
X101000000Y-146500000D03*
%TD*%
%TO.C,*%
X101000000Y-146500000D03*
%TD*%
%TO.C,REF\u002A\u002A*%
X101000000Y-53500000D03*
%TD*%
%TO.C,*%
X101000000Y-53500000D03*
%TD*%
%TO.C,REF\u002A\u002A*%
X174000000Y-53500000D03*
%TD*%
D11*
%TO.C,SW15*%
X156400000Y-120800000D03*
D12*
X161900000Y-120800000D03*
D11*
X167400000Y-120800000D03*
D13*
X161900000Y-114900000D03*
X166900000Y-117000000D03*
%TD*%
D11*
%TO.C,SW4*%
X156400000Y-88000000D03*
D12*
X161900000Y-88000000D03*
D11*
X167400000Y-88000000D03*
D13*
X161900000Y-82100000D03*
X166900000Y-84200000D03*
%TD*%
D11*
%TO.C,SW3*%
X139900000Y-88000000D03*
D12*
X145400000Y-88000000D03*
D11*
X150900000Y-88000000D03*
D13*
X145400000Y-82100000D03*
X150400000Y-84200000D03*
%TD*%
D11*
%TO.C,SW10*%
X107000000Y-137200000D03*
D12*
X112500000Y-137200000D03*
D11*
X118000000Y-137200000D03*
D13*
X112500000Y-131300000D03*
X117500000Y-133400000D03*
%TD*%
D11*
%TO.C,SW12*%
X123500000Y-137200000D03*
D12*
X129000000Y-137200000D03*
D11*
X134500000Y-137200000D03*
D13*
X129000000Y-131300000D03*
X134000000Y-133400000D03*
%TD*%
D14*
%TO.C,C4*%
X112300000Y-56100000D03*
D12*
X112300000Y-59600000D03*
%TD*%
D11*
%TO.C,SW9*%
X107000000Y-120800000D03*
D12*
X112500000Y-120800000D03*
D11*
X118000000Y-120800000D03*
D13*
X112500000Y-114900000D03*
X117500000Y-117000000D03*
%TD*%
D11*
%TO.C,SW16*%
X156400000Y-137200000D03*
D12*
X161900000Y-137200000D03*
D11*
X167400000Y-137200000D03*
D13*
X161900000Y-131300000D03*
X166900000Y-133400000D03*
%TD*%
D11*
%TO.C,SW14*%
X139900000Y-137200000D03*
D12*
X145400000Y-137200000D03*
D11*
X150900000Y-137200000D03*
D13*
X145400000Y-131300000D03*
X150400000Y-133400000D03*
%TD*%
D11*
%TO.C,SW7*%
X139900000Y-104400000D03*
D12*
X145400000Y-104400000D03*
D11*
X150900000Y-104400000D03*
D13*
X145400000Y-98500000D03*
X150400000Y-100600000D03*
%TD*%
D11*
%TO.C,SW8*%
X156400000Y-104400000D03*
D12*
X161900000Y-104400000D03*
D11*
X167400000Y-104400000D03*
D13*
X161900000Y-98500000D03*
X166900000Y-100600000D03*
%TD*%
D11*
%TO.C,SW6*%
X123500000Y-104400000D03*
D12*
X129000000Y-104400000D03*
D11*
X134500000Y-104400000D03*
D13*
X129000000Y-98500000D03*
X134000000Y-100600000D03*
%TD*%
D15*
%TO.C,J1*%
X134540000Y-54800000D03*
D16*
X132000000Y-54800000D03*
X129460000Y-54800000D03*
X126920000Y-54800000D03*
X124380000Y-54800000D03*
X121840000Y-54800000D03*
%TD*%
D11*
%TO.C,SW1*%
X107000000Y-88000000D03*
D12*
X112500000Y-88000000D03*
D11*
X118000000Y-88000000D03*
D13*
X112500000Y-82100000D03*
X117500000Y-84200000D03*
%TD*%
D11*
%TO.C,SW2*%
X123500000Y-88000000D03*
D12*
X129000000Y-88000000D03*
D11*
X134500000Y-88000000D03*
D13*
X129000000Y-82100000D03*
X134000000Y-84200000D03*
%TD*%
%TO.C,SW11*%
X134000000Y-117000000D03*
X129000000Y-114900000D03*
D11*
X134500000Y-120800000D03*
D12*
X129000000Y-120800000D03*
D11*
X123500000Y-120800000D03*
%TD*%
%TO.C,SW13*%
X139900000Y-120800000D03*
D12*
X145400000Y-120800000D03*
D11*
X150900000Y-120800000D03*
D13*
X145400000Y-114900000D03*
X150400000Y-117000000D03*
%TD*%
D14*
%TO.C,U2*%
X146720000Y-64500000D03*
D17*
X149260000Y-64500000D03*
X151800000Y-64500000D03*
X154340000Y-64500000D03*
X156880000Y-64500000D03*
X159420000Y-64500000D03*
X161960000Y-64500000D03*
X164500000Y-64500000D03*
X164500000Y-56880000D03*
X161960000Y-56880000D03*
X159420000Y-56880000D03*
X156880000Y-56880000D03*
X154340000Y-56880000D03*
X151800000Y-56880000D03*
X149260000Y-56880000D03*
X146720000Y-56880000D03*
%TD*%
D18*
%TO.C,D21*%
X113300000Y-66000000D03*
D19*
X110760000Y-66000000D03*
%TD*%
D11*
%TO.C,SW5*%
X107000000Y-104400000D03*
D12*
X112500000Y-104400000D03*
D11*
X118000000Y-104400000D03*
D13*
X112500000Y-98500000D03*
X117500000Y-100600000D03*
%TD*%
D14*
%TO.C,U1*%
X146720000Y-77720000D03*
D17*
X149260000Y-77720000D03*
X151800000Y-77720000D03*
X154340000Y-77720000D03*
X156880000Y-77720000D03*
X159420000Y-77720000D03*
X161960000Y-77720000D03*
X164500000Y-77720000D03*
X164500000Y-70100000D03*
X161960000Y-70100000D03*
X159420000Y-70100000D03*
X156880000Y-70100000D03*
X154340000Y-70100000D03*
X151800000Y-70100000D03*
X149260000Y-70100000D03*
X146720000Y-70100000D03*
%TD*%
D14*
%TO.C,U3*%
X118760000Y-69380000D03*
X121300000Y-69380000D03*
X123840000Y-69380000D03*
X126380000Y-69380000D03*
X128920000Y-69380000D03*
X131460000Y-69380000D03*
X134000000Y-69380000D03*
X134000000Y-77000000D03*
X131460000Y-77000000D03*
X128920000Y-77000000D03*
X126380000Y-77000000D03*
X123840000Y-77000000D03*
X121300000Y-77000000D03*
X118760000Y-77000000D03*
%TD*%
D20*
%TO.C,R7*%
X132000000Y-124825000D03*
X132000000Y-123175000D03*
%TD*%
D21*
%TO.C,C3*%
X116010000Y-77000000D03*
X114460000Y-77000000D03*
%TD*%
D20*
%TO.C,R1*%
X165000000Y-141625000D03*
X165000000Y-139975000D03*
%TD*%
%TO.C,R10*%
X165000000Y-108525000D03*
X165000000Y-106875000D03*
%TD*%
%TO.C,R14*%
X132000000Y-108500000D03*
X132000000Y-106850000D03*
%TD*%
%TO.C,R9*%
X165000000Y-92100000D03*
X165000000Y-90450000D03*
%TD*%
%TO.C,R4*%
X115500000Y-141500000D03*
X115500000Y-139850000D03*
%TD*%
%TO.C,R11*%
X148500000Y-92025000D03*
X148500000Y-90375000D03*
%TD*%
%TO.C,R13*%
X132000000Y-92100000D03*
X132000000Y-90450000D03*
%TD*%
%TO.C,R3*%
X132000000Y-141450000D03*
X132000000Y-139800000D03*
%TD*%
%TO.C,R16*%
X115500000Y-108650000D03*
X115500000Y-107000000D03*
%TD*%
%TO.C,R6*%
X148500000Y-124825000D03*
X148500000Y-123175000D03*
%TD*%
%TO.C,R2*%
X148500000Y-141500000D03*
X148500000Y-139850000D03*
%TD*%
%TO.C,R8*%
X115500000Y-124825000D03*
X115500000Y-123175000D03*
%TD*%
%TO.C,R15*%
X115500000Y-92025000D03*
X115500000Y-90375000D03*
%TD*%
%TO.C,R12*%
X148500000Y-108500000D03*
X148500000Y-106850000D03*
%TD*%
%TO.C,R5*%
X165000000Y-124825000D03*
X165000000Y-123175000D03*
%TD*%
M02*
