%TF.GenerationSoftware,KiCad,Pcbnew,8.0.8*%
%TF.CreationDate,2025-02-24T16:27:27+09:00*%
%TF.ProjectId,keyboard,6b657962-6f61-4726-942e-6b696361645f,rev?*%
%TF.SameCoordinates,Original*%
%TF.FileFunction,Legend,Top*%
%TF.FilePolarity,Positive*%
%FSLAX46Y46*%
G04 Gerber Fmt 4.6, Leading zero omitted, Abs format (unit mm)*
G04 Created by KiCad (PCBNEW 8.0.8) date 2025-02-24 16:27:27*
%MOMM*%
%LPD*%
G01*
G04 APERTURE LIST*
%ADD10C,0.150000*%
%ADD11C,0.100000*%
%ADD12C,0.120000*%
G04 APERTURE END LIST*
D10*
X111285714Y-108124819D02*
X111285714Y-107124819D01*
X111285714Y-107124819D02*
X111523809Y-107124819D01*
X111523809Y-107124819D02*
X111666666Y-107172438D01*
X111666666Y-107172438D02*
X111761904Y-107267676D01*
X111761904Y-107267676D02*
X111809523Y-107362914D01*
X111809523Y-107362914D02*
X111857142Y-107553390D01*
X111857142Y-107553390D02*
X111857142Y-107696247D01*
X111857142Y-107696247D02*
X111809523Y-107886723D01*
X111809523Y-107886723D02*
X111761904Y-107981961D01*
X111761904Y-107981961D02*
X111666666Y-108077200D01*
X111666666Y-108077200D02*
X111523809Y-108124819D01*
X111523809Y-108124819D02*
X111285714Y-108124819D01*
X112809523Y-108124819D02*
X112238095Y-108124819D01*
X112523809Y-108124819D02*
X112523809Y-107124819D01*
X112523809Y-107124819D02*
X112428571Y-107267676D01*
X112428571Y-107267676D02*
X112333333Y-107362914D01*
X112333333Y-107362914D02*
X112238095Y-107410533D01*
X113666666Y-107124819D02*
X113476190Y-107124819D01*
X113476190Y-107124819D02*
X113380952Y-107172438D01*
X113380952Y-107172438D02*
X113333333Y-107220057D01*
X113333333Y-107220057D02*
X113238095Y-107362914D01*
X113238095Y-107362914D02*
X113190476Y-107553390D01*
X113190476Y-107553390D02*
X113190476Y-107934342D01*
X113190476Y-107934342D02*
X113238095Y-108029580D01*
X113238095Y-108029580D02*
X113285714Y-108077200D01*
X113285714Y-108077200D02*
X113380952Y-108124819D01*
X113380952Y-108124819D02*
X113571428Y-108124819D01*
X113571428Y-108124819D02*
X113666666Y-108077200D01*
X113666666Y-108077200D02*
X113714285Y-108029580D01*
X113714285Y-108029580D02*
X113761904Y-107934342D01*
X113761904Y-107934342D02*
X113761904Y-107696247D01*
X113761904Y-107696247D02*
X113714285Y-107601009D01*
X113714285Y-107601009D02*
X113666666Y-107553390D01*
X113666666Y-107553390D02*
X113571428Y-107505771D01*
X113571428Y-107505771D02*
X113380952Y-107505771D01*
X113380952Y-107505771D02*
X113285714Y-107553390D01*
X113285714Y-107553390D02*
X113238095Y-107601009D01*
X113238095Y-107601009D02*
X113190476Y-107696247D01*
X111774405Y-141124819D02*
X111774405Y-140124819D01*
X111774405Y-140124819D02*
X112012500Y-140124819D01*
X112012500Y-140124819D02*
X112155357Y-140172438D01*
X112155357Y-140172438D02*
X112250595Y-140267676D01*
X112250595Y-140267676D02*
X112298214Y-140362914D01*
X112298214Y-140362914D02*
X112345833Y-140553390D01*
X112345833Y-140553390D02*
X112345833Y-140696247D01*
X112345833Y-140696247D02*
X112298214Y-140886723D01*
X112298214Y-140886723D02*
X112250595Y-140981961D01*
X112250595Y-140981961D02*
X112155357Y-141077200D01*
X112155357Y-141077200D02*
X112012500Y-141124819D01*
X112012500Y-141124819D02*
X111774405Y-141124819D01*
X113298214Y-141124819D02*
X112726786Y-141124819D01*
X113012500Y-141124819D02*
X113012500Y-140124819D01*
X113012500Y-140124819D02*
X112917262Y-140267676D01*
X112917262Y-140267676D02*
X112822024Y-140362914D01*
X112822024Y-140362914D02*
X112726786Y-140410533D01*
X144298214Y-91724819D02*
X144298214Y-90724819D01*
X144298214Y-90724819D02*
X144536309Y-90724819D01*
X144536309Y-90724819D02*
X144679166Y-90772438D01*
X144679166Y-90772438D02*
X144774404Y-90867676D01*
X144774404Y-90867676D02*
X144822023Y-90962914D01*
X144822023Y-90962914D02*
X144869642Y-91153390D01*
X144869642Y-91153390D02*
X144869642Y-91296247D01*
X144869642Y-91296247D02*
X144822023Y-91486723D01*
X144822023Y-91486723D02*
X144774404Y-91581961D01*
X144774404Y-91581961D02*
X144679166Y-91677200D01*
X144679166Y-91677200D02*
X144536309Y-91724819D01*
X144536309Y-91724819D02*
X144298214Y-91724819D01*
X145822023Y-91724819D02*
X145250595Y-91724819D01*
X145536309Y-91724819D02*
X145536309Y-90724819D01*
X145536309Y-90724819D02*
X145441071Y-90867676D01*
X145441071Y-90867676D02*
X145345833Y-90962914D01*
X145345833Y-90962914D02*
X145250595Y-91010533D01*
X146774404Y-91724819D02*
X146202976Y-91724819D01*
X146488690Y-91724819D02*
X146488690Y-90724819D01*
X146488690Y-90724819D02*
X146393452Y-90867676D01*
X146393452Y-90867676D02*
X146298214Y-90962914D01*
X146298214Y-90962914D02*
X146202976Y-91010533D01*
X116133333Y-61959580D02*
X116085714Y-62007200D01*
X116085714Y-62007200D02*
X115942857Y-62054819D01*
X115942857Y-62054819D02*
X115847619Y-62054819D01*
X115847619Y-62054819D02*
X115704762Y-62007200D01*
X115704762Y-62007200D02*
X115609524Y-61911961D01*
X115609524Y-61911961D02*
X115561905Y-61816723D01*
X115561905Y-61816723D02*
X115514286Y-61626247D01*
X115514286Y-61626247D02*
X115514286Y-61483390D01*
X115514286Y-61483390D02*
X115561905Y-61292914D01*
X115561905Y-61292914D02*
X115609524Y-61197676D01*
X115609524Y-61197676D02*
X115704762Y-61102438D01*
X115704762Y-61102438D02*
X115847619Y-61054819D01*
X115847619Y-61054819D02*
X115942857Y-61054819D01*
X115942857Y-61054819D02*
X116085714Y-61102438D01*
X116085714Y-61102438D02*
X116133333Y-61150057D01*
X116990476Y-61388152D02*
X116990476Y-62054819D01*
X116752381Y-61007200D02*
X116514286Y-61721485D01*
X116514286Y-61721485D02*
X117133333Y-61721485D01*
X127798214Y-91724819D02*
X127798214Y-90724819D01*
X127798214Y-90724819D02*
X128036309Y-90724819D01*
X128036309Y-90724819D02*
X128179166Y-90772438D01*
X128179166Y-90772438D02*
X128274404Y-90867676D01*
X128274404Y-90867676D02*
X128322023Y-90962914D01*
X128322023Y-90962914D02*
X128369642Y-91153390D01*
X128369642Y-91153390D02*
X128369642Y-91296247D01*
X128369642Y-91296247D02*
X128322023Y-91486723D01*
X128322023Y-91486723D02*
X128274404Y-91581961D01*
X128274404Y-91581961D02*
X128179166Y-91677200D01*
X128179166Y-91677200D02*
X128036309Y-91724819D01*
X128036309Y-91724819D02*
X127798214Y-91724819D01*
X129322023Y-91724819D02*
X128750595Y-91724819D01*
X129036309Y-91724819D02*
X129036309Y-90724819D01*
X129036309Y-90724819D02*
X128941071Y-90867676D01*
X128941071Y-90867676D02*
X128845833Y-90962914D01*
X128845833Y-90962914D02*
X128750595Y-91010533D01*
X129655357Y-90724819D02*
X130274404Y-90724819D01*
X130274404Y-90724819D02*
X129941071Y-91105771D01*
X129941071Y-91105771D02*
X130083928Y-91105771D01*
X130083928Y-91105771D02*
X130179166Y-91153390D01*
X130179166Y-91153390D02*
X130226785Y-91201009D01*
X130226785Y-91201009D02*
X130274404Y-91296247D01*
X130274404Y-91296247D02*
X130274404Y-91534342D01*
X130274404Y-91534342D02*
X130226785Y-91629580D01*
X130226785Y-91629580D02*
X130179166Y-91677200D01*
X130179166Y-91677200D02*
X130083928Y-91724819D01*
X130083928Y-91724819D02*
X129798214Y-91724819D01*
X129798214Y-91724819D02*
X129702976Y-91677200D01*
X129702976Y-91677200D02*
X129655357Y-91629580D01*
X161274405Y-91724819D02*
X161274405Y-90724819D01*
X161274405Y-90724819D02*
X161512500Y-90724819D01*
X161512500Y-90724819D02*
X161655357Y-90772438D01*
X161655357Y-90772438D02*
X161750595Y-90867676D01*
X161750595Y-90867676D02*
X161798214Y-90962914D01*
X161798214Y-90962914D02*
X161845833Y-91153390D01*
X161845833Y-91153390D02*
X161845833Y-91296247D01*
X161845833Y-91296247D02*
X161798214Y-91486723D01*
X161798214Y-91486723D02*
X161750595Y-91581961D01*
X161750595Y-91581961D02*
X161655357Y-91677200D01*
X161655357Y-91677200D02*
X161512500Y-91724819D01*
X161512500Y-91724819D02*
X161274405Y-91724819D01*
X162322024Y-91724819D02*
X162512500Y-91724819D01*
X162512500Y-91724819D02*
X162607738Y-91677200D01*
X162607738Y-91677200D02*
X162655357Y-91629580D01*
X162655357Y-91629580D02*
X162750595Y-91486723D01*
X162750595Y-91486723D02*
X162798214Y-91296247D01*
X162798214Y-91296247D02*
X162798214Y-90915295D01*
X162798214Y-90915295D02*
X162750595Y-90820057D01*
X162750595Y-90820057D02*
X162702976Y-90772438D01*
X162702976Y-90772438D02*
X162607738Y-90724819D01*
X162607738Y-90724819D02*
X162417262Y-90724819D01*
X162417262Y-90724819D02*
X162322024Y-90772438D01*
X162322024Y-90772438D02*
X162274405Y-90820057D01*
X162274405Y-90820057D02*
X162226786Y-90915295D01*
X162226786Y-90915295D02*
X162226786Y-91153390D01*
X162226786Y-91153390D02*
X162274405Y-91248628D01*
X162274405Y-91248628D02*
X162322024Y-91296247D01*
X162322024Y-91296247D02*
X162417262Y-91343866D01*
X162417262Y-91343866D02*
X162607738Y-91343866D01*
X162607738Y-91343866D02*
X162702976Y-91296247D01*
X162702976Y-91296247D02*
X162750595Y-91248628D01*
X162750595Y-91248628D02*
X162798214Y-91153390D01*
X127773214Y-108224819D02*
X127773214Y-107224819D01*
X127773214Y-107224819D02*
X128011309Y-107224819D01*
X128011309Y-107224819D02*
X128154166Y-107272438D01*
X128154166Y-107272438D02*
X128249404Y-107367676D01*
X128249404Y-107367676D02*
X128297023Y-107462914D01*
X128297023Y-107462914D02*
X128344642Y-107653390D01*
X128344642Y-107653390D02*
X128344642Y-107796247D01*
X128344642Y-107796247D02*
X128297023Y-107986723D01*
X128297023Y-107986723D02*
X128249404Y-108081961D01*
X128249404Y-108081961D02*
X128154166Y-108177200D01*
X128154166Y-108177200D02*
X128011309Y-108224819D01*
X128011309Y-108224819D02*
X127773214Y-108224819D01*
X129297023Y-108224819D02*
X128725595Y-108224819D01*
X129011309Y-108224819D02*
X129011309Y-107224819D01*
X129011309Y-107224819D02*
X128916071Y-107367676D01*
X128916071Y-107367676D02*
X128820833Y-107462914D01*
X128820833Y-107462914D02*
X128725595Y-107510533D01*
X130154166Y-107558152D02*
X130154166Y-108224819D01*
X129916071Y-107177200D02*
X129677976Y-107891485D01*
X129677976Y-107891485D02*
X130297023Y-107891485D01*
X111298214Y-91724819D02*
X111298214Y-90724819D01*
X111298214Y-90724819D02*
X111536309Y-90724819D01*
X111536309Y-90724819D02*
X111679166Y-90772438D01*
X111679166Y-90772438D02*
X111774404Y-90867676D01*
X111774404Y-90867676D02*
X111822023Y-90962914D01*
X111822023Y-90962914D02*
X111869642Y-91153390D01*
X111869642Y-91153390D02*
X111869642Y-91296247D01*
X111869642Y-91296247D02*
X111822023Y-91486723D01*
X111822023Y-91486723D02*
X111774404Y-91581961D01*
X111774404Y-91581961D02*
X111679166Y-91677200D01*
X111679166Y-91677200D02*
X111536309Y-91724819D01*
X111536309Y-91724819D02*
X111298214Y-91724819D01*
X112822023Y-91724819D02*
X112250595Y-91724819D01*
X112536309Y-91724819D02*
X112536309Y-90724819D01*
X112536309Y-90724819D02*
X112441071Y-90867676D01*
X112441071Y-90867676D02*
X112345833Y-90962914D01*
X112345833Y-90962914D02*
X112250595Y-91010533D01*
X113726785Y-90724819D02*
X113250595Y-90724819D01*
X113250595Y-90724819D02*
X113202976Y-91201009D01*
X113202976Y-91201009D02*
X113250595Y-91153390D01*
X113250595Y-91153390D02*
X113345833Y-91105771D01*
X113345833Y-91105771D02*
X113583928Y-91105771D01*
X113583928Y-91105771D02*
X113679166Y-91153390D01*
X113679166Y-91153390D02*
X113726785Y-91201009D01*
X113726785Y-91201009D02*
X113774404Y-91296247D01*
X113774404Y-91296247D02*
X113774404Y-91534342D01*
X113774404Y-91534342D02*
X113726785Y-91629580D01*
X113726785Y-91629580D02*
X113679166Y-91677200D01*
X113679166Y-91677200D02*
X113583928Y-91724819D01*
X113583928Y-91724819D02*
X113345833Y-91724819D01*
X113345833Y-91724819D02*
X113250595Y-91677200D01*
X113250595Y-91677200D02*
X113202976Y-91629580D01*
X106964819Y-63732857D02*
X106488628Y-64066190D01*
X106964819Y-64304285D02*
X105964819Y-64304285D01*
X105964819Y-64304285D02*
X105964819Y-63923333D01*
X105964819Y-63923333D02*
X106012438Y-63828095D01*
X106012438Y-63828095D02*
X106060057Y-63780476D01*
X106060057Y-63780476D02*
X106155295Y-63732857D01*
X106155295Y-63732857D02*
X106298152Y-63732857D01*
X106298152Y-63732857D02*
X106393390Y-63780476D01*
X106393390Y-63780476D02*
X106441009Y-63828095D01*
X106441009Y-63828095D02*
X106488628Y-63923333D01*
X106488628Y-63923333D02*
X106488628Y-64304285D01*
X106060057Y-63351904D02*
X106012438Y-63304285D01*
X106012438Y-63304285D02*
X105964819Y-63209047D01*
X105964819Y-63209047D02*
X105964819Y-62970952D01*
X105964819Y-62970952D02*
X106012438Y-62875714D01*
X106012438Y-62875714D02*
X106060057Y-62828095D01*
X106060057Y-62828095D02*
X106155295Y-62780476D01*
X106155295Y-62780476D02*
X106250533Y-62780476D01*
X106250533Y-62780476D02*
X106393390Y-62828095D01*
X106393390Y-62828095D02*
X106964819Y-63399523D01*
X106964819Y-63399523D02*
X106964819Y-62780476D01*
X106964819Y-61828095D02*
X106964819Y-62399523D01*
X106964819Y-62113809D02*
X105964819Y-62113809D01*
X105964819Y-62113809D02*
X106107676Y-62209047D01*
X106107676Y-62209047D02*
X106202914Y-62304285D01*
X106202914Y-62304285D02*
X106250533Y-62399523D01*
X141963333Y-68379580D02*
X141915714Y-68427200D01*
X141915714Y-68427200D02*
X141772857Y-68474819D01*
X141772857Y-68474819D02*
X141677619Y-68474819D01*
X141677619Y-68474819D02*
X141534762Y-68427200D01*
X141534762Y-68427200D02*
X141439524Y-68331961D01*
X141439524Y-68331961D02*
X141391905Y-68236723D01*
X141391905Y-68236723D02*
X141344286Y-68046247D01*
X141344286Y-68046247D02*
X141344286Y-67903390D01*
X141344286Y-67903390D02*
X141391905Y-67712914D01*
X141391905Y-67712914D02*
X141439524Y-67617676D01*
X141439524Y-67617676D02*
X141534762Y-67522438D01*
X141534762Y-67522438D02*
X141677619Y-67474819D01*
X141677619Y-67474819D02*
X141772857Y-67474819D01*
X141772857Y-67474819D02*
X141915714Y-67522438D01*
X141915714Y-67522438D02*
X141963333Y-67570057D01*
X142915714Y-68474819D02*
X142344286Y-68474819D01*
X142630000Y-68474819D02*
X142630000Y-67474819D01*
X142630000Y-67474819D02*
X142534762Y-67617676D01*
X142534762Y-67617676D02*
X142439524Y-67712914D01*
X142439524Y-67712914D02*
X142344286Y-67760533D01*
X144285714Y-108124819D02*
X144285714Y-107124819D01*
X144285714Y-107124819D02*
X144523809Y-107124819D01*
X144523809Y-107124819D02*
X144666666Y-107172438D01*
X144666666Y-107172438D02*
X144761904Y-107267676D01*
X144761904Y-107267676D02*
X144809523Y-107362914D01*
X144809523Y-107362914D02*
X144857142Y-107553390D01*
X144857142Y-107553390D02*
X144857142Y-107696247D01*
X144857142Y-107696247D02*
X144809523Y-107886723D01*
X144809523Y-107886723D02*
X144761904Y-107981961D01*
X144761904Y-107981961D02*
X144666666Y-108077200D01*
X144666666Y-108077200D02*
X144523809Y-108124819D01*
X144523809Y-108124819D02*
X144285714Y-108124819D01*
X145809523Y-108124819D02*
X145238095Y-108124819D01*
X145523809Y-108124819D02*
X145523809Y-107124819D01*
X145523809Y-107124819D02*
X145428571Y-107267676D01*
X145428571Y-107267676D02*
X145333333Y-107362914D01*
X145333333Y-107362914D02*
X145238095Y-107410533D01*
X146190476Y-107220057D02*
X146238095Y-107172438D01*
X146238095Y-107172438D02*
X146333333Y-107124819D01*
X146333333Y-107124819D02*
X146571428Y-107124819D01*
X146571428Y-107124819D02*
X146666666Y-107172438D01*
X146666666Y-107172438D02*
X146714285Y-107220057D01*
X146714285Y-107220057D02*
X146761904Y-107315295D01*
X146761904Y-107315295D02*
X146761904Y-107410533D01*
X146761904Y-107410533D02*
X146714285Y-107553390D01*
X146714285Y-107553390D02*
X146142857Y-108124819D01*
X146142857Y-108124819D02*
X146761904Y-108124819D01*
X128261905Y-124524819D02*
X128261905Y-123524819D01*
X128261905Y-123524819D02*
X128500000Y-123524819D01*
X128500000Y-123524819D02*
X128642857Y-123572438D01*
X128642857Y-123572438D02*
X128738095Y-123667676D01*
X128738095Y-123667676D02*
X128785714Y-123762914D01*
X128785714Y-123762914D02*
X128833333Y-123953390D01*
X128833333Y-123953390D02*
X128833333Y-124096247D01*
X128833333Y-124096247D02*
X128785714Y-124286723D01*
X128785714Y-124286723D02*
X128738095Y-124381961D01*
X128738095Y-124381961D02*
X128642857Y-124477200D01*
X128642857Y-124477200D02*
X128500000Y-124524819D01*
X128500000Y-124524819D02*
X128261905Y-124524819D01*
X129166667Y-123524819D02*
X129833333Y-123524819D01*
X129833333Y-123524819D02*
X129404762Y-124524819D01*
X144774405Y-141024819D02*
X144774405Y-140024819D01*
X144774405Y-140024819D02*
X145012500Y-140024819D01*
X145012500Y-140024819D02*
X145155357Y-140072438D01*
X145155357Y-140072438D02*
X145250595Y-140167676D01*
X145250595Y-140167676D02*
X145298214Y-140262914D01*
X145298214Y-140262914D02*
X145345833Y-140453390D01*
X145345833Y-140453390D02*
X145345833Y-140596247D01*
X145345833Y-140596247D02*
X145298214Y-140786723D01*
X145298214Y-140786723D02*
X145250595Y-140881961D01*
X145250595Y-140881961D02*
X145155357Y-140977200D01*
X145155357Y-140977200D02*
X145012500Y-141024819D01*
X145012500Y-141024819D02*
X144774405Y-141024819D01*
X145679167Y-140024819D02*
X146298214Y-140024819D01*
X146298214Y-140024819D02*
X145964881Y-140405771D01*
X145964881Y-140405771D02*
X146107738Y-140405771D01*
X146107738Y-140405771D02*
X146202976Y-140453390D01*
X146202976Y-140453390D02*
X146250595Y-140501009D01*
X146250595Y-140501009D02*
X146298214Y-140596247D01*
X146298214Y-140596247D02*
X146298214Y-140834342D01*
X146298214Y-140834342D02*
X146250595Y-140929580D01*
X146250595Y-140929580D02*
X146202976Y-140977200D01*
X146202976Y-140977200D02*
X146107738Y-141024819D01*
X146107738Y-141024819D02*
X145822024Y-141024819D01*
X145822024Y-141024819D02*
X145726786Y-140977200D01*
X145726786Y-140977200D02*
X145679167Y-140929580D01*
X136324819Y-55133333D02*
X137039104Y-55133333D01*
X137039104Y-55133333D02*
X137181961Y-55180952D01*
X137181961Y-55180952D02*
X137277200Y-55276190D01*
X137277200Y-55276190D02*
X137324819Y-55419047D01*
X137324819Y-55419047D02*
X137324819Y-55514285D01*
X137324819Y-54133333D02*
X137324819Y-54704761D01*
X137324819Y-54419047D02*
X136324819Y-54419047D01*
X136324819Y-54419047D02*
X136467676Y-54514285D01*
X136467676Y-54514285D02*
X136562914Y-54609523D01*
X136562914Y-54609523D02*
X136610533Y-54704761D01*
X141903333Y-55209580D02*
X141855714Y-55257200D01*
X141855714Y-55257200D02*
X141712857Y-55304819D01*
X141712857Y-55304819D02*
X141617619Y-55304819D01*
X141617619Y-55304819D02*
X141474762Y-55257200D01*
X141474762Y-55257200D02*
X141379524Y-55161961D01*
X141379524Y-55161961D02*
X141331905Y-55066723D01*
X141331905Y-55066723D02*
X141284286Y-54876247D01*
X141284286Y-54876247D02*
X141284286Y-54733390D01*
X141284286Y-54733390D02*
X141331905Y-54542914D01*
X141331905Y-54542914D02*
X141379524Y-54447676D01*
X141379524Y-54447676D02*
X141474762Y-54352438D01*
X141474762Y-54352438D02*
X141617619Y-54304819D01*
X141617619Y-54304819D02*
X141712857Y-54304819D01*
X141712857Y-54304819D02*
X141855714Y-54352438D01*
X141855714Y-54352438D02*
X141903333Y-54400057D01*
X142284286Y-54400057D02*
X142331905Y-54352438D01*
X142331905Y-54352438D02*
X142427143Y-54304819D01*
X142427143Y-54304819D02*
X142665238Y-54304819D01*
X142665238Y-54304819D02*
X142760476Y-54352438D01*
X142760476Y-54352438D02*
X142808095Y-54400057D01*
X142808095Y-54400057D02*
X142855714Y-54495295D01*
X142855714Y-54495295D02*
X142855714Y-54590533D01*
X142855714Y-54590533D02*
X142808095Y-54733390D01*
X142808095Y-54733390D02*
X142236667Y-55304819D01*
X142236667Y-55304819D02*
X142855714Y-55304819D01*
X160798214Y-108124819D02*
X160798214Y-107124819D01*
X160798214Y-107124819D02*
X161036309Y-107124819D01*
X161036309Y-107124819D02*
X161179166Y-107172438D01*
X161179166Y-107172438D02*
X161274404Y-107267676D01*
X161274404Y-107267676D02*
X161322023Y-107362914D01*
X161322023Y-107362914D02*
X161369642Y-107553390D01*
X161369642Y-107553390D02*
X161369642Y-107696247D01*
X161369642Y-107696247D02*
X161322023Y-107886723D01*
X161322023Y-107886723D02*
X161274404Y-107981961D01*
X161274404Y-107981961D02*
X161179166Y-108077200D01*
X161179166Y-108077200D02*
X161036309Y-108124819D01*
X161036309Y-108124819D02*
X160798214Y-108124819D01*
X162322023Y-108124819D02*
X161750595Y-108124819D01*
X162036309Y-108124819D02*
X162036309Y-107124819D01*
X162036309Y-107124819D02*
X161941071Y-107267676D01*
X161941071Y-107267676D02*
X161845833Y-107362914D01*
X161845833Y-107362914D02*
X161750595Y-107410533D01*
X162941071Y-107124819D02*
X163036309Y-107124819D01*
X163036309Y-107124819D02*
X163131547Y-107172438D01*
X163131547Y-107172438D02*
X163179166Y-107220057D01*
X163179166Y-107220057D02*
X163226785Y-107315295D01*
X163226785Y-107315295D02*
X163274404Y-107505771D01*
X163274404Y-107505771D02*
X163274404Y-107743866D01*
X163274404Y-107743866D02*
X163226785Y-107934342D01*
X163226785Y-107934342D02*
X163179166Y-108029580D01*
X163179166Y-108029580D02*
X163131547Y-108077200D01*
X163131547Y-108077200D02*
X163036309Y-108124819D01*
X163036309Y-108124819D02*
X162941071Y-108124819D01*
X162941071Y-108124819D02*
X162845833Y-108077200D01*
X162845833Y-108077200D02*
X162798214Y-108029580D01*
X162798214Y-108029580D02*
X162750595Y-107934342D01*
X162750595Y-107934342D02*
X162702976Y-107743866D01*
X162702976Y-107743866D02*
X162702976Y-107505771D01*
X162702976Y-107505771D02*
X162750595Y-107315295D01*
X162750595Y-107315295D02*
X162798214Y-107220057D01*
X162798214Y-107220057D02*
X162845833Y-107172438D01*
X162845833Y-107172438D02*
X162941071Y-107124819D01*
X154888095Y-59994819D02*
X154888095Y-60804342D01*
X154888095Y-60804342D02*
X154935714Y-60899580D01*
X154935714Y-60899580D02*
X154983333Y-60947200D01*
X154983333Y-60947200D02*
X155078571Y-60994819D01*
X155078571Y-60994819D02*
X155269047Y-60994819D01*
X155269047Y-60994819D02*
X155364285Y-60947200D01*
X155364285Y-60947200D02*
X155411904Y-60899580D01*
X155411904Y-60899580D02*
X155459523Y-60804342D01*
X155459523Y-60804342D02*
X155459523Y-59994819D01*
X155888095Y-60090057D02*
X155935714Y-60042438D01*
X155935714Y-60042438D02*
X156030952Y-59994819D01*
X156030952Y-59994819D02*
X156269047Y-59994819D01*
X156269047Y-59994819D02*
X156364285Y-60042438D01*
X156364285Y-60042438D02*
X156411904Y-60090057D01*
X156411904Y-60090057D02*
X156459523Y-60185295D01*
X156459523Y-60185295D02*
X156459523Y-60280533D01*
X156459523Y-60280533D02*
X156411904Y-60423390D01*
X156411904Y-60423390D02*
X155840476Y-60994819D01*
X155840476Y-60994819D02*
X156459523Y-60994819D01*
X161274405Y-141024819D02*
X161274405Y-140024819D01*
X161274405Y-140024819D02*
X161512500Y-140024819D01*
X161512500Y-140024819D02*
X161655357Y-140072438D01*
X161655357Y-140072438D02*
X161750595Y-140167676D01*
X161750595Y-140167676D02*
X161798214Y-140262914D01*
X161798214Y-140262914D02*
X161845833Y-140453390D01*
X161845833Y-140453390D02*
X161845833Y-140596247D01*
X161845833Y-140596247D02*
X161798214Y-140786723D01*
X161798214Y-140786723D02*
X161750595Y-140881961D01*
X161750595Y-140881961D02*
X161655357Y-140977200D01*
X161655357Y-140977200D02*
X161512500Y-141024819D01*
X161512500Y-141024819D02*
X161274405Y-141024819D01*
X162702976Y-140358152D02*
X162702976Y-141024819D01*
X162464881Y-139977200D02*
X162226786Y-140691485D01*
X162226786Y-140691485D02*
X162845833Y-140691485D01*
X161261905Y-124524819D02*
X161261905Y-123524819D01*
X161261905Y-123524819D02*
X161500000Y-123524819D01*
X161500000Y-123524819D02*
X161642857Y-123572438D01*
X161642857Y-123572438D02*
X161738095Y-123667676D01*
X161738095Y-123667676D02*
X161785714Y-123762914D01*
X161785714Y-123762914D02*
X161833333Y-123953390D01*
X161833333Y-123953390D02*
X161833333Y-124096247D01*
X161833333Y-124096247D02*
X161785714Y-124286723D01*
X161785714Y-124286723D02*
X161738095Y-124381961D01*
X161738095Y-124381961D02*
X161642857Y-124477200D01*
X161642857Y-124477200D02*
X161500000Y-124524819D01*
X161500000Y-124524819D02*
X161261905Y-124524819D01*
X162738095Y-123524819D02*
X162261905Y-123524819D01*
X162261905Y-123524819D02*
X162214286Y-124001009D01*
X162214286Y-124001009D02*
X162261905Y-123953390D01*
X162261905Y-123953390D02*
X162357143Y-123905771D01*
X162357143Y-123905771D02*
X162595238Y-123905771D01*
X162595238Y-123905771D02*
X162690476Y-123953390D01*
X162690476Y-123953390D02*
X162738095Y-124001009D01*
X162738095Y-124001009D02*
X162785714Y-124096247D01*
X162785714Y-124096247D02*
X162785714Y-124334342D01*
X162785714Y-124334342D02*
X162738095Y-124429580D01*
X162738095Y-124429580D02*
X162690476Y-124477200D01*
X162690476Y-124477200D02*
X162595238Y-124524819D01*
X162595238Y-124524819D02*
X162357143Y-124524819D01*
X162357143Y-124524819D02*
X162261905Y-124477200D01*
X162261905Y-124477200D02*
X162214286Y-124429580D01*
X111761905Y-124524819D02*
X111761905Y-123524819D01*
X111761905Y-123524819D02*
X112000000Y-123524819D01*
X112000000Y-123524819D02*
X112142857Y-123572438D01*
X112142857Y-123572438D02*
X112238095Y-123667676D01*
X112238095Y-123667676D02*
X112285714Y-123762914D01*
X112285714Y-123762914D02*
X112333333Y-123953390D01*
X112333333Y-123953390D02*
X112333333Y-124096247D01*
X112333333Y-124096247D02*
X112285714Y-124286723D01*
X112285714Y-124286723D02*
X112238095Y-124381961D01*
X112238095Y-124381961D02*
X112142857Y-124477200D01*
X112142857Y-124477200D02*
X112000000Y-124524819D01*
X112000000Y-124524819D02*
X111761905Y-124524819D01*
X112904762Y-123953390D02*
X112809524Y-123905771D01*
X112809524Y-123905771D02*
X112761905Y-123858152D01*
X112761905Y-123858152D02*
X112714286Y-123762914D01*
X112714286Y-123762914D02*
X112714286Y-123715295D01*
X112714286Y-123715295D02*
X112761905Y-123620057D01*
X112761905Y-123620057D02*
X112809524Y-123572438D01*
X112809524Y-123572438D02*
X112904762Y-123524819D01*
X112904762Y-123524819D02*
X113095238Y-123524819D01*
X113095238Y-123524819D02*
X113190476Y-123572438D01*
X113190476Y-123572438D02*
X113238095Y-123620057D01*
X113238095Y-123620057D02*
X113285714Y-123715295D01*
X113285714Y-123715295D02*
X113285714Y-123762914D01*
X113285714Y-123762914D02*
X113238095Y-123858152D01*
X113238095Y-123858152D02*
X113190476Y-123905771D01*
X113190476Y-123905771D02*
X113095238Y-123953390D01*
X113095238Y-123953390D02*
X112904762Y-123953390D01*
X112904762Y-123953390D02*
X112809524Y-124001009D01*
X112809524Y-124001009D02*
X112761905Y-124048628D01*
X112761905Y-124048628D02*
X112714286Y-124143866D01*
X112714286Y-124143866D02*
X112714286Y-124334342D01*
X112714286Y-124334342D02*
X112761905Y-124429580D01*
X112761905Y-124429580D02*
X112809524Y-124477200D01*
X112809524Y-124477200D02*
X112904762Y-124524819D01*
X112904762Y-124524819D02*
X113095238Y-124524819D01*
X113095238Y-124524819D02*
X113190476Y-124477200D01*
X113190476Y-124477200D02*
X113238095Y-124429580D01*
X113238095Y-124429580D02*
X113285714Y-124334342D01*
X113285714Y-124334342D02*
X113285714Y-124143866D01*
X113285714Y-124143866D02*
X113238095Y-124048628D01*
X113238095Y-124048628D02*
X113190476Y-124001009D01*
X113190476Y-124001009D02*
X113095238Y-123953390D01*
X110815714Y-68514819D02*
X110815714Y-67514819D01*
X110815714Y-67514819D02*
X111053809Y-67514819D01*
X111053809Y-67514819D02*
X111196666Y-67562438D01*
X111196666Y-67562438D02*
X111291904Y-67657676D01*
X111291904Y-67657676D02*
X111339523Y-67752914D01*
X111339523Y-67752914D02*
X111387142Y-67943390D01*
X111387142Y-67943390D02*
X111387142Y-68086247D01*
X111387142Y-68086247D02*
X111339523Y-68276723D01*
X111339523Y-68276723D02*
X111291904Y-68371961D01*
X111291904Y-68371961D02*
X111196666Y-68467200D01*
X111196666Y-68467200D02*
X111053809Y-68514819D01*
X111053809Y-68514819D02*
X110815714Y-68514819D01*
X111768095Y-67610057D02*
X111815714Y-67562438D01*
X111815714Y-67562438D02*
X111910952Y-67514819D01*
X111910952Y-67514819D02*
X112149047Y-67514819D01*
X112149047Y-67514819D02*
X112244285Y-67562438D01*
X112244285Y-67562438D02*
X112291904Y-67610057D01*
X112291904Y-67610057D02*
X112339523Y-67705295D01*
X112339523Y-67705295D02*
X112339523Y-67800533D01*
X112339523Y-67800533D02*
X112291904Y-67943390D01*
X112291904Y-67943390D02*
X111720476Y-68514819D01*
X111720476Y-68514819D02*
X112339523Y-68514819D01*
X113291904Y-68514819D02*
X112720476Y-68514819D01*
X113006190Y-68514819D02*
X113006190Y-67514819D01*
X113006190Y-67514819D02*
X112910952Y-67657676D01*
X112910952Y-67657676D02*
X112815714Y-67752914D01*
X112815714Y-67752914D02*
X112720476Y-67800533D01*
X128349405Y-141024819D02*
X128349405Y-140024819D01*
X128349405Y-140024819D02*
X128587500Y-140024819D01*
X128587500Y-140024819D02*
X128730357Y-140072438D01*
X128730357Y-140072438D02*
X128825595Y-140167676D01*
X128825595Y-140167676D02*
X128873214Y-140262914D01*
X128873214Y-140262914D02*
X128920833Y-140453390D01*
X128920833Y-140453390D02*
X128920833Y-140596247D01*
X128920833Y-140596247D02*
X128873214Y-140786723D01*
X128873214Y-140786723D02*
X128825595Y-140881961D01*
X128825595Y-140881961D02*
X128730357Y-140977200D01*
X128730357Y-140977200D02*
X128587500Y-141024819D01*
X128587500Y-141024819D02*
X128349405Y-141024819D01*
X129301786Y-140120057D02*
X129349405Y-140072438D01*
X129349405Y-140072438D02*
X129444643Y-140024819D01*
X129444643Y-140024819D02*
X129682738Y-140024819D01*
X129682738Y-140024819D02*
X129777976Y-140072438D01*
X129777976Y-140072438D02*
X129825595Y-140120057D01*
X129825595Y-140120057D02*
X129873214Y-140215295D01*
X129873214Y-140215295D02*
X129873214Y-140310533D01*
X129873214Y-140310533D02*
X129825595Y-140453390D01*
X129825595Y-140453390D02*
X129254167Y-141024819D01*
X129254167Y-141024819D02*
X129873214Y-141024819D01*
X144761905Y-124524819D02*
X144761905Y-123524819D01*
X144761905Y-123524819D02*
X145000000Y-123524819D01*
X145000000Y-123524819D02*
X145142857Y-123572438D01*
X145142857Y-123572438D02*
X145238095Y-123667676D01*
X145238095Y-123667676D02*
X145285714Y-123762914D01*
X145285714Y-123762914D02*
X145333333Y-123953390D01*
X145333333Y-123953390D02*
X145333333Y-124096247D01*
X145333333Y-124096247D02*
X145285714Y-124286723D01*
X145285714Y-124286723D02*
X145238095Y-124381961D01*
X145238095Y-124381961D02*
X145142857Y-124477200D01*
X145142857Y-124477200D02*
X145000000Y-124524819D01*
X145000000Y-124524819D02*
X144761905Y-124524819D01*
X146190476Y-123524819D02*
X146000000Y-123524819D01*
X146000000Y-123524819D02*
X145904762Y-123572438D01*
X145904762Y-123572438D02*
X145857143Y-123620057D01*
X145857143Y-123620057D02*
X145761905Y-123762914D01*
X145761905Y-123762914D02*
X145714286Y-123953390D01*
X145714286Y-123953390D02*
X145714286Y-124334342D01*
X145714286Y-124334342D02*
X145761905Y-124429580D01*
X145761905Y-124429580D02*
X145809524Y-124477200D01*
X145809524Y-124477200D02*
X145904762Y-124524819D01*
X145904762Y-124524819D02*
X146095238Y-124524819D01*
X146095238Y-124524819D02*
X146190476Y-124477200D01*
X146190476Y-124477200D02*
X146238095Y-124429580D01*
X146238095Y-124429580D02*
X146285714Y-124334342D01*
X146285714Y-124334342D02*
X146285714Y-124096247D01*
X146285714Y-124096247D02*
X146238095Y-124001009D01*
X146238095Y-124001009D02*
X146190476Y-123953390D01*
X146190476Y-123953390D02*
X146095238Y-123905771D01*
X146095238Y-123905771D02*
X145904762Y-123905771D01*
X145904762Y-123905771D02*
X145809524Y-123953390D01*
X145809524Y-123953390D02*
X145761905Y-124001009D01*
X145761905Y-124001009D02*
X145714286Y-124096247D01*
X154968095Y-73164819D02*
X154968095Y-73974342D01*
X154968095Y-73974342D02*
X155015714Y-74069580D01*
X155015714Y-74069580D02*
X155063333Y-74117200D01*
X155063333Y-74117200D02*
X155158571Y-74164819D01*
X155158571Y-74164819D02*
X155349047Y-74164819D01*
X155349047Y-74164819D02*
X155444285Y-74117200D01*
X155444285Y-74117200D02*
X155491904Y-74069580D01*
X155491904Y-74069580D02*
X155539523Y-73974342D01*
X155539523Y-73974342D02*
X155539523Y-73164819D01*
X156539523Y-74164819D02*
X155968095Y-74164819D01*
X156253809Y-74164819D02*
X156253809Y-73164819D01*
X156253809Y-73164819D02*
X156158571Y-73307676D01*
X156158571Y-73307676D02*
X156063333Y-73402914D01*
X156063333Y-73402914D02*
X155968095Y-73450533D01*
%TO.C,SW15*%
D11*
X154400000Y-113300000D02*
X169400000Y-113300000D01*
X169400000Y-128300000D01*
X154400000Y-128300000D01*
X154400000Y-113300000D01*
X159400000Y-123900000D02*
X164400000Y-123900000D01*
X164400000Y-127100000D01*
X159400000Y-127100000D01*
X159400000Y-123900000D01*
%TO.C,SW4*%
X154400000Y-80500000D02*
X169400000Y-80500000D01*
X169400000Y-95500000D01*
X154400000Y-95500000D01*
X154400000Y-80500000D01*
X159400000Y-91100000D02*
X164400000Y-91100000D01*
X164400000Y-94300000D01*
X159400000Y-94300000D01*
X159400000Y-91100000D01*
D12*
%TO.C,D16*%
X111015000Y-108365000D02*
X111015000Y-109835000D01*
X111015000Y-109835000D02*
X113300000Y-109835000D01*
X113300000Y-108365000D02*
X111015000Y-108365000D01*
%TO.C,SW3*%
D11*
X137900000Y-80500000D02*
X152900000Y-80500000D01*
X152900000Y-95500000D01*
X137900000Y-95500000D01*
X137900000Y-80500000D01*
X142900000Y-91100000D02*
X147900000Y-91100000D01*
X147900000Y-94300000D01*
X142900000Y-94300000D01*
X142900000Y-91100000D01*
%TO.C,SW10*%
X105000000Y-129700000D02*
X120000000Y-129700000D01*
X120000000Y-144700000D01*
X105000000Y-144700000D01*
X105000000Y-129700000D01*
X110000000Y-140300000D02*
X115000000Y-140300000D01*
X115000000Y-143500000D01*
X110000000Y-143500000D01*
X110000000Y-140300000D01*
D12*
%TO.C,D1*%
X111027500Y-141365000D02*
X111027500Y-142835000D01*
X111027500Y-142835000D02*
X113312500Y-142835000D01*
X113312500Y-141365000D02*
X111027500Y-141365000D01*
%TO.C,D11*%
X144027500Y-91965000D02*
X144027500Y-93435000D01*
X144027500Y-93435000D02*
X146312500Y-93435000D01*
X146312500Y-91965000D02*
X144027500Y-91965000D01*
%TO.C,SW12*%
D11*
X121500000Y-129700000D02*
X136500000Y-129700000D01*
X136500000Y-144700000D01*
X121500000Y-144700000D01*
X121500000Y-129700000D01*
X126500000Y-140300000D02*
X131500000Y-140300000D01*
X131500000Y-143500000D01*
X126500000Y-143500000D01*
X126500000Y-140300000D01*
D12*
%TO.C,C4*%
X111260000Y-58571000D02*
X108283000Y-58571000D01*
X111260000Y-58611000D02*
X108290000Y-58611000D01*
X111260000Y-58651000D02*
X108298000Y-58651000D01*
X111260000Y-58691000D02*
X108306000Y-58691000D01*
X111260000Y-58731000D02*
X108315000Y-58731000D01*
X111260000Y-58771000D02*
X108324000Y-58771000D01*
X111260000Y-58811000D02*
X108333000Y-58811000D01*
X111260000Y-58851000D02*
X108343000Y-58851000D01*
X111260000Y-58891000D02*
X108353000Y-58891000D01*
X111260000Y-58931000D02*
X108364000Y-58931000D01*
X111260000Y-58971000D02*
X108375000Y-58971000D01*
X111260000Y-59011000D02*
X108386000Y-59011000D01*
X111260000Y-59051000D02*
X108398000Y-59051000D01*
X111260000Y-59091000D02*
X108411000Y-59091000D01*
X111260000Y-59131000D02*
X108423000Y-59131000D01*
X111260000Y-59171000D02*
X108437000Y-59171000D01*
X111260000Y-59211000D02*
X108450000Y-59211000D01*
X111260000Y-59251000D02*
X108465000Y-59251000D01*
X111260000Y-59291000D02*
X108479000Y-59291000D01*
X111260000Y-59331000D02*
X108495000Y-59331000D01*
X111260000Y-59371000D02*
X108510000Y-59371000D01*
X111260000Y-59411000D02*
X108526000Y-59411000D01*
X111260000Y-59451000D02*
X108543000Y-59451000D01*
X111260000Y-59491000D02*
X108560000Y-59491000D01*
X111260000Y-59531000D02*
X108578000Y-59531000D01*
X111260000Y-59571000D02*
X108596000Y-59571000D01*
X111260000Y-59611000D02*
X108614000Y-59611000D01*
X111260000Y-59651000D02*
X108634000Y-59651000D01*
X111260000Y-59691000D02*
X108653000Y-59691000D01*
X111260000Y-59731000D02*
X108673000Y-59731000D01*
X111260000Y-59771000D02*
X108694000Y-59771000D01*
X111260000Y-59811000D02*
X108716000Y-59811000D01*
X111260000Y-59851000D02*
X108738000Y-59851000D01*
X111260000Y-59891000D02*
X108760000Y-59891000D01*
X111260000Y-59931000D02*
X108783000Y-59931000D01*
X111260000Y-59971000D02*
X108807000Y-59971000D01*
X111260000Y-60011000D02*
X108831000Y-60011000D01*
X111260000Y-60051000D02*
X108856000Y-60051000D01*
X111260000Y-60091000D02*
X108882000Y-60091000D01*
X111260000Y-60131000D02*
X108908000Y-60131000D01*
X111260000Y-60171000D02*
X108935000Y-60171000D01*
X111260000Y-60211000D02*
X108962000Y-60211000D01*
X111260000Y-60251000D02*
X108991000Y-60251000D01*
X111260000Y-60291000D02*
X109020000Y-60291000D01*
X111260000Y-60331000D02*
X109050000Y-60331000D01*
X111260000Y-60371000D02*
X109080000Y-60371000D01*
X111260000Y-60411000D02*
X109111000Y-60411000D01*
X111260000Y-60451000D02*
X109144000Y-60451000D01*
X111260000Y-60491000D02*
X109176000Y-60491000D01*
X111260000Y-60531000D02*
X109210000Y-60531000D01*
X111260000Y-60571000D02*
X109245000Y-60571000D01*
X111260000Y-60611000D02*
X109281000Y-60611000D01*
X112833000Y-61931000D02*
X111767000Y-61931000D01*
X113068000Y-61891000D02*
X111532000Y-61891000D01*
X113248000Y-61851000D02*
X111352000Y-61851000D01*
X113398000Y-61811000D02*
X111202000Y-61811000D01*
X113529000Y-61771000D02*
X111071000Y-61771000D01*
X113646000Y-61731000D02*
X110954000Y-61731000D01*
X113753000Y-61691000D02*
X110847000Y-61691000D01*
X113852000Y-61651000D02*
X110748000Y-61651000D01*
X113945000Y-61611000D02*
X110655000Y-61611000D01*
X114031000Y-61571000D02*
X110569000Y-61571000D01*
X114113000Y-61531000D02*
X110487000Y-61531000D01*
X114190000Y-61491000D02*
X110410000Y-61491000D01*
X114264000Y-61451000D02*
X110336000Y-61451000D01*
X114334000Y-61411000D02*
X110266000Y-61411000D01*
X114402000Y-61371000D02*
X110198000Y-61371000D01*
X114466000Y-61331000D02*
X110134000Y-61331000D01*
X114528000Y-61291000D02*
X110072000Y-61291000D01*
X114587000Y-61251000D02*
X110013000Y-61251000D01*
X114615000Y-53440302D02*
X114615000Y-54240302D01*
X114645000Y-61211000D02*
X109955000Y-61211000D01*
X114700000Y-61171000D02*
X109900000Y-61171000D01*
X114754000Y-61131000D02*
X109846000Y-61131000D01*
X114805000Y-61091000D02*
X109795000Y-61091000D01*
X114856000Y-61051000D02*
X109744000Y-61051000D01*
X114904000Y-61011000D02*
X109696000Y-61011000D01*
X114951000Y-60971000D02*
X109649000Y-60971000D01*
X114997000Y-60931000D02*
X109603000Y-60931000D01*
X115015000Y-53840302D02*
X114215000Y-53840302D01*
X115041000Y-60891000D02*
X109559000Y-60891000D01*
X115084000Y-60851000D02*
X109516000Y-60851000D01*
X115126000Y-60811000D02*
X109474000Y-60811000D01*
X115167000Y-60771000D02*
X109433000Y-60771000D01*
X115207000Y-60731000D02*
X109393000Y-60731000D01*
X115245000Y-60691000D02*
X109355000Y-60691000D01*
X115283000Y-60651000D02*
X109317000Y-60651000D01*
X115319000Y-60611000D02*
X113340000Y-60611000D01*
X115355000Y-60571000D02*
X113340000Y-60571000D01*
X115390000Y-60531000D02*
X113340000Y-60531000D01*
X115424000Y-60491000D02*
X113340000Y-60491000D01*
X115456000Y-60451000D02*
X113340000Y-60451000D01*
X115489000Y-60411000D02*
X113340000Y-60411000D01*
X115520000Y-60371000D02*
X113340000Y-60371000D01*
X115550000Y-60331000D02*
X113340000Y-60331000D01*
X115580000Y-60291000D02*
X113340000Y-60291000D01*
X115609000Y-60251000D02*
X113340000Y-60251000D01*
X115638000Y-60211000D02*
X113340000Y-60211000D01*
X115665000Y-60171000D02*
X113340000Y-60171000D01*
X115692000Y-60131000D02*
X113340000Y-60131000D01*
X115718000Y-60091000D02*
X113340000Y-60091000D01*
X115744000Y-60051000D02*
X113340000Y-60051000D01*
X115769000Y-60011000D02*
X113340000Y-60011000D01*
X115793000Y-59971000D02*
X113340000Y-59971000D01*
X115817000Y-59931000D02*
X113340000Y-59931000D01*
X115840000Y-59891000D02*
X113340000Y-59891000D01*
X115862000Y-59851000D02*
X113340000Y-59851000D01*
X115884000Y-59811000D02*
X113340000Y-59811000D01*
X115906000Y-59771000D02*
X113340000Y-59771000D01*
X115927000Y-59731000D02*
X113340000Y-59731000D01*
X115947000Y-59691000D02*
X113340000Y-59691000D01*
X115966000Y-59651000D02*
X113340000Y-59651000D01*
X115986000Y-59611000D02*
X113340000Y-59611000D01*
X116004000Y-59571000D02*
X113340000Y-59571000D01*
X116022000Y-59531000D02*
X113340000Y-59531000D01*
X116040000Y-59491000D02*
X113340000Y-59491000D01*
X116057000Y-59451000D02*
X113340000Y-59451000D01*
X116074000Y-59411000D02*
X113340000Y-59411000D01*
X116090000Y-59371000D02*
X113340000Y-59371000D01*
X116105000Y-59331000D02*
X113340000Y-59331000D01*
X116121000Y-59291000D02*
X113340000Y-59291000D01*
X116135000Y-59251000D02*
X113340000Y-59251000D01*
X116150000Y-59211000D02*
X113340000Y-59211000D01*
X116163000Y-59171000D02*
X113340000Y-59171000D01*
X116177000Y-59131000D02*
X113340000Y-59131000D01*
X116189000Y-59091000D02*
X113340000Y-59091000D01*
X116202000Y-59051000D02*
X113340000Y-59051000D01*
X116214000Y-59011000D02*
X113340000Y-59011000D01*
X116225000Y-58971000D02*
X113340000Y-58971000D01*
X116236000Y-58931000D02*
X113340000Y-58931000D01*
X116247000Y-58891000D02*
X113340000Y-58891000D01*
X116257000Y-58851000D02*
X113340000Y-58851000D01*
X116267000Y-58811000D02*
X113340000Y-58811000D01*
X116276000Y-58771000D02*
X113340000Y-58771000D01*
X116285000Y-58731000D02*
X113340000Y-58731000D01*
X116294000Y-58691000D02*
X113340000Y-58691000D01*
X116302000Y-58651000D02*
X113340000Y-58651000D01*
X116310000Y-58611000D02*
X113340000Y-58611000D01*
X116317000Y-58571000D02*
X113340000Y-58571000D01*
X116324000Y-58530000D02*
X108276000Y-58530000D01*
X116330000Y-58490000D02*
X108270000Y-58490000D01*
X116337000Y-58450000D02*
X108263000Y-58450000D01*
X116342000Y-58410000D02*
X108258000Y-58410000D01*
X116348000Y-58370000D02*
X108252000Y-58370000D01*
X116352000Y-58330000D02*
X108248000Y-58330000D01*
X116357000Y-58290000D02*
X108243000Y-58290000D01*
X116361000Y-58250000D02*
X108239000Y-58250000D01*
X116365000Y-58210000D02*
X108235000Y-58210000D01*
X116368000Y-58170000D02*
X108232000Y-58170000D01*
X116371000Y-58130000D02*
X108229000Y-58130000D01*
X116374000Y-58090000D02*
X108226000Y-58090000D01*
X116376000Y-58050000D02*
X108224000Y-58050000D01*
X116377000Y-58010000D02*
X108223000Y-58010000D01*
X116379000Y-57970000D02*
X108221000Y-57970000D01*
X116380000Y-57850000D02*
X108220000Y-57850000D01*
X116380000Y-57890000D02*
X108220000Y-57890000D01*
X116380000Y-57930000D02*
X108220000Y-57930000D01*
X116420000Y-57850000D02*
G75*
G02*
X108180000Y-57850000I-4120000J0D01*
G01*
X108180000Y-57850000D02*
G75*
G02*
X116420000Y-57850000I4120000J0D01*
G01*
%TO.C,SW9*%
D11*
X105000000Y-113300000D02*
X120000000Y-113300000D01*
X120000000Y-128300000D01*
X105000000Y-128300000D01*
X105000000Y-113300000D01*
X110000000Y-123900000D02*
X115000000Y-123900000D01*
X115000000Y-127100000D01*
X110000000Y-127100000D01*
X110000000Y-123900000D01*
D12*
%TO.C,D13*%
X127527500Y-91965000D02*
X127527500Y-93435000D01*
X127527500Y-93435000D02*
X129812500Y-93435000D01*
X129812500Y-91965000D02*
X127527500Y-91965000D01*
%TO.C,R20*%
X125147500Y-58729758D02*
X125147500Y-58255242D01*
X126192500Y-58729758D02*
X126192500Y-58255242D01*
%TO.C,D17*%
X132575000Y-60745000D02*
X132575000Y-63030000D01*
X132575000Y-63030000D02*
X134045000Y-63030000D01*
X134045000Y-63030000D02*
X134045000Y-60745000D01*
%TO.C,D9*%
X160527500Y-91965000D02*
X160527500Y-93435000D01*
X160527500Y-93435000D02*
X162812500Y-93435000D01*
X162812500Y-91965000D02*
X160527500Y-91965000D01*
%TO.C,SW16*%
D11*
X154400000Y-129700000D02*
X169400000Y-129700000D01*
X169400000Y-144700000D01*
X154400000Y-144700000D01*
X154400000Y-129700000D01*
X159400000Y-140300000D02*
X164400000Y-140300000D01*
X164400000Y-143500000D01*
X159400000Y-143500000D01*
X159400000Y-140300000D01*
%TO.C,SW14*%
X137900000Y-129700000D02*
X152900000Y-129700000D01*
X152900000Y-144700000D01*
X137900000Y-144700000D01*
X137900000Y-129700000D01*
X142900000Y-140300000D02*
X147900000Y-140300000D01*
X147900000Y-143500000D01*
X142900000Y-143500000D01*
X142900000Y-140300000D01*
D12*
%TO.C,D14*%
X127502500Y-108465000D02*
X127502500Y-109935000D01*
X127502500Y-109935000D02*
X129787500Y-109935000D01*
X129787500Y-108465000D02*
X127502500Y-108465000D01*
%TO.C,D15*%
X111027500Y-91965000D02*
X111027500Y-93435000D01*
X111027500Y-93435000D02*
X113312500Y-93435000D01*
X113312500Y-91965000D02*
X111027500Y-91965000D01*
%TO.C,R21*%
X107417500Y-63327258D02*
X107417500Y-62852742D01*
X108462500Y-63327258D02*
X108462500Y-62852742D01*
%TO.C,C1*%
X144925580Y-67510000D02*
X144644420Y-67510000D01*
X144925580Y-68530000D02*
X144644420Y-68530000D01*
%TO.C,D12*%
X144015000Y-108365000D02*
X144015000Y-109835000D01*
X144015000Y-109835000D02*
X146300000Y-109835000D01*
X146300000Y-108365000D02*
X144015000Y-108365000D01*
%TO.C,SW7*%
D11*
X137900000Y-96900000D02*
X152900000Y-96900000D01*
X152900000Y-111900000D01*
X137900000Y-111900000D01*
X137900000Y-96900000D01*
X142900000Y-107500000D02*
X147900000Y-107500000D01*
X147900000Y-110700000D01*
X142900000Y-110700000D01*
X142900000Y-107500000D01*
%TO.C,SW8*%
X154400000Y-96900000D02*
X169400000Y-96900000D01*
X169400000Y-111900000D01*
X154400000Y-111900000D01*
X154400000Y-96900000D01*
X159400000Y-107500000D02*
X164400000Y-107500000D01*
X164400000Y-110700000D01*
X159400000Y-110700000D01*
X159400000Y-107500000D01*
D12*
%TO.C,D7*%
X127515000Y-124765000D02*
X127515000Y-126235000D01*
X127515000Y-126235000D02*
X129800000Y-126235000D01*
X129800000Y-124765000D02*
X127515000Y-124765000D01*
%TO.C,D18*%
X130015000Y-60720000D02*
X130015000Y-63005000D01*
X130015000Y-63005000D02*
X131485000Y-63005000D01*
X131485000Y-63005000D02*
X131485000Y-60720000D01*
%TO.C,SW6*%
D11*
X121500000Y-96900000D02*
X136500000Y-96900000D01*
X136500000Y-111900000D01*
X121500000Y-111900000D01*
X121500000Y-96900000D01*
X126500000Y-107500000D02*
X131500000Y-107500000D01*
X131500000Y-110700000D01*
X126500000Y-110700000D01*
X126500000Y-107500000D01*
D12*
%TO.C,D3*%
X144027500Y-141265000D02*
X144027500Y-142735000D01*
X144027500Y-142735000D02*
X146312500Y-142735000D01*
X146312500Y-141265000D02*
X144027500Y-141265000D01*
%TO.C,J1*%
X120510000Y-53470000D02*
X120510000Y-56130000D01*
X133270000Y-53470000D02*
X120510000Y-53470000D01*
X133270000Y-53470000D02*
X133270000Y-56130000D01*
X133270000Y-56130000D02*
X120510000Y-56130000D01*
X134540000Y-53470000D02*
X135870000Y-53470000D01*
X135870000Y-53470000D02*
X135870000Y-54800000D01*
%TO.C,R19*%
X127627500Y-58762258D02*
X127627500Y-58287742D01*
X128672500Y-58762258D02*
X128672500Y-58287742D01*
%TO.C,C2*%
X144875580Y-54250000D02*
X144594420Y-54250000D01*
X144875580Y-55270000D02*
X144594420Y-55270000D01*
%TO.C,SW1*%
D11*
X105000000Y-80500000D02*
X120000000Y-80500000D01*
X120000000Y-95500000D01*
X105000000Y-95500000D01*
X105000000Y-80500000D01*
X110000000Y-91100000D02*
X115000000Y-91100000D01*
X115000000Y-94300000D01*
X110000000Y-94300000D01*
X110000000Y-91100000D01*
D12*
%TO.C,D10*%
X160527500Y-108365000D02*
X160527500Y-109835000D01*
X160527500Y-109835000D02*
X162812500Y-109835000D01*
X162812500Y-108365000D02*
X160527500Y-108365000D01*
%TO.C,R18*%
X130227500Y-58737258D02*
X130227500Y-58262742D01*
X131272500Y-58737258D02*
X131272500Y-58262742D01*
%TO.C,SW2*%
D11*
X121500000Y-80500000D02*
X136500000Y-80500000D01*
X136500000Y-95500000D01*
X121500000Y-95500000D01*
X121500000Y-80500000D01*
X126500000Y-91100000D02*
X131500000Y-91100000D01*
X131500000Y-94300000D01*
X126500000Y-94300000D01*
X126500000Y-91100000D01*
%TO.C,SW11*%
X126500000Y-123900000D02*
X131500000Y-123900000D01*
X131500000Y-127100000D01*
X126500000Y-127100000D01*
X126500000Y-123900000D01*
X121500000Y-113300000D02*
X136500000Y-113300000D01*
X136500000Y-128300000D01*
X121500000Y-128300000D01*
X121500000Y-113300000D01*
%TO.C,SW13*%
X137900000Y-113300000D02*
X152900000Y-113300000D01*
X152900000Y-128300000D01*
X137900000Y-128300000D01*
X137900000Y-113300000D01*
X142900000Y-123900000D02*
X147900000Y-123900000D01*
X147900000Y-127100000D01*
X142900000Y-127100000D01*
X142900000Y-123900000D01*
D12*
%TO.C,U2*%
X145390000Y-58040000D02*
X145390000Y-59690000D01*
X145390000Y-61690000D02*
X145390000Y-63340000D01*
X145390000Y-63340000D02*
X165830000Y-63340000D01*
X165830000Y-58040000D02*
X145390000Y-58040000D01*
X165830000Y-63340000D02*
X165830000Y-58040000D01*
X145390000Y-59690000D02*
G75*
G02*
X145390000Y-61690000I0J-1000000D01*
G01*
%TO.C,R17*%
X132777500Y-58762258D02*
X132777500Y-58287742D01*
X133822500Y-58762258D02*
X133822500Y-58287742D01*
%TO.C,D4*%
X160527500Y-141265000D02*
X160527500Y-142735000D01*
X160527500Y-142735000D02*
X162812500Y-142735000D01*
X162812500Y-141265000D02*
X160527500Y-141265000D01*
%TO.C,D5*%
X160515000Y-124765000D02*
X160515000Y-126235000D01*
X160515000Y-126235000D02*
X162800000Y-126235000D01*
X162800000Y-124765000D02*
X160515000Y-124765000D01*
%TO.C,D20*%
X124915000Y-60712500D02*
X124915000Y-62997500D01*
X124915000Y-62997500D02*
X126385000Y-62997500D01*
X126385000Y-62997500D02*
X126385000Y-60712500D01*
%TO.C,D8*%
X111015000Y-124765000D02*
X111015000Y-126235000D01*
X111015000Y-126235000D02*
X113300000Y-126235000D01*
X113300000Y-124765000D02*
X111015000Y-124765000D01*
%TO.C,D21*%
X112220000Y-64940000D02*
X111150000Y-64940000D01*
X112220000Y-67060000D02*
X111150000Y-67060000D01*
%TO.C,SW5*%
D11*
X105000000Y-96900000D02*
X120000000Y-96900000D01*
X120000000Y-111900000D01*
X105000000Y-111900000D01*
X105000000Y-96900000D01*
X110000000Y-107500000D02*
X115000000Y-107500000D01*
X115000000Y-110700000D01*
X110000000Y-110700000D01*
X110000000Y-107500000D01*
D12*
%TO.C,D19*%
X127405000Y-60745000D02*
X127405000Y-63030000D01*
X127405000Y-63030000D02*
X128875000Y-63030000D01*
X128875000Y-63030000D02*
X128875000Y-60745000D01*
%TO.C,D2*%
X127602500Y-141265000D02*
X127602500Y-142735000D01*
X127602500Y-142735000D02*
X129887500Y-142735000D01*
X129887500Y-141265000D02*
X127602500Y-141265000D01*
%TO.C,D6*%
X144015000Y-124765000D02*
X144015000Y-126235000D01*
X144015000Y-126235000D02*
X146300000Y-126235000D01*
X146300000Y-124765000D02*
X144015000Y-124765000D01*
%TO.C,U1*%
X145390000Y-71260000D02*
X145390000Y-72910000D01*
X145390000Y-74910000D02*
X145390000Y-76560000D01*
X145390000Y-76560000D02*
X165830000Y-76560000D01*
X165830000Y-71260000D02*
X145390000Y-71260000D01*
X165830000Y-76560000D02*
X165830000Y-71260000D01*
X145390000Y-72910000D02*
G75*
G02*
X145390000Y-74910000I0J-1000000D01*
G01*
%TD*%
M02*
