%TF.GenerationSoftware,KiCad,Pcbnew,9.0.1*%
%TF.CreationDate,2025-04-29T19:20:24+09:00*%
%TF.ProjectId,ATtiny328P.kicad_pcb,41547469-6e79-4333-9238-502e6b696361,rev?*%
%TF.SameCoordinates,Original*%
%TF.FileFunction,Copper,L1,Top*%
%TF.FilePolarity,Positive*%
%FSLAX46Y46*%
G04 Gerber Fmt 4.6, Leading zero omitted, Abs format (unit mm)*
G04 Created by KiCad (PCBNEW 9.0.1) date 2025-04-29 19:20:24*
%MOMM*%
%LPD*%
G01*
G04 APERTURE LIST*
G04 Aperture macros list*
%AMRoundRect*
0 Rectangle with rounded corners*
0 $1 Rounding radius*
0 $2 $3 $4 $5 $6 $7 $8 $9 X,Y pos of 4 corners*
0 Add a 4 corners polygon primitive as box body*
4,1,4,$2,$3,$4,$5,$6,$7,$8,$9,$2,$3,0*
0 Add four circle primitives for the rounded corners*
1,1,$1+$1,$2,$3*
1,1,$1+$1,$4,$5*
1,1,$1+$1,$6,$7*
1,1,$1+$1,$8,$9*
0 Add four rect primitives between the rounded corners*
20,1,$1+$1,$2,$3,$4,$5,0*
20,1,$1+$1,$4,$5,$6,$7,0*
20,1,$1+$1,$6,$7,$8,$9,0*
20,1,$1+$1,$8,$9,$2,$3,0*%
%AMRotRect*
0 Rectangle, with rotation*
0 The origin of the aperture is its center*
0 $1 length*
0 $2 width*
0 $3 Rotation angle, in degrees counterclockwise*
0 Add horizontal line*
21,1,$1,$2,0,0,$3*%
G04 Aperture macros list end*
%TA.AperFunction,SMDPad,CuDef*%
%ADD10RoundRect,0.225000X-0.017678X0.335876X-0.335876X0.017678X0.017678X-0.335876X0.335876X-0.017678X0*%
%TD*%
%TA.AperFunction,ComponentPad*%
%ADD11RoundRect,0.250000X0.550000X-0.550000X0.550000X0.550000X-0.550000X0.550000X-0.550000X-0.550000X0*%
%TD*%
%TA.AperFunction,ComponentPad*%
%ADD12C,1.600000*%
%TD*%
%TA.AperFunction,SMDPad,CuDef*%
%ADD13RoundRect,0.237500X-0.287500X-0.237500X0.287500X-0.237500X0.287500X0.237500X-0.287500X0.237500X0*%
%TD*%
%TA.AperFunction,ComponentPad*%
%ADD14R,1.700000X1.700000*%
%TD*%
%TA.AperFunction,ComponentPad*%
%ADD15C,1.700000*%
%TD*%
%TA.AperFunction,SMDPad,CuDef*%
%ADD16RoundRect,0.150000X-0.425000X0.150000X-0.425000X-0.150000X0.425000X-0.150000X0.425000X0.150000X0*%
%TD*%
%TA.AperFunction,SMDPad,CuDef*%
%ADD17RoundRect,0.075000X-0.500000X0.075000X-0.500000X-0.075000X0.500000X-0.075000X0.500000X0.075000X0*%
%TD*%
%TA.AperFunction,HeatsinkPad*%
%ADD18O,2.100000X1.000000*%
%TD*%
%TA.AperFunction,HeatsinkPad*%
%ADD19O,1.800000X1.000000*%
%TD*%
%TA.AperFunction,SMDPad,CuDef*%
%ADD20R,0.650000X1.050000*%
%TD*%
%TA.AperFunction,SMDPad,CuDef*%
%ADD21RotRect,1.400000X1.200000X45.000000*%
%TD*%
%TA.AperFunction,SMDPad,CuDef*%
%ADD22RoundRect,0.237500X0.287500X0.237500X-0.287500X0.237500X-0.287500X-0.237500X0.287500X-0.237500X0*%
%TD*%
%TA.AperFunction,SMDPad,CuDef*%
%ADD23RotRect,1.600000X0.550000X315.000000*%
%TD*%
%TA.AperFunction,SMDPad,CuDef*%
%ADD24RotRect,1.600000X0.550000X45.000000*%
%TD*%
%TA.AperFunction,ViaPad*%
%ADD25C,0.600000*%
%TD*%
%TA.AperFunction,Conductor*%
%ADD26C,0.200000*%
%TD*%
G04 APERTURE END LIST*
D10*
%TO.P,C4,1*%
%TO.N,GND*%
X139116016Y-67663984D03*
%TO.P,C4,2*%
%TO.N,Net-(U1-XTAL1{slash}PB6)*%
X138020000Y-68760000D03*
%TD*%
D11*
%TO.P,J2,1,Pin_1*%
%TO.N,/PD7*%
X129790000Y-79270000D03*
D12*
%TO.P,J2,2,Pin_2*%
%TO.N,/PB0*%
X132330000Y-79270000D03*
%TO.P,J2,3,Pin_3*%
%TO.N,/PB1*%
X134870000Y-79270000D03*
%TO.P,J2,4,Pin_4*%
%TO.N,/PB2*%
X137410000Y-79270000D03*
%TO.P,J2,5,Pin_5*%
%TO.N,/PB3*%
X139950000Y-79270000D03*
%TO.P,J2,6,Pin_6*%
%TO.N,/PB4*%
X142490000Y-79270000D03*
%TO.P,J2,7,Pin_7*%
%TO.N,/PB5*%
X145030000Y-79270000D03*
%TO.P,J2,8,Pin_8*%
%TO.N,ADC6*%
X147570000Y-79270000D03*
%TO.P,J2,9,Pin_9*%
%TO.N,AREF*%
X150110000Y-79270000D03*
%TO.P,J2,10,Pin_10*%
%TO.N,ADC7*%
X152650000Y-79270000D03*
%TO.P,J2,11,Pin_11*%
%TO.N,/PC0*%
X155190000Y-79270000D03*
%TO.P,J2,12,Pin_12*%
%TO.N,/PC1*%
X157730000Y-79270000D03*
%TO.P,J2,13,Pin_13*%
%TO.N,/PC2*%
X157730000Y-64030000D03*
%TO.P,J2,14,Pin_14*%
%TO.N,/PC3*%
X155190000Y-64030000D03*
%TO.P,J2,15,Pin_15*%
%TO.N,/PC4*%
X152650000Y-64030000D03*
%TO.P,J2,16,Pin_16*%
%TO.N,/PC5*%
X150110000Y-64030000D03*
%TO.P,J2,17,Pin_17*%
%TO.N,PC6*%
X147570000Y-64030000D03*
%TO.P,J2,18,Pin_18*%
%TO.N,/PD2*%
X145030000Y-64030000D03*
%TO.P,J2,19,Pin_19*%
%TO.N,/PD3*%
X142490000Y-64030000D03*
%TO.P,J2,20,Pin_20*%
%TO.N,/PD4*%
X139950000Y-64030000D03*
%TO.P,J2,21,Pin_21*%
%TO.N,GND*%
X137410000Y-64030000D03*
%TO.P,J2,22,Pin_22*%
%TO.N,+5V*%
X134870000Y-64030000D03*
%TO.P,J2,23,Pin_23*%
%TO.N,/PD5*%
X132330000Y-64030000D03*
%TO.P,J2,24,Pin_24*%
%TO.N,/PD6*%
X129790000Y-64030000D03*
%TD*%
D13*
%TO.P,UPDI,1,K*%
%TO.N,GND*%
X151825000Y-67090000D03*
%TO.P,UPDI,2,A*%
%TO.N,Net-(D3-A)*%
X153575000Y-67090000D03*
%TD*%
D14*
%TO.P,J3,1,Pin_1*%
%TO.N,GND*%
X155690000Y-68938500D03*
D15*
%TO.P,J3,2,Pin_2*%
%TO.N,UPDI*%
X155690000Y-71478500D03*
%TO.P,J3,3,Pin_3*%
%TO.N,+5V*%
X155690000Y-74018500D03*
%TD*%
D16*
%TO.P,J1,A1,GND*%
%TO.N,GND*%
X130470000Y-68320000D03*
%TO.P,J1,A4,VBUS*%
%TO.N,+5V*%
X130470000Y-69120000D03*
D17*
%TO.P,J1,A5,CC1*%
%TO.N,Net-(J1-CC1)*%
X130470000Y-70270000D03*
%TO.P,J1,A6,D+*%
%TO.N,D+*%
X130470000Y-71270000D03*
%TO.P,J1,A7,D-*%
%TO.N,D-*%
X130470000Y-71770000D03*
%TO.P,J1,A8,SBU1*%
%TO.N,unconnected-(J1-SBU1-PadA8)*%
X130470000Y-72770000D03*
D16*
%TO.P,J1,A9,VBUS*%
%TO.N,+5V*%
X130470000Y-73920000D03*
%TO.P,J1,A12,GND*%
%TO.N,GND*%
X130470000Y-74720000D03*
%TO.P,J1,B1,GND*%
X130470000Y-74720000D03*
%TO.P,J1,B4,VBUS*%
%TO.N,+5V*%
X130470000Y-73920000D03*
D17*
%TO.P,J1,B5,CC2*%
%TO.N,Net-(J1-CC2)*%
X130470000Y-73270000D03*
%TO.P,J1,B6,D+*%
%TO.N,D+*%
X130470000Y-72270000D03*
%TO.P,J1,B7,D-*%
%TO.N,D-*%
X130470000Y-70770000D03*
%TO.P,J1,B8,SBU2*%
%TO.N,unconnected-(J1-SBU2-PadB8)*%
X130470000Y-69770000D03*
D16*
%TO.P,J1,B9,VBUS*%
%TO.N,+5V*%
X130470000Y-69120000D03*
%TO.P,J1,B12,GND*%
%TO.N,GND*%
X130470000Y-68320000D03*
D18*
%TO.P,J1,S1,SHIELD*%
X129895000Y-67200000D03*
D19*
X125715000Y-67200000D03*
D18*
X129895000Y-75840000D03*
D19*
X125715000Y-75840000D03*
%TD*%
D20*
%TO.P,SW1,1,1*%
%TO.N,PC6*%
X151315000Y-73503500D03*
%TO.P,SW1,2,2*%
X151315000Y-69353500D03*
%TO.P,SW1,3,K*%
%TO.N,GND*%
X153465000Y-73503500D03*
%TO.P,SW1,4,A*%
X153465000Y-69353500D03*
%TD*%
D21*
%TO.P,Y1,1,1*%
%TO.N,Net-(U1-XTAL2{slash}PB7)*%
X135860000Y-68530000D03*
%TO.P,Y1,2,2*%
%TO.N,GND*%
X137415635Y-66974365D03*
%TO.P,Y1,3,3*%
%TO.N,Net-(U1-XTAL1{slash}PB6)*%
X136213554Y-65772284D03*
%TO.P,Y1,4,4*%
%TO.N,GND*%
X134657919Y-67327919D03*
%TD*%
D10*
%TO.P,C3,1*%
%TO.N,Net-(U1-XTAL2{slash}PB7)*%
X136950000Y-69820000D03*
%TO.P,C3,2*%
%TO.N,GND*%
X135853984Y-70916016D03*
%TD*%
D22*
%TO.P,/RTS#,1,K*%
%TO.N,GND*%
X136255000Y-73640000D03*
%TO.P,/RTS#,2,A*%
%TO.N,Net-(D2-A)*%
X134505000Y-73640000D03*
%TD*%
D23*
%TO.P,U1,1,PD3*%
%TO.N,/PD3*%
X142734695Y-66664897D03*
%TO.P,U1,2,PD4*%
%TO.N,/PD4*%
X142169010Y-67230583D03*
%TO.P,U1,3,GND*%
%TO.N,GND*%
X141603324Y-67796268D03*
%TO.P,U1,4,VCC*%
%TO.N,+5V*%
X141037639Y-68361953D03*
%TO.P,U1,5,GND*%
%TO.N,GND*%
X140471953Y-68927639D03*
%TO.P,U1,6,VCC*%
%TO.N,+5V*%
X139906268Y-69493324D03*
%TO.P,U1,7,XTAL1/PB6*%
%TO.N,Net-(U1-XTAL1{slash}PB6)*%
X139340583Y-70059010D03*
%TO.P,U1,8,XTAL2/PB7*%
%TO.N,Net-(U1-XTAL2{slash}PB7)*%
X138774897Y-70624695D03*
D24*
%TO.P,U1,9,PD5*%
%TO.N,/PD5*%
X138774897Y-72675305D03*
%TO.P,U1,10,PD6*%
%TO.N,/PD6*%
X139340583Y-73240990D03*
%TO.P,U1,11,PD7*%
%TO.N,/PD7*%
X139906268Y-73806676D03*
%TO.P,U1,12,PB0*%
%TO.N,/PB0*%
X140471953Y-74372361D03*
%TO.P,U1,13,PB1*%
%TO.N,/PB1*%
X141037639Y-74938047D03*
%TO.P,U1,14,PB2*%
%TO.N,/PB2*%
X141603324Y-75503732D03*
%TO.P,U1,15,PB3*%
%TO.N,/PB3*%
X142169010Y-76069417D03*
%TO.P,U1,16,PB4*%
%TO.N,/PB4*%
X142734695Y-76635103D03*
D23*
%TO.P,U1,17,PB5*%
%TO.N,/PB5*%
X144785305Y-76635103D03*
%TO.P,U1,18,AVCC*%
%TO.N,+5V*%
X145350990Y-76069417D03*
%TO.P,U1,19,ADC6*%
%TO.N,ADC6*%
X145916676Y-75503732D03*
%TO.P,U1,20,AREF*%
%TO.N,AREF*%
X146482361Y-74938047D03*
%TO.P,U1,21,GND*%
%TO.N,GND*%
X147048047Y-74372361D03*
%TO.P,U1,22,ADC7*%
%TO.N,ADC7*%
X147613732Y-73806676D03*
%TO.P,U1,23,PC0*%
%TO.N,/PC0*%
X148179417Y-73240990D03*
%TO.P,U1,24,PC1*%
%TO.N,/PC1*%
X148745103Y-72675305D03*
D24*
%TO.P,U1,25,PC2*%
%TO.N,/PC2*%
X148745103Y-70624695D03*
%TO.P,U1,26,PC3*%
%TO.N,/PC3*%
X148179417Y-70059010D03*
%TO.P,U1,27,PC4*%
%TO.N,/PC4*%
X147613732Y-69493324D03*
%TO.P,U1,28,PC5*%
%TO.N,/PC5*%
X147048047Y-68927639D03*
%TO.P,U1,29,~{RESET}/PC6*%
%TO.N,PC6*%
X146482361Y-68361953D03*
%TO.P,U1,30,PD0*%
%TO.N,PD0{slash}RxD*%
X145916676Y-67796268D03*
%TO.P,U1,31,PD1*%
%TO.N,PD1{slash}TxD*%
X145350990Y-67230583D03*
%TO.P,U1,32,PD2*%
%TO.N,/PD2*%
X144785305Y-66664897D03*
%TD*%
D10*
%TO.P,C4,1*%
%TO.N,GND*%
X139116016Y-86893984D03*
%TO.P,C4,2*%
%TO.N,Net-(U1-XTAL1{slash}PB6)*%
X138020000Y-87990000D03*
%TD*%
D11*
%TO.P,J2,1,Pin_1*%
%TO.N,/PD7*%
X129790000Y-98500000D03*
D12*
%TO.P,J2,2,Pin_2*%
%TO.N,/PB0*%
X132330000Y-98500000D03*
%TO.P,J2,3,Pin_3*%
%TO.N,/PB1*%
X134870000Y-98500000D03*
%TO.P,J2,4,Pin_4*%
%TO.N,/PB2*%
X137410000Y-98500000D03*
%TO.P,J2,5,Pin_5*%
%TO.N,/PB3*%
X139950000Y-98500000D03*
%TO.P,J2,6,Pin_6*%
%TO.N,/PB4*%
X142490000Y-98500000D03*
%TO.P,J2,7,Pin_7*%
%TO.N,/PB5*%
X145030000Y-98500000D03*
%TO.P,J2,8,Pin_8*%
%TO.N,ADC6*%
X147570000Y-98500000D03*
%TO.P,J2,9,Pin_9*%
%TO.N,AREF*%
X150110000Y-98500000D03*
%TO.P,J2,10,Pin_10*%
%TO.N,ADC7*%
X152650000Y-98500000D03*
%TO.P,J2,11,Pin_11*%
%TO.N,/PC0*%
X155190000Y-98500000D03*
%TO.P,J2,12,Pin_12*%
%TO.N,/PC1*%
X157730000Y-98500000D03*
%TO.P,J2,13,Pin_13*%
%TO.N,/PC2*%
X157730000Y-83260000D03*
%TO.P,J2,14,Pin_14*%
%TO.N,/PC3*%
X155190000Y-83260000D03*
%TO.P,J2,15,Pin_15*%
%TO.N,/PC4*%
X152650000Y-83260000D03*
%TO.P,J2,16,Pin_16*%
%TO.N,/PC5*%
X150110000Y-83260000D03*
%TO.P,J2,17,Pin_17*%
%TO.N,PC6*%
X147570000Y-83260000D03*
%TO.P,J2,18,Pin_18*%
%TO.N,/PD2*%
X145030000Y-83260000D03*
%TO.P,J2,19,Pin_19*%
%TO.N,/PD3*%
X142490000Y-83260000D03*
%TO.P,J2,20,Pin_20*%
%TO.N,/PD4*%
X139950000Y-83260000D03*
%TO.P,J2,21,Pin_21*%
%TO.N,GND*%
X137410000Y-83260000D03*
%TO.P,J2,22,Pin_22*%
%TO.N,+5V*%
X134870000Y-83260000D03*
%TO.P,J2,23,Pin_23*%
%TO.N,/PD5*%
X132330000Y-83260000D03*
%TO.P,J2,24,Pin_24*%
%TO.N,/PD6*%
X129790000Y-83260000D03*
%TD*%
D13*
%TO.P,UPDI,1,K*%
%TO.N,GND*%
X151825000Y-86320000D03*
%TO.P,UPDI,2,A*%
%TO.N,Net-(D3-A)*%
X153575000Y-86320000D03*
%TD*%
D14*
%TO.P,J3,1,Pin_1*%
%TO.N,GND*%
X155690000Y-88168500D03*
D15*
%TO.P,J3,2,Pin_2*%
%TO.N,UPDI*%
X155690000Y-90708500D03*
%TO.P,J3,3,Pin_3*%
%TO.N,+5V*%
X155690000Y-93248500D03*
%TD*%
D16*
%TO.P,J1,A1,GND*%
%TO.N,GND*%
X130470000Y-87550000D03*
%TO.P,J1,A4,VBUS*%
%TO.N,+5V*%
X130470000Y-88350000D03*
D17*
%TO.P,J1,A5,CC1*%
%TO.N,Net-(J1-CC1)*%
X130470000Y-89500000D03*
%TO.P,J1,A6,D+*%
%TO.N,D+*%
X130470000Y-90500000D03*
%TO.P,J1,A7,D-*%
%TO.N,D-*%
X130470000Y-91000000D03*
%TO.P,J1,A8,SBU1*%
%TO.N,unconnected-(J1-SBU1-PadA8)*%
X130470000Y-92000000D03*
D16*
%TO.P,J1,A9,VBUS*%
%TO.N,+5V*%
X130470000Y-93150000D03*
%TO.P,J1,A12,GND*%
%TO.N,GND*%
X130470000Y-93950000D03*
%TO.P,J1,B1,GND*%
X130470000Y-93950000D03*
%TO.P,J1,B4,VBUS*%
%TO.N,+5V*%
X130470000Y-93150000D03*
D17*
%TO.P,J1,B5,CC2*%
%TO.N,Net-(J1-CC2)*%
X130470000Y-92500000D03*
%TO.P,J1,B6,D+*%
%TO.N,D+*%
X130470000Y-91500000D03*
%TO.P,J1,B7,D-*%
%TO.N,D-*%
X130470000Y-90000000D03*
%TO.P,J1,B8,SBU2*%
%TO.N,unconnected-(J1-SBU2-PadB8)*%
X130470000Y-89000000D03*
D16*
%TO.P,J1,B9,VBUS*%
%TO.N,+5V*%
X130470000Y-88350000D03*
%TO.P,J1,B12,GND*%
%TO.N,GND*%
X130470000Y-87550000D03*
D18*
%TO.P,J1,S1,SHIELD*%
X129895000Y-86430000D03*
D19*
X125715000Y-86430000D03*
D18*
X129895000Y-95070000D03*
D19*
X125715000Y-95070000D03*
%TD*%
D20*
%TO.P,SW1,1,1*%
%TO.N,PC6*%
X151315000Y-92733500D03*
%TO.P,SW1,2,2*%
X151315000Y-88583500D03*
%TO.P,SW1,3,K*%
%TO.N,GND*%
X153465000Y-92733500D03*
%TO.P,SW1,4,A*%
X153465000Y-88583500D03*
%TD*%
D21*
%TO.P,Y1,1,1*%
%TO.N,Net-(U1-XTAL2{slash}PB7)*%
X135860000Y-87760000D03*
%TO.P,Y1,2,2*%
%TO.N,GND*%
X137415635Y-86204365D03*
%TO.P,Y1,3,3*%
%TO.N,Net-(U1-XTAL1{slash}PB6)*%
X136213554Y-85002284D03*
%TO.P,Y1,4,4*%
%TO.N,GND*%
X134657919Y-86557919D03*
%TD*%
D10*
%TO.P,C3,1*%
%TO.N,Net-(U1-XTAL2{slash}PB7)*%
X136950000Y-89050000D03*
%TO.P,C3,2*%
%TO.N,GND*%
X135853984Y-90146016D03*
%TD*%
D22*
%TO.P,/RTS#,1,K*%
%TO.N,GND*%
X136255000Y-92870000D03*
%TO.P,/RTS#,2,A*%
%TO.N,Net-(D2-A)*%
X134505000Y-92870000D03*
%TD*%
D23*
%TO.P,U1,1,PD3*%
%TO.N,/PD3*%
X142734695Y-85894897D03*
%TO.P,U1,2,PD4*%
%TO.N,/PD4*%
X142169010Y-86460583D03*
%TO.P,U1,3,GND*%
%TO.N,GND*%
X141603324Y-87026268D03*
%TO.P,U1,4,VCC*%
%TO.N,+5V*%
X141037639Y-87591953D03*
%TO.P,U1,5,GND*%
%TO.N,GND*%
X140471953Y-88157639D03*
%TO.P,U1,6,VCC*%
%TO.N,+5V*%
X139906268Y-88723324D03*
%TO.P,U1,7,XTAL1/PB6*%
%TO.N,Net-(U1-XTAL1{slash}PB6)*%
X139340583Y-89289010D03*
%TO.P,U1,8,XTAL2/PB7*%
%TO.N,Net-(U1-XTAL2{slash}PB7)*%
X138774897Y-89854695D03*
D24*
%TO.P,U1,9,PD5*%
%TO.N,/PD5*%
X138774897Y-91905305D03*
%TO.P,U1,10,PD6*%
%TO.N,/PD6*%
X139340583Y-92470990D03*
%TO.P,U1,11,PD7*%
%TO.N,/PD7*%
X139906268Y-93036676D03*
%TO.P,U1,12,PB0*%
%TO.N,/PB0*%
X140471953Y-93602361D03*
%TO.P,U1,13,PB1*%
%TO.N,/PB1*%
X141037639Y-94168047D03*
%TO.P,U1,14,PB2*%
%TO.N,/PB2*%
X141603324Y-94733732D03*
%TO.P,U1,15,PB3*%
%TO.N,/PB3*%
X142169010Y-95299417D03*
%TO.P,U1,16,PB4*%
%TO.N,/PB4*%
X142734695Y-95865103D03*
D23*
%TO.P,U1,17,PB5*%
%TO.N,/PB5*%
X144785305Y-95865103D03*
%TO.P,U1,18,AVCC*%
%TO.N,+5V*%
X145350990Y-95299417D03*
%TO.P,U1,19,ADC6*%
%TO.N,ADC6*%
X145916676Y-94733732D03*
%TO.P,U1,20,AREF*%
%TO.N,AREF*%
X146482361Y-94168047D03*
%TO.P,U1,21,GND*%
%TO.N,GND*%
X147048047Y-93602361D03*
%TO.P,U1,22,ADC7*%
%TO.N,ADC7*%
X147613732Y-93036676D03*
%TO.P,U1,23,PC0*%
%TO.N,/PC0*%
X148179417Y-92470990D03*
%TO.P,U1,24,PC1*%
%TO.N,/PC1*%
X148745103Y-91905305D03*
D24*
%TO.P,U1,25,PC2*%
%TO.N,/PC2*%
X148745103Y-89854695D03*
%TO.P,U1,26,PC3*%
%TO.N,/PC3*%
X148179417Y-89289010D03*
%TO.P,U1,27,PC4*%
%TO.N,/PC4*%
X147613732Y-88723324D03*
%TO.P,U1,28,PC5*%
%TO.N,/PC5*%
X147048047Y-88157639D03*
%TO.P,U1,29,~{RESET}/PC6*%
%TO.N,PC6*%
X146482361Y-87591953D03*
%TO.P,U1,30,PD0*%
%TO.N,PD0{slash}RxD*%
X145916676Y-87026268D03*
%TO.P,U1,31,PD1*%
%TO.N,PD1{slash}TxD*%
X145350990Y-86460583D03*
%TO.P,U1,32,PD2*%
%TO.N,/PD2*%
X144785305Y-85894897D03*
%TD*%
D25*
%TO.N,PD0{slash}RxD*%
X145916676Y-67796268D03*
X144640000Y-72030000D03*
%TO.N,Net-(SW2-COM)*%
X152300000Y-70350000D03*
X157670000Y-71440000D03*
%TO.N,UPDI*%
X143750000Y-70760000D03*
%TO.N,Net-(D3-A)*%
X153575000Y-67090000D03*
%TO.N,PD1{slash}TxD*%
X145350990Y-67230583D03*
X142990000Y-72060000D03*
%TO.N,PC6*%
X151315000Y-69353500D03*
X146482361Y-68361953D03*
%TO.N,/PD6*%
X133065000Y-75655000D03*
%TO.N,/PC3*%
X148179417Y-70059010D03*
%TO.N,Net-(J1-CC2)*%
X128120000Y-72910000D03*
%TO.N,GND*%
X156040000Y-66510000D03*
X126295000Y-72910000D03*
X126295000Y-70400000D03*
X134657919Y-67327919D03*
%TO.N,Net-(D2-A)*%
X134505000Y-73640000D03*
X134505000Y-69210000D03*
%TO.N,Net-(J1-CC1)*%
X128120000Y-70400000D03*
%TO.N,ADC7*%
X147613732Y-73806676D03*
%TO.N,/PC0*%
X148179417Y-73240990D03*
%TO.N,GND*%
X130470000Y-74720000D03*
%TO.N,D-*%
X131630000Y-71940000D03*
%TO.N,/PC1*%
X148745305Y-72675305D03*
%TO.N,/PC2*%
X148745103Y-70624695D03*
%TO.N,D+*%
X131560000Y-72750000D03*
%TO.N,GND*%
X153465000Y-73503500D03*
X130470000Y-68320000D03*
X135757500Y-71330000D03*
X143770000Y-67860000D03*
X138600000Y-65180000D03*
%TO.N,+5V*%
X157670000Y-72440000D03*
%TO.N,/PD5*%
X134199451Y-75650000D03*
%TO.N,+5V*%
X130470000Y-69120000D03*
X130470000Y-73920000D03*
X145350990Y-76069417D03*
X141037639Y-68361953D03*
X139906268Y-69493324D03*
X143760000Y-72600000D03*
%TO.N,PD0{slash}RxD*%
X145916676Y-87026268D03*
X144640000Y-91260000D03*
%TO.N,Net-(SW2-COM)*%
X152300000Y-89580000D03*
X157670000Y-90670000D03*
%TO.N,UPDI*%
X143750000Y-89990000D03*
%TO.N,Net-(D3-A)*%
X153575000Y-86320000D03*
%TO.N,PD1{slash}TxD*%
X145350990Y-86460583D03*
X142990000Y-91290000D03*
%TO.N,PC6*%
X151315000Y-88583500D03*
X146482361Y-87591953D03*
%TO.N,/PD6*%
X133065000Y-94885000D03*
%TO.N,/PC3*%
X148179417Y-89289010D03*
%TO.N,Net-(J1-CC2)*%
X128120000Y-92140000D03*
%TO.N,GND*%
X156040000Y-85740000D03*
X126295000Y-92140000D03*
X126295000Y-89630000D03*
X134657919Y-86557919D03*
%TO.N,Net-(D2-A)*%
X134505000Y-92870000D03*
X134505000Y-88440000D03*
%TO.N,Net-(J1-CC1)*%
X128120000Y-89630000D03*
%TO.N,ADC7*%
X147613732Y-93036676D03*
%TO.N,/PC0*%
X148179417Y-92470990D03*
%TO.N,GND*%
X130470000Y-93950000D03*
%TO.N,D-*%
X131630000Y-91170000D03*
%TO.N,/PC1*%
X148745305Y-91905305D03*
%TO.N,/PC2*%
X148745103Y-89854695D03*
%TO.N,D+*%
X131560000Y-91980000D03*
%TO.N,GND*%
X153465000Y-92733500D03*
X130470000Y-87550000D03*
X135757500Y-90560000D03*
X143770000Y-87090000D03*
X138600000Y-84410000D03*
%TO.N,+5V*%
X157670000Y-91670000D03*
%TO.N,/PD5*%
X134199451Y-94880000D03*
%TO.N,+5V*%
X130470000Y-88350000D03*
X130470000Y-93150000D03*
X145350990Y-95299417D03*
X141037639Y-87591953D03*
X139906268Y-88723324D03*
X143760000Y-91830000D03*
%TD*%
D26*
%TO.N,PC6*%
X151315000Y-69353500D02*
X151315000Y-73503500D01*
%TO.N,/PD6*%
X133085000Y-75655000D02*
X133920000Y-76490000D01*
X133065000Y-75655000D02*
X133085000Y-75655000D01*
X136091573Y-76490000D02*
X139340583Y-73240990D01*
X133920000Y-76490000D02*
X136091573Y-76490000D01*
%TO.N,/PD2*%
X145030000Y-66420202D02*
X144785305Y-66664897D01*
X145030000Y-64030000D02*
X145030000Y-66420202D01*
%TO.N,AREF*%
X150110000Y-78565686D02*
X146482361Y-74938047D01*
X150110000Y-79270000D02*
X150110000Y-78565686D01*
%TO.N,D-*%
X131630000Y-71940000D02*
X131420000Y-71730000D01*
X131630000Y-71940000D02*
X131460000Y-71770000D01*
X131420000Y-71013176D02*
X131176824Y-70770000D01*
X131420000Y-71730000D02*
X131420000Y-71013176D01*
%TO.N,Net-(J1-CC2)*%
X128480000Y-73270000D02*
X128120000Y-72910000D01*
%TO.N,D+*%
X131560000Y-72750000D02*
X131080000Y-72270000D01*
X129861176Y-72270000D02*
X129594000Y-72002824D01*
X131080000Y-72270000D02*
X130470000Y-72270000D01*
X130470000Y-72270000D02*
X129861176Y-72270000D01*
X129594000Y-72002824D02*
X129594000Y-71537176D01*
X129594000Y-71537176D02*
X129861176Y-71270000D01*
%TO.N,Net-(J1-CC1)*%
X128250000Y-70270000D02*
X130470000Y-70270000D01*
%TO.N,/PB1*%
X136020000Y-77970000D02*
X138005686Y-77970000D01*
X138005686Y-77970000D02*
X141037639Y-74938047D01*
X134870000Y-79270000D02*
X134870000Y-79120000D01*
X134870000Y-79120000D02*
X136020000Y-77970000D01*
%TO.N,/PD4*%
X139950000Y-65011573D02*
X142169010Y-67230583D01*
X139950000Y-64030000D02*
X139950000Y-65011573D01*
%TO.N,/PD3*%
X142490000Y-66420202D02*
X142734695Y-66664897D01*
X142490000Y-64030000D02*
X142490000Y-66420202D01*
%TO.N,/PD7*%
X132022000Y-77168000D02*
X136544944Y-77168000D01*
X136544944Y-77168000D02*
X139906268Y-73806676D01*
X129790000Y-79270000D02*
X129920000Y-79270000D01*
X129920000Y-79270000D02*
X132022000Y-77168000D01*
%TO.N,/PB3*%
X139950000Y-78288427D02*
X142169010Y-76069417D01*
X139950000Y-79270000D02*
X139950000Y-78288427D01*
%TO.N,/PC5*%
X148060000Y-67915686D02*
X148060000Y-66080000D01*
X147048047Y-68927639D02*
X148060000Y-67915686D01*
X148060000Y-66080000D02*
X150110000Y-64030000D01*
%TO.N,Net-(U1-XTAL1{slash}PB6)*%
X136195396Y-67169754D02*
X137785642Y-68760000D01*
X137785642Y-68760000D02*
X138020000Y-68760000D01*
%TO.N,Net-(J1-CC1)*%
X128120000Y-70400000D02*
X128250000Y-70270000D01*
%TO.N,D-*%
X131460000Y-71770000D02*
X130470000Y-71770000D01*
%TO.N,Net-(U1-XTAL2{slash}PB7)*%
X135860000Y-68530000D02*
X135860000Y-68730000D01*
X138390202Y-70240000D02*
X138774897Y-70624695D01*
%TO.N,/PB5*%
X145030000Y-76879798D02*
X144785305Y-76635103D01*
%TO.N,/PD5*%
X134199451Y-75650000D02*
X135800202Y-75650000D01*
X135800202Y-75650000D02*
X138774897Y-72675305D01*
%TO.N,ADC6*%
X147570000Y-77157056D02*
X145916676Y-75503732D01*
X147570000Y-79270000D02*
X147570000Y-77157056D01*
%TO.N,/PB4*%
X142490000Y-79270000D02*
X142490000Y-76879798D01*
X142490000Y-76879798D02*
X142734695Y-76635103D01*
%TO.N,/PC1*%
X148745103Y-72675305D02*
X148745305Y-72675305D01*
%TO.N,D-*%
X131176824Y-70770000D02*
X130470000Y-70770000D01*
%TO.N,Net-(J1-CC2)*%
X130470000Y-73270000D02*
X128480000Y-73270000D01*
%TO.N,/PC2*%
X157710000Y-64030000D02*
X157730000Y-64030000D01*
%TO.N,D+*%
X129861176Y-71270000D02*
X130470000Y-71270000D01*
%TO.N,Net-(U1-XTAL2{slash}PB7)*%
X136950000Y-69820000D02*
X137370000Y-70240000D01*
X135860000Y-68730000D02*
X136950000Y-69820000D01*
%TO.N,Net-(U1-XTAL1{slash}PB6)*%
X138020000Y-68760000D02*
X138041573Y-68760000D01*
X136213554Y-65772284D02*
X136195396Y-65790442D01*
%TO.N,Net-(U1-XTAL2{slash}PB7)*%
X137370000Y-70240000D02*
X138390202Y-70240000D01*
%TO.N,Net-(U1-XTAL1{slash}PB6)*%
X138041573Y-68760000D02*
X139340583Y-70059010D01*
X136195396Y-65790442D02*
X136195396Y-67169754D01*
%TO.N,/PB5*%
X145030000Y-79270000D02*
X145030000Y-76879798D01*
%TO.N,/PB2*%
X137410000Y-79270000D02*
X137837056Y-79270000D01*
X137837056Y-79270000D02*
X141603324Y-75503732D01*
%TO.N,/PC4*%
X148830000Y-67850000D02*
X152650000Y-64030000D01*
X147613732Y-69493324D02*
X148830000Y-68277056D01*
X148830000Y-68277056D02*
X148830000Y-67850000D01*
%TO.N,/PB0*%
X134041000Y-77569000D02*
X137275314Y-77569000D01*
X132340000Y-79270000D02*
X134041000Y-77569000D01*
X137275314Y-77569000D02*
X140471953Y-74372361D01*
X132330000Y-79270000D02*
X132340000Y-79270000D01*
%TO.N,PC6*%
X151315000Y-88583500D02*
X151315000Y-92733500D01*
%TO.N,/PD6*%
X133085000Y-94885000D02*
X133920000Y-95720000D01*
X133065000Y-94885000D02*
X133085000Y-94885000D01*
X136091573Y-95720000D02*
X139340583Y-92470990D01*
X133920000Y-95720000D02*
X136091573Y-95720000D01*
%TO.N,/PD2*%
X145030000Y-85650202D02*
X144785305Y-85894897D01*
X145030000Y-83260000D02*
X145030000Y-85650202D01*
%TO.N,AREF*%
X150110000Y-97795686D02*
X146482361Y-94168047D01*
X150110000Y-98500000D02*
X150110000Y-97795686D01*
%TO.N,D-*%
X131630000Y-91170000D02*
X131420000Y-90960000D01*
X131630000Y-91170000D02*
X131460000Y-91000000D01*
X131420000Y-90243176D02*
X131176824Y-90000000D01*
X131420000Y-90960000D02*
X131420000Y-90243176D01*
%TO.N,Net-(J1-CC2)*%
X128480000Y-92500000D02*
X128120000Y-92140000D01*
%TO.N,D+*%
X131560000Y-91980000D02*
X131080000Y-91500000D01*
X129861176Y-91500000D02*
X129594000Y-91232824D01*
X131080000Y-91500000D02*
X130470000Y-91500000D01*
X130470000Y-91500000D02*
X129861176Y-91500000D01*
X129594000Y-91232824D02*
X129594000Y-90767176D01*
X129594000Y-90767176D02*
X129861176Y-90500000D01*
%TO.N,Net-(J1-CC1)*%
X128250000Y-89500000D02*
X130470000Y-89500000D01*
%TO.N,/PB1*%
X136020000Y-97200000D02*
X138005686Y-97200000D01*
X138005686Y-97200000D02*
X141037639Y-94168047D01*
X134870000Y-98500000D02*
X134870000Y-98350000D01*
X134870000Y-98350000D02*
X136020000Y-97200000D01*
%TO.N,/PD4*%
X139950000Y-84241573D02*
X142169010Y-86460583D01*
X139950000Y-83260000D02*
X139950000Y-84241573D01*
%TO.N,/PD3*%
X142490000Y-85650202D02*
X142734695Y-85894897D01*
X142490000Y-83260000D02*
X142490000Y-85650202D01*
%TO.N,/PD7*%
X132022000Y-96398000D02*
X136544944Y-96398000D01*
X136544944Y-96398000D02*
X139906268Y-93036676D01*
X129790000Y-98500000D02*
X129920000Y-98500000D01*
X129920000Y-98500000D02*
X132022000Y-96398000D01*
%TO.N,/PB3*%
X139950000Y-97518427D02*
X142169010Y-95299417D01*
X139950000Y-98500000D02*
X139950000Y-97518427D01*
%TO.N,/PC5*%
X148060000Y-87145686D02*
X148060000Y-85310000D01*
X147048047Y-88157639D02*
X148060000Y-87145686D01*
X148060000Y-85310000D02*
X150110000Y-83260000D01*
%TO.N,Net-(U1-XTAL1{slash}PB6)*%
X136195396Y-86399754D02*
X137785642Y-87990000D01*
X137785642Y-87990000D02*
X138020000Y-87990000D01*
%TO.N,Net-(J1-CC1)*%
X128120000Y-89630000D02*
X128250000Y-89500000D01*
%TO.N,D-*%
X131460000Y-91000000D02*
X130470000Y-91000000D01*
%TO.N,Net-(U1-XTAL2{slash}PB7)*%
X135860000Y-87760000D02*
X135860000Y-87960000D01*
X138390202Y-89470000D02*
X138774897Y-89854695D01*
%TO.N,/PB5*%
X145030000Y-96109798D02*
X144785305Y-95865103D01*
%TO.N,/PD5*%
X134199451Y-94880000D02*
X135800202Y-94880000D01*
X135800202Y-94880000D02*
X138774897Y-91905305D01*
%TO.N,ADC6*%
X147570000Y-96387056D02*
X145916676Y-94733732D01*
X147570000Y-98500000D02*
X147570000Y-96387056D01*
%TO.N,/PB4*%
X142490000Y-98500000D02*
X142490000Y-96109798D01*
X142490000Y-96109798D02*
X142734695Y-95865103D01*
%TO.N,/PC1*%
X148745103Y-91905305D02*
X148745305Y-91905305D01*
%TO.N,D-*%
X131176824Y-90000000D02*
X130470000Y-90000000D01*
%TO.N,Net-(J1-CC2)*%
X130470000Y-92500000D02*
X128480000Y-92500000D01*
%TO.N,/PC2*%
X157710000Y-83260000D02*
X157730000Y-83260000D01*
%TO.N,D+*%
X129861176Y-90500000D02*
X130470000Y-90500000D01*
%TO.N,Net-(U1-XTAL2{slash}PB7)*%
X136950000Y-89050000D02*
X137370000Y-89470000D01*
X135860000Y-87960000D02*
X136950000Y-89050000D01*
%TO.N,Net-(U1-XTAL1{slash}PB6)*%
X138020000Y-87990000D02*
X138041573Y-87990000D01*
X136213554Y-85002284D02*
X136195396Y-85020442D01*
%TO.N,Net-(U1-XTAL2{slash}PB7)*%
X137370000Y-89470000D02*
X138390202Y-89470000D01*
%TO.N,Net-(U1-XTAL1{slash}PB6)*%
X138041573Y-87990000D02*
X139340583Y-89289010D01*
X136195396Y-85020442D02*
X136195396Y-86399754D01*
%TO.N,/PB5*%
X145030000Y-98500000D02*
X145030000Y-96109798D01*
%TO.N,/PB2*%
X137410000Y-98500000D02*
X137837056Y-98500000D01*
X137837056Y-98500000D02*
X141603324Y-94733732D01*
%TO.N,/PC4*%
X148830000Y-87080000D02*
X152650000Y-83260000D01*
X147613732Y-88723324D02*
X148830000Y-87507056D01*
X148830000Y-87507056D02*
X148830000Y-87080000D01*
%TO.N,/PB0*%
X134041000Y-96799000D02*
X137275314Y-96799000D01*
X132340000Y-98500000D02*
X134041000Y-96799000D01*
X137275314Y-96799000D02*
X140471953Y-93602361D01*
X132330000Y-98500000D02*
X132340000Y-98500000D01*
%TD*%
%TA.AperFunction,Conductor*%
%TO.N,GND*%
G36*
X129143647Y-82280185D02*
G01*
X129189402Y-82332989D01*
X129199346Y-82402147D01*
X129170321Y-82465703D01*
X129155275Y-82480352D01*
X129152212Y-82482865D01*
X129012863Y-82622214D01*
X129012860Y-82622218D01*
X128903371Y-82786079D01*
X128903364Y-82786092D01*
X128827950Y-82968160D01*
X128827947Y-82968170D01*
X128789500Y-83161456D01*
X128789500Y-83161459D01*
X128789500Y-83358541D01*
X128789500Y-83358543D01*
X128789499Y-83358543D01*
X128827947Y-83551829D01*
X128827950Y-83551839D01*
X128903364Y-83733907D01*
X128903371Y-83733920D01*
X129012860Y-83897781D01*
X129012863Y-83897785D01*
X129152214Y-84037136D01*
X129152218Y-84037139D01*
X129316079Y-84146628D01*
X129316092Y-84146635D01*
X129466188Y-84208806D01*
X129498165Y-84222051D01*
X129498169Y-84222051D01*
X129498170Y-84222052D01*
X129691456Y-84260500D01*
X129691459Y-84260500D01*
X129888543Y-84260500D01*
X130038887Y-84230594D01*
X130081835Y-84222051D01*
X130263914Y-84146632D01*
X130427782Y-84037139D01*
X130567139Y-83897782D01*
X130676632Y-83733914D01*
X130752051Y-83551835D01*
X130779390Y-83414394D01*
X130790500Y-83358543D01*
X130790500Y-83161456D01*
X130752052Y-82968170D01*
X130752051Y-82968169D01*
X130752051Y-82968165D01*
X130707248Y-82860000D01*
X130676635Y-82786092D01*
X130676628Y-82786079D01*
X130567139Y-82622218D01*
X130567136Y-82622214D01*
X130427787Y-82482865D01*
X130424725Y-82480352D01*
X130423552Y-82478630D01*
X130423475Y-82478553D01*
X130423489Y-82478538D01*
X130385392Y-82422605D01*
X130383523Y-82352761D01*
X130419711Y-82292993D01*
X130482468Y-82262278D01*
X130503392Y-82260500D01*
X131616608Y-82260500D01*
X131683647Y-82280185D01*
X131729402Y-82332989D01*
X131739346Y-82402147D01*
X131710321Y-82465703D01*
X131695275Y-82480352D01*
X131692212Y-82482865D01*
X131552863Y-82622214D01*
X131552860Y-82622218D01*
X131443371Y-82786079D01*
X131443364Y-82786092D01*
X131367950Y-82968160D01*
X131367947Y-82968170D01*
X131329500Y-83161456D01*
X131329500Y-83161459D01*
X131329500Y-83358541D01*
X131329500Y-83358543D01*
X131329499Y-83358543D01*
X131367947Y-83551829D01*
X131367950Y-83551839D01*
X131443364Y-83733907D01*
X131443371Y-83733920D01*
X131552860Y-83897781D01*
X131552863Y-83897785D01*
X131692214Y-84037136D01*
X131692218Y-84037139D01*
X131856079Y-84146628D01*
X131856092Y-84146635D01*
X132006188Y-84208806D01*
X132038165Y-84222051D01*
X132038169Y-84222051D01*
X132038170Y-84222052D01*
X132231456Y-84260500D01*
X132231459Y-84260500D01*
X132428543Y-84260500D01*
X132578887Y-84230594D01*
X132621835Y-84222051D01*
X132803914Y-84146632D01*
X132967782Y-84037139D01*
X133107139Y-83897782D01*
X133216632Y-83733914D01*
X133292051Y-83551835D01*
X133319390Y-83414394D01*
X133330500Y-83358543D01*
X133330500Y-83161456D01*
X133292052Y-82968170D01*
X133292051Y-82968169D01*
X133292051Y-82968165D01*
X133247248Y-82860000D01*
X133216635Y-82786092D01*
X133216628Y-82786079D01*
X133107139Y-82622218D01*
X133107136Y-82622214D01*
X132967787Y-82482865D01*
X132964725Y-82480352D01*
X132963552Y-82478630D01*
X132963475Y-82478553D01*
X132963489Y-82478538D01*
X132925392Y-82422605D01*
X132923523Y-82352761D01*
X132959711Y-82292993D01*
X133022468Y-82262278D01*
X133043392Y-82260500D01*
X134156608Y-82260500D01*
X134223647Y-82280185D01*
X134269402Y-82332989D01*
X134279346Y-82402147D01*
X134250321Y-82465703D01*
X134235275Y-82480352D01*
X134232212Y-82482865D01*
X134092863Y-82622214D01*
X134092860Y-82622218D01*
X133983371Y-82786079D01*
X133983364Y-82786092D01*
X133907950Y-82968160D01*
X133907947Y-82968170D01*
X133869500Y-83161456D01*
X133869500Y-83161459D01*
X133869500Y-83358541D01*
X133869500Y-83358543D01*
X133869499Y-83358543D01*
X133907947Y-83551829D01*
X133907950Y-83551839D01*
X133983364Y-83733907D01*
X133983371Y-83733920D01*
X134092860Y-83897781D01*
X134092863Y-83897785D01*
X134232214Y-84037136D01*
X134232218Y-84037139D01*
X134396079Y-84146628D01*
X134396092Y-84146635D01*
X134546188Y-84208806D01*
X134578165Y-84222051D01*
X134578169Y-84222051D01*
X134578170Y-84222052D01*
X134771456Y-84260500D01*
X134771459Y-84260500D01*
X134968543Y-84260500D01*
X135118887Y-84230594D01*
X135161835Y-84222051D01*
X135343914Y-84146632D01*
X135507782Y-84037139D01*
X135647139Y-83897782D01*
X135756632Y-83733914D01*
X135832051Y-83551835D01*
X135868034Y-83370937D01*
X135900419Y-83309027D01*
X135961134Y-83274453D01*
X136030904Y-83278192D01*
X136087576Y-83319059D01*
X136112124Y-83375731D01*
X136142009Y-83564417D01*
X136205243Y-83759027D01*
X136205246Y-83759034D01*
X136206796Y-83762076D01*
X136207036Y-83763354D01*
X136207109Y-83763531D01*
X136207071Y-83763546D01*
X136219686Y-83830746D01*
X136193404Y-83895484D01*
X136165201Y-83921461D01*
X136156451Y-83927307D01*
X135138578Y-84945180D01*
X135138572Y-84945188D01*
X135105449Y-84994759D01*
X135105448Y-84994762D01*
X135105448Y-84994763D01*
X135092177Y-85061489D01*
X135087506Y-85084973D01*
X135083116Y-85084099D01*
X135070203Y-85128078D01*
X135017399Y-85173833D01*
X134948241Y-85183777D01*
X134914376Y-85173833D01*
X134870946Y-85153999D01*
X134728630Y-85133539D01*
X134586313Y-85153999D01*
X134455532Y-85213725D01*
X134455530Y-85213726D01*
X134408899Y-85251304D01*
X134408892Y-85251310D01*
X134056878Y-85603323D01*
X134056878Y-85603324D01*
X134747015Y-86293461D01*
X134780500Y-86354784D01*
X134775516Y-86424476D01*
X134747015Y-86468823D01*
X134657919Y-86557919D01*
X134747014Y-86647014D01*
X134780499Y-86708337D01*
X134775515Y-86778029D01*
X134747014Y-86822376D01*
X133986167Y-87583223D01*
X133986167Y-87583224D01*
X134238587Y-87835644D01*
X134272072Y-87896967D01*
X134267088Y-87966659D01*
X134225216Y-88022592D01*
X134212909Y-88030711D01*
X134197686Y-88039500D01*
X134197683Y-88039502D01*
X134104502Y-88132683D01*
X134104500Y-88132686D01*
X134038608Y-88246812D01*
X134004500Y-88374108D01*
X134004500Y-88505891D01*
X134038608Y-88633187D01*
X134060550Y-88671191D01*
X134104500Y-88747314D01*
X134197686Y-88840500D01*
X134257255Y-88874892D01*
X134310594Y-88905688D01*
X134311814Y-88906392D01*
X134439108Y-88940500D01*
X134439110Y-88940500D01*
X134570890Y-88940500D01*
X134570892Y-88940500D01*
X134698186Y-88906392D01*
X134812314Y-88840500D01*
X134905500Y-88747314D01*
X134971392Y-88633186D01*
X135005500Y-88505892D01*
X135005500Y-88478363D01*
X135025185Y-88411324D01*
X135077989Y-88365569D01*
X135147147Y-88355625D01*
X135210703Y-88384650D01*
X135217181Y-88390682D01*
X135661475Y-88834976D01*
X135721214Y-88874892D01*
X135719530Y-88877410D01*
X135759133Y-88909316D01*
X135781206Y-88975607D01*
X135763936Y-89043309D01*
X135712805Y-89090926D01*
X135685883Y-89100706D01*
X135586652Y-89124224D01*
X135435205Y-89200284D01*
X135435198Y-89200289D01*
X135357826Y-89263316D01*
X135357811Y-89263330D01*
X135341332Y-89279810D01*
X136720188Y-90658666D01*
X136736678Y-90642177D01*
X136736683Y-90642172D01*
X136799710Y-90564802D01*
X136799715Y-90564794D01*
X136875773Y-90413350D01*
X136914860Y-90248432D01*
X136914860Y-90078954D01*
X136887609Y-89963972D01*
X136891303Y-89894200D01*
X136932132Y-89837501D01*
X136974869Y-89815958D01*
X136991252Y-89811376D01*
X137035071Y-89811376D01*
X137163258Y-89769725D01*
X137177702Y-89759230D01*
X137199160Y-89753229D01*
X137212702Y-89753403D01*
X137225454Y-89748851D01*
X137264646Y-89752871D01*
X137330438Y-89770500D01*
X137409562Y-89770500D01*
X137966881Y-89770500D01*
X138033920Y-89790185D01*
X138054562Y-89806819D01*
X139018311Y-90770569D01*
X139018314Y-90770572D01*
X139027782Y-90776898D01*
X139072587Y-90830510D01*
X139081294Y-90899835D01*
X139051140Y-90962863D01*
X139027782Y-90983102D01*
X139018314Y-90989427D01*
X137859019Y-92148722D01*
X137825890Y-92198303D01*
X137810330Y-92276536D01*
X137825332Y-92351964D01*
X137819103Y-92421556D01*
X137791395Y-92463834D01*
X137491680Y-92763549D01*
X137430357Y-92797034D01*
X137360665Y-92792050D01*
X137304732Y-92750178D01*
X137280315Y-92684714D01*
X137279999Y-92675868D01*
X137279999Y-92583360D01*
X137279998Y-92583345D01*
X137269680Y-92482347D01*
X137215453Y-92318699D01*
X137215448Y-92318688D01*
X137124947Y-92171965D01*
X137124944Y-92171961D01*
X137003038Y-92050055D01*
X137003034Y-92050052D01*
X136856311Y-91959551D01*
X136856300Y-91959546D01*
X136692652Y-91905319D01*
X136591654Y-91895000D01*
X136505000Y-91895000D01*
X136505000Y-92746000D01*
X136485315Y-92813039D01*
X136432511Y-92858794D01*
X136381000Y-92870000D01*
X136129000Y-92870000D01*
X136061961Y-92850315D01*
X136016206Y-92797511D01*
X136005000Y-92746000D01*
X136005000Y-91895000D01*
X136004999Y-91894999D01*
X135918360Y-91895000D01*
X135918343Y-91895001D01*
X135817347Y-91905319D01*
X135653699Y-91959546D01*
X135653688Y-91959551D01*
X135506965Y-92050052D01*
X135506961Y-92050055D01*
X135385054Y-92171962D01*
X135304608Y-92302384D01*
X135252660Y-92349108D01*
X135183697Y-92360329D01*
X135119615Y-92332485D01*
X135111389Y-92324967D01*
X135105710Y-92319288D01*
X134999476Y-92240884D01*
X134874848Y-92197274D01*
X134874849Y-92197274D01*
X134845260Y-92194500D01*
X134845256Y-92194500D01*
X134164744Y-92194500D01*
X134164740Y-92194500D01*
X134135150Y-92197274D01*
X134010523Y-92240884D01*
X133904289Y-92319288D01*
X133904288Y-92319289D01*
X133825884Y-92425523D01*
X133782274Y-92550150D01*
X133779500Y-92579739D01*
X133779500Y-93160260D01*
X133782274Y-93189849D01*
X133825884Y-93314476D01*
X133904288Y-93420710D01*
X133904289Y-93420711D01*
X134010523Y-93499115D01*
X134010524Y-93499115D01*
X134010525Y-93499116D01*
X134135151Y-93542725D01*
X134135150Y-93542725D01*
X134164740Y-93545500D01*
X134164744Y-93545500D01*
X134845260Y-93545500D01*
X134874849Y-93542725D01*
X134883205Y-93539801D01*
X134999475Y-93499116D01*
X135105711Y-93420711D01*
X135105716Y-93420703D01*
X135111385Y-93415035D01*
X135172707Y-93381548D01*
X135242399Y-93386529D01*
X135298334Y-93428399D01*
X135304608Y-93437615D01*
X135385054Y-93568037D01*
X135506961Y-93689944D01*
X135506965Y-93689947D01*
X135653688Y-93780448D01*
X135653699Y-93780453D01*
X135817347Y-93834680D01*
X135918351Y-93844999D01*
X136110867Y-93844999D01*
X136177907Y-93864683D01*
X136223662Y-93917487D01*
X136233606Y-93986645D01*
X136204581Y-94050201D01*
X136198549Y-94056680D01*
X135712050Y-94543181D01*
X135650727Y-94576666D01*
X135624369Y-94579500D01*
X134658127Y-94579500D01*
X134591088Y-94559815D01*
X134570446Y-94543181D01*
X134506767Y-94479502D01*
X134506765Y-94479500D01*
X134425416Y-94432533D01*
X134392638Y-94413608D01*
X134284003Y-94384500D01*
X134265343Y-94379500D01*
X134133559Y-94379500D01*
X134006263Y-94413608D01*
X133892137Y-94479500D01*
X133892134Y-94479502D01*
X133798953Y-94572683D01*
X133798951Y-94572686D01*
X133738169Y-94677963D01*
X133687601Y-94726178D01*
X133618994Y-94739400D01*
X133554130Y-94713432D01*
X133523395Y-94677962D01*
X133465502Y-94577689D01*
X133465497Y-94577683D01*
X133372316Y-94484502D01*
X133372314Y-94484500D01*
X133282305Y-94432533D01*
X133258187Y-94418608D01*
X133194539Y-94401554D01*
X133130892Y-94384500D01*
X132999108Y-94384500D01*
X132871812Y-94418608D01*
X132757686Y-94484500D01*
X132757683Y-94484502D01*
X132664502Y-94577683D01*
X132664500Y-94577686D01*
X132598608Y-94691812D01*
X132569519Y-94800375D01*
X132564500Y-94819108D01*
X132564500Y-94950892D01*
X132566668Y-94958982D01*
X132598608Y-95078187D01*
X132623015Y-95120460D01*
X132664500Y-95192314D01*
X132757686Y-95285500D01*
X132871814Y-95351392D01*
X132999108Y-95385500D01*
X132999110Y-95385500D01*
X133109167Y-95385500D01*
X133176206Y-95405185D01*
X133196848Y-95421819D01*
X133660848Y-95885819D01*
X133694333Y-95947142D01*
X133689349Y-96016834D01*
X133647477Y-96072767D01*
X133582013Y-96097184D01*
X133573167Y-96097500D01*
X131982438Y-96097500D01*
X131951867Y-96105691D01*
X131906008Y-96117979D01*
X131906007Y-96117980D01*
X131856446Y-96146595D01*
X131856445Y-96146596D01*
X131837490Y-96157539D01*
X131837487Y-96157541D01*
X130528066Y-97466961D01*
X130466743Y-97500446D01*
X130428810Y-97502739D01*
X130408601Y-97500844D01*
X130394266Y-97499500D01*
X129185734Y-97499500D01*
X129185730Y-97499500D01*
X129155300Y-97502353D01*
X129155298Y-97502353D01*
X129027119Y-97547206D01*
X129027117Y-97547207D01*
X128917850Y-97627850D01*
X128837207Y-97737117D01*
X128837206Y-97737119D01*
X128792353Y-97865298D01*
X128792353Y-97865300D01*
X128789500Y-97895730D01*
X128789500Y-99104269D01*
X128792353Y-99134699D01*
X128792353Y-99134701D01*
X128837206Y-99262880D01*
X128837207Y-99262882D01*
X128865979Y-99301867D01*
X128889950Y-99367495D01*
X128874635Y-99435665D01*
X128824895Y-99484734D01*
X128766209Y-99499500D01*
X124624500Y-99499500D01*
X124557461Y-99479815D01*
X124511706Y-99427011D01*
X124500500Y-99375500D01*
X124500500Y-95960446D01*
X124520185Y-95893407D01*
X124572989Y-95847652D01*
X124642147Y-95837708D01*
X124693391Y-95857344D01*
X124841316Y-95956185D01*
X124841328Y-95956192D01*
X125023306Y-96031569D01*
X125023318Y-96031572D01*
X125216504Y-96069999D01*
X125216508Y-96070000D01*
X125465000Y-96070000D01*
X125465000Y-95370000D01*
X125965000Y-95370000D01*
X125965000Y-96070000D01*
X126213492Y-96070000D01*
X126213495Y-96069999D01*
X126406681Y-96031572D01*
X126406693Y-96031569D01*
X126588671Y-95956192D01*
X126588684Y-95956185D01*
X126752462Y-95846751D01*
X126752466Y-95846748D01*
X126891748Y-95707466D01*
X126891751Y-95707462D01*
X127001185Y-95543684D01*
X127001192Y-95543671D01*
X127076569Y-95361692D01*
X127076569Y-95361690D01*
X127084862Y-95320000D01*
X126281988Y-95320000D01*
X126299205Y-95310060D01*
X126355060Y-95254205D01*
X126394556Y-95185796D01*
X126415000Y-95109496D01*
X126415000Y-95030504D01*
X126394556Y-94954204D01*
X126355060Y-94885795D01*
X126299205Y-94829940D01*
X126281988Y-94820000D01*
X127084862Y-94820000D01*
X127076569Y-94778309D01*
X127076569Y-94778307D01*
X127001192Y-94596328D01*
X127001185Y-94596315D01*
X126891751Y-94432537D01*
X126891748Y-94432533D01*
X126752466Y-94293251D01*
X126752462Y-94293248D01*
X126588684Y-94183814D01*
X126588671Y-94183807D01*
X126406693Y-94108430D01*
X126406681Y-94108427D01*
X126213495Y-94070000D01*
X125965000Y-94070000D01*
X125965000Y-94770000D01*
X125465000Y-94770000D01*
X125465000Y-94070000D01*
X125216504Y-94070000D01*
X125023318Y-94108427D01*
X125023306Y-94108430D01*
X124841328Y-94183807D01*
X124841315Y-94183814D01*
X124693391Y-94282655D01*
X124626713Y-94303533D01*
X124559333Y-94285049D01*
X124512643Y-94233070D01*
X124500500Y-94179553D01*
X124500500Y-89564108D01*
X127619500Y-89564108D01*
X127619500Y-89695892D01*
X127632763Y-89745392D01*
X127653608Y-89823187D01*
X127673815Y-89858186D01*
X127719500Y-89937314D01*
X127812686Y-90030500D01*
X127926814Y-90096392D01*
X128054108Y-90130500D01*
X128054110Y-90130500D01*
X128185890Y-90130500D01*
X128185892Y-90130500D01*
X128313186Y-90096392D01*
X128427314Y-90030500D01*
X128520500Y-89937314D01*
X128563694Y-89862500D01*
X128614261Y-89814284D01*
X128671081Y-89800500D01*
X129570500Y-89800500D01*
X129637539Y-89820185D01*
X129683294Y-89872989D01*
X129694500Y-89924499D01*
X129694500Y-90102129D01*
X129694501Y-90102132D01*
X129703229Y-90146016D01*
X129704727Y-90153543D01*
X129698498Y-90223135D01*
X129670790Y-90265414D01*
X129409489Y-90526716D01*
X129353541Y-90582663D01*
X129353535Y-90582671D01*
X129313982Y-90651180D01*
X129313979Y-90651185D01*
X129311975Y-90658666D01*
X129293500Y-90727614D01*
X129293500Y-91272386D01*
X129301276Y-91301404D01*
X129313979Y-91348814D01*
X129313980Y-91348815D01*
X129325746Y-91369195D01*
X129334301Y-91384012D01*
X129347148Y-91406263D01*
X129353539Y-91417333D01*
X129353541Y-91417336D01*
X129670789Y-91734584D01*
X129704274Y-91795907D01*
X129704726Y-91846455D01*
X129694500Y-91897867D01*
X129694501Y-92075499D01*
X129674817Y-92142539D01*
X129622013Y-92188294D01*
X129570501Y-92199500D01*
X128744500Y-92199500D01*
X128677461Y-92179815D01*
X128631706Y-92127011D01*
X128621939Y-92082118D01*
X128621561Y-92082168D01*
X128620963Y-92077631D01*
X128620500Y-92075500D01*
X128620500Y-92074110D01*
X128620500Y-92074108D01*
X128586392Y-91946814D01*
X128520500Y-91832686D01*
X128427314Y-91739500D01*
X128363845Y-91702856D01*
X128313187Y-91673608D01*
X128249539Y-91656554D01*
X128185892Y-91639500D01*
X128054108Y-91639500D01*
X127926812Y-91673608D01*
X127812686Y-91739500D01*
X127812683Y-91739502D01*
X127719502Y-91832683D01*
X127719500Y-91832686D01*
X127653608Y-91946812D01*
X127634096Y-92019633D01*
X127619500Y-92074108D01*
X127619500Y-92205892D01*
X127628876Y-92240884D01*
X127653608Y-92333187D01*
X127667670Y-92357542D01*
X127719500Y-92447314D01*
X127812686Y-92540500D01*
X127926814Y-92606392D01*
X128054108Y-92640500D01*
X128054110Y-92640500D01*
X128144167Y-92640500D01*
X128211206Y-92660185D01*
X128231848Y-92676819D01*
X128239540Y-92684511D01*
X128295489Y-92740460D01*
X128295491Y-92740461D01*
X128295495Y-92740464D01*
X128352931Y-92773624D01*
X128364011Y-92780021D01*
X128440438Y-92800500D01*
X129575345Y-92800500D01*
X129642384Y-92820185D01*
X129688139Y-92872989D01*
X129698083Y-92942147D01*
X129695769Y-92958035D01*
X129694499Y-92966749D01*
X129694175Y-92971220D01*
X129692086Y-92971068D01*
X129674815Y-93029888D01*
X129622011Y-93075643D01*
X129552853Y-93085587D01*
X129538408Y-93082624D01*
X129470767Y-93064500D01*
X129470766Y-93064500D01*
X129319234Y-93064500D01*
X129172863Y-93103719D01*
X129041635Y-93179485D01*
X129041632Y-93179487D01*
X128934487Y-93286632D01*
X128934485Y-93286635D01*
X128858719Y-93417863D01*
X128840604Y-93485472D01*
X128819500Y-93564234D01*
X128819500Y-93715766D01*
X128834603Y-93772133D01*
X128858719Y-93862136D01*
X128860190Y-93864683D01*
X128934485Y-93993365D01*
X128934486Y-93993366D01*
X128938549Y-94000403D01*
X128936346Y-94001674D01*
X128956959Y-94054983D01*
X128942923Y-94123428D01*
X128894112Y-94173420D01*
X128880845Y-94179866D01*
X128871324Y-94183809D01*
X128871315Y-94183814D01*
X128707537Y-94293248D01*
X128707533Y-94293251D01*
X128568251Y-94432533D01*
X128568248Y-94432537D01*
X128458814Y-94596315D01*
X128458807Y-94596328D01*
X128383430Y-94778307D01*
X128383430Y-94778309D01*
X128375138Y-94820000D01*
X129178012Y-94820000D01*
X129160795Y-94829940D01*
X129104940Y-94885795D01*
X129065444Y-94954204D01*
X129045000Y-95030504D01*
X129045000Y-95109496D01*
X129065444Y-95185796D01*
X129104940Y-95254205D01*
X129160795Y-95310060D01*
X129178012Y-95320000D01*
X128375138Y-95320000D01*
X128383430Y-95361690D01*
X128383430Y-95361692D01*
X128458807Y-95543671D01*
X128458814Y-95543684D01*
X128568248Y-95707462D01*
X128568251Y-95707466D01*
X128707533Y-95846748D01*
X128707537Y-95846751D01*
X128871315Y-95956185D01*
X128871328Y-95956192D01*
X129053306Y-96031569D01*
X129053318Y-96031572D01*
X129246504Y-96069999D01*
X129246508Y-96070000D01*
X129645000Y-96070000D01*
X129645000Y-95370000D01*
X130145000Y-95370000D01*
X130145000Y-96070000D01*
X130543492Y-96070000D01*
X130543495Y-96069999D01*
X130736681Y-96031572D01*
X130736693Y-96031569D01*
X130918671Y-95956192D01*
X130918684Y-95956185D01*
X131082462Y-95846751D01*
X131082466Y-95846748D01*
X131221748Y-95707466D01*
X131221751Y-95707462D01*
X131331185Y-95543684D01*
X131331192Y-95543671D01*
X131406569Y-95361692D01*
X131406569Y-95361690D01*
X131414862Y-95320000D01*
X130611988Y-95320000D01*
X130629205Y-95310060D01*
X130685060Y-95254205D01*
X130724556Y-95185796D01*
X130745000Y-95109496D01*
X130745000Y-95030504D01*
X130724556Y-94954204D01*
X130685060Y-94885795D01*
X130629205Y-94829940D01*
X130611988Y-94820000D01*
X130720000Y-94820000D01*
X131414862Y-94820000D01*
X131406569Y-94778309D01*
X131406569Y-94778307D01*
X131359008Y-94663483D01*
X131351539Y-94594014D01*
X131382814Y-94531535D01*
X131385889Y-94528348D01*
X131412683Y-94501553D01*
X131412686Y-94501550D01*
X131496281Y-94360198D01*
X131542100Y-94202486D01*
X131542295Y-94200001D01*
X131542295Y-94200000D01*
X130720000Y-94200000D01*
X130720000Y-94820000D01*
X130611988Y-94820000D01*
X130560796Y-94790444D01*
X130484496Y-94770000D01*
X130220000Y-94770000D01*
X130220000Y-94200000D01*
X129948242Y-94200000D01*
X129881203Y-94180315D01*
X129835448Y-94127511D01*
X129825504Y-94058353D01*
X129851805Y-94000760D01*
X129850568Y-93999811D01*
X129855507Y-93993372D01*
X129855515Y-93993365D01*
X129931281Y-93862135D01*
X129950098Y-93791906D01*
X129986463Y-93732246D01*
X130049310Y-93701717D01*
X130069873Y-93700000D01*
X131542295Y-93700000D01*
X131542295Y-93699998D01*
X131542100Y-93697513D01*
X131496281Y-93539801D01*
X131412685Y-93398447D01*
X131412681Y-93398442D01*
X131296554Y-93282316D01*
X131293496Y-93279944D01*
X131291713Y-93277475D01*
X131291040Y-93276802D01*
X131291148Y-93276693D01*
X131252591Y-93223300D01*
X131245500Y-93181967D01*
X131245500Y-92966739D01*
X131235573Y-92898607D01*
X131216649Y-92859898D01*
X131203318Y-92832629D01*
X131191559Y-92763758D01*
X131195014Y-92745817D01*
X131200318Y-92726190D01*
X131229515Y-92682495D01*
X131245500Y-92602133D01*
X131245499Y-92559020D01*
X131249794Y-92543132D01*
X131259791Y-92526810D01*
X131265182Y-92508449D01*
X131277661Y-92497634D01*
X131286288Y-92483551D01*
X131303519Y-92475226D01*
X131317984Y-92462692D01*
X131334332Y-92460341D01*
X131349201Y-92453158D01*
X131368198Y-92455471D01*
X131387142Y-92452747D01*
X131401578Y-92455707D01*
X131494108Y-92480500D01*
X131494111Y-92480500D01*
X131625890Y-92480500D01*
X131625892Y-92480500D01*
X131753186Y-92446392D01*
X131867314Y-92380500D01*
X131960500Y-92287314D01*
X132026392Y-92173186D01*
X132060500Y-92045892D01*
X132060500Y-91914108D01*
X132026392Y-91786814D01*
X131962183Y-91675601D01*
X131945711Y-91607705D01*
X131968563Y-91541678D01*
X131981885Y-91525928D01*
X132030500Y-91477314D01*
X132096392Y-91363186D01*
X132130500Y-91235892D01*
X132130500Y-91104108D01*
X132101142Y-90994543D01*
X135359009Y-90994543D01*
X135393170Y-91028704D01*
X135393186Y-91028718D01*
X135470553Y-91091742D01*
X135470560Y-91091747D01*
X135622004Y-91167805D01*
X135786923Y-91206892D01*
X135956400Y-91206892D01*
X136121318Y-91167805D01*
X136272762Y-91091747D01*
X136272769Y-91091742D01*
X136350144Y-91028713D01*
X136350154Y-91028703D01*
X136366634Y-91012221D01*
X136366634Y-91012220D01*
X135853983Y-90499569D01*
X135359009Y-90994543D01*
X132101142Y-90994543D01*
X132096392Y-90976814D01*
X132030500Y-90862686D01*
X131937314Y-90769500D01*
X131864766Y-90727614D01*
X131823185Y-90703607D01*
X131812400Y-90700717D01*
X131752741Y-90664349D01*
X131722216Y-90601500D01*
X131720500Y-90580944D01*
X131720500Y-90203615D01*
X131709352Y-90162010D01*
X131700021Y-90127187D01*
X131660460Y-90058665D01*
X131645394Y-90043599D01*
X134793108Y-90043599D01*
X134793108Y-90213077D01*
X134832194Y-90377995D01*
X134908252Y-90529439D01*
X134908257Y-90529446D01*
X134971284Y-90606818D01*
X135005455Y-90640989D01*
X135500430Y-90146016D01*
X135500430Y-90146015D01*
X134987778Y-89633364D01*
X134971292Y-89649851D01*
X134971282Y-89649862D01*
X134908257Y-89727229D01*
X134908252Y-89727237D01*
X134832194Y-89878681D01*
X134793108Y-90043599D01*
X131645394Y-90043599D01*
X131604511Y-90002716D01*
X131361335Y-89759540D01*
X131361333Y-89759539D01*
X131361328Y-89759535D01*
X131344852Y-89750022D01*
X131344846Y-89750020D01*
X131323583Y-89737744D01*
X131306298Y-89727764D01*
X131258083Y-89677196D01*
X131244862Y-89608589D01*
X131244920Y-89608198D01*
X131244903Y-89608197D01*
X131245498Y-89602141D01*
X131245500Y-89602133D01*
X131245499Y-89397868D01*
X131229515Y-89317505D01*
X131229513Y-89317502D01*
X131224841Y-89306222D01*
X131226285Y-89305623D01*
X131209563Y-89252211D01*
X131225517Y-89194056D01*
X131224842Y-89193777D01*
X131227070Y-89188396D01*
X131228049Y-89184831D01*
X131229452Y-89182647D01*
X131229516Y-89182493D01*
X131243037Y-89114515D01*
X131245500Y-89102133D01*
X131245499Y-88897868D01*
X131229515Y-88817505D01*
X131211617Y-88790719D01*
X131190740Y-88724044D01*
X131203319Y-88667370D01*
X131208543Y-88656684D01*
X131235573Y-88601393D01*
X131245500Y-88533260D01*
X131245500Y-88318033D01*
X131265185Y-88250994D01*
X131293503Y-88220051D01*
X131296560Y-88217679D01*
X131412678Y-88101561D01*
X131412685Y-88101552D01*
X131496281Y-87960198D01*
X131542100Y-87802486D01*
X131542295Y-87800001D01*
X131542295Y-87800000D01*
X130720000Y-87800000D01*
X130706819Y-87813181D01*
X130645496Y-87846666D01*
X130619138Y-87849500D01*
X130320862Y-87849500D01*
X130253823Y-87829815D01*
X130233181Y-87813181D01*
X130220000Y-87800000D01*
X130069873Y-87800000D01*
X130002834Y-87780315D01*
X129957079Y-87727511D01*
X129950098Y-87708093D01*
X129948707Y-87702900D01*
X129931281Y-87637865D01*
X129855515Y-87506635D01*
X129855510Y-87506630D01*
X129850568Y-87500189D01*
X129853188Y-87498178D01*
X129827076Y-87450358D01*
X129832060Y-87380666D01*
X129873932Y-87324733D01*
X129939396Y-87300316D01*
X129948242Y-87300000D01*
X131542295Y-87300000D01*
X131542295Y-87299998D01*
X131542100Y-87297513D01*
X131496281Y-87139801D01*
X131412685Y-86998447D01*
X131412678Y-86998438D01*
X131385888Y-86971648D01*
X131352403Y-86910325D01*
X131357387Y-86840633D01*
X131359008Y-86836514D01*
X131406570Y-86721689D01*
X131414862Y-86680000D01*
X130611988Y-86680000D01*
X130629205Y-86670060D01*
X130670636Y-86628629D01*
X133233539Y-86628629D01*
X133233539Y-86628630D01*
X133253999Y-86770946D01*
X133313725Y-86901727D01*
X133351305Y-86948362D01*
X133632613Y-87229670D01*
X134304365Y-86557918D01*
X134304365Y-86557917D01*
X133703324Y-85956878D01*
X133703323Y-85956878D01*
X133351310Y-86308892D01*
X133351304Y-86308899D01*
X133313726Y-86355530D01*
X133313725Y-86355532D01*
X133253999Y-86486313D01*
X133233539Y-86628629D01*
X130670636Y-86628629D01*
X130685060Y-86614205D01*
X130724556Y-86545796D01*
X130745000Y-86469496D01*
X130745000Y-86390504D01*
X130724556Y-86314204D01*
X130685060Y-86245795D01*
X130629205Y-86189940D01*
X130611988Y-86180000D01*
X131414862Y-86180000D01*
X131406569Y-86138309D01*
X131406569Y-86138307D01*
X131331192Y-85956328D01*
X131331185Y-85956315D01*
X131221751Y-85792537D01*
X131221748Y-85792533D01*
X131082466Y-85653251D01*
X131082462Y-85653248D01*
X130918684Y-85543814D01*
X130918671Y-85543807D01*
X130736693Y-85468430D01*
X130736681Y-85468427D01*
X130543495Y-85430000D01*
X130145000Y-85430000D01*
X130145000Y-86130000D01*
X129645000Y-86130000D01*
X129645000Y-85430000D01*
X129246504Y-85430000D01*
X129053318Y-85468427D01*
X129053306Y-85468430D01*
X128871328Y-85543807D01*
X128871315Y-85543814D01*
X128707537Y-85653248D01*
X128707533Y-85653251D01*
X128568251Y-85792533D01*
X128568248Y-85792537D01*
X128458814Y-85956315D01*
X128458807Y-85956328D01*
X128383430Y-86138307D01*
X128383430Y-86138309D01*
X128375138Y-86180000D01*
X129178012Y-86180000D01*
X129160795Y-86189940D01*
X129104940Y-86245795D01*
X129065444Y-86314204D01*
X129045000Y-86390504D01*
X129045000Y-86469496D01*
X129065444Y-86545796D01*
X129104940Y-86614205D01*
X129160795Y-86670060D01*
X129178012Y-86680000D01*
X128375138Y-86680000D01*
X128383430Y-86721690D01*
X128383430Y-86721692D01*
X128458807Y-86903671D01*
X128458814Y-86903684D01*
X128568248Y-87067462D01*
X128568251Y-87067466D01*
X128707533Y-87206748D01*
X128707537Y-87206751D01*
X128871315Y-87316185D01*
X128871328Y-87316192D01*
X128880838Y-87320131D01*
X128935243Y-87363970D01*
X128957310Y-87430264D01*
X128940033Y-87497963D01*
X128936350Y-87503405D01*
X128858719Y-87637863D01*
X128833902Y-87730483D01*
X128819500Y-87784234D01*
X128819500Y-87935766D01*
X128831425Y-87980270D01*
X128858719Y-88082136D01*
X128887903Y-88132683D01*
X128934485Y-88213365D01*
X129041635Y-88320515D01*
X129172865Y-88396281D01*
X129319234Y-88435500D01*
X129319236Y-88435500D01*
X129470763Y-88435500D01*
X129470766Y-88435500D01*
X129538409Y-88417375D01*
X129608256Y-88419038D01*
X129666119Y-88458200D01*
X129689380Y-88501887D01*
X129694500Y-88519147D01*
X129694500Y-88533260D01*
X129704427Y-88601393D01*
X129741220Y-88676655D01*
X129744160Y-88686566D01*
X129744229Y-88711580D01*
X129748440Y-88736242D01*
X129744328Y-88747410D01*
X129744353Y-88756436D01*
X129736449Y-88768808D01*
X129728383Y-88790719D01*
X129710484Y-88817506D01*
X129710483Y-88817509D01*
X129694500Y-88897863D01*
X129694500Y-88897865D01*
X129694500Y-88897867D01*
X129694500Y-88991347D01*
X129694501Y-89075499D01*
X129674817Y-89142539D01*
X129622013Y-89188294D01*
X129570501Y-89199500D01*
X128408578Y-89199500D01*
X128346578Y-89182887D01*
X128346162Y-89182647D01*
X128318483Y-89166666D01*
X128313188Y-89163609D01*
X128313187Y-89163608D01*
X128313186Y-89163608D01*
X128185892Y-89129500D01*
X128054108Y-89129500D01*
X127926812Y-89163608D01*
X127812686Y-89229500D01*
X127812683Y-89229502D01*
X127719502Y-89322683D01*
X127719500Y-89322686D01*
X127653608Y-89436812D01*
X127630352Y-89523608D01*
X127619500Y-89564108D01*
X124500500Y-89564108D01*
X124500500Y-87320446D01*
X124520185Y-87253407D01*
X124572989Y-87207652D01*
X124642147Y-87197708D01*
X124693391Y-87217344D01*
X124841316Y-87316185D01*
X124841328Y-87316192D01*
X125023306Y-87391569D01*
X125023318Y-87391572D01*
X125216504Y-87429999D01*
X125216508Y-87430000D01*
X125465000Y-87430000D01*
X125465000Y-86730000D01*
X125965000Y-86730000D01*
X125965000Y-87430000D01*
X126213492Y-87430000D01*
X126213495Y-87429999D01*
X126406681Y-87391572D01*
X126406693Y-87391569D01*
X126588671Y-87316192D01*
X126588684Y-87316185D01*
X126752462Y-87206751D01*
X126752466Y-87206748D01*
X126891748Y-87067466D01*
X126891751Y-87067462D01*
X127001185Y-86903684D01*
X127001192Y-86903671D01*
X127076569Y-86721692D01*
X127076569Y-86721690D01*
X127084862Y-86680000D01*
X126281988Y-86680000D01*
X126299205Y-86670060D01*
X126355060Y-86614205D01*
X126394556Y-86545796D01*
X126415000Y-86469496D01*
X126415000Y-86390504D01*
X126394556Y-86314204D01*
X126355060Y-86245795D01*
X126299205Y-86189940D01*
X126281988Y-86180000D01*
X127084862Y-86180000D01*
X127076569Y-86138309D01*
X127076569Y-86138307D01*
X127001192Y-85956328D01*
X127001185Y-85956315D01*
X126891751Y-85792537D01*
X126891748Y-85792533D01*
X126752466Y-85653251D01*
X126752462Y-85653248D01*
X126588684Y-85543814D01*
X126588671Y-85543807D01*
X126406693Y-85468430D01*
X126406681Y-85468427D01*
X126213495Y-85430000D01*
X125965000Y-85430000D01*
X125965000Y-86130000D01*
X125465000Y-86130000D01*
X125465000Y-85430000D01*
X125216504Y-85430000D01*
X125023318Y-85468427D01*
X125023306Y-85468430D01*
X124841328Y-85543807D01*
X124841315Y-85543814D01*
X124693391Y-85642655D01*
X124626713Y-85663533D01*
X124559333Y-85645049D01*
X124512643Y-85593070D01*
X124500500Y-85539553D01*
X124500500Y-82384500D01*
X124520185Y-82317461D01*
X124572989Y-82271706D01*
X124624500Y-82260500D01*
X129076608Y-82260500D01*
X129143647Y-82280185D01*
G37*
%TD.AperFunction*%
%TA.AperFunction,Conductor*%
G36*
X154543647Y-82280185D02*
G01*
X154589402Y-82332989D01*
X154599346Y-82402147D01*
X154570321Y-82465703D01*
X154555275Y-82480352D01*
X154552212Y-82482865D01*
X154412863Y-82622214D01*
X154412860Y-82622218D01*
X154303371Y-82786079D01*
X154303364Y-82786092D01*
X154227950Y-82968160D01*
X154227947Y-82968170D01*
X154189500Y-83161456D01*
X154189500Y-83161459D01*
X154189500Y-83358541D01*
X154189500Y-83358543D01*
X154189499Y-83358543D01*
X154227947Y-83551829D01*
X154227950Y-83551839D01*
X154303364Y-83733907D01*
X154303371Y-83733920D01*
X154412860Y-83897781D01*
X154412863Y-83897785D01*
X154552214Y-84037136D01*
X154552218Y-84037139D01*
X154716079Y-84146628D01*
X154716092Y-84146635D01*
X154866188Y-84208806D01*
X154898165Y-84222051D01*
X154898169Y-84222051D01*
X154898170Y-84222052D01*
X155091456Y-84260500D01*
X155091459Y-84260500D01*
X155288543Y-84260500D01*
X155438887Y-84230594D01*
X155481835Y-84222051D01*
X155663914Y-84146632D01*
X155827782Y-84037139D01*
X155967139Y-83897782D01*
X156076632Y-83733914D01*
X156152051Y-83551835D01*
X156179390Y-83414394D01*
X156190500Y-83358543D01*
X156190500Y-83161456D01*
X156152052Y-82968170D01*
X156152051Y-82968169D01*
X156152051Y-82968165D01*
X156107248Y-82860000D01*
X156076635Y-82786092D01*
X156076628Y-82786079D01*
X155967139Y-82622218D01*
X155967136Y-82622214D01*
X155827787Y-82482865D01*
X155824725Y-82480352D01*
X155823552Y-82478630D01*
X155823475Y-82478553D01*
X155823489Y-82478538D01*
X155785392Y-82422605D01*
X155783523Y-82352761D01*
X155819711Y-82292993D01*
X155882468Y-82262278D01*
X155903392Y-82260500D01*
X157016608Y-82260500D01*
X157083647Y-82280185D01*
X157129402Y-82332989D01*
X157139346Y-82402147D01*
X157110321Y-82465703D01*
X157095275Y-82480352D01*
X157092212Y-82482865D01*
X156952863Y-82622214D01*
X156952860Y-82622218D01*
X156843371Y-82786079D01*
X156843364Y-82786092D01*
X156767950Y-82968160D01*
X156767947Y-82968170D01*
X156729500Y-83161456D01*
X156729500Y-83161459D01*
X156729500Y-83358541D01*
X156729500Y-83358543D01*
X156729499Y-83358543D01*
X156767947Y-83551829D01*
X156767950Y-83551839D01*
X156843364Y-83733907D01*
X156843371Y-83733920D01*
X156952860Y-83897781D01*
X156952863Y-83897785D01*
X157092214Y-84037136D01*
X157092218Y-84037139D01*
X157256079Y-84146628D01*
X157256092Y-84146635D01*
X157406188Y-84208806D01*
X157438165Y-84222051D01*
X157438169Y-84222051D01*
X157438170Y-84222052D01*
X157631456Y-84260500D01*
X157631459Y-84260500D01*
X157828543Y-84260500D01*
X157978887Y-84230594D01*
X158021835Y-84222051D01*
X158203914Y-84146632D01*
X158367782Y-84037139D01*
X158507139Y-83897782D01*
X158616632Y-83733914D01*
X158692051Y-83551835D01*
X158719390Y-83414394D01*
X158730500Y-83358543D01*
X158730500Y-83161456D01*
X158692052Y-82968170D01*
X158692051Y-82968169D01*
X158692051Y-82968165D01*
X158647248Y-82860000D01*
X158616635Y-82786092D01*
X158616628Y-82786079D01*
X158507139Y-82622218D01*
X158507136Y-82622214D01*
X158367787Y-82482865D01*
X158364725Y-82480352D01*
X158363552Y-82478630D01*
X158363475Y-82478553D01*
X158363489Y-82478538D01*
X158325392Y-82422605D01*
X158323523Y-82352761D01*
X158359711Y-82292993D01*
X158422468Y-82262278D01*
X158443392Y-82260500D01*
X159375500Y-82260500D01*
X159442539Y-82280185D01*
X159488294Y-82332989D01*
X159499500Y-82384500D01*
X159499500Y-99375500D01*
X159479815Y-99442539D01*
X159427011Y-99488294D01*
X159375500Y-99499500D01*
X158443392Y-99499500D01*
X158376353Y-99479815D01*
X158330598Y-99427011D01*
X158320654Y-99357853D01*
X158349679Y-99294297D01*
X158364725Y-99279648D01*
X158367776Y-99277142D01*
X158367782Y-99277139D01*
X158507139Y-99137782D01*
X158616632Y-98973914D01*
X158692051Y-98791835D01*
X158730500Y-98598541D01*
X158730500Y-98401459D01*
X158730500Y-98401456D01*
X158692052Y-98208170D01*
X158692051Y-98208169D01*
X158692051Y-98208165D01*
X158649664Y-98105833D01*
X158616635Y-98026092D01*
X158616628Y-98026079D01*
X158507139Y-97862218D01*
X158507136Y-97862214D01*
X158367785Y-97722863D01*
X158367781Y-97722860D01*
X158203920Y-97613371D01*
X158203907Y-97613364D01*
X158021839Y-97537950D01*
X158021829Y-97537947D01*
X157828543Y-97499500D01*
X157828541Y-97499500D01*
X157631459Y-97499500D01*
X157631457Y-97499500D01*
X157438170Y-97537947D01*
X157438160Y-97537950D01*
X157256092Y-97613364D01*
X157256079Y-97613371D01*
X157092218Y-97722860D01*
X157092214Y-97722863D01*
X156952863Y-97862214D01*
X156952860Y-97862218D01*
X156843371Y-98026079D01*
X156843364Y-98026092D01*
X156767950Y-98208160D01*
X156767947Y-98208170D01*
X156729500Y-98401456D01*
X156729500Y-98401459D01*
X156729500Y-98598541D01*
X156729500Y-98598543D01*
X156729499Y-98598543D01*
X156767947Y-98791829D01*
X156767950Y-98791839D01*
X156843364Y-98973907D01*
X156843371Y-98973920D01*
X156952860Y-99137781D01*
X156952863Y-99137785D01*
X157092212Y-99277134D01*
X157095275Y-99279648D01*
X157096447Y-99281369D01*
X157096525Y-99281447D01*
X157096510Y-99281461D01*
X157134608Y-99337395D01*
X157136477Y-99407239D01*
X157100289Y-99467007D01*
X157037532Y-99497722D01*
X157016608Y-99499500D01*
X155903392Y-99499500D01*
X155836353Y-99479815D01*
X155790598Y-99427011D01*
X155780654Y-99357853D01*
X155809679Y-99294297D01*
X155824725Y-99279648D01*
X155827776Y-99277142D01*
X155827782Y-99277139D01*
X155967139Y-99137782D01*
X156076632Y-98973914D01*
X156152051Y-98791835D01*
X156190500Y-98598541D01*
X156190500Y-98401459D01*
X156190500Y-98401456D01*
X156152052Y-98208170D01*
X156152051Y-98208169D01*
X156152051Y-98208165D01*
X156109664Y-98105833D01*
X156076635Y-98026092D01*
X156076628Y-98026079D01*
X155967139Y-97862218D01*
X155967136Y-97862214D01*
X155827785Y-97722863D01*
X155827781Y-97722860D01*
X155663920Y-97613371D01*
X155663907Y-97613364D01*
X155481839Y-97537950D01*
X155481829Y-97537947D01*
X155288543Y-97499500D01*
X155288541Y-97499500D01*
X155091459Y-97499500D01*
X155091457Y-97499500D01*
X154898170Y-97537947D01*
X154898160Y-97537950D01*
X154716092Y-97613364D01*
X154716079Y-97613371D01*
X154552218Y-97722860D01*
X154552214Y-97722863D01*
X154412863Y-97862214D01*
X154412860Y-97862218D01*
X154303371Y-98026079D01*
X154303364Y-98026092D01*
X154227950Y-98208160D01*
X154227947Y-98208170D01*
X154189500Y-98401456D01*
X154189500Y-98401459D01*
X154189500Y-98598541D01*
X154189500Y-98598543D01*
X154189499Y-98598543D01*
X154227947Y-98791829D01*
X154227950Y-98791839D01*
X154303364Y-98973907D01*
X154303371Y-98973920D01*
X154412860Y-99137781D01*
X154412863Y-99137785D01*
X154552212Y-99277134D01*
X154555275Y-99279648D01*
X154556447Y-99281369D01*
X154556525Y-99281447D01*
X154556510Y-99281461D01*
X154594608Y-99337395D01*
X154596477Y-99407239D01*
X154560289Y-99467007D01*
X154497532Y-99497722D01*
X154476608Y-99499500D01*
X153363392Y-99499500D01*
X153296353Y-99479815D01*
X153250598Y-99427011D01*
X153240654Y-99357853D01*
X153269679Y-99294297D01*
X153284725Y-99279648D01*
X153287776Y-99277142D01*
X153287782Y-99277139D01*
X153427139Y-99137782D01*
X153536632Y-98973914D01*
X153612051Y-98791835D01*
X153650500Y-98598541D01*
X153650500Y-98401459D01*
X153650500Y-98401456D01*
X153612052Y-98208170D01*
X153612051Y-98208169D01*
X153612051Y-98208165D01*
X153569664Y-98105833D01*
X153536635Y-98026092D01*
X153536628Y-98026079D01*
X153427139Y-97862218D01*
X153427136Y-97862214D01*
X153287785Y-97722863D01*
X153287781Y-97722860D01*
X153123920Y-97613371D01*
X153123907Y-97613364D01*
X152941839Y-97537950D01*
X152941829Y-97537947D01*
X152748543Y-97499500D01*
X152748541Y-97499500D01*
X152551459Y-97499500D01*
X152551457Y-97499500D01*
X152358170Y-97537947D01*
X152358160Y-97537950D01*
X152176092Y-97613364D01*
X152176079Y-97613371D01*
X152012218Y-97722860D01*
X152012214Y-97722863D01*
X151872863Y-97862214D01*
X151872860Y-97862218D01*
X151763371Y-98026079D01*
X151763364Y-98026092D01*
X151687950Y-98208160D01*
X151687947Y-98208170D01*
X151649500Y-98401456D01*
X151649500Y-98401459D01*
X151649500Y-98598541D01*
X151649500Y-98598543D01*
X151649499Y-98598543D01*
X151687947Y-98791829D01*
X151687950Y-98791839D01*
X151763364Y-98973907D01*
X151763371Y-98973920D01*
X151872860Y-99137781D01*
X151872863Y-99137785D01*
X152012212Y-99277134D01*
X152015275Y-99279648D01*
X152016447Y-99281369D01*
X152016525Y-99281447D01*
X152016510Y-99281461D01*
X152054608Y-99337395D01*
X152056477Y-99407239D01*
X152020289Y-99467007D01*
X151957532Y-99497722D01*
X151936608Y-99499500D01*
X150823392Y-99499500D01*
X150756353Y-99479815D01*
X150710598Y-99427011D01*
X150700654Y-99357853D01*
X150729679Y-99294297D01*
X150744725Y-99279648D01*
X150747776Y-99277142D01*
X150747782Y-99277139D01*
X150887139Y-99137782D01*
X150996632Y-98973914D01*
X151072051Y-98791835D01*
X151110500Y-98598541D01*
X151110500Y-98401459D01*
X151110500Y-98401456D01*
X151072052Y-98208170D01*
X151072051Y-98208169D01*
X151072051Y-98208165D01*
X151029664Y-98105833D01*
X150996635Y-98026092D01*
X150996628Y-98026079D01*
X150887139Y-97862218D01*
X150887136Y-97862214D01*
X150747785Y-97722863D01*
X150747781Y-97722860D01*
X150583920Y-97613371D01*
X150583907Y-97613364D01*
X150401839Y-97537950D01*
X150401829Y-97537947D01*
X150283185Y-97514347D01*
X150221274Y-97481962D01*
X150219696Y-97480411D01*
X147698267Y-94958982D01*
X147664782Y-94897659D01*
X147669766Y-94827967D01*
X147708145Y-94774747D01*
X147739012Y-94749873D01*
X147739018Y-94749868D01*
X147790509Y-94698376D01*
X147790509Y-94698375D01*
X146871270Y-93779138D01*
X145952031Y-92859898D01*
X145900537Y-92911392D01*
X145900532Y-92911398D01*
X145862955Y-92958028D01*
X145862950Y-92958035D01*
X145803228Y-93088808D01*
X145803226Y-93088816D01*
X145782766Y-93231130D01*
X145782766Y-93231131D01*
X145801786Y-93363430D01*
X145791842Y-93432588D01*
X145766729Y-93468756D01*
X145566487Y-93668999D01*
X145566478Y-93669009D01*
X145526569Y-93728738D01*
X145525487Y-93728015D01*
X145489790Y-93772307D01*
X145467944Y-93784235D01*
X145417638Y-93817849D01*
X145417630Y-93817855D01*
X145000799Y-94234686D01*
X145000793Y-94234694D01*
X144960884Y-94294423D01*
X144959802Y-94293700D01*
X144924105Y-94337992D01*
X144902255Y-94349922D01*
X144851952Y-94383534D01*
X144851944Y-94383540D01*
X144435113Y-94800371D01*
X144435107Y-94800379D01*
X144395198Y-94860108D01*
X144394116Y-94859385D01*
X144358422Y-94903676D01*
X144336573Y-94915606D01*
X144286267Y-94949220D01*
X144286259Y-94949226D01*
X143869428Y-95366057D01*
X143869425Y-95366061D01*
X143863102Y-95375525D01*
X143809490Y-95420330D01*
X143740165Y-95429037D01*
X143677137Y-95398883D01*
X143656898Y-95375525D01*
X143650574Y-95366061D01*
X143650571Y-95366057D01*
X143233740Y-94949226D01*
X143233732Y-94949220D01*
X143174004Y-94909311D01*
X143174727Y-94908228D01*
X143130440Y-94872541D01*
X143118511Y-94850692D01*
X143084889Y-94800375D01*
X143084886Y-94800371D01*
X142668055Y-94383540D01*
X142668047Y-94383534D01*
X142608319Y-94343625D01*
X142609041Y-94342543D01*
X142564751Y-94306849D01*
X142552826Y-94285010D01*
X142551252Y-94282655D01*
X142519203Y-94234690D01*
X142519200Y-94234686D01*
X142102369Y-93817855D01*
X142102361Y-93817849D01*
X142042633Y-93777940D01*
X142043355Y-93776858D01*
X141999064Y-93741161D01*
X141987141Y-93719325D01*
X141975464Y-93701850D01*
X141953518Y-93669005D01*
X141953513Y-93668999D01*
X141536684Y-93252170D01*
X141536676Y-93252164D01*
X141476948Y-93212255D01*
X141477670Y-93211173D01*
X141433380Y-93175479D01*
X141421451Y-93153632D01*
X141387832Y-93103319D01*
X141387829Y-93103315D01*
X140970998Y-92686484D01*
X140970990Y-92686478D01*
X140911262Y-92646569D01*
X140911984Y-92645487D01*
X140867693Y-92609790D01*
X140855770Y-92587954D01*
X140822147Y-92537634D01*
X140822144Y-92537630D01*
X140405313Y-92120799D01*
X140405305Y-92120793D01*
X140345577Y-92080884D01*
X140346300Y-92079801D01*
X140302013Y-92044114D01*
X140290084Y-92022265D01*
X140256462Y-91971948D01*
X140256459Y-91971944D01*
X139839628Y-91555113D01*
X139839620Y-91555107D01*
X139779892Y-91515198D01*
X139780614Y-91514116D01*
X139736324Y-91478422D01*
X139724399Y-91456583D01*
X139690776Y-91406263D01*
X139690773Y-91406259D01*
X139508622Y-91224108D01*
X142489500Y-91224108D01*
X142489500Y-91355892D01*
X142495465Y-91378155D01*
X142523608Y-91483187D01*
X142546413Y-91522686D01*
X142589500Y-91597314D01*
X142682686Y-91690500D01*
X142796814Y-91756392D01*
X142924108Y-91790500D01*
X142924110Y-91790500D01*
X143055889Y-91790500D01*
X143055892Y-91790500D01*
X143103408Y-91777768D01*
X143173256Y-91779431D01*
X143231119Y-91818593D01*
X143258623Y-91882822D01*
X143259320Y-91894524D01*
X143259500Y-91895890D01*
X143259500Y-91895892D01*
X143267554Y-91925951D01*
X143293608Y-92023187D01*
X143306717Y-92045892D01*
X143359500Y-92137314D01*
X143452686Y-92230500D01*
X143566814Y-92296392D01*
X143694108Y-92330500D01*
X143694110Y-92330500D01*
X143825890Y-92330500D01*
X143825892Y-92330500D01*
X143953186Y-92296392D01*
X144067314Y-92230500D01*
X144160500Y-92137314D01*
X144226392Y-92023186D01*
X144260500Y-91895892D01*
X144260500Y-91833598D01*
X144280185Y-91766559D01*
X144332989Y-91720804D01*
X144402147Y-91710860D01*
X144439140Y-91723664D01*
X144439300Y-91723280D01*
X144445759Y-91725955D01*
X144446503Y-91726212D01*
X144446814Y-91726392D01*
X144574108Y-91760500D01*
X144574110Y-91760500D01*
X144705890Y-91760500D01*
X144705892Y-91760500D01*
X144833186Y-91726392D01*
X144947314Y-91660500D01*
X145040500Y-91567314D01*
X145106392Y-91453186D01*
X145140500Y-91325892D01*
X145140500Y-91194108D01*
X145106392Y-91066814D01*
X145040500Y-90952686D01*
X144947314Y-90859500D01*
X144877620Y-90819262D01*
X144833187Y-90793608D01*
X144747217Y-90770573D01*
X144705892Y-90759500D01*
X144574108Y-90759500D01*
X144446812Y-90793608D01*
X144332686Y-90859500D01*
X144332683Y-90859502D01*
X144239502Y-90952683D01*
X144239500Y-90952686D01*
X144173608Y-91066812D01*
X144139500Y-91194108D01*
X144139500Y-91256401D01*
X144119815Y-91323440D01*
X144067011Y-91369195D01*
X143997853Y-91379139D01*
X143960858Y-91366336D01*
X143960700Y-91366720D01*
X143954257Y-91364051D01*
X143953507Y-91363792D01*
X143953193Y-91363611D01*
X143953188Y-91363609D01*
X143953187Y-91363608D01*
X143953186Y-91363608D01*
X143825892Y-91329500D01*
X143694108Y-91329500D01*
X143694105Y-91329500D01*
X143646592Y-91342231D01*
X143576742Y-91340567D01*
X143518880Y-91301404D01*
X143491377Y-91237175D01*
X143490680Y-91225477D01*
X143490500Y-91224115D01*
X143490500Y-91224108D01*
X143456392Y-91096814D01*
X143390500Y-90982686D01*
X143297314Y-90889500D01*
X143195141Y-90830510D01*
X143183187Y-90823608D01*
X143084405Y-90797140D01*
X143055892Y-90789500D01*
X142924108Y-90789500D01*
X142796812Y-90823608D01*
X142682686Y-90889500D01*
X142682683Y-90889502D01*
X142589502Y-90982683D01*
X142589500Y-90982686D01*
X142523608Y-91096812D01*
X142504586Y-91167805D01*
X142489500Y-91224108D01*
X139508622Y-91224108D01*
X139273940Y-90989426D01*
X139267891Y-90985384D01*
X139264475Y-90983102D01*
X139219671Y-90929493D01*
X139210961Y-90860169D01*
X139241114Y-90797140D01*
X139264475Y-90776897D01*
X139273939Y-90770574D01*
X139690776Y-90353737D01*
X139723904Y-90304158D01*
X139723903Y-90304158D01*
X139730690Y-90294003D01*
X139731773Y-90294727D01*
X139767451Y-90250446D01*
X139789306Y-90238511D01*
X139790045Y-90238017D01*
X139790046Y-90238017D01*
X139839625Y-90204889D01*
X140120406Y-89924108D01*
X143249500Y-89924108D01*
X143249500Y-90055892D01*
X143261889Y-90102129D01*
X143283608Y-90183187D01*
X143315265Y-90238017D01*
X143349500Y-90297314D01*
X143442686Y-90390500D01*
X143556814Y-90456392D01*
X143684108Y-90490500D01*
X143684110Y-90490500D01*
X143815890Y-90490500D01*
X143815892Y-90490500D01*
X143943186Y-90456392D01*
X144057314Y-90390500D01*
X144150500Y-90297314D01*
X144216392Y-90183186D01*
X144250500Y-90055892D01*
X144250500Y-89924108D01*
X144216392Y-89796814D01*
X144216029Y-89796186D01*
X144205275Y-89777559D01*
X144150500Y-89682686D01*
X144057314Y-89589500D01*
X144000250Y-89556554D01*
X143943187Y-89523608D01*
X143879539Y-89506554D01*
X143815892Y-89489500D01*
X143684108Y-89489500D01*
X143556812Y-89523608D01*
X143442686Y-89589500D01*
X143442683Y-89589502D01*
X143349502Y-89682683D01*
X143349500Y-89682686D01*
X143283608Y-89796812D01*
X143263197Y-89872989D01*
X143249500Y-89924108D01*
X140120406Y-89924108D01*
X140256462Y-89788052D01*
X140289590Y-89738473D01*
X140291404Y-89729351D01*
X140305749Y-89710788D01*
X140321180Y-89699600D01*
X140333139Y-89684758D01*
X140354990Y-89672826D01*
X140375499Y-89659122D01*
X140405310Y-89639203D01*
X140605561Y-89438951D01*
X140666878Y-89405470D01*
X140710884Y-89403898D01*
X140843184Y-89422919D01*
X140985497Y-89402459D01*
X140985505Y-89402457D01*
X141116278Y-89342735D01*
X141116285Y-89342730D01*
X141162922Y-89305148D01*
X141162924Y-89305146D01*
X141214415Y-89253654D01*
X141214415Y-89253653D01*
X140295176Y-88334416D01*
X139766733Y-87805972D01*
X139725812Y-87805972D01*
X139658773Y-87786287D01*
X139638131Y-87769653D01*
X139026920Y-87158442D01*
X138993435Y-87097119D01*
X138998419Y-87027427D01*
X139026920Y-86983080D01*
X139116016Y-86893984D01*
X139116014Y-86893982D01*
X139469569Y-86893982D01*
X139469569Y-86893983D01*
X139591425Y-87015840D01*
X139632345Y-87015840D01*
X139699384Y-87035525D01*
X139720026Y-87052159D01*
X140471953Y-87804085D01*
X140510594Y-87804085D01*
X140577633Y-87823770D01*
X140617979Y-87866082D01*
X140637139Y-87899267D01*
X140730325Y-87992453D01*
X140761852Y-88010655D01*
X140763506Y-88011610D01*
X140811722Y-88062177D01*
X140825506Y-88118997D01*
X140825506Y-88157638D01*
X141567967Y-88900101D01*
X141567969Y-88900101D01*
X141619462Y-88848608D01*
X141657044Y-88801971D01*
X141657049Y-88801964D01*
X141716771Y-88671191D01*
X141716773Y-88671183D01*
X141737233Y-88528870D01*
X141720957Y-88415656D01*
X141730901Y-88346498D01*
X141776656Y-88293694D01*
X141843696Y-88274010D01*
X141861341Y-88275272D01*
X141974555Y-88291548D01*
X142116868Y-88271088D01*
X142116876Y-88271086D01*
X142247649Y-88211364D01*
X142247656Y-88211359D01*
X142294293Y-88173777D01*
X142294295Y-88173775D01*
X142345786Y-88122283D01*
X142345786Y-88122282D01*
X141603323Y-87379821D01*
X141564684Y-87379821D01*
X141497645Y-87360136D01*
X141457297Y-87317822D01*
X141456352Y-87316185D01*
X141438139Y-87284639D01*
X141344953Y-87191453D01*
X141331154Y-87183486D01*
X141311768Y-87172293D01*
X141263554Y-87121725D01*
X141249770Y-87064907D01*
X141249770Y-87026267D01*
X140507308Y-86283805D01*
X140455814Y-86335299D01*
X140455809Y-86335305D01*
X140418232Y-86381935D01*
X140418227Y-86381942D01*
X140358505Y-86512715D01*
X140358503Y-86512722D01*
X140348925Y-86579343D01*
X140319900Y-86642898D01*
X140261121Y-86680672D01*
X140191252Y-86680672D01*
X140132474Y-86642897D01*
X140115377Y-86617346D01*
X140061746Y-86510559D01*
X140061742Y-86510553D01*
X139998715Y-86433181D01*
X139998710Y-86433176D01*
X139964544Y-86399009D01*
X139469569Y-86893982D01*
X139116014Y-86893982D01*
X139026920Y-86804888D01*
X138993435Y-86743565D01*
X138998419Y-86673873D01*
X139026920Y-86629526D01*
X139610990Y-86045456D01*
X139576829Y-86011295D01*
X139576813Y-86011281D01*
X139499446Y-85948257D01*
X139499439Y-85948252D01*
X139347995Y-85872194D01*
X139183077Y-85833108D01*
X139013600Y-85833108D01*
X138858036Y-85869977D01*
X138788264Y-85866283D01*
X138732888Y-85827124D01*
X138722255Y-85813930D01*
X138722244Y-85813917D01*
X138440940Y-85532613D01*
X138440939Y-85532613D01*
X137680092Y-86293460D01*
X137618769Y-86326945D01*
X137549077Y-86321961D01*
X137504730Y-86293460D01*
X137326538Y-86115268D01*
X137293053Y-86053945D01*
X137298037Y-85984253D01*
X137326538Y-85939906D01*
X138087386Y-85179058D01*
X137806082Y-84897755D01*
X137806078Y-84897751D01*
X137759443Y-84860171D01*
X137628662Y-84800445D01*
X137584364Y-84794076D01*
X137520809Y-84765051D01*
X137483035Y-84706272D01*
X137483035Y-84636403D01*
X137520810Y-84577625D01*
X137582615Y-84548865D01*
X137714417Y-84527990D01*
X137909031Y-84464755D01*
X138091349Y-84371859D01*
X138135921Y-84339474D01*
X137456447Y-83660000D01*
X137462661Y-83660000D01*
X137564394Y-83632741D01*
X137655606Y-83580080D01*
X137730080Y-83505606D01*
X137782741Y-83414394D01*
X137810000Y-83312661D01*
X137810000Y-83306447D01*
X138489474Y-83985921D01*
X138521859Y-83941349D01*
X138614755Y-83759031D01*
X138677990Y-83564417D01*
X138707875Y-83375731D01*
X138737804Y-83312596D01*
X138797116Y-83275665D01*
X138866978Y-83276663D01*
X138925211Y-83315273D01*
X138951965Y-83370937D01*
X138987947Y-83551829D01*
X138987950Y-83551839D01*
X139063364Y-83733907D01*
X139063371Y-83733920D01*
X139172860Y-83897781D01*
X139172863Y-83897785D01*
X139312217Y-84037139D01*
X139436706Y-84120319D01*
X139476086Y-84146632D01*
X139574631Y-84187450D01*
X139629033Y-84231289D01*
X139645471Y-84273800D01*
X139647397Y-84273285D01*
X139649500Y-84281133D01*
X139649500Y-84281135D01*
X139657530Y-84311103D01*
X139669979Y-84357563D01*
X139669982Y-84357568D01*
X139709535Y-84426077D01*
X139709541Y-84426085D01*
X140953102Y-85669646D01*
X140986587Y-85730969D01*
X140981603Y-85800661D01*
X140943229Y-85853877D01*
X140912366Y-85878748D01*
X140912355Y-85878758D01*
X140860861Y-85930251D01*
X141780101Y-86849491D01*
X142699338Y-87768730D01*
X142699340Y-87768730D01*
X142750833Y-87717237D01*
X142788415Y-87670600D01*
X142788420Y-87670593D01*
X142848142Y-87539820D01*
X142848144Y-87539812D01*
X142868604Y-87397499D01*
X142849584Y-87265199D01*
X142859528Y-87196041D01*
X142884636Y-87159877D01*
X143084889Y-86959625D01*
X143101552Y-86934688D01*
X143124803Y-86899891D01*
X143125886Y-86900614D01*
X143161566Y-86856331D01*
X143183417Y-86844399D01*
X143192560Y-86838290D01*
X143233737Y-86810776D01*
X143650574Y-86393939D01*
X143656896Y-86384476D01*
X143710507Y-86339671D01*
X143779831Y-86330961D01*
X143842860Y-86361114D01*
X143863104Y-86384477D01*
X143869426Y-86393940D01*
X144286259Y-86810773D01*
X144286263Y-86810776D01*
X144345997Y-86850690D01*
X144345273Y-86851773D01*
X144389560Y-86887460D01*
X144401495Y-86909317D01*
X144435107Y-86959620D01*
X144435113Y-86959628D01*
X144851944Y-87376459D01*
X144851948Y-87376462D01*
X144911682Y-87416376D01*
X144910958Y-87417459D01*
X144955242Y-87453139D01*
X144967177Y-87474995D01*
X145000793Y-87525305D01*
X145000799Y-87525313D01*
X145417630Y-87942144D01*
X145417634Y-87942147D01*
X145477368Y-87982061D01*
X145476644Y-87983144D01*
X145520931Y-88018831D01*
X145532864Y-88040684D01*
X145566478Y-88090990D01*
X145566484Y-88090998D01*
X145983315Y-88507829D01*
X145983319Y-88507832D01*
X146043053Y-88547746D01*
X146042329Y-88548828D01*
X146086614Y-88584513D01*
X146098552Y-88606372D01*
X146132164Y-88656676D01*
X146132170Y-88656684D01*
X146549001Y-89073515D01*
X146549005Y-89073518D01*
X146608739Y-89113432D01*
X146608015Y-89114515D01*
X146652302Y-89150202D01*
X146664235Y-89172055D01*
X146697849Y-89222361D01*
X146697855Y-89222369D01*
X147114686Y-89639200D01*
X147114690Y-89639203D01*
X147174424Y-89679117D01*
X147173700Y-89680200D01*
X147217987Y-89715887D01*
X147229922Y-89737744D01*
X147263534Y-89788047D01*
X147263540Y-89788055D01*
X147680371Y-90204886D01*
X147680375Y-90204889D01*
X147740109Y-90244803D01*
X147739385Y-90245886D01*
X147783669Y-90281566D01*
X147795604Y-90303422D01*
X147829220Y-90353732D01*
X147829226Y-90353740D01*
X148246057Y-90770571D01*
X148246061Y-90770574D01*
X148255525Y-90776898D01*
X148300330Y-90830510D01*
X148309037Y-90899835D01*
X148278883Y-90962863D01*
X148255525Y-90983102D01*
X148246061Y-90989425D01*
X148246057Y-90989428D01*
X147829226Y-91406259D01*
X147829220Y-91406267D01*
X147789311Y-91465996D01*
X147788229Y-91465273D01*
X147752532Y-91509565D01*
X147730682Y-91521495D01*
X147680379Y-91555107D01*
X147680371Y-91555113D01*
X147263540Y-91971944D01*
X147263534Y-91971952D01*
X147223625Y-92031681D01*
X147222543Y-92030958D01*
X147186849Y-92075249D01*
X147165000Y-92087179D01*
X147114694Y-92120793D01*
X147114686Y-92120799D01*
X146914442Y-92321043D01*
X146853119Y-92354528D01*
X146809116Y-92356100D01*
X146676817Y-92337080D01*
X146676816Y-92337080D01*
X146534502Y-92357540D01*
X146534494Y-92357542D01*
X146403721Y-92417264D01*
X146403714Y-92417269D01*
X146357084Y-92454846D01*
X146357078Y-92454851D01*
X146305584Y-92506344D01*
X147224824Y-93425584D01*
X148144061Y-94344823D01*
X148144063Y-94344823D01*
X148195556Y-94293330D01*
X148233138Y-94246693D01*
X148233143Y-94246686D01*
X148292865Y-94115913D01*
X148292867Y-94115905D01*
X148313327Y-93973592D01*
X148294306Y-93841292D01*
X148304250Y-93772133D01*
X148329356Y-93735972D01*
X148529611Y-93535718D01*
X148544426Y-93513545D01*
X148569525Y-93475984D01*
X148570608Y-93476707D01*
X148606288Y-93432424D01*
X148628139Y-93420492D01*
X148628880Y-93419997D01*
X148678459Y-93386869D01*
X149095296Y-92970032D01*
X149128424Y-92920453D01*
X149128423Y-92920453D01*
X149135210Y-92910298D01*
X149136293Y-92911022D01*
X149171971Y-92866741D01*
X149193826Y-92854806D01*
X149194565Y-92854312D01*
X149194566Y-92854312D01*
X149244145Y-92821184D01*
X149660982Y-92404347D01*
X149694110Y-92354768D01*
X149709670Y-92276536D01*
X149694110Y-92198305D01*
X149693906Y-92198000D01*
X149660980Y-92148722D01*
X149660977Y-92148719D01*
X149205920Y-91693663D01*
X149186214Y-91667982D01*
X149145805Y-91597991D01*
X149052619Y-91504805D01*
X148982622Y-91464392D01*
X148956945Y-91444688D01*
X148501688Y-90989430D01*
X148501685Y-90989427D01*
X148492218Y-90983102D01*
X148447413Y-90929490D01*
X148438706Y-90860165D01*
X148468860Y-90797137D01*
X148492221Y-90776896D01*
X148501683Y-90770574D01*
X148957227Y-90315028D01*
X148982900Y-90295330D01*
X149052417Y-90255195D01*
X149145603Y-90162009D01*
X149185738Y-90092492D01*
X149205436Y-90066819D01*
X149660982Y-89611275D01*
X149694110Y-89561695D01*
X149709670Y-89483464D01*
X149694110Y-89405232D01*
X149694108Y-89405230D01*
X149694108Y-89405228D01*
X149660985Y-89355657D01*
X149660979Y-89355649D01*
X149244148Y-88938818D01*
X149244140Y-88938812D01*
X149184412Y-88898903D01*
X149185134Y-88897821D01*
X149140844Y-88862127D01*
X149128919Y-88840288D01*
X149113698Y-88817509D01*
X149095296Y-88789968D01*
X149095293Y-88789964D01*
X148678462Y-88373133D01*
X148678454Y-88373127D01*
X148630509Y-88341091D01*
X148585703Y-88287479D01*
X148576996Y-88218154D01*
X148607150Y-88155127D01*
X148611718Y-88150308D01*
X148723279Y-88038747D01*
X150789500Y-88038747D01*
X150789500Y-89128252D01*
X150801131Y-89186729D01*
X150801132Y-89186730D01*
X150845447Y-89253052D01*
X150911767Y-89297366D01*
X150911769Y-89297367D01*
X150914684Y-89297947D01*
X150920461Y-89300967D01*
X150923054Y-89302042D01*
X150922957Y-89302273D01*
X150976597Y-89330327D01*
X151011175Y-89391041D01*
X151014500Y-89419565D01*
X151014500Y-91897434D01*
X150994815Y-91964473D01*
X150942011Y-92010228D01*
X150914691Y-92019051D01*
X150911770Y-92019631D01*
X150911769Y-92019632D01*
X150845447Y-92063947D01*
X150801132Y-92130269D01*
X150801131Y-92130270D01*
X150789500Y-92188747D01*
X150789500Y-93278252D01*
X150801131Y-93336729D01*
X150801132Y-93336730D01*
X150845447Y-93403052D01*
X150911769Y-93447367D01*
X150911770Y-93447368D01*
X150970247Y-93458999D01*
X150970250Y-93459000D01*
X150970252Y-93459000D01*
X151659750Y-93459000D01*
X151659751Y-93458999D01*
X151674568Y-93456052D01*
X151718229Y-93447368D01*
X151718229Y-93447367D01*
X151718231Y-93447367D01*
X151784552Y-93403052D01*
X151828867Y-93336731D01*
X151828867Y-93336729D01*
X151828868Y-93336729D01*
X151834912Y-93306344D01*
X152640000Y-93306344D01*
X152646401Y-93365872D01*
X152646403Y-93365879D01*
X152696645Y-93500586D01*
X152696649Y-93500593D01*
X152782809Y-93615687D01*
X152782812Y-93615690D01*
X152897906Y-93701850D01*
X152897913Y-93701854D01*
X153032620Y-93752096D01*
X153032627Y-93752098D01*
X153092155Y-93758499D01*
X153092172Y-93758500D01*
X153215000Y-93758500D01*
X153715000Y-93758500D01*
X153837828Y-93758500D01*
X153837844Y-93758499D01*
X153897372Y-93752098D01*
X153897379Y-93752096D01*
X154032086Y-93701854D01*
X154032093Y-93701850D01*
X154147187Y-93615690D01*
X154147190Y-93615687D01*
X154233350Y-93500593D01*
X154233354Y-93500586D01*
X154283596Y-93365879D01*
X154283598Y-93365872D01*
X154289999Y-93306344D01*
X154290000Y-93306327D01*
X154290000Y-93145030D01*
X154639500Y-93145030D01*
X154639500Y-93351969D01*
X154679868Y-93554912D01*
X154679870Y-93554920D01*
X154746494Y-93715765D01*
X154759059Y-93746098D01*
X154807001Y-93817849D01*
X154874024Y-93918157D01*
X155020342Y-94064475D01*
X155020345Y-94064477D01*
X155192402Y-94179441D01*
X155383580Y-94258630D01*
X155557618Y-94293248D01*
X155586530Y-94298999D01*
X155586534Y-94299000D01*
X155586535Y-94299000D01*
X155793466Y-94299000D01*
X155793467Y-94298999D01*
X155996420Y-94258630D01*
X156187598Y-94179441D01*
X156359655Y-94064477D01*
X156505977Y-93918155D01*
X156620941Y-93746098D01*
X156700130Y-93554920D01*
X156740500Y-93351965D01*
X156740500Y-93145035D01*
X156700130Y-92942080D01*
X156620941Y-92750902D01*
X156505977Y-92578845D01*
X156505975Y-92578842D01*
X156359657Y-92432524D01*
X156243290Y-92354771D01*
X156187598Y-92317559D01*
X156136494Y-92296391D01*
X155996420Y-92238370D01*
X155996412Y-92238368D01*
X155793469Y-92198000D01*
X155793465Y-92198000D01*
X155586535Y-92198000D01*
X155586530Y-92198000D01*
X155383587Y-92238368D01*
X155383579Y-92238370D01*
X155192403Y-92317558D01*
X155020342Y-92432524D01*
X154874024Y-92578842D01*
X154759058Y-92750903D01*
X154679870Y-92942079D01*
X154679868Y-92942087D01*
X154639500Y-93145030D01*
X154290000Y-93145030D01*
X154290000Y-92983500D01*
X153715000Y-92983500D01*
X153715000Y-93758500D01*
X153215000Y-93758500D01*
X153215000Y-92983500D01*
X152640000Y-92983500D01*
X152640000Y-93306344D01*
X151834912Y-93306344D01*
X151839691Y-93282316D01*
X151840500Y-93278248D01*
X151840500Y-92188752D01*
X151840500Y-92188749D01*
X151840499Y-92188747D01*
X151839066Y-92181538D01*
X151839066Y-92181537D01*
X151834912Y-92160655D01*
X152640000Y-92160655D01*
X152640000Y-92483500D01*
X153215000Y-92483500D01*
X153715000Y-92483500D01*
X154290000Y-92483500D01*
X154290000Y-92160672D01*
X154289999Y-92160655D01*
X154283598Y-92101127D01*
X154283596Y-92101120D01*
X154233354Y-91966413D01*
X154233350Y-91966406D01*
X154147190Y-91851312D01*
X154147187Y-91851309D01*
X154032093Y-91765149D01*
X154032086Y-91765145D01*
X153897379Y-91714903D01*
X153897372Y-91714901D01*
X153837844Y-91708500D01*
X153715000Y-91708500D01*
X153715000Y-92483500D01*
X153215000Y-92483500D01*
X153215000Y-91708500D01*
X153092155Y-91708500D01*
X153032627Y-91714901D01*
X153032620Y-91714903D01*
X152897913Y-91765145D01*
X152897906Y-91765149D01*
X152782812Y-91851309D01*
X152782809Y-91851312D01*
X152696649Y-91966406D01*
X152696645Y-91966413D01*
X152646403Y-92101120D01*
X152646401Y-92101127D01*
X152640000Y-92160655D01*
X151834912Y-92160655D01*
X151828867Y-92130270D01*
X151828867Y-92130269D01*
X151784552Y-92063947D01*
X151718230Y-92019632D01*
X151718229Y-92019631D01*
X151715309Y-92019051D01*
X151709532Y-92016029D01*
X151706946Y-92014958D01*
X151707041Y-92014726D01*
X151653398Y-91986666D01*
X151618824Y-91925951D01*
X151615500Y-91897434D01*
X151615500Y-89858186D01*
X151635185Y-89791147D01*
X151687989Y-89745392D01*
X151757147Y-89735448D01*
X151820703Y-89764473D01*
X151846887Y-89796186D01*
X151847250Y-89796814D01*
X151899500Y-89887314D01*
X151992686Y-89980500D01*
X152106814Y-90046392D01*
X152234108Y-90080500D01*
X152234110Y-90080500D01*
X152365890Y-90080500D01*
X152365892Y-90080500D01*
X152493186Y-90046392D01*
X152607314Y-89980500D01*
X152700500Y-89887314D01*
X152766392Y-89773186D01*
X152796955Y-89659118D01*
X152833318Y-89599462D01*
X152896165Y-89568932D01*
X152960064Y-89575034D01*
X153032619Y-89602096D01*
X153032627Y-89602098D01*
X153092155Y-89608499D01*
X153092172Y-89608500D01*
X153215000Y-89608500D01*
X153215000Y-88833500D01*
X152640000Y-88833500D01*
X152640000Y-88991347D01*
X152620315Y-89058386D01*
X152567511Y-89104141D01*
X152498353Y-89114085D01*
X152483911Y-89111122D01*
X152365892Y-89079500D01*
X152234108Y-89079500D01*
X152106814Y-89113608D01*
X152106813Y-89113608D01*
X152106811Y-89113609D01*
X152106810Y-89113609D01*
X152026500Y-89159977D01*
X151958600Y-89176450D01*
X151892573Y-89153598D01*
X151849382Y-89098676D01*
X151840500Y-89052590D01*
X151840500Y-88038749D01*
X151840499Y-88038747D01*
X151839066Y-88031538D01*
X151839066Y-88031537D01*
X151834912Y-88010655D01*
X152640000Y-88010655D01*
X152640000Y-88333500D01*
X153215000Y-88333500D01*
X153215000Y-87558500D01*
X153715000Y-87558500D01*
X153715000Y-89608500D01*
X153837828Y-89608500D01*
X153837844Y-89608499D01*
X153897372Y-89602098D01*
X153897379Y-89602096D01*
X154032086Y-89551854D01*
X154032093Y-89551850D01*
X154147187Y-89465690D01*
X154147190Y-89465687D01*
X154233350Y-89350593D01*
X154237604Y-89342804D01*
X154240625Y-89344454D01*
X154272523Y-89301800D01*
X154337975Y-89277349D01*
X154406256Y-89292167D01*
X154446150Y-89326717D01*
X154482812Y-89375690D01*
X154597906Y-89461850D01*
X154597913Y-89461854D01*
X154732620Y-89512096D01*
X154732627Y-89512098D01*
X154792155Y-89518499D01*
X154792172Y-89518500D01*
X155194435Y-89518500D01*
X155261474Y-89538185D01*
X155307229Y-89590989D01*
X155317173Y-89660147D01*
X155288148Y-89723703D01*
X155241888Y-89757061D01*
X155192403Y-89777558D01*
X155020342Y-89892524D01*
X154874024Y-90038842D01*
X154759058Y-90210903D01*
X154679870Y-90402079D01*
X154679868Y-90402087D01*
X154639500Y-90605030D01*
X154639500Y-90811969D01*
X154679868Y-91014912D01*
X154679870Y-91014920D01*
X154758027Y-91203608D01*
X154759059Y-91206098D01*
X154797583Y-91263753D01*
X154874024Y-91378157D01*
X155020342Y-91524475D01*
X155020345Y-91524477D01*
X155192402Y-91639441D01*
X155383580Y-91718630D01*
X155493328Y-91740460D01*
X155586530Y-91758999D01*
X155586534Y-91759000D01*
X155586535Y-91759000D01*
X155793466Y-91759000D01*
X155793467Y-91758999D01*
X155996420Y-91718630D01*
X156187598Y-91639441D01*
X156359655Y-91524477D01*
X156505977Y-91378155D01*
X156620941Y-91206098D01*
X156700130Y-91014920D01*
X156740500Y-90811965D01*
X156740500Y-90605035D01*
X156740500Y-90605032D01*
X156740316Y-90604108D01*
X157169500Y-90604108D01*
X157169500Y-90735892D01*
X157183864Y-90789500D01*
X157203608Y-90863187D01*
X157224767Y-90899835D01*
X157269500Y-90977314D01*
X157269502Y-90977316D01*
X157362687Y-91070501D01*
X157364158Y-91071630D01*
X157365083Y-91072897D01*
X157368433Y-91076247D01*
X157367910Y-91076769D01*
X157405356Y-91128060D01*
X157409506Y-91197807D01*
X157375289Y-91258725D01*
X157364158Y-91268370D01*
X157362687Y-91269498D01*
X157269502Y-91362683D01*
X157269500Y-91362686D01*
X157203608Y-91476812D01*
X157182628Y-91555113D01*
X157169500Y-91604108D01*
X157169500Y-91735892D01*
X157177338Y-91765145D01*
X157203608Y-91863187D01*
X157233008Y-91914108D01*
X157269500Y-91977314D01*
X157362686Y-92070500D01*
X157476814Y-92136392D01*
X157604108Y-92170500D01*
X157604110Y-92170500D01*
X157735890Y-92170500D01*
X157735892Y-92170500D01*
X157863186Y-92136392D01*
X157977314Y-92070500D01*
X158070500Y-91977314D01*
X158136392Y-91863186D01*
X158170500Y-91735892D01*
X158170500Y-91604108D01*
X158136392Y-91476814D01*
X158070500Y-91362686D01*
X157977314Y-91269500D01*
X157977311Y-91269498D01*
X157975847Y-91268375D01*
X157974921Y-91267107D01*
X157971567Y-91263753D01*
X157972090Y-91263229D01*
X157934645Y-91211947D01*
X157930491Y-91142201D01*
X157964704Y-91081281D01*
X157975847Y-91071625D01*
X157977306Y-91070504D01*
X157977314Y-91070500D01*
X158070500Y-90977314D01*
X158136392Y-90863186D01*
X158170500Y-90735892D01*
X158170500Y-90604108D01*
X158136392Y-90476814D01*
X158070500Y-90362686D01*
X157977314Y-90269500D01*
X157879587Y-90213077D01*
X157863187Y-90203608D01*
X157784390Y-90182495D01*
X157735892Y-90169500D01*
X157604108Y-90169500D01*
X157476812Y-90203608D01*
X157362686Y-90269500D01*
X157362683Y-90269502D01*
X157269502Y-90362683D01*
X157269500Y-90362686D01*
X157203608Y-90476812D01*
X157175244Y-90582671D01*
X157169500Y-90604108D01*
X156740316Y-90604108D01*
X156710933Y-90456391D01*
X156700130Y-90402080D01*
X156620941Y-90210902D01*
X156505977Y-90038845D01*
X156505975Y-90038842D01*
X156359657Y-89892524D01*
X156247382Y-89817505D01*
X156187598Y-89777559D01*
X156177043Y-89773187D01*
X156138112Y-89757061D01*
X156083709Y-89713220D01*
X156061644Y-89646926D01*
X156078923Y-89579226D01*
X156130061Y-89531616D01*
X156185565Y-89518500D01*
X156587828Y-89518500D01*
X156587844Y-89518499D01*
X156647372Y-89512098D01*
X156647379Y-89512096D01*
X156782086Y-89461854D01*
X156782093Y-89461850D01*
X156897187Y-89375690D01*
X156897190Y-89375687D01*
X156983350Y-89260593D01*
X156983354Y-89260586D01*
X157033596Y-89125879D01*
X157033598Y-89125872D01*
X157039999Y-89066344D01*
X157040000Y-89066327D01*
X157040000Y-88418500D01*
X156123012Y-88418500D01*
X156155925Y-88361493D01*
X156190000Y-88234326D01*
X156190000Y-88102674D01*
X156155925Y-87975507D01*
X156123012Y-87918500D01*
X157040000Y-87918500D01*
X157040000Y-87270672D01*
X157039999Y-87270655D01*
X157033598Y-87211127D01*
X157033596Y-87211120D01*
X156983354Y-87076413D01*
X156983350Y-87076406D01*
X156897190Y-86961312D01*
X156897187Y-86961309D01*
X156782093Y-86875149D01*
X156782086Y-86875145D01*
X156647379Y-86824903D01*
X156647372Y-86824901D01*
X156587844Y-86818500D01*
X155940000Y-86818500D01*
X155940000Y-87735488D01*
X155882993Y-87702575D01*
X155755826Y-87668500D01*
X155624174Y-87668500D01*
X155497007Y-87702575D01*
X155440000Y-87735488D01*
X155440000Y-86818500D01*
X154792155Y-86818500D01*
X154732627Y-86824901D01*
X154732620Y-86824903D01*
X154597913Y-86875145D01*
X154597906Y-86875149D01*
X154482812Y-86961309D01*
X154482809Y-86961312D01*
X154396649Y-87076406D01*
X154396645Y-87076413D01*
X154346403Y-87211120D01*
X154346401Y-87211127D01*
X154340000Y-87270655D01*
X154340000Y-87597927D01*
X154320315Y-87664966D01*
X154267511Y-87710721D01*
X154198353Y-87720665D01*
X154141689Y-87697194D01*
X154032088Y-87615146D01*
X154032086Y-87615145D01*
X153897379Y-87564903D01*
X153897372Y-87564901D01*
X153837844Y-87558500D01*
X153715000Y-87558500D01*
X153215000Y-87558500D01*
X153092155Y-87558500D01*
X153032627Y-87564901D01*
X153032620Y-87564903D01*
X152897913Y-87615145D01*
X152897906Y-87615149D01*
X152782812Y-87701309D01*
X152782809Y-87701312D01*
X152696649Y-87816406D01*
X152696645Y-87816413D01*
X152646403Y-87951120D01*
X152646401Y-87951127D01*
X152640000Y-88010655D01*
X151834912Y-88010655D01*
X151828867Y-87980270D01*
X151828867Y-87980269D01*
X151784552Y-87913947D01*
X151718230Y-87869632D01*
X151718229Y-87869631D01*
X151659752Y-87858000D01*
X151659748Y-87858000D01*
X150970252Y-87858000D01*
X150970247Y-87858000D01*
X150911770Y-87869631D01*
X150911769Y-87869632D01*
X150845447Y-87913947D01*
X150801132Y-87980269D01*
X150801131Y-87980270D01*
X150789500Y-88038747D01*
X148723279Y-88038747D01*
X148798842Y-87963184D01*
X149070460Y-87691567D01*
X149110022Y-87623044D01*
X149130500Y-87546618D01*
X149130500Y-87467494D01*
X149130500Y-87255832D01*
X149150185Y-87188793D01*
X149166814Y-87168156D01*
X149728316Y-86606654D01*
X150800001Y-86606654D01*
X150810319Y-86707652D01*
X150864546Y-86871300D01*
X150864551Y-86871311D01*
X150955052Y-87018034D01*
X150955055Y-87018038D01*
X151076961Y-87139944D01*
X151076965Y-87139947D01*
X151223688Y-87230448D01*
X151223699Y-87230453D01*
X151387347Y-87284680D01*
X151488351Y-87294999D01*
X152075000Y-87294999D01*
X152161640Y-87294999D01*
X152161654Y-87294998D01*
X152262652Y-87284680D01*
X152426300Y-87230453D01*
X152426311Y-87230448D01*
X152573034Y-87139947D01*
X152573038Y-87139944D01*
X152694944Y-87018038D01*
X152694947Y-87018034D01*
X152775391Y-86887616D01*
X152827339Y-86840891D01*
X152896301Y-86829670D01*
X152960383Y-86857513D01*
X152968610Y-86865032D01*
X152974289Y-86870711D01*
X153080523Y-86949115D01*
X153080524Y-86949115D01*
X153080525Y-86949116D01*
X153205151Y-86992725D01*
X153205150Y-86992725D01*
X153234740Y-86995500D01*
X153234744Y-86995500D01*
X153915260Y-86995500D01*
X153944849Y-86992725D01*
X154069475Y-86949116D01*
X154175711Y-86870711D01*
X154254116Y-86764475D01*
X154297725Y-86639849D01*
X154300500Y-86610256D01*
X154300500Y-86029744D01*
X154297725Y-86000151D01*
X154285920Y-85966416D01*
X154254115Y-85875523D01*
X154175711Y-85769289D01*
X154175710Y-85769288D01*
X154069476Y-85690884D01*
X153944848Y-85647274D01*
X153944849Y-85647274D01*
X153915260Y-85644500D01*
X153915256Y-85644500D01*
X153234744Y-85644500D01*
X153234740Y-85644500D01*
X153205150Y-85647274D01*
X153080523Y-85690884D01*
X152974291Y-85769286D01*
X152968607Y-85774971D01*
X152907282Y-85808453D01*
X152837591Y-85803466D01*
X152781659Y-85761592D01*
X152775391Y-85752383D01*
X152694947Y-85621965D01*
X152694944Y-85621961D01*
X152573038Y-85500055D01*
X152573034Y-85500052D01*
X152426311Y-85409551D01*
X152426300Y-85409546D01*
X152262652Y-85355319D01*
X152161654Y-85345000D01*
X152075000Y-85345000D01*
X152075000Y-87294999D01*
X151488351Y-87294999D01*
X151575000Y-87294998D01*
X151575000Y-86570000D01*
X150800001Y-86570000D01*
X150800001Y-86606654D01*
X149728316Y-86606654D01*
X150642413Y-85692557D01*
X150703733Y-85659074D01*
X150773424Y-85664058D01*
X150829358Y-85705930D01*
X150853775Y-85771394D01*
X150847797Y-85819243D01*
X150810319Y-85932345D01*
X150810319Y-85932346D01*
X150800000Y-86033345D01*
X150800000Y-86070000D01*
X151575000Y-86070000D01*
X151575000Y-85345000D01*
X151574999Y-85344999D01*
X151488360Y-85345000D01*
X151488343Y-85345001D01*
X151387346Y-85355319D01*
X151274243Y-85392797D01*
X151204415Y-85395198D01*
X151144373Y-85359466D01*
X151113181Y-85296946D01*
X151120742Y-85227486D01*
X151147556Y-85187414D01*
X152126165Y-84208804D01*
X152187486Y-84175321D01*
X152257178Y-84180305D01*
X152261254Y-84181909D01*
X152358165Y-84222051D01*
X152358169Y-84222051D01*
X152358170Y-84222052D01*
X152551456Y-84260500D01*
X152551459Y-84260500D01*
X152748543Y-84260500D01*
X152898887Y-84230594D01*
X152941835Y-84222051D01*
X153123914Y-84146632D01*
X153287782Y-84037139D01*
X153427139Y-83897782D01*
X153536632Y-83733914D01*
X153612051Y-83551835D01*
X153639390Y-83414394D01*
X153650500Y-83358543D01*
X153650500Y-83161456D01*
X153612052Y-82968170D01*
X153612051Y-82968169D01*
X153612051Y-82968165D01*
X153567248Y-82860000D01*
X153536635Y-82786092D01*
X153536628Y-82786079D01*
X153427139Y-82622218D01*
X153427136Y-82622214D01*
X153287787Y-82482865D01*
X153284725Y-82480352D01*
X153283552Y-82478630D01*
X153283475Y-82478553D01*
X153283489Y-82478538D01*
X153245392Y-82422605D01*
X153243523Y-82352761D01*
X153279711Y-82292993D01*
X153342468Y-82262278D01*
X153363392Y-82260500D01*
X154476608Y-82260500D01*
X154543647Y-82280185D01*
G37*
%TD.AperFunction*%
%TD*%
%TA.AperFunction,Conductor*%
%TO.N,GND*%
G36*
X129143647Y-63050185D02*
G01*
X129189402Y-63102989D01*
X129199346Y-63172147D01*
X129170321Y-63235703D01*
X129155275Y-63250352D01*
X129152212Y-63252865D01*
X129012863Y-63392214D01*
X129012860Y-63392218D01*
X128903371Y-63556079D01*
X128903364Y-63556092D01*
X128827950Y-63738160D01*
X128827947Y-63738170D01*
X128789500Y-63931456D01*
X128789500Y-63931459D01*
X128789500Y-64128541D01*
X128789500Y-64128543D01*
X128789499Y-64128543D01*
X128827947Y-64321829D01*
X128827950Y-64321839D01*
X128903364Y-64503907D01*
X128903371Y-64503920D01*
X129012860Y-64667781D01*
X129012863Y-64667785D01*
X129152214Y-64807136D01*
X129152218Y-64807139D01*
X129316079Y-64916628D01*
X129316092Y-64916635D01*
X129466188Y-64978806D01*
X129498165Y-64992051D01*
X129498169Y-64992051D01*
X129498170Y-64992052D01*
X129691456Y-65030500D01*
X129691459Y-65030500D01*
X129888543Y-65030500D01*
X130038887Y-65000594D01*
X130081835Y-64992051D01*
X130263914Y-64916632D01*
X130427782Y-64807139D01*
X130567139Y-64667782D01*
X130676632Y-64503914D01*
X130752051Y-64321835D01*
X130779390Y-64184394D01*
X130790500Y-64128543D01*
X130790500Y-63931456D01*
X130752052Y-63738170D01*
X130752051Y-63738169D01*
X130752051Y-63738165D01*
X130707248Y-63630000D01*
X130676635Y-63556092D01*
X130676628Y-63556079D01*
X130567139Y-63392218D01*
X130567136Y-63392214D01*
X130427787Y-63252865D01*
X130424725Y-63250352D01*
X130423552Y-63248630D01*
X130423475Y-63248553D01*
X130423489Y-63248538D01*
X130385392Y-63192605D01*
X130383523Y-63122761D01*
X130419711Y-63062993D01*
X130482468Y-63032278D01*
X130503392Y-63030500D01*
X131616608Y-63030500D01*
X131683647Y-63050185D01*
X131729402Y-63102989D01*
X131739346Y-63172147D01*
X131710321Y-63235703D01*
X131695275Y-63250352D01*
X131692212Y-63252865D01*
X131552863Y-63392214D01*
X131552860Y-63392218D01*
X131443371Y-63556079D01*
X131443364Y-63556092D01*
X131367950Y-63738160D01*
X131367947Y-63738170D01*
X131329500Y-63931456D01*
X131329500Y-63931459D01*
X131329500Y-64128541D01*
X131329500Y-64128543D01*
X131329499Y-64128543D01*
X131367947Y-64321829D01*
X131367950Y-64321839D01*
X131443364Y-64503907D01*
X131443371Y-64503920D01*
X131552860Y-64667781D01*
X131552863Y-64667785D01*
X131692214Y-64807136D01*
X131692218Y-64807139D01*
X131856079Y-64916628D01*
X131856092Y-64916635D01*
X132006188Y-64978806D01*
X132038165Y-64992051D01*
X132038169Y-64992051D01*
X132038170Y-64992052D01*
X132231456Y-65030500D01*
X132231459Y-65030500D01*
X132428543Y-65030500D01*
X132578887Y-65000594D01*
X132621835Y-64992051D01*
X132803914Y-64916632D01*
X132967782Y-64807139D01*
X133107139Y-64667782D01*
X133216632Y-64503914D01*
X133292051Y-64321835D01*
X133319390Y-64184394D01*
X133330500Y-64128543D01*
X133330500Y-63931456D01*
X133292052Y-63738170D01*
X133292051Y-63738169D01*
X133292051Y-63738165D01*
X133247248Y-63630000D01*
X133216635Y-63556092D01*
X133216628Y-63556079D01*
X133107139Y-63392218D01*
X133107136Y-63392214D01*
X132967787Y-63252865D01*
X132964725Y-63250352D01*
X132963552Y-63248630D01*
X132963475Y-63248553D01*
X132963489Y-63248538D01*
X132925392Y-63192605D01*
X132923523Y-63122761D01*
X132959711Y-63062993D01*
X133022468Y-63032278D01*
X133043392Y-63030500D01*
X134156608Y-63030500D01*
X134223647Y-63050185D01*
X134269402Y-63102989D01*
X134279346Y-63172147D01*
X134250321Y-63235703D01*
X134235275Y-63250352D01*
X134232212Y-63252865D01*
X134092863Y-63392214D01*
X134092860Y-63392218D01*
X133983371Y-63556079D01*
X133983364Y-63556092D01*
X133907950Y-63738160D01*
X133907947Y-63738170D01*
X133869500Y-63931456D01*
X133869500Y-63931459D01*
X133869500Y-64128541D01*
X133869500Y-64128543D01*
X133869499Y-64128543D01*
X133907947Y-64321829D01*
X133907950Y-64321839D01*
X133983364Y-64503907D01*
X133983371Y-64503920D01*
X134092860Y-64667781D01*
X134092863Y-64667785D01*
X134232214Y-64807136D01*
X134232218Y-64807139D01*
X134396079Y-64916628D01*
X134396092Y-64916635D01*
X134546188Y-64978806D01*
X134578165Y-64992051D01*
X134578169Y-64992051D01*
X134578170Y-64992052D01*
X134771456Y-65030500D01*
X134771459Y-65030500D01*
X134968543Y-65030500D01*
X135118887Y-65000594D01*
X135161835Y-64992051D01*
X135343914Y-64916632D01*
X135507782Y-64807139D01*
X135647139Y-64667782D01*
X135756632Y-64503914D01*
X135832051Y-64321835D01*
X135868034Y-64140937D01*
X135900419Y-64079027D01*
X135961134Y-64044453D01*
X136030904Y-64048192D01*
X136087576Y-64089059D01*
X136112124Y-64145731D01*
X136142009Y-64334417D01*
X136205243Y-64529027D01*
X136205246Y-64529034D01*
X136206796Y-64532076D01*
X136207036Y-64533354D01*
X136207109Y-64533531D01*
X136207071Y-64533546D01*
X136219686Y-64600746D01*
X136193404Y-64665484D01*
X136165201Y-64691461D01*
X136156451Y-64697307D01*
X135138578Y-65715180D01*
X135138572Y-65715188D01*
X135105449Y-65764759D01*
X135105448Y-65764762D01*
X135105448Y-65764763D01*
X135092177Y-65831489D01*
X135087506Y-65854973D01*
X135083116Y-65854099D01*
X135070203Y-65898078D01*
X135017399Y-65943833D01*
X134948241Y-65953777D01*
X134914376Y-65943833D01*
X134870946Y-65923999D01*
X134728630Y-65903539D01*
X134586313Y-65923999D01*
X134455532Y-65983725D01*
X134455530Y-65983726D01*
X134408899Y-66021304D01*
X134408892Y-66021310D01*
X134056878Y-66373323D01*
X134056878Y-66373324D01*
X134747015Y-67063461D01*
X134780500Y-67124784D01*
X134775516Y-67194476D01*
X134747015Y-67238823D01*
X134657919Y-67327919D01*
X134747014Y-67417014D01*
X134780499Y-67478337D01*
X134775515Y-67548029D01*
X134747014Y-67592376D01*
X133986167Y-68353223D01*
X133986167Y-68353224D01*
X134238587Y-68605644D01*
X134272072Y-68666967D01*
X134267088Y-68736659D01*
X134225216Y-68792592D01*
X134212909Y-68800711D01*
X134197686Y-68809500D01*
X134197683Y-68809502D01*
X134104502Y-68902683D01*
X134104500Y-68902686D01*
X134038608Y-69016812D01*
X134004500Y-69144108D01*
X134004500Y-69275891D01*
X134038608Y-69403187D01*
X134060550Y-69441191D01*
X134104500Y-69517314D01*
X134197686Y-69610500D01*
X134257255Y-69644892D01*
X134310594Y-69675688D01*
X134311814Y-69676392D01*
X134439108Y-69710500D01*
X134439110Y-69710500D01*
X134570890Y-69710500D01*
X134570892Y-69710500D01*
X134698186Y-69676392D01*
X134812314Y-69610500D01*
X134905500Y-69517314D01*
X134971392Y-69403186D01*
X135005500Y-69275892D01*
X135005500Y-69248363D01*
X135025185Y-69181324D01*
X135077989Y-69135569D01*
X135147147Y-69125625D01*
X135210703Y-69154650D01*
X135217181Y-69160682D01*
X135661475Y-69604976D01*
X135721214Y-69644892D01*
X135719530Y-69647410D01*
X135759133Y-69679316D01*
X135781206Y-69745607D01*
X135763936Y-69813309D01*
X135712805Y-69860926D01*
X135685883Y-69870706D01*
X135586652Y-69894224D01*
X135435205Y-69970284D01*
X135435198Y-69970289D01*
X135357826Y-70033316D01*
X135357811Y-70033330D01*
X135341332Y-70049810D01*
X136720188Y-71428666D01*
X136736678Y-71412177D01*
X136736683Y-71412172D01*
X136799710Y-71334802D01*
X136799715Y-71334794D01*
X136875773Y-71183350D01*
X136914860Y-71018432D01*
X136914860Y-70848954D01*
X136887609Y-70733972D01*
X136891303Y-70664200D01*
X136932132Y-70607501D01*
X136974869Y-70585958D01*
X136991252Y-70581376D01*
X137035071Y-70581376D01*
X137163258Y-70539725D01*
X137177702Y-70529230D01*
X137199160Y-70523229D01*
X137212702Y-70523403D01*
X137225454Y-70518851D01*
X137264646Y-70522871D01*
X137330438Y-70540500D01*
X137409562Y-70540500D01*
X137966881Y-70540500D01*
X138033920Y-70560185D01*
X138054562Y-70576819D01*
X139018311Y-71540569D01*
X139018314Y-71540572D01*
X139027782Y-71546898D01*
X139072587Y-71600510D01*
X139081294Y-71669835D01*
X139051140Y-71732863D01*
X139027782Y-71753102D01*
X139018314Y-71759427D01*
X137859019Y-72918722D01*
X137825890Y-72968303D01*
X137810330Y-73046536D01*
X137825332Y-73121964D01*
X137819103Y-73191556D01*
X137791395Y-73233834D01*
X137491680Y-73533549D01*
X137430357Y-73567034D01*
X137360665Y-73562050D01*
X137304732Y-73520178D01*
X137280315Y-73454714D01*
X137279999Y-73445868D01*
X137279999Y-73353360D01*
X137279998Y-73353345D01*
X137269680Y-73252347D01*
X137215453Y-73088699D01*
X137215448Y-73088688D01*
X137124947Y-72941965D01*
X137124944Y-72941961D01*
X137003038Y-72820055D01*
X137003034Y-72820052D01*
X136856311Y-72729551D01*
X136856300Y-72729546D01*
X136692652Y-72675319D01*
X136591654Y-72665000D01*
X136505000Y-72665000D01*
X136505000Y-73516000D01*
X136485315Y-73583039D01*
X136432511Y-73628794D01*
X136381000Y-73640000D01*
X136129000Y-73640000D01*
X136061961Y-73620315D01*
X136016206Y-73567511D01*
X136005000Y-73516000D01*
X136005000Y-72665000D01*
X136004999Y-72664999D01*
X135918360Y-72665000D01*
X135918343Y-72665001D01*
X135817347Y-72675319D01*
X135653699Y-72729546D01*
X135653688Y-72729551D01*
X135506965Y-72820052D01*
X135506961Y-72820055D01*
X135385054Y-72941962D01*
X135304608Y-73072384D01*
X135252660Y-73119108D01*
X135183697Y-73130329D01*
X135119615Y-73102485D01*
X135111389Y-73094967D01*
X135105710Y-73089288D01*
X134999476Y-73010884D01*
X134874848Y-72967274D01*
X134874849Y-72967274D01*
X134845260Y-72964500D01*
X134845256Y-72964500D01*
X134164744Y-72964500D01*
X134164740Y-72964500D01*
X134135150Y-72967274D01*
X134010523Y-73010884D01*
X133904289Y-73089288D01*
X133904288Y-73089289D01*
X133825884Y-73195523D01*
X133782274Y-73320150D01*
X133779500Y-73349739D01*
X133779500Y-73930260D01*
X133782274Y-73959849D01*
X133825884Y-74084476D01*
X133904288Y-74190710D01*
X133904289Y-74190711D01*
X134010523Y-74269115D01*
X134010524Y-74269115D01*
X134010525Y-74269116D01*
X134135151Y-74312725D01*
X134135150Y-74312725D01*
X134164740Y-74315500D01*
X134164744Y-74315500D01*
X134845260Y-74315500D01*
X134874849Y-74312725D01*
X134883205Y-74309801D01*
X134999475Y-74269116D01*
X135105711Y-74190711D01*
X135105716Y-74190703D01*
X135111385Y-74185035D01*
X135172707Y-74151548D01*
X135242399Y-74156529D01*
X135298334Y-74198399D01*
X135304608Y-74207615D01*
X135385054Y-74338037D01*
X135506961Y-74459944D01*
X135506965Y-74459947D01*
X135653688Y-74550448D01*
X135653699Y-74550453D01*
X135817347Y-74604680D01*
X135918351Y-74614999D01*
X136110867Y-74614999D01*
X136177907Y-74634683D01*
X136223662Y-74687487D01*
X136233606Y-74756645D01*
X136204581Y-74820201D01*
X136198549Y-74826680D01*
X135712050Y-75313181D01*
X135650727Y-75346666D01*
X135624369Y-75349500D01*
X134658127Y-75349500D01*
X134591088Y-75329815D01*
X134570446Y-75313181D01*
X134506767Y-75249502D01*
X134506765Y-75249500D01*
X134425416Y-75202533D01*
X134392638Y-75183608D01*
X134284003Y-75154500D01*
X134265343Y-75149500D01*
X134133559Y-75149500D01*
X134006263Y-75183608D01*
X133892137Y-75249500D01*
X133892134Y-75249502D01*
X133798953Y-75342683D01*
X133798951Y-75342686D01*
X133738169Y-75447963D01*
X133687601Y-75496178D01*
X133618994Y-75509400D01*
X133554130Y-75483432D01*
X133523395Y-75447962D01*
X133465502Y-75347689D01*
X133465497Y-75347683D01*
X133372316Y-75254502D01*
X133372314Y-75254500D01*
X133282305Y-75202533D01*
X133258187Y-75188608D01*
X133194539Y-75171554D01*
X133130892Y-75154500D01*
X132999108Y-75154500D01*
X132871812Y-75188608D01*
X132757686Y-75254500D01*
X132757683Y-75254502D01*
X132664502Y-75347683D01*
X132664500Y-75347686D01*
X132598608Y-75461812D01*
X132569519Y-75570375D01*
X132564500Y-75589108D01*
X132564500Y-75720892D01*
X132566668Y-75728982D01*
X132598608Y-75848187D01*
X132623015Y-75890460D01*
X132664500Y-75962314D01*
X132757686Y-76055500D01*
X132871814Y-76121392D01*
X132999108Y-76155500D01*
X132999110Y-76155500D01*
X133109167Y-76155500D01*
X133176206Y-76175185D01*
X133196848Y-76191819D01*
X133660848Y-76655819D01*
X133694333Y-76717142D01*
X133689349Y-76786834D01*
X133647477Y-76842767D01*
X133582013Y-76867184D01*
X133573167Y-76867500D01*
X131982438Y-76867500D01*
X131951867Y-76875691D01*
X131906008Y-76887979D01*
X131906007Y-76887980D01*
X131856446Y-76916595D01*
X131856445Y-76916596D01*
X131837490Y-76927539D01*
X131837487Y-76927541D01*
X130528066Y-78236961D01*
X130466743Y-78270446D01*
X130428810Y-78272739D01*
X130408601Y-78270844D01*
X130394266Y-78269500D01*
X129185734Y-78269500D01*
X129185730Y-78269500D01*
X129155300Y-78272353D01*
X129155298Y-78272353D01*
X129027119Y-78317206D01*
X129027117Y-78317207D01*
X128917850Y-78397850D01*
X128837207Y-78507117D01*
X128837206Y-78507119D01*
X128792353Y-78635298D01*
X128792353Y-78635300D01*
X128789500Y-78665730D01*
X128789500Y-79874269D01*
X128792353Y-79904699D01*
X128792353Y-79904701D01*
X128837206Y-80032880D01*
X128837207Y-80032882D01*
X128865979Y-80071867D01*
X128889950Y-80137495D01*
X128874635Y-80205665D01*
X128824895Y-80254734D01*
X128766209Y-80269500D01*
X124624500Y-80269500D01*
X124557461Y-80249815D01*
X124511706Y-80197011D01*
X124500500Y-80145500D01*
X124500500Y-76730446D01*
X124520185Y-76663407D01*
X124572989Y-76617652D01*
X124642147Y-76607708D01*
X124693391Y-76627344D01*
X124841316Y-76726185D01*
X124841328Y-76726192D01*
X125023306Y-76801569D01*
X125023318Y-76801572D01*
X125216504Y-76839999D01*
X125216508Y-76840000D01*
X125465000Y-76840000D01*
X125465000Y-76140000D01*
X125965000Y-76140000D01*
X125965000Y-76840000D01*
X126213492Y-76840000D01*
X126213495Y-76839999D01*
X126406681Y-76801572D01*
X126406693Y-76801569D01*
X126588671Y-76726192D01*
X126588684Y-76726185D01*
X126752462Y-76616751D01*
X126752466Y-76616748D01*
X126891748Y-76477466D01*
X126891751Y-76477462D01*
X127001185Y-76313684D01*
X127001192Y-76313671D01*
X127076569Y-76131692D01*
X127076569Y-76131690D01*
X127084862Y-76090000D01*
X126281988Y-76090000D01*
X126299205Y-76080060D01*
X126355060Y-76024205D01*
X126394556Y-75955796D01*
X126415000Y-75879496D01*
X126415000Y-75800504D01*
X126394556Y-75724204D01*
X126355060Y-75655795D01*
X126299205Y-75599940D01*
X126281988Y-75590000D01*
X127084862Y-75590000D01*
X127076569Y-75548309D01*
X127076569Y-75548307D01*
X127001192Y-75366328D01*
X127001185Y-75366315D01*
X126891751Y-75202537D01*
X126891748Y-75202533D01*
X126752466Y-75063251D01*
X126752462Y-75063248D01*
X126588684Y-74953814D01*
X126588671Y-74953807D01*
X126406693Y-74878430D01*
X126406681Y-74878427D01*
X126213495Y-74840000D01*
X125965000Y-74840000D01*
X125965000Y-75540000D01*
X125465000Y-75540000D01*
X125465000Y-74840000D01*
X125216504Y-74840000D01*
X125023318Y-74878427D01*
X125023306Y-74878430D01*
X124841328Y-74953807D01*
X124841315Y-74953814D01*
X124693391Y-75052655D01*
X124626713Y-75073533D01*
X124559333Y-75055049D01*
X124512643Y-75003070D01*
X124500500Y-74949553D01*
X124500500Y-70334108D01*
X127619500Y-70334108D01*
X127619500Y-70465892D01*
X127632763Y-70515392D01*
X127653608Y-70593187D01*
X127673815Y-70628186D01*
X127719500Y-70707314D01*
X127812686Y-70800500D01*
X127926814Y-70866392D01*
X128054108Y-70900500D01*
X128054110Y-70900500D01*
X128185890Y-70900500D01*
X128185892Y-70900500D01*
X128313186Y-70866392D01*
X128427314Y-70800500D01*
X128520500Y-70707314D01*
X128563694Y-70632500D01*
X128614261Y-70584284D01*
X128671081Y-70570500D01*
X129570500Y-70570500D01*
X129637539Y-70590185D01*
X129683294Y-70642989D01*
X129694500Y-70694499D01*
X129694500Y-70872129D01*
X129694501Y-70872132D01*
X129703229Y-70916016D01*
X129704727Y-70923543D01*
X129698498Y-70993135D01*
X129670790Y-71035414D01*
X129409489Y-71296716D01*
X129353541Y-71352663D01*
X129353535Y-71352671D01*
X129313982Y-71421180D01*
X129313979Y-71421185D01*
X129311975Y-71428666D01*
X129293500Y-71497614D01*
X129293500Y-72042386D01*
X129301276Y-72071404D01*
X129313979Y-72118814D01*
X129313980Y-72118815D01*
X129325746Y-72139195D01*
X129334301Y-72154012D01*
X129347148Y-72176263D01*
X129353539Y-72187333D01*
X129353541Y-72187336D01*
X129670789Y-72504584D01*
X129704274Y-72565907D01*
X129704726Y-72616455D01*
X129694500Y-72667867D01*
X129694501Y-72845499D01*
X129674817Y-72912539D01*
X129622013Y-72958294D01*
X129570501Y-72969500D01*
X128744500Y-72969500D01*
X128677461Y-72949815D01*
X128631706Y-72897011D01*
X128621939Y-72852118D01*
X128621561Y-72852168D01*
X128620963Y-72847631D01*
X128620500Y-72845500D01*
X128620500Y-72844110D01*
X128620500Y-72844108D01*
X128586392Y-72716814D01*
X128520500Y-72602686D01*
X128427314Y-72509500D01*
X128363845Y-72472856D01*
X128313187Y-72443608D01*
X128249539Y-72426554D01*
X128185892Y-72409500D01*
X128054108Y-72409500D01*
X127926812Y-72443608D01*
X127812686Y-72509500D01*
X127812683Y-72509502D01*
X127719502Y-72602683D01*
X127719500Y-72602686D01*
X127653608Y-72716812D01*
X127634096Y-72789633D01*
X127619500Y-72844108D01*
X127619500Y-72975892D01*
X127628876Y-73010884D01*
X127653608Y-73103187D01*
X127667670Y-73127542D01*
X127719500Y-73217314D01*
X127812686Y-73310500D01*
X127926814Y-73376392D01*
X128054108Y-73410500D01*
X128054110Y-73410500D01*
X128144167Y-73410500D01*
X128211206Y-73430185D01*
X128231848Y-73446819D01*
X128239540Y-73454511D01*
X128295489Y-73510460D01*
X128295491Y-73510461D01*
X128295495Y-73510464D01*
X128352931Y-73543624D01*
X128364011Y-73550021D01*
X128440438Y-73570500D01*
X129575345Y-73570500D01*
X129642384Y-73590185D01*
X129688139Y-73642989D01*
X129698083Y-73712147D01*
X129695769Y-73728035D01*
X129694499Y-73736749D01*
X129694175Y-73741220D01*
X129692086Y-73741068D01*
X129674815Y-73799888D01*
X129622011Y-73845643D01*
X129552853Y-73855587D01*
X129538408Y-73852624D01*
X129470767Y-73834500D01*
X129470766Y-73834500D01*
X129319234Y-73834500D01*
X129172863Y-73873719D01*
X129041635Y-73949485D01*
X129041632Y-73949487D01*
X128934487Y-74056632D01*
X128934485Y-74056635D01*
X128858719Y-74187863D01*
X128840604Y-74255472D01*
X128819500Y-74334234D01*
X128819500Y-74485766D01*
X128834603Y-74542133D01*
X128858719Y-74632136D01*
X128860190Y-74634683D01*
X128934485Y-74763365D01*
X128934486Y-74763366D01*
X128938549Y-74770403D01*
X128936346Y-74771674D01*
X128956959Y-74824983D01*
X128942923Y-74893428D01*
X128894112Y-74943420D01*
X128880845Y-74949866D01*
X128871324Y-74953809D01*
X128871315Y-74953814D01*
X128707537Y-75063248D01*
X128707533Y-75063251D01*
X128568251Y-75202533D01*
X128568248Y-75202537D01*
X128458814Y-75366315D01*
X128458807Y-75366328D01*
X128383430Y-75548307D01*
X128383430Y-75548309D01*
X128375138Y-75590000D01*
X129178012Y-75590000D01*
X129160795Y-75599940D01*
X129104940Y-75655795D01*
X129065444Y-75724204D01*
X129045000Y-75800504D01*
X129045000Y-75879496D01*
X129065444Y-75955796D01*
X129104940Y-76024205D01*
X129160795Y-76080060D01*
X129178012Y-76090000D01*
X128375138Y-76090000D01*
X128383430Y-76131690D01*
X128383430Y-76131692D01*
X128458807Y-76313671D01*
X128458814Y-76313684D01*
X128568248Y-76477462D01*
X128568251Y-76477466D01*
X128707533Y-76616748D01*
X128707537Y-76616751D01*
X128871315Y-76726185D01*
X128871328Y-76726192D01*
X129053306Y-76801569D01*
X129053318Y-76801572D01*
X129246504Y-76839999D01*
X129246508Y-76840000D01*
X129645000Y-76840000D01*
X129645000Y-76140000D01*
X130145000Y-76140000D01*
X130145000Y-76840000D01*
X130543492Y-76840000D01*
X130543495Y-76839999D01*
X130736681Y-76801572D01*
X130736693Y-76801569D01*
X130918671Y-76726192D01*
X130918684Y-76726185D01*
X131082462Y-76616751D01*
X131082466Y-76616748D01*
X131221748Y-76477466D01*
X131221751Y-76477462D01*
X131331185Y-76313684D01*
X131331192Y-76313671D01*
X131406569Y-76131692D01*
X131406569Y-76131690D01*
X131414862Y-76090000D01*
X130611988Y-76090000D01*
X130629205Y-76080060D01*
X130685060Y-76024205D01*
X130724556Y-75955796D01*
X130745000Y-75879496D01*
X130745000Y-75800504D01*
X130724556Y-75724204D01*
X130685060Y-75655795D01*
X130629205Y-75599940D01*
X130611988Y-75590000D01*
X130720000Y-75590000D01*
X131414862Y-75590000D01*
X131406569Y-75548309D01*
X131406569Y-75548307D01*
X131359008Y-75433483D01*
X131351539Y-75364014D01*
X131382814Y-75301535D01*
X131385889Y-75298348D01*
X131412683Y-75271553D01*
X131412686Y-75271550D01*
X131496281Y-75130198D01*
X131542100Y-74972486D01*
X131542295Y-74970001D01*
X131542295Y-74970000D01*
X130720000Y-74970000D01*
X130720000Y-75590000D01*
X130611988Y-75590000D01*
X130560796Y-75560444D01*
X130484496Y-75540000D01*
X130220000Y-75540000D01*
X130220000Y-74970000D01*
X129948242Y-74970000D01*
X129881203Y-74950315D01*
X129835448Y-74897511D01*
X129825504Y-74828353D01*
X129851805Y-74770760D01*
X129850568Y-74769811D01*
X129855507Y-74763372D01*
X129855515Y-74763365D01*
X129931281Y-74632135D01*
X129950098Y-74561906D01*
X129986463Y-74502246D01*
X130049310Y-74471717D01*
X130069873Y-74470000D01*
X131542295Y-74470000D01*
X131542295Y-74469998D01*
X131542100Y-74467513D01*
X131496281Y-74309801D01*
X131412685Y-74168447D01*
X131412681Y-74168442D01*
X131296554Y-74052316D01*
X131293496Y-74049944D01*
X131291713Y-74047475D01*
X131291040Y-74046802D01*
X131291148Y-74046693D01*
X131252591Y-73993300D01*
X131245500Y-73951967D01*
X131245500Y-73736739D01*
X131235573Y-73668607D01*
X131216649Y-73629898D01*
X131203318Y-73602629D01*
X131191559Y-73533758D01*
X131195014Y-73515817D01*
X131200318Y-73496190D01*
X131229515Y-73452495D01*
X131245500Y-73372133D01*
X131245499Y-73329020D01*
X131249794Y-73313132D01*
X131259791Y-73296810D01*
X131265182Y-73278449D01*
X131277661Y-73267634D01*
X131286288Y-73253551D01*
X131303519Y-73245226D01*
X131317984Y-73232692D01*
X131334332Y-73230341D01*
X131349201Y-73223158D01*
X131368198Y-73225471D01*
X131387142Y-73222747D01*
X131401578Y-73225707D01*
X131494108Y-73250500D01*
X131494111Y-73250500D01*
X131625890Y-73250500D01*
X131625892Y-73250500D01*
X131753186Y-73216392D01*
X131867314Y-73150500D01*
X131960500Y-73057314D01*
X132026392Y-72943186D01*
X132060500Y-72815892D01*
X132060500Y-72684108D01*
X132026392Y-72556814D01*
X131962183Y-72445601D01*
X131945711Y-72377705D01*
X131968563Y-72311678D01*
X131981885Y-72295928D01*
X132030500Y-72247314D01*
X132096392Y-72133186D01*
X132130500Y-72005892D01*
X132130500Y-71874108D01*
X132101142Y-71764543D01*
X135359009Y-71764543D01*
X135393170Y-71798704D01*
X135393186Y-71798718D01*
X135470553Y-71861742D01*
X135470560Y-71861747D01*
X135622004Y-71937805D01*
X135786923Y-71976892D01*
X135956400Y-71976892D01*
X136121318Y-71937805D01*
X136272762Y-71861747D01*
X136272769Y-71861742D01*
X136350144Y-71798713D01*
X136350154Y-71798703D01*
X136366634Y-71782221D01*
X136366634Y-71782220D01*
X135853983Y-71269569D01*
X135359009Y-71764543D01*
X132101142Y-71764543D01*
X132096392Y-71746814D01*
X132030500Y-71632686D01*
X131937314Y-71539500D01*
X131864766Y-71497614D01*
X131823185Y-71473607D01*
X131812400Y-71470717D01*
X131752741Y-71434349D01*
X131722216Y-71371500D01*
X131720500Y-71350944D01*
X131720500Y-70973615D01*
X131709352Y-70932010D01*
X131700021Y-70897187D01*
X131660460Y-70828665D01*
X131645394Y-70813599D01*
X134793108Y-70813599D01*
X134793108Y-70983077D01*
X134832194Y-71147995D01*
X134908252Y-71299439D01*
X134908257Y-71299446D01*
X134971284Y-71376818D01*
X135005455Y-71410989D01*
X135500430Y-70916016D01*
X135500430Y-70916015D01*
X134987778Y-70403364D01*
X134971292Y-70419851D01*
X134971282Y-70419862D01*
X134908257Y-70497229D01*
X134908252Y-70497237D01*
X134832194Y-70648681D01*
X134793108Y-70813599D01*
X131645394Y-70813599D01*
X131604511Y-70772716D01*
X131361335Y-70529540D01*
X131361333Y-70529539D01*
X131361328Y-70529535D01*
X131344852Y-70520022D01*
X131344846Y-70520020D01*
X131323583Y-70507744D01*
X131306298Y-70497764D01*
X131258083Y-70447196D01*
X131244862Y-70378589D01*
X131244920Y-70378198D01*
X131244903Y-70378197D01*
X131245498Y-70372141D01*
X131245500Y-70372133D01*
X131245499Y-70167868D01*
X131229515Y-70087505D01*
X131229513Y-70087502D01*
X131224841Y-70076222D01*
X131226285Y-70075623D01*
X131209563Y-70022211D01*
X131225517Y-69964056D01*
X131224842Y-69963777D01*
X131227070Y-69958396D01*
X131228049Y-69954831D01*
X131229452Y-69952647D01*
X131229516Y-69952493D01*
X131243037Y-69884515D01*
X131245500Y-69872133D01*
X131245499Y-69667868D01*
X131229515Y-69587505D01*
X131211617Y-69560719D01*
X131190740Y-69494044D01*
X131203319Y-69437370D01*
X131208543Y-69426684D01*
X131235573Y-69371393D01*
X131245500Y-69303260D01*
X131245500Y-69088033D01*
X131265185Y-69020994D01*
X131293503Y-68990051D01*
X131296560Y-68987679D01*
X131412678Y-68871561D01*
X131412685Y-68871552D01*
X131496281Y-68730198D01*
X131542100Y-68572486D01*
X131542295Y-68570001D01*
X131542295Y-68570000D01*
X130720000Y-68570000D01*
X130706819Y-68583181D01*
X130645496Y-68616666D01*
X130619138Y-68619500D01*
X130320862Y-68619500D01*
X130253823Y-68599815D01*
X130233181Y-68583181D01*
X130220000Y-68570000D01*
X130069873Y-68570000D01*
X130002834Y-68550315D01*
X129957079Y-68497511D01*
X129950098Y-68478093D01*
X129948707Y-68472900D01*
X129931281Y-68407865D01*
X129855515Y-68276635D01*
X129855510Y-68276630D01*
X129850568Y-68270189D01*
X129853188Y-68268178D01*
X129827076Y-68220358D01*
X129832060Y-68150666D01*
X129873932Y-68094733D01*
X129939396Y-68070316D01*
X129948242Y-68070000D01*
X131542295Y-68070000D01*
X131542295Y-68069998D01*
X131542100Y-68067513D01*
X131496281Y-67909801D01*
X131412685Y-67768447D01*
X131412678Y-67768438D01*
X131385888Y-67741648D01*
X131352403Y-67680325D01*
X131357387Y-67610633D01*
X131359008Y-67606514D01*
X131406570Y-67491689D01*
X131414862Y-67450000D01*
X130611988Y-67450000D01*
X130629205Y-67440060D01*
X130670636Y-67398629D01*
X133233539Y-67398629D01*
X133233539Y-67398630D01*
X133253999Y-67540946D01*
X133313725Y-67671727D01*
X133351305Y-67718362D01*
X133632613Y-67999670D01*
X134304365Y-67327918D01*
X134304365Y-67327917D01*
X133703324Y-66726878D01*
X133703323Y-66726878D01*
X133351310Y-67078892D01*
X133351304Y-67078899D01*
X133313726Y-67125530D01*
X133313725Y-67125532D01*
X133253999Y-67256313D01*
X133233539Y-67398629D01*
X130670636Y-67398629D01*
X130685060Y-67384205D01*
X130724556Y-67315796D01*
X130745000Y-67239496D01*
X130745000Y-67160504D01*
X130724556Y-67084204D01*
X130685060Y-67015795D01*
X130629205Y-66959940D01*
X130611988Y-66950000D01*
X131414862Y-66950000D01*
X131406569Y-66908309D01*
X131406569Y-66908307D01*
X131331192Y-66726328D01*
X131331185Y-66726315D01*
X131221751Y-66562537D01*
X131221748Y-66562533D01*
X131082466Y-66423251D01*
X131082462Y-66423248D01*
X130918684Y-66313814D01*
X130918671Y-66313807D01*
X130736693Y-66238430D01*
X130736681Y-66238427D01*
X130543495Y-66200000D01*
X130145000Y-66200000D01*
X130145000Y-66900000D01*
X129645000Y-66900000D01*
X129645000Y-66200000D01*
X129246504Y-66200000D01*
X129053318Y-66238427D01*
X129053306Y-66238430D01*
X128871328Y-66313807D01*
X128871315Y-66313814D01*
X128707537Y-66423248D01*
X128707533Y-66423251D01*
X128568251Y-66562533D01*
X128568248Y-66562537D01*
X128458814Y-66726315D01*
X128458807Y-66726328D01*
X128383430Y-66908307D01*
X128383430Y-66908309D01*
X128375138Y-66950000D01*
X129178012Y-66950000D01*
X129160795Y-66959940D01*
X129104940Y-67015795D01*
X129065444Y-67084204D01*
X129045000Y-67160504D01*
X129045000Y-67239496D01*
X129065444Y-67315796D01*
X129104940Y-67384205D01*
X129160795Y-67440060D01*
X129178012Y-67450000D01*
X128375138Y-67450000D01*
X128383430Y-67491690D01*
X128383430Y-67491692D01*
X128458807Y-67673671D01*
X128458814Y-67673684D01*
X128568248Y-67837462D01*
X128568251Y-67837466D01*
X128707533Y-67976748D01*
X128707537Y-67976751D01*
X128871315Y-68086185D01*
X128871328Y-68086192D01*
X128880838Y-68090131D01*
X128935243Y-68133970D01*
X128957310Y-68200264D01*
X128940033Y-68267963D01*
X128936350Y-68273405D01*
X128858719Y-68407863D01*
X128833902Y-68500483D01*
X128819500Y-68554234D01*
X128819500Y-68705766D01*
X128831425Y-68750270D01*
X128858719Y-68852136D01*
X128887903Y-68902683D01*
X128934485Y-68983365D01*
X129041635Y-69090515D01*
X129172865Y-69166281D01*
X129319234Y-69205500D01*
X129319236Y-69205500D01*
X129470763Y-69205500D01*
X129470766Y-69205500D01*
X129538409Y-69187375D01*
X129608256Y-69189038D01*
X129666119Y-69228200D01*
X129689380Y-69271887D01*
X129694500Y-69289147D01*
X129694500Y-69303260D01*
X129704427Y-69371393D01*
X129741220Y-69446655D01*
X129744160Y-69456566D01*
X129744229Y-69481580D01*
X129748440Y-69506242D01*
X129744328Y-69517410D01*
X129744353Y-69526436D01*
X129736449Y-69538808D01*
X129728383Y-69560719D01*
X129710484Y-69587506D01*
X129710483Y-69587509D01*
X129694500Y-69667863D01*
X129694500Y-69667865D01*
X129694500Y-69667867D01*
X129694500Y-69761347D01*
X129694501Y-69845499D01*
X129674817Y-69912539D01*
X129622013Y-69958294D01*
X129570501Y-69969500D01*
X128408578Y-69969500D01*
X128346578Y-69952887D01*
X128346162Y-69952647D01*
X128318483Y-69936666D01*
X128313188Y-69933609D01*
X128313187Y-69933608D01*
X128313186Y-69933608D01*
X128185892Y-69899500D01*
X128054108Y-69899500D01*
X127926812Y-69933608D01*
X127812686Y-69999500D01*
X127812683Y-69999502D01*
X127719502Y-70092683D01*
X127719500Y-70092686D01*
X127653608Y-70206812D01*
X127630352Y-70293608D01*
X127619500Y-70334108D01*
X124500500Y-70334108D01*
X124500500Y-68090446D01*
X124520185Y-68023407D01*
X124572989Y-67977652D01*
X124642147Y-67967708D01*
X124693391Y-67987344D01*
X124841316Y-68086185D01*
X124841328Y-68086192D01*
X125023306Y-68161569D01*
X125023318Y-68161572D01*
X125216504Y-68199999D01*
X125216508Y-68200000D01*
X125465000Y-68200000D01*
X125465000Y-67500000D01*
X125965000Y-67500000D01*
X125965000Y-68200000D01*
X126213492Y-68200000D01*
X126213495Y-68199999D01*
X126406681Y-68161572D01*
X126406693Y-68161569D01*
X126588671Y-68086192D01*
X126588684Y-68086185D01*
X126752462Y-67976751D01*
X126752466Y-67976748D01*
X126891748Y-67837466D01*
X126891751Y-67837462D01*
X127001185Y-67673684D01*
X127001192Y-67673671D01*
X127076569Y-67491692D01*
X127076569Y-67491690D01*
X127084862Y-67450000D01*
X126281988Y-67450000D01*
X126299205Y-67440060D01*
X126355060Y-67384205D01*
X126394556Y-67315796D01*
X126415000Y-67239496D01*
X126415000Y-67160504D01*
X126394556Y-67084204D01*
X126355060Y-67015795D01*
X126299205Y-66959940D01*
X126281988Y-66950000D01*
X127084862Y-66950000D01*
X127076569Y-66908309D01*
X127076569Y-66908307D01*
X127001192Y-66726328D01*
X127001185Y-66726315D01*
X126891751Y-66562537D01*
X126891748Y-66562533D01*
X126752466Y-66423251D01*
X126752462Y-66423248D01*
X126588684Y-66313814D01*
X126588671Y-66313807D01*
X126406693Y-66238430D01*
X126406681Y-66238427D01*
X126213495Y-66200000D01*
X125965000Y-66200000D01*
X125965000Y-66900000D01*
X125465000Y-66900000D01*
X125465000Y-66200000D01*
X125216504Y-66200000D01*
X125023318Y-66238427D01*
X125023306Y-66238430D01*
X124841328Y-66313807D01*
X124841315Y-66313814D01*
X124693391Y-66412655D01*
X124626713Y-66433533D01*
X124559333Y-66415049D01*
X124512643Y-66363070D01*
X124500500Y-66309553D01*
X124500500Y-63154500D01*
X124520185Y-63087461D01*
X124572989Y-63041706D01*
X124624500Y-63030500D01*
X129076608Y-63030500D01*
X129143647Y-63050185D01*
G37*
%TD.AperFunction*%
%TA.AperFunction,Conductor*%
G36*
X154543647Y-63050185D02*
G01*
X154589402Y-63102989D01*
X154599346Y-63172147D01*
X154570321Y-63235703D01*
X154555275Y-63250352D01*
X154552212Y-63252865D01*
X154412863Y-63392214D01*
X154412860Y-63392218D01*
X154303371Y-63556079D01*
X154303364Y-63556092D01*
X154227950Y-63738160D01*
X154227947Y-63738170D01*
X154189500Y-63931456D01*
X154189500Y-63931459D01*
X154189500Y-64128541D01*
X154189500Y-64128543D01*
X154189499Y-64128543D01*
X154227947Y-64321829D01*
X154227950Y-64321839D01*
X154303364Y-64503907D01*
X154303371Y-64503920D01*
X154412860Y-64667781D01*
X154412863Y-64667785D01*
X154552214Y-64807136D01*
X154552218Y-64807139D01*
X154716079Y-64916628D01*
X154716092Y-64916635D01*
X154866188Y-64978806D01*
X154898165Y-64992051D01*
X154898169Y-64992051D01*
X154898170Y-64992052D01*
X155091456Y-65030500D01*
X155091459Y-65030500D01*
X155288543Y-65030500D01*
X155438887Y-65000594D01*
X155481835Y-64992051D01*
X155663914Y-64916632D01*
X155827782Y-64807139D01*
X155967139Y-64667782D01*
X156076632Y-64503914D01*
X156152051Y-64321835D01*
X156179390Y-64184394D01*
X156190500Y-64128543D01*
X156190500Y-63931456D01*
X156152052Y-63738170D01*
X156152051Y-63738169D01*
X156152051Y-63738165D01*
X156107248Y-63630000D01*
X156076635Y-63556092D01*
X156076628Y-63556079D01*
X155967139Y-63392218D01*
X155967136Y-63392214D01*
X155827787Y-63252865D01*
X155824725Y-63250352D01*
X155823552Y-63248630D01*
X155823475Y-63248553D01*
X155823489Y-63248538D01*
X155785392Y-63192605D01*
X155783523Y-63122761D01*
X155819711Y-63062993D01*
X155882468Y-63032278D01*
X155903392Y-63030500D01*
X157016608Y-63030500D01*
X157083647Y-63050185D01*
X157129402Y-63102989D01*
X157139346Y-63172147D01*
X157110321Y-63235703D01*
X157095275Y-63250352D01*
X157092212Y-63252865D01*
X156952863Y-63392214D01*
X156952860Y-63392218D01*
X156843371Y-63556079D01*
X156843364Y-63556092D01*
X156767950Y-63738160D01*
X156767947Y-63738170D01*
X156729500Y-63931456D01*
X156729500Y-63931459D01*
X156729500Y-64128541D01*
X156729500Y-64128543D01*
X156729499Y-64128543D01*
X156767947Y-64321829D01*
X156767950Y-64321839D01*
X156843364Y-64503907D01*
X156843371Y-64503920D01*
X156952860Y-64667781D01*
X156952863Y-64667785D01*
X157092214Y-64807136D01*
X157092218Y-64807139D01*
X157256079Y-64916628D01*
X157256092Y-64916635D01*
X157406188Y-64978806D01*
X157438165Y-64992051D01*
X157438169Y-64992051D01*
X157438170Y-64992052D01*
X157631456Y-65030500D01*
X157631459Y-65030500D01*
X157828543Y-65030500D01*
X157978887Y-65000594D01*
X158021835Y-64992051D01*
X158203914Y-64916632D01*
X158367782Y-64807139D01*
X158507139Y-64667782D01*
X158616632Y-64503914D01*
X158692051Y-64321835D01*
X158719390Y-64184394D01*
X158730500Y-64128543D01*
X158730500Y-63931456D01*
X158692052Y-63738170D01*
X158692051Y-63738169D01*
X158692051Y-63738165D01*
X158647248Y-63630000D01*
X158616635Y-63556092D01*
X158616628Y-63556079D01*
X158507139Y-63392218D01*
X158507136Y-63392214D01*
X158367787Y-63252865D01*
X158364725Y-63250352D01*
X158363552Y-63248630D01*
X158363475Y-63248553D01*
X158363489Y-63248538D01*
X158325392Y-63192605D01*
X158323523Y-63122761D01*
X158359711Y-63062993D01*
X158422468Y-63032278D01*
X158443392Y-63030500D01*
X159375500Y-63030500D01*
X159442539Y-63050185D01*
X159488294Y-63102989D01*
X159499500Y-63154500D01*
X159499500Y-80145500D01*
X159479815Y-80212539D01*
X159427011Y-80258294D01*
X159375500Y-80269500D01*
X158443392Y-80269500D01*
X158376353Y-80249815D01*
X158330598Y-80197011D01*
X158320654Y-80127853D01*
X158349679Y-80064297D01*
X158364725Y-80049648D01*
X158367776Y-80047142D01*
X158367782Y-80047139D01*
X158507139Y-79907782D01*
X158616632Y-79743914D01*
X158692051Y-79561835D01*
X158730500Y-79368541D01*
X158730500Y-79171459D01*
X158730500Y-79171456D01*
X158692052Y-78978170D01*
X158692051Y-78978169D01*
X158692051Y-78978165D01*
X158649664Y-78875833D01*
X158616635Y-78796092D01*
X158616628Y-78796079D01*
X158507139Y-78632218D01*
X158507136Y-78632214D01*
X158367785Y-78492863D01*
X158367781Y-78492860D01*
X158203920Y-78383371D01*
X158203907Y-78383364D01*
X158021839Y-78307950D01*
X158021829Y-78307947D01*
X157828543Y-78269500D01*
X157828541Y-78269500D01*
X157631459Y-78269500D01*
X157631457Y-78269500D01*
X157438170Y-78307947D01*
X157438160Y-78307950D01*
X157256092Y-78383364D01*
X157256079Y-78383371D01*
X157092218Y-78492860D01*
X157092214Y-78492863D01*
X156952863Y-78632214D01*
X156952860Y-78632218D01*
X156843371Y-78796079D01*
X156843364Y-78796092D01*
X156767950Y-78978160D01*
X156767947Y-78978170D01*
X156729500Y-79171456D01*
X156729500Y-79171459D01*
X156729500Y-79368541D01*
X156729500Y-79368543D01*
X156729499Y-79368543D01*
X156767947Y-79561829D01*
X156767950Y-79561839D01*
X156843364Y-79743907D01*
X156843371Y-79743920D01*
X156952860Y-79907781D01*
X156952863Y-79907785D01*
X157092212Y-80047134D01*
X157095275Y-80049648D01*
X157096447Y-80051369D01*
X157096525Y-80051447D01*
X157096510Y-80051461D01*
X157134608Y-80107395D01*
X157136477Y-80177239D01*
X157100289Y-80237007D01*
X157037532Y-80267722D01*
X157016608Y-80269500D01*
X155903392Y-80269500D01*
X155836353Y-80249815D01*
X155790598Y-80197011D01*
X155780654Y-80127853D01*
X155809679Y-80064297D01*
X155824725Y-80049648D01*
X155827776Y-80047142D01*
X155827782Y-80047139D01*
X155967139Y-79907782D01*
X156076632Y-79743914D01*
X156152051Y-79561835D01*
X156190500Y-79368541D01*
X156190500Y-79171459D01*
X156190500Y-79171456D01*
X156152052Y-78978170D01*
X156152051Y-78978169D01*
X156152051Y-78978165D01*
X156109664Y-78875833D01*
X156076635Y-78796092D01*
X156076628Y-78796079D01*
X155967139Y-78632218D01*
X155967136Y-78632214D01*
X155827785Y-78492863D01*
X155827781Y-78492860D01*
X155663920Y-78383371D01*
X155663907Y-78383364D01*
X155481839Y-78307950D01*
X155481829Y-78307947D01*
X155288543Y-78269500D01*
X155288541Y-78269500D01*
X155091459Y-78269500D01*
X155091457Y-78269500D01*
X154898170Y-78307947D01*
X154898160Y-78307950D01*
X154716092Y-78383364D01*
X154716079Y-78383371D01*
X154552218Y-78492860D01*
X154552214Y-78492863D01*
X154412863Y-78632214D01*
X154412860Y-78632218D01*
X154303371Y-78796079D01*
X154303364Y-78796092D01*
X154227950Y-78978160D01*
X154227947Y-78978170D01*
X154189500Y-79171456D01*
X154189500Y-79171459D01*
X154189500Y-79368541D01*
X154189500Y-79368543D01*
X154189499Y-79368543D01*
X154227947Y-79561829D01*
X154227950Y-79561839D01*
X154303364Y-79743907D01*
X154303371Y-79743920D01*
X154412860Y-79907781D01*
X154412863Y-79907785D01*
X154552212Y-80047134D01*
X154555275Y-80049648D01*
X154556447Y-80051369D01*
X154556525Y-80051447D01*
X154556510Y-80051461D01*
X154594608Y-80107395D01*
X154596477Y-80177239D01*
X154560289Y-80237007D01*
X154497532Y-80267722D01*
X154476608Y-80269500D01*
X153363392Y-80269500D01*
X153296353Y-80249815D01*
X153250598Y-80197011D01*
X153240654Y-80127853D01*
X153269679Y-80064297D01*
X153284725Y-80049648D01*
X153287776Y-80047142D01*
X153287782Y-80047139D01*
X153427139Y-79907782D01*
X153536632Y-79743914D01*
X153612051Y-79561835D01*
X153650500Y-79368541D01*
X153650500Y-79171459D01*
X153650500Y-79171456D01*
X153612052Y-78978170D01*
X153612051Y-78978169D01*
X153612051Y-78978165D01*
X153569664Y-78875833D01*
X153536635Y-78796092D01*
X153536628Y-78796079D01*
X153427139Y-78632218D01*
X153427136Y-78632214D01*
X153287785Y-78492863D01*
X153287781Y-78492860D01*
X153123920Y-78383371D01*
X153123907Y-78383364D01*
X152941839Y-78307950D01*
X152941829Y-78307947D01*
X152748543Y-78269500D01*
X152748541Y-78269500D01*
X152551459Y-78269500D01*
X152551457Y-78269500D01*
X152358170Y-78307947D01*
X152358160Y-78307950D01*
X152176092Y-78383364D01*
X152176079Y-78383371D01*
X152012218Y-78492860D01*
X152012214Y-78492863D01*
X151872863Y-78632214D01*
X151872860Y-78632218D01*
X151763371Y-78796079D01*
X151763364Y-78796092D01*
X151687950Y-78978160D01*
X151687947Y-78978170D01*
X151649500Y-79171456D01*
X151649500Y-79171459D01*
X151649500Y-79368541D01*
X151649500Y-79368543D01*
X151649499Y-79368543D01*
X151687947Y-79561829D01*
X151687950Y-79561839D01*
X151763364Y-79743907D01*
X151763371Y-79743920D01*
X151872860Y-79907781D01*
X151872863Y-79907785D01*
X152012212Y-80047134D01*
X152015275Y-80049648D01*
X152016447Y-80051369D01*
X152016525Y-80051447D01*
X152016510Y-80051461D01*
X152054608Y-80107395D01*
X152056477Y-80177239D01*
X152020289Y-80237007D01*
X151957532Y-80267722D01*
X151936608Y-80269500D01*
X150823392Y-80269500D01*
X150756353Y-80249815D01*
X150710598Y-80197011D01*
X150700654Y-80127853D01*
X150729679Y-80064297D01*
X150744725Y-80049648D01*
X150747776Y-80047142D01*
X150747782Y-80047139D01*
X150887139Y-79907782D01*
X150996632Y-79743914D01*
X151072051Y-79561835D01*
X151110500Y-79368541D01*
X151110500Y-79171459D01*
X151110500Y-79171456D01*
X151072052Y-78978170D01*
X151072051Y-78978169D01*
X151072051Y-78978165D01*
X151029664Y-78875833D01*
X150996635Y-78796092D01*
X150996628Y-78796079D01*
X150887139Y-78632218D01*
X150887136Y-78632214D01*
X150747785Y-78492863D01*
X150747781Y-78492860D01*
X150583920Y-78383371D01*
X150583907Y-78383364D01*
X150401839Y-78307950D01*
X150401829Y-78307947D01*
X150283185Y-78284347D01*
X150221274Y-78251962D01*
X150219696Y-78250411D01*
X147698267Y-75728982D01*
X147664782Y-75667659D01*
X147669766Y-75597967D01*
X147708145Y-75544747D01*
X147739012Y-75519873D01*
X147739018Y-75519868D01*
X147790509Y-75468376D01*
X147790509Y-75468375D01*
X146871270Y-74549138D01*
X145952031Y-73629898D01*
X145900537Y-73681392D01*
X145900532Y-73681398D01*
X145862955Y-73728028D01*
X145862950Y-73728035D01*
X145803228Y-73858808D01*
X145803226Y-73858816D01*
X145782766Y-74001130D01*
X145782766Y-74001131D01*
X145801786Y-74133430D01*
X145791842Y-74202588D01*
X145766729Y-74238756D01*
X145566487Y-74438999D01*
X145566478Y-74439009D01*
X145526569Y-74498738D01*
X145525487Y-74498015D01*
X145489790Y-74542307D01*
X145467944Y-74554235D01*
X145417638Y-74587849D01*
X145417630Y-74587855D01*
X145000799Y-75004686D01*
X145000793Y-75004694D01*
X144960884Y-75064423D01*
X144959802Y-75063700D01*
X144924105Y-75107992D01*
X144902255Y-75119922D01*
X144851952Y-75153534D01*
X144851944Y-75153540D01*
X144435113Y-75570371D01*
X144435107Y-75570379D01*
X144395198Y-75630108D01*
X144394116Y-75629385D01*
X144358422Y-75673676D01*
X144336573Y-75685606D01*
X144286267Y-75719220D01*
X144286259Y-75719226D01*
X143869428Y-76136057D01*
X143869425Y-76136061D01*
X143863102Y-76145525D01*
X143809490Y-76190330D01*
X143740165Y-76199037D01*
X143677137Y-76168883D01*
X143656898Y-76145525D01*
X143650574Y-76136061D01*
X143650571Y-76136057D01*
X143233740Y-75719226D01*
X143233732Y-75719220D01*
X143174004Y-75679311D01*
X143174727Y-75678228D01*
X143130440Y-75642541D01*
X143118511Y-75620692D01*
X143084889Y-75570375D01*
X143084886Y-75570371D01*
X142668055Y-75153540D01*
X142668047Y-75153534D01*
X142608319Y-75113625D01*
X142609041Y-75112543D01*
X142564751Y-75076849D01*
X142552826Y-75055010D01*
X142551252Y-75052655D01*
X142519203Y-75004690D01*
X142519200Y-75004686D01*
X142102369Y-74587855D01*
X142102361Y-74587849D01*
X142042633Y-74547940D01*
X142043355Y-74546858D01*
X141999064Y-74511161D01*
X141987141Y-74489325D01*
X141975464Y-74471850D01*
X141953518Y-74439005D01*
X141953513Y-74438999D01*
X141536684Y-74022170D01*
X141536676Y-74022164D01*
X141476948Y-73982255D01*
X141477670Y-73981173D01*
X141433380Y-73945479D01*
X141421451Y-73923632D01*
X141387832Y-73873319D01*
X141387829Y-73873315D01*
X140970998Y-73456484D01*
X140970990Y-73456478D01*
X140911262Y-73416569D01*
X140911984Y-73415487D01*
X140867693Y-73379790D01*
X140855770Y-73357954D01*
X140822147Y-73307634D01*
X140822144Y-73307630D01*
X140405313Y-72890799D01*
X140405305Y-72890793D01*
X140345577Y-72850884D01*
X140346300Y-72849801D01*
X140302013Y-72814114D01*
X140290084Y-72792265D01*
X140256462Y-72741948D01*
X140256459Y-72741944D01*
X139839628Y-72325113D01*
X139839620Y-72325107D01*
X139779892Y-72285198D01*
X139780614Y-72284116D01*
X139736324Y-72248422D01*
X139724399Y-72226583D01*
X139690776Y-72176263D01*
X139690773Y-72176259D01*
X139508622Y-71994108D01*
X142489500Y-71994108D01*
X142489500Y-72125892D01*
X142495465Y-72148155D01*
X142523608Y-72253187D01*
X142546413Y-72292686D01*
X142589500Y-72367314D01*
X142682686Y-72460500D01*
X142796814Y-72526392D01*
X142924108Y-72560500D01*
X142924110Y-72560500D01*
X143055889Y-72560500D01*
X143055892Y-72560500D01*
X143103408Y-72547768D01*
X143173256Y-72549431D01*
X143231119Y-72588593D01*
X143258623Y-72652822D01*
X143259320Y-72664524D01*
X143259500Y-72665890D01*
X143259500Y-72665892D01*
X143267554Y-72695951D01*
X143293608Y-72793187D01*
X143306717Y-72815892D01*
X143359500Y-72907314D01*
X143452686Y-73000500D01*
X143566814Y-73066392D01*
X143694108Y-73100500D01*
X143694110Y-73100500D01*
X143825890Y-73100500D01*
X143825892Y-73100500D01*
X143953186Y-73066392D01*
X144067314Y-73000500D01*
X144160500Y-72907314D01*
X144226392Y-72793186D01*
X144260500Y-72665892D01*
X144260500Y-72603598D01*
X144280185Y-72536559D01*
X144332989Y-72490804D01*
X144402147Y-72480860D01*
X144439140Y-72493664D01*
X144439300Y-72493280D01*
X144445759Y-72495955D01*
X144446503Y-72496212D01*
X144446814Y-72496392D01*
X144574108Y-72530500D01*
X144574110Y-72530500D01*
X144705890Y-72530500D01*
X144705892Y-72530500D01*
X144833186Y-72496392D01*
X144947314Y-72430500D01*
X145040500Y-72337314D01*
X145106392Y-72223186D01*
X145140500Y-72095892D01*
X145140500Y-71964108D01*
X145106392Y-71836814D01*
X145040500Y-71722686D01*
X144947314Y-71629500D01*
X144877620Y-71589262D01*
X144833187Y-71563608D01*
X144747217Y-71540573D01*
X144705892Y-71529500D01*
X144574108Y-71529500D01*
X144446812Y-71563608D01*
X144332686Y-71629500D01*
X144332683Y-71629502D01*
X144239502Y-71722683D01*
X144239500Y-71722686D01*
X144173608Y-71836812D01*
X144139500Y-71964108D01*
X144139500Y-72026401D01*
X144119815Y-72093440D01*
X144067011Y-72139195D01*
X143997853Y-72149139D01*
X143960858Y-72136336D01*
X143960700Y-72136720D01*
X143954257Y-72134051D01*
X143953507Y-72133792D01*
X143953193Y-72133611D01*
X143953188Y-72133609D01*
X143953187Y-72133608D01*
X143953186Y-72133608D01*
X143825892Y-72099500D01*
X143694108Y-72099500D01*
X143694105Y-72099500D01*
X143646592Y-72112231D01*
X143576742Y-72110567D01*
X143518880Y-72071404D01*
X143491377Y-72007175D01*
X143490680Y-71995477D01*
X143490500Y-71994115D01*
X143490500Y-71994108D01*
X143456392Y-71866814D01*
X143390500Y-71752686D01*
X143297314Y-71659500D01*
X143195141Y-71600510D01*
X143183187Y-71593608D01*
X143084405Y-71567140D01*
X143055892Y-71559500D01*
X142924108Y-71559500D01*
X142796812Y-71593608D01*
X142682686Y-71659500D01*
X142682683Y-71659502D01*
X142589502Y-71752683D01*
X142589500Y-71752686D01*
X142523608Y-71866812D01*
X142504586Y-71937805D01*
X142489500Y-71994108D01*
X139508622Y-71994108D01*
X139273940Y-71759426D01*
X139267891Y-71755384D01*
X139264475Y-71753102D01*
X139219671Y-71699493D01*
X139210961Y-71630169D01*
X139241114Y-71567140D01*
X139264475Y-71546897D01*
X139273939Y-71540574D01*
X139690776Y-71123737D01*
X139723904Y-71074158D01*
X139723903Y-71074158D01*
X139730690Y-71064003D01*
X139731773Y-71064727D01*
X139767451Y-71020446D01*
X139789306Y-71008511D01*
X139790045Y-71008017D01*
X139790046Y-71008017D01*
X139839625Y-70974889D01*
X140120406Y-70694108D01*
X143249500Y-70694108D01*
X143249500Y-70825892D01*
X143261889Y-70872129D01*
X143283608Y-70953187D01*
X143315265Y-71008017D01*
X143349500Y-71067314D01*
X143442686Y-71160500D01*
X143556814Y-71226392D01*
X143684108Y-71260500D01*
X143684110Y-71260500D01*
X143815890Y-71260500D01*
X143815892Y-71260500D01*
X143943186Y-71226392D01*
X144057314Y-71160500D01*
X144150500Y-71067314D01*
X144216392Y-70953186D01*
X144250500Y-70825892D01*
X144250500Y-70694108D01*
X144216392Y-70566814D01*
X144216029Y-70566186D01*
X144205275Y-70547559D01*
X144150500Y-70452686D01*
X144057314Y-70359500D01*
X144000250Y-70326554D01*
X143943187Y-70293608D01*
X143879539Y-70276554D01*
X143815892Y-70259500D01*
X143684108Y-70259500D01*
X143556812Y-70293608D01*
X143442686Y-70359500D01*
X143442683Y-70359502D01*
X143349502Y-70452683D01*
X143349500Y-70452686D01*
X143283608Y-70566812D01*
X143263197Y-70642989D01*
X143249500Y-70694108D01*
X140120406Y-70694108D01*
X140256462Y-70558052D01*
X140289590Y-70508473D01*
X140291404Y-70499351D01*
X140305749Y-70480788D01*
X140321180Y-70469600D01*
X140333139Y-70454758D01*
X140354990Y-70442826D01*
X140375499Y-70429122D01*
X140405310Y-70409203D01*
X140605561Y-70208951D01*
X140666878Y-70175470D01*
X140710884Y-70173898D01*
X140843184Y-70192919D01*
X140985497Y-70172459D01*
X140985505Y-70172457D01*
X141116278Y-70112735D01*
X141116285Y-70112730D01*
X141162922Y-70075148D01*
X141162924Y-70075146D01*
X141214415Y-70023654D01*
X141214415Y-70023653D01*
X140295176Y-69104416D01*
X139766733Y-68575972D01*
X139725812Y-68575972D01*
X139658773Y-68556287D01*
X139638131Y-68539653D01*
X139026920Y-67928442D01*
X138993435Y-67867119D01*
X138998419Y-67797427D01*
X139026920Y-67753080D01*
X139116016Y-67663984D01*
X139116014Y-67663982D01*
X139469569Y-67663982D01*
X139469569Y-67663983D01*
X139591425Y-67785840D01*
X139632345Y-67785840D01*
X139699384Y-67805525D01*
X139720026Y-67822159D01*
X140471953Y-68574085D01*
X140510594Y-68574085D01*
X140577633Y-68593770D01*
X140617979Y-68636082D01*
X140637139Y-68669267D01*
X140730325Y-68762453D01*
X140761852Y-68780655D01*
X140763506Y-68781610D01*
X140811722Y-68832177D01*
X140825506Y-68888997D01*
X140825506Y-68927638D01*
X141567967Y-69670101D01*
X141567969Y-69670101D01*
X141619462Y-69618608D01*
X141657044Y-69571971D01*
X141657049Y-69571964D01*
X141716771Y-69441191D01*
X141716773Y-69441183D01*
X141737233Y-69298870D01*
X141720957Y-69185656D01*
X141730901Y-69116498D01*
X141776656Y-69063694D01*
X141843696Y-69044010D01*
X141861341Y-69045272D01*
X141974555Y-69061548D01*
X142116868Y-69041088D01*
X142116876Y-69041086D01*
X142247649Y-68981364D01*
X142247656Y-68981359D01*
X142294293Y-68943777D01*
X142294295Y-68943775D01*
X142345786Y-68892283D01*
X142345786Y-68892282D01*
X141603323Y-68149821D01*
X141564684Y-68149821D01*
X141497645Y-68130136D01*
X141457297Y-68087822D01*
X141456352Y-68086185D01*
X141438139Y-68054639D01*
X141344953Y-67961453D01*
X141331154Y-67953486D01*
X141311768Y-67942293D01*
X141263554Y-67891725D01*
X141249770Y-67834907D01*
X141249770Y-67796267D01*
X140507308Y-67053805D01*
X140455814Y-67105299D01*
X140455809Y-67105305D01*
X140418232Y-67151935D01*
X140418227Y-67151942D01*
X140358505Y-67282715D01*
X140358503Y-67282722D01*
X140348925Y-67349343D01*
X140319900Y-67412898D01*
X140261121Y-67450672D01*
X140191252Y-67450672D01*
X140132474Y-67412897D01*
X140115377Y-67387346D01*
X140061746Y-67280559D01*
X140061742Y-67280553D01*
X139998715Y-67203181D01*
X139998710Y-67203176D01*
X139964544Y-67169009D01*
X139469569Y-67663982D01*
X139116014Y-67663982D01*
X139026920Y-67574888D01*
X138993435Y-67513565D01*
X138998419Y-67443873D01*
X139026920Y-67399526D01*
X139610990Y-66815456D01*
X139576829Y-66781295D01*
X139576813Y-66781281D01*
X139499446Y-66718257D01*
X139499439Y-66718252D01*
X139347995Y-66642194D01*
X139183077Y-66603108D01*
X139013600Y-66603108D01*
X138858036Y-66639977D01*
X138788264Y-66636283D01*
X138732888Y-66597124D01*
X138722255Y-66583930D01*
X138722244Y-66583917D01*
X138440940Y-66302613D01*
X138440939Y-66302613D01*
X137680092Y-67063460D01*
X137618769Y-67096945D01*
X137549077Y-67091961D01*
X137504730Y-67063460D01*
X137326538Y-66885268D01*
X137293053Y-66823945D01*
X137298037Y-66754253D01*
X137326538Y-66709906D01*
X138087386Y-65949058D01*
X137806082Y-65667755D01*
X137806078Y-65667751D01*
X137759443Y-65630171D01*
X137628662Y-65570445D01*
X137584364Y-65564076D01*
X137520809Y-65535051D01*
X137483035Y-65476272D01*
X137483035Y-65406403D01*
X137520810Y-65347625D01*
X137582615Y-65318865D01*
X137714417Y-65297990D01*
X137909031Y-65234755D01*
X138091349Y-65141859D01*
X138135921Y-65109474D01*
X137456447Y-64430000D01*
X137462661Y-64430000D01*
X137564394Y-64402741D01*
X137655606Y-64350080D01*
X137730080Y-64275606D01*
X137782741Y-64184394D01*
X137810000Y-64082661D01*
X137810000Y-64076447D01*
X138489474Y-64755921D01*
X138521859Y-64711349D01*
X138614755Y-64529031D01*
X138677990Y-64334417D01*
X138707875Y-64145731D01*
X138737804Y-64082596D01*
X138797116Y-64045665D01*
X138866978Y-64046663D01*
X138925211Y-64085273D01*
X138951965Y-64140937D01*
X138987947Y-64321829D01*
X138987950Y-64321839D01*
X139063364Y-64503907D01*
X139063371Y-64503920D01*
X139172860Y-64667781D01*
X139172863Y-64667785D01*
X139312217Y-64807139D01*
X139436706Y-64890319D01*
X139476086Y-64916632D01*
X139574631Y-64957450D01*
X139629033Y-65001289D01*
X139645471Y-65043800D01*
X139647397Y-65043285D01*
X139649500Y-65051133D01*
X139649500Y-65051135D01*
X139657530Y-65081103D01*
X139669979Y-65127563D01*
X139669982Y-65127568D01*
X139709535Y-65196077D01*
X139709541Y-65196085D01*
X140953102Y-66439646D01*
X140986587Y-66500969D01*
X140981603Y-66570661D01*
X140943229Y-66623877D01*
X140912366Y-66648748D01*
X140912355Y-66648758D01*
X140860861Y-66700251D01*
X141780101Y-67619491D01*
X142699338Y-68538730D01*
X142699340Y-68538730D01*
X142750833Y-68487237D01*
X142788415Y-68440600D01*
X142788420Y-68440593D01*
X142848142Y-68309820D01*
X142848144Y-68309812D01*
X142868604Y-68167499D01*
X142849584Y-68035199D01*
X142859528Y-67966041D01*
X142884636Y-67929877D01*
X143084889Y-67729625D01*
X143101552Y-67704688D01*
X143124803Y-67669891D01*
X143125886Y-67670614D01*
X143161566Y-67626331D01*
X143183417Y-67614399D01*
X143192560Y-67608290D01*
X143233737Y-67580776D01*
X143650574Y-67163939D01*
X143656896Y-67154476D01*
X143710507Y-67109671D01*
X143779831Y-67100961D01*
X143842860Y-67131114D01*
X143863104Y-67154477D01*
X143869426Y-67163940D01*
X144286259Y-67580773D01*
X144286263Y-67580776D01*
X144345997Y-67620690D01*
X144345273Y-67621773D01*
X144389560Y-67657460D01*
X144401495Y-67679317D01*
X144435107Y-67729620D01*
X144435113Y-67729628D01*
X144851944Y-68146459D01*
X144851948Y-68146462D01*
X144911682Y-68186376D01*
X144910958Y-68187459D01*
X144955242Y-68223139D01*
X144967177Y-68244995D01*
X145000793Y-68295305D01*
X145000799Y-68295313D01*
X145417630Y-68712144D01*
X145417634Y-68712147D01*
X145477368Y-68752061D01*
X145476644Y-68753144D01*
X145520931Y-68788831D01*
X145532864Y-68810684D01*
X145566478Y-68860990D01*
X145566484Y-68860998D01*
X145983315Y-69277829D01*
X145983319Y-69277832D01*
X146043053Y-69317746D01*
X146042329Y-69318828D01*
X146086614Y-69354513D01*
X146098552Y-69376372D01*
X146132164Y-69426676D01*
X146132170Y-69426684D01*
X146549001Y-69843515D01*
X146549005Y-69843518D01*
X146608739Y-69883432D01*
X146608015Y-69884515D01*
X146652302Y-69920202D01*
X146664235Y-69942055D01*
X146697849Y-69992361D01*
X146697855Y-69992369D01*
X147114686Y-70409200D01*
X147114690Y-70409203D01*
X147174424Y-70449117D01*
X147173700Y-70450200D01*
X147217987Y-70485887D01*
X147229922Y-70507744D01*
X147263534Y-70558047D01*
X147263540Y-70558055D01*
X147680371Y-70974886D01*
X147680375Y-70974889D01*
X147740109Y-71014803D01*
X147739385Y-71015886D01*
X147783669Y-71051566D01*
X147795604Y-71073422D01*
X147829220Y-71123732D01*
X147829226Y-71123740D01*
X148246057Y-71540571D01*
X148246061Y-71540574D01*
X148255525Y-71546898D01*
X148300330Y-71600510D01*
X148309037Y-71669835D01*
X148278883Y-71732863D01*
X148255525Y-71753102D01*
X148246061Y-71759425D01*
X148246057Y-71759428D01*
X147829226Y-72176259D01*
X147829220Y-72176267D01*
X147789311Y-72235996D01*
X147788229Y-72235273D01*
X147752532Y-72279565D01*
X147730682Y-72291495D01*
X147680379Y-72325107D01*
X147680371Y-72325113D01*
X147263540Y-72741944D01*
X147263534Y-72741952D01*
X147223625Y-72801681D01*
X147222543Y-72800958D01*
X147186849Y-72845249D01*
X147165000Y-72857179D01*
X147114694Y-72890793D01*
X147114686Y-72890799D01*
X146914442Y-73091043D01*
X146853119Y-73124528D01*
X146809116Y-73126100D01*
X146676817Y-73107080D01*
X146676816Y-73107080D01*
X146534502Y-73127540D01*
X146534494Y-73127542D01*
X146403721Y-73187264D01*
X146403714Y-73187269D01*
X146357084Y-73224846D01*
X146357078Y-73224851D01*
X146305584Y-73276344D01*
X147224824Y-74195584D01*
X148144061Y-75114823D01*
X148144063Y-75114823D01*
X148195556Y-75063330D01*
X148233138Y-75016693D01*
X148233143Y-75016686D01*
X148292865Y-74885913D01*
X148292867Y-74885905D01*
X148313327Y-74743592D01*
X148294306Y-74611292D01*
X148304250Y-74542133D01*
X148329356Y-74505972D01*
X148529611Y-74305718D01*
X148544426Y-74283545D01*
X148569525Y-74245984D01*
X148570608Y-74246707D01*
X148606288Y-74202424D01*
X148628139Y-74190492D01*
X148628880Y-74189997D01*
X148678459Y-74156869D01*
X149095296Y-73740032D01*
X149128424Y-73690453D01*
X149128423Y-73690453D01*
X149135210Y-73680298D01*
X149136293Y-73681022D01*
X149171971Y-73636741D01*
X149193826Y-73624806D01*
X149194565Y-73624312D01*
X149194566Y-73624312D01*
X149244145Y-73591184D01*
X149660982Y-73174347D01*
X149694110Y-73124768D01*
X149709670Y-73046536D01*
X149694110Y-72968305D01*
X149693906Y-72968000D01*
X149660980Y-72918722D01*
X149660977Y-72918719D01*
X149205920Y-72463663D01*
X149186214Y-72437982D01*
X149145805Y-72367991D01*
X149052619Y-72274805D01*
X148982622Y-72234392D01*
X148956945Y-72214688D01*
X148501688Y-71759430D01*
X148501685Y-71759427D01*
X148492218Y-71753102D01*
X148447413Y-71699490D01*
X148438706Y-71630165D01*
X148468860Y-71567137D01*
X148492221Y-71546896D01*
X148501683Y-71540574D01*
X148957227Y-71085028D01*
X148982900Y-71065330D01*
X149052417Y-71025195D01*
X149145603Y-70932009D01*
X149185738Y-70862492D01*
X149205436Y-70836819D01*
X149660982Y-70381275D01*
X149694110Y-70331695D01*
X149709670Y-70253464D01*
X149694110Y-70175232D01*
X149694108Y-70175230D01*
X149694108Y-70175228D01*
X149660985Y-70125657D01*
X149660979Y-70125649D01*
X149244148Y-69708818D01*
X149244140Y-69708812D01*
X149184412Y-69668903D01*
X149185134Y-69667821D01*
X149140844Y-69632127D01*
X149128919Y-69610288D01*
X149113698Y-69587509D01*
X149095296Y-69559968D01*
X149095293Y-69559964D01*
X148678462Y-69143133D01*
X148678454Y-69143127D01*
X148630509Y-69111091D01*
X148585703Y-69057479D01*
X148576996Y-68988154D01*
X148607150Y-68925127D01*
X148611718Y-68920308D01*
X148723279Y-68808747D01*
X150789500Y-68808747D01*
X150789500Y-69898252D01*
X150801131Y-69956729D01*
X150801132Y-69956730D01*
X150845447Y-70023052D01*
X150911767Y-70067366D01*
X150911769Y-70067367D01*
X150914684Y-70067947D01*
X150920461Y-70070967D01*
X150923054Y-70072042D01*
X150922957Y-70072273D01*
X150976597Y-70100327D01*
X151011175Y-70161041D01*
X151014500Y-70189565D01*
X151014500Y-72667434D01*
X150994815Y-72734473D01*
X150942011Y-72780228D01*
X150914691Y-72789051D01*
X150911770Y-72789631D01*
X150911769Y-72789632D01*
X150845447Y-72833947D01*
X150801132Y-72900269D01*
X150801131Y-72900270D01*
X150789500Y-72958747D01*
X150789500Y-74048252D01*
X150801131Y-74106729D01*
X150801132Y-74106730D01*
X150845447Y-74173052D01*
X150911769Y-74217367D01*
X150911770Y-74217368D01*
X150970247Y-74228999D01*
X150970250Y-74229000D01*
X150970252Y-74229000D01*
X151659750Y-74229000D01*
X151659751Y-74228999D01*
X151674568Y-74226052D01*
X151718229Y-74217368D01*
X151718229Y-74217367D01*
X151718231Y-74217367D01*
X151784552Y-74173052D01*
X151828867Y-74106731D01*
X151828867Y-74106729D01*
X151828868Y-74106729D01*
X151834912Y-74076344D01*
X152640000Y-74076344D01*
X152646401Y-74135872D01*
X152646403Y-74135879D01*
X152696645Y-74270586D01*
X152696649Y-74270593D01*
X152782809Y-74385687D01*
X152782812Y-74385690D01*
X152897906Y-74471850D01*
X152897913Y-74471854D01*
X153032620Y-74522096D01*
X153032627Y-74522098D01*
X153092155Y-74528499D01*
X153092172Y-74528500D01*
X153215000Y-74528500D01*
X153715000Y-74528500D01*
X153837828Y-74528500D01*
X153837844Y-74528499D01*
X153897372Y-74522098D01*
X153897379Y-74522096D01*
X154032086Y-74471854D01*
X154032093Y-74471850D01*
X154147187Y-74385690D01*
X154147190Y-74385687D01*
X154233350Y-74270593D01*
X154233354Y-74270586D01*
X154283596Y-74135879D01*
X154283598Y-74135872D01*
X154289999Y-74076344D01*
X154290000Y-74076327D01*
X154290000Y-73915030D01*
X154639500Y-73915030D01*
X154639500Y-74121969D01*
X154679868Y-74324912D01*
X154679870Y-74324920D01*
X154746494Y-74485765D01*
X154759059Y-74516098D01*
X154807001Y-74587849D01*
X154874024Y-74688157D01*
X155020342Y-74834475D01*
X155020345Y-74834477D01*
X155192402Y-74949441D01*
X155383580Y-75028630D01*
X155557618Y-75063248D01*
X155586530Y-75068999D01*
X155586534Y-75069000D01*
X155586535Y-75069000D01*
X155793466Y-75069000D01*
X155793467Y-75068999D01*
X155996420Y-75028630D01*
X156187598Y-74949441D01*
X156359655Y-74834477D01*
X156505977Y-74688155D01*
X156620941Y-74516098D01*
X156700130Y-74324920D01*
X156740500Y-74121965D01*
X156740500Y-73915035D01*
X156700130Y-73712080D01*
X156620941Y-73520902D01*
X156505977Y-73348845D01*
X156505975Y-73348842D01*
X156359657Y-73202524D01*
X156243290Y-73124771D01*
X156187598Y-73087559D01*
X156136494Y-73066391D01*
X155996420Y-73008370D01*
X155996412Y-73008368D01*
X155793469Y-72968000D01*
X155793465Y-72968000D01*
X155586535Y-72968000D01*
X155586530Y-72968000D01*
X155383587Y-73008368D01*
X155383579Y-73008370D01*
X155192403Y-73087558D01*
X155020342Y-73202524D01*
X154874024Y-73348842D01*
X154759058Y-73520903D01*
X154679870Y-73712079D01*
X154679868Y-73712087D01*
X154639500Y-73915030D01*
X154290000Y-73915030D01*
X154290000Y-73753500D01*
X153715000Y-73753500D01*
X153715000Y-74528500D01*
X153215000Y-74528500D01*
X153215000Y-73753500D01*
X152640000Y-73753500D01*
X152640000Y-74076344D01*
X151834912Y-74076344D01*
X151839691Y-74052316D01*
X151840500Y-74048248D01*
X151840500Y-72958752D01*
X151840500Y-72958749D01*
X151840499Y-72958747D01*
X151839066Y-72951538D01*
X151839066Y-72951537D01*
X151834912Y-72930655D01*
X152640000Y-72930655D01*
X152640000Y-73253500D01*
X153215000Y-73253500D01*
X153715000Y-73253500D01*
X154290000Y-73253500D01*
X154290000Y-72930672D01*
X154289999Y-72930655D01*
X154283598Y-72871127D01*
X154283596Y-72871120D01*
X154233354Y-72736413D01*
X154233350Y-72736406D01*
X154147190Y-72621312D01*
X154147187Y-72621309D01*
X154032093Y-72535149D01*
X154032086Y-72535145D01*
X153897379Y-72484903D01*
X153897372Y-72484901D01*
X153837844Y-72478500D01*
X153715000Y-72478500D01*
X153715000Y-73253500D01*
X153215000Y-73253500D01*
X153215000Y-72478500D01*
X153092155Y-72478500D01*
X153032627Y-72484901D01*
X153032620Y-72484903D01*
X152897913Y-72535145D01*
X152897906Y-72535149D01*
X152782812Y-72621309D01*
X152782809Y-72621312D01*
X152696649Y-72736406D01*
X152696645Y-72736413D01*
X152646403Y-72871120D01*
X152646401Y-72871127D01*
X152640000Y-72930655D01*
X151834912Y-72930655D01*
X151828867Y-72900270D01*
X151828867Y-72900269D01*
X151784552Y-72833947D01*
X151718230Y-72789632D01*
X151718229Y-72789631D01*
X151715309Y-72789051D01*
X151709532Y-72786029D01*
X151706946Y-72784958D01*
X151707041Y-72784726D01*
X151653398Y-72756666D01*
X151618824Y-72695951D01*
X151615500Y-72667434D01*
X151615500Y-70628186D01*
X151635185Y-70561147D01*
X151687989Y-70515392D01*
X151757147Y-70505448D01*
X151820703Y-70534473D01*
X151846887Y-70566186D01*
X151847250Y-70566814D01*
X151899500Y-70657314D01*
X151992686Y-70750500D01*
X152106814Y-70816392D01*
X152234108Y-70850500D01*
X152234110Y-70850500D01*
X152365890Y-70850500D01*
X152365892Y-70850500D01*
X152493186Y-70816392D01*
X152607314Y-70750500D01*
X152700500Y-70657314D01*
X152766392Y-70543186D01*
X152796955Y-70429118D01*
X152833318Y-70369462D01*
X152896165Y-70338932D01*
X152960064Y-70345034D01*
X153032619Y-70372096D01*
X153032627Y-70372098D01*
X153092155Y-70378499D01*
X153092172Y-70378500D01*
X153215000Y-70378500D01*
X153215000Y-69603500D01*
X152640000Y-69603500D01*
X152640000Y-69761347D01*
X152620315Y-69828386D01*
X152567511Y-69874141D01*
X152498353Y-69884085D01*
X152483911Y-69881122D01*
X152365892Y-69849500D01*
X152234108Y-69849500D01*
X152106814Y-69883608D01*
X152106813Y-69883608D01*
X152106811Y-69883609D01*
X152106810Y-69883609D01*
X152026500Y-69929977D01*
X151958600Y-69946450D01*
X151892573Y-69923598D01*
X151849382Y-69868676D01*
X151840500Y-69822590D01*
X151840500Y-68808749D01*
X151840499Y-68808747D01*
X151839066Y-68801538D01*
X151839066Y-68801537D01*
X151834912Y-68780655D01*
X152640000Y-68780655D01*
X152640000Y-69103500D01*
X153215000Y-69103500D01*
X153215000Y-68328500D01*
X153715000Y-68328500D01*
X153715000Y-70378500D01*
X153837828Y-70378500D01*
X153837844Y-70378499D01*
X153897372Y-70372098D01*
X153897379Y-70372096D01*
X154032086Y-70321854D01*
X154032093Y-70321850D01*
X154147187Y-70235690D01*
X154147190Y-70235687D01*
X154233350Y-70120593D01*
X154237604Y-70112804D01*
X154240625Y-70114454D01*
X154272523Y-70071800D01*
X154337975Y-70047349D01*
X154406256Y-70062167D01*
X154446150Y-70096717D01*
X154482812Y-70145690D01*
X154597906Y-70231850D01*
X154597913Y-70231854D01*
X154732620Y-70282096D01*
X154732627Y-70282098D01*
X154792155Y-70288499D01*
X154792172Y-70288500D01*
X155194435Y-70288500D01*
X155261474Y-70308185D01*
X155307229Y-70360989D01*
X155317173Y-70430147D01*
X155288148Y-70493703D01*
X155241888Y-70527061D01*
X155192403Y-70547558D01*
X155020342Y-70662524D01*
X154874024Y-70808842D01*
X154759058Y-70980903D01*
X154679870Y-71172079D01*
X154679868Y-71172087D01*
X154639500Y-71375030D01*
X154639500Y-71581969D01*
X154679868Y-71784912D01*
X154679870Y-71784920D01*
X154758027Y-71973608D01*
X154759059Y-71976098D01*
X154797583Y-72033753D01*
X154874024Y-72148157D01*
X155020342Y-72294475D01*
X155020345Y-72294477D01*
X155192402Y-72409441D01*
X155383580Y-72488630D01*
X155493328Y-72510460D01*
X155586530Y-72528999D01*
X155586534Y-72529000D01*
X155586535Y-72529000D01*
X155793466Y-72529000D01*
X155793467Y-72528999D01*
X155996420Y-72488630D01*
X156187598Y-72409441D01*
X156359655Y-72294477D01*
X156505977Y-72148155D01*
X156620941Y-71976098D01*
X156700130Y-71784920D01*
X156740500Y-71581965D01*
X156740500Y-71375035D01*
X156740500Y-71375032D01*
X156740316Y-71374108D01*
X157169500Y-71374108D01*
X157169500Y-71505892D01*
X157183864Y-71559500D01*
X157203608Y-71633187D01*
X157224767Y-71669835D01*
X157269500Y-71747314D01*
X157269502Y-71747316D01*
X157362687Y-71840501D01*
X157364158Y-71841630D01*
X157365083Y-71842897D01*
X157368433Y-71846247D01*
X157367910Y-71846769D01*
X157405356Y-71898060D01*
X157409506Y-71967807D01*
X157375289Y-72028725D01*
X157364158Y-72038370D01*
X157362687Y-72039498D01*
X157269502Y-72132683D01*
X157269500Y-72132686D01*
X157203608Y-72246812D01*
X157182628Y-72325113D01*
X157169500Y-72374108D01*
X157169500Y-72505892D01*
X157177338Y-72535145D01*
X157203608Y-72633187D01*
X157233008Y-72684108D01*
X157269500Y-72747314D01*
X157362686Y-72840500D01*
X157476814Y-72906392D01*
X157604108Y-72940500D01*
X157604110Y-72940500D01*
X157735890Y-72940500D01*
X157735892Y-72940500D01*
X157863186Y-72906392D01*
X157977314Y-72840500D01*
X158070500Y-72747314D01*
X158136392Y-72633186D01*
X158170500Y-72505892D01*
X158170500Y-72374108D01*
X158136392Y-72246814D01*
X158070500Y-72132686D01*
X157977314Y-72039500D01*
X157977311Y-72039498D01*
X157975847Y-72038375D01*
X157974921Y-72037107D01*
X157971567Y-72033753D01*
X157972090Y-72033229D01*
X157934645Y-71981947D01*
X157930491Y-71912201D01*
X157964704Y-71851281D01*
X157975847Y-71841625D01*
X157977306Y-71840504D01*
X157977314Y-71840500D01*
X158070500Y-71747314D01*
X158136392Y-71633186D01*
X158170500Y-71505892D01*
X158170500Y-71374108D01*
X158136392Y-71246814D01*
X158070500Y-71132686D01*
X157977314Y-71039500D01*
X157879587Y-70983077D01*
X157863187Y-70973608D01*
X157784390Y-70952495D01*
X157735892Y-70939500D01*
X157604108Y-70939500D01*
X157476812Y-70973608D01*
X157362686Y-71039500D01*
X157362683Y-71039502D01*
X157269502Y-71132683D01*
X157269500Y-71132686D01*
X157203608Y-71246812D01*
X157175244Y-71352671D01*
X157169500Y-71374108D01*
X156740316Y-71374108D01*
X156710933Y-71226391D01*
X156700130Y-71172080D01*
X156620941Y-70980902D01*
X156505977Y-70808845D01*
X156505975Y-70808842D01*
X156359657Y-70662524D01*
X156247382Y-70587505D01*
X156187598Y-70547559D01*
X156177043Y-70543187D01*
X156138112Y-70527061D01*
X156083709Y-70483220D01*
X156061644Y-70416926D01*
X156078923Y-70349226D01*
X156130061Y-70301616D01*
X156185565Y-70288500D01*
X156587828Y-70288500D01*
X156587844Y-70288499D01*
X156647372Y-70282098D01*
X156647379Y-70282096D01*
X156782086Y-70231854D01*
X156782093Y-70231850D01*
X156897187Y-70145690D01*
X156897190Y-70145687D01*
X156983350Y-70030593D01*
X156983354Y-70030586D01*
X157033596Y-69895879D01*
X157033598Y-69895872D01*
X157039999Y-69836344D01*
X157040000Y-69836327D01*
X157040000Y-69188500D01*
X156123012Y-69188500D01*
X156155925Y-69131493D01*
X156190000Y-69004326D01*
X156190000Y-68872674D01*
X156155925Y-68745507D01*
X156123012Y-68688500D01*
X157040000Y-68688500D01*
X157040000Y-68040672D01*
X157039999Y-68040655D01*
X157033598Y-67981127D01*
X157033596Y-67981120D01*
X156983354Y-67846413D01*
X156983350Y-67846406D01*
X156897190Y-67731312D01*
X156897187Y-67731309D01*
X156782093Y-67645149D01*
X156782086Y-67645145D01*
X156647379Y-67594903D01*
X156647372Y-67594901D01*
X156587844Y-67588500D01*
X155940000Y-67588500D01*
X155940000Y-68505488D01*
X155882993Y-68472575D01*
X155755826Y-68438500D01*
X155624174Y-68438500D01*
X155497007Y-68472575D01*
X155440000Y-68505488D01*
X155440000Y-67588500D01*
X154792155Y-67588500D01*
X154732627Y-67594901D01*
X154732620Y-67594903D01*
X154597913Y-67645145D01*
X154597906Y-67645149D01*
X154482812Y-67731309D01*
X154482809Y-67731312D01*
X154396649Y-67846406D01*
X154396645Y-67846413D01*
X154346403Y-67981120D01*
X154346401Y-67981127D01*
X154340000Y-68040655D01*
X154340000Y-68367927D01*
X154320315Y-68434966D01*
X154267511Y-68480721D01*
X154198353Y-68490665D01*
X154141689Y-68467194D01*
X154032088Y-68385146D01*
X154032086Y-68385145D01*
X153897379Y-68334903D01*
X153897372Y-68334901D01*
X153837844Y-68328500D01*
X153715000Y-68328500D01*
X153215000Y-68328500D01*
X153092155Y-68328500D01*
X153032627Y-68334901D01*
X153032620Y-68334903D01*
X152897913Y-68385145D01*
X152897906Y-68385149D01*
X152782812Y-68471309D01*
X152782809Y-68471312D01*
X152696649Y-68586406D01*
X152696645Y-68586413D01*
X152646403Y-68721120D01*
X152646401Y-68721127D01*
X152640000Y-68780655D01*
X151834912Y-68780655D01*
X151828867Y-68750270D01*
X151828867Y-68750269D01*
X151784552Y-68683947D01*
X151718230Y-68639632D01*
X151718229Y-68639631D01*
X151659752Y-68628000D01*
X151659748Y-68628000D01*
X150970252Y-68628000D01*
X150970247Y-68628000D01*
X150911770Y-68639631D01*
X150911769Y-68639632D01*
X150845447Y-68683947D01*
X150801132Y-68750269D01*
X150801131Y-68750270D01*
X150789500Y-68808747D01*
X148723279Y-68808747D01*
X148798842Y-68733184D01*
X149070460Y-68461567D01*
X149110022Y-68393044D01*
X149130500Y-68316618D01*
X149130500Y-68237494D01*
X149130500Y-68025832D01*
X149150185Y-67958793D01*
X149166814Y-67938156D01*
X149728316Y-67376654D01*
X150800001Y-67376654D01*
X150810319Y-67477652D01*
X150864546Y-67641300D01*
X150864551Y-67641311D01*
X150955052Y-67788034D01*
X150955055Y-67788038D01*
X151076961Y-67909944D01*
X151076965Y-67909947D01*
X151223688Y-68000448D01*
X151223699Y-68000453D01*
X151387347Y-68054680D01*
X151488351Y-68064999D01*
X152075000Y-68064999D01*
X152161640Y-68064999D01*
X152161654Y-68064998D01*
X152262652Y-68054680D01*
X152426300Y-68000453D01*
X152426311Y-68000448D01*
X152573034Y-67909947D01*
X152573038Y-67909944D01*
X152694944Y-67788038D01*
X152694947Y-67788034D01*
X152775391Y-67657616D01*
X152827339Y-67610891D01*
X152896301Y-67599670D01*
X152960383Y-67627513D01*
X152968610Y-67635032D01*
X152974289Y-67640711D01*
X153080523Y-67719115D01*
X153080524Y-67719115D01*
X153080525Y-67719116D01*
X153205151Y-67762725D01*
X153205150Y-67762725D01*
X153234740Y-67765500D01*
X153234744Y-67765500D01*
X153915260Y-67765500D01*
X153944849Y-67762725D01*
X154069475Y-67719116D01*
X154175711Y-67640711D01*
X154254116Y-67534475D01*
X154297725Y-67409849D01*
X154300500Y-67380256D01*
X154300500Y-66799744D01*
X154297725Y-66770151D01*
X154285920Y-66736416D01*
X154254115Y-66645523D01*
X154175711Y-66539289D01*
X154175710Y-66539288D01*
X154069476Y-66460884D01*
X153944848Y-66417274D01*
X153944849Y-66417274D01*
X153915260Y-66414500D01*
X153915256Y-66414500D01*
X153234744Y-66414500D01*
X153234740Y-66414500D01*
X153205150Y-66417274D01*
X153080523Y-66460884D01*
X152974291Y-66539286D01*
X152968607Y-66544971D01*
X152907282Y-66578453D01*
X152837591Y-66573466D01*
X152781659Y-66531592D01*
X152775391Y-66522383D01*
X152694947Y-66391965D01*
X152694944Y-66391961D01*
X152573038Y-66270055D01*
X152573034Y-66270052D01*
X152426311Y-66179551D01*
X152426300Y-66179546D01*
X152262652Y-66125319D01*
X152161654Y-66115000D01*
X152075000Y-66115000D01*
X152075000Y-68064999D01*
X151488351Y-68064999D01*
X151575000Y-68064998D01*
X151575000Y-67340000D01*
X150800001Y-67340000D01*
X150800001Y-67376654D01*
X149728316Y-67376654D01*
X150642413Y-66462557D01*
X150703733Y-66429074D01*
X150773424Y-66434058D01*
X150829358Y-66475930D01*
X150853775Y-66541394D01*
X150847797Y-66589243D01*
X150810319Y-66702345D01*
X150810319Y-66702346D01*
X150800000Y-66803345D01*
X150800000Y-66840000D01*
X151575000Y-66840000D01*
X151575000Y-66115000D01*
X151574999Y-66114999D01*
X151488360Y-66115000D01*
X151488343Y-66115001D01*
X151387346Y-66125319D01*
X151274243Y-66162797D01*
X151204415Y-66165198D01*
X151144373Y-66129466D01*
X151113181Y-66066946D01*
X151120742Y-65997486D01*
X151147556Y-65957414D01*
X152126165Y-64978804D01*
X152187486Y-64945321D01*
X152257178Y-64950305D01*
X152261254Y-64951909D01*
X152358165Y-64992051D01*
X152358169Y-64992051D01*
X152358170Y-64992052D01*
X152551456Y-65030500D01*
X152551459Y-65030500D01*
X152748543Y-65030500D01*
X152898887Y-65000594D01*
X152941835Y-64992051D01*
X153123914Y-64916632D01*
X153287782Y-64807139D01*
X153427139Y-64667782D01*
X153536632Y-64503914D01*
X153612051Y-64321835D01*
X153639390Y-64184394D01*
X153650500Y-64128543D01*
X153650500Y-63931456D01*
X153612052Y-63738170D01*
X153612051Y-63738169D01*
X153612051Y-63738165D01*
X153567248Y-63630000D01*
X153536635Y-63556092D01*
X153536628Y-63556079D01*
X153427139Y-63392218D01*
X153427136Y-63392214D01*
X153287787Y-63252865D01*
X153284725Y-63250352D01*
X153283552Y-63248630D01*
X153283475Y-63248553D01*
X153283489Y-63248538D01*
X153245392Y-63192605D01*
X153243523Y-63122761D01*
X153279711Y-63062993D01*
X153342468Y-63032278D01*
X153363392Y-63030500D01*
X154476608Y-63030500D01*
X154543647Y-63050185D01*
G37*
%TD.AperFunction*%
%TD*%
M02*
