%TF.GenerationSoftware,KiCad,Pcbnew,9.0.1*%
%TF.CreationDate,2025-04-29T19:20:24+09:00*%
%TF.ProjectId,ATtiny328P.kicad_pcb,41547469-6e79-4333-9238-502e6b696361,rev?*%
%TF.SameCoordinates,Original*%
%TF.FileFunction,Paste,Top*%
%TF.FilePolarity,Positive*%
%FSLAX46Y46*%
G04 Gerber Fmt 4.6, Leading zero omitted, Abs format (unit mm)*
G04 Created by KiCad (PCBNEW 9.0.1) date 2025-04-29 19:20:24*
%MOMM*%
%LPD*%
G01*
G04 APERTURE LIST*
G04 Aperture macros list*
%AMRoundRect*
0 Rectangle with rounded corners*
0 $1 Rounding radius*
0 $2 $3 $4 $5 $6 $7 $8 $9 X,Y pos of 4 corners*
0 Add a 4 corners polygon primitive as box body*
4,1,4,$2,$3,$4,$5,$6,$7,$8,$9,$2,$3,0*
0 Add four circle primitives for the rounded corners*
1,1,$1+$1,$2,$3*
1,1,$1+$1,$4,$5*
1,1,$1+$1,$6,$7*
1,1,$1+$1,$8,$9*
0 Add four rect primitives between the rounded corners*
20,1,$1+$1,$2,$3,$4,$5,0*
20,1,$1+$1,$4,$5,$6,$7,0*
20,1,$1+$1,$6,$7,$8,$9,0*
20,1,$1+$1,$8,$9,$2,$3,0*%
%AMRotRect*
0 Rectangle, with rotation*
0 The origin of the aperture is its center*
0 $1 length*
0 $2 width*
0 $3 Rotation angle, in degrees counterclockwise*
0 Add horizontal line*
21,1,$1,$2,0,0,$3*%
G04 Aperture macros list end*
%ADD10RoundRect,0.225000X-0.017678X0.335876X-0.335876X0.017678X0.017678X-0.335876X0.335876X-0.017678X0*%
%ADD11RoundRect,0.237500X-0.287500X-0.237500X0.287500X-0.237500X0.287500X0.237500X-0.287500X0.237500X0*%
%ADD12RoundRect,0.150000X-0.425000X0.150000X-0.425000X-0.150000X0.425000X-0.150000X0.425000X0.150000X0*%
%ADD13RoundRect,0.075000X-0.500000X0.075000X-0.500000X-0.075000X0.500000X-0.075000X0.500000X0.075000X0*%
%ADD14O,2.100000X1.000000*%
%ADD15O,1.800000X1.000000*%
%ADD16R,0.650000X1.050000*%
%ADD17RotRect,1.400000X1.200000X45.000000*%
%ADD18RoundRect,0.237500X0.287500X0.237500X-0.287500X0.237500X-0.287500X-0.237500X0.287500X-0.237500X0*%
%ADD19RotRect,1.600000X0.550000X315.000000*%
%ADD20RotRect,1.600000X0.550000X45.000000*%
G04 APERTURE END LIST*
D10*
%TO.C,C4*%
X139116016Y-67663984D03*
X138020000Y-68760000D03*
%TD*%
D11*
%TO.C,UPDI*%
X151825000Y-67090000D03*
X153575000Y-67090000D03*
%TD*%
D12*
%TO.C,J1*%
X130470000Y-68320000D03*
X130470000Y-69120000D03*
D13*
X130470000Y-70270000D03*
X130470000Y-71270000D03*
X130470000Y-71770000D03*
X130470000Y-72770000D03*
D12*
X130470000Y-73920000D03*
X130470000Y-74720000D03*
X130470000Y-74720000D03*
X130470000Y-73920000D03*
D13*
X130470000Y-73270000D03*
X130470000Y-72270000D03*
X130470000Y-70770000D03*
X130470000Y-69770000D03*
D12*
X130470000Y-69120000D03*
X130470000Y-68320000D03*
D14*
X129895000Y-67200000D03*
D15*
X125715000Y-67200000D03*
D14*
X129895000Y-75840000D03*
D15*
X125715000Y-75840000D03*
%TD*%
D16*
%TO.C,SW1*%
X151315000Y-73503500D03*
X151315000Y-69353500D03*
X153465000Y-73503500D03*
X153465000Y-69353500D03*
%TD*%
D17*
%TO.C,Y1*%
X135860000Y-68530000D03*
X137415635Y-66974365D03*
X136213554Y-65772284D03*
X134657919Y-67327919D03*
%TD*%
D10*
%TO.C,C3*%
X136950000Y-69820000D03*
X135853984Y-70916016D03*
%TD*%
D18*
%TO.C,/RTS#*%
X136255000Y-73640000D03*
X134505000Y-73640000D03*
%TD*%
D19*
%TO.C,U1*%
X142734695Y-66664897D03*
X142169010Y-67230583D03*
X141603324Y-67796268D03*
X141037639Y-68361953D03*
X140471953Y-68927639D03*
X139906268Y-69493324D03*
X139340583Y-70059010D03*
X138774897Y-70624695D03*
D20*
X138774897Y-72675305D03*
X139340583Y-73240990D03*
X139906268Y-73806676D03*
X140471953Y-74372361D03*
X141037639Y-74938047D03*
X141603324Y-75503732D03*
X142169010Y-76069417D03*
X142734695Y-76635103D03*
D19*
X144785305Y-76635103D03*
X145350990Y-76069417D03*
X145916676Y-75503732D03*
X146482361Y-74938047D03*
X147048047Y-74372361D03*
X147613732Y-73806676D03*
X148179417Y-73240990D03*
X148745103Y-72675305D03*
D20*
X148745103Y-70624695D03*
X148179417Y-70059010D03*
X147613732Y-69493324D03*
X147048047Y-68927639D03*
X146482361Y-68361953D03*
X145916676Y-67796268D03*
X145350990Y-67230583D03*
X144785305Y-66664897D03*
%TD*%
D10*
%TO.C,C4*%
X139116016Y-86893984D03*
X138020000Y-87990000D03*
%TD*%
D11*
%TO.C,UPDI*%
X151825000Y-86320000D03*
X153575000Y-86320000D03*
%TD*%
D12*
%TO.C,J1*%
X130470000Y-87550000D03*
X130470000Y-88350000D03*
D13*
X130470000Y-89500000D03*
X130470000Y-90500000D03*
X130470000Y-91000000D03*
X130470000Y-92000000D03*
D12*
X130470000Y-93150000D03*
X130470000Y-93950000D03*
X130470000Y-93950000D03*
X130470000Y-93150000D03*
D13*
X130470000Y-92500000D03*
X130470000Y-91500000D03*
X130470000Y-90000000D03*
X130470000Y-89000000D03*
D12*
X130470000Y-88350000D03*
X130470000Y-87550000D03*
D14*
X129895000Y-86430000D03*
D15*
X125715000Y-86430000D03*
D14*
X129895000Y-95070000D03*
D15*
X125715000Y-95070000D03*
%TD*%
D16*
%TO.C,SW1*%
X151315000Y-92733500D03*
X151315000Y-88583500D03*
X153465000Y-92733500D03*
X153465000Y-88583500D03*
%TD*%
D17*
%TO.C,Y1*%
X135860000Y-87760000D03*
X137415635Y-86204365D03*
X136213554Y-85002284D03*
X134657919Y-86557919D03*
%TD*%
D10*
%TO.C,C3*%
X136950000Y-89050000D03*
X135853984Y-90146016D03*
%TD*%
D18*
%TO.C,/RTS#*%
X136255000Y-92870000D03*
X134505000Y-92870000D03*
%TD*%
D19*
%TO.C,U1*%
X142734695Y-85894897D03*
X142169010Y-86460583D03*
X141603324Y-87026268D03*
X141037639Y-87591953D03*
X140471953Y-88157639D03*
X139906268Y-88723324D03*
X139340583Y-89289010D03*
X138774897Y-89854695D03*
D20*
X138774897Y-91905305D03*
X139340583Y-92470990D03*
X139906268Y-93036676D03*
X140471953Y-93602361D03*
X141037639Y-94168047D03*
X141603324Y-94733732D03*
X142169010Y-95299417D03*
X142734695Y-95865103D03*
D19*
X144785305Y-95865103D03*
X145350990Y-95299417D03*
X145916676Y-94733732D03*
X146482361Y-94168047D03*
X147048047Y-93602361D03*
X147613732Y-93036676D03*
X148179417Y-92470990D03*
X148745103Y-91905305D03*
D20*
X148745103Y-89854695D03*
X148179417Y-89289010D03*
X147613732Y-88723324D03*
X147048047Y-88157639D03*
X146482361Y-87591953D03*
X145916676Y-87026268D03*
X145350990Y-86460583D03*
X144785305Y-85894897D03*
%TD*%
M02*
