%TF.GenerationSoftware,KiCad,Pcbnew,9.0.1*%
%TF.CreationDate,2025-04-29T19:20:25+09:00*%
%TF.ProjectId,ATtiny328P.kicad_pcb,41547469-6e79-4333-9238-502e6b696361,rev?*%
%TF.SameCoordinates,Original*%
%TF.FileFunction,Legend,Bot*%
%TF.FilePolarity,Positive*%
%FSLAX46Y46*%
G04 Gerber Fmt 4.6, Leading zero omitted, Abs format (unit mm)*
G04 Created by KiCad (PCBNEW 9.0.1) date 2025-04-29 19:20:25*
%MOMM*%
%LPD*%
G01*
G04 APERTURE LIST*
%ADD10C,0.062500*%
%ADD11C,0.120000*%
%ADD12C,0.100000*%
G04 APERTURE END LIST*
D10*
X135130952Y-74038059D02*
X135130952Y-74442821D01*
X135130952Y-74442821D02*
X135107142Y-74490440D01*
X135107142Y-74490440D02*
X135083333Y-74514250D01*
X135083333Y-74514250D02*
X135035714Y-74538059D01*
X135035714Y-74538059D02*
X134940476Y-74538059D01*
X134940476Y-74538059D02*
X134892857Y-74514250D01*
X134892857Y-74514250D02*
X134869047Y-74490440D01*
X134869047Y-74490440D02*
X134845238Y-74442821D01*
X134845238Y-74442821D02*
X134845238Y-74038059D01*
X134630951Y-74085678D02*
X134607142Y-74061869D01*
X134607142Y-74061869D02*
X134559523Y-74038059D01*
X134559523Y-74038059D02*
X134440475Y-74038059D01*
X134440475Y-74038059D02*
X134392856Y-74061869D01*
X134392856Y-74061869D02*
X134369047Y-74085678D01*
X134369047Y-74085678D02*
X134345237Y-74133297D01*
X134345237Y-74133297D02*
X134345237Y-74180916D01*
X134345237Y-74180916D02*
X134369047Y-74252345D01*
X134369047Y-74252345D02*
X134654761Y-74538059D01*
X134654761Y-74538059D02*
X134345237Y-74538059D01*
X137563333Y-66928059D02*
X137729999Y-66689964D01*
X137849047Y-66928059D02*
X137849047Y-66428059D01*
X137849047Y-66428059D02*
X137658571Y-66428059D01*
X137658571Y-66428059D02*
X137610952Y-66451869D01*
X137610952Y-66451869D02*
X137587142Y-66475678D01*
X137587142Y-66475678D02*
X137563333Y-66523297D01*
X137563333Y-66523297D02*
X137563333Y-66594726D01*
X137563333Y-66594726D02*
X137587142Y-66642345D01*
X137587142Y-66642345D02*
X137610952Y-66666154D01*
X137610952Y-66666154D02*
X137658571Y-66689964D01*
X137658571Y-66689964D02*
X137849047Y-66689964D01*
X137134761Y-66594726D02*
X137134761Y-66928059D01*
X137253809Y-66404250D02*
X137372856Y-66761392D01*
X137372856Y-66761392D02*
X137063333Y-66761392D01*
X127283333Y-69558059D02*
X127449999Y-69319964D01*
X127569047Y-69558059D02*
X127569047Y-69058059D01*
X127569047Y-69058059D02*
X127378571Y-69058059D01*
X127378571Y-69058059D02*
X127330952Y-69081869D01*
X127330952Y-69081869D02*
X127307142Y-69105678D01*
X127307142Y-69105678D02*
X127283333Y-69153297D01*
X127283333Y-69153297D02*
X127283333Y-69224726D01*
X127283333Y-69224726D02*
X127307142Y-69272345D01*
X127307142Y-69272345D02*
X127330952Y-69296154D01*
X127330952Y-69296154D02*
X127378571Y-69319964D01*
X127378571Y-69319964D02*
X127569047Y-69319964D01*
X126807142Y-69558059D02*
X127092856Y-69558059D01*
X126949999Y-69558059D02*
X126949999Y-69058059D01*
X126949999Y-69058059D02*
X126997618Y-69129488D01*
X126997618Y-69129488D02*
X127045237Y-69177107D01*
X127045237Y-69177107D02*
X127092856Y-69200916D01*
X137603333Y-76210440D02*
X137627142Y-76234250D01*
X137627142Y-76234250D02*
X137698571Y-76258059D01*
X137698571Y-76258059D02*
X137746190Y-76258059D01*
X137746190Y-76258059D02*
X137817618Y-76234250D01*
X137817618Y-76234250D02*
X137865237Y-76186630D01*
X137865237Y-76186630D02*
X137889047Y-76139011D01*
X137889047Y-76139011D02*
X137912856Y-76043773D01*
X137912856Y-76043773D02*
X137912856Y-75972345D01*
X137912856Y-75972345D02*
X137889047Y-75877107D01*
X137889047Y-75877107D02*
X137865237Y-75829488D01*
X137865237Y-75829488D02*
X137817618Y-75781869D01*
X137817618Y-75781869D02*
X137746190Y-75758059D01*
X137746190Y-75758059D02*
X137698571Y-75758059D01*
X137698571Y-75758059D02*
X137627142Y-75781869D01*
X137627142Y-75781869D02*
X137603333Y-75805678D01*
X137412856Y-75805678D02*
X137389047Y-75781869D01*
X137389047Y-75781869D02*
X137341428Y-75758059D01*
X137341428Y-75758059D02*
X137222380Y-75758059D01*
X137222380Y-75758059D02*
X137174761Y-75781869D01*
X137174761Y-75781869D02*
X137150952Y-75805678D01*
X137150952Y-75805678D02*
X137127142Y-75853297D01*
X137127142Y-75853297D02*
X137127142Y-75900916D01*
X137127142Y-75900916D02*
X137150952Y-75972345D01*
X137150952Y-75972345D02*
X137436666Y-76258059D01*
X137436666Y-76258059D02*
X137127142Y-76258059D01*
X142300440Y-67496666D02*
X142324250Y-67472857D01*
X142324250Y-67472857D02*
X142348059Y-67401428D01*
X142348059Y-67401428D02*
X142348059Y-67353809D01*
X142348059Y-67353809D02*
X142324250Y-67282381D01*
X142324250Y-67282381D02*
X142276630Y-67234762D01*
X142276630Y-67234762D02*
X142229011Y-67210952D01*
X142229011Y-67210952D02*
X142133773Y-67187143D01*
X142133773Y-67187143D02*
X142062345Y-67187143D01*
X142062345Y-67187143D02*
X141967107Y-67210952D01*
X141967107Y-67210952D02*
X141919488Y-67234762D01*
X141919488Y-67234762D02*
X141871869Y-67282381D01*
X141871869Y-67282381D02*
X141848059Y-67353809D01*
X141848059Y-67353809D02*
X141848059Y-67401428D01*
X141848059Y-67401428D02*
X141871869Y-67472857D01*
X141871869Y-67472857D02*
X141895678Y-67496666D01*
X142348059Y-67972857D02*
X142348059Y-67687143D01*
X142348059Y-67830000D02*
X141848059Y-67830000D01*
X141848059Y-67830000D02*
X141919488Y-67782381D01*
X141919488Y-67782381D02*
X141967107Y-67734762D01*
X141967107Y-67734762D02*
X141990916Y-67687143D01*
X141038059Y-71269047D02*
X141442821Y-71269047D01*
X141442821Y-71269047D02*
X141490440Y-71292857D01*
X141490440Y-71292857D02*
X141514250Y-71316666D01*
X141514250Y-71316666D02*
X141538059Y-71364285D01*
X141538059Y-71364285D02*
X141538059Y-71459523D01*
X141538059Y-71459523D02*
X141514250Y-71507142D01*
X141514250Y-71507142D02*
X141490440Y-71530952D01*
X141490440Y-71530952D02*
X141442821Y-71554761D01*
X141442821Y-71554761D02*
X141038059Y-71554761D01*
X141038059Y-71745238D02*
X141038059Y-72054762D01*
X141038059Y-72054762D02*
X141228535Y-71888095D01*
X141228535Y-71888095D02*
X141228535Y-71959524D01*
X141228535Y-71959524D02*
X141252345Y-72007143D01*
X141252345Y-72007143D02*
X141276154Y-72030952D01*
X141276154Y-72030952D02*
X141323773Y-72054762D01*
X141323773Y-72054762D02*
X141442821Y-72054762D01*
X141442821Y-72054762D02*
X141490440Y-72030952D01*
X141490440Y-72030952D02*
X141514250Y-72007143D01*
X141514250Y-72007143D02*
X141538059Y-71959524D01*
X141538059Y-71959524D02*
X141538059Y-71816667D01*
X141538059Y-71816667D02*
X141514250Y-71769048D01*
X141514250Y-71769048D02*
X141490440Y-71745238D01*
X153648059Y-69386666D02*
X153409964Y-69220000D01*
X153648059Y-69100952D02*
X153148059Y-69100952D01*
X153148059Y-69100952D02*
X153148059Y-69291428D01*
X153148059Y-69291428D02*
X153171869Y-69339047D01*
X153171869Y-69339047D02*
X153195678Y-69362857D01*
X153195678Y-69362857D02*
X153243297Y-69386666D01*
X153243297Y-69386666D02*
X153314726Y-69386666D01*
X153314726Y-69386666D02*
X153362345Y-69362857D01*
X153362345Y-69362857D02*
X153386154Y-69339047D01*
X153386154Y-69339047D02*
X153409964Y-69291428D01*
X153409964Y-69291428D02*
X153409964Y-69100952D01*
X153148059Y-69839047D02*
X153148059Y-69600952D01*
X153148059Y-69600952D02*
X153386154Y-69577143D01*
X153386154Y-69577143D02*
X153362345Y-69600952D01*
X153362345Y-69600952D02*
X153338535Y-69648571D01*
X153338535Y-69648571D02*
X153338535Y-69767619D01*
X153338535Y-69767619D02*
X153362345Y-69815238D01*
X153362345Y-69815238D02*
X153386154Y-69839047D01*
X153386154Y-69839047D02*
X153433773Y-69862857D01*
X153433773Y-69862857D02*
X153552821Y-69862857D01*
X153552821Y-69862857D02*
X153600440Y-69839047D01*
X153600440Y-69839047D02*
X153624250Y-69815238D01*
X153624250Y-69815238D02*
X153648059Y-69767619D01*
X153648059Y-69767619D02*
X153648059Y-69648571D01*
X153648059Y-69648571D02*
X153624250Y-69600952D01*
X153624250Y-69600952D02*
X153600440Y-69577143D01*
X127303333Y-72078059D02*
X127469999Y-71839964D01*
X127589047Y-72078059D02*
X127589047Y-71578059D01*
X127589047Y-71578059D02*
X127398571Y-71578059D01*
X127398571Y-71578059D02*
X127350952Y-71601869D01*
X127350952Y-71601869D02*
X127327142Y-71625678D01*
X127327142Y-71625678D02*
X127303333Y-71673297D01*
X127303333Y-71673297D02*
X127303333Y-71744726D01*
X127303333Y-71744726D02*
X127327142Y-71792345D01*
X127327142Y-71792345D02*
X127350952Y-71816154D01*
X127350952Y-71816154D02*
X127398571Y-71839964D01*
X127398571Y-71839964D02*
X127589047Y-71839964D01*
X127112856Y-71625678D02*
X127089047Y-71601869D01*
X127089047Y-71601869D02*
X127041428Y-71578059D01*
X127041428Y-71578059D02*
X126922380Y-71578059D01*
X126922380Y-71578059D02*
X126874761Y-71601869D01*
X126874761Y-71601869D02*
X126850952Y-71625678D01*
X126850952Y-71625678D02*
X126827142Y-71673297D01*
X126827142Y-71673297D02*
X126827142Y-71720916D01*
X126827142Y-71720916D02*
X126850952Y-71792345D01*
X126850952Y-71792345D02*
X127136666Y-72078059D01*
X127136666Y-72078059D02*
X126827142Y-72078059D01*
X135130952Y-93268059D02*
X135130952Y-93672821D01*
X135130952Y-93672821D02*
X135107142Y-93720440D01*
X135107142Y-93720440D02*
X135083333Y-93744250D01*
X135083333Y-93744250D02*
X135035714Y-93768059D01*
X135035714Y-93768059D02*
X134940476Y-93768059D01*
X134940476Y-93768059D02*
X134892857Y-93744250D01*
X134892857Y-93744250D02*
X134869047Y-93720440D01*
X134869047Y-93720440D02*
X134845238Y-93672821D01*
X134845238Y-93672821D02*
X134845238Y-93268059D01*
X134630951Y-93315678D02*
X134607142Y-93291869D01*
X134607142Y-93291869D02*
X134559523Y-93268059D01*
X134559523Y-93268059D02*
X134440475Y-93268059D01*
X134440475Y-93268059D02*
X134392856Y-93291869D01*
X134392856Y-93291869D02*
X134369047Y-93315678D01*
X134369047Y-93315678D02*
X134345237Y-93363297D01*
X134345237Y-93363297D02*
X134345237Y-93410916D01*
X134345237Y-93410916D02*
X134369047Y-93482345D01*
X134369047Y-93482345D02*
X134654761Y-93768059D01*
X134654761Y-93768059D02*
X134345237Y-93768059D01*
X137563333Y-86158059D02*
X137729999Y-85919964D01*
X137849047Y-86158059D02*
X137849047Y-85658059D01*
X137849047Y-85658059D02*
X137658571Y-85658059D01*
X137658571Y-85658059D02*
X137610952Y-85681869D01*
X137610952Y-85681869D02*
X137587142Y-85705678D01*
X137587142Y-85705678D02*
X137563333Y-85753297D01*
X137563333Y-85753297D02*
X137563333Y-85824726D01*
X137563333Y-85824726D02*
X137587142Y-85872345D01*
X137587142Y-85872345D02*
X137610952Y-85896154D01*
X137610952Y-85896154D02*
X137658571Y-85919964D01*
X137658571Y-85919964D02*
X137849047Y-85919964D01*
X137134761Y-85824726D02*
X137134761Y-86158059D01*
X137253809Y-85634250D02*
X137372856Y-85991392D01*
X137372856Y-85991392D02*
X137063333Y-85991392D01*
X127283333Y-88788059D02*
X127449999Y-88549964D01*
X127569047Y-88788059D02*
X127569047Y-88288059D01*
X127569047Y-88288059D02*
X127378571Y-88288059D01*
X127378571Y-88288059D02*
X127330952Y-88311869D01*
X127330952Y-88311869D02*
X127307142Y-88335678D01*
X127307142Y-88335678D02*
X127283333Y-88383297D01*
X127283333Y-88383297D02*
X127283333Y-88454726D01*
X127283333Y-88454726D02*
X127307142Y-88502345D01*
X127307142Y-88502345D02*
X127330952Y-88526154D01*
X127330952Y-88526154D02*
X127378571Y-88549964D01*
X127378571Y-88549964D02*
X127569047Y-88549964D01*
X126807142Y-88788059D02*
X127092856Y-88788059D01*
X126949999Y-88788059D02*
X126949999Y-88288059D01*
X126949999Y-88288059D02*
X126997618Y-88359488D01*
X126997618Y-88359488D02*
X127045237Y-88407107D01*
X127045237Y-88407107D02*
X127092856Y-88430916D01*
X137603333Y-95440440D02*
X137627142Y-95464250D01*
X137627142Y-95464250D02*
X137698571Y-95488059D01*
X137698571Y-95488059D02*
X137746190Y-95488059D01*
X137746190Y-95488059D02*
X137817618Y-95464250D01*
X137817618Y-95464250D02*
X137865237Y-95416630D01*
X137865237Y-95416630D02*
X137889047Y-95369011D01*
X137889047Y-95369011D02*
X137912856Y-95273773D01*
X137912856Y-95273773D02*
X137912856Y-95202345D01*
X137912856Y-95202345D02*
X137889047Y-95107107D01*
X137889047Y-95107107D02*
X137865237Y-95059488D01*
X137865237Y-95059488D02*
X137817618Y-95011869D01*
X137817618Y-95011869D02*
X137746190Y-94988059D01*
X137746190Y-94988059D02*
X137698571Y-94988059D01*
X137698571Y-94988059D02*
X137627142Y-95011869D01*
X137627142Y-95011869D02*
X137603333Y-95035678D01*
X137412856Y-95035678D02*
X137389047Y-95011869D01*
X137389047Y-95011869D02*
X137341428Y-94988059D01*
X137341428Y-94988059D02*
X137222380Y-94988059D01*
X137222380Y-94988059D02*
X137174761Y-95011869D01*
X137174761Y-95011869D02*
X137150952Y-95035678D01*
X137150952Y-95035678D02*
X137127142Y-95083297D01*
X137127142Y-95083297D02*
X137127142Y-95130916D01*
X137127142Y-95130916D02*
X137150952Y-95202345D01*
X137150952Y-95202345D02*
X137436666Y-95488059D01*
X137436666Y-95488059D02*
X137127142Y-95488059D01*
X142300440Y-86726666D02*
X142324250Y-86702857D01*
X142324250Y-86702857D02*
X142348059Y-86631428D01*
X142348059Y-86631428D02*
X142348059Y-86583809D01*
X142348059Y-86583809D02*
X142324250Y-86512381D01*
X142324250Y-86512381D02*
X142276630Y-86464762D01*
X142276630Y-86464762D02*
X142229011Y-86440952D01*
X142229011Y-86440952D02*
X142133773Y-86417143D01*
X142133773Y-86417143D02*
X142062345Y-86417143D01*
X142062345Y-86417143D02*
X141967107Y-86440952D01*
X141967107Y-86440952D02*
X141919488Y-86464762D01*
X141919488Y-86464762D02*
X141871869Y-86512381D01*
X141871869Y-86512381D02*
X141848059Y-86583809D01*
X141848059Y-86583809D02*
X141848059Y-86631428D01*
X141848059Y-86631428D02*
X141871869Y-86702857D01*
X141871869Y-86702857D02*
X141895678Y-86726666D01*
X142348059Y-87202857D02*
X142348059Y-86917143D01*
X142348059Y-87060000D02*
X141848059Y-87060000D01*
X141848059Y-87060000D02*
X141919488Y-87012381D01*
X141919488Y-87012381D02*
X141967107Y-86964762D01*
X141967107Y-86964762D02*
X141990916Y-86917143D01*
X141038059Y-90499047D02*
X141442821Y-90499047D01*
X141442821Y-90499047D02*
X141490440Y-90522857D01*
X141490440Y-90522857D02*
X141514250Y-90546666D01*
X141514250Y-90546666D02*
X141538059Y-90594285D01*
X141538059Y-90594285D02*
X141538059Y-90689523D01*
X141538059Y-90689523D02*
X141514250Y-90737142D01*
X141514250Y-90737142D02*
X141490440Y-90760952D01*
X141490440Y-90760952D02*
X141442821Y-90784761D01*
X141442821Y-90784761D02*
X141038059Y-90784761D01*
X141038059Y-90975238D02*
X141038059Y-91284762D01*
X141038059Y-91284762D02*
X141228535Y-91118095D01*
X141228535Y-91118095D02*
X141228535Y-91189524D01*
X141228535Y-91189524D02*
X141252345Y-91237143D01*
X141252345Y-91237143D02*
X141276154Y-91260952D01*
X141276154Y-91260952D02*
X141323773Y-91284762D01*
X141323773Y-91284762D02*
X141442821Y-91284762D01*
X141442821Y-91284762D02*
X141490440Y-91260952D01*
X141490440Y-91260952D02*
X141514250Y-91237143D01*
X141514250Y-91237143D02*
X141538059Y-91189524D01*
X141538059Y-91189524D02*
X141538059Y-91046667D01*
X141538059Y-91046667D02*
X141514250Y-90999048D01*
X141514250Y-90999048D02*
X141490440Y-90975238D01*
X153648059Y-88616666D02*
X153409964Y-88450000D01*
X153648059Y-88330952D02*
X153148059Y-88330952D01*
X153148059Y-88330952D02*
X153148059Y-88521428D01*
X153148059Y-88521428D02*
X153171869Y-88569047D01*
X153171869Y-88569047D02*
X153195678Y-88592857D01*
X153195678Y-88592857D02*
X153243297Y-88616666D01*
X153243297Y-88616666D02*
X153314726Y-88616666D01*
X153314726Y-88616666D02*
X153362345Y-88592857D01*
X153362345Y-88592857D02*
X153386154Y-88569047D01*
X153386154Y-88569047D02*
X153409964Y-88521428D01*
X153409964Y-88521428D02*
X153409964Y-88330952D01*
X153148059Y-89069047D02*
X153148059Y-88830952D01*
X153148059Y-88830952D02*
X153386154Y-88807143D01*
X153386154Y-88807143D02*
X153362345Y-88830952D01*
X153362345Y-88830952D02*
X153338535Y-88878571D01*
X153338535Y-88878571D02*
X153338535Y-88997619D01*
X153338535Y-88997619D02*
X153362345Y-89045238D01*
X153362345Y-89045238D02*
X153386154Y-89069047D01*
X153386154Y-89069047D02*
X153433773Y-89092857D01*
X153433773Y-89092857D02*
X153552821Y-89092857D01*
X153552821Y-89092857D02*
X153600440Y-89069047D01*
X153600440Y-89069047D02*
X153624250Y-89045238D01*
X153624250Y-89045238D02*
X153648059Y-88997619D01*
X153648059Y-88997619D02*
X153648059Y-88878571D01*
X153648059Y-88878571D02*
X153624250Y-88830952D01*
X153624250Y-88830952D02*
X153600440Y-88807143D01*
X127303333Y-91308059D02*
X127469999Y-91069964D01*
X127589047Y-91308059D02*
X127589047Y-90808059D01*
X127589047Y-90808059D02*
X127398571Y-90808059D01*
X127398571Y-90808059D02*
X127350952Y-90831869D01*
X127350952Y-90831869D02*
X127327142Y-90855678D01*
X127327142Y-90855678D02*
X127303333Y-90903297D01*
X127303333Y-90903297D02*
X127303333Y-90974726D01*
X127303333Y-90974726D02*
X127327142Y-91022345D01*
X127327142Y-91022345D02*
X127350952Y-91046154D01*
X127350952Y-91046154D02*
X127398571Y-91069964D01*
X127398571Y-91069964D02*
X127589047Y-91069964D01*
X127112856Y-90855678D02*
X127089047Y-90831869D01*
X127089047Y-90831869D02*
X127041428Y-90808059D01*
X127041428Y-90808059D02*
X126922380Y-90808059D01*
X126922380Y-90808059D02*
X126874761Y-90831869D01*
X126874761Y-90831869D02*
X126850952Y-90855678D01*
X126850952Y-90855678D02*
X126827142Y-90903297D01*
X126827142Y-90903297D02*
X126827142Y-90950916D01*
X126827142Y-90950916D02*
X126850952Y-91022345D01*
X126850952Y-91022345D02*
X127136666Y-91308059D01*
X127136666Y-91308059D02*
X126827142Y-91308059D01*
D11*
%TO.C,U2*%
X135757500Y-68770000D02*
X133807500Y-68770000D01*
X135757500Y-68770000D02*
X137707500Y-68770000D01*
X135757500Y-73890000D02*
X133807500Y-73890000D01*
X135757500Y-73890000D02*
X137707500Y-73890000D01*
X133285000Y-74220000D02*
X132805000Y-74220000D01*
X133045000Y-73890000D01*
X133285000Y-74220000D01*
G36*
X133285000Y-74220000D02*
G01*
X132805000Y-74220000D01*
X133045000Y-73890000D01*
X133285000Y-74220000D01*
G37*
%TO.C,R4*%
X137742224Y-67197500D02*
X137232776Y-67197500D01*
X137742224Y-68242500D02*
X137232776Y-68242500D01*
%TO.C,R1*%
X127462224Y-69877500D02*
X126952776Y-69877500D01*
X127462224Y-70922500D02*
X126952776Y-70922500D01*
D12*
%TO.C,SW2*%
X156855000Y-70440000D02*
X156855000Y-70440000D01*
X156955000Y-70440000D02*
X156955000Y-70440000D01*
X156855000Y-70440000D02*
G75*
G02*
X156955000Y-70440000I50000J0D01*
G01*
X156955000Y-70440000D02*
G75*
G02*
X156855000Y-70440000I-50000J0D01*
G01*
D11*
%TO.C,C2*%
X137673767Y-74440000D02*
X137381233Y-74440000D01*
X137673767Y-75460000D02*
X137381233Y-75460000D01*
%TO.C,C1*%
X140560000Y-67633767D02*
X140560000Y-67341233D01*
X141580000Y-67633767D02*
X141580000Y-67341233D01*
%TO.C,U3*%
X142150000Y-71650000D02*
X142150000Y-70150000D01*
X142150000Y-71650000D02*
X142150000Y-73150000D01*
X145370000Y-71650000D02*
X145370000Y-70150000D01*
X145370000Y-71650000D02*
X145370000Y-73150000D01*
X142350000Y-69437500D02*
X142020000Y-69677500D01*
X142020000Y-69197500D01*
X142350000Y-69437500D01*
G36*
X142350000Y-69437500D02*
G01*
X142020000Y-69677500D01*
X142020000Y-69197500D01*
X142350000Y-69437500D01*
G37*
%TO.C,R5*%
X151777500Y-69692224D02*
X151777500Y-69182776D01*
X152822500Y-69692224D02*
X152822500Y-69182776D01*
%TO.C,R2*%
X127462224Y-72387500D02*
X126952776Y-72387500D01*
X127462224Y-73432500D02*
X126952776Y-73432500D01*
%TO.C,U2*%
X135757500Y-88000000D02*
X133807500Y-88000000D01*
X135757500Y-88000000D02*
X137707500Y-88000000D01*
X135757500Y-93120000D02*
X133807500Y-93120000D01*
X135757500Y-93120000D02*
X137707500Y-93120000D01*
X133285000Y-93450000D02*
X132805000Y-93450000D01*
X133045000Y-93120000D01*
X133285000Y-93450000D01*
G36*
X133285000Y-93450000D02*
G01*
X132805000Y-93450000D01*
X133045000Y-93120000D01*
X133285000Y-93450000D01*
G37*
%TO.C,R4*%
X137742224Y-86427500D02*
X137232776Y-86427500D01*
X137742224Y-87472500D02*
X137232776Y-87472500D01*
%TO.C,R1*%
X127462224Y-89107500D02*
X126952776Y-89107500D01*
X127462224Y-90152500D02*
X126952776Y-90152500D01*
D12*
%TO.C,SW2*%
X156855000Y-89670000D02*
X156855000Y-89670000D01*
X156955000Y-89670000D02*
X156955000Y-89670000D01*
X156855000Y-89670000D02*
G75*
G02*
X156955000Y-89670000I50000J0D01*
G01*
X156955000Y-89670000D02*
G75*
G02*
X156855000Y-89670000I-50000J0D01*
G01*
D11*
%TO.C,C2*%
X137673767Y-93670000D02*
X137381233Y-93670000D01*
X137673767Y-94690000D02*
X137381233Y-94690000D01*
%TO.C,C1*%
X140560000Y-86863767D02*
X140560000Y-86571233D01*
X141580000Y-86863767D02*
X141580000Y-86571233D01*
%TO.C,U3*%
X142150000Y-90880000D02*
X142150000Y-89380000D01*
X142150000Y-90880000D02*
X142150000Y-92380000D01*
X145370000Y-90880000D02*
X145370000Y-89380000D01*
X145370000Y-90880000D02*
X145370000Y-92380000D01*
X142350000Y-88667500D02*
X142020000Y-88907500D01*
X142020000Y-88427500D01*
X142350000Y-88667500D01*
G36*
X142350000Y-88667500D02*
G01*
X142020000Y-88907500D01*
X142020000Y-88427500D01*
X142350000Y-88667500D01*
G37*
%TO.C,R5*%
X151777500Y-88922224D02*
X151777500Y-88412776D01*
X152822500Y-88922224D02*
X152822500Y-88412776D01*
%TO.C,R2*%
X127462224Y-91617500D02*
X126952776Y-91617500D01*
X127462224Y-92662500D02*
X126952776Y-92662500D01*
%TD*%
M02*
