M48
; DRILL file {KiCad 9.0.1} date 2025-04-29T18:49:47+0900
; FORMAT={-:-/ absolute / metric / decimal}
; #@! TF.CreationDate,2025-04-29T18:49:47+09:00
; #@! TF.GenerationSoftware,Kicad,Pcbnew,9.0.1
; #@! TF.FileFunction,Plated,1,4,PTH
FMAT,2
METRIC
; #@! TA.AperFunction,Plated,PTH,ViaDrill
T1C0.300
; #@! TA.AperFunction,Plated,PTH,ComponentDrill
T2C0.600
; #@! TA.AperFunction,Plated,PTH,ComponentDrill
T3C0.800
; #@! TA.AperFunction,Plated,PTH,ComponentDrill
T4C1.000
%
G90
G05
T1
X102.295Y-97.87
X102.295Y-100.38
X104.12Y-97.87
X104.12Y-100.38
X106.47Y-95.79
X106.47Y-96.59
X106.47Y-101.39
X106.47Y-102.19
X107.56Y-100.22
X107.63Y-99.41
X109.065Y-103.125
X110.199Y-103.12
X110.505Y-96.68
X110.505Y-101.11
X110.658Y-94.798
X111.757Y-98.8
X114.6Y-92.65
X115.906Y-96.963
X117.038Y-95.832
X118.99Y-99.53
X119.75Y-98.23
X119.76Y-100.07
X119.77Y-95.33
X120.64Y-99.5
X121.351Y-94.701
X121.351Y-103.539
X121.917Y-95.266
X122.482Y-95.832
X123.614Y-101.277
X124.179Y-97.529
X124.179Y-100.711
X124.745Y-98.095
X124.745Y-100.145
X127.315Y-96.823
X128.3Y-97.82
X129.465Y-96.823
X129.465Y-100.974
X129.575Y-94.56
X133.67Y-98.91
X133.67Y-99.91
T3
X105.79Y-91.5
X105.79Y-106.74
X108.33Y-91.5
X108.33Y-106.74
X110.87Y-91.5
X110.87Y-106.74
X113.41Y-91.5
X113.41Y-106.74
X115.95Y-91.5
X115.95Y-106.74
X118.49Y-91.5
X118.49Y-106.74
X121.03Y-91.5
X121.03Y-106.74
X123.57Y-91.5
X123.57Y-106.74
X126.11Y-91.5
X126.11Y-106.74
X128.65Y-91.5
X128.65Y-106.74
X131.19Y-91.5
X131.19Y-106.74
X133.73Y-91.5
X133.73Y-106.74
T4
X131.69Y-96.408
X131.69Y-98.948
X131.69Y-101.489
T2
G00X102.115Y-94.67
M15
G01X101.315Y-94.67
M16
G05
G00X102.115Y-103.31
M15
G01X101.315Y-103.31
M16
G05
G00X106.445Y-94.67
M15
G01X105.345Y-94.67
M16
G05
G00X106.445Y-103.31
M15
G01X105.345Y-103.31
M16
G05
M30
