%TF.GenerationSoftware,KiCad,Pcbnew,9.0.1*%
%TF.CreationDate,2025-04-29T19:20:24+09:00*%
%TF.ProjectId,ATtiny328P.kicad_pcb,41547469-6e79-4333-9238-502e6b696361,rev?*%
%TF.SameCoordinates,Original*%
%TF.FileFunction,Copper,L2,Inr*%
%TF.FilePolarity,Positive*%
%FSLAX46Y46*%
G04 Gerber Fmt 4.6, Leading zero omitted, Abs format (unit mm)*
G04 Created by KiCad (PCBNEW 9.0.1) date 2025-04-29 19:20:24*
%MOMM*%
%LPD*%
G01*
G04 APERTURE LIST*
G04 Aperture macros list*
%AMRoundRect*
0 Rectangle with rounded corners*
0 $1 Rounding radius*
0 $2 $3 $4 $5 $6 $7 $8 $9 X,Y pos of 4 corners*
0 Add a 4 corners polygon primitive as box body*
4,1,4,$2,$3,$4,$5,$6,$7,$8,$9,$2,$3,0*
0 Add four circle primitives for the rounded corners*
1,1,$1+$1,$2,$3*
1,1,$1+$1,$4,$5*
1,1,$1+$1,$6,$7*
1,1,$1+$1,$8,$9*
0 Add four rect primitives between the rounded corners*
20,1,$1+$1,$2,$3,$4,$5,0*
20,1,$1+$1,$4,$5,$6,$7,0*
20,1,$1+$1,$6,$7,$8,$9,0*
20,1,$1+$1,$8,$9,$2,$3,0*%
G04 Aperture macros list end*
%TA.AperFunction,ComponentPad*%
%ADD10RoundRect,0.250000X0.550000X-0.550000X0.550000X0.550000X-0.550000X0.550000X-0.550000X-0.550000X0*%
%TD*%
%TA.AperFunction,ComponentPad*%
%ADD11C,1.600000*%
%TD*%
%TA.AperFunction,ComponentPad*%
%ADD12R,1.700000X1.700000*%
%TD*%
%TA.AperFunction,ComponentPad*%
%ADD13C,1.700000*%
%TD*%
%TA.AperFunction,HeatsinkPad*%
%ADD14O,2.100000X1.000000*%
%TD*%
%TA.AperFunction,HeatsinkPad*%
%ADD15O,1.800000X1.000000*%
%TD*%
%TA.AperFunction,ViaPad*%
%ADD16C,0.600000*%
%TD*%
%TA.AperFunction,Conductor*%
%ADD17C,0.200000*%
%TD*%
G04 APERTURE END LIST*
D10*
%TO.N,/PD7*%
%TO.C,J2*%
X129790000Y-79270000D03*
D11*
%TO.N,/PB0*%
X132330000Y-79270000D03*
%TO.N,/PB1*%
X134870000Y-79270000D03*
%TO.N,/PB2*%
X137410000Y-79270000D03*
%TO.N,/PB3*%
X139950000Y-79270000D03*
%TO.N,/PB4*%
X142490000Y-79270000D03*
%TO.N,/PB5*%
X145030000Y-79270000D03*
%TO.N,ADC6*%
X147570000Y-79270000D03*
%TO.N,AREF*%
X150110000Y-79270000D03*
%TO.N,ADC7*%
X152650000Y-79270000D03*
%TO.N,/PC0*%
X155190000Y-79270000D03*
%TO.N,/PC1*%
X157730000Y-79270000D03*
%TO.N,/PC2*%
X157730000Y-64030000D03*
%TO.N,/PC3*%
X155190000Y-64030000D03*
%TO.N,/PC4*%
X152650000Y-64030000D03*
%TO.N,/PC5*%
X150110000Y-64030000D03*
%TO.N,PC6*%
X147570000Y-64030000D03*
%TO.N,/PD2*%
X145030000Y-64030000D03*
%TO.N,/PD3*%
X142490000Y-64030000D03*
%TO.N,/PD4*%
X139950000Y-64030000D03*
%TO.N,GND*%
X137410000Y-64030000D03*
%TO.N,+5V*%
X134870000Y-64030000D03*
%TO.N,/PD5*%
X132330000Y-64030000D03*
%TO.N,/PD6*%
X129790000Y-64030000D03*
%TD*%
D12*
%TO.N,GND*%
%TO.C,J3*%
X155690000Y-68938500D03*
D13*
%TO.N,UPDI*%
X155690000Y-71478500D03*
%TO.N,+5V*%
X155690000Y-74018500D03*
%TD*%
D14*
%TO.N,GND*%
%TO.C,J1*%
X129895000Y-67200000D03*
D15*
X125715000Y-67200000D03*
D14*
X129895000Y-75840000D03*
D15*
X125715000Y-75840000D03*
%TD*%
D10*
%TO.N,/PD7*%
%TO.C,J2*%
X129790000Y-98500000D03*
D11*
%TO.N,/PB0*%
X132330000Y-98500000D03*
%TO.N,/PB1*%
X134870000Y-98500000D03*
%TO.N,/PB2*%
X137410000Y-98500000D03*
%TO.N,/PB3*%
X139950000Y-98500000D03*
%TO.N,/PB4*%
X142490000Y-98500000D03*
%TO.N,/PB5*%
X145030000Y-98500000D03*
%TO.N,ADC6*%
X147570000Y-98500000D03*
%TO.N,AREF*%
X150110000Y-98500000D03*
%TO.N,ADC7*%
X152650000Y-98500000D03*
%TO.N,/PC0*%
X155190000Y-98500000D03*
%TO.N,/PC1*%
X157730000Y-98500000D03*
%TO.N,/PC2*%
X157730000Y-83260000D03*
%TO.N,/PC3*%
X155190000Y-83260000D03*
%TO.N,/PC4*%
X152650000Y-83260000D03*
%TO.N,/PC5*%
X150110000Y-83260000D03*
%TO.N,PC6*%
X147570000Y-83260000D03*
%TO.N,/PD2*%
X145030000Y-83260000D03*
%TO.N,/PD3*%
X142490000Y-83260000D03*
%TO.N,/PD4*%
X139950000Y-83260000D03*
%TO.N,GND*%
X137410000Y-83260000D03*
%TO.N,+5V*%
X134870000Y-83260000D03*
%TO.N,/PD5*%
X132330000Y-83260000D03*
%TO.N,/PD6*%
X129790000Y-83260000D03*
%TD*%
D12*
%TO.N,GND*%
%TO.C,J3*%
X155690000Y-88168500D03*
D13*
%TO.N,UPDI*%
X155690000Y-90708500D03*
%TO.N,+5V*%
X155690000Y-93248500D03*
%TD*%
D14*
%TO.N,GND*%
%TO.C,J1*%
X129895000Y-86430000D03*
D15*
X125715000Y-86430000D03*
D14*
X129895000Y-95070000D03*
D15*
X125715000Y-95070000D03*
%TD*%
D16*
%TO.N,PD0{slash}RxD*%
X145916676Y-67796268D03*
X144640000Y-72030000D03*
%TO.N,Net-(SW2-COM)*%
X152300000Y-70350000D03*
X157670000Y-71440000D03*
%TO.N,UPDI*%
X143750000Y-70760000D03*
%TO.N,Net-(D3-A)*%
X153575000Y-67090000D03*
%TO.N,PD1{slash}TxD*%
X145350990Y-67230583D03*
X142990000Y-72060000D03*
%TO.N,PC6*%
X151315000Y-69353500D03*
X146482361Y-68361953D03*
%TO.N,/PD6*%
X133065000Y-75655000D03*
%TO.N,/PC3*%
X148179417Y-70059010D03*
%TO.N,Net-(J1-CC2)*%
X128120000Y-72910000D03*
%TO.N,GND*%
X156040000Y-66510000D03*
X126295000Y-72910000D03*
X126295000Y-70400000D03*
X134657919Y-67327919D03*
%TO.N,Net-(D2-A)*%
X134505000Y-73640000D03*
X134505000Y-69210000D03*
%TO.N,Net-(J1-CC1)*%
X128120000Y-70400000D03*
%TO.N,ADC7*%
X147613732Y-73806676D03*
%TO.N,/PC0*%
X148179417Y-73240990D03*
%TO.N,GND*%
X130470000Y-74720000D03*
%TO.N,D-*%
X131630000Y-71940000D03*
%TO.N,/PC1*%
X148745305Y-72675305D03*
%TO.N,/PC2*%
X148745103Y-70624695D03*
%TO.N,D+*%
X131560000Y-72750000D03*
%TO.N,GND*%
X153465000Y-73503500D03*
X130470000Y-68320000D03*
X135757500Y-71330000D03*
X143770000Y-67860000D03*
X138600000Y-65180000D03*
%TO.N,+5V*%
X157670000Y-72440000D03*
%TO.N,/PD5*%
X134199451Y-75650000D03*
%TO.N,+5V*%
X130470000Y-69120000D03*
X130470000Y-73920000D03*
X145350990Y-76069417D03*
X141037639Y-68361953D03*
X139906268Y-69493324D03*
X143760000Y-72600000D03*
%TO.N,PD0{slash}RxD*%
X145916676Y-87026268D03*
X144640000Y-91260000D03*
%TO.N,Net-(SW2-COM)*%
X152300000Y-89580000D03*
X157670000Y-90670000D03*
%TO.N,UPDI*%
X143750000Y-89990000D03*
%TO.N,Net-(D3-A)*%
X153575000Y-86320000D03*
%TO.N,PD1{slash}TxD*%
X145350990Y-86460583D03*
X142990000Y-91290000D03*
%TO.N,PC6*%
X151315000Y-88583500D03*
X146482361Y-87591953D03*
%TO.N,/PD6*%
X133065000Y-94885000D03*
%TO.N,/PC3*%
X148179417Y-89289010D03*
%TO.N,Net-(J1-CC2)*%
X128120000Y-92140000D03*
%TO.N,GND*%
X156040000Y-85740000D03*
X126295000Y-92140000D03*
X126295000Y-89630000D03*
X134657919Y-86557919D03*
%TO.N,Net-(D2-A)*%
X134505000Y-92870000D03*
X134505000Y-88440000D03*
%TO.N,Net-(J1-CC1)*%
X128120000Y-89630000D03*
%TO.N,ADC7*%
X147613732Y-93036676D03*
%TO.N,/PC0*%
X148179417Y-92470990D03*
%TO.N,GND*%
X130470000Y-93950000D03*
%TO.N,D-*%
X131630000Y-91170000D03*
%TO.N,/PC1*%
X148745305Y-91905305D03*
%TO.N,/PC2*%
X148745103Y-89854695D03*
%TO.N,D+*%
X131560000Y-91980000D03*
%TO.N,GND*%
X153465000Y-92733500D03*
X130470000Y-87550000D03*
X135757500Y-90560000D03*
X143770000Y-87090000D03*
X138600000Y-84410000D03*
%TO.N,+5V*%
X157670000Y-91670000D03*
%TO.N,/PD5*%
X134199451Y-94880000D03*
%TO.N,+5V*%
X130470000Y-88350000D03*
X130470000Y-93150000D03*
X145350990Y-95299417D03*
X141037639Y-87591953D03*
X139906268Y-88723324D03*
X143760000Y-91830000D03*
%TD*%
D17*
%TO.N,PD1{slash}TxD*%
X142990000Y-69591573D02*
X145350990Y-67230583D01*
X142990000Y-72060000D02*
X142990000Y-69591573D01*
%TO.N,PC6*%
X147473908Y-69353500D02*
X146482361Y-68361953D01*
X151315000Y-69353500D02*
X147473908Y-69353500D01*
%TO.N,PD0{slash}RxD*%
X144640000Y-72030000D02*
X144640000Y-69072944D01*
X144640000Y-69072944D02*
X145916676Y-67796268D01*
%TO.N,PD1{slash}TxD*%
X142990000Y-88821573D02*
X145350990Y-86460583D01*
X142990000Y-91290000D02*
X142990000Y-88821573D01*
%TO.N,PC6*%
X147473908Y-88583500D02*
X146482361Y-87591953D01*
X151315000Y-88583500D02*
X147473908Y-88583500D01*
%TO.N,PD0{slash}RxD*%
X144640000Y-91260000D02*
X144640000Y-88302944D01*
X144640000Y-88302944D02*
X145916676Y-87026268D01*
%TD*%
%TA.AperFunction,Conductor*%
%TO.N,+5V*%
G36*
X129143647Y-82280185D02*
G01*
X129189402Y-82332989D01*
X129199346Y-82402147D01*
X129170321Y-82465703D01*
X129155275Y-82480352D01*
X129152212Y-82482865D01*
X129012863Y-82622214D01*
X129012860Y-82622218D01*
X128903371Y-82786079D01*
X128903364Y-82786092D01*
X128827950Y-82968160D01*
X128827947Y-82968170D01*
X128789500Y-83161456D01*
X128789500Y-83161459D01*
X128789500Y-83358541D01*
X128789500Y-83358543D01*
X128789499Y-83358543D01*
X128827947Y-83551829D01*
X128827950Y-83551839D01*
X128903364Y-83733907D01*
X128903371Y-83733920D01*
X129012860Y-83897781D01*
X129012863Y-83897785D01*
X129152214Y-84037136D01*
X129152218Y-84037139D01*
X129316079Y-84146628D01*
X129316092Y-84146635D01*
X129498160Y-84222049D01*
X129498165Y-84222051D01*
X129498169Y-84222051D01*
X129498170Y-84222052D01*
X129691456Y-84260500D01*
X129691459Y-84260500D01*
X129888543Y-84260500D01*
X130043406Y-84229695D01*
X130081835Y-84222051D01*
X130263914Y-84146632D01*
X130427782Y-84037139D01*
X130567139Y-83897782D01*
X130676632Y-83733914D01*
X130752051Y-83551835D01*
X130788034Y-83370938D01*
X130790500Y-83358543D01*
X130790500Y-83161456D01*
X130752052Y-82968170D01*
X130752051Y-82968169D01*
X130752051Y-82968165D01*
X130707248Y-82860000D01*
X130676635Y-82786092D01*
X130676628Y-82786079D01*
X130567139Y-82622218D01*
X130567136Y-82622214D01*
X130427787Y-82482865D01*
X130424725Y-82480352D01*
X130423552Y-82478630D01*
X130423475Y-82478553D01*
X130423489Y-82478538D01*
X130385392Y-82422605D01*
X130383523Y-82352761D01*
X130419711Y-82292993D01*
X130482468Y-82262278D01*
X130503392Y-82260500D01*
X131616608Y-82260500D01*
X131683647Y-82280185D01*
X131729402Y-82332989D01*
X131739346Y-82402147D01*
X131710321Y-82465703D01*
X131695275Y-82480352D01*
X131692212Y-82482865D01*
X131552863Y-82622214D01*
X131552860Y-82622218D01*
X131443371Y-82786079D01*
X131443364Y-82786092D01*
X131367950Y-82968160D01*
X131367947Y-82968170D01*
X131329500Y-83161456D01*
X131329500Y-83161459D01*
X131329500Y-83358541D01*
X131329500Y-83358543D01*
X131329499Y-83358543D01*
X131367947Y-83551829D01*
X131367950Y-83551839D01*
X131443364Y-83733907D01*
X131443371Y-83733920D01*
X131552860Y-83897781D01*
X131552863Y-83897785D01*
X131692214Y-84037136D01*
X131692218Y-84037139D01*
X131856079Y-84146628D01*
X131856092Y-84146635D01*
X132038160Y-84222049D01*
X132038165Y-84222051D01*
X132038169Y-84222051D01*
X132038170Y-84222052D01*
X132231456Y-84260500D01*
X132231459Y-84260500D01*
X132428543Y-84260500D01*
X132583406Y-84229695D01*
X132621835Y-84222051D01*
X132663164Y-84204931D01*
X132729021Y-84177654D01*
X132803907Y-84146635D01*
X132803907Y-84146634D01*
X132803914Y-84146632D01*
X132967782Y-84037139D01*
X133107139Y-83897782D01*
X133216632Y-83733914D01*
X133292051Y-83551835D01*
X133328034Y-83370937D01*
X133360419Y-83309027D01*
X133421134Y-83274453D01*
X133490904Y-83278192D01*
X133547576Y-83319059D01*
X133572124Y-83375731D01*
X133602009Y-83564417D01*
X133665244Y-83759031D01*
X133758141Y-83941350D01*
X133758147Y-83941359D01*
X133790523Y-83985921D01*
X133790524Y-83985922D01*
X134470000Y-83306446D01*
X134470000Y-83312661D01*
X134497259Y-83414394D01*
X134549920Y-83505606D01*
X134624394Y-83580080D01*
X134715606Y-83632741D01*
X134817339Y-83660000D01*
X134823553Y-83660000D01*
X134144076Y-84339474D01*
X134188650Y-84371859D01*
X134370968Y-84464755D01*
X134565582Y-84527990D01*
X134767683Y-84560000D01*
X134972317Y-84560000D01*
X135174417Y-84527990D01*
X135369031Y-84464755D01*
X135551349Y-84371859D01*
X135595921Y-84339474D01*
X134916447Y-83660000D01*
X134922661Y-83660000D01*
X135024394Y-83632741D01*
X135115606Y-83580080D01*
X135190080Y-83505606D01*
X135242741Y-83414394D01*
X135270000Y-83312661D01*
X135270000Y-83306447D01*
X135949474Y-83985921D01*
X135981859Y-83941349D01*
X136074755Y-83759031D01*
X136137990Y-83564417D01*
X136167875Y-83375731D01*
X136197804Y-83312596D01*
X136257116Y-83275665D01*
X136326978Y-83276663D01*
X136385211Y-83315273D01*
X136411965Y-83370937D01*
X136447947Y-83551829D01*
X136447950Y-83551839D01*
X136523364Y-83733907D01*
X136523371Y-83733920D01*
X136632860Y-83897781D01*
X136632863Y-83897785D01*
X136772214Y-84037136D01*
X136772218Y-84037139D01*
X136936079Y-84146628D01*
X136936092Y-84146635D01*
X137118160Y-84222049D01*
X137118165Y-84222051D01*
X137118169Y-84222051D01*
X137118170Y-84222052D01*
X137311456Y-84260500D01*
X137311459Y-84260500D01*
X137508543Y-84260500D01*
X137663406Y-84229695D01*
X137701835Y-84222051D01*
X137883914Y-84146632D01*
X137937032Y-84111140D01*
X138003709Y-84090262D01*
X138071089Y-84108746D01*
X138117780Y-84160725D01*
X138128956Y-84229695D01*
X138125698Y-84246334D01*
X138099500Y-84344108D01*
X138099500Y-84475892D01*
X138116554Y-84539539D01*
X138133608Y-84603187D01*
X138166554Y-84660250D01*
X138199500Y-84717314D01*
X138292686Y-84810500D01*
X138406814Y-84876392D01*
X138534108Y-84910500D01*
X138534110Y-84910500D01*
X138665890Y-84910500D01*
X138665892Y-84910500D01*
X138793186Y-84876392D01*
X138907314Y-84810500D01*
X139000500Y-84717314D01*
X139066392Y-84603186D01*
X139100500Y-84475892D01*
X139100500Y-84344108D01*
X139066392Y-84216814D01*
X139000500Y-84102686D01*
X138907314Y-84009500D01*
X138850250Y-83976554D01*
X138793187Y-83943608D01*
X138729539Y-83926554D01*
X138665892Y-83909500D01*
X138534108Y-83909500D01*
X138420167Y-83940030D01*
X138350317Y-83938367D01*
X138292455Y-83899204D01*
X138264951Y-83834975D01*
X138276538Y-83766073D01*
X138284974Y-83751361D01*
X138296629Y-83733918D01*
X138296632Y-83733914D01*
X138372051Y-83551835D01*
X138408034Y-83370938D01*
X138410500Y-83358543D01*
X138410500Y-83161456D01*
X138372052Y-82968170D01*
X138372051Y-82968169D01*
X138372051Y-82968165D01*
X138327248Y-82860000D01*
X138296635Y-82786092D01*
X138296628Y-82786079D01*
X138187139Y-82622218D01*
X138187136Y-82622214D01*
X138047787Y-82482865D01*
X138044725Y-82480352D01*
X138043552Y-82478630D01*
X138043475Y-82478553D01*
X138043489Y-82478538D01*
X138005392Y-82422605D01*
X138003523Y-82352761D01*
X138039711Y-82292993D01*
X138102468Y-82262278D01*
X138123392Y-82260500D01*
X139236608Y-82260500D01*
X139303647Y-82280185D01*
X139349402Y-82332989D01*
X139359346Y-82402147D01*
X139330321Y-82465703D01*
X139315275Y-82480352D01*
X139312212Y-82482865D01*
X139172863Y-82622214D01*
X139172860Y-82622218D01*
X139063371Y-82786079D01*
X139063364Y-82786092D01*
X138987950Y-82968160D01*
X138987947Y-82968170D01*
X138949500Y-83161456D01*
X138949500Y-83161459D01*
X138949500Y-83358541D01*
X138949500Y-83358543D01*
X138949499Y-83358543D01*
X138987947Y-83551829D01*
X138987950Y-83551839D01*
X139063364Y-83733907D01*
X139063371Y-83733920D01*
X139172860Y-83897781D01*
X139172863Y-83897785D01*
X139312214Y-84037136D01*
X139312218Y-84037139D01*
X139476079Y-84146628D01*
X139476092Y-84146635D01*
X139658160Y-84222049D01*
X139658165Y-84222051D01*
X139658169Y-84222051D01*
X139658170Y-84222052D01*
X139851456Y-84260500D01*
X139851459Y-84260500D01*
X140048543Y-84260500D01*
X140203406Y-84229695D01*
X140241835Y-84222051D01*
X140423914Y-84146632D01*
X140587782Y-84037139D01*
X140727139Y-83897782D01*
X140836632Y-83733914D01*
X140912051Y-83551835D01*
X140948034Y-83370938D01*
X140950500Y-83358543D01*
X140950500Y-83161456D01*
X140912052Y-82968170D01*
X140912051Y-82968169D01*
X140912051Y-82968165D01*
X140867248Y-82860000D01*
X140836635Y-82786092D01*
X140836628Y-82786079D01*
X140727139Y-82622218D01*
X140727136Y-82622214D01*
X140587787Y-82482865D01*
X140584725Y-82480352D01*
X140583552Y-82478630D01*
X140583475Y-82478553D01*
X140583489Y-82478538D01*
X140545392Y-82422605D01*
X140543523Y-82352761D01*
X140579711Y-82292993D01*
X140642468Y-82262278D01*
X140663392Y-82260500D01*
X141776608Y-82260500D01*
X141843647Y-82280185D01*
X141889402Y-82332989D01*
X141899346Y-82402147D01*
X141870321Y-82465703D01*
X141855275Y-82480352D01*
X141852212Y-82482865D01*
X141712863Y-82622214D01*
X141712860Y-82622218D01*
X141603371Y-82786079D01*
X141603364Y-82786092D01*
X141527950Y-82968160D01*
X141527947Y-82968170D01*
X141489500Y-83161456D01*
X141489500Y-83161459D01*
X141489500Y-83358541D01*
X141489500Y-83358543D01*
X141489499Y-83358543D01*
X141527947Y-83551829D01*
X141527950Y-83551839D01*
X141603364Y-83733907D01*
X141603371Y-83733920D01*
X141712860Y-83897781D01*
X141712863Y-83897785D01*
X141852214Y-84037136D01*
X141852218Y-84037139D01*
X142016079Y-84146628D01*
X142016092Y-84146635D01*
X142198160Y-84222049D01*
X142198165Y-84222051D01*
X142198169Y-84222051D01*
X142198170Y-84222052D01*
X142391456Y-84260500D01*
X142391459Y-84260500D01*
X142588543Y-84260500D01*
X142743406Y-84229695D01*
X142781835Y-84222051D01*
X142963914Y-84146632D01*
X143127782Y-84037139D01*
X143267139Y-83897782D01*
X143376632Y-83733914D01*
X143452051Y-83551835D01*
X143488034Y-83370938D01*
X143490500Y-83358543D01*
X143490500Y-83161456D01*
X143452052Y-82968170D01*
X143452051Y-82968169D01*
X143452051Y-82968165D01*
X143407248Y-82860000D01*
X143376635Y-82786092D01*
X143376628Y-82786079D01*
X143267139Y-82622218D01*
X143267136Y-82622214D01*
X143127787Y-82482865D01*
X143124725Y-82480352D01*
X143123552Y-82478630D01*
X143123475Y-82478553D01*
X143123489Y-82478538D01*
X143085392Y-82422605D01*
X143083523Y-82352761D01*
X143119711Y-82292993D01*
X143182468Y-82262278D01*
X143203392Y-82260500D01*
X144316608Y-82260500D01*
X144383647Y-82280185D01*
X144429402Y-82332989D01*
X144439346Y-82402147D01*
X144410321Y-82465703D01*
X144395275Y-82480352D01*
X144392212Y-82482865D01*
X144252863Y-82622214D01*
X144252860Y-82622218D01*
X144143371Y-82786079D01*
X144143364Y-82786092D01*
X144067950Y-82968160D01*
X144067947Y-82968170D01*
X144029500Y-83161456D01*
X144029500Y-83161459D01*
X144029500Y-83358541D01*
X144029500Y-83358543D01*
X144029499Y-83358543D01*
X144067947Y-83551829D01*
X144067950Y-83551839D01*
X144143364Y-83733907D01*
X144143371Y-83733920D01*
X144252860Y-83897781D01*
X144252863Y-83897785D01*
X144392214Y-84037136D01*
X144392218Y-84037139D01*
X144556079Y-84146628D01*
X144556092Y-84146635D01*
X144738160Y-84222049D01*
X144738165Y-84222051D01*
X144738169Y-84222051D01*
X144738170Y-84222052D01*
X144931456Y-84260500D01*
X144931459Y-84260500D01*
X145128543Y-84260500D01*
X145283406Y-84229695D01*
X145321835Y-84222051D01*
X145503914Y-84146632D01*
X145667782Y-84037139D01*
X145807139Y-83897782D01*
X145916632Y-83733914D01*
X145992051Y-83551835D01*
X146028034Y-83370938D01*
X146030500Y-83358543D01*
X146030500Y-83161456D01*
X145992052Y-82968170D01*
X145992051Y-82968169D01*
X145992051Y-82968165D01*
X145947248Y-82860000D01*
X145916635Y-82786092D01*
X145916628Y-82786079D01*
X145807139Y-82622218D01*
X145807136Y-82622214D01*
X145667787Y-82482865D01*
X145664725Y-82480352D01*
X145663552Y-82478630D01*
X145663475Y-82478553D01*
X145663489Y-82478538D01*
X145625392Y-82422605D01*
X145623523Y-82352761D01*
X145659711Y-82292993D01*
X145722468Y-82262278D01*
X145743392Y-82260500D01*
X146856608Y-82260500D01*
X146923647Y-82280185D01*
X146969402Y-82332989D01*
X146979346Y-82402147D01*
X146950321Y-82465703D01*
X146935275Y-82480352D01*
X146932212Y-82482865D01*
X146792863Y-82622214D01*
X146792860Y-82622218D01*
X146683371Y-82786079D01*
X146683364Y-82786092D01*
X146607950Y-82968160D01*
X146607947Y-82968170D01*
X146569500Y-83161456D01*
X146569500Y-83161459D01*
X146569500Y-83358541D01*
X146569500Y-83358543D01*
X146569499Y-83358543D01*
X146607947Y-83551829D01*
X146607950Y-83551839D01*
X146683364Y-83733907D01*
X146683371Y-83733920D01*
X146792860Y-83897781D01*
X146792863Y-83897785D01*
X146932214Y-84037136D01*
X146932218Y-84037139D01*
X147096079Y-84146628D01*
X147096092Y-84146635D01*
X147278160Y-84222049D01*
X147278165Y-84222051D01*
X147278169Y-84222051D01*
X147278170Y-84222052D01*
X147471456Y-84260500D01*
X147471459Y-84260500D01*
X147668543Y-84260500D01*
X147823406Y-84229695D01*
X147861835Y-84222051D01*
X148043914Y-84146632D01*
X148207782Y-84037139D01*
X148347139Y-83897782D01*
X148456632Y-83733914D01*
X148532051Y-83551835D01*
X148568034Y-83370938D01*
X148570500Y-83358543D01*
X148570500Y-83161456D01*
X148532052Y-82968170D01*
X148532051Y-82968169D01*
X148532051Y-82968165D01*
X148487248Y-82860000D01*
X148456635Y-82786092D01*
X148456628Y-82786079D01*
X148347139Y-82622218D01*
X148347136Y-82622214D01*
X148207787Y-82482865D01*
X148204725Y-82480352D01*
X148203552Y-82478630D01*
X148203475Y-82478553D01*
X148203489Y-82478538D01*
X148165392Y-82422605D01*
X148163523Y-82352761D01*
X148199711Y-82292993D01*
X148262468Y-82262278D01*
X148283392Y-82260500D01*
X149396608Y-82260500D01*
X149463647Y-82280185D01*
X149509402Y-82332989D01*
X149519346Y-82402147D01*
X149490321Y-82465703D01*
X149475275Y-82480352D01*
X149472212Y-82482865D01*
X149332863Y-82622214D01*
X149332860Y-82622218D01*
X149223371Y-82786079D01*
X149223364Y-82786092D01*
X149147950Y-82968160D01*
X149147947Y-82968170D01*
X149109500Y-83161456D01*
X149109500Y-83161459D01*
X149109500Y-83358541D01*
X149109500Y-83358543D01*
X149109499Y-83358543D01*
X149147947Y-83551829D01*
X149147950Y-83551839D01*
X149223364Y-83733907D01*
X149223371Y-83733920D01*
X149332860Y-83897781D01*
X149332863Y-83897785D01*
X149472214Y-84037136D01*
X149472218Y-84037139D01*
X149636079Y-84146628D01*
X149636092Y-84146635D01*
X149818160Y-84222049D01*
X149818165Y-84222051D01*
X149818169Y-84222051D01*
X149818170Y-84222052D01*
X150011456Y-84260500D01*
X150011459Y-84260500D01*
X150208543Y-84260500D01*
X150363406Y-84229695D01*
X150401835Y-84222051D01*
X150583914Y-84146632D01*
X150747782Y-84037139D01*
X150887139Y-83897782D01*
X150996632Y-83733914D01*
X151072051Y-83551835D01*
X151108034Y-83370938D01*
X151110500Y-83358543D01*
X151110500Y-83161456D01*
X151072052Y-82968170D01*
X151072051Y-82968169D01*
X151072051Y-82968165D01*
X151027248Y-82860000D01*
X150996635Y-82786092D01*
X150996628Y-82786079D01*
X150887139Y-82622218D01*
X150887136Y-82622214D01*
X150747787Y-82482865D01*
X150744725Y-82480352D01*
X150743552Y-82478630D01*
X150743475Y-82478553D01*
X150743489Y-82478538D01*
X150705392Y-82422605D01*
X150703523Y-82352761D01*
X150739711Y-82292993D01*
X150802468Y-82262278D01*
X150823392Y-82260500D01*
X151936608Y-82260500D01*
X152003647Y-82280185D01*
X152049402Y-82332989D01*
X152059346Y-82402147D01*
X152030321Y-82465703D01*
X152015275Y-82480352D01*
X152012212Y-82482865D01*
X151872863Y-82622214D01*
X151872860Y-82622218D01*
X151763371Y-82786079D01*
X151763364Y-82786092D01*
X151687950Y-82968160D01*
X151687947Y-82968170D01*
X151649500Y-83161456D01*
X151649500Y-83161459D01*
X151649500Y-83358541D01*
X151649500Y-83358543D01*
X151649499Y-83358543D01*
X151687947Y-83551829D01*
X151687950Y-83551839D01*
X151763364Y-83733907D01*
X151763371Y-83733920D01*
X151872860Y-83897781D01*
X151872863Y-83897785D01*
X152012214Y-84037136D01*
X152012218Y-84037139D01*
X152176079Y-84146628D01*
X152176092Y-84146635D01*
X152358160Y-84222049D01*
X152358165Y-84222051D01*
X152358169Y-84222051D01*
X152358170Y-84222052D01*
X152551456Y-84260500D01*
X152551459Y-84260500D01*
X152748543Y-84260500D01*
X152903406Y-84229695D01*
X152941835Y-84222051D01*
X153123914Y-84146632D01*
X153287782Y-84037139D01*
X153427139Y-83897782D01*
X153536632Y-83733914D01*
X153612051Y-83551835D01*
X153648034Y-83370938D01*
X153650500Y-83358543D01*
X153650500Y-83161456D01*
X153612052Y-82968170D01*
X153612051Y-82968169D01*
X153612051Y-82968165D01*
X153567248Y-82860000D01*
X153536635Y-82786092D01*
X153536628Y-82786079D01*
X153427139Y-82622218D01*
X153427136Y-82622214D01*
X153287787Y-82482865D01*
X153284725Y-82480352D01*
X153283552Y-82478630D01*
X153283475Y-82478553D01*
X153283489Y-82478538D01*
X153245392Y-82422605D01*
X153243523Y-82352761D01*
X153279711Y-82292993D01*
X153342468Y-82262278D01*
X153363392Y-82260500D01*
X154476608Y-82260500D01*
X154543647Y-82280185D01*
X154589402Y-82332989D01*
X154599346Y-82402147D01*
X154570321Y-82465703D01*
X154555275Y-82480352D01*
X154552212Y-82482865D01*
X154412863Y-82622214D01*
X154412860Y-82622218D01*
X154303371Y-82786079D01*
X154303364Y-82786092D01*
X154227950Y-82968160D01*
X154227947Y-82968170D01*
X154189500Y-83161456D01*
X154189500Y-83161459D01*
X154189500Y-83358541D01*
X154189500Y-83358543D01*
X154189499Y-83358543D01*
X154227947Y-83551829D01*
X154227950Y-83551839D01*
X154303364Y-83733907D01*
X154303371Y-83733920D01*
X154412860Y-83897781D01*
X154412863Y-83897785D01*
X154552214Y-84037136D01*
X154552218Y-84037139D01*
X154716079Y-84146628D01*
X154716092Y-84146635D01*
X154898160Y-84222049D01*
X154898165Y-84222051D01*
X154898169Y-84222051D01*
X154898170Y-84222052D01*
X155091456Y-84260500D01*
X155091459Y-84260500D01*
X155288543Y-84260500D01*
X155443406Y-84229695D01*
X155481835Y-84222051D01*
X155663914Y-84146632D01*
X155827782Y-84037139D01*
X155967139Y-83897782D01*
X156076632Y-83733914D01*
X156152051Y-83551835D01*
X156188034Y-83370938D01*
X156190500Y-83358543D01*
X156190500Y-83161456D01*
X156152052Y-82968170D01*
X156152051Y-82968169D01*
X156152051Y-82968165D01*
X156107248Y-82860000D01*
X156076635Y-82786092D01*
X156076628Y-82786079D01*
X155967139Y-82622218D01*
X155967136Y-82622214D01*
X155827787Y-82482865D01*
X155824725Y-82480352D01*
X155823552Y-82478630D01*
X155823475Y-82478553D01*
X155823489Y-82478538D01*
X155785392Y-82422605D01*
X155783523Y-82352761D01*
X155819711Y-82292993D01*
X155882468Y-82262278D01*
X155903392Y-82260500D01*
X157016608Y-82260500D01*
X157083647Y-82280185D01*
X157129402Y-82332989D01*
X157139346Y-82402147D01*
X157110321Y-82465703D01*
X157095275Y-82480352D01*
X157092212Y-82482865D01*
X156952863Y-82622214D01*
X156952860Y-82622218D01*
X156843371Y-82786079D01*
X156843364Y-82786092D01*
X156767950Y-82968160D01*
X156767947Y-82968170D01*
X156729500Y-83161456D01*
X156729500Y-83161459D01*
X156729500Y-83358541D01*
X156729500Y-83358543D01*
X156729499Y-83358543D01*
X156767947Y-83551829D01*
X156767950Y-83551839D01*
X156843364Y-83733907D01*
X156843371Y-83733920D01*
X156952860Y-83897781D01*
X156952863Y-83897785D01*
X157092214Y-84037136D01*
X157092218Y-84037139D01*
X157256079Y-84146628D01*
X157256092Y-84146635D01*
X157438160Y-84222049D01*
X157438165Y-84222051D01*
X157438169Y-84222051D01*
X157438170Y-84222052D01*
X157631456Y-84260500D01*
X157631459Y-84260500D01*
X157828543Y-84260500D01*
X157983406Y-84229695D01*
X158021835Y-84222051D01*
X158203914Y-84146632D01*
X158367782Y-84037139D01*
X158507139Y-83897782D01*
X158616632Y-83733914D01*
X158692051Y-83551835D01*
X158728034Y-83370938D01*
X158730500Y-83358543D01*
X158730500Y-83161456D01*
X158692052Y-82968170D01*
X158692051Y-82968169D01*
X158692051Y-82968165D01*
X158647248Y-82860000D01*
X158616635Y-82786092D01*
X158616628Y-82786079D01*
X158507139Y-82622218D01*
X158507136Y-82622214D01*
X158367787Y-82482865D01*
X158364725Y-82480352D01*
X158363552Y-82478630D01*
X158363475Y-82478553D01*
X158363489Y-82478538D01*
X158325392Y-82422605D01*
X158323523Y-82352761D01*
X158359711Y-82292993D01*
X158422468Y-82262278D01*
X158443392Y-82260500D01*
X159375500Y-82260500D01*
X159442539Y-82280185D01*
X159488294Y-82332989D01*
X159499500Y-82384500D01*
X159499500Y-99375500D01*
X159479815Y-99442539D01*
X159427011Y-99488294D01*
X159375500Y-99499500D01*
X158443392Y-99499500D01*
X158376353Y-99479815D01*
X158330598Y-99427011D01*
X158320654Y-99357853D01*
X158349679Y-99294297D01*
X158364725Y-99279648D01*
X158367776Y-99277142D01*
X158367782Y-99277139D01*
X158507139Y-99137782D01*
X158616632Y-98973914D01*
X158692051Y-98791835D01*
X158730500Y-98598541D01*
X158730500Y-98401459D01*
X158730500Y-98401456D01*
X158692052Y-98208170D01*
X158692051Y-98208169D01*
X158692051Y-98208165D01*
X158692049Y-98208160D01*
X158616635Y-98026092D01*
X158616628Y-98026079D01*
X158507139Y-97862218D01*
X158507136Y-97862214D01*
X158367785Y-97722863D01*
X158367781Y-97722860D01*
X158203920Y-97613371D01*
X158203907Y-97613364D01*
X158021839Y-97537950D01*
X158021829Y-97537947D01*
X157828543Y-97499500D01*
X157828541Y-97499500D01*
X157631459Y-97499500D01*
X157631457Y-97499500D01*
X157438170Y-97537947D01*
X157438160Y-97537950D01*
X157256092Y-97613364D01*
X157256079Y-97613371D01*
X157092218Y-97722860D01*
X157092214Y-97722863D01*
X156952863Y-97862214D01*
X156952860Y-97862218D01*
X156843371Y-98026079D01*
X156843364Y-98026092D01*
X156767950Y-98208160D01*
X156767947Y-98208170D01*
X156729500Y-98401456D01*
X156729500Y-98401459D01*
X156729500Y-98598541D01*
X156729500Y-98598543D01*
X156729499Y-98598543D01*
X156767947Y-98791829D01*
X156767950Y-98791839D01*
X156843364Y-98973907D01*
X156843371Y-98973920D01*
X156952860Y-99137781D01*
X156952863Y-99137785D01*
X157092212Y-99277134D01*
X157095275Y-99279648D01*
X157096447Y-99281369D01*
X157096525Y-99281447D01*
X157096510Y-99281461D01*
X157134608Y-99337395D01*
X157136477Y-99407239D01*
X157100289Y-99467007D01*
X157037532Y-99497722D01*
X157016608Y-99499500D01*
X155903392Y-99499500D01*
X155836353Y-99479815D01*
X155790598Y-99427011D01*
X155780654Y-99357853D01*
X155809679Y-99294297D01*
X155824725Y-99279648D01*
X155827776Y-99277142D01*
X155827782Y-99277139D01*
X155967139Y-99137782D01*
X156076632Y-98973914D01*
X156152051Y-98791835D01*
X156190500Y-98598541D01*
X156190500Y-98401459D01*
X156190500Y-98401456D01*
X156152052Y-98208170D01*
X156152051Y-98208169D01*
X156152051Y-98208165D01*
X156152049Y-98208160D01*
X156076635Y-98026092D01*
X156076628Y-98026079D01*
X155967139Y-97862218D01*
X155967136Y-97862214D01*
X155827785Y-97722863D01*
X155827781Y-97722860D01*
X155663920Y-97613371D01*
X155663907Y-97613364D01*
X155481839Y-97537950D01*
X155481829Y-97537947D01*
X155288543Y-97499500D01*
X155288541Y-97499500D01*
X155091459Y-97499500D01*
X155091457Y-97499500D01*
X154898170Y-97537947D01*
X154898160Y-97537950D01*
X154716092Y-97613364D01*
X154716079Y-97613371D01*
X154552218Y-97722860D01*
X154552214Y-97722863D01*
X154412863Y-97862214D01*
X154412860Y-97862218D01*
X154303371Y-98026079D01*
X154303364Y-98026092D01*
X154227950Y-98208160D01*
X154227947Y-98208170D01*
X154189500Y-98401456D01*
X154189500Y-98401459D01*
X154189500Y-98598541D01*
X154189500Y-98598543D01*
X154189499Y-98598543D01*
X154227947Y-98791829D01*
X154227950Y-98791839D01*
X154303364Y-98973907D01*
X154303371Y-98973920D01*
X154412860Y-99137781D01*
X154412863Y-99137785D01*
X154552212Y-99277134D01*
X154555275Y-99279648D01*
X154556447Y-99281369D01*
X154556525Y-99281447D01*
X154556510Y-99281461D01*
X154594608Y-99337395D01*
X154596477Y-99407239D01*
X154560289Y-99467007D01*
X154497532Y-99497722D01*
X154476608Y-99499500D01*
X153363392Y-99499500D01*
X153296353Y-99479815D01*
X153250598Y-99427011D01*
X153240654Y-99357853D01*
X153269679Y-99294297D01*
X153284725Y-99279648D01*
X153287776Y-99277142D01*
X153287782Y-99277139D01*
X153427139Y-99137782D01*
X153536632Y-98973914D01*
X153612051Y-98791835D01*
X153650500Y-98598541D01*
X153650500Y-98401459D01*
X153650500Y-98401456D01*
X153612052Y-98208170D01*
X153612051Y-98208169D01*
X153612051Y-98208165D01*
X153612049Y-98208160D01*
X153536635Y-98026092D01*
X153536628Y-98026079D01*
X153427139Y-97862218D01*
X153427136Y-97862214D01*
X153287785Y-97722863D01*
X153287781Y-97722860D01*
X153123920Y-97613371D01*
X153123907Y-97613364D01*
X152941839Y-97537950D01*
X152941829Y-97537947D01*
X152748543Y-97499500D01*
X152748541Y-97499500D01*
X152551459Y-97499500D01*
X152551457Y-97499500D01*
X152358170Y-97537947D01*
X152358160Y-97537950D01*
X152176092Y-97613364D01*
X152176079Y-97613371D01*
X152012218Y-97722860D01*
X152012214Y-97722863D01*
X151872863Y-97862214D01*
X151872860Y-97862218D01*
X151763371Y-98026079D01*
X151763364Y-98026092D01*
X151687950Y-98208160D01*
X151687947Y-98208170D01*
X151649500Y-98401456D01*
X151649500Y-98401459D01*
X151649500Y-98598541D01*
X151649500Y-98598543D01*
X151649499Y-98598543D01*
X151687947Y-98791829D01*
X151687950Y-98791839D01*
X151763364Y-98973907D01*
X151763371Y-98973920D01*
X151872860Y-99137781D01*
X151872863Y-99137785D01*
X152012212Y-99277134D01*
X152015275Y-99279648D01*
X152016447Y-99281369D01*
X152016525Y-99281447D01*
X152016510Y-99281461D01*
X152054608Y-99337395D01*
X152056477Y-99407239D01*
X152020289Y-99467007D01*
X151957532Y-99497722D01*
X151936608Y-99499500D01*
X150823392Y-99499500D01*
X150756353Y-99479815D01*
X150710598Y-99427011D01*
X150700654Y-99357853D01*
X150729679Y-99294297D01*
X150744725Y-99279648D01*
X150747776Y-99277142D01*
X150747782Y-99277139D01*
X150887139Y-99137782D01*
X150996632Y-98973914D01*
X151072051Y-98791835D01*
X151110500Y-98598541D01*
X151110500Y-98401459D01*
X151110500Y-98401456D01*
X151072052Y-98208170D01*
X151072051Y-98208169D01*
X151072051Y-98208165D01*
X151072049Y-98208160D01*
X150996635Y-98026092D01*
X150996628Y-98026079D01*
X150887139Y-97862218D01*
X150887136Y-97862214D01*
X150747785Y-97722863D01*
X150747781Y-97722860D01*
X150583920Y-97613371D01*
X150583907Y-97613364D01*
X150401839Y-97537950D01*
X150401829Y-97537947D01*
X150208543Y-97499500D01*
X150208541Y-97499500D01*
X150011459Y-97499500D01*
X150011457Y-97499500D01*
X149818170Y-97537947D01*
X149818160Y-97537950D01*
X149636092Y-97613364D01*
X149636079Y-97613371D01*
X149472218Y-97722860D01*
X149472214Y-97722863D01*
X149332863Y-97862214D01*
X149332860Y-97862218D01*
X149223371Y-98026079D01*
X149223364Y-98026092D01*
X149147950Y-98208160D01*
X149147947Y-98208170D01*
X149109500Y-98401456D01*
X149109500Y-98401459D01*
X149109500Y-98598541D01*
X149109500Y-98598543D01*
X149109499Y-98598543D01*
X149147947Y-98791829D01*
X149147950Y-98791839D01*
X149223364Y-98973907D01*
X149223371Y-98973920D01*
X149332860Y-99137781D01*
X149332863Y-99137785D01*
X149472212Y-99277134D01*
X149475275Y-99279648D01*
X149476447Y-99281369D01*
X149476525Y-99281447D01*
X149476510Y-99281461D01*
X149514608Y-99337395D01*
X149516477Y-99407239D01*
X149480289Y-99467007D01*
X149417532Y-99497722D01*
X149396608Y-99499500D01*
X148283392Y-99499500D01*
X148216353Y-99479815D01*
X148170598Y-99427011D01*
X148160654Y-99357853D01*
X148189679Y-99294297D01*
X148204725Y-99279648D01*
X148207776Y-99277142D01*
X148207782Y-99277139D01*
X148347139Y-99137782D01*
X148456632Y-98973914D01*
X148532051Y-98791835D01*
X148570500Y-98598541D01*
X148570500Y-98401459D01*
X148570500Y-98401456D01*
X148532052Y-98208170D01*
X148532051Y-98208169D01*
X148532051Y-98208165D01*
X148532049Y-98208160D01*
X148456635Y-98026092D01*
X148456628Y-98026079D01*
X148347139Y-97862218D01*
X148347136Y-97862214D01*
X148207785Y-97722863D01*
X148207781Y-97722860D01*
X148043920Y-97613371D01*
X148043907Y-97613364D01*
X147861839Y-97537950D01*
X147861829Y-97537947D01*
X147668543Y-97499500D01*
X147668541Y-97499500D01*
X147471459Y-97499500D01*
X147471457Y-97499500D01*
X147278170Y-97537947D01*
X147278160Y-97537950D01*
X147096092Y-97613364D01*
X147096079Y-97613371D01*
X146932218Y-97722860D01*
X146932214Y-97722863D01*
X146792863Y-97862214D01*
X146792860Y-97862218D01*
X146683371Y-98026079D01*
X146683364Y-98026092D01*
X146607950Y-98208160D01*
X146607947Y-98208170D01*
X146569500Y-98401456D01*
X146569500Y-98401459D01*
X146569500Y-98598541D01*
X146569500Y-98598543D01*
X146569499Y-98598543D01*
X146607947Y-98791829D01*
X146607950Y-98791839D01*
X146683364Y-98973907D01*
X146683371Y-98973920D01*
X146792860Y-99137781D01*
X146792863Y-99137785D01*
X146932212Y-99277134D01*
X146935275Y-99279648D01*
X146936447Y-99281369D01*
X146936525Y-99281447D01*
X146936510Y-99281461D01*
X146974608Y-99337395D01*
X146976477Y-99407239D01*
X146940289Y-99467007D01*
X146877532Y-99497722D01*
X146856608Y-99499500D01*
X145743392Y-99499500D01*
X145676353Y-99479815D01*
X145630598Y-99427011D01*
X145620654Y-99357853D01*
X145649679Y-99294297D01*
X145664725Y-99279648D01*
X145667776Y-99277142D01*
X145667782Y-99277139D01*
X145807139Y-99137782D01*
X145916632Y-98973914D01*
X145992051Y-98791835D01*
X146030500Y-98598541D01*
X146030500Y-98401459D01*
X146030500Y-98401456D01*
X145992052Y-98208170D01*
X145992051Y-98208169D01*
X145992051Y-98208165D01*
X145992049Y-98208160D01*
X145916635Y-98026092D01*
X145916628Y-98026079D01*
X145807139Y-97862218D01*
X145807136Y-97862214D01*
X145667785Y-97722863D01*
X145667781Y-97722860D01*
X145503920Y-97613371D01*
X145503907Y-97613364D01*
X145321839Y-97537950D01*
X145321829Y-97537947D01*
X145128543Y-97499500D01*
X145128541Y-97499500D01*
X144931459Y-97499500D01*
X144931457Y-97499500D01*
X144738170Y-97537947D01*
X144738160Y-97537950D01*
X144556092Y-97613364D01*
X144556079Y-97613371D01*
X144392218Y-97722860D01*
X144392214Y-97722863D01*
X144252863Y-97862214D01*
X144252860Y-97862218D01*
X144143371Y-98026079D01*
X144143364Y-98026092D01*
X144067950Y-98208160D01*
X144067947Y-98208170D01*
X144029500Y-98401456D01*
X144029500Y-98401459D01*
X144029500Y-98598541D01*
X144029500Y-98598543D01*
X144029499Y-98598543D01*
X144067947Y-98791829D01*
X144067950Y-98791839D01*
X144143364Y-98973907D01*
X144143371Y-98973920D01*
X144252860Y-99137781D01*
X144252863Y-99137785D01*
X144392212Y-99277134D01*
X144395275Y-99279648D01*
X144396447Y-99281369D01*
X144396525Y-99281447D01*
X144396510Y-99281461D01*
X144434608Y-99337395D01*
X144436477Y-99407239D01*
X144400289Y-99467007D01*
X144337532Y-99497722D01*
X144316608Y-99499500D01*
X143203392Y-99499500D01*
X143136353Y-99479815D01*
X143090598Y-99427011D01*
X143080654Y-99357853D01*
X143109679Y-99294297D01*
X143124725Y-99279648D01*
X143127776Y-99277142D01*
X143127782Y-99277139D01*
X143267139Y-99137782D01*
X143376632Y-98973914D01*
X143452051Y-98791835D01*
X143490500Y-98598541D01*
X143490500Y-98401459D01*
X143490500Y-98401456D01*
X143452052Y-98208170D01*
X143452051Y-98208169D01*
X143452051Y-98208165D01*
X143452049Y-98208160D01*
X143376635Y-98026092D01*
X143376628Y-98026079D01*
X143267139Y-97862218D01*
X143267136Y-97862214D01*
X143127785Y-97722863D01*
X143127781Y-97722860D01*
X142963920Y-97613371D01*
X142963907Y-97613364D01*
X142781839Y-97537950D01*
X142781829Y-97537947D01*
X142588543Y-97499500D01*
X142588541Y-97499500D01*
X142391459Y-97499500D01*
X142391457Y-97499500D01*
X142198170Y-97537947D01*
X142198160Y-97537950D01*
X142016092Y-97613364D01*
X142016079Y-97613371D01*
X141852218Y-97722860D01*
X141852214Y-97722863D01*
X141712863Y-97862214D01*
X141712860Y-97862218D01*
X141603371Y-98026079D01*
X141603364Y-98026092D01*
X141527950Y-98208160D01*
X141527947Y-98208170D01*
X141489500Y-98401456D01*
X141489500Y-98401459D01*
X141489500Y-98598541D01*
X141489500Y-98598543D01*
X141489499Y-98598543D01*
X141527947Y-98791829D01*
X141527950Y-98791839D01*
X141603364Y-98973907D01*
X141603371Y-98973920D01*
X141712860Y-99137781D01*
X141712863Y-99137785D01*
X141852212Y-99277134D01*
X141855275Y-99279648D01*
X141856447Y-99281369D01*
X141856525Y-99281447D01*
X141856510Y-99281461D01*
X141894608Y-99337395D01*
X141896477Y-99407239D01*
X141860289Y-99467007D01*
X141797532Y-99497722D01*
X141776608Y-99499500D01*
X140663392Y-99499500D01*
X140596353Y-99479815D01*
X140550598Y-99427011D01*
X140540654Y-99357853D01*
X140569679Y-99294297D01*
X140584725Y-99279648D01*
X140587776Y-99277142D01*
X140587782Y-99277139D01*
X140727139Y-99137782D01*
X140836632Y-98973914D01*
X140912051Y-98791835D01*
X140950500Y-98598541D01*
X140950500Y-98401459D01*
X140950500Y-98401456D01*
X140912052Y-98208170D01*
X140912051Y-98208169D01*
X140912051Y-98208165D01*
X140912049Y-98208160D01*
X140836635Y-98026092D01*
X140836628Y-98026079D01*
X140727139Y-97862218D01*
X140727136Y-97862214D01*
X140587785Y-97722863D01*
X140587781Y-97722860D01*
X140423920Y-97613371D01*
X140423907Y-97613364D01*
X140241839Y-97537950D01*
X140241829Y-97537947D01*
X140048543Y-97499500D01*
X140048541Y-97499500D01*
X139851459Y-97499500D01*
X139851457Y-97499500D01*
X139658170Y-97537947D01*
X139658160Y-97537950D01*
X139476092Y-97613364D01*
X139476079Y-97613371D01*
X139312218Y-97722860D01*
X139312214Y-97722863D01*
X139172863Y-97862214D01*
X139172860Y-97862218D01*
X139063371Y-98026079D01*
X139063364Y-98026092D01*
X138987950Y-98208160D01*
X138987947Y-98208170D01*
X138949500Y-98401456D01*
X138949500Y-98401459D01*
X138949500Y-98598541D01*
X138949500Y-98598543D01*
X138949499Y-98598543D01*
X138987947Y-98791829D01*
X138987950Y-98791839D01*
X139063364Y-98973907D01*
X139063371Y-98973920D01*
X139172860Y-99137781D01*
X139172863Y-99137785D01*
X139312212Y-99277134D01*
X139315275Y-99279648D01*
X139316447Y-99281369D01*
X139316525Y-99281447D01*
X139316510Y-99281461D01*
X139354608Y-99337395D01*
X139356477Y-99407239D01*
X139320289Y-99467007D01*
X139257532Y-99497722D01*
X139236608Y-99499500D01*
X138123392Y-99499500D01*
X138056353Y-99479815D01*
X138010598Y-99427011D01*
X138000654Y-99357853D01*
X138029679Y-99294297D01*
X138044725Y-99279648D01*
X138047776Y-99277142D01*
X138047782Y-99277139D01*
X138187139Y-99137782D01*
X138296632Y-98973914D01*
X138372051Y-98791835D01*
X138410500Y-98598541D01*
X138410500Y-98401459D01*
X138410500Y-98401456D01*
X138372052Y-98208170D01*
X138372051Y-98208169D01*
X138372051Y-98208165D01*
X138372049Y-98208160D01*
X138296635Y-98026092D01*
X138296628Y-98026079D01*
X138187139Y-97862218D01*
X138187136Y-97862214D01*
X138047785Y-97722863D01*
X138047781Y-97722860D01*
X137883920Y-97613371D01*
X137883907Y-97613364D01*
X137701839Y-97537950D01*
X137701829Y-97537947D01*
X137508543Y-97499500D01*
X137508541Y-97499500D01*
X137311459Y-97499500D01*
X137311457Y-97499500D01*
X137118170Y-97537947D01*
X137118160Y-97537950D01*
X136936092Y-97613364D01*
X136936079Y-97613371D01*
X136772218Y-97722860D01*
X136772214Y-97722863D01*
X136632863Y-97862214D01*
X136632860Y-97862218D01*
X136523371Y-98026079D01*
X136523364Y-98026092D01*
X136447950Y-98208160D01*
X136447947Y-98208170D01*
X136409500Y-98401456D01*
X136409500Y-98401459D01*
X136409500Y-98598541D01*
X136409500Y-98598543D01*
X136409499Y-98598543D01*
X136447947Y-98791829D01*
X136447950Y-98791839D01*
X136523364Y-98973907D01*
X136523371Y-98973920D01*
X136632860Y-99137781D01*
X136632863Y-99137785D01*
X136772212Y-99277134D01*
X136775275Y-99279648D01*
X136776447Y-99281369D01*
X136776525Y-99281447D01*
X136776510Y-99281461D01*
X136814608Y-99337395D01*
X136816477Y-99407239D01*
X136780289Y-99467007D01*
X136717532Y-99497722D01*
X136696608Y-99499500D01*
X135583392Y-99499500D01*
X135516353Y-99479815D01*
X135470598Y-99427011D01*
X135460654Y-99357853D01*
X135489679Y-99294297D01*
X135504725Y-99279648D01*
X135507776Y-99277142D01*
X135507782Y-99277139D01*
X135647139Y-99137782D01*
X135756632Y-98973914D01*
X135832051Y-98791835D01*
X135870500Y-98598541D01*
X135870500Y-98401459D01*
X135870500Y-98401456D01*
X135832052Y-98208170D01*
X135832051Y-98208169D01*
X135832051Y-98208165D01*
X135832049Y-98208160D01*
X135756635Y-98026092D01*
X135756628Y-98026079D01*
X135647139Y-97862218D01*
X135647136Y-97862214D01*
X135507785Y-97722863D01*
X135507781Y-97722860D01*
X135343920Y-97613371D01*
X135343907Y-97613364D01*
X135161839Y-97537950D01*
X135161829Y-97537947D01*
X134968543Y-97499500D01*
X134968541Y-97499500D01*
X134771459Y-97499500D01*
X134771457Y-97499500D01*
X134578170Y-97537947D01*
X134578160Y-97537950D01*
X134396092Y-97613364D01*
X134396079Y-97613371D01*
X134232218Y-97722860D01*
X134232214Y-97722863D01*
X134092863Y-97862214D01*
X134092860Y-97862218D01*
X133983371Y-98026079D01*
X133983364Y-98026092D01*
X133907950Y-98208160D01*
X133907947Y-98208170D01*
X133869500Y-98401456D01*
X133869500Y-98401459D01*
X133869500Y-98598541D01*
X133869500Y-98598543D01*
X133869499Y-98598543D01*
X133907947Y-98791829D01*
X133907950Y-98791839D01*
X133983364Y-98973907D01*
X133983371Y-98973920D01*
X134092860Y-99137781D01*
X134092863Y-99137785D01*
X134232212Y-99277134D01*
X134235275Y-99279648D01*
X134236447Y-99281369D01*
X134236525Y-99281447D01*
X134236510Y-99281461D01*
X134274608Y-99337395D01*
X134276477Y-99407239D01*
X134240289Y-99467007D01*
X134177532Y-99497722D01*
X134156608Y-99499500D01*
X133043392Y-99499500D01*
X132976353Y-99479815D01*
X132930598Y-99427011D01*
X132920654Y-99357853D01*
X132949679Y-99294297D01*
X132964725Y-99279648D01*
X132967776Y-99277142D01*
X132967782Y-99277139D01*
X133107139Y-99137782D01*
X133216632Y-98973914D01*
X133292051Y-98791835D01*
X133330500Y-98598541D01*
X133330500Y-98401459D01*
X133330500Y-98401456D01*
X133292052Y-98208170D01*
X133292051Y-98208169D01*
X133292051Y-98208165D01*
X133292049Y-98208160D01*
X133216635Y-98026092D01*
X133216628Y-98026079D01*
X133107139Y-97862218D01*
X133107136Y-97862214D01*
X132967785Y-97722863D01*
X132967781Y-97722860D01*
X132803920Y-97613371D01*
X132803907Y-97613364D01*
X132621839Y-97537950D01*
X132621829Y-97537947D01*
X132428543Y-97499500D01*
X132428541Y-97499500D01*
X132231459Y-97499500D01*
X132231457Y-97499500D01*
X132038170Y-97537947D01*
X132038160Y-97537950D01*
X131856092Y-97613364D01*
X131856079Y-97613371D01*
X131692218Y-97722860D01*
X131692214Y-97722863D01*
X131552863Y-97862214D01*
X131552860Y-97862218D01*
X131443371Y-98026079D01*
X131443364Y-98026092D01*
X131367950Y-98208160D01*
X131367947Y-98208170D01*
X131329500Y-98401456D01*
X131329500Y-98401459D01*
X131329500Y-98598541D01*
X131329500Y-98598543D01*
X131329499Y-98598543D01*
X131367947Y-98791829D01*
X131367950Y-98791839D01*
X131443364Y-98973907D01*
X131443371Y-98973920D01*
X131552860Y-99137781D01*
X131552863Y-99137785D01*
X131692212Y-99277134D01*
X131695275Y-99279648D01*
X131696447Y-99281369D01*
X131696525Y-99281447D01*
X131696510Y-99281461D01*
X131734608Y-99337395D01*
X131736477Y-99407239D01*
X131700289Y-99467007D01*
X131637532Y-99497722D01*
X131616608Y-99499500D01*
X130813791Y-99499500D01*
X130746752Y-99479815D01*
X130700997Y-99427011D01*
X130691053Y-99357853D01*
X130714020Y-99301868D01*
X130742793Y-99262882D01*
X130765219Y-99198790D01*
X130787646Y-99134701D01*
X130787646Y-99134699D01*
X130790500Y-99104269D01*
X130790500Y-97895730D01*
X130787646Y-97865300D01*
X130787646Y-97865298D01*
X130742793Y-97737119D01*
X130742792Y-97737117D01*
X130732270Y-97722860D01*
X130662150Y-97627850D01*
X130552882Y-97547207D01*
X130552880Y-97547206D01*
X130424700Y-97502353D01*
X130394270Y-97499500D01*
X130394266Y-97499500D01*
X129185734Y-97499500D01*
X129185730Y-97499500D01*
X129155300Y-97502353D01*
X129155298Y-97502353D01*
X129027119Y-97547206D01*
X129027117Y-97547207D01*
X128917850Y-97627850D01*
X128837207Y-97737117D01*
X128837206Y-97737119D01*
X128792353Y-97865298D01*
X128792353Y-97865300D01*
X128789500Y-97895730D01*
X128789500Y-99104269D01*
X128792353Y-99134699D01*
X128792353Y-99134701D01*
X128837206Y-99262880D01*
X128837207Y-99262882D01*
X128865979Y-99301867D01*
X128889950Y-99367495D01*
X128874635Y-99435665D01*
X128824895Y-99484734D01*
X128766209Y-99499500D01*
X124624500Y-99499500D01*
X124557461Y-99479815D01*
X124511706Y-99427011D01*
X124500500Y-99375500D01*
X124500500Y-95520654D01*
X124520185Y-95453615D01*
X124572989Y-95407860D01*
X124642147Y-95397916D01*
X124705703Y-95426941D01*
X124727602Y-95451764D01*
X124770882Y-95516537D01*
X124770888Y-95516545D01*
X124868454Y-95614111D01*
X124868458Y-95614114D01*
X124983182Y-95690771D01*
X124983195Y-95690778D01*
X125110667Y-95743578D01*
X125110672Y-95743580D01*
X125110676Y-95743580D01*
X125110677Y-95743581D01*
X125246004Y-95770500D01*
X125246007Y-95770500D01*
X126183995Y-95770500D01*
X126275041Y-95752389D01*
X126319328Y-95743580D01*
X126446811Y-95690775D01*
X126561542Y-95614114D01*
X126659114Y-95516542D01*
X126735775Y-95401811D01*
X126788580Y-95274328D01*
X126805888Y-95187314D01*
X126815500Y-95138995D01*
X128644499Y-95138995D01*
X128671418Y-95274322D01*
X128671421Y-95274332D01*
X128724221Y-95401804D01*
X128724228Y-95401817D01*
X128800885Y-95516541D01*
X128800888Y-95516545D01*
X128898454Y-95614111D01*
X128898458Y-95614114D01*
X129013182Y-95690771D01*
X129013195Y-95690778D01*
X129140667Y-95743578D01*
X129140672Y-95743580D01*
X129140676Y-95743580D01*
X129140677Y-95743581D01*
X129276004Y-95770500D01*
X129276007Y-95770500D01*
X130513995Y-95770500D01*
X130605041Y-95752389D01*
X130649328Y-95743580D01*
X130776811Y-95690775D01*
X130891542Y-95614114D01*
X130989114Y-95516542D01*
X131065775Y-95401811D01*
X131118580Y-95274328D01*
X131135888Y-95187314D01*
X131145500Y-95138995D01*
X131145500Y-95001004D01*
X131118581Y-94865677D01*
X131118580Y-94865676D01*
X131118580Y-94865672D01*
X131099293Y-94819108D01*
X132564500Y-94819108D01*
X132564500Y-94950891D01*
X132598608Y-95078187D01*
X132603718Y-95087037D01*
X132664500Y-95192314D01*
X132757686Y-95285500D01*
X132871814Y-95351392D01*
X132999108Y-95385500D01*
X132999110Y-95385500D01*
X133130890Y-95385500D01*
X133130892Y-95385500D01*
X133258186Y-95351392D01*
X133372314Y-95285500D01*
X133465500Y-95192314D01*
X133526282Y-95087035D01*
X133576847Y-95038822D01*
X133645454Y-95025598D01*
X133710319Y-95051566D01*
X133741055Y-95087036D01*
X133798951Y-95187314D01*
X133892137Y-95280500D01*
X134006265Y-95346392D01*
X134133559Y-95380500D01*
X134133561Y-95380500D01*
X134265341Y-95380500D01*
X134265343Y-95380500D01*
X134392637Y-95346392D01*
X134506765Y-95280500D01*
X134599951Y-95187314D01*
X134665843Y-95073186D01*
X134699951Y-94945892D01*
X134699951Y-94814108D01*
X134665843Y-94686814D01*
X134599951Y-94572686D01*
X134506765Y-94479500D01*
X134410460Y-94423898D01*
X134410458Y-94423896D01*
X134392640Y-94413609D01*
X134392637Y-94413608D01*
X134265343Y-94379500D01*
X134133559Y-94379500D01*
X134006263Y-94413608D01*
X133892137Y-94479500D01*
X133892134Y-94479502D01*
X133798953Y-94572683D01*
X133798951Y-94572686D01*
X133738169Y-94677963D01*
X133687601Y-94726178D01*
X133618994Y-94739400D01*
X133554130Y-94713432D01*
X133523395Y-94677962D01*
X133465502Y-94577689D01*
X133465497Y-94577683D01*
X133372316Y-94484502D01*
X133372314Y-94484500D01*
X133267349Y-94423898D01*
X133258187Y-94418608D01*
X133174404Y-94396159D01*
X133130892Y-94384500D01*
X132999108Y-94384500D01*
X132871812Y-94418608D01*
X132757686Y-94484500D01*
X132757683Y-94484502D01*
X132664502Y-94577683D01*
X132664500Y-94577686D01*
X132598608Y-94691812D01*
X132564500Y-94819108D01*
X131099293Y-94819108D01*
X131066277Y-94739400D01*
X131065776Y-94738191D01*
X131065771Y-94738182D01*
X130989114Y-94623458D01*
X130989111Y-94623454D01*
X130891545Y-94525888D01*
X130843560Y-94493825D01*
X130798756Y-94440212D01*
X130790049Y-94370887D01*
X130820204Y-94307860D01*
X130824753Y-94303060D01*
X130870500Y-94257314D01*
X130936392Y-94143186D01*
X130970500Y-94015892D01*
X130970500Y-93884108D01*
X130936392Y-93756814D01*
X130870500Y-93642686D01*
X130777314Y-93549500D01*
X130696890Y-93503067D01*
X130663187Y-93483608D01*
X130599539Y-93466554D01*
X130535892Y-93449500D01*
X130404108Y-93449500D01*
X130276812Y-93483608D01*
X130162686Y-93549500D01*
X130162680Y-93549505D01*
X130159863Y-93552322D01*
X130156903Y-93553937D01*
X130156240Y-93554447D01*
X130156160Y-93554343D01*
X130098538Y-93585804D01*
X130028847Y-93580815D01*
X129972916Y-93538941D01*
X129952412Y-93496729D01*
X129931281Y-93417865D01*
X129855515Y-93286635D01*
X129748365Y-93179485D01*
X129669578Y-93133997D01*
X129617136Y-93103719D01*
X129543950Y-93084109D01*
X129470766Y-93064500D01*
X129319234Y-93064500D01*
X129172863Y-93103719D01*
X129041635Y-93179485D01*
X129041632Y-93179487D01*
X128934487Y-93286632D01*
X128934485Y-93286635D01*
X128858719Y-93417863D01*
X128819500Y-93564234D01*
X128819500Y-93715765D01*
X128858719Y-93862136D01*
X128871405Y-93884108D01*
X128934485Y-93993365D01*
X129041635Y-94100515D01*
X129041636Y-94100516D01*
X129041638Y-94100517D01*
X129164024Y-94171177D01*
X129212240Y-94221744D01*
X129225462Y-94290351D01*
X129199494Y-94355216D01*
X129145981Y-94393321D01*
X129146299Y-94394089D01*
X129142964Y-94395470D01*
X129142580Y-94395744D01*
X129141300Y-94396159D01*
X129013195Y-94449221D01*
X129013182Y-94449228D01*
X128898458Y-94525885D01*
X128898454Y-94525888D01*
X128800888Y-94623454D01*
X128800885Y-94623458D01*
X128724228Y-94738182D01*
X128724221Y-94738195D01*
X128671421Y-94865667D01*
X128671418Y-94865677D01*
X128644500Y-95001004D01*
X128644500Y-95001007D01*
X128644500Y-95138993D01*
X128644500Y-95138995D01*
X128644499Y-95138995D01*
X126815500Y-95138995D01*
X126815500Y-95001004D01*
X126788581Y-94865677D01*
X126788580Y-94865676D01*
X126788580Y-94865672D01*
X126769293Y-94819108D01*
X126735778Y-94738195D01*
X126735771Y-94738182D01*
X126659114Y-94623458D01*
X126659111Y-94623454D01*
X126561545Y-94525888D01*
X126561541Y-94525885D01*
X126446817Y-94449228D01*
X126446804Y-94449221D01*
X126319332Y-94396421D01*
X126319322Y-94396418D01*
X126183995Y-94369500D01*
X126183993Y-94369500D01*
X125246007Y-94369500D01*
X125246005Y-94369500D01*
X125110677Y-94396418D01*
X125110667Y-94396421D01*
X124983195Y-94449221D01*
X124983182Y-94449228D01*
X124868458Y-94525885D01*
X124868454Y-94525888D01*
X124770888Y-94623454D01*
X124770885Y-94623458D01*
X124727602Y-94688236D01*
X124673990Y-94733041D01*
X124604665Y-94741748D01*
X124541637Y-94711593D01*
X124504918Y-94652150D01*
X124500500Y-94619345D01*
X124500500Y-92804108D01*
X134004500Y-92804108D01*
X134004500Y-92935892D01*
X134006001Y-92941493D01*
X134038608Y-93063187D01*
X134057259Y-93095490D01*
X134104500Y-93177314D01*
X134197686Y-93270500D01*
X134311814Y-93336392D01*
X134439108Y-93370500D01*
X134439110Y-93370500D01*
X134570890Y-93370500D01*
X134570892Y-93370500D01*
X134698186Y-93336392D01*
X134812314Y-93270500D01*
X134905500Y-93177314D01*
X134971392Y-93063186D01*
X134996151Y-92970784D01*
X147113232Y-92970784D01*
X147113232Y-93102568D01*
X147130286Y-93166215D01*
X147147340Y-93229863D01*
X147158101Y-93248501D01*
X147213232Y-93343990D01*
X147306418Y-93437176D01*
X147405253Y-93494239D01*
X147409566Y-93496729D01*
X147420546Y-93503068D01*
X147547840Y-93537176D01*
X147547842Y-93537176D01*
X147679622Y-93537176D01*
X147679624Y-93537176D01*
X147806918Y-93503068D01*
X147921046Y-93437176D01*
X148014232Y-93343990D01*
X148080124Y-93229862D01*
X148114232Y-93102568D01*
X148114232Y-93095490D01*
X148133917Y-93028451D01*
X148186721Y-92982696D01*
X148238232Y-92971490D01*
X148245307Y-92971490D01*
X148245309Y-92971490D01*
X148372603Y-92937382D01*
X148486731Y-92871490D01*
X148579917Y-92778304D01*
X148643828Y-92667608D01*
X152964500Y-92667608D01*
X152964500Y-92799391D01*
X152998608Y-92926687D01*
X153024068Y-92970784D01*
X153064500Y-93040814D01*
X153157686Y-93134000D01*
X153271814Y-93199892D01*
X153399108Y-93234000D01*
X153399110Y-93234000D01*
X153530890Y-93234000D01*
X153530892Y-93234000D01*
X153658186Y-93199892D01*
X153758019Y-93142253D01*
X154340000Y-93142253D01*
X154340000Y-93354746D01*
X154373242Y-93564627D01*
X154373242Y-93564630D01*
X154438904Y-93766717D01*
X154535375Y-93956050D01*
X154574728Y-94010216D01*
X155207037Y-93377908D01*
X155224075Y-93441493D01*
X155289901Y-93555507D01*
X155382993Y-93648599D01*
X155497007Y-93714425D01*
X155560590Y-93731462D01*
X154928282Y-94363769D01*
X154928282Y-94363770D01*
X154982449Y-94403124D01*
X155171782Y-94499595D01*
X155373870Y-94565257D01*
X155583754Y-94598500D01*
X155796246Y-94598500D01*
X156006127Y-94565257D01*
X156006130Y-94565257D01*
X156208217Y-94499595D01*
X156397554Y-94403122D01*
X156451716Y-94363770D01*
X156451717Y-94363770D01*
X155819408Y-93731462D01*
X155882993Y-93714425D01*
X155997007Y-93648599D01*
X156090099Y-93555507D01*
X156155925Y-93441493D01*
X156172962Y-93377909D01*
X156805270Y-94010217D01*
X156805270Y-94010216D01*
X156844622Y-93956054D01*
X156941095Y-93766717D01*
X157006757Y-93564630D01*
X157006757Y-93564627D01*
X157040000Y-93354746D01*
X157040000Y-93142253D01*
X157006757Y-92932372D01*
X157006757Y-92932369D01*
X156941095Y-92730282D01*
X156844624Y-92540949D01*
X156805270Y-92486782D01*
X156805269Y-92486782D01*
X156172962Y-93119090D01*
X156155925Y-93055507D01*
X156090099Y-92941493D01*
X155997007Y-92848401D01*
X155882993Y-92782575D01*
X155819409Y-92765537D01*
X156451716Y-92133228D01*
X156397550Y-92093875D01*
X156208216Y-91997404D01*
X156032026Y-91940156D01*
X155974350Y-91900718D01*
X155947152Y-91836360D01*
X155959067Y-91767513D01*
X156006311Y-91716038D01*
X156022882Y-91707668D01*
X156187598Y-91639441D01*
X156359655Y-91524477D01*
X156505977Y-91378155D01*
X156620941Y-91206098D01*
X156700130Y-91014920D01*
X156740500Y-90811965D01*
X156740500Y-90605035D01*
X156740500Y-90605032D01*
X156740316Y-90604108D01*
X157169500Y-90604108D01*
X157169500Y-90735891D01*
X157203608Y-90863187D01*
X157218514Y-90889004D01*
X157269500Y-90977314D01*
X157362686Y-91070500D01*
X157476814Y-91136392D01*
X157604108Y-91170500D01*
X157604110Y-91170500D01*
X157735890Y-91170500D01*
X157735892Y-91170500D01*
X157863186Y-91136392D01*
X157977314Y-91070500D01*
X158070500Y-90977314D01*
X158136392Y-90863186D01*
X158170500Y-90735892D01*
X158170500Y-90604108D01*
X158136392Y-90476814D01*
X158070500Y-90362686D01*
X157977314Y-90269500D01*
X157920250Y-90236554D01*
X157863187Y-90203608D01*
X157786969Y-90183186D01*
X157735892Y-90169500D01*
X157604108Y-90169500D01*
X157476812Y-90203608D01*
X157362686Y-90269500D01*
X157362683Y-90269502D01*
X157269502Y-90362683D01*
X157269500Y-90362686D01*
X157203608Y-90476812D01*
X157169500Y-90604108D01*
X156740316Y-90604108D01*
X156700131Y-90402087D01*
X156700130Y-90402080D01*
X156620941Y-90210902D01*
X156505977Y-90038845D01*
X156505975Y-90038842D01*
X156359657Y-89892524D01*
X156205484Y-89789510D01*
X156187598Y-89777559D01*
X156177043Y-89773187D01*
X155996420Y-89698370D01*
X155996412Y-89698368D01*
X155793469Y-89658000D01*
X155793465Y-89658000D01*
X155586535Y-89658000D01*
X155586530Y-89658000D01*
X155383587Y-89698368D01*
X155383579Y-89698370D01*
X155192403Y-89777558D01*
X155020342Y-89892524D01*
X154874024Y-90038842D01*
X154759058Y-90210903D01*
X154679870Y-90402079D01*
X154679868Y-90402087D01*
X154639500Y-90605030D01*
X154639500Y-90811969D01*
X154679868Y-91014912D01*
X154679870Y-91014920D01*
X154759058Y-91206096D01*
X154874024Y-91378157D01*
X155020342Y-91524475D01*
X155192405Y-91639443D01*
X155272662Y-91672686D01*
X155357108Y-91707664D01*
X155411511Y-91751505D01*
X155433576Y-91817799D01*
X155416297Y-91885498D01*
X155365160Y-91933109D01*
X155347974Y-91940156D01*
X155171781Y-91997405D01*
X154982439Y-92093880D01*
X154928282Y-92133227D01*
X154928282Y-92133228D01*
X155560591Y-92765537D01*
X155497007Y-92782575D01*
X155382993Y-92848401D01*
X155289901Y-92941493D01*
X155224075Y-93055507D01*
X155207037Y-93119091D01*
X154574728Y-92486782D01*
X154574727Y-92486782D01*
X154535380Y-92540939D01*
X154438904Y-92730282D01*
X154373242Y-92932369D01*
X154373242Y-92932372D01*
X154340000Y-93142253D01*
X153758019Y-93142253D01*
X153772314Y-93134000D01*
X153865500Y-93040814D01*
X153931392Y-92926686D01*
X153965500Y-92799392D01*
X153965500Y-92667608D01*
X153931392Y-92540314D01*
X153865500Y-92426186D01*
X153772314Y-92333000D01*
X153715250Y-92300054D01*
X153658187Y-92267108D01*
X153594539Y-92250054D01*
X153530892Y-92233000D01*
X153399108Y-92233000D01*
X153271812Y-92267108D01*
X153157686Y-92333000D01*
X153157683Y-92333002D01*
X153064502Y-92426183D01*
X153064500Y-92426186D01*
X152998608Y-92540312D01*
X152964500Y-92667608D01*
X148643828Y-92667608D01*
X148645809Y-92664176D01*
X148679917Y-92536882D01*
X148679917Y-92516351D01*
X148682803Y-92503209D01*
X148693396Y-92483897D01*
X148699602Y-92462766D01*
X148709871Y-92453867D01*
X148716408Y-92441952D01*
X148735762Y-92431432D01*
X148752406Y-92417011D01*
X148768899Y-92413422D01*
X148777797Y-92408587D01*
X148787761Y-92409319D01*
X148803917Y-92405805D01*
X148811195Y-92405805D01*
X148811197Y-92405805D01*
X148938491Y-92371697D01*
X149052619Y-92305805D01*
X149145805Y-92212619D01*
X149211697Y-92098491D01*
X149245805Y-91971197D01*
X149245805Y-91839413D01*
X149211697Y-91712119D01*
X149145805Y-91597991D01*
X149052619Y-91504805D01*
X148995555Y-91471859D01*
X148938492Y-91438913D01*
X148874844Y-91421859D01*
X148811197Y-91404805D01*
X148679413Y-91404805D01*
X148552117Y-91438913D01*
X148437991Y-91504805D01*
X148437988Y-91504807D01*
X148344807Y-91597988D01*
X148344805Y-91597991D01*
X148278913Y-91712117D01*
X148244805Y-91839413D01*
X148244805Y-91846490D01*
X148225120Y-91913529D01*
X148172316Y-91959284D01*
X148120805Y-91970490D01*
X148113525Y-91970490D01*
X147986229Y-92004598D01*
X147872103Y-92070490D01*
X147872100Y-92070492D01*
X147778919Y-92163673D01*
X147778917Y-92163676D01*
X147713025Y-92277802D01*
X147678917Y-92405098D01*
X147678917Y-92412176D01*
X147659232Y-92479215D01*
X147606428Y-92524970D01*
X147554917Y-92536176D01*
X147547840Y-92536176D01*
X147420544Y-92570284D01*
X147306418Y-92636176D01*
X147306415Y-92636178D01*
X147213234Y-92729359D01*
X147213232Y-92729362D01*
X147147340Y-92843488D01*
X147123525Y-92932369D01*
X147113232Y-92970784D01*
X134996151Y-92970784D01*
X135005500Y-92935892D01*
X135005500Y-92804108D01*
X134971392Y-92676814D01*
X134905500Y-92562686D01*
X134812314Y-92469500D01*
X134755250Y-92436554D01*
X134698187Y-92403608D01*
X134611941Y-92380499D01*
X134570892Y-92369500D01*
X134439108Y-92369500D01*
X134311812Y-92403608D01*
X134197686Y-92469500D01*
X134197683Y-92469502D01*
X134104502Y-92562683D01*
X134104500Y-92562686D01*
X134038608Y-92676812D01*
X134010270Y-92782575D01*
X134004500Y-92804108D01*
X124500500Y-92804108D01*
X124500500Y-92074108D01*
X125794500Y-92074108D01*
X125794500Y-92205892D01*
X125810903Y-92267108D01*
X125828608Y-92333187D01*
X125849574Y-92369500D01*
X125894500Y-92447314D01*
X125987686Y-92540500D01*
X126101814Y-92606392D01*
X126229108Y-92640500D01*
X126229110Y-92640500D01*
X126360890Y-92640500D01*
X126360892Y-92640500D01*
X126488186Y-92606392D01*
X126602314Y-92540500D01*
X126695500Y-92447314D01*
X126761392Y-92333186D01*
X126795500Y-92205892D01*
X126795500Y-92074108D01*
X127619500Y-92074108D01*
X127619500Y-92205892D01*
X127635903Y-92267108D01*
X127653608Y-92333187D01*
X127674574Y-92369500D01*
X127719500Y-92447314D01*
X127812686Y-92540500D01*
X127926814Y-92606392D01*
X128054108Y-92640500D01*
X128054110Y-92640500D01*
X128185890Y-92640500D01*
X128185892Y-92640500D01*
X128313186Y-92606392D01*
X128427314Y-92540500D01*
X128520500Y-92447314D01*
X128586392Y-92333186D01*
X128620500Y-92205892D01*
X128620500Y-92074108D01*
X128586392Y-91946814D01*
X128567509Y-91914108D01*
X131059500Y-91914108D01*
X131059500Y-92045892D01*
X131067061Y-92074110D01*
X131093608Y-92173187D01*
X131112490Y-92205891D01*
X131159500Y-92287314D01*
X131252686Y-92380500D01*
X131366814Y-92446392D01*
X131494108Y-92480500D01*
X131494110Y-92480500D01*
X131625890Y-92480500D01*
X131625892Y-92480500D01*
X131753186Y-92446392D01*
X131867314Y-92380500D01*
X131960500Y-92287314D01*
X132026392Y-92173186D01*
X132060500Y-92045892D01*
X132060500Y-91914108D01*
X132026392Y-91786814D01*
X131962183Y-91675601D01*
X131945711Y-91607705D01*
X131968563Y-91541678D01*
X131981885Y-91525928D01*
X132030500Y-91477314D01*
X132096392Y-91363186D01*
X132130500Y-91235892D01*
X132130500Y-91224108D01*
X142489500Y-91224108D01*
X142489500Y-91355892D01*
X142491455Y-91363187D01*
X142523608Y-91483187D01*
X142536091Y-91504807D01*
X142589500Y-91597314D01*
X142682686Y-91690500D01*
X142796814Y-91756392D01*
X142924108Y-91790500D01*
X142924110Y-91790500D01*
X143055890Y-91790500D01*
X143055892Y-91790500D01*
X143183186Y-91756392D01*
X143297314Y-91690500D01*
X143390500Y-91597314D01*
X143456392Y-91483186D01*
X143490500Y-91355892D01*
X143490500Y-91224108D01*
X143456392Y-91096814D01*
X143390500Y-90982686D01*
X143326818Y-90919004D01*
X143293334Y-90857680D01*
X143290500Y-90831323D01*
X143290500Y-90517409D01*
X143310185Y-90450370D01*
X143362989Y-90404615D01*
X143432147Y-90394671D01*
X143476501Y-90410023D01*
X143556808Y-90456389D01*
X143556809Y-90456389D01*
X143556814Y-90456392D01*
X143684108Y-90490500D01*
X143684110Y-90490500D01*
X143815890Y-90490500D01*
X143815892Y-90490500D01*
X143943186Y-90456392D01*
X144057314Y-90390500D01*
X144127819Y-90319995D01*
X144189142Y-90286510D01*
X144258834Y-90291494D01*
X144314767Y-90333366D01*
X144339184Y-90398830D01*
X144339500Y-90407676D01*
X144339500Y-90801323D01*
X144319815Y-90868362D01*
X144303182Y-90889004D01*
X144239500Y-90952686D01*
X144173608Y-91066812D01*
X144154965Y-91136391D01*
X144139500Y-91194108D01*
X144139500Y-91325892D01*
X144149493Y-91363186D01*
X144173608Y-91453187D01*
X144190929Y-91483187D01*
X144239500Y-91567314D01*
X144332686Y-91660500D01*
X144446814Y-91726392D01*
X144574108Y-91760500D01*
X144574110Y-91760500D01*
X144705890Y-91760500D01*
X144705892Y-91760500D01*
X144833186Y-91726392D01*
X144947314Y-91660500D01*
X145040500Y-91567314D01*
X145106392Y-91453186D01*
X145140500Y-91325892D01*
X145140500Y-91194108D01*
X145106392Y-91066814D01*
X145040500Y-90952686D01*
X144976818Y-90889004D01*
X144962113Y-90862073D01*
X144945523Y-90836258D01*
X144944631Y-90830055D01*
X144943334Y-90827680D01*
X144940500Y-90801323D01*
X144940500Y-88478776D01*
X144960185Y-88411737D01*
X144976815Y-88391099D01*
X145772558Y-87595355D01*
X145833879Y-87561872D01*
X145903570Y-87566856D01*
X145959504Y-87608728D01*
X145980012Y-87650944D01*
X145981861Y-87657844D01*
X145981861Y-87657845D01*
X146015969Y-87785139D01*
X146081861Y-87899267D01*
X146175047Y-87992453D01*
X146289175Y-88058345D01*
X146416469Y-88092453D01*
X146416471Y-88092453D01*
X146506528Y-88092453D01*
X146573567Y-88112138D01*
X146594209Y-88128772D01*
X147233448Y-88768011D01*
X147289397Y-88823960D01*
X147289399Y-88823961D01*
X147289403Y-88823964D01*
X147318045Y-88840500D01*
X147357919Y-88863521D01*
X147434346Y-88884000D01*
X147513470Y-88884000D01*
X147620547Y-88884000D01*
X147687586Y-88903685D01*
X147733341Y-88956489D01*
X147743285Y-89025647D01*
X147727934Y-89070000D01*
X147713026Y-89095820D01*
X147713026Y-89095821D01*
X147713025Y-89095823D01*
X147713025Y-89095824D01*
X147694863Y-89163608D01*
X147678917Y-89223118D01*
X147678917Y-89354901D01*
X147713025Y-89482197D01*
X147736934Y-89523608D01*
X147778917Y-89596324D01*
X147872103Y-89689510D01*
X147986231Y-89755402D01*
X148113525Y-89789510D01*
X148120603Y-89789510D01*
X148187642Y-89809195D01*
X148233397Y-89861999D01*
X148244603Y-89913510D01*
X148244603Y-89920587D01*
X148261657Y-89984234D01*
X148278711Y-90047882D01*
X148306718Y-90096391D01*
X148344603Y-90162009D01*
X148437789Y-90255195D01*
X148536624Y-90312258D01*
X148550025Y-90319995D01*
X148551917Y-90321087D01*
X148679211Y-90355195D01*
X148679213Y-90355195D01*
X148810993Y-90355195D01*
X148810995Y-90355195D01*
X148938289Y-90321087D01*
X149052417Y-90255195D01*
X149145603Y-90162009D01*
X149211495Y-90047881D01*
X149245603Y-89920587D01*
X149245603Y-89788803D01*
X149211495Y-89661509D01*
X149209469Y-89658000D01*
X149157497Y-89567981D01*
X149152373Y-89559107D01*
X149145603Y-89547381D01*
X149112330Y-89514108D01*
X151799500Y-89514108D01*
X151799500Y-89645892D01*
X151811187Y-89689509D01*
X151833608Y-89773187D01*
X151854398Y-89809195D01*
X151899500Y-89887314D01*
X151992686Y-89980500D01*
X152106814Y-90046392D01*
X152234108Y-90080500D01*
X152234110Y-90080500D01*
X152365890Y-90080500D01*
X152365892Y-90080500D01*
X152493186Y-90046392D01*
X152607314Y-89980500D01*
X152700500Y-89887314D01*
X152766392Y-89773186D01*
X152800500Y-89645892D01*
X152800500Y-89514108D01*
X152766392Y-89386814D01*
X152700500Y-89272686D01*
X152607314Y-89179500D01*
X152520712Y-89129500D01*
X152493187Y-89113608D01*
X152382686Y-89084000D01*
X152365892Y-89079500D01*
X152234108Y-89079500D01*
X152106812Y-89113608D01*
X151992686Y-89179500D01*
X151992683Y-89179502D01*
X151899502Y-89272683D01*
X151899500Y-89272686D01*
X151833608Y-89386812D01*
X151815553Y-89454195D01*
X151799500Y-89514108D01*
X149112330Y-89514108D01*
X149052417Y-89454195D01*
X148995353Y-89421249D01*
X148938290Y-89388303D01*
X148874642Y-89371249D01*
X148810995Y-89354195D01*
X148810994Y-89354195D01*
X148803917Y-89354195D01*
X148736878Y-89334510D01*
X148691123Y-89281706D01*
X148684996Y-89265321D01*
X148679917Y-89248125D01*
X148679917Y-89223118D01*
X148645809Y-89095824D01*
X148623537Y-89057248D01*
X148619366Y-89043126D01*
X148619332Y-89022320D01*
X148614427Y-89002100D01*
X148619277Y-88988084D01*
X148619254Y-88973256D01*
X148630473Y-88955736D01*
X148637279Y-88936073D01*
X148648937Y-88926904D01*
X148656934Y-88914418D01*
X148675843Y-88905745D01*
X148692201Y-88892882D01*
X148712364Y-88888995D01*
X148720443Y-88885291D01*
X148726857Y-88886202D01*
X148738287Y-88884000D01*
X150856324Y-88884000D01*
X150923363Y-88903685D01*
X150944005Y-88920319D01*
X151007686Y-88984000D01*
X151121814Y-89049892D01*
X151249108Y-89084000D01*
X151249110Y-89084000D01*
X151380890Y-89084000D01*
X151380892Y-89084000D01*
X151508186Y-89049892D01*
X151622314Y-88984000D01*
X151715500Y-88890814D01*
X151781392Y-88776686D01*
X151815500Y-88649392D01*
X151815500Y-88517608D01*
X151781392Y-88390314D01*
X151715500Y-88276186D01*
X151622314Y-88183000D01*
X151528389Y-88128772D01*
X151508187Y-88117108D01*
X151416171Y-88092453D01*
X151380892Y-88083000D01*
X151249108Y-88083000D01*
X151121812Y-88117108D01*
X151007686Y-88183000D01*
X151007683Y-88183002D01*
X150944005Y-88246681D01*
X150882682Y-88280166D01*
X150856324Y-88283000D01*
X147649741Y-88283000D01*
X147582702Y-88263315D01*
X147562060Y-88246681D01*
X147019180Y-87703801D01*
X146985695Y-87642478D01*
X146982861Y-87616120D01*
X146982861Y-87526063D01*
X146982861Y-87526061D01*
X146948753Y-87398767D01*
X146891006Y-87298747D01*
X154639500Y-87298747D01*
X154639500Y-89038252D01*
X154651131Y-89096729D01*
X154651132Y-89096730D01*
X154695447Y-89163052D01*
X154761769Y-89207367D01*
X154761770Y-89207368D01*
X154820247Y-89218999D01*
X154820250Y-89219000D01*
X154820252Y-89219000D01*
X156559750Y-89219000D01*
X156559751Y-89218999D01*
X156574568Y-89216052D01*
X156618229Y-89207368D01*
X156618229Y-89207367D01*
X156618231Y-89207367D01*
X156684552Y-89163052D01*
X156728867Y-89096731D01*
X156728867Y-89096729D01*
X156728868Y-89096729D01*
X156740499Y-89038252D01*
X156740500Y-89038250D01*
X156740500Y-87298749D01*
X156740499Y-87298747D01*
X156728868Y-87240270D01*
X156728867Y-87240269D01*
X156684552Y-87173947D01*
X156618230Y-87129632D01*
X156618229Y-87129631D01*
X156559752Y-87118000D01*
X156559748Y-87118000D01*
X154820252Y-87118000D01*
X154820247Y-87118000D01*
X154761770Y-87129631D01*
X154761769Y-87129632D01*
X154695447Y-87173947D01*
X154651132Y-87240269D01*
X154651131Y-87240270D01*
X154639500Y-87298747D01*
X146891006Y-87298747D01*
X146882861Y-87284639D01*
X146789675Y-87191453D01*
X146728080Y-87155891D01*
X146675548Y-87125561D01*
X146608952Y-87107717D01*
X146548253Y-87091453D01*
X146548252Y-87091453D01*
X146541176Y-87091453D01*
X146474137Y-87071768D01*
X146428382Y-87018964D01*
X146417176Y-86967453D01*
X146417176Y-86960378D01*
X146417176Y-86960376D01*
X146383068Y-86833082D01*
X146317176Y-86718954D01*
X146223990Y-86625768D01*
X146161172Y-86589500D01*
X146109863Y-86559876D01*
X146013570Y-86534075D01*
X145982568Y-86525768D01*
X145982567Y-86525768D01*
X145975490Y-86525768D01*
X145908451Y-86506083D01*
X145862696Y-86453279D01*
X145854585Y-86429298D01*
X145851490Y-86415705D01*
X145851490Y-86394691D01*
X145817382Y-86267397D01*
X145809710Y-86254108D01*
X153074500Y-86254108D01*
X153074500Y-86385892D01*
X153091554Y-86449539D01*
X153108608Y-86513187D01*
X153141554Y-86570250D01*
X153174500Y-86627314D01*
X153267686Y-86720500D01*
X153381814Y-86786392D01*
X153509108Y-86820500D01*
X153509110Y-86820500D01*
X153640890Y-86820500D01*
X153640892Y-86820500D01*
X153768186Y-86786392D01*
X153882314Y-86720500D01*
X153975500Y-86627314D01*
X154041392Y-86513186D01*
X154075500Y-86385892D01*
X154075500Y-86254108D01*
X154041392Y-86126814D01*
X153975500Y-86012686D01*
X153882314Y-85919500D01*
X153824091Y-85885885D01*
X153768187Y-85853608D01*
X153704539Y-85836554D01*
X153640892Y-85819500D01*
X153509108Y-85819500D01*
X153381812Y-85853608D01*
X153267686Y-85919500D01*
X153267683Y-85919502D01*
X153174502Y-86012683D01*
X153174500Y-86012686D01*
X153108608Y-86126812D01*
X153087285Y-86206392D01*
X153074500Y-86254108D01*
X145809710Y-86254108D01*
X145751490Y-86153269D01*
X145658304Y-86060083D01*
X145601240Y-86027137D01*
X145544177Y-85994191D01*
X145480529Y-85977137D01*
X145416882Y-85960083D01*
X145285098Y-85960083D01*
X145157802Y-85994191D01*
X145043676Y-86060083D01*
X145043673Y-86060085D01*
X144950492Y-86153266D01*
X144950490Y-86153269D01*
X144884598Y-86267395D01*
X144850490Y-86394691D01*
X144850490Y-86484749D01*
X144830805Y-86551788D01*
X144814171Y-86572430D01*
X144441808Y-86944792D01*
X144380485Y-86978277D01*
X144310793Y-86973293D01*
X144254860Y-86931421D01*
X144241358Y-86903548D01*
X144239500Y-86904318D01*
X144236392Y-86896814D01*
X144227062Y-86880654D01*
X144170500Y-86782686D01*
X144077314Y-86689500D01*
X144020250Y-86656554D01*
X143963187Y-86623608D01*
X143899539Y-86606554D01*
X143835892Y-86589500D01*
X143704108Y-86589500D01*
X143576812Y-86623608D01*
X143462686Y-86689500D01*
X143462683Y-86689502D01*
X143369502Y-86782683D01*
X143369500Y-86782686D01*
X143303608Y-86896812D01*
X143282896Y-86974114D01*
X143269500Y-87024108D01*
X143269500Y-87155892D01*
X143279029Y-87191455D01*
X143303608Y-87283187D01*
X143312592Y-87298747D01*
X143369500Y-87397314D01*
X143462686Y-87490500D01*
X143576814Y-87556392D01*
X143584318Y-87559500D01*
X143582950Y-87562801D01*
X143628594Y-87590419D01*
X143659328Y-87653166D01*
X143651259Y-87722568D01*
X143624793Y-87761808D01*
X142805489Y-88581113D01*
X142749541Y-88637060D01*
X142749535Y-88637068D01*
X142709982Y-88705577D01*
X142709979Y-88705582D01*
X142689500Y-88782012D01*
X142689500Y-90831323D01*
X142669815Y-90898362D01*
X142653182Y-90919004D01*
X142589500Y-90982686D01*
X142523608Y-91096812D01*
X142521653Y-91104110D01*
X142489500Y-91224108D01*
X132130500Y-91224108D01*
X132130500Y-91104108D01*
X132096392Y-90976814D01*
X132030500Y-90862686D01*
X131937314Y-90769500D01*
X131879100Y-90735890D01*
X131823187Y-90703608D01*
X131759539Y-90686554D01*
X131695892Y-90669500D01*
X131564108Y-90669500D01*
X131436812Y-90703608D01*
X131322686Y-90769500D01*
X131322683Y-90769502D01*
X131229502Y-90862683D01*
X131229500Y-90862686D01*
X131163608Y-90976812D01*
X131139493Y-91066812D01*
X131129500Y-91104108D01*
X131129500Y-91235892D01*
X131161653Y-91355891D01*
X131163609Y-91363188D01*
X131163609Y-91363189D01*
X131227814Y-91474395D01*
X131244287Y-91542295D01*
X131221434Y-91608322D01*
X131208110Y-91624075D01*
X131159500Y-91672686D01*
X131093608Y-91786812D01*
X131077618Y-91846490D01*
X131059500Y-91914108D01*
X128567509Y-91914108D01*
X128520500Y-91832686D01*
X128427314Y-91739500D01*
X128342439Y-91690497D01*
X128313187Y-91673608D01*
X128249539Y-91656554D01*
X128185892Y-91639500D01*
X128054108Y-91639500D01*
X127926812Y-91673608D01*
X127812686Y-91739500D01*
X127812683Y-91739502D01*
X127719502Y-91832683D01*
X127719500Y-91832686D01*
X127653608Y-91946812D01*
X127640052Y-91997405D01*
X127619500Y-92074108D01*
X126795500Y-92074108D01*
X126761392Y-91946814D01*
X126695500Y-91832686D01*
X126602314Y-91739500D01*
X126517439Y-91690497D01*
X126488187Y-91673608D01*
X126424539Y-91656554D01*
X126360892Y-91639500D01*
X126229108Y-91639500D01*
X126101812Y-91673608D01*
X125987686Y-91739500D01*
X125987683Y-91739502D01*
X125894502Y-91832683D01*
X125894500Y-91832686D01*
X125828608Y-91946812D01*
X125815052Y-91997405D01*
X125794500Y-92074108D01*
X124500500Y-92074108D01*
X124500500Y-90494108D01*
X135257000Y-90494108D01*
X135257000Y-90625891D01*
X135291108Y-90753187D01*
X135300527Y-90769500D01*
X135357000Y-90867314D01*
X135450186Y-90960500D01*
X135564314Y-91026392D01*
X135691608Y-91060500D01*
X135691610Y-91060500D01*
X135823390Y-91060500D01*
X135823392Y-91060500D01*
X135950686Y-91026392D01*
X136064814Y-90960500D01*
X136158000Y-90867314D01*
X136223892Y-90753186D01*
X136258000Y-90625892D01*
X136258000Y-90494108D01*
X136223892Y-90366814D01*
X136158000Y-90252686D01*
X136064814Y-90159500D01*
X136007750Y-90126554D01*
X135950687Y-90093608D01*
X135887039Y-90076554D01*
X135823392Y-90059500D01*
X135691608Y-90059500D01*
X135564312Y-90093608D01*
X135450186Y-90159500D01*
X135450183Y-90159502D01*
X135357002Y-90252683D01*
X135357000Y-90252686D01*
X135291108Y-90366812D01*
X135257000Y-90494108D01*
X124500500Y-90494108D01*
X124500500Y-89564108D01*
X125794500Y-89564108D01*
X125794500Y-89695892D01*
X125795164Y-89698370D01*
X125828608Y-89823187D01*
X125851017Y-89861999D01*
X125894500Y-89937314D01*
X125987686Y-90030500D01*
X126101814Y-90096392D01*
X126229108Y-90130500D01*
X126229110Y-90130500D01*
X126360890Y-90130500D01*
X126360892Y-90130500D01*
X126488186Y-90096392D01*
X126602314Y-90030500D01*
X126695500Y-89937314D01*
X126761392Y-89823186D01*
X126795500Y-89695892D01*
X126795500Y-89564108D01*
X127619500Y-89564108D01*
X127619500Y-89695892D01*
X127620164Y-89698370D01*
X127653608Y-89823187D01*
X127676017Y-89861999D01*
X127719500Y-89937314D01*
X127812686Y-90030500D01*
X127926814Y-90096392D01*
X128054108Y-90130500D01*
X128054110Y-90130500D01*
X128185890Y-90130500D01*
X128185892Y-90130500D01*
X128313186Y-90096392D01*
X128427314Y-90030500D01*
X128520500Y-89937314D01*
X128586392Y-89823186D01*
X128620500Y-89695892D01*
X128620500Y-89564108D01*
X128586392Y-89436814D01*
X128520500Y-89322686D01*
X128427314Y-89229500D01*
X128370250Y-89196554D01*
X128313187Y-89163608D01*
X128249539Y-89146554D01*
X128185892Y-89129500D01*
X128054108Y-89129500D01*
X127926812Y-89163608D01*
X127812686Y-89229500D01*
X127812683Y-89229502D01*
X127719502Y-89322683D01*
X127719500Y-89322686D01*
X127653608Y-89436812D01*
X127623983Y-89547378D01*
X127619500Y-89564108D01*
X126795500Y-89564108D01*
X126761392Y-89436814D01*
X126695500Y-89322686D01*
X126602314Y-89229500D01*
X126545250Y-89196554D01*
X126488187Y-89163608D01*
X126424539Y-89146554D01*
X126360892Y-89129500D01*
X126229108Y-89129500D01*
X126101812Y-89163608D01*
X125987686Y-89229500D01*
X125987683Y-89229502D01*
X125894502Y-89322683D01*
X125894500Y-89322686D01*
X125828608Y-89436812D01*
X125798983Y-89547378D01*
X125794500Y-89564108D01*
X124500500Y-89564108D01*
X124500500Y-86880654D01*
X124520185Y-86813615D01*
X124572989Y-86767860D01*
X124642147Y-86757916D01*
X124705703Y-86786941D01*
X124727602Y-86811764D01*
X124770882Y-86876537D01*
X124770888Y-86876545D01*
X124868454Y-86974111D01*
X124868458Y-86974114D01*
X124983182Y-87050771D01*
X124983195Y-87050778D01*
X125110667Y-87103578D01*
X125110672Y-87103580D01*
X125110676Y-87103580D01*
X125110677Y-87103581D01*
X125246004Y-87130500D01*
X125246007Y-87130500D01*
X126183995Y-87130500D01*
X126307609Y-87105911D01*
X126319328Y-87103580D01*
X126446811Y-87050775D01*
X126561542Y-86974114D01*
X126659114Y-86876542D01*
X126735775Y-86761811D01*
X126788580Y-86634328D01*
X126803390Y-86559876D01*
X126815500Y-86498995D01*
X128644499Y-86498995D01*
X128671418Y-86634322D01*
X128671421Y-86634332D01*
X128724221Y-86761804D01*
X128724228Y-86761817D01*
X128800885Y-86876541D01*
X128800888Y-86876545D01*
X128898454Y-86974111D01*
X128898458Y-86974114D01*
X129013182Y-87050771D01*
X129013195Y-87050778D01*
X129146299Y-87105911D01*
X129145550Y-87107717D01*
X129196441Y-87141052D01*
X129224911Y-87204858D01*
X129214365Y-87273927D01*
X129168152Y-87326331D01*
X129164025Y-87328822D01*
X129041635Y-87399485D01*
X129041632Y-87399487D01*
X128934487Y-87506632D01*
X128934485Y-87506635D01*
X128858719Y-87637863D01*
X128819500Y-87784234D01*
X128819500Y-87935765D01*
X128858719Y-88082136D01*
X128885645Y-88128772D01*
X128934485Y-88213365D01*
X129041635Y-88320515D01*
X129134464Y-88374110D01*
X129163882Y-88391095D01*
X129172865Y-88396281D01*
X129319234Y-88435500D01*
X129319236Y-88435500D01*
X129470764Y-88435500D01*
X129470766Y-88435500D01*
X129617135Y-88396281D01*
X129655540Y-88374108D01*
X134004500Y-88374108D01*
X134004500Y-88505891D01*
X134038608Y-88633187D01*
X134071554Y-88690250D01*
X134104500Y-88747314D01*
X134197686Y-88840500D01*
X134311814Y-88906392D01*
X134439108Y-88940500D01*
X134439110Y-88940500D01*
X134570890Y-88940500D01*
X134570892Y-88940500D01*
X134698186Y-88906392D01*
X134812314Y-88840500D01*
X134905500Y-88747314D01*
X134971392Y-88633186D01*
X135005500Y-88505892D01*
X135005500Y-88374108D01*
X134971392Y-88246814D01*
X134905500Y-88132686D01*
X134812314Y-88039500D01*
X134749562Y-88003270D01*
X134698187Y-87973608D01*
X134611941Y-87950499D01*
X134570892Y-87939500D01*
X134439108Y-87939500D01*
X134311812Y-87973608D01*
X134197686Y-88039500D01*
X134197683Y-88039502D01*
X134104502Y-88132683D01*
X134104500Y-88132686D01*
X134038608Y-88246812D01*
X134004500Y-88374108D01*
X129655540Y-88374108D01*
X129748365Y-88320515D01*
X129855515Y-88213365D01*
X129931281Y-88082135D01*
X129952413Y-88003268D01*
X129988777Y-87943609D01*
X130051623Y-87913080D01*
X130120999Y-87921374D01*
X130159868Y-87947682D01*
X130162686Y-87950500D01*
X130276814Y-88016392D01*
X130404108Y-88050500D01*
X130404110Y-88050500D01*
X130535890Y-88050500D01*
X130535892Y-88050500D01*
X130663186Y-88016392D01*
X130777314Y-87950500D01*
X130870500Y-87857314D01*
X130936392Y-87743186D01*
X130970500Y-87615892D01*
X130970500Y-87484108D01*
X130936392Y-87356814D01*
X130870500Y-87242686D01*
X130824771Y-87196957D01*
X130791286Y-87135634D01*
X130796270Y-87065942D01*
X130838142Y-87010009D01*
X130843562Y-87006174D01*
X130875925Y-86984548D01*
X130891542Y-86974114D01*
X130989114Y-86876542D01*
X131065775Y-86761811D01*
X131118580Y-86634328D01*
X131133390Y-86559876D01*
X131145500Y-86498995D01*
X131145500Y-86492027D01*
X134157419Y-86492027D01*
X134157419Y-86623811D01*
X134160237Y-86634328D01*
X134191527Y-86751106D01*
X134209760Y-86782686D01*
X134257419Y-86865233D01*
X134350605Y-86958419D01*
X134464733Y-87024311D01*
X134592027Y-87058419D01*
X134592029Y-87058419D01*
X134723809Y-87058419D01*
X134723811Y-87058419D01*
X134851105Y-87024311D01*
X134965233Y-86958419D01*
X135058419Y-86865233D01*
X135124311Y-86751105D01*
X135158419Y-86623811D01*
X135158419Y-86492027D01*
X135124311Y-86364733D01*
X135058419Y-86250605D01*
X134965233Y-86157419D01*
X134908169Y-86124473D01*
X134851106Y-86091527D01*
X134787458Y-86074473D01*
X134723811Y-86057419D01*
X134592027Y-86057419D01*
X134464731Y-86091527D01*
X134350605Y-86157419D01*
X134350602Y-86157421D01*
X134257421Y-86250602D01*
X134257419Y-86250605D01*
X134191527Y-86364731D01*
X134174227Y-86429298D01*
X134157419Y-86492027D01*
X131145500Y-86492027D01*
X131145500Y-86361004D01*
X131118581Y-86225677D01*
X131118580Y-86225676D01*
X131118580Y-86225672D01*
X131083301Y-86140500D01*
X131065778Y-86098195D01*
X131065771Y-86098182D01*
X130989114Y-85983458D01*
X130989111Y-85983454D01*
X130891545Y-85885888D01*
X130891541Y-85885885D01*
X130776817Y-85809228D01*
X130776804Y-85809221D01*
X130707565Y-85780542D01*
X130649332Y-85756421D01*
X130649322Y-85756418D01*
X130513995Y-85729500D01*
X130513993Y-85729500D01*
X129276007Y-85729500D01*
X129276005Y-85729500D01*
X129140677Y-85756418D01*
X129140667Y-85756421D01*
X129013195Y-85809221D01*
X129013182Y-85809228D01*
X128898458Y-85885885D01*
X128898454Y-85885888D01*
X128800888Y-85983454D01*
X128800885Y-85983458D01*
X128724228Y-86098182D01*
X128724221Y-86098195D01*
X128671421Y-86225667D01*
X128671418Y-86225677D01*
X128644500Y-86361004D01*
X128644500Y-86361007D01*
X128644500Y-86498993D01*
X128644500Y-86498995D01*
X128644499Y-86498995D01*
X126815500Y-86498995D01*
X126815500Y-86361004D01*
X126788581Y-86225677D01*
X126788580Y-86225676D01*
X126788580Y-86225672D01*
X126753301Y-86140500D01*
X126735778Y-86098195D01*
X126735771Y-86098182D01*
X126659114Y-85983458D01*
X126659111Y-85983454D01*
X126561545Y-85885888D01*
X126561541Y-85885885D01*
X126446817Y-85809228D01*
X126446804Y-85809221D01*
X126319332Y-85756421D01*
X126319322Y-85756418D01*
X126183995Y-85729500D01*
X126183993Y-85729500D01*
X125246007Y-85729500D01*
X125246005Y-85729500D01*
X125110677Y-85756418D01*
X125110667Y-85756421D01*
X124983195Y-85809221D01*
X124983182Y-85809228D01*
X124868458Y-85885885D01*
X124868454Y-85885888D01*
X124770888Y-85983454D01*
X124770885Y-85983458D01*
X124727602Y-86048236D01*
X124673990Y-86093041D01*
X124604665Y-86101748D01*
X124541637Y-86071593D01*
X124504918Y-86012150D01*
X124500500Y-85979345D01*
X124500500Y-85674108D01*
X155539500Y-85674108D01*
X155539500Y-85805891D01*
X155573608Y-85933187D01*
X155589137Y-85960083D01*
X155639500Y-86047314D01*
X155732686Y-86140500D01*
X155846814Y-86206392D01*
X155974108Y-86240500D01*
X155974110Y-86240500D01*
X156105890Y-86240500D01*
X156105892Y-86240500D01*
X156233186Y-86206392D01*
X156347314Y-86140500D01*
X156440500Y-86047314D01*
X156506392Y-85933186D01*
X156540500Y-85805892D01*
X156540500Y-85674108D01*
X156506392Y-85546814D01*
X156440500Y-85432686D01*
X156347314Y-85339500D01*
X156290250Y-85306554D01*
X156233187Y-85273608D01*
X156169539Y-85256554D01*
X156105892Y-85239500D01*
X155974108Y-85239500D01*
X155846812Y-85273608D01*
X155732686Y-85339500D01*
X155732683Y-85339502D01*
X155639502Y-85432683D01*
X155639500Y-85432686D01*
X155573608Y-85546812D01*
X155539500Y-85674108D01*
X124500500Y-85674108D01*
X124500500Y-82384500D01*
X124520185Y-82317461D01*
X124572989Y-82271706D01*
X124624500Y-82260500D01*
X129076608Y-82260500D01*
X129143647Y-82280185D01*
G37*
%TD.AperFunction*%
%TD*%
%TA.AperFunction,NonConductor*%
G36*
X133758008Y-82264047D02*
G01*
X133770553Y-82262970D01*
X133790898Y-82273705D01*
X133812966Y-82280185D01*
X133821209Y-82289699D01*
X133832348Y-82295576D01*
X133843660Y-82315608D01*
X133858721Y-82332989D01*
X133860512Y-82345449D01*
X133866705Y-82356415D01*
X133865391Y-82379381D01*
X133868665Y-82402147D01*
X133863339Y-82415268D01*
X133862716Y-82426171D01*
X133846245Y-82457386D01*
X133758140Y-82578650D01*
X133665244Y-82760968D01*
X133602010Y-82955581D01*
X133572124Y-83144269D01*
X133542194Y-83207403D01*
X133482883Y-83244334D01*
X133413020Y-83243336D01*
X133354788Y-83204726D01*
X133328034Y-83149061D01*
X133318409Y-83100674D01*
X133292051Y-82968165D01*
X133247248Y-82860000D01*
X133216635Y-82786092D01*
X133216628Y-82786079D01*
X133107139Y-82622218D01*
X133107136Y-82622214D01*
X132967787Y-82482865D01*
X132964725Y-82480352D01*
X132963552Y-82478630D01*
X132963475Y-82478553D01*
X132963489Y-82478538D01*
X132925392Y-82422605D01*
X132923523Y-82352761D01*
X132959711Y-82292993D01*
X133022468Y-82262278D01*
X133043392Y-82260500D01*
X133745927Y-82260500D01*
X133758008Y-82264047D01*
G37*
%TD.AperFunction*%
%TA.AperFunction,NonConductor*%
G36*
X136763647Y-82280185D02*
G01*
X136809402Y-82332989D01*
X136819346Y-82402147D01*
X136790321Y-82465703D01*
X136775275Y-82480352D01*
X136772212Y-82482865D01*
X136632863Y-82622214D01*
X136632860Y-82622218D01*
X136523371Y-82786079D01*
X136523364Y-82786092D01*
X136447950Y-82968160D01*
X136447947Y-82968170D01*
X136411965Y-83149062D01*
X136379580Y-83210973D01*
X136318864Y-83245547D01*
X136249094Y-83241806D01*
X136192423Y-83200940D01*
X136167875Y-83144268D01*
X136137990Y-82955582D01*
X136074755Y-82760968D01*
X135981859Y-82578650D01*
X135893755Y-82457386D01*
X135870275Y-82391580D01*
X135886100Y-82323526D01*
X135936206Y-82274831D01*
X135994073Y-82260500D01*
X136696608Y-82260500D01*
X136763647Y-82280185D01*
G37*
%TD.AperFunction*%
%TA.AperFunction,NonConductor*%
G36*
X144277374Y-88061683D02*
G01*
X144333307Y-88103555D01*
X144357724Y-88169019D01*
X144353815Y-88209958D01*
X144339500Y-88263381D01*
X144339500Y-89572324D01*
X144319815Y-89639363D01*
X144267011Y-89685118D01*
X144197853Y-89695062D01*
X144134297Y-89666037D01*
X144127819Y-89660005D01*
X144057316Y-89589502D01*
X144057314Y-89589500D01*
X143984357Y-89547378D01*
X143943187Y-89523608D01*
X143879539Y-89506554D01*
X143815892Y-89489500D01*
X143684108Y-89489500D01*
X143556814Y-89523608D01*
X143556813Y-89523608D01*
X143556811Y-89523609D01*
X143556810Y-89523609D01*
X143476500Y-89569977D01*
X143408600Y-89586450D01*
X143342573Y-89563598D01*
X143299382Y-89508676D01*
X143290500Y-89462590D01*
X143290500Y-88997405D01*
X143310185Y-88930366D01*
X143326814Y-88909729D01*
X144146360Y-88090183D01*
X144207682Y-88056699D01*
X144277374Y-88061683D01*
G37*
%TD.AperFunction*%
%TA.AperFunction,Conductor*%
%TO.N,+5V*%
G36*
X129143647Y-63050185D02*
G01*
X129189402Y-63102989D01*
X129199346Y-63172147D01*
X129170321Y-63235703D01*
X129155275Y-63250352D01*
X129152212Y-63252865D01*
X129012863Y-63392214D01*
X129012860Y-63392218D01*
X128903371Y-63556079D01*
X128903364Y-63556092D01*
X128827950Y-63738160D01*
X128827947Y-63738170D01*
X128789500Y-63931456D01*
X128789500Y-63931459D01*
X128789500Y-64128541D01*
X128789500Y-64128543D01*
X128789499Y-64128543D01*
X128827947Y-64321829D01*
X128827950Y-64321839D01*
X128903364Y-64503907D01*
X128903371Y-64503920D01*
X129012860Y-64667781D01*
X129012863Y-64667785D01*
X129152214Y-64807136D01*
X129152218Y-64807139D01*
X129316079Y-64916628D01*
X129316092Y-64916635D01*
X129498160Y-64992049D01*
X129498165Y-64992051D01*
X129498169Y-64992051D01*
X129498170Y-64992052D01*
X129691456Y-65030500D01*
X129691459Y-65030500D01*
X129888543Y-65030500D01*
X130043406Y-64999695D01*
X130081835Y-64992051D01*
X130263914Y-64916632D01*
X130427782Y-64807139D01*
X130567139Y-64667782D01*
X130676632Y-64503914D01*
X130752051Y-64321835D01*
X130788034Y-64140938D01*
X130790500Y-64128543D01*
X130790500Y-63931456D01*
X130752052Y-63738170D01*
X130752051Y-63738169D01*
X130752051Y-63738165D01*
X130707248Y-63630000D01*
X130676635Y-63556092D01*
X130676628Y-63556079D01*
X130567139Y-63392218D01*
X130567136Y-63392214D01*
X130427787Y-63252865D01*
X130424725Y-63250352D01*
X130423552Y-63248630D01*
X130423475Y-63248553D01*
X130423489Y-63248538D01*
X130385392Y-63192605D01*
X130383523Y-63122761D01*
X130419711Y-63062993D01*
X130482468Y-63032278D01*
X130503392Y-63030500D01*
X131616608Y-63030500D01*
X131683647Y-63050185D01*
X131729402Y-63102989D01*
X131739346Y-63172147D01*
X131710321Y-63235703D01*
X131695275Y-63250352D01*
X131692212Y-63252865D01*
X131552863Y-63392214D01*
X131552860Y-63392218D01*
X131443371Y-63556079D01*
X131443364Y-63556092D01*
X131367950Y-63738160D01*
X131367947Y-63738170D01*
X131329500Y-63931456D01*
X131329500Y-63931459D01*
X131329500Y-64128541D01*
X131329500Y-64128543D01*
X131329499Y-64128543D01*
X131367947Y-64321829D01*
X131367950Y-64321839D01*
X131443364Y-64503907D01*
X131443371Y-64503920D01*
X131552860Y-64667781D01*
X131552863Y-64667785D01*
X131692214Y-64807136D01*
X131692218Y-64807139D01*
X131856079Y-64916628D01*
X131856092Y-64916635D01*
X132038160Y-64992049D01*
X132038165Y-64992051D01*
X132038169Y-64992051D01*
X132038170Y-64992052D01*
X132231456Y-65030500D01*
X132231459Y-65030500D01*
X132428543Y-65030500D01*
X132583406Y-64999695D01*
X132621835Y-64992051D01*
X132663164Y-64974931D01*
X132729021Y-64947654D01*
X132803907Y-64916635D01*
X132803907Y-64916634D01*
X132803914Y-64916632D01*
X132967782Y-64807139D01*
X133107139Y-64667782D01*
X133216632Y-64503914D01*
X133292051Y-64321835D01*
X133328034Y-64140937D01*
X133360419Y-64079027D01*
X133421134Y-64044453D01*
X133490904Y-64048192D01*
X133547576Y-64089059D01*
X133572124Y-64145731D01*
X133602009Y-64334417D01*
X133665244Y-64529031D01*
X133758141Y-64711350D01*
X133758147Y-64711359D01*
X133790523Y-64755921D01*
X133790524Y-64755922D01*
X134470000Y-64076446D01*
X134470000Y-64082661D01*
X134497259Y-64184394D01*
X134549920Y-64275606D01*
X134624394Y-64350080D01*
X134715606Y-64402741D01*
X134817339Y-64430000D01*
X134823553Y-64430000D01*
X134144076Y-65109474D01*
X134188650Y-65141859D01*
X134370968Y-65234755D01*
X134565582Y-65297990D01*
X134767683Y-65330000D01*
X134972317Y-65330000D01*
X135174417Y-65297990D01*
X135369031Y-65234755D01*
X135551349Y-65141859D01*
X135595921Y-65109474D01*
X134916447Y-64430000D01*
X134922661Y-64430000D01*
X135024394Y-64402741D01*
X135115606Y-64350080D01*
X135190080Y-64275606D01*
X135242741Y-64184394D01*
X135270000Y-64082661D01*
X135270000Y-64076447D01*
X135949474Y-64755921D01*
X135981859Y-64711349D01*
X136074755Y-64529031D01*
X136137990Y-64334417D01*
X136167875Y-64145731D01*
X136197804Y-64082596D01*
X136257116Y-64045665D01*
X136326978Y-64046663D01*
X136385211Y-64085273D01*
X136411965Y-64140937D01*
X136447947Y-64321829D01*
X136447950Y-64321839D01*
X136523364Y-64503907D01*
X136523371Y-64503920D01*
X136632860Y-64667781D01*
X136632863Y-64667785D01*
X136772214Y-64807136D01*
X136772218Y-64807139D01*
X136936079Y-64916628D01*
X136936092Y-64916635D01*
X137118160Y-64992049D01*
X137118165Y-64992051D01*
X137118169Y-64992051D01*
X137118170Y-64992052D01*
X137311456Y-65030500D01*
X137311459Y-65030500D01*
X137508543Y-65030500D01*
X137663406Y-64999695D01*
X137701835Y-64992051D01*
X137883914Y-64916632D01*
X137937032Y-64881140D01*
X138003709Y-64860262D01*
X138071089Y-64878746D01*
X138117780Y-64930725D01*
X138128956Y-64999695D01*
X138125698Y-65016334D01*
X138099500Y-65114108D01*
X138099500Y-65245892D01*
X138116554Y-65309539D01*
X138133608Y-65373187D01*
X138166554Y-65430250D01*
X138199500Y-65487314D01*
X138292686Y-65580500D01*
X138406814Y-65646392D01*
X138534108Y-65680500D01*
X138534110Y-65680500D01*
X138665890Y-65680500D01*
X138665892Y-65680500D01*
X138793186Y-65646392D01*
X138907314Y-65580500D01*
X139000500Y-65487314D01*
X139066392Y-65373186D01*
X139100500Y-65245892D01*
X139100500Y-65114108D01*
X139066392Y-64986814D01*
X139000500Y-64872686D01*
X138907314Y-64779500D01*
X138850250Y-64746554D01*
X138793187Y-64713608D01*
X138729539Y-64696554D01*
X138665892Y-64679500D01*
X138534108Y-64679500D01*
X138420167Y-64710030D01*
X138350317Y-64708367D01*
X138292455Y-64669204D01*
X138264951Y-64604975D01*
X138276538Y-64536073D01*
X138284974Y-64521361D01*
X138296629Y-64503918D01*
X138296632Y-64503914D01*
X138372051Y-64321835D01*
X138408034Y-64140938D01*
X138410500Y-64128543D01*
X138410500Y-63931456D01*
X138372052Y-63738170D01*
X138372051Y-63738169D01*
X138372051Y-63738165D01*
X138327248Y-63630000D01*
X138296635Y-63556092D01*
X138296628Y-63556079D01*
X138187139Y-63392218D01*
X138187136Y-63392214D01*
X138047787Y-63252865D01*
X138044725Y-63250352D01*
X138043552Y-63248630D01*
X138043475Y-63248553D01*
X138043489Y-63248538D01*
X138005392Y-63192605D01*
X138003523Y-63122761D01*
X138039711Y-63062993D01*
X138102468Y-63032278D01*
X138123392Y-63030500D01*
X139236608Y-63030500D01*
X139303647Y-63050185D01*
X139349402Y-63102989D01*
X139359346Y-63172147D01*
X139330321Y-63235703D01*
X139315275Y-63250352D01*
X139312212Y-63252865D01*
X139172863Y-63392214D01*
X139172860Y-63392218D01*
X139063371Y-63556079D01*
X139063364Y-63556092D01*
X138987950Y-63738160D01*
X138987947Y-63738170D01*
X138949500Y-63931456D01*
X138949500Y-63931459D01*
X138949500Y-64128541D01*
X138949500Y-64128543D01*
X138949499Y-64128543D01*
X138987947Y-64321829D01*
X138987950Y-64321839D01*
X139063364Y-64503907D01*
X139063371Y-64503920D01*
X139172860Y-64667781D01*
X139172863Y-64667785D01*
X139312214Y-64807136D01*
X139312218Y-64807139D01*
X139476079Y-64916628D01*
X139476092Y-64916635D01*
X139658160Y-64992049D01*
X139658165Y-64992051D01*
X139658169Y-64992051D01*
X139658170Y-64992052D01*
X139851456Y-65030500D01*
X139851459Y-65030500D01*
X140048543Y-65030500D01*
X140203406Y-64999695D01*
X140241835Y-64992051D01*
X140423914Y-64916632D01*
X140587782Y-64807139D01*
X140727139Y-64667782D01*
X140836632Y-64503914D01*
X140912051Y-64321835D01*
X140948034Y-64140938D01*
X140950500Y-64128543D01*
X140950500Y-63931456D01*
X140912052Y-63738170D01*
X140912051Y-63738169D01*
X140912051Y-63738165D01*
X140867248Y-63630000D01*
X140836635Y-63556092D01*
X140836628Y-63556079D01*
X140727139Y-63392218D01*
X140727136Y-63392214D01*
X140587787Y-63252865D01*
X140584725Y-63250352D01*
X140583552Y-63248630D01*
X140583475Y-63248553D01*
X140583489Y-63248538D01*
X140545392Y-63192605D01*
X140543523Y-63122761D01*
X140579711Y-63062993D01*
X140642468Y-63032278D01*
X140663392Y-63030500D01*
X141776608Y-63030500D01*
X141843647Y-63050185D01*
X141889402Y-63102989D01*
X141899346Y-63172147D01*
X141870321Y-63235703D01*
X141855275Y-63250352D01*
X141852212Y-63252865D01*
X141712863Y-63392214D01*
X141712860Y-63392218D01*
X141603371Y-63556079D01*
X141603364Y-63556092D01*
X141527950Y-63738160D01*
X141527947Y-63738170D01*
X141489500Y-63931456D01*
X141489500Y-63931459D01*
X141489500Y-64128541D01*
X141489500Y-64128543D01*
X141489499Y-64128543D01*
X141527947Y-64321829D01*
X141527950Y-64321839D01*
X141603364Y-64503907D01*
X141603371Y-64503920D01*
X141712860Y-64667781D01*
X141712863Y-64667785D01*
X141852214Y-64807136D01*
X141852218Y-64807139D01*
X142016079Y-64916628D01*
X142016092Y-64916635D01*
X142198160Y-64992049D01*
X142198165Y-64992051D01*
X142198169Y-64992051D01*
X142198170Y-64992052D01*
X142391456Y-65030500D01*
X142391459Y-65030500D01*
X142588543Y-65030500D01*
X142743406Y-64999695D01*
X142781835Y-64992051D01*
X142963914Y-64916632D01*
X143127782Y-64807139D01*
X143267139Y-64667782D01*
X143376632Y-64503914D01*
X143452051Y-64321835D01*
X143488034Y-64140938D01*
X143490500Y-64128543D01*
X143490500Y-63931456D01*
X143452052Y-63738170D01*
X143452051Y-63738169D01*
X143452051Y-63738165D01*
X143407248Y-63630000D01*
X143376635Y-63556092D01*
X143376628Y-63556079D01*
X143267139Y-63392218D01*
X143267136Y-63392214D01*
X143127787Y-63252865D01*
X143124725Y-63250352D01*
X143123552Y-63248630D01*
X143123475Y-63248553D01*
X143123489Y-63248538D01*
X143085392Y-63192605D01*
X143083523Y-63122761D01*
X143119711Y-63062993D01*
X143182468Y-63032278D01*
X143203392Y-63030500D01*
X144316608Y-63030500D01*
X144383647Y-63050185D01*
X144429402Y-63102989D01*
X144439346Y-63172147D01*
X144410321Y-63235703D01*
X144395275Y-63250352D01*
X144392212Y-63252865D01*
X144252863Y-63392214D01*
X144252860Y-63392218D01*
X144143371Y-63556079D01*
X144143364Y-63556092D01*
X144067950Y-63738160D01*
X144067947Y-63738170D01*
X144029500Y-63931456D01*
X144029500Y-63931459D01*
X144029500Y-64128541D01*
X144029500Y-64128543D01*
X144029499Y-64128543D01*
X144067947Y-64321829D01*
X144067950Y-64321839D01*
X144143364Y-64503907D01*
X144143371Y-64503920D01*
X144252860Y-64667781D01*
X144252863Y-64667785D01*
X144392214Y-64807136D01*
X144392218Y-64807139D01*
X144556079Y-64916628D01*
X144556092Y-64916635D01*
X144738160Y-64992049D01*
X144738165Y-64992051D01*
X144738169Y-64992051D01*
X144738170Y-64992052D01*
X144931456Y-65030500D01*
X144931459Y-65030500D01*
X145128543Y-65030500D01*
X145283406Y-64999695D01*
X145321835Y-64992051D01*
X145503914Y-64916632D01*
X145667782Y-64807139D01*
X145807139Y-64667782D01*
X145916632Y-64503914D01*
X145992051Y-64321835D01*
X146028034Y-64140938D01*
X146030500Y-64128543D01*
X146030500Y-63931456D01*
X145992052Y-63738170D01*
X145992051Y-63738169D01*
X145992051Y-63738165D01*
X145947248Y-63630000D01*
X145916635Y-63556092D01*
X145916628Y-63556079D01*
X145807139Y-63392218D01*
X145807136Y-63392214D01*
X145667787Y-63252865D01*
X145664725Y-63250352D01*
X145663552Y-63248630D01*
X145663475Y-63248553D01*
X145663489Y-63248538D01*
X145625392Y-63192605D01*
X145623523Y-63122761D01*
X145659711Y-63062993D01*
X145722468Y-63032278D01*
X145743392Y-63030500D01*
X146856608Y-63030500D01*
X146923647Y-63050185D01*
X146969402Y-63102989D01*
X146979346Y-63172147D01*
X146950321Y-63235703D01*
X146935275Y-63250352D01*
X146932212Y-63252865D01*
X146792863Y-63392214D01*
X146792860Y-63392218D01*
X146683371Y-63556079D01*
X146683364Y-63556092D01*
X146607950Y-63738160D01*
X146607947Y-63738170D01*
X146569500Y-63931456D01*
X146569500Y-63931459D01*
X146569500Y-64128541D01*
X146569500Y-64128543D01*
X146569499Y-64128543D01*
X146607947Y-64321829D01*
X146607950Y-64321839D01*
X146683364Y-64503907D01*
X146683371Y-64503920D01*
X146792860Y-64667781D01*
X146792863Y-64667785D01*
X146932214Y-64807136D01*
X146932218Y-64807139D01*
X147096079Y-64916628D01*
X147096092Y-64916635D01*
X147278160Y-64992049D01*
X147278165Y-64992051D01*
X147278169Y-64992051D01*
X147278170Y-64992052D01*
X147471456Y-65030500D01*
X147471459Y-65030500D01*
X147668543Y-65030500D01*
X147823406Y-64999695D01*
X147861835Y-64992051D01*
X148043914Y-64916632D01*
X148207782Y-64807139D01*
X148347139Y-64667782D01*
X148456632Y-64503914D01*
X148532051Y-64321835D01*
X148568034Y-64140938D01*
X148570500Y-64128543D01*
X148570500Y-63931456D01*
X148532052Y-63738170D01*
X148532051Y-63738169D01*
X148532051Y-63738165D01*
X148487248Y-63630000D01*
X148456635Y-63556092D01*
X148456628Y-63556079D01*
X148347139Y-63392218D01*
X148347136Y-63392214D01*
X148207787Y-63252865D01*
X148204725Y-63250352D01*
X148203552Y-63248630D01*
X148203475Y-63248553D01*
X148203489Y-63248538D01*
X148165392Y-63192605D01*
X148163523Y-63122761D01*
X148199711Y-63062993D01*
X148262468Y-63032278D01*
X148283392Y-63030500D01*
X149396608Y-63030500D01*
X149463647Y-63050185D01*
X149509402Y-63102989D01*
X149519346Y-63172147D01*
X149490321Y-63235703D01*
X149475275Y-63250352D01*
X149472212Y-63252865D01*
X149332863Y-63392214D01*
X149332860Y-63392218D01*
X149223371Y-63556079D01*
X149223364Y-63556092D01*
X149147950Y-63738160D01*
X149147947Y-63738170D01*
X149109500Y-63931456D01*
X149109500Y-63931459D01*
X149109500Y-64128541D01*
X149109500Y-64128543D01*
X149109499Y-64128543D01*
X149147947Y-64321829D01*
X149147950Y-64321839D01*
X149223364Y-64503907D01*
X149223371Y-64503920D01*
X149332860Y-64667781D01*
X149332863Y-64667785D01*
X149472214Y-64807136D01*
X149472218Y-64807139D01*
X149636079Y-64916628D01*
X149636092Y-64916635D01*
X149818160Y-64992049D01*
X149818165Y-64992051D01*
X149818169Y-64992051D01*
X149818170Y-64992052D01*
X150011456Y-65030500D01*
X150011459Y-65030500D01*
X150208543Y-65030500D01*
X150363406Y-64999695D01*
X150401835Y-64992051D01*
X150583914Y-64916632D01*
X150747782Y-64807139D01*
X150887139Y-64667782D01*
X150996632Y-64503914D01*
X151072051Y-64321835D01*
X151108034Y-64140938D01*
X151110500Y-64128543D01*
X151110500Y-63931456D01*
X151072052Y-63738170D01*
X151072051Y-63738169D01*
X151072051Y-63738165D01*
X151027248Y-63630000D01*
X150996635Y-63556092D01*
X150996628Y-63556079D01*
X150887139Y-63392218D01*
X150887136Y-63392214D01*
X150747787Y-63252865D01*
X150744725Y-63250352D01*
X150743552Y-63248630D01*
X150743475Y-63248553D01*
X150743489Y-63248538D01*
X150705392Y-63192605D01*
X150703523Y-63122761D01*
X150739711Y-63062993D01*
X150802468Y-63032278D01*
X150823392Y-63030500D01*
X151936608Y-63030500D01*
X152003647Y-63050185D01*
X152049402Y-63102989D01*
X152059346Y-63172147D01*
X152030321Y-63235703D01*
X152015275Y-63250352D01*
X152012212Y-63252865D01*
X151872863Y-63392214D01*
X151872860Y-63392218D01*
X151763371Y-63556079D01*
X151763364Y-63556092D01*
X151687950Y-63738160D01*
X151687947Y-63738170D01*
X151649500Y-63931456D01*
X151649500Y-63931459D01*
X151649500Y-64128541D01*
X151649500Y-64128543D01*
X151649499Y-64128543D01*
X151687947Y-64321829D01*
X151687950Y-64321839D01*
X151763364Y-64503907D01*
X151763371Y-64503920D01*
X151872860Y-64667781D01*
X151872863Y-64667785D01*
X152012214Y-64807136D01*
X152012218Y-64807139D01*
X152176079Y-64916628D01*
X152176092Y-64916635D01*
X152358160Y-64992049D01*
X152358165Y-64992051D01*
X152358169Y-64992051D01*
X152358170Y-64992052D01*
X152551456Y-65030500D01*
X152551459Y-65030500D01*
X152748543Y-65030500D01*
X152903406Y-64999695D01*
X152941835Y-64992051D01*
X153123914Y-64916632D01*
X153287782Y-64807139D01*
X153427139Y-64667782D01*
X153536632Y-64503914D01*
X153612051Y-64321835D01*
X153648034Y-64140938D01*
X153650500Y-64128543D01*
X153650500Y-63931456D01*
X153612052Y-63738170D01*
X153612051Y-63738169D01*
X153612051Y-63738165D01*
X153567248Y-63630000D01*
X153536635Y-63556092D01*
X153536628Y-63556079D01*
X153427139Y-63392218D01*
X153427136Y-63392214D01*
X153287787Y-63252865D01*
X153284725Y-63250352D01*
X153283552Y-63248630D01*
X153283475Y-63248553D01*
X153283489Y-63248538D01*
X153245392Y-63192605D01*
X153243523Y-63122761D01*
X153279711Y-63062993D01*
X153342468Y-63032278D01*
X153363392Y-63030500D01*
X154476608Y-63030500D01*
X154543647Y-63050185D01*
X154589402Y-63102989D01*
X154599346Y-63172147D01*
X154570321Y-63235703D01*
X154555275Y-63250352D01*
X154552212Y-63252865D01*
X154412863Y-63392214D01*
X154412860Y-63392218D01*
X154303371Y-63556079D01*
X154303364Y-63556092D01*
X154227950Y-63738160D01*
X154227947Y-63738170D01*
X154189500Y-63931456D01*
X154189500Y-63931459D01*
X154189500Y-64128541D01*
X154189500Y-64128543D01*
X154189499Y-64128543D01*
X154227947Y-64321829D01*
X154227950Y-64321839D01*
X154303364Y-64503907D01*
X154303371Y-64503920D01*
X154412860Y-64667781D01*
X154412863Y-64667785D01*
X154552214Y-64807136D01*
X154552218Y-64807139D01*
X154716079Y-64916628D01*
X154716092Y-64916635D01*
X154898160Y-64992049D01*
X154898165Y-64992051D01*
X154898169Y-64992051D01*
X154898170Y-64992052D01*
X155091456Y-65030500D01*
X155091459Y-65030500D01*
X155288543Y-65030500D01*
X155443406Y-64999695D01*
X155481835Y-64992051D01*
X155663914Y-64916632D01*
X155827782Y-64807139D01*
X155967139Y-64667782D01*
X156076632Y-64503914D01*
X156152051Y-64321835D01*
X156188034Y-64140938D01*
X156190500Y-64128543D01*
X156190500Y-63931456D01*
X156152052Y-63738170D01*
X156152051Y-63738169D01*
X156152051Y-63738165D01*
X156107248Y-63630000D01*
X156076635Y-63556092D01*
X156076628Y-63556079D01*
X155967139Y-63392218D01*
X155967136Y-63392214D01*
X155827787Y-63252865D01*
X155824725Y-63250352D01*
X155823552Y-63248630D01*
X155823475Y-63248553D01*
X155823489Y-63248538D01*
X155785392Y-63192605D01*
X155783523Y-63122761D01*
X155819711Y-63062993D01*
X155882468Y-63032278D01*
X155903392Y-63030500D01*
X157016608Y-63030500D01*
X157083647Y-63050185D01*
X157129402Y-63102989D01*
X157139346Y-63172147D01*
X157110321Y-63235703D01*
X157095275Y-63250352D01*
X157092212Y-63252865D01*
X156952863Y-63392214D01*
X156952860Y-63392218D01*
X156843371Y-63556079D01*
X156843364Y-63556092D01*
X156767950Y-63738160D01*
X156767947Y-63738170D01*
X156729500Y-63931456D01*
X156729500Y-63931459D01*
X156729500Y-64128541D01*
X156729500Y-64128543D01*
X156729499Y-64128543D01*
X156767947Y-64321829D01*
X156767950Y-64321839D01*
X156843364Y-64503907D01*
X156843371Y-64503920D01*
X156952860Y-64667781D01*
X156952863Y-64667785D01*
X157092214Y-64807136D01*
X157092218Y-64807139D01*
X157256079Y-64916628D01*
X157256092Y-64916635D01*
X157438160Y-64992049D01*
X157438165Y-64992051D01*
X157438169Y-64992051D01*
X157438170Y-64992052D01*
X157631456Y-65030500D01*
X157631459Y-65030500D01*
X157828543Y-65030500D01*
X157983406Y-64999695D01*
X158021835Y-64992051D01*
X158203914Y-64916632D01*
X158367782Y-64807139D01*
X158507139Y-64667782D01*
X158616632Y-64503914D01*
X158692051Y-64321835D01*
X158728034Y-64140938D01*
X158730500Y-64128543D01*
X158730500Y-63931456D01*
X158692052Y-63738170D01*
X158692051Y-63738169D01*
X158692051Y-63738165D01*
X158647248Y-63630000D01*
X158616635Y-63556092D01*
X158616628Y-63556079D01*
X158507139Y-63392218D01*
X158507136Y-63392214D01*
X158367787Y-63252865D01*
X158364725Y-63250352D01*
X158363552Y-63248630D01*
X158363475Y-63248553D01*
X158363489Y-63248538D01*
X158325392Y-63192605D01*
X158323523Y-63122761D01*
X158359711Y-63062993D01*
X158422468Y-63032278D01*
X158443392Y-63030500D01*
X159375500Y-63030500D01*
X159442539Y-63050185D01*
X159488294Y-63102989D01*
X159499500Y-63154500D01*
X159499500Y-80145500D01*
X159479815Y-80212539D01*
X159427011Y-80258294D01*
X159375500Y-80269500D01*
X158443392Y-80269500D01*
X158376353Y-80249815D01*
X158330598Y-80197011D01*
X158320654Y-80127853D01*
X158349679Y-80064297D01*
X158364725Y-80049648D01*
X158367776Y-80047142D01*
X158367782Y-80047139D01*
X158507139Y-79907782D01*
X158616632Y-79743914D01*
X158692051Y-79561835D01*
X158730500Y-79368541D01*
X158730500Y-79171459D01*
X158730500Y-79171456D01*
X158692052Y-78978170D01*
X158692051Y-78978169D01*
X158692051Y-78978165D01*
X158692049Y-78978160D01*
X158616635Y-78796092D01*
X158616628Y-78796079D01*
X158507139Y-78632218D01*
X158507136Y-78632214D01*
X158367785Y-78492863D01*
X158367781Y-78492860D01*
X158203920Y-78383371D01*
X158203907Y-78383364D01*
X158021839Y-78307950D01*
X158021829Y-78307947D01*
X157828543Y-78269500D01*
X157828541Y-78269500D01*
X157631459Y-78269500D01*
X157631457Y-78269500D01*
X157438170Y-78307947D01*
X157438160Y-78307950D01*
X157256092Y-78383364D01*
X157256079Y-78383371D01*
X157092218Y-78492860D01*
X157092214Y-78492863D01*
X156952863Y-78632214D01*
X156952860Y-78632218D01*
X156843371Y-78796079D01*
X156843364Y-78796092D01*
X156767950Y-78978160D01*
X156767947Y-78978170D01*
X156729500Y-79171456D01*
X156729500Y-79171459D01*
X156729500Y-79368541D01*
X156729500Y-79368543D01*
X156729499Y-79368543D01*
X156767947Y-79561829D01*
X156767950Y-79561839D01*
X156843364Y-79743907D01*
X156843371Y-79743920D01*
X156952860Y-79907781D01*
X156952863Y-79907785D01*
X157092212Y-80047134D01*
X157095275Y-80049648D01*
X157096447Y-80051369D01*
X157096525Y-80051447D01*
X157096510Y-80051461D01*
X157134608Y-80107395D01*
X157136477Y-80177239D01*
X157100289Y-80237007D01*
X157037532Y-80267722D01*
X157016608Y-80269500D01*
X155903392Y-80269500D01*
X155836353Y-80249815D01*
X155790598Y-80197011D01*
X155780654Y-80127853D01*
X155809679Y-80064297D01*
X155824725Y-80049648D01*
X155827776Y-80047142D01*
X155827782Y-80047139D01*
X155967139Y-79907782D01*
X156076632Y-79743914D01*
X156152051Y-79561835D01*
X156190500Y-79368541D01*
X156190500Y-79171459D01*
X156190500Y-79171456D01*
X156152052Y-78978170D01*
X156152051Y-78978169D01*
X156152051Y-78978165D01*
X156152049Y-78978160D01*
X156076635Y-78796092D01*
X156076628Y-78796079D01*
X155967139Y-78632218D01*
X155967136Y-78632214D01*
X155827785Y-78492863D01*
X155827781Y-78492860D01*
X155663920Y-78383371D01*
X155663907Y-78383364D01*
X155481839Y-78307950D01*
X155481829Y-78307947D01*
X155288543Y-78269500D01*
X155288541Y-78269500D01*
X155091459Y-78269500D01*
X155091457Y-78269500D01*
X154898170Y-78307947D01*
X154898160Y-78307950D01*
X154716092Y-78383364D01*
X154716079Y-78383371D01*
X154552218Y-78492860D01*
X154552214Y-78492863D01*
X154412863Y-78632214D01*
X154412860Y-78632218D01*
X154303371Y-78796079D01*
X154303364Y-78796092D01*
X154227950Y-78978160D01*
X154227947Y-78978170D01*
X154189500Y-79171456D01*
X154189500Y-79171459D01*
X154189500Y-79368541D01*
X154189500Y-79368543D01*
X154189499Y-79368543D01*
X154227947Y-79561829D01*
X154227950Y-79561839D01*
X154303364Y-79743907D01*
X154303371Y-79743920D01*
X154412860Y-79907781D01*
X154412863Y-79907785D01*
X154552212Y-80047134D01*
X154555275Y-80049648D01*
X154556447Y-80051369D01*
X154556525Y-80051447D01*
X154556510Y-80051461D01*
X154594608Y-80107395D01*
X154596477Y-80177239D01*
X154560289Y-80237007D01*
X154497532Y-80267722D01*
X154476608Y-80269500D01*
X153363392Y-80269500D01*
X153296353Y-80249815D01*
X153250598Y-80197011D01*
X153240654Y-80127853D01*
X153269679Y-80064297D01*
X153284725Y-80049648D01*
X153287776Y-80047142D01*
X153287782Y-80047139D01*
X153427139Y-79907782D01*
X153536632Y-79743914D01*
X153612051Y-79561835D01*
X153650500Y-79368541D01*
X153650500Y-79171459D01*
X153650500Y-79171456D01*
X153612052Y-78978170D01*
X153612051Y-78978169D01*
X153612051Y-78978165D01*
X153612049Y-78978160D01*
X153536635Y-78796092D01*
X153536628Y-78796079D01*
X153427139Y-78632218D01*
X153427136Y-78632214D01*
X153287785Y-78492863D01*
X153287781Y-78492860D01*
X153123920Y-78383371D01*
X153123907Y-78383364D01*
X152941839Y-78307950D01*
X152941829Y-78307947D01*
X152748543Y-78269500D01*
X152748541Y-78269500D01*
X152551459Y-78269500D01*
X152551457Y-78269500D01*
X152358170Y-78307947D01*
X152358160Y-78307950D01*
X152176092Y-78383364D01*
X152176079Y-78383371D01*
X152012218Y-78492860D01*
X152012214Y-78492863D01*
X151872863Y-78632214D01*
X151872860Y-78632218D01*
X151763371Y-78796079D01*
X151763364Y-78796092D01*
X151687950Y-78978160D01*
X151687947Y-78978170D01*
X151649500Y-79171456D01*
X151649500Y-79171459D01*
X151649500Y-79368541D01*
X151649500Y-79368543D01*
X151649499Y-79368543D01*
X151687947Y-79561829D01*
X151687950Y-79561839D01*
X151763364Y-79743907D01*
X151763371Y-79743920D01*
X151872860Y-79907781D01*
X151872863Y-79907785D01*
X152012212Y-80047134D01*
X152015275Y-80049648D01*
X152016447Y-80051369D01*
X152016525Y-80051447D01*
X152016510Y-80051461D01*
X152054608Y-80107395D01*
X152056477Y-80177239D01*
X152020289Y-80237007D01*
X151957532Y-80267722D01*
X151936608Y-80269500D01*
X150823392Y-80269500D01*
X150756353Y-80249815D01*
X150710598Y-80197011D01*
X150700654Y-80127853D01*
X150729679Y-80064297D01*
X150744725Y-80049648D01*
X150747776Y-80047142D01*
X150747782Y-80047139D01*
X150887139Y-79907782D01*
X150996632Y-79743914D01*
X151072051Y-79561835D01*
X151110500Y-79368541D01*
X151110500Y-79171459D01*
X151110500Y-79171456D01*
X151072052Y-78978170D01*
X151072051Y-78978169D01*
X151072051Y-78978165D01*
X151072049Y-78978160D01*
X150996635Y-78796092D01*
X150996628Y-78796079D01*
X150887139Y-78632218D01*
X150887136Y-78632214D01*
X150747785Y-78492863D01*
X150747781Y-78492860D01*
X150583920Y-78383371D01*
X150583907Y-78383364D01*
X150401839Y-78307950D01*
X150401829Y-78307947D01*
X150208543Y-78269500D01*
X150208541Y-78269500D01*
X150011459Y-78269500D01*
X150011457Y-78269500D01*
X149818170Y-78307947D01*
X149818160Y-78307950D01*
X149636092Y-78383364D01*
X149636079Y-78383371D01*
X149472218Y-78492860D01*
X149472214Y-78492863D01*
X149332863Y-78632214D01*
X149332860Y-78632218D01*
X149223371Y-78796079D01*
X149223364Y-78796092D01*
X149147950Y-78978160D01*
X149147947Y-78978170D01*
X149109500Y-79171456D01*
X149109500Y-79171459D01*
X149109500Y-79368541D01*
X149109500Y-79368543D01*
X149109499Y-79368543D01*
X149147947Y-79561829D01*
X149147950Y-79561839D01*
X149223364Y-79743907D01*
X149223371Y-79743920D01*
X149332860Y-79907781D01*
X149332863Y-79907785D01*
X149472212Y-80047134D01*
X149475275Y-80049648D01*
X149476447Y-80051369D01*
X149476525Y-80051447D01*
X149476510Y-80051461D01*
X149514608Y-80107395D01*
X149516477Y-80177239D01*
X149480289Y-80237007D01*
X149417532Y-80267722D01*
X149396608Y-80269500D01*
X148283392Y-80269500D01*
X148216353Y-80249815D01*
X148170598Y-80197011D01*
X148160654Y-80127853D01*
X148189679Y-80064297D01*
X148204725Y-80049648D01*
X148207776Y-80047142D01*
X148207782Y-80047139D01*
X148347139Y-79907782D01*
X148456632Y-79743914D01*
X148532051Y-79561835D01*
X148570500Y-79368541D01*
X148570500Y-79171459D01*
X148570500Y-79171456D01*
X148532052Y-78978170D01*
X148532051Y-78978169D01*
X148532051Y-78978165D01*
X148532049Y-78978160D01*
X148456635Y-78796092D01*
X148456628Y-78796079D01*
X148347139Y-78632218D01*
X148347136Y-78632214D01*
X148207785Y-78492863D01*
X148207781Y-78492860D01*
X148043920Y-78383371D01*
X148043907Y-78383364D01*
X147861839Y-78307950D01*
X147861829Y-78307947D01*
X147668543Y-78269500D01*
X147668541Y-78269500D01*
X147471459Y-78269500D01*
X147471457Y-78269500D01*
X147278170Y-78307947D01*
X147278160Y-78307950D01*
X147096092Y-78383364D01*
X147096079Y-78383371D01*
X146932218Y-78492860D01*
X146932214Y-78492863D01*
X146792863Y-78632214D01*
X146792860Y-78632218D01*
X146683371Y-78796079D01*
X146683364Y-78796092D01*
X146607950Y-78978160D01*
X146607947Y-78978170D01*
X146569500Y-79171456D01*
X146569500Y-79171459D01*
X146569500Y-79368541D01*
X146569500Y-79368543D01*
X146569499Y-79368543D01*
X146607947Y-79561829D01*
X146607950Y-79561839D01*
X146683364Y-79743907D01*
X146683371Y-79743920D01*
X146792860Y-79907781D01*
X146792863Y-79907785D01*
X146932212Y-80047134D01*
X146935275Y-80049648D01*
X146936447Y-80051369D01*
X146936525Y-80051447D01*
X146936510Y-80051461D01*
X146974608Y-80107395D01*
X146976477Y-80177239D01*
X146940289Y-80237007D01*
X146877532Y-80267722D01*
X146856608Y-80269500D01*
X145743392Y-80269500D01*
X145676353Y-80249815D01*
X145630598Y-80197011D01*
X145620654Y-80127853D01*
X145649679Y-80064297D01*
X145664725Y-80049648D01*
X145667776Y-80047142D01*
X145667782Y-80047139D01*
X145807139Y-79907782D01*
X145916632Y-79743914D01*
X145992051Y-79561835D01*
X146030500Y-79368541D01*
X146030500Y-79171459D01*
X146030500Y-79171456D01*
X145992052Y-78978170D01*
X145992051Y-78978169D01*
X145992051Y-78978165D01*
X145992049Y-78978160D01*
X145916635Y-78796092D01*
X145916628Y-78796079D01*
X145807139Y-78632218D01*
X145807136Y-78632214D01*
X145667785Y-78492863D01*
X145667781Y-78492860D01*
X145503920Y-78383371D01*
X145503907Y-78383364D01*
X145321839Y-78307950D01*
X145321829Y-78307947D01*
X145128543Y-78269500D01*
X145128541Y-78269500D01*
X144931459Y-78269500D01*
X144931457Y-78269500D01*
X144738170Y-78307947D01*
X144738160Y-78307950D01*
X144556092Y-78383364D01*
X144556079Y-78383371D01*
X144392218Y-78492860D01*
X144392214Y-78492863D01*
X144252863Y-78632214D01*
X144252860Y-78632218D01*
X144143371Y-78796079D01*
X144143364Y-78796092D01*
X144067950Y-78978160D01*
X144067947Y-78978170D01*
X144029500Y-79171456D01*
X144029500Y-79171459D01*
X144029500Y-79368541D01*
X144029500Y-79368543D01*
X144029499Y-79368543D01*
X144067947Y-79561829D01*
X144067950Y-79561839D01*
X144143364Y-79743907D01*
X144143371Y-79743920D01*
X144252860Y-79907781D01*
X144252863Y-79907785D01*
X144392212Y-80047134D01*
X144395275Y-80049648D01*
X144396447Y-80051369D01*
X144396525Y-80051447D01*
X144396510Y-80051461D01*
X144434608Y-80107395D01*
X144436477Y-80177239D01*
X144400289Y-80237007D01*
X144337532Y-80267722D01*
X144316608Y-80269500D01*
X143203392Y-80269500D01*
X143136353Y-80249815D01*
X143090598Y-80197011D01*
X143080654Y-80127853D01*
X143109679Y-80064297D01*
X143124725Y-80049648D01*
X143127776Y-80047142D01*
X143127782Y-80047139D01*
X143267139Y-79907782D01*
X143376632Y-79743914D01*
X143452051Y-79561835D01*
X143490500Y-79368541D01*
X143490500Y-79171459D01*
X143490500Y-79171456D01*
X143452052Y-78978170D01*
X143452051Y-78978169D01*
X143452051Y-78978165D01*
X143452049Y-78978160D01*
X143376635Y-78796092D01*
X143376628Y-78796079D01*
X143267139Y-78632218D01*
X143267136Y-78632214D01*
X143127785Y-78492863D01*
X143127781Y-78492860D01*
X142963920Y-78383371D01*
X142963907Y-78383364D01*
X142781839Y-78307950D01*
X142781829Y-78307947D01*
X142588543Y-78269500D01*
X142588541Y-78269500D01*
X142391459Y-78269500D01*
X142391457Y-78269500D01*
X142198170Y-78307947D01*
X142198160Y-78307950D01*
X142016092Y-78383364D01*
X142016079Y-78383371D01*
X141852218Y-78492860D01*
X141852214Y-78492863D01*
X141712863Y-78632214D01*
X141712860Y-78632218D01*
X141603371Y-78796079D01*
X141603364Y-78796092D01*
X141527950Y-78978160D01*
X141527947Y-78978170D01*
X141489500Y-79171456D01*
X141489500Y-79171459D01*
X141489500Y-79368541D01*
X141489500Y-79368543D01*
X141489499Y-79368543D01*
X141527947Y-79561829D01*
X141527950Y-79561839D01*
X141603364Y-79743907D01*
X141603371Y-79743920D01*
X141712860Y-79907781D01*
X141712863Y-79907785D01*
X141852212Y-80047134D01*
X141855275Y-80049648D01*
X141856447Y-80051369D01*
X141856525Y-80051447D01*
X141856510Y-80051461D01*
X141894608Y-80107395D01*
X141896477Y-80177239D01*
X141860289Y-80237007D01*
X141797532Y-80267722D01*
X141776608Y-80269500D01*
X140663392Y-80269500D01*
X140596353Y-80249815D01*
X140550598Y-80197011D01*
X140540654Y-80127853D01*
X140569679Y-80064297D01*
X140584725Y-80049648D01*
X140587776Y-80047142D01*
X140587782Y-80047139D01*
X140727139Y-79907782D01*
X140836632Y-79743914D01*
X140912051Y-79561835D01*
X140950500Y-79368541D01*
X140950500Y-79171459D01*
X140950500Y-79171456D01*
X140912052Y-78978170D01*
X140912051Y-78978169D01*
X140912051Y-78978165D01*
X140912049Y-78978160D01*
X140836635Y-78796092D01*
X140836628Y-78796079D01*
X140727139Y-78632218D01*
X140727136Y-78632214D01*
X140587785Y-78492863D01*
X140587781Y-78492860D01*
X140423920Y-78383371D01*
X140423907Y-78383364D01*
X140241839Y-78307950D01*
X140241829Y-78307947D01*
X140048543Y-78269500D01*
X140048541Y-78269500D01*
X139851459Y-78269500D01*
X139851457Y-78269500D01*
X139658170Y-78307947D01*
X139658160Y-78307950D01*
X139476092Y-78383364D01*
X139476079Y-78383371D01*
X139312218Y-78492860D01*
X139312214Y-78492863D01*
X139172863Y-78632214D01*
X139172860Y-78632218D01*
X139063371Y-78796079D01*
X139063364Y-78796092D01*
X138987950Y-78978160D01*
X138987947Y-78978170D01*
X138949500Y-79171456D01*
X138949500Y-79171459D01*
X138949500Y-79368541D01*
X138949500Y-79368543D01*
X138949499Y-79368543D01*
X138987947Y-79561829D01*
X138987950Y-79561839D01*
X139063364Y-79743907D01*
X139063371Y-79743920D01*
X139172860Y-79907781D01*
X139172863Y-79907785D01*
X139312212Y-80047134D01*
X139315275Y-80049648D01*
X139316447Y-80051369D01*
X139316525Y-80051447D01*
X139316510Y-80051461D01*
X139354608Y-80107395D01*
X139356477Y-80177239D01*
X139320289Y-80237007D01*
X139257532Y-80267722D01*
X139236608Y-80269500D01*
X138123392Y-80269500D01*
X138056353Y-80249815D01*
X138010598Y-80197011D01*
X138000654Y-80127853D01*
X138029679Y-80064297D01*
X138044725Y-80049648D01*
X138047776Y-80047142D01*
X138047782Y-80047139D01*
X138187139Y-79907782D01*
X138296632Y-79743914D01*
X138372051Y-79561835D01*
X138410500Y-79368541D01*
X138410500Y-79171459D01*
X138410500Y-79171456D01*
X138372052Y-78978170D01*
X138372051Y-78978169D01*
X138372051Y-78978165D01*
X138372049Y-78978160D01*
X138296635Y-78796092D01*
X138296628Y-78796079D01*
X138187139Y-78632218D01*
X138187136Y-78632214D01*
X138047785Y-78492863D01*
X138047781Y-78492860D01*
X137883920Y-78383371D01*
X137883907Y-78383364D01*
X137701839Y-78307950D01*
X137701829Y-78307947D01*
X137508543Y-78269500D01*
X137508541Y-78269500D01*
X137311459Y-78269500D01*
X137311457Y-78269500D01*
X137118170Y-78307947D01*
X137118160Y-78307950D01*
X136936092Y-78383364D01*
X136936079Y-78383371D01*
X136772218Y-78492860D01*
X136772214Y-78492863D01*
X136632863Y-78632214D01*
X136632860Y-78632218D01*
X136523371Y-78796079D01*
X136523364Y-78796092D01*
X136447950Y-78978160D01*
X136447947Y-78978170D01*
X136409500Y-79171456D01*
X136409500Y-79171459D01*
X136409500Y-79368541D01*
X136409500Y-79368543D01*
X136409499Y-79368543D01*
X136447947Y-79561829D01*
X136447950Y-79561839D01*
X136523364Y-79743907D01*
X136523371Y-79743920D01*
X136632860Y-79907781D01*
X136632863Y-79907785D01*
X136772212Y-80047134D01*
X136775275Y-80049648D01*
X136776447Y-80051369D01*
X136776525Y-80051447D01*
X136776510Y-80051461D01*
X136814608Y-80107395D01*
X136816477Y-80177239D01*
X136780289Y-80237007D01*
X136717532Y-80267722D01*
X136696608Y-80269500D01*
X135583392Y-80269500D01*
X135516353Y-80249815D01*
X135470598Y-80197011D01*
X135460654Y-80127853D01*
X135489679Y-80064297D01*
X135504725Y-80049648D01*
X135507776Y-80047142D01*
X135507782Y-80047139D01*
X135647139Y-79907782D01*
X135756632Y-79743914D01*
X135832051Y-79561835D01*
X135870500Y-79368541D01*
X135870500Y-79171459D01*
X135870500Y-79171456D01*
X135832052Y-78978170D01*
X135832051Y-78978169D01*
X135832051Y-78978165D01*
X135832049Y-78978160D01*
X135756635Y-78796092D01*
X135756628Y-78796079D01*
X135647139Y-78632218D01*
X135647136Y-78632214D01*
X135507785Y-78492863D01*
X135507781Y-78492860D01*
X135343920Y-78383371D01*
X135343907Y-78383364D01*
X135161839Y-78307950D01*
X135161829Y-78307947D01*
X134968543Y-78269500D01*
X134968541Y-78269500D01*
X134771459Y-78269500D01*
X134771457Y-78269500D01*
X134578170Y-78307947D01*
X134578160Y-78307950D01*
X134396092Y-78383364D01*
X134396079Y-78383371D01*
X134232218Y-78492860D01*
X134232214Y-78492863D01*
X134092863Y-78632214D01*
X134092860Y-78632218D01*
X133983371Y-78796079D01*
X133983364Y-78796092D01*
X133907950Y-78978160D01*
X133907947Y-78978170D01*
X133869500Y-79171456D01*
X133869500Y-79171459D01*
X133869500Y-79368541D01*
X133869500Y-79368543D01*
X133869499Y-79368543D01*
X133907947Y-79561829D01*
X133907950Y-79561839D01*
X133983364Y-79743907D01*
X133983371Y-79743920D01*
X134092860Y-79907781D01*
X134092863Y-79907785D01*
X134232212Y-80047134D01*
X134235275Y-80049648D01*
X134236447Y-80051369D01*
X134236525Y-80051447D01*
X134236510Y-80051461D01*
X134274608Y-80107395D01*
X134276477Y-80177239D01*
X134240289Y-80237007D01*
X134177532Y-80267722D01*
X134156608Y-80269500D01*
X133043392Y-80269500D01*
X132976353Y-80249815D01*
X132930598Y-80197011D01*
X132920654Y-80127853D01*
X132949679Y-80064297D01*
X132964725Y-80049648D01*
X132967776Y-80047142D01*
X132967782Y-80047139D01*
X133107139Y-79907782D01*
X133216632Y-79743914D01*
X133292051Y-79561835D01*
X133330500Y-79368541D01*
X133330500Y-79171459D01*
X133330500Y-79171456D01*
X133292052Y-78978170D01*
X133292051Y-78978169D01*
X133292051Y-78978165D01*
X133292049Y-78978160D01*
X133216635Y-78796092D01*
X133216628Y-78796079D01*
X133107139Y-78632218D01*
X133107136Y-78632214D01*
X132967785Y-78492863D01*
X132967781Y-78492860D01*
X132803920Y-78383371D01*
X132803907Y-78383364D01*
X132621839Y-78307950D01*
X132621829Y-78307947D01*
X132428543Y-78269500D01*
X132428541Y-78269500D01*
X132231459Y-78269500D01*
X132231457Y-78269500D01*
X132038170Y-78307947D01*
X132038160Y-78307950D01*
X131856092Y-78383364D01*
X131856079Y-78383371D01*
X131692218Y-78492860D01*
X131692214Y-78492863D01*
X131552863Y-78632214D01*
X131552860Y-78632218D01*
X131443371Y-78796079D01*
X131443364Y-78796092D01*
X131367950Y-78978160D01*
X131367947Y-78978170D01*
X131329500Y-79171456D01*
X131329500Y-79171459D01*
X131329500Y-79368541D01*
X131329500Y-79368543D01*
X131329499Y-79368543D01*
X131367947Y-79561829D01*
X131367950Y-79561839D01*
X131443364Y-79743907D01*
X131443371Y-79743920D01*
X131552860Y-79907781D01*
X131552863Y-79907785D01*
X131692212Y-80047134D01*
X131695275Y-80049648D01*
X131696447Y-80051369D01*
X131696525Y-80051447D01*
X131696510Y-80051461D01*
X131734608Y-80107395D01*
X131736477Y-80177239D01*
X131700289Y-80237007D01*
X131637532Y-80267722D01*
X131616608Y-80269500D01*
X130813791Y-80269500D01*
X130746752Y-80249815D01*
X130700997Y-80197011D01*
X130691053Y-80127853D01*
X130714020Y-80071868D01*
X130742793Y-80032882D01*
X130765219Y-79968790D01*
X130787646Y-79904701D01*
X130787646Y-79904699D01*
X130790500Y-79874269D01*
X130790500Y-78665730D01*
X130787646Y-78635300D01*
X130787646Y-78635298D01*
X130742793Y-78507119D01*
X130742792Y-78507117D01*
X130732270Y-78492860D01*
X130662150Y-78397850D01*
X130552882Y-78317207D01*
X130552880Y-78317206D01*
X130424700Y-78272353D01*
X130394270Y-78269500D01*
X130394266Y-78269500D01*
X129185734Y-78269500D01*
X129185730Y-78269500D01*
X129155300Y-78272353D01*
X129155298Y-78272353D01*
X129027119Y-78317206D01*
X129027117Y-78317207D01*
X128917850Y-78397850D01*
X128837207Y-78507117D01*
X128837206Y-78507119D01*
X128792353Y-78635298D01*
X128792353Y-78635300D01*
X128789500Y-78665730D01*
X128789500Y-79874269D01*
X128792353Y-79904699D01*
X128792353Y-79904701D01*
X128837206Y-80032880D01*
X128837207Y-80032882D01*
X128865979Y-80071867D01*
X128889950Y-80137495D01*
X128874635Y-80205665D01*
X128824895Y-80254734D01*
X128766209Y-80269500D01*
X124624500Y-80269500D01*
X124557461Y-80249815D01*
X124511706Y-80197011D01*
X124500500Y-80145500D01*
X124500500Y-76290654D01*
X124520185Y-76223615D01*
X124572989Y-76177860D01*
X124642147Y-76167916D01*
X124705703Y-76196941D01*
X124727602Y-76221764D01*
X124770882Y-76286537D01*
X124770888Y-76286545D01*
X124868454Y-76384111D01*
X124868458Y-76384114D01*
X124983182Y-76460771D01*
X124983195Y-76460778D01*
X125110667Y-76513578D01*
X125110672Y-76513580D01*
X125110676Y-76513580D01*
X125110677Y-76513581D01*
X125246004Y-76540500D01*
X125246007Y-76540500D01*
X126183995Y-76540500D01*
X126275041Y-76522389D01*
X126319328Y-76513580D01*
X126446811Y-76460775D01*
X126561542Y-76384114D01*
X126659114Y-76286542D01*
X126735775Y-76171811D01*
X126788580Y-76044328D01*
X126805888Y-75957314D01*
X126815500Y-75908995D01*
X128644499Y-75908995D01*
X128671418Y-76044322D01*
X128671421Y-76044332D01*
X128724221Y-76171804D01*
X128724228Y-76171817D01*
X128800885Y-76286541D01*
X128800888Y-76286545D01*
X128898454Y-76384111D01*
X128898458Y-76384114D01*
X129013182Y-76460771D01*
X129013195Y-76460778D01*
X129140667Y-76513578D01*
X129140672Y-76513580D01*
X129140676Y-76513580D01*
X129140677Y-76513581D01*
X129276004Y-76540500D01*
X129276007Y-76540500D01*
X130513995Y-76540500D01*
X130605041Y-76522389D01*
X130649328Y-76513580D01*
X130776811Y-76460775D01*
X130891542Y-76384114D01*
X130989114Y-76286542D01*
X131065775Y-76171811D01*
X131118580Y-76044328D01*
X131135888Y-75957314D01*
X131145500Y-75908995D01*
X131145500Y-75771004D01*
X131118581Y-75635677D01*
X131118580Y-75635676D01*
X131118580Y-75635672D01*
X131099293Y-75589108D01*
X132564500Y-75589108D01*
X132564500Y-75720891D01*
X132598608Y-75848187D01*
X132603718Y-75857037D01*
X132664500Y-75962314D01*
X132757686Y-76055500D01*
X132871814Y-76121392D01*
X132999108Y-76155500D01*
X132999110Y-76155500D01*
X133130890Y-76155500D01*
X133130892Y-76155500D01*
X133258186Y-76121392D01*
X133372314Y-76055500D01*
X133465500Y-75962314D01*
X133526282Y-75857035D01*
X133576847Y-75808822D01*
X133645454Y-75795598D01*
X133710319Y-75821566D01*
X133741055Y-75857036D01*
X133798951Y-75957314D01*
X133892137Y-76050500D01*
X134006265Y-76116392D01*
X134133559Y-76150500D01*
X134133561Y-76150500D01*
X134265341Y-76150500D01*
X134265343Y-76150500D01*
X134392637Y-76116392D01*
X134506765Y-76050500D01*
X134599951Y-75957314D01*
X134665843Y-75843186D01*
X134699951Y-75715892D01*
X134699951Y-75584108D01*
X134665843Y-75456814D01*
X134599951Y-75342686D01*
X134506765Y-75249500D01*
X134410460Y-75193898D01*
X134410458Y-75193896D01*
X134392640Y-75183609D01*
X134392637Y-75183608D01*
X134265343Y-75149500D01*
X134133559Y-75149500D01*
X134006263Y-75183608D01*
X133892137Y-75249500D01*
X133892134Y-75249502D01*
X133798953Y-75342683D01*
X133798951Y-75342686D01*
X133738169Y-75447963D01*
X133687601Y-75496178D01*
X133618994Y-75509400D01*
X133554130Y-75483432D01*
X133523395Y-75447962D01*
X133465502Y-75347689D01*
X133465497Y-75347683D01*
X133372316Y-75254502D01*
X133372314Y-75254500D01*
X133267349Y-75193898D01*
X133258187Y-75188608D01*
X133174404Y-75166159D01*
X133130892Y-75154500D01*
X132999108Y-75154500D01*
X132871812Y-75188608D01*
X132757686Y-75254500D01*
X132757683Y-75254502D01*
X132664502Y-75347683D01*
X132664500Y-75347686D01*
X132598608Y-75461812D01*
X132564500Y-75589108D01*
X131099293Y-75589108D01*
X131066277Y-75509400D01*
X131065776Y-75508191D01*
X131065771Y-75508182D01*
X130989114Y-75393458D01*
X130989111Y-75393454D01*
X130891545Y-75295888D01*
X130843560Y-75263825D01*
X130798756Y-75210212D01*
X130790049Y-75140887D01*
X130820204Y-75077860D01*
X130824753Y-75073060D01*
X130870500Y-75027314D01*
X130936392Y-74913186D01*
X130970500Y-74785892D01*
X130970500Y-74654108D01*
X130936392Y-74526814D01*
X130870500Y-74412686D01*
X130777314Y-74319500D01*
X130696890Y-74273067D01*
X130663187Y-74253608D01*
X130599539Y-74236554D01*
X130535892Y-74219500D01*
X130404108Y-74219500D01*
X130276812Y-74253608D01*
X130162686Y-74319500D01*
X130162680Y-74319505D01*
X130159863Y-74322322D01*
X130156903Y-74323937D01*
X130156240Y-74324447D01*
X130156160Y-74324343D01*
X130098538Y-74355804D01*
X130028847Y-74350815D01*
X129972916Y-74308941D01*
X129952412Y-74266729D01*
X129931281Y-74187865D01*
X129855515Y-74056635D01*
X129748365Y-73949485D01*
X129669578Y-73903997D01*
X129617136Y-73873719D01*
X129543950Y-73854109D01*
X129470766Y-73834500D01*
X129319234Y-73834500D01*
X129172863Y-73873719D01*
X129041635Y-73949485D01*
X129041632Y-73949487D01*
X128934487Y-74056632D01*
X128934485Y-74056635D01*
X128858719Y-74187863D01*
X128819500Y-74334234D01*
X128819500Y-74485765D01*
X128858719Y-74632136D01*
X128871405Y-74654108D01*
X128934485Y-74763365D01*
X129041635Y-74870515D01*
X129041636Y-74870516D01*
X129041638Y-74870517D01*
X129164024Y-74941177D01*
X129212240Y-74991744D01*
X129225462Y-75060351D01*
X129199494Y-75125216D01*
X129145981Y-75163321D01*
X129146299Y-75164089D01*
X129142964Y-75165470D01*
X129142580Y-75165744D01*
X129141300Y-75166159D01*
X129013195Y-75219221D01*
X129013182Y-75219228D01*
X128898458Y-75295885D01*
X128898454Y-75295888D01*
X128800888Y-75393454D01*
X128800885Y-75393458D01*
X128724228Y-75508182D01*
X128724221Y-75508195D01*
X128671421Y-75635667D01*
X128671418Y-75635677D01*
X128644500Y-75771004D01*
X128644500Y-75771007D01*
X128644500Y-75908993D01*
X128644500Y-75908995D01*
X128644499Y-75908995D01*
X126815500Y-75908995D01*
X126815500Y-75771004D01*
X126788581Y-75635677D01*
X126788580Y-75635676D01*
X126788580Y-75635672D01*
X126769293Y-75589108D01*
X126735778Y-75508195D01*
X126735771Y-75508182D01*
X126659114Y-75393458D01*
X126659111Y-75393454D01*
X126561545Y-75295888D01*
X126561541Y-75295885D01*
X126446817Y-75219228D01*
X126446804Y-75219221D01*
X126319332Y-75166421D01*
X126319322Y-75166418D01*
X126183995Y-75139500D01*
X126183993Y-75139500D01*
X125246007Y-75139500D01*
X125246005Y-75139500D01*
X125110677Y-75166418D01*
X125110667Y-75166421D01*
X124983195Y-75219221D01*
X124983182Y-75219228D01*
X124868458Y-75295885D01*
X124868454Y-75295888D01*
X124770888Y-75393454D01*
X124770885Y-75393458D01*
X124727602Y-75458236D01*
X124673990Y-75503041D01*
X124604665Y-75511748D01*
X124541637Y-75481593D01*
X124504918Y-75422150D01*
X124500500Y-75389345D01*
X124500500Y-73574108D01*
X134004500Y-73574108D01*
X134004500Y-73705892D01*
X134006001Y-73711493D01*
X134038608Y-73833187D01*
X134057259Y-73865490D01*
X134104500Y-73947314D01*
X134197686Y-74040500D01*
X134311814Y-74106392D01*
X134439108Y-74140500D01*
X134439110Y-74140500D01*
X134570890Y-74140500D01*
X134570892Y-74140500D01*
X134698186Y-74106392D01*
X134812314Y-74040500D01*
X134905500Y-73947314D01*
X134971392Y-73833186D01*
X134996151Y-73740784D01*
X147113232Y-73740784D01*
X147113232Y-73872568D01*
X147130286Y-73936215D01*
X147147340Y-73999863D01*
X147158101Y-74018501D01*
X147213232Y-74113990D01*
X147306418Y-74207176D01*
X147405253Y-74264239D01*
X147409566Y-74266729D01*
X147420546Y-74273068D01*
X147547840Y-74307176D01*
X147547842Y-74307176D01*
X147679622Y-74307176D01*
X147679624Y-74307176D01*
X147806918Y-74273068D01*
X147921046Y-74207176D01*
X148014232Y-74113990D01*
X148080124Y-73999862D01*
X148114232Y-73872568D01*
X148114232Y-73865490D01*
X148133917Y-73798451D01*
X148186721Y-73752696D01*
X148238232Y-73741490D01*
X148245307Y-73741490D01*
X148245309Y-73741490D01*
X148372603Y-73707382D01*
X148486731Y-73641490D01*
X148579917Y-73548304D01*
X148643828Y-73437608D01*
X152964500Y-73437608D01*
X152964500Y-73569391D01*
X152998608Y-73696687D01*
X153024068Y-73740784D01*
X153064500Y-73810814D01*
X153157686Y-73904000D01*
X153271814Y-73969892D01*
X153399108Y-74004000D01*
X153399110Y-74004000D01*
X153530890Y-74004000D01*
X153530892Y-74004000D01*
X153658186Y-73969892D01*
X153758019Y-73912253D01*
X154340000Y-73912253D01*
X154340000Y-74124746D01*
X154373242Y-74334627D01*
X154373242Y-74334630D01*
X154438904Y-74536717D01*
X154535375Y-74726050D01*
X154574728Y-74780216D01*
X155207037Y-74147908D01*
X155224075Y-74211493D01*
X155289901Y-74325507D01*
X155382993Y-74418599D01*
X155497007Y-74484425D01*
X155560590Y-74501462D01*
X154928282Y-75133769D01*
X154928282Y-75133770D01*
X154982449Y-75173124D01*
X155171782Y-75269595D01*
X155373870Y-75335257D01*
X155583754Y-75368500D01*
X155796246Y-75368500D01*
X156006127Y-75335257D01*
X156006130Y-75335257D01*
X156208217Y-75269595D01*
X156397554Y-75173122D01*
X156451716Y-75133770D01*
X156451717Y-75133770D01*
X155819408Y-74501462D01*
X155882993Y-74484425D01*
X155997007Y-74418599D01*
X156090099Y-74325507D01*
X156155925Y-74211493D01*
X156172962Y-74147909D01*
X156805270Y-74780217D01*
X156805270Y-74780216D01*
X156844622Y-74726054D01*
X156941095Y-74536717D01*
X157006757Y-74334630D01*
X157006757Y-74334627D01*
X157040000Y-74124746D01*
X157040000Y-73912253D01*
X157006757Y-73702372D01*
X157006757Y-73702369D01*
X156941095Y-73500282D01*
X156844624Y-73310949D01*
X156805270Y-73256782D01*
X156805269Y-73256782D01*
X156172962Y-73889090D01*
X156155925Y-73825507D01*
X156090099Y-73711493D01*
X155997007Y-73618401D01*
X155882993Y-73552575D01*
X155819409Y-73535537D01*
X156451716Y-72903228D01*
X156397550Y-72863875D01*
X156208216Y-72767404D01*
X156032026Y-72710156D01*
X155974350Y-72670718D01*
X155947152Y-72606360D01*
X155959067Y-72537513D01*
X156006311Y-72486038D01*
X156022882Y-72477668D01*
X156187598Y-72409441D01*
X156359655Y-72294477D01*
X156505977Y-72148155D01*
X156620941Y-71976098D01*
X156700130Y-71784920D01*
X156740500Y-71581965D01*
X156740500Y-71375035D01*
X156740500Y-71375032D01*
X156740316Y-71374108D01*
X157169500Y-71374108D01*
X157169500Y-71505891D01*
X157203608Y-71633187D01*
X157218514Y-71659004D01*
X157269500Y-71747314D01*
X157362686Y-71840500D01*
X157476814Y-71906392D01*
X157604108Y-71940500D01*
X157604110Y-71940500D01*
X157735890Y-71940500D01*
X157735892Y-71940500D01*
X157863186Y-71906392D01*
X157977314Y-71840500D01*
X158070500Y-71747314D01*
X158136392Y-71633186D01*
X158170500Y-71505892D01*
X158170500Y-71374108D01*
X158136392Y-71246814D01*
X158070500Y-71132686D01*
X157977314Y-71039500D01*
X157920250Y-71006554D01*
X157863187Y-70973608D01*
X157786969Y-70953186D01*
X157735892Y-70939500D01*
X157604108Y-70939500D01*
X157476812Y-70973608D01*
X157362686Y-71039500D01*
X157362683Y-71039502D01*
X157269502Y-71132683D01*
X157269500Y-71132686D01*
X157203608Y-71246812D01*
X157169500Y-71374108D01*
X156740316Y-71374108D01*
X156700131Y-71172087D01*
X156700130Y-71172080D01*
X156620941Y-70980902D01*
X156505977Y-70808845D01*
X156505975Y-70808842D01*
X156359657Y-70662524D01*
X156205484Y-70559510D01*
X156187598Y-70547559D01*
X156177043Y-70543187D01*
X155996420Y-70468370D01*
X155996412Y-70468368D01*
X155793469Y-70428000D01*
X155793465Y-70428000D01*
X155586535Y-70428000D01*
X155586530Y-70428000D01*
X155383587Y-70468368D01*
X155383579Y-70468370D01*
X155192403Y-70547558D01*
X155020342Y-70662524D01*
X154874024Y-70808842D01*
X154759058Y-70980903D01*
X154679870Y-71172079D01*
X154679868Y-71172087D01*
X154639500Y-71375030D01*
X154639500Y-71581969D01*
X154679868Y-71784912D01*
X154679870Y-71784920D01*
X154759058Y-71976096D01*
X154874024Y-72148157D01*
X155020342Y-72294475D01*
X155192405Y-72409443D01*
X155272662Y-72442686D01*
X155357108Y-72477664D01*
X155411511Y-72521505D01*
X155433576Y-72587799D01*
X155416297Y-72655498D01*
X155365160Y-72703109D01*
X155347974Y-72710156D01*
X155171781Y-72767405D01*
X154982439Y-72863880D01*
X154928282Y-72903227D01*
X154928282Y-72903228D01*
X155560591Y-73535537D01*
X155497007Y-73552575D01*
X155382993Y-73618401D01*
X155289901Y-73711493D01*
X155224075Y-73825507D01*
X155207037Y-73889091D01*
X154574728Y-73256782D01*
X154574727Y-73256782D01*
X154535380Y-73310939D01*
X154438904Y-73500282D01*
X154373242Y-73702369D01*
X154373242Y-73702372D01*
X154340000Y-73912253D01*
X153758019Y-73912253D01*
X153772314Y-73904000D01*
X153865500Y-73810814D01*
X153931392Y-73696686D01*
X153965500Y-73569392D01*
X153965500Y-73437608D01*
X153931392Y-73310314D01*
X153865500Y-73196186D01*
X153772314Y-73103000D01*
X153715250Y-73070054D01*
X153658187Y-73037108D01*
X153594539Y-73020054D01*
X153530892Y-73003000D01*
X153399108Y-73003000D01*
X153271812Y-73037108D01*
X153157686Y-73103000D01*
X153157683Y-73103002D01*
X153064502Y-73196183D01*
X153064500Y-73196186D01*
X152998608Y-73310312D01*
X152964500Y-73437608D01*
X148643828Y-73437608D01*
X148645809Y-73434176D01*
X148679917Y-73306882D01*
X148679917Y-73286351D01*
X148682803Y-73273209D01*
X148693396Y-73253897D01*
X148699602Y-73232766D01*
X148709871Y-73223867D01*
X148716408Y-73211952D01*
X148735762Y-73201432D01*
X148752406Y-73187011D01*
X148768899Y-73183422D01*
X148777797Y-73178587D01*
X148787761Y-73179319D01*
X148803917Y-73175805D01*
X148811195Y-73175805D01*
X148811197Y-73175805D01*
X148938491Y-73141697D01*
X149052619Y-73075805D01*
X149145805Y-72982619D01*
X149211697Y-72868491D01*
X149245805Y-72741197D01*
X149245805Y-72609413D01*
X149211697Y-72482119D01*
X149145805Y-72367991D01*
X149052619Y-72274805D01*
X148995555Y-72241859D01*
X148938492Y-72208913D01*
X148874844Y-72191859D01*
X148811197Y-72174805D01*
X148679413Y-72174805D01*
X148552117Y-72208913D01*
X148437991Y-72274805D01*
X148437988Y-72274807D01*
X148344807Y-72367988D01*
X148344805Y-72367991D01*
X148278913Y-72482117D01*
X148244805Y-72609413D01*
X148244805Y-72616490D01*
X148225120Y-72683529D01*
X148172316Y-72729284D01*
X148120805Y-72740490D01*
X148113525Y-72740490D01*
X147986229Y-72774598D01*
X147872103Y-72840490D01*
X147872100Y-72840492D01*
X147778919Y-72933673D01*
X147778917Y-72933676D01*
X147713025Y-73047802D01*
X147678917Y-73175098D01*
X147678917Y-73182176D01*
X147659232Y-73249215D01*
X147606428Y-73294970D01*
X147554917Y-73306176D01*
X147547840Y-73306176D01*
X147420544Y-73340284D01*
X147306418Y-73406176D01*
X147306415Y-73406178D01*
X147213234Y-73499359D01*
X147213232Y-73499362D01*
X147147340Y-73613488D01*
X147123525Y-73702369D01*
X147113232Y-73740784D01*
X134996151Y-73740784D01*
X135005500Y-73705892D01*
X135005500Y-73574108D01*
X134971392Y-73446814D01*
X134905500Y-73332686D01*
X134812314Y-73239500D01*
X134755250Y-73206554D01*
X134698187Y-73173608D01*
X134611941Y-73150499D01*
X134570892Y-73139500D01*
X134439108Y-73139500D01*
X134311812Y-73173608D01*
X134197686Y-73239500D01*
X134197683Y-73239502D01*
X134104502Y-73332683D01*
X134104500Y-73332686D01*
X134038608Y-73446812D01*
X134010270Y-73552575D01*
X134004500Y-73574108D01*
X124500500Y-73574108D01*
X124500500Y-72844108D01*
X125794500Y-72844108D01*
X125794500Y-72975892D01*
X125810903Y-73037108D01*
X125828608Y-73103187D01*
X125849574Y-73139500D01*
X125894500Y-73217314D01*
X125987686Y-73310500D01*
X126101814Y-73376392D01*
X126229108Y-73410500D01*
X126229110Y-73410500D01*
X126360890Y-73410500D01*
X126360892Y-73410500D01*
X126488186Y-73376392D01*
X126602314Y-73310500D01*
X126695500Y-73217314D01*
X126761392Y-73103186D01*
X126795500Y-72975892D01*
X126795500Y-72844108D01*
X127619500Y-72844108D01*
X127619500Y-72975892D01*
X127635903Y-73037108D01*
X127653608Y-73103187D01*
X127674574Y-73139500D01*
X127719500Y-73217314D01*
X127812686Y-73310500D01*
X127926814Y-73376392D01*
X128054108Y-73410500D01*
X128054110Y-73410500D01*
X128185890Y-73410500D01*
X128185892Y-73410500D01*
X128313186Y-73376392D01*
X128427314Y-73310500D01*
X128520500Y-73217314D01*
X128586392Y-73103186D01*
X128620500Y-72975892D01*
X128620500Y-72844108D01*
X128586392Y-72716814D01*
X128567509Y-72684108D01*
X131059500Y-72684108D01*
X131059500Y-72815892D01*
X131067061Y-72844110D01*
X131093608Y-72943187D01*
X131112490Y-72975891D01*
X131159500Y-73057314D01*
X131252686Y-73150500D01*
X131366814Y-73216392D01*
X131494108Y-73250500D01*
X131494110Y-73250500D01*
X131625890Y-73250500D01*
X131625892Y-73250500D01*
X131753186Y-73216392D01*
X131867314Y-73150500D01*
X131960500Y-73057314D01*
X132026392Y-72943186D01*
X132060500Y-72815892D01*
X132060500Y-72684108D01*
X132026392Y-72556814D01*
X131962183Y-72445601D01*
X131945711Y-72377705D01*
X131968563Y-72311678D01*
X131981885Y-72295928D01*
X132030500Y-72247314D01*
X132096392Y-72133186D01*
X132130500Y-72005892D01*
X132130500Y-71994108D01*
X142489500Y-71994108D01*
X142489500Y-72125892D01*
X142491455Y-72133187D01*
X142523608Y-72253187D01*
X142536091Y-72274807D01*
X142589500Y-72367314D01*
X142682686Y-72460500D01*
X142796814Y-72526392D01*
X142924108Y-72560500D01*
X142924110Y-72560500D01*
X143055890Y-72560500D01*
X143055892Y-72560500D01*
X143183186Y-72526392D01*
X143297314Y-72460500D01*
X143390500Y-72367314D01*
X143456392Y-72253186D01*
X143490500Y-72125892D01*
X143490500Y-71994108D01*
X143456392Y-71866814D01*
X143390500Y-71752686D01*
X143326818Y-71689004D01*
X143293334Y-71627680D01*
X143290500Y-71601323D01*
X143290500Y-71287409D01*
X143310185Y-71220370D01*
X143362989Y-71174615D01*
X143432147Y-71164671D01*
X143476501Y-71180023D01*
X143556808Y-71226389D01*
X143556809Y-71226389D01*
X143556814Y-71226392D01*
X143684108Y-71260500D01*
X143684110Y-71260500D01*
X143815890Y-71260500D01*
X143815892Y-71260500D01*
X143943186Y-71226392D01*
X144057314Y-71160500D01*
X144127819Y-71089995D01*
X144189142Y-71056510D01*
X144258834Y-71061494D01*
X144314767Y-71103366D01*
X144339184Y-71168830D01*
X144339500Y-71177676D01*
X144339500Y-71571323D01*
X144319815Y-71638362D01*
X144303182Y-71659004D01*
X144239500Y-71722686D01*
X144173608Y-71836812D01*
X144154965Y-71906391D01*
X144139500Y-71964108D01*
X144139500Y-72095892D01*
X144149493Y-72133186D01*
X144173608Y-72223187D01*
X144190929Y-72253187D01*
X144239500Y-72337314D01*
X144332686Y-72430500D01*
X144446814Y-72496392D01*
X144574108Y-72530500D01*
X144574110Y-72530500D01*
X144705890Y-72530500D01*
X144705892Y-72530500D01*
X144833186Y-72496392D01*
X144947314Y-72430500D01*
X145040500Y-72337314D01*
X145106392Y-72223186D01*
X145140500Y-72095892D01*
X145140500Y-71964108D01*
X145106392Y-71836814D01*
X145040500Y-71722686D01*
X144976818Y-71659004D01*
X144962113Y-71632073D01*
X144945523Y-71606258D01*
X144944631Y-71600055D01*
X144943334Y-71597680D01*
X144940500Y-71571323D01*
X144940500Y-69248776D01*
X144960185Y-69181737D01*
X144976815Y-69161099D01*
X145772558Y-68365355D01*
X145833879Y-68331872D01*
X145903570Y-68336856D01*
X145959504Y-68378728D01*
X145980012Y-68420944D01*
X145981861Y-68427844D01*
X145981861Y-68427845D01*
X146015969Y-68555139D01*
X146081861Y-68669267D01*
X146175047Y-68762453D01*
X146289175Y-68828345D01*
X146416469Y-68862453D01*
X146416471Y-68862453D01*
X146506528Y-68862453D01*
X146573567Y-68882138D01*
X146594209Y-68898772D01*
X147233448Y-69538011D01*
X147289397Y-69593960D01*
X147289399Y-69593961D01*
X147289403Y-69593964D01*
X147318045Y-69610500D01*
X147357919Y-69633521D01*
X147434346Y-69654000D01*
X147513470Y-69654000D01*
X147620547Y-69654000D01*
X147687586Y-69673685D01*
X147733341Y-69726489D01*
X147743285Y-69795647D01*
X147727934Y-69840000D01*
X147713026Y-69865820D01*
X147713026Y-69865821D01*
X147713025Y-69865823D01*
X147713025Y-69865824D01*
X147694863Y-69933608D01*
X147678917Y-69993118D01*
X147678917Y-70124901D01*
X147713025Y-70252197D01*
X147736934Y-70293608D01*
X147778917Y-70366324D01*
X147872103Y-70459510D01*
X147986231Y-70525402D01*
X148113525Y-70559510D01*
X148120603Y-70559510D01*
X148187642Y-70579195D01*
X148233397Y-70631999D01*
X148244603Y-70683510D01*
X148244603Y-70690587D01*
X148261657Y-70754234D01*
X148278711Y-70817882D01*
X148306718Y-70866391D01*
X148344603Y-70932009D01*
X148437789Y-71025195D01*
X148536624Y-71082258D01*
X148550025Y-71089995D01*
X148551917Y-71091087D01*
X148679211Y-71125195D01*
X148679213Y-71125195D01*
X148810993Y-71125195D01*
X148810995Y-71125195D01*
X148938289Y-71091087D01*
X149052417Y-71025195D01*
X149145603Y-70932009D01*
X149211495Y-70817881D01*
X149245603Y-70690587D01*
X149245603Y-70558803D01*
X149211495Y-70431509D01*
X149209469Y-70428000D01*
X149157497Y-70337981D01*
X149152373Y-70329107D01*
X149145603Y-70317381D01*
X149112330Y-70284108D01*
X151799500Y-70284108D01*
X151799500Y-70415892D01*
X151811187Y-70459509D01*
X151833608Y-70543187D01*
X151854398Y-70579195D01*
X151899500Y-70657314D01*
X151992686Y-70750500D01*
X152106814Y-70816392D01*
X152234108Y-70850500D01*
X152234110Y-70850500D01*
X152365890Y-70850500D01*
X152365892Y-70850500D01*
X152493186Y-70816392D01*
X152607314Y-70750500D01*
X152700500Y-70657314D01*
X152766392Y-70543186D01*
X152800500Y-70415892D01*
X152800500Y-70284108D01*
X152766392Y-70156814D01*
X152700500Y-70042686D01*
X152607314Y-69949500D01*
X152520712Y-69899500D01*
X152493187Y-69883608D01*
X152382686Y-69854000D01*
X152365892Y-69849500D01*
X152234108Y-69849500D01*
X152106812Y-69883608D01*
X151992686Y-69949500D01*
X151992683Y-69949502D01*
X151899502Y-70042683D01*
X151899500Y-70042686D01*
X151833608Y-70156812D01*
X151815553Y-70224195D01*
X151799500Y-70284108D01*
X149112330Y-70284108D01*
X149052417Y-70224195D01*
X148995353Y-70191249D01*
X148938290Y-70158303D01*
X148874642Y-70141249D01*
X148810995Y-70124195D01*
X148810994Y-70124195D01*
X148803917Y-70124195D01*
X148736878Y-70104510D01*
X148691123Y-70051706D01*
X148684996Y-70035321D01*
X148679917Y-70018125D01*
X148679917Y-69993118D01*
X148645809Y-69865824D01*
X148623537Y-69827248D01*
X148619366Y-69813126D01*
X148619332Y-69792320D01*
X148614427Y-69772100D01*
X148619277Y-69758084D01*
X148619254Y-69743256D01*
X148630473Y-69725736D01*
X148637279Y-69706073D01*
X148648937Y-69696904D01*
X148656934Y-69684418D01*
X148675843Y-69675745D01*
X148692201Y-69662882D01*
X148712364Y-69658995D01*
X148720443Y-69655291D01*
X148726857Y-69656202D01*
X148738287Y-69654000D01*
X150856324Y-69654000D01*
X150923363Y-69673685D01*
X150944005Y-69690319D01*
X151007686Y-69754000D01*
X151121814Y-69819892D01*
X151249108Y-69854000D01*
X151249110Y-69854000D01*
X151380890Y-69854000D01*
X151380892Y-69854000D01*
X151508186Y-69819892D01*
X151622314Y-69754000D01*
X151715500Y-69660814D01*
X151781392Y-69546686D01*
X151815500Y-69419392D01*
X151815500Y-69287608D01*
X151781392Y-69160314D01*
X151715500Y-69046186D01*
X151622314Y-68953000D01*
X151528389Y-68898772D01*
X151508187Y-68887108D01*
X151416171Y-68862453D01*
X151380892Y-68853000D01*
X151249108Y-68853000D01*
X151121812Y-68887108D01*
X151007686Y-68953000D01*
X151007683Y-68953002D01*
X150944005Y-69016681D01*
X150882682Y-69050166D01*
X150856324Y-69053000D01*
X147649741Y-69053000D01*
X147582702Y-69033315D01*
X147562060Y-69016681D01*
X147019180Y-68473801D01*
X146985695Y-68412478D01*
X146982861Y-68386120D01*
X146982861Y-68296063D01*
X146982861Y-68296061D01*
X146948753Y-68168767D01*
X146891006Y-68068747D01*
X154639500Y-68068747D01*
X154639500Y-69808252D01*
X154651131Y-69866729D01*
X154651132Y-69866730D01*
X154695447Y-69933052D01*
X154761769Y-69977367D01*
X154761770Y-69977368D01*
X154820247Y-69988999D01*
X154820250Y-69989000D01*
X154820252Y-69989000D01*
X156559750Y-69989000D01*
X156559751Y-69988999D01*
X156574568Y-69986052D01*
X156618229Y-69977368D01*
X156618229Y-69977367D01*
X156618231Y-69977367D01*
X156684552Y-69933052D01*
X156728867Y-69866731D01*
X156728867Y-69866729D01*
X156728868Y-69866729D01*
X156740499Y-69808252D01*
X156740500Y-69808250D01*
X156740500Y-68068749D01*
X156740499Y-68068747D01*
X156728868Y-68010270D01*
X156728867Y-68010269D01*
X156684552Y-67943947D01*
X156618230Y-67899632D01*
X156618229Y-67899631D01*
X156559752Y-67888000D01*
X156559748Y-67888000D01*
X154820252Y-67888000D01*
X154820247Y-67888000D01*
X154761770Y-67899631D01*
X154761769Y-67899632D01*
X154695447Y-67943947D01*
X154651132Y-68010269D01*
X154651131Y-68010270D01*
X154639500Y-68068747D01*
X146891006Y-68068747D01*
X146882861Y-68054639D01*
X146789675Y-67961453D01*
X146728080Y-67925891D01*
X146675548Y-67895561D01*
X146608952Y-67877717D01*
X146548253Y-67861453D01*
X146548252Y-67861453D01*
X146541176Y-67861453D01*
X146474137Y-67841768D01*
X146428382Y-67788964D01*
X146417176Y-67737453D01*
X146417176Y-67730378D01*
X146417176Y-67730376D01*
X146383068Y-67603082D01*
X146317176Y-67488954D01*
X146223990Y-67395768D01*
X146161172Y-67359500D01*
X146109863Y-67329876D01*
X146013570Y-67304075D01*
X145982568Y-67295768D01*
X145982567Y-67295768D01*
X145975490Y-67295768D01*
X145908451Y-67276083D01*
X145862696Y-67223279D01*
X145854585Y-67199298D01*
X145851490Y-67185705D01*
X145851490Y-67164691D01*
X145817382Y-67037397D01*
X145809710Y-67024108D01*
X153074500Y-67024108D01*
X153074500Y-67155892D01*
X153091554Y-67219539D01*
X153108608Y-67283187D01*
X153141554Y-67340250D01*
X153174500Y-67397314D01*
X153267686Y-67490500D01*
X153381814Y-67556392D01*
X153509108Y-67590500D01*
X153509110Y-67590500D01*
X153640890Y-67590500D01*
X153640892Y-67590500D01*
X153768186Y-67556392D01*
X153882314Y-67490500D01*
X153975500Y-67397314D01*
X154041392Y-67283186D01*
X154075500Y-67155892D01*
X154075500Y-67024108D01*
X154041392Y-66896814D01*
X153975500Y-66782686D01*
X153882314Y-66689500D01*
X153824091Y-66655885D01*
X153768187Y-66623608D01*
X153704539Y-66606554D01*
X153640892Y-66589500D01*
X153509108Y-66589500D01*
X153381812Y-66623608D01*
X153267686Y-66689500D01*
X153267683Y-66689502D01*
X153174502Y-66782683D01*
X153174500Y-66782686D01*
X153108608Y-66896812D01*
X153087285Y-66976392D01*
X153074500Y-67024108D01*
X145809710Y-67024108D01*
X145751490Y-66923269D01*
X145658304Y-66830083D01*
X145601240Y-66797137D01*
X145544177Y-66764191D01*
X145480529Y-66747137D01*
X145416882Y-66730083D01*
X145285098Y-66730083D01*
X145157802Y-66764191D01*
X145043676Y-66830083D01*
X145043673Y-66830085D01*
X144950492Y-66923266D01*
X144950490Y-66923269D01*
X144884598Y-67037395D01*
X144850490Y-67164691D01*
X144850490Y-67254749D01*
X144830805Y-67321788D01*
X144814171Y-67342430D01*
X144441808Y-67714792D01*
X144380485Y-67748277D01*
X144310793Y-67743293D01*
X144254860Y-67701421D01*
X144241358Y-67673548D01*
X144239500Y-67674318D01*
X144236392Y-67666814D01*
X144227062Y-67650654D01*
X144170500Y-67552686D01*
X144077314Y-67459500D01*
X144020250Y-67426554D01*
X143963187Y-67393608D01*
X143899539Y-67376554D01*
X143835892Y-67359500D01*
X143704108Y-67359500D01*
X143576812Y-67393608D01*
X143462686Y-67459500D01*
X143462683Y-67459502D01*
X143369502Y-67552683D01*
X143369500Y-67552686D01*
X143303608Y-67666812D01*
X143282896Y-67744114D01*
X143269500Y-67794108D01*
X143269500Y-67925892D01*
X143279029Y-67961455D01*
X143303608Y-68053187D01*
X143312592Y-68068747D01*
X143369500Y-68167314D01*
X143462686Y-68260500D01*
X143576814Y-68326392D01*
X143584318Y-68329500D01*
X143582950Y-68332801D01*
X143628594Y-68360419D01*
X143659328Y-68423166D01*
X143651259Y-68492568D01*
X143624793Y-68531808D01*
X142805489Y-69351113D01*
X142749541Y-69407060D01*
X142749535Y-69407068D01*
X142709982Y-69475577D01*
X142709979Y-69475582D01*
X142689500Y-69552012D01*
X142689500Y-71601323D01*
X142669815Y-71668362D01*
X142653182Y-71689004D01*
X142589500Y-71752686D01*
X142523608Y-71866812D01*
X142521653Y-71874110D01*
X142489500Y-71994108D01*
X132130500Y-71994108D01*
X132130500Y-71874108D01*
X132096392Y-71746814D01*
X132030500Y-71632686D01*
X131937314Y-71539500D01*
X131879100Y-71505890D01*
X131823187Y-71473608D01*
X131759539Y-71456554D01*
X131695892Y-71439500D01*
X131564108Y-71439500D01*
X131436812Y-71473608D01*
X131322686Y-71539500D01*
X131322683Y-71539502D01*
X131229502Y-71632683D01*
X131229500Y-71632686D01*
X131163608Y-71746812D01*
X131139493Y-71836812D01*
X131129500Y-71874108D01*
X131129500Y-72005892D01*
X131161653Y-72125891D01*
X131163609Y-72133188D01*
X131163609Y-72133189D01*
X131227814Y-72244395D01*
X131244287Y-72312295D01*
X131221434Y-72378322D01*
X131208110Y-72394075D01*
X131159500Y-72442686D01*
X131093608Y-72556812D01*
X131077618Y-72616490D01*
X131059500Y-72684108D01*
X128567509Y-72684108D01*
X128520500Y-72602686D01*
X128427314Y-72509500D01*
X128342439Y-72460497D01*
X128313187Y-72443608D01*
X128249539Y-72426554D01*
X128185892Y-72409500D01*
X128054108Y-72409500D01*
X127926812Y-72443608D01*
X127812686Y-72509500D01*
X127812683Y-72509502D01*
X127719502Y-72602683D01*
X127719500Y-72602686D01*
X127653608Y-72716812D01*
X127640052Y-72767405D01*
X127619500Y-72844108D01*
X126795500Y-72844108D01*
X126761392Y-72716814D01*
X126695500Y-72602686D01*
X126602314Y-72509500D01*
X126517439Y-72460497D01*
X126488187Y-72443608D01*
X126424539Y-72426554D01*
X126360892Y-72409500D01*
X126229108Y-72409500D01*
X126101812Y-72443608D01*
X125987686Y-72509500D01*
X125987683Y-72509502D01*
X125894502Y-72602683D01*
X125894500Y-72602686D01*
X125828608Y-72716812D01*
X125815052Y-72767405D01*
X125794500Y-72844108D01*
X124500500Y-72844108D01*
X124500500Y-71264108D01*
X135257000Y-71264108D01*
X135257000Y-71395891D01*
X135291108Y-71523187D01*
X135300527Y-71539500D01*
X135357000Y-71637314D01*
X135450186Y-71730500D01*
X135564314Y-71796392D01*
X135691608Y-71830500D01*
X135691610Y-71830500D01*
X135823390Y-71830500D01*
X135823392Y-71830500D01*
X135950686Y-71796392D01*
X136064814Y-71730500D01*
X136158000Y-71637314D01*
X136223892Y-71523186D01*
X136258000Y-71395892D01*
X136258000Y-71264108D01*
X136223892Y-71136814D01*
X136158000Y-71022686D01*
X136064814Y-70929500D01*
X136007750Y-70896554D01*
X135950687Y-70863608D01*
X135887039Y-70846554D01*
X135823392Y-70829500D01*
X135691608Y-70829500D01*
X135564312Y-70863608D01*
X135450186Y-70929500D01*
X135450183Y-70929502D01*
X135357002Y-71022683D01*
X135357000Y-71022686D01*
X135291108Y-71136812D01*
X135257000Y-71264108D01*
X124500500Y-71264108D01*
X124500500Y-70334108D01*
X125794500Y-70334108D01*
X125794500Y-70465892D01*
X125795164Y-70468370D01*
X125828608Y-70593187D01*
X125851017Y-70631999D01*
X125894500Y-70707314D01*
X125987686Y-70800500D01*
X126101814Y-70866392D01*
X126229108Y-70900500D01*
X126229110Y-70900500D01*
X126360890Y-70900500D01*
X126360892Y-70900500D01*
X126488186Y-70866392D01*
X126602314Y-70800500D01*
X126695500Y-70707314D01*
X126761392Y-70593186D01*
X126795500Y-70465892D01*
X126795500Y-70334108D01*
X127619500Y-70334108D01*
X127619500Y-70465892D01*
X127620164Y-70468370D01*
X127653608Y-70593187D01*
X127676017Y-70631999D01*
X127719500Y-70707314D01*
X127812686Y-70800500D01*
X127926814Y-70866392D01*
X128054108Y-70900500D01*
X128054110Y-70900500D01*
X128185890Y-70900500D01*
X128185892Y-70900500D01*
X128313186Y-70866392D01*
X128427314Y-70800500D01*
X128520500Y-70707314D01*
X128586392Y-70593186D01*
X128620500Y-70465892D01*
X128620500Y-70334108D01*
X128586392Y-70206814D01*
X128520500Y-70092686D01*
X128427314Y-69999500D01*
X128370250Y-69966554D01*
X128313187Y-69933608D01*
X128249539Y-69916554D01*
X128185892Y-69899500D01*
X128054108Y-69899500D01*
X127926812Y-69933608D01*
X127812686Y-69999500D01*
X127812683Y-69999502D01*
X127719502Y-70092683D01*
X127719500Y-70092686D01*
X127653608Y-70206812D01*
X127623983Y-70317378D01*
X127619500Y-70334108D01*
X126795500Y-70334108D01*
X126761392Y-70206814D01*
X126695500Y-70092686D01*
X126602314Y-69999500D01*
X126545250Y-69966554D01*
X126488187Y-69933608D01*
X126424539Y-69916554D01*
X126360892Y-69899500D01*
X126229108Y-69899500D01*
X126101812Y-69933608D01*
X125987686Y-69999500D01*
X125987683Y-69999502D01*
X125894502Y-70092683D01*
X125894500Y-70092686D01*
X125828608Y-70206812D01*
X125798983Y-70317378D01*
X125794500Y-70334108D01*
X124500500Y-70334108D01*
X124500500Y-67650654D01*
X124520185Y-67583615D01*
X124572989Y-67537860D01*
X124642147Y-67527916D01*
X124705703Y-67556941D01*
X124727602Y-67581764D01*
X124770882Y-67646537D01*
X124770888Y-67646545D01*
X124868454Y-67744111D01*
X124868458Y-67744114D01*
X124983182Y-67820771D01*
X124983195Y-67820778D01*
X125110667Y-67873578D01*
X125110672Y-67873580D01*
X125110676Y-67873580D01*
X125110677Y-67873581D01*
X125246004Y-67900500D01*
X125246007Y-67900500D01*
X126183995Y-67900500D01*
X126307609Y-67875911D01*
X126319328Y-67873580D01*
X126446811Y-67820775D01*
X126561542Y-67744114D01*
X126659114Y-67646542D01*
X126735775Y-67531811D01*
X126788580Y-67404328D01*
X126803390Y-67329876D01*
X126815500Y-67268995D01*
X128644499Y-67268995D01*
X128671418Y-67404322D01*
X128671421Y-67404332D01*
X128724221Y-67531804D01*
X128724228Y-67531817D01*
X128800885Y-67646541D01*
X128800888Y-67646545D01*
X128898454Y-67744111D01*
X128898458Y-67744114D01*
X129013182Y-67820771D01*
X129013195Y-67820778D01*
X129146299Y-67875911D01*
X129145550Y-67877717D01*
X129196441Y-67911052D01*
X129224911Y-67974858D01*
X129214365Y-68043927D01*
X129168152Y-68096331D01*
X129164025Y-68098822D01*
X129041635Y-68169485D01*
X129041632Y-68169487D01*
X128934487Y-68276632D01*
X128934485Y-68276635D01*
X128858719Y-68407863D01*
X128819500Y-68554234D01*
X128819500Y-68705765D01*
X128858719Y-68852136D01*
X128885645Y-68898772D01*
X128934485Y-68983365D01*
X129041635Y-69090515D01*
X129134464Y-69144110D01*
X129163882Y-69161095D01*
X129172865Y-69166281D01*
X129319234Y-69205500D01*
X129319236Y-69205500D01*
X129470764Y-69205500D01*
X129470766Y-69205500D01*
X129617135Y-69166281D01*
X129655540Y-69144108D01*
X134004500Y-69144108D01*
X134004500Y-69275891D01*
X134038608Y-69403187D01*
X134071554Y-69460250D01*
X134104500Y-69517314D01*
X134197686Y-69610500D01*
X134311814Y-69676392D01*
X134439108Y-69710500D01*
X134439110Y-69710500D01*
X134570890Y-69710500D01*
X134570892Y-69710500D01*
X134698186Y-69676392D01*
X134812314Y-69610500D01*
X134905500Y-69517314D01*
X134971392Y-69403186D01*
X135005500Y-69275892D01*
X135005500Y-69144108D01*
X134971392Y-69016814D01*
X134905500Y-68902686D01*
X134812314Y-68809500D01*
X134749562Y-68773270D01*
X134698187Y-68743608D01*
X134611941Y-68720499D01*
X134570892Y-68709500D01*
X134439108Y-68709500D01*
X134311812Y-68743608D01*
X134197686Y-68809500D01*
X134197683Y-68809502D01*
X134104502Y-68902683D01*
X134104500Y-68902686D01*
X134038608Y-69016812D01*
X134004500Y-69144108D01*
X129655540Y-69144108D01*
X129748365Y-69090515D01*
X129855515Y-68983365D01*
X129931281Y-68852135D01*
X129952413Y-68773268D01*
X129988777Y-68713609D01*
X130051623Y-68683080D01*
X130120999Y-68691374D01*
X130159868Y-68717682D01*
X130162686Y-68720500D01*
X130276814Y-68786392D01*
X130404108Y-68820500D01*
X130404110Y-68820500D01*
X130535890Y-68820500D01*
X130535892Y-68820500D01*
X130663186Y-68786392D01*
X130777314Y-68720500D01*
X130870500Y-68627314D01*
X130936392Y-68513186D01*
X130970500Y-68385892D01*
X130970500Y-68254108D01*
X130936392Y-68126814D01*
X130870500Y-68012686D01*
X130824771Y-67966957D01*
X130791286Y-67905634D01*
X130796270Y-67835942D01*
X130838142Y-67780009D01*
X130843562Y-67776174D01*
X130875925Y-67754548D01*
X130891542Y-67744114D01*
X130989114Y-67646542D01*
X131065775Y-67531811D01*
X131118580Y-67404328D01*
X131133390Y-67329876D01*
X131145500Y-67268995D01*
X131145500Y-67262027D01*
X134157419Y-67262027D01*
X134157419Y-67393811D01*
X134160237Y-67404328D01*
X134191527Y-67521106D01*
X134209760Y-67552686D01*
X134257419Y-67635233D01*
X134350605Y-67728419D01*
X134464733Y-67794311D01*
X134592027Y-67828419D01*
X134592029Y-67828419D01*
X134723809Y-67828419D01*
X134723811Y-67828419D01*
X134851105Y-67794311D01*
X134965233Y-67728419D01*
X135058419Y-67635233D01*
X135124311Y-67521105D01*
X135158419Y-67393811D01*
X135158419Y-67262027D01*
X135124311Y-67134733D01*
X135058419Y-67020605D01*
X134965233Y-66927419D01*
X134908169Y-66894473D01*
X134851106Y-66861527D01*
X134787458Y-66844473D01*
X134723811Y-66827419D01*
X134592027Y-66827419D01*
X134464731Y-66861527D01*
X134350605Y-66927419D01*
X134350602Y-66927421D01*
X134257421Y-67020602D01*
X134257419Y-67020605D01*
X134191527Y-67134731D01*
X134174227Y-67199298D01*
X134157419Y-67262027D01*
X131145500Y-67262027D01*
X131145500Y-67131004D01*
X131118581Y-66995677D01*
X131118580Y-66995676D01*
X131118580Y-66995672D01*
X131083301Y-66910500D01*
X131065778Y-66868195D01*
X131065771Y-66868182D01*
X130989114Y-66753458D01*
X130989111Y-66753454D01*
X130891545Y-66655888D01*
X130891541Y-66655885D01*
X130776817Y-66579228D01*
X130776804Y-66579221D01*
X130707565Y-66550542D01*
X130649332Y-66526421D01*
X130649322Y-66526418D01*
X130513995Y-66499500D01*
X130513993Y-66499500D01*
X129276007Y-66499500D01*
X129276005Y-66499500D01*
X129140677Y-66526418D01*
X129140667Y-66526421D01*
X129013195Y-66579221D01*
X129013182Y-66579228D01*
X128898458Y-66655885D01*
X128898454Y-66655888D01*
X128800888Y-66753454D01*
X128800885Y-66753458D01*
X128724228Y-66868182D01*
X128724221Y-66868195D01*
X128671421Y-66995667D01*
X128671418Y-66995677D01*
X128644500Y-67131004D01*
X128644500Y-67131007D01*
X128644500Y-67268993D01*
X128644500Y-67268995D01*
X128644499Y-67268995D01*
X126815500Y-67268995D01*
X126815500Y-67131004D01*
X126788581Y-66995677D01*
X126788580Y-66995676D01*
X126788580Y-66995672D01*
X126753301Y-66910500D01*
X126735778Y-66868195D01*
X126735771Y-66868182D01*
X126659114Y-66753458D01*
X126659111Y-66753454D01*
X126561545Y-66655888D01*
X126561541Y-66655885D01*
X126446817Y-66579228D01*
X126446804Y-66579221D01*
X126319332Y-66526421D01*
X126319322Y-66526418D01*
X126183995Y-66499500D01*
X126183993Y-66499500D01*
X125246007Y-66499500D01*
X125246005Y-66499500D01*
X125110677Y-66526418D01*
X125110667Y-66526421D01*
X124983195Y-66579221D01*
X124983182Y-66579228D01*
X124868458Y-66655885D01*
X124868454Y-66655888D01*
X124770888Y-66753454D01*
X124770885Y-66753458D01*
X124727602Y-66818236D01*
X124673990Y-66863041D01*
X124604665Y-66871748D01*
X124541637Y-66841593D01*
X124504918Y-66782150D01*
X124500500Y-66749345D01*
X124500500Y-66444108D01*
X155539500Y-66444108D01*
X155539500Y-66575891D01*
X155573608Y-66703187D01*
X155589137Y-66730083D01*
X155639500Y-66817314D01*
X155732686Y-66910500D01*
X155846814Y-66976392D01*
X155974108Y-67010500D01*
X155974110Y-67010500D01*
X156105890Y-67010500D01*
X156105892Y-67010500D01*
X156233186Y-66976392D01*
X156347314Y-66910500D01*
X156440500Y-66817314D01*
X156506392Y-66703186D01*
X156540500Y-66575892D01*
X156540500Y-66444108D01*
X156506392Y-66316814D01*
X156440500Y-66202686D01*
X156347314Y-66109500D01*
X156290250Y-66076554D01*
X156233187Y-66043608D01*
X156169539Y-66026554D01*
X156105892Y-66009500D01*
X155974108Y-66009500D01*
X155846812Y-66043608D01*
X155732686Y-66109500D01*
X155732683Y-66109502D01*
X155639502Y-66202683D01*
X155639500Y-66202686D01*
X155573608Y-66316812D01*
X155539500Y-66444108D01*
X124500500Y-66444108D01*
X124500500Y-63154500D01*
X124520185Y-63087461D01*
X124572989Y-63041706D01*
X124624500Y-63030500D01*
X129076608Y-63030500D01*
X129143647Y-63050185D01*
G37*
%TD.AperFunction*%
%TD*%
%TA.AperFunction,NonConductor*%
G36*
X133758008Y-63034047D02*
G01*
X133770553Y-63032970D01*
X133790898Y-63043705D01*
X133812966Y-63050185D01*
X133821209Y-63059699D01*
X133832348Y-63065576D01*
X133843660Y-63085608D01*
X133858721Y-63102989D01*
X133860512Y-63115449D01*
X133866705Y-63126415D01*
X133865391Y-63149381D01*
X133868665Y-63172147D01*
X133863339Y-63185268D01*
X133862716Y-63196171D01*
X133846245Y-63227386D01*
X133758140Y-63348650D01*
X133665244Y-63530968D01*
X133602010Y-63725581D01*
X133572124Y-63914269D01*
X133542194Y-63977403D01*
X133482883Y-64014334D01*
X133413020Y-64013336D01*
X133354788Y-63974726D01*
X133328034Y-63919061D01*
X133318409Y-63870674D01*
X133292051Y-63738165D01*
X133247248Y-63630000D01*
X133216635Y-63556092D01*
X133216628Y-63556079D01*
X133107139Y-63392218D01*
X133107136Y-63392214D01*
X132967787Y-63252865D01*
X132964725Y-63250352D01*
X132963552Y-63248630D01*
X132963475Y-63248553D01*
X132963489Y-63248538D01*
X132925392Y-63192605D01*
X132923523Y-63122761D01*
X132959711Y-63062993D01*
X133022468Y-63032278D01*
X133043392Y-63030500D01*
X133745927Y-63030500D01*
X133758008Y-63034047D01*
G37*
%TD.AperFunction*%
%TA.AperFunction,NonConductor*%
G36*
X136763647Y-63050185D02*
G01*
X136809402Y-63102989D01*
X136819346Y-63172147D01*
X136790321Y-63235703D01*
X136775275Y-63250352D01*
X136772212Y-63252865D01*
X136632863Y-63392214D01*
X136632860Y-63392218D01*
X136523371Y-63556079D01*
X136523364Y-63556092D01*
X136447950Y-63738160D01*
X136447947Y-63738170D01*
X136411965Y-63919062D01*
X136379580Y-63980973D01*
X136318864Y-64015547D01*
X136249094Y-64011806D01*
X136192423Y-63970940D01*
X136167875Y-63914268D01*
X136137990Y-63725582D01*
X136074755Y-63530968D01*
X135981859Y-63348650D01*
X135893755Y-63227386D01*
X135870275Y-63161580D01*
X135886100Y-63093526D01*
X135936206Y-63044831D01*
X135994073Y-63030500D01*
X136696608Y-63030500D01*
X136763647Y-63050185D01*
G37*
%TD.AperFunction*%
%TA.AperFunction,NonConductor*%
G36*
X144277374Y-68831683D02*
G01*
X144333307Y-68873555D01*
X144357724Y-68939019D01*
X144353815Y-68979958D01*
X144339500Y-69033381D01*
X144339500Y-70342324D01*
X144319815Y-70409363D01*
X144267011Y-70455118D01*
X144197853Y-70465062D01*
X144134297Y-70436037D01*
X144127819Y-70430005D01*
X144057316Y-70359502D01*
X144057314Y-70359500D01*
X143984357Y-70317378D01*
X143943187Y-70293608D01*
X143879539Y-70276554D01*
X143815892Y-70259500D01*
X143684108Y-70259500D01*
X143556814Y-70293608D01*
X143556813Y-70293608D01*
X143556811Y-70293609D01*
X143556810Y-70293609D01*
X143476500Y-70339977D01*
X143408600Y-70356450D01*
X143342573Y-70333598D01*
X143299382Y-70278676D01*
X143290500Y-70232590D01*
X143290500Y-69767405D01*
X143310185Y-69700366D01*
X143326814Y-69679729D01*
X144146360Y-68860183D01*
X144207682Y-68826699D01*
X144277374Y-68831683D01*
G37*
%TD.AperFunction*%
M02*
