%TF.GenerationSoftware,KiCad,Pcbnew,9.0.1*%
%TF.CreationDate,2025-04-29T19:20:25+09:00*%
%TF.ProjectId,ATtiny328P.kicad_pcb,41547469-6e79-4333-9238-502e6b696361,rev?*%
%TF.SameCoordinates,Original*%
%TF.FileFunction,Soldermask,Bot*%
%TF.FilePolarity,Negative*%
%FSLAX46Y46*%
G04 Gerber Fmt 4.6, Leading zero omitted, Abs format (unit mm)*
G04 Created by KiCad (PCBNEW 9.0.1) date 2025-04-29 19:20:25*
%MOMM*%
%LPD*%
G01*
G04 APERTURE LIST*
G04 Aperture macros list*
%AMRoundRect*
0 Rectangle with rounded corners*
0 $1 Rounding radius*
0 $2 $3 $4 $5 $6 $7 $8 $9 X,Y pos of 4 corners*
0 Add a 4 corners polygon primitive as box body*
4,1,4,$2,$3,$4,$5,$6,$7,$8,$9,$2,$3,0*
0 Add four circle primitives for the rounded corners*
1,1,$1+$1,$2,$3*
1,1,$1+$1,$4,$5*
1,1,$1+$1,$6,$7*
1,1,$1+$1,$8,$9*
0 Add four rect primitives between the rounded corners*
20,1,$1+$1,$2,$3,$4,$5,0*
20,1,$1+$1,$4,$5,$6,$7,0*
20,1,$1+$1,$6,$7,$8,$9,0*
20,1,$1+$1,$8,$9,$2,$3,0*%
G04 Aperture macros list end*
%ADD10RoundRect,0.150000X-0.687500X-0.150000X0.687500X-0.150000X0.687500X0.150000X-0.687500X0.150000X0*%
%ADD11R,2.100000X3.300000*%
%ADD12RoundRect,0.237500X0.250000X0.237500X-0.250000X0.237500X-0.250000X-0.237500X0.250000X-0.237500X0*%
%ADD13R,0.510000X0.600000*%
%ADD14R,0.700000X0.900000*%
%ADD15RoundRect,0.237500X0.300000X0.237500X-0.300000X0.237500X-0.300000X-0.237500X0.300000X-0.237500X0*%
%ADD16RoundRect,0.237500X0.237500X-0.300000X0.237500X0.300000X-0.237500X0.300000X-0.237500X-0.300000X0*%
%ADD17RoundRect,0.075000X-0.075000X0.650000X-0.075000X-0.650000X0.075000X-0.650000X0.075000X0.650000X0*%
%ADD18RoundRect,0.237500X0.237500X-0.250000X0.237500X0.250000X-0.237500X0.250000X-0.237500X-0.250000X0*%
%ADD19RoundRect,0.250000X0.550000X-0.550000X0.550000X0.550000X-0.550000X0.550000X-0.550000X-0.550000X0*%
%ADD20C,1.600000*%
%ADD21R,1.700000X1.700000*%
%ADD22C,1.700000*%
%ADD23C,0.650000*%
%ADD24O,2.100000X1.000000*%
%ADD25O,1.800000X1.000000*%
G04 APERTURE END LIST*
D10*
%TO.C,U2*%
X133120000Y-73330000D03*
X133120000Y-72330000D03*
X133120000Y-71330000D03*
X133120000Y-70330000D03*
X133120000Y-69330000D03*
X138395000Y-69330000D03*
X138395000Y-70330000D03*
X138395000Y-71330000D03*
X138395000Y-72330000D03*
X138395000Y-73330000D03*
D11*
X135757500Y-71330000D03*
%TD*%
D12*
%TO.C,R4*%
X138400000Y-67720000D03*
X136575000Y-67720000D03*
%TD*%
%TO.C,R1*%
X128120000Y-70400000D03*
X126295000Y-70400000D03*
%TD*%
D13*
%TO.C,SW2*%
X157670000Y-70440000D03*
X157670000Y-72440000D03*
X157670000Y-71440000D03*
D14*
X159025000Y-68440000D03*
X159025000Y-74440000D03*
%TD*%
D15*
%TO.C,C2*%
X138390000Y-74950000D03*
X136665000Y-74950000D03*
%TD*%
D16*
%TO.C,C1*%
X141070000Y-68350000D03*
X141070000Y-66625000D03*
%TD*%
D17*
%TO.C,U3*%
X142760000Y-69450000D03*
X143260000Y-69450000D03*
X143760000Y-69450000D03*
X144260000Y-69450000D03*
X144760000Y-69450000D03*
X144760000Y-73850000D03*
X144260000Y-73850000D03*
X143760000Y-73850000D03*
X143260000Y-73850000D03*
X142760000Y-73850000D03*
%TD*%
D18*
%TO.C,R5*%
X152300000Y-70350000D03*
X152300000Y-68525000D03*
%TD*%
D12*
%TO.C,R2*%
X128120000Y-72910000D03*
X126295000Y-72910000D03*
%TD*%
D19*
%TO.C,J2*%
X129790000Y-79270000D03*
D20*
X132330000Y-79270000D03*
X134870000Y-79270000D03*
X137410000Y-79270000D03*
X139950000Y-79270000D03*
X142490000Y-79270000D03*
X145030000Y-79270000D03*
X147570000Y-79270000D03*
X150110000Y-79270000D03*
X152650000Y-79270000D03*
X155190000Y-79270000D03*
X157730000Y-79270000D03*
X157730000Y-64030000D03*
X155190000Y-64030000D03*
X152650000Y-64030000D03*
X150110000Y-64030000D03*
X147570000Y-64030000D03*
X145030000Y-64030000D03*
X142490000Y-64030000D03*
X139950000Y-64030000D03*
X137410000Y-64030000D03*
X134870000Y-64030000D03*
X132330000Y-64030000D03*
X129790000Y-64030000D03*
%TD*%
D21*
%TO.C,J3*%
X155690000Y-68938500D03*
D22*
X155690000Y-71478500D03*
X155690000Y-74018500D03*
%TD*%
D23*
%TO.C,J1*%
X129395000Y-68630000D03*
X129395000Y-74410000D03*
D24*
X129895000Y-67200000D03*
D25*
X125715000Y-67200000D03*
D24*
X129895000Y-75840000D03*
D25*
X125715000Y-75840000D03*
%TD*%
D10*
%TO.C,U2*%
X133120000Y-92560000D03*
X133120000Y-91560000D03*
X133120000Y-90560000D03*
X133120000Y-89560000D03*
X133120000Y-88560000D03*
X138395000Y-88560000D03*
X138395000Y-89560000D03*
X138395000Y-90560000D03*
X138395000Y-91560000D03*
X138395000Y-92560000D03*
D11*
X135757500Y-90560000D03*
%TD*%
D12*
%TO.C,R4*%
X138400000Y-86950000D03*
X136575000Y-86950000D03*
%TD*%
%TO.C,R1*%
X128120000Y-89630000D03*
X126295000Y-89630000D03*
%TD*%
D13*
%TO.C,SW2*%
X157670000Y-89670000D03*
X157670000Y-91670000D03*
X157670000Y-90670000D03*
D14*
X159025000Y-87670000D03*
X159025000Y-93670000D03*
%TD*%
D15*
%TO.C,C2*%
X138390000Y-94180000D03*
X136665000Y-94180000D03*
%TD*%
D16*
%TO.C,C1*%
X141070000Y-87580000D03*
X141070000Y-85855000D03*
%TD*%
D17*
%TO.C,U3*%
X142760000Y-88680000D03*
X143260000Y-88680000D03*
X143760000Y-88680000D03*
X144260000Y-88680000D03*
X144760000Y-88680000D03*
X144760000Y-93080000D03*
X144260000Y-93080000D03*
X143760000Y-93080000D03*
X143260000Y-93080000D03*
X142760000Y-93080000D03*
%TD*%
D18*
%TO.C,R5*%
X152300000Y-89580000D03*
X152300000Y-87755000D03*
%TD*%
D12*
%TO.C,R2*%
X128120000Y-92140000D03*
X126295000Y-92140000D03*
%TD*%
D19*
%TO.C,J2*%
X129790000Y-98500000D03*
D20*
X132330000Y-98500000D03*
X134870000Y-98500000D03*
X137410000Y-98500000D03*
X139950000Y-98500000D03*
X142490000Y-98500000D03*
X145030000Y-98500000D03*
X147570000Y-98500000D03*
X150110000Y-98500000D03*
X152650000Y-98500000D03*
X155190000Y-98500000D03*
X157730000Y-98500000D03*
X157730000Y-83260000D03*
X155190000Y-83260000D03*
X152650000Y-83260000D03*
X150110000Y-83260000D03*
X147570000Y-83260000D03*
X145030000Y-83260000D03*
X142490000Y-83260000D03*
X139950000Y-83260000D03*
X137410000Y-83260000D03*
X134870000Y-83260000D03*
X132330000Y-83260000D03*
X129790000Y-83260000D03*
%TD*%
D21*
%TO.C,J3*%
X155690000Y-88168500D03*
D22*
X155690000Y-90708500D03*
X155690000Y-93248500D03*
%TD*%
D23*
%TO.C,J1*%
X129395000Y-87860000D03*
X129395000Y-93640000D03*
D24*
X129895000Y-86430000D03*
D25*
X125715000Y-86430000D03*
D24*
X129895000Y-95070000D03*
D25*
X125715000Y-95070000D03*
%TD*%
G36*
X159943039Y-80779685D02*
G01*
X159988794Y-80832489D01*
X160000000Y-80884000D01*
X160000000Y-81636034D01*
X159980315Y-81703073D01*
X159927511Y-81748828D01*
X159876034Y-81760034D01*
X124124034Y-81769965D01*
X124056990Y-81750299D01*
X124011220Y-81697508D01*
X124000000Y-81645965D01*
X124000000Y-80884000D01*
X124019685Y-80816961D01*
X124072489Y-80771206D01*
X124124000Y-80760000D01*
X159876000Y-80760000D01*
X159943039Y-80779685D01*
G37*
M02*
