M48
; DRILL file {KiCad 9.0.1} date 2025-04-29T19:20:27+0900
; FORMAT={-:-/ absolute / metric / decimal}
; #@! TF.CreationDate,2025-04-29T19:20:27+09:00
; #@! TF.GenerationSoftware,Kicad,Pcbnew,9.0.1
; #@! TF.FileFunction,Plated,1,4,PTH
FMAT,2
METRIC
; #@! TA.AperFunction,Plated,PTH,ViaDrill
T1C0.300
; #@! TA.AperFunction,Plated,PTH,ComponentDrill
T2C0.600
; #@! TA.AperFunction,Plated,PTH,ComponentDrill
T3C0.800
; #@! TA.AperFunction,Plated,PTH,ComponentDrill
T4C1.000
%
G90
G05
T1
X126.295Y-70.4
X126.295Y-72.91
X126.295Y-89.63
X126.295Y-92.14
X128.12Y-70.4
X128.12Y-72.91
X128.12Y-89.63
X128.12Y-92.14
X130.47Y-68.32
X130.47Y-69.12
X130.47Y-73.92
X130.47Y-74.72
X130.47Y-87.55
X130.47Y-88.35
X130.47Y-93.15
X130.47Y-93.95
X131.56Y-72.75
X131.56Y-91.98
X131.63Y-71.94
X131.63Y-91.17
X133.065Y-75.655
X133.065Y-94.885
X134.199Y-75.65
X134.199Y-94.88
X134.505Y-69.21
X134.505Y-73.64
X134.505Y-88.44
X134.505Y-92.87
X134.658Y-67.328
X134.658Y-86.558
X135.757Y-71.33
X135.757Y-90.56
X138.6Y-65.18
X138.6Y-84.41
X139.906Y-69.493
X139.906Y-88.723
X141.038Y-68.362
X141.038Y-87.592
X142.99Y-72.06
X142.99Y-91.29
X143.75Y-70.76
X143.75Y-89.99
X143.76Y-72.6
X143.76Y-91.83
X143.77Y-67.86
X143.77Y-87.09
X144.64Y-72.03
X144.64Y-91.26
X145.351Y-67.231
X145.351Y-76.069
X145.351Y-86.461
X145.351Y-95.299
X145.917Y-67.796
X145.917Y-87.026
X146.482Y-68.362
X146.482Y-87.592
X147.614Y-73.807
X147.614Y-93.037
X148.179Y-70.059
X148.179Y-73.241
X148.179Y-89.289
X148.179Y-92.471
X148.745Y-70.625
X148.745Y-89.855
X148.745Y-72.675
X148.745Y-91.905
X151.315Y-69.353
X151.315Y-88.584
X152.3Y-70.35
X152.3Y-89.58
X153.465Y-73.504
X153.465Y-92.733
X153.575Y-67.09
X153.575Y-86.32
X156.04Y-66.51
X156.04Y-85.74
X157.67Y-71.44
X157.67Y-72.44
X157.67Y-90.67
X157.67Y-91.67
T3
X129.79Y-64.03
X129.79Y-79.27
X129.79Y-83.26
X129.79Y-98.5
X132.33Y-64.03
X132.33Y-79.27
X132.33Y-83.26
X132.33Y-98.5
X134.87Y-64.03
X134.87Y-79.27
X134.87Y-83.26
X134.87Y-98.5
X137.41Y-64.03
X137.41Y-79.27
X137.41Y-83.26
X137.41Y-98.5
X139.95Y-64.03
X139.95Y-79.27
X139.95Y-83.26
X139.95Y-98.5
X142.49Y-64.03
X142.49Y-79.27
X142.49Y-83.26
X142.49Y-98.5
X145.03Y-64.03
X145.03Y-79.27
X145.03Y-83.26
X145.03Y-98.5
X147.57Y-64.03
X147.57Y-79.27
X147.57Y-83.26
X147.57Y-98.5
X150.11Y-64.03
X150.11Y-79.27
X150.11Y-83.26
X150.11Y-98.5
X152.65Y-64.03
X152.65Y-79.27
X152.65Y-83.26
X152.65Y-98.5
X155.19Y-64.03
X155.19Y-79.27
X155.19Y-83.26
X155.19Y-98.5
X157.73Y-64.03
X157.73Y-79.27
X157.73Y-83.26
X157.73Y-98.5
T4
X155.69Y-68.938
X155.69Y-71.478
X155.69Y-74.019
X155.69Y-88.168
X155.69Y-90.709
X155.69Y-93.248
T2
G00X126.115Y-67.2
M15
G01X125.315Y-67.2
M16
G05
G00X126.115Y-75.84
M15
G01X125.315Y-75.84
M16
G05
G00X126.115Y-86.43
M15
G01X125.315Y-86.43
M16
G05
G00X126.115Y-95.07
M15
G01X125.315Y-95.07
M16
G05
G00X130.445Y-67.2
M15
G01X129.345Y-67.2
M16
G05
G00X130.445Y-75.84
M15
G01X129.345Y-75.84
M16
G05
G00X130.445Y-86.43
M15
G01X129.345Y-86.43
M16
G05
G00X130.445Y-95.07
M15
G01X129.345Y-95.07
M16
G05
M30
